<svg id="Grupo_4" data-name="Grupo 4" xmlns="http://www.w3.org/2000/svg" xmlns:xlink="http://www.w3.org/1999/xlink" width="121.595" height="121.595" viewBox="0 0 121.595 121.595">
  <defs>
    <clipPath id="clip-path">
      <rect id="Rectángulo_2" data-name="Rectángulo 2" width="121.595" height="121.595" fill="none"/>
    </clipPath>
  </defs>
  <g id="Grupo_3" data-name="Grupo 3" clip-path="url(#clip-path)">
    <path id="Trazado_17" data-name="Trazado 17" d="M119.427,60.8A58.63,58.63,0,1,1,60.8,2.168a58.631,58.631,0,0,1,58.63,58.63" fill="#fff"/>
    <path id="Trazado_18" data-name="Trazado 18" d="M60.8,121.6a60.8,60.8,0,1,1,60.8-60.8,60.867,60.867,0,0,1-60.8,60.8m0-117.259A56.462,56.462,0,1,0,117.26,60.8,56.526,56.526,0,0,0,60.8,4.336" fill="#3e145e"/>
    <path id="Trazado_19" data-name="Trazado 19" d="M44.924,17.463l3.325,11.305a42.036,42.036,0,0,1,25.511,0l3.146-11.305a38.52,38.52,0,0,0-31.982,0" fill="#ffe227"/>
    <path id="Trazado_20" data-name="Trazado 20" d="M77.9,75.42a2.531,2.531,0,1,1-2.53-2.53,2.531,2.531,0,0,1,2.53,2.53" fill="#ffe227"/>
    <path id="Trazado_21" data-name="Trazado 21" d="M42.342,59.306a21.729,21.729,0,0,1-6.691-1.035,1.364,1.364,0,0,1-.43-2.325,9.334,9.334,0,0,0,1.8-2.3,18.285,18.285,0,0,0,2.493-9.388v-5.09c.356-8.182,3.225-11.843,6.389-15.173a1.364,1.364,0,0,1,1.976,1.881c-2.9,3.051-5.324,6.16-5.639,13.352v5.03a21.018,21.018,0,0,1-2.878,10.787c-.249.416-.5.8-.754,1.157,3.211.6,9.536.969,14.153-3.8a1.364,1.364,0,1,1,1.959,1.9,16.761,16.761,0,0,1-12.378,5" fill="#3e145e"/>
    <path id="Trazado_22" data-name="Trazado 22" d="M75.124,97.969a1.363,1.363,0,0,1-1.364-1.364v-8.93a1.363,1.363,0,1,1,2.727,0v8.93a1.363,1.363,0,0,1-1.363,1.364" fill="#3e145e"/>
    <path id="Trazado_23" data-name="Trazado 23" d="M47.09,97.969a1.364,1.364,0,0,1-1.364-1.364v-8.93a1.364,1.364,0,1,1,2.728,0v8.93a1.363,1.363,0,0,1-1.364,1.364" fill="#3e145e"/>
    <path id="Trazado_24" data-name="Trazado 24" d="M61.216,58a11.384,11.384,0,0,1-10.173-6.144c-.344-.649-.675-1.338-.985-2.046a1.371,1.371,0,0,1-.113-.36,29.872,29.872,0,0,1-.495-7.49,1.365,1.365,0,0,1,1.182-1.218,10.716,10.716,0,0,0,6.934-4.825,1.364,1.364,0,0,1,2.376.165S61.98,39.674,71.4,39.355a1.37,1.37,0,0,1,1.4,1.29,50.582,50.582,0,0,1-.461,8.771,1.451,1.451,0,0,1-.056.243c0-.005-.052.212-.162.542a11.259,11.259,0,0,1-9.894,7.756c-.342.027-.68.042-1.016.042m-8.608-9.167c.268.6.551,1.191.846,1.746A8.718,8.718,0,0,0,62,55.238a8.57,8.57,0,0,0,7.534-5.9c.056-.177.1-.307.116-.379a51.232,51.232,0,0,0,.454-6.86c-6.493-.03-9.767-1.832-11.337-3.243A13.689,13.689,0,0,1,52.107,43.2a31.582,31.582,0,0,0,.5,5.634" fill="#3e145e"/>
    <path id="Trazado_25" data-name="Trazado 25" d="M89.129,97.969H33.085A1.365,1.365,0,0,1,31.72,96.6V77.458a13.444,13.444,0,0,1,11.8-13.329l5.628-.688c2.066-.253,4.533-1.807,4.916-3.719l.782-4.641a1.364,1.364,0,0,1,2.018-.96,9.009,9.009,0,0,0,8.554.129,1.364,1.364,0,0,1,1.979.982l.76,4.532c.375,1.87,2.844,3.424,4.909,3.677l5.627.688a13.443,13.443,0,0,1,11.8,13.329V96.6a1.364,1.364,0,0,1-1.364,1.365m-54.68-2.728H87.764V77.458a10.71,10.71,0,0,0-9.4-10.621l-5.628-.689c-3.065-.374-6.619-2.68-7.261-5.891l-.481-2.871a11.816,11.816,0,0,1-7.753-.1l-.494,2.929c-.649,3.251-4.2,5.557-7.268,5.931l-5.628.689a10.71,10.71,0,0,0-9.4,10.621Z" fill="#3e145e"/>
    <path id="Trazado_26" data-name="Trazado 26" d="M72.856,29.906a2.427,2.427,0,0,1-.794-.132C67.849,28.324,60.848,28.2,60.777,28.2c-.028,0-7.037.126-11.243,1.573a2.442,2.442,0,0,1-3.145-1.643l-2.551-8.894a3.522,3.522,0,0,1,1.937-4.207A36.625,36.625,0,0,1,60.8,12.175,36.59,36.59,0,0,1,75.82,15.03a3.522,3.522,0,0,1,1.939,4.206l-2.552,8.9a2.438,2.438,0,0,1-2.351,1.775M60.8,14.9a33.853,33.853,0,0,0-13.9,2.611.81.81,0,0,0-.442.971L48.93,27.1c4.625-1.5,11.55-1.621,11.847-1.626.339.005,7.264.126,11.889,1.626l2.471-8.615a.812.812,0,0,0-.443-.97A33.84,33.84,0,0,0,60.8,14.9" fill="#3e145e"/>
    <path id="Trazado_27" data-name="Trazado 27" d="M79.26,59.3a16.86,16.86,0,0,1-11.876-4.5,1.365,1.365,0,1,1,1.876-1.982c4.566,4.324,10.611,3.952,13.728,3.376q-.381-.531-.755-1.158a21.011,21.011,0,0,1-2.878-10.786V39.167c-.314-7.132-2.741-10.242-5.641-13.293a1.365,1.365,0,0,1,1.978-1.881c3.164,3.33,6.033,6.991,6.389,15.115v5.15a18.3,18.3,0,0,0,2.492,9.387,9.39,9.39,0,0,0,1.8,2.3,1.364,1.364,0,0,1-.427,2.325A21.749,21.749,0,0,1,79.26,59.3" fill="#3e145e"/>
    <path id="Trazado_28" data-name="Trazado 28" d="M61.106,24.068A1.364,1.364,0,0,1,59.743,22.7v-4.8a1.364,1.364,0,1,1,2.727,0v4.8a1.364,1.364,0,0,1-1.364,1.364" fill="#3e145e"/>
    <path id="Trazado_29" data-name="Trazado 29" d="M63.506,21.669h-4.8a1.365,1.365,0,0,1,0-2.729h4.8a1.365,1.365,0,0,1,0,2.729" fill="#3e145e"/>
    <path id="Trazado_30" data-name="Trazado 30" d="M50.307,83.572H49.89a1.364,1.364,0,0,1,0-2.729h.417a.555.555,0,0,0,.556-.554V76.867a3.977,3.977,0,1,0-7.955,0v3.422a.555.555,0,0,0,.555.554h.416a1.364,1.364,0,1,1,0,2.729h-.416a3.287,3.287,0,0,1-3.283-3.283V76.867a6.7,6.7,0,0,1,13.41,0v3.422a3.286,3.286,0,0,1-3.283,3.283" fill="#3e145e"/>
    <path id="Trazado_31" data-name="Trazado 31" d="M46.884,72.889a1.362,1.362,0,0,1-1.363-1.362v-6.46a1.364,1.364,0,1,1,2.727,0v6.46a1.362,1.362,0,0,1-1.364,1.362" fill="#3e145e"/>
    <path id="Trazado_32" data-name="Trazado 32" d="M75.124,74.1a1.363,1.363,0,0,1-1.364-1.363V65.066a1.363,1.363,0,1,1,2.727,0v7.672A1.363,1.363,0,0,1,75.124,74.1" fill="#3e145e"/>
    <path id="Trazado_33" data-name="Trazado 33" d="M75.124,80.052a4.281,4.281,0,1,1,4.28-4.281,4.285,4.285,0,0,1-4.28,4.281m0-5.833a1.552,1.552,0,1,0,1.553,1.552,1.554,1.554,0,0,0-1.553-1.552" fill="#3e145e"/>
    <path id="Trazado_34" data-name="Trazado 34" d="M99.261,97.969H22.333a1.364,1.364,0,0,1,0-2.728H99.261a1.364,1.364,0,0,1,0,2.728" fill="#3e145e"/>
  </g>
</svg>
