<svg id="Grupo_17" data-name="Grupo 17" xmlns="http://www.w3.org/2000/svg" xmlns:xlink="http://www.w3.org/1999/xlink" width="95.999" height="95.154" viewBox="0 0 95.999 95.154">
  <defs>
    <clipPath id="clip-path">
      <rect id="Rectángulo_12" data-name="Rectángulo 12" width="95.999" height="95.154" transform="translate(0 0)" fill="none"/>
    </clipPath>
  </defs>
  <rect id="Rectángulo_8" data-name="Rectángulo 8" width="33.472" height="19.018" transform="translate(0 1.948)" fill="#ffe227"/>
  <rect id="Rectángulo_9" data-name="Rectángulo 9" width="26.225" height="17.168" transform="translate(69.773 1.949)" fill="#ffe227"/>
  <rect id="Rectángulo_10" data-name="Rectángulo 10" width="19.132" height="14.309" transform="translate(75.395 77.902)" fill="#ffe227"/>
  <rect id="Rectángulo_11" data-name="Rectángulo 11" width="25.509" height="18.642" transform="translate(4.264 76.512)" fill="#ffe227"/>
  <g id="Grupo_16" data-name="Grupo 16">
    <g id="Grupo_15" data-name="Grupo 15" clip-path="url(#clip-path)">
      <path id="Trazado_85" data-name="Trazado 85" d="M83.293,2.943h1.962a1.472,1.472,0,1,0,0-2.943H83.293a1.472,1.472,0,1,0,0,2.943" fill="#3e145e"/>
      <path id="Trazado_86" data-name="Trazado 86" d="M75.443,2.943h1.963a1.472,1.472,0,1,0,0-2.943H75.443a1.472,1.472,0,1,0,0,2.943" fill="#3e145e"/>
      <path id="Trazado_87" data-name="Trazado 87" d="M93.1,0H91.141a1.472,1.472,0,1,0,0,2.943H93.1A1.472,1.472,0,1,0,93.1,0" fill="#3e145e"/>
      <path id="Trazado_88" data-name="Trazado 88" d="M93.1,7.849H83.292a1.472,1.472,0,0,0,0,2.943H93.1a1.472,1.472,0,1,0,0-2.943" fill="#3e145e"/>
      <path id="Trazado_89" data-name="Trazado 89" d="M75.443,10.793h1.963a1.472,1.472,0,1,0,0-2.943H75.443a1.472,1.472,0,1,0,0,2.943" fill="#3e145e"/>
      <path id="Trazado_90" data-name="Trazado 90" d="M93.1,15.7H75.444a1.469,1.469,0,0,0-1.23.664L71.3,20.791a34.649,34.649,0,0,0-46.647.015l-2.922-4.445A1.472,1.472,0,0,0,20.5,15.7H2.841a1.472,1.472,0,0,0,0,2.944H19.707l2.808,4.269A34.784,34.784,0,0,0,64.241,77.376l9.973,15.167a1.471,1.471,0,0,0,1.23.663H93.1a1.472,1.472,0,0,0,0-2.943H76.238L66.777,75.871A34.834,34.834,0,0,0,82.8,46.563v0A34.844,34.844,0,0,0,73.438,22.9l2.8-4.26H93.1a1.472,1.472,0,0,0,0-2.944M62.789,69.807a1.472,1.472,0,0,0-2.461,1.617l2.281,3.467a31.615,31.615,0,0,1-13.164,3.566V67.646c.038,0,.072-.01.11-.014.137-.01.272-.023.406-.035.195-.019.384-.05.573-.072.275-.033.548-.058.821-.1a.145.145,0,0,1,.028,0c.185-.03.364-.075.549-.109.207-.04.41-.082.615-.128.232-.052.465-.1.693-.154.06-.015.118-.039.174-.053.152-.04.3-.09.452-.135.2-.057.392-.11.587-.174.173-.056.345-.109.516-.171s.364-.141.548-.213c.082-.032.167-.064.249-.1.171-.069.347-.128.517-.2.112-.046.221-.1.33-.15.252-.114.5-.241.75-.367.143-.071.287-.135.428-.209s.253-.141.38-.211c.027-.014.056-.027.082-.042.273-.151.535-.318.8-.483.155-.1.313-.186.466-.285.048-.032.092-.07.139-.1.085-.058.177-.108.261-.165.225-.157.44-.326.659-.49.1-.078.205-.143.305-.219.014-.01.018-.026.029-.036s0-.006.008-.01c.184-.142.375-.276.556-.426.253-.213.49-.444.733-.667q.771-.708,1.47-1.486c.155-.177.322-.342.472-.522.251-.3.478-.617.713-.929.151-.2.31-.4.454-.608.22-.318.421-.651.625-.983.133-.22.273-.435.4-.658.191-.338.363-.687.534-1.034.117-.235.235-.467.342-.7.158-.354.3-.714.44-1.079.094-.249.19-.5.274-.751.125-.364.238-.734.342-1.107.074-.269.143-.539.209-.811.086-.368.166-.738.233-1.111.054-.3.1-.6.138-.9.048-.359.094-.717.125-1.08.008-.11.028-.213.036-.323H79.826A31.868,31.868,0,0,1,65.159,73.413ZM29.029,27.459l-2.741-4.168a31.718,31.718,0,0,1,36.034-5.146l-5.31,9.409c-.085-.041-.173-.067-.257-.106-.515-.238-1.041-.449-1.573-.644-.169-.062-.338-.128-.508-.186-.565-.189-1.141-.348-1.722-.49-.152-.037-.3-.085-.456-.117-.6-.134-1.218-.231-1.833-.311-.14-.019-.276-.049-.416-.065a21.571,21.571,0,0,0-2.274-.126A21.118,21.118,0,0,0,26.878,46.6c0,.713.039,1.414.108,2.11.023.232.069.458.1.69.062.456.119.914.209,1.36.056.27.132.529.2.8.1.4.188.8.306,1.185.085.279.19.544.285.819.129.364.253.73.4,1.085.113.273.245.536.369.8.157.339.312.679.487,1.008.14.267.3.522.45.78.184.314.369.63.568.935.169.253.348.5.524.742.211.291.422.582.649.862.189.238.392.467.593.7.234.266.472.532.717.787.215.223.439.433.663.646.257.242.514.481.781.711.237.2.48.4.723.584l.032.028c.01.006.014.022.026.03l.109.076c.222.173.448.338.678.5.1.07.2.134.3.2s.179.134.273.2.189.116.286.177c.268.171.54.334.816.492.027.016.055.03.085.045.181.106.362.21.545.309.077.04.156.074.23.112.259.135.521.263.784.386.165.074.326.157.49.228s.344.132.514.2l.012,0,.04.015c.2.08.408.165.615.241s.431.15.647.221c.194.064.392.117.587.174l.08.023c.152.046.3.1.455.136.258.069.523.123.786.183.205.046.41.088.615.128.028.006.058.008.086.013.35.066.707.116,1.063.163.082.009.165.027.247.037.19.022.38.053.574.072.135.012.271.025.41.035.036,0,.07.012.107.014V78.457a31.831,31.831,0,0,1-22.319-53.01l2.386,3.63a1.473,1.473,0,0,0,2.461-1.618M60.718,33.7a18.563,18.563,0,0,1,1.494,1.683c.073.094.14.191.213.286a18.478,18.478,0,0,1,1.09,1.61c.056.089.113.179.165.274a18.2,18.2,0,0,1,1.744,4.118c.034.122.064.246.1.371a18.272,18.272,0,0,1,.372,1.805c.024.165.055.33.074.5a18.122,18.122,0,0,1,.155,2.225c0,.013,0,.024,0,.036a18.06,18.06,0,0,1-4.672,12.113V55.355c0-5.383-4.221-7.834-8.141-7.834h-.267a8.026,8.026,0,0,0,1.307-4.413c0-4.057-2.861-7.359-6.377-7.359s-6.378,3.3-6.378,7.359A8.019,8.019,0,0,0,42.9,47.521h-.392a7.905,7.905,0,0,0-8.018,7.768v3.427A18.092,18.092,0,0,1,50.126,28.592c.171.021.338.052.506.078.567.085,1.129.192,1.687.33.153.038.3.077.456.119a18.554,18.554,0,0,1,1.9.628c.042.02.088.033.13.05a17.744,17.744,0,0,1,2.023.976c.06.032.118.073.177.107a18.015,18.015,0,0,1,1.69,1.109c.127.092.255.187.38.285A18.331,18.331,0,0,1,60.716,33.7Zm-2.21,27.664c-.016.011-.034.019-.052.031a17.853,17.853,0,0,1-2.242,1.36c-.111.058-.224.109-.337.165a17.862,17.862,0,0,1-2.206.9c-.074.027-.145.058-.218.081a17.611,17.611,0,0,1-2.378.565c-.2.035-.4.065-.6.092a16.237,16.237,0,0,1-5,0c-.2-.027-.4-.057-.6-.092a17.9,17.9,0,0,1-2.378-.565c-.073-.023-.144-.054-.218-.081a18.032,18.032,0,0,1-2.206-.9c-.113-.056-.226-.107-.337-.165a17.935,17.935,0,0,1-2.242-1.36c-.017-.012-.037-.02-.052-.031V55.289a4.96,4.96,0,0,1,5.074-4.825h10.8c1.93,0,5.2,1.029,5.2,4.891v6.007ZM44.538,43.108c0-2.434,1.541-4.415,3.435-4.415s3.434,1.981,3.434,4.415-1.542,4.413-3.434,4.413-3.435-1.98-3.435-4.413m24.473,1.983c-.006-.088-.026-.173-.034-.261q-.078-.9-.237-1.8c-.024-.144-.038-.292-.066-.435a21.056,21.056,0,0,0-1.405-4.485c-.019-.042-.042-.08-.06-.122A21.011,21.011,0,0,0,66.24,36.1c-.077-.134-.159-.261-.238-.393q-.468-.771-1-1.5c-.115-.159-.231-.313-.352-.469q-.526-.681-1.112-1.32c-.131-.144-.257-.292-.392-.432-.46-.478-.948-.936-1.455-1.374-.067-.057-.128-.122-.2-.179a20.83,20.83,0,0,0-1.887-1.408c-.011-.008-.021-.018-.033-.026l1.056-1.87,4.254-7.539a31.69,31.69,0,0,1,4.783,3.684l-2.752,4.184a1.473,1.473,0,0,0,2.461,1.618l2.4-3.643a31.915,31.915,0,0,1,8.048,19.657Z" fill="#3e145e"/>
      <path id="Trazado_91" data-name="Trazado 91" d="M20.5,2.943A1.472,1.472,0,1,0,20.5,0H10.689a1.472,1.472,0,0,0,0,2.943Z" fill="#3e145e"/>
      <path id="Trazado_92" data-name="Trazado 92" d="M2.841,2.943H4.8A1.472,1.472,0,1,0,4.8,0H2.841a1.472,1.472,0,1,0,0,2.943" fill="#3e145e"/>
      <path id="Trazado_93" data-name="Trazado 93" d="M2.841,10.793H10.69a1.472,1.472,0,0,0,0-2.943H2.841a1.472,1.472,0,1,0,0,2.943" fill="#3e145e"/>
      <path id="Trazado_94" data-name="Trazado 94" d="M86.727,75.955a1.473,1.473,0,0,0-1.472-1.472H75.443a1.472,1.472,0,0,0,0,2.944h9.812a1.473,1.473,0,0,0,1.472-1.472" fill="#3e145e"/>
      <path id="Trazado_95" data-name="Trazado 95" d="M93.1,74.483H91.141a1.472,1.472,0,1,0,0,2.943H93.1a1.472,1.472,0,1,0,0-2.943" fill="#3e145e"/>
      <path id="Trazado_96" data-name="Trazado 96" d="M79.368,85.275H93.1a1.472,1.472,0,1,0,0-2.943H79.368a1.472,1.472,0,1,0,0,2.943" fill="#3e145e"/>
      <path id="Trazado_97" data-name="Trazado 97" d="M22.463,93.207a1.472,1.472,0,1,0,0-2.943H20.5a1.472,1.472,0,1,0,0,2.943Z" fill="#3e145e"/>
      <path id="Trazado_98" data-name="Trazado 98" d="M47.973,93.207a1.472,1.472,0,1,0,0-2.943H46.01a1.472,1.472,0,1,0,0,2.943Z" fill="#3e145e"/>
      <path id="Trazado_99" data-name="Trazado 99" d="M2.841,93.207H14.614a1.472,1.472,0,1,0,0-2.943H2.841a1.472,1.472,0,1,0,0,2.943" fill="#3e145e"/>
      <path id="Trazado_100" data-name="Trazado 100" d="M40.123,90.263H28.35a1.472,1.472,0,1,0,0,2.943H40.123a1.472,1.472,0,1,0,0-2.943" fill="#3e145e"/>
      <path id="Trazado_101" data-name="Trazado 101" d="M2.841,85.358H4.8a1.472,1.472,0,1,0,0-2.943H2.841a1.472,1.472,0,1,0,0,2.943" fill="#3e145e"/>
      <path id="Trazado_102" data-name="Trazado 102" d="M10.689,82.415a1.472,1.472,0,1,0,0,2.943h1.962a1.472,1.472,0,1,0,0-2.943Z" fill="#3e145e"/>
      <path id="Trazado_103" data-name="Trazado 103" d="M28.35,82.415H18.538a1.472,1.472,0,1,0,0,2.943H28.35a1.472,1.472,0,0,0,0-2.943" fill="#3e145e"/>
      <path id="Trazado_104" data-name="Trazado 104" d="M16.576,74.565H2.841a1.472,1.472,0,1,0,0,2.943H16.576a1.472,1.472,0,1,0,0-2.943" fill="#3e145e"/>
    </g>
  </g>
</svg>
