<svg xmlns="http://www.w3.org/2000/svg" xmlns:xlink="http://www.w3.org/1999/xlink" width="93.207" height="93.819" viewBox="0 0 93.207 93.819">
  <defs>
    <clipPath id="clip-path">
      <rect id="Rectángulo_14" data-name="Rectángulo 14" width="93.207" height="93.819" transform="translate(0 0)" fill="none"/>
    </clipPath>
  </defs>
  <g id="Grupo_21" data-name="Grupo 21" transform="translate(0 0)">
    <g id="Grupo_20" data-name="Grupo 20" clip-path="url(#clip-path)">
      <path id="Trazado_108" data-name="Trazado 108" d="M53.705,11.254a7.7,7.7,0,1,1-7.7-7.7,7.7,7.7,0,0,1,7.7,7.7" fill="#ffe227"/>
      <path id="Trazado_109" data-name="Trazado 109" d="M35.795,20.669H58.258L63.6,24.252l1.034,6.193.794,13.936V56.125s-1.955,9.659-8.536,2.345V93.819L34.6,93.291l1-34.821s-3.871,4.411-7.356,0L27.3,29.864s1.723-8.133,8.5-9.195" fill="#ffe227"/>
      <path id="Trazado_110" data-name="Trazado 110" d="M81.924,20.848H80.153a10.127,10.127,0,0,0,2.365-6.576c0-5.248-3.788-9.52-8.444-9.52s-8.442,4.272-8.442,9.52A10.132,10.132,0,0,0,68,20.848H66.042a10.839,10.839,0,0,0-2.206.227,11.494,11.494,0,0,0-8.754-4.083H52.86a10.62,10.62,0,0,0,2.574-7.024C55.434,4.472,51.473,0,46.6,0s-8.83,4.472-8.83,9.968a10.614,10.614,0,0,0,2.573,7.024H38.318A11.687,11.687,0,0,0,28.189,22.4a12.559,12.559,0,0,0-1.7,6.594V48.009h-15.7V34.393a1.472,1.472,0,1,0-2.943,0V50.859a6.389,6.389,0,0,1-4.9-6.206V32.191a8.288,8.288,0,0,1,8.155-8.4H17.66v3.189a1.472,1.472,0,0,0,2.944,0V23.792h4.453a1.461,1.461,0,0,0,.134-2.916,10.141,10.141,0,0,0,2.384-6.6c0-5.248-3.789-9.52-8.443-9.52s-8.443,4.272-8.443,9.52a10.127,10.127,0,0,0,2.365,6.576H11.1A11.235,11.235,0,0,0,0,32.191V44.653a9.311,9.311,0,0,0,7.849,9.171V91.735A1.472,1.472,0,0,0,9.32,93.207H28.944a1.472,1.472,0,0,0,1.471-1.472V60.007a5.157,5.157,0,0,0,.753.2,5.788,5.788,0,0,0,.937.078,5.493,5.493,0,0,0,2.672-.717V91.735a1.472,1.472,0,0,0,1.471,1.472H56.959a1.473,1.473,0,0,0,1.472-1.472V59.573a5.164,5.164,0,0,0,1.733.637,5.8,5.8,0,0,0,.938.078A5.517,5.517,0,0,0,62.792,60V91.735a1.473,1.473,0,0,0,1.472,1.472H83.886a1.473,1.473,0,0,0,1.472-1.472V53.824a9.31,9.31,0,0,0,7.848-9.171V32.3c0-7.866-5.847-11.448-11.282-11.448m8.339,23.805a6.389,6.389,0,0,1-4.9,6.206V34.393a1.472,1.472,0,0,0-2.944,0V48.009H75.546V23.792h6.378c3.1,0,8.339,1.792,8.339,8.5Zm-7.849,45.61H75.546V85.158h6.868ZM60.648,57.305a2.9,2.9,0,0,1-2.217-2.964V51.793h5.342v2.774a2.812,2.812,0,0,1-.795,1.977c-.054.056-.129.078-.186.129a2.582,2.582,0,0,1-1.69.671,2.524,2.524,0,0,1-.454-.039M55.487,90.263H48.075V84.711h7.412ZM31.651,57.305a2.378,2.378,0,0,1-1.236-.678,3.152,3.152,0,0,1-.981-2.286V51.793h5.343v2.774a2.812,2.812,0,0,1-.8,1.977,2.605,2.605,0,0,1-1.876.8,2.524,2.524,0,0,1-.454-.039M27.472,90.263H20.6V85.158h6.868ZM10.792,52.5V50.953h15.7v3.388a6.194,6.194,0,0,0,.982,3.321V82.214H20.6V60.549a1.472,1.472,0,0,0-2.944,0V82.214H10.792Zm18.642-4.392V28.993a9.961,9.961,0,0,1,.977-4.527,7.86,7.86,0,0,1,1.835-2.352,9.552,9.552,0,0,1,6.072-2.179H55.082A8.48,8.48,0,0,1,60.8,22.2a9.245,9.245,0,0,1,2.972,6.685V48.849H58.431V31.207a1.538,1.538,0,0,0-1.472-1.472,1.372,1.372,0,0,0-.221.044,1.454,1.454,0,0,0-1.251,1.428V45.665H37.72V31.207a1.455,1.455,0,0,0-1.171-1.414,1.669,1.669,0,0,0-.3-.058,1.523,1.523,0,0,0-1.471,1.472V48.849H29.434ZM40.717,9.968c0-3.873,2.64-7.025,5.887-7.025S52.49,6.095,52.49,9.968s-2.64,7.024-5.886,7.024-5.887-3.151-5.887-7.024M66.042,23.792H72.6V48.009H66.716V28.883A11.99,11.99,0,0,0,65.6,23.838c.149-.007.292-.046.441-.046m2.533-9.52c0-3.625,2.466-6.576,5.5-6.576s5.5,2.951,5.5,6.576-2.465,6.576-5.5,6.576-5.5-2.95-5.5-6.576M10.792,85.158H17.66v5.105H10.792Zm26.928-.447h7.412v5.552H37.72Zm17.767-2.943H48.075V58.818a1.472,1.472,0,1,0-2.943,0v22.95H37.72V48.608H55.487v33.16ZM65.736,57.789a5.759,5.759,0,0,0,.98-3.222V50.953h15.7V82.214H75.546V60.549a1.472,1.472,0,0,0-2.943,0V82.214H65.736Zm0,27.369H72.6v5.105H65.736Zm-52.1-70.886c0-3.625,2.467-6.576,5.5-6.576s5.5,2.951,5.5,6.576-2.467,6.576-5.5,6.576-5.5-2.95-5.5-6.576" fill="#3e145e"/>
    </g>
  </g>
</svg>
