<svg id="Grupo_280" data-name="Grupo 280" xmlns="http://www.w3.org/2000/svg" xmlns:xlink="http://www.w3.org/1999/xlink" width="590.097" height="389.619" viewBox="0 0 590.097 389.619">
  <defs>
    <clipPath id="clip-path">
      <rect id="Rectángulo_185" data-name="Rectángulo 185" width="590.097" height="389.619" fill="none"/>
    </clipPath>
    <clipPath id="clip-path-3">
      <rect id="Rectángulo_144" data-name="Rectángulo 144" width="351.414" height="333.767" transform="translate(94.616 48.588)" fill="none"/>
    </clipPath>
    <clipPath id="clip-path-5">
      <rect id="Rectángulo_145" data-name="Rectángulo 145" width="150.78" height="159.923" transform="translate(175.35 224.163)" fill="none"/>
    </clipPath>
    <clipPath id="clip-path-6">
      <rect id="Rectángulo_146" data-name="Rectángulo 146" width="63.829" height="63.829" transform="translate(210.194 264.815)" fill="none"/>
    </clipPath>
    <clipPath id="clip-path-7">
      <rect id="Rectángulo_147" data-name="Rectángulo 147" width="69.499" height="96.467" transform="translate(98.803 288.581)" fill="none"/>
    </clipPath>
    <clipPath id="clip-path-8">
      <rect id="Rectángulo_156" data-name="Rectángulo 156" width="65.308" height="135.631" transform="translate(1.834 246.903)" fill="none"/>
    </clipPath>
    <clipPath id="clip-path-9">
      <rect id="Rectángulo_171" data-name="Rectángulo 171" width="56.904" height="121.728" transform="translate(466.91 259.618)" fill="none"/>
    </clipPath>
    <clipPath id="clip-path-10">
      <rect id="Rectángulo_172" data-name="Rectángulo 172" width="31.548" height="47.066" transform="translate(480.764 321.082)" fill="none"/>
    </clipPath>
    <clipPath id="clip-path-11">
      <rect id="Rectángulo_173" data-name="Rectángulo 173" width="42.657" height="36.18" transform="translate(477.02 263.59)" fill="none"/>
    </clipPath>
    <clipPath id="clip-path-12">
      <rect id="Rectángulo_174" data-name="Rectángulo 174" width="8.956" height="17.275" transform="translate(513.568 346.993)" fill="none"/>
    </clipPath>
    <clipPath id="clip-path-13">
      <rect id="Rectángulo_175" data-name="Rectángulo 175" width="8.955" height="17.275" transform="translate(471.093 346.993)" fill="none"/>
    </clipPath>
    <clipPath id="clip-path-14">
      <rect id="Rectángulo_176" data-name="Rectángulo 176" width="126.778" height="93.976" transform="translate(333.192 295.193)" fill="none"/>
    </clipPath>
    <clipPath id="clip-path-15">
      <rect id="Rectángulo_179" data-name="Rectángulo 179" width="29.742" height="65.34" transform="translate(405.544 307.823)" fill="none"/>
    </clipPath>
    <clipPath id="clip-path-16">
      <rect id="Rectángulo_182" data-name="Rectángulo 182" width="43.882" height="33.999" transform="translate(54.86 259.629)" fill="none"/>
    </clipPath>
    <clipPath id="clip-path-17">
      <rect id="Rectángulo_183" data-name="Rectángulo 183" width="67.573" height="23.496" transform="translate(522.524 273.085)" fill="none"/>
    </clipPath>
  </defs>
  <g id="Grupo_279" data-name="Grupo 279" clip-path="url(#clip-path)">
    <g id="Grupo_278" data-name="Grupo 278">
      <g id="Grupo_277" data-name="Grupo 277" clip-path="url(#clip-path)">
        <g id="Grupo_237" data-name="Grupo 237" opacity="0.7">
          <g id="Grupo_236" data-name="Grupo 236">
            <g id="Grupo_235" data-name="Grupo 235" clip-path="url(#clip-path-3)">
              <path id="Trazado_1154" data-name="Trazado 1154" d="M204.759,69.133s-59.772,30.456-89.587,77.391-27.455,107.255,8.774,152.087,105.472,38.924,163.445,67.309,121.946,22.544,149.356-37.6-13.92-82.611-21.026-152.208S345.879,4.6,204.759,69.133" fill="#eceffe"/>
              <g id="Grupo_234" data-name="Grupo 234" opacity="0.7">
                <g id="Grupo_233" data-name="Grupo 233">
                  <g id="Grupo_232" data-name="Grupo 232" clip-path="url(#clip-path-3)">
                    <path id="Trazado_1155" data-name="Trazado 1155" d="M204.759,69.133s-59.772,30.456-89.587,77.391-27.455,107.255,8.774,152.087,105.472,38.924,163.445,67.309,121.946,22.544,149.356-37.6-13.92-82.611-21.026-152.208S345.879,4.6,204.759,69.133" fill="#eceffe"/>
                  </g>
                </g>
              </g>
            </g>
          </g>
        </g>
        <path id="Trazado_1156" data-name="Trazado 1156" d="M309.059,378.79c0,5.7-20.481,10.318-45.746,10.318s-45.745-4.619-45.745-10.318,20.48-10.319,45.745-10.319,45.746,4.62,45.746,10.319" fill="#9c9c9c"/>
        <path id="Trazado_1157" data-name="Trazado 1157" d="M299.02,133.656s6,30.093,7.069,35.665,3.021,18.805,5.254,24.609,1.489,13.233.381,15.322a34.561,34.561,0,0,1-3.82,5.108l-7.439-9.751s-4.432-47.593-4.6-54.325,3.154-16.628,3.154-16.628" fill="#fff"/>
        <path id="Trazado_1158" data-name="Trazado 1158" d="M299.02,133.656s6,30.093,7.069,35.665,3.021,18.805,5.254,24.609,1.489,13.233.381,15.322a34.561,34.561,0,0,1-3.82,5.108l-7.439-9.751s-4.432-47.593-4.6-54.325S299.02,133.656,299.02,133.656Z" fill="none" stroke="#1a2e35" stroke-linecap="round" stroke-linejoin="round" stroke-width="1"/>
        <path id="Trazado_1159" data-name="Trazado 1159" d="M302.991,203.458s4.726,2.95,5.551,4.2,1.431,2.837.785,4.2a39.64,39.64,0,0,1-5.065,6.241c-.888.794-1.647-2.383-1.715-5.106s.444-9.531.444-9.531" fill="#fff"/>
        <path id="Trazado_1160" data-name="Trazado 1160" d="M302.991,203.458s4.726,2.95,5.551,4.2,1.431,2.837.785,4.2a39.64,39.64,0,0,1-5.065,6.241c-.888.794-1.647-2.383-1.715-5.106S302.991,203.458,302.991,203.458Z" fill="none" stroke="#1a2e35" stroke-linecap="round" stroke-linejoin="round" stroke-width="1"/>
        <path id="Trazado_1161" data-name="Trazado 1161" d="M277.6,368.514s14.8,7.2,15.769,8.59-2.474,3.25-11.295,3.25-9.083-1.16-12.589-2.089-10.453-.232-11.434-2.322.7-9.286.7-9.286Z" fill="#fff"/>
        <path id="Trazado_1162" data-name="Trazado 1162" d="M277.6,368.514s14.8,7.2,15.769,8.59-2.474,3.25-11.295,3.25-9.083-1.16-12.589-2.089-10.453-.232-11.434-2.322.7-9.286.7-9.286Z" fill="none" stroke="#1a2e35" stroke-linecap="round" stroke-linejoin="round" stroke-width="1"/>
        <path id="Trazado_1163" data-name="Trazado 1163" d="M257.964,372.228s12.257,7.429,11.159,9.983-9.92,2.554-14.58,1.857-14.566-6.965-15.089-9.286.785-5.8,7.965-6.5,10.545,3.947,10.545,3.947" fill="#fff"/>
        <path id="Trazado_1164" data-name="Trazado 1164" d="M257.964,372.228s12.257,7.429,11.159,9.983-9.92,2.554-14.58,1.857-14.566-6.965-15.089-9.286.785-5.8,7.965-6.5S257.964,372.228,257.964,372.228Z" fill="none" stroke="#1a2e35" stroke-linecap="round" stroke-linejoin="round" stroke-width="1"/>
        <path id="Trazado_1165" data-name="Trazado 1165" d="M295.112,250.809s-7.021,53.861-8.218,61.754-5.064,20.431-7.149,29.949a162.3,162.3,0,0,0-2.6,16.947,16.122,16.122,0,0,0,.121,4.876c.29,2.322.336,4.179.336,4.179a63.989,63.989,0,0,1-9.477,1.625c-3.942.232-9.282.232-9.282.232l-1.767-15.09s1.3-22.287,2.071-28.788,1.589-57.576,1.554-58.969-.34-13.7-.34-13.7l23.849-2.554s3.252-9.286,8.138-8.822,2.762,8.358,2.762,8.358" fill="#fff"/>
        <path id="Trazado_1166" data-name="Trazado 1166" d="M295.112,250.809s-7.021,53.861-8.218,61.754-5.064,20.431-7.149,29.949a162.3,162.3,0,0,0-2.6,16.947,16.122,16.122,0,0,0,.121,4.876c.29,2.322.336,4.179.336,4.179a63.989,63.989,0,0,1-9.477,1.625c-3.942.232-9.282.232-9.282.232l-1.767-15.09s1.3-22.287,2.071-28.788,1.589-57.576,1.554-58.969-.34-13.7-.34-13.7l23.849-2.554s3.252-9.286,8.138-8.822S295.112,250.809,295.112,250.809Z" fill="none" stroke="#1a2e35" stroke-linecap="round" stroke-linejoin="round" stroke-width="1"/>
        <path id="Trazado_1167" data-name="Trazado 1167" d="M292.351,242.451c-4.887-.464-8.139,8.822-8.139,8.822l-23.848,2.554s.081,3.267.164,6.624c2.538.225,4.894.36,6.9.36a210.2,210.2,0,0,0,22.883-1.285l1.019-10.707,1.556,10.922,1.108-.357c.678-5.193,1.12-8.575,1.12-8.575s2.126-7.894-2.762-8.358" fill="#1a2e35"/>
        <path id="Trazado_1168" data-name="Trazado 1168" d="M292.351,242.451c-4.887-.464-8.139,8.822-8.139,8.822l-23.848,2.554s.081,3.267.164,6.624c2.538.225,4.894.36,6.9.36a210.2,210.2,0,0,0,22.883-1.285l1.019-10.707,1.556,10.922,1.108-.357c.678-5.193,1.12-8.575,1.12-8.575S297.239,242.915,292.351,242.451Z" fill="none" stroke="#1a2e35" stroke-linecap="round" stroke-linejoin="round" stroke-width="1"/>
        <path id="Trazado_1169" data-name="Trazado 1169" d="M235.487,252.434s.018.329.049.935c.329,6.35,2.247,43.126,2.839,49.908.649,7.429-2.632,15.554-2.465,22.287s1.769,43.182,1.769,43.182l1.775,6.036S243.563,372,247.51,372s10.454.232,10.454.232.342-4.875.3-6.5-.184-7.429-.184-7.429,6.674-30.413,7.075-32.967,5.573-46.664,5.539-48.057,1.1-21.126,1.1-21.126Z" fill="#fff"/>
        <path id="Trazado_1170" data-name="Trazado 1170" d="M235.487,252.434s.018.329.049.935c.329,6.35,2.247,43.126,2.839,49.908.649,7.429-2.632,15.554-2.465,22.287s1.769,43.182,1.769,43.182l1.775,6.036S243.563,372,247.51,372s10.454.232,10.454.232.342-4.875.3-6.5-.184-7.429-.184-7.429,6.674-30.413,7.075-32.967,5.573-46.664,5.539-48.057,1.1-21.126,1.1-21.126Z" fill="none" stroke="#1a2e35" stroke-linecap="round" stroke-linejoin="round" stroke-width="1"/>
        <path id="Trazado_1171" data-name="Trazado 1171" d="M271.534,260.765c.151-2.691.263-4.617.263-4.617l-36.31-3.714s.018.329.049.934c.04.765.1,1.982.184,3.527,8.491,1.519,23.222,3.916,31.707,3.916,1.4,0,2.77-.017,4.107-.046" fill="#1a2e35"/>
        <path id="Trazado_1172" data-name="Trazado 1172" d="M271.534,260.765c.151-2.691.263-4.617.263-4.617l-36.31-3.714s.018.329.049.934c.04.765.1,1.982.184,3.527,8.491,1.519,23.222,3.916,31.707,3.916C268.825,260.811,270.2,260.794,271.534,260.765Z" fill="none" stroke="#1a2e35" stroke-linecap="round" stroke-linejoin="round" stroke-width="1"/>
        <path id="Trazado_1173" data-name="Trazado 1173" d="M262.237,109.885s-3.84.643-5.3,2.356a37.536,37.536,0,0,0-3.936,5.353c-.2.643-22.773,14.349-22.773,14.349l1.622,65.319s.678,10.065-.521,13.492a69.047,69.047,0,0,0-2.911,20.774c.207,8.352.756,21.844.756,21.844s25.827,5.139,38.248,5.139a210.2,210.2,0,0,0,22.883-1.285l1.02-10.708,1.555,10.923,5.312-1.714,4.337-32.338s3.042-6.853,3.005-8.352.771-3.426-.117-4.712-2.452-3.854-2.452-3.854-3.9-70.887-3.95-72.815-11.679-13.277-12.547-13.706-6.2-8.352-13.11-10.493-11.125.428-11.125.428" fill="#fff"/>
        <path id="Trazado_1174" data-name="Trazado 1174" d="M262.237,109.885s-3.84.643-5.3,2.356a37.536,37.536,0,0,0-3.936,5.353c-.2.643-22.773,14.349-22.773,14.349l1.622,65.319s.678,10.065-.521,13.492a69.047,69.047,0,0,0-2.911,20.774c.207,8.352.756,21.844.756,21.844s25.827,5.139,38.248,5.139a210.2,210.2,0,0,0,22.883-1.285l1.02-10.708,1.555,10.923,5.312-1.714,4.337-32.338s3.042-6.853,3.005-8.352.771-3.426-.117-4.712-2.452-3.854-2.452-3.854-3.9-70.887-3.95-72.815-11.679-13.277-12.547-13.706-6.2-8.352-13.11-10.493S262.237,109.885,262.237,109.885Z" fill="none" stroke="#1a2e35" stroke-linecap="round" stroke-linejoin="round" stroke-width="1"/>
        <path id="Trazado_1175" data-name="Trazado 1175" d="M255.2,119.736l-2.591,23.528,10.635,4.938-2.658,7.976L287.174,202.9" fill="none" stroke="#1a2e35" stroke-linecap="round" stroke-linejoin="round" stroke-width="1"/>
        <path id="Trazado_1176" data-name="Trazado 1176" d="M284.895,122.374l7.977,18.611-3.419,4.558,5.7,7.976L292.871,204.8" fill="none" stroke="#1a2e35" stroke-linecap="round" stroke-linejoin="round" stroke-width="1"/>
        <path id="Trazado_1177" data-name="Trazado 1177" d="M261.246,113.1a49.383,49.383,0,0,0,2.477,13.492c2.3,6.425,17.536,50.756,17.536,50.756l9.856,34.693s-1.306-35.336-1.343-36.835-7.465-50.542-7.465-50.542-1.268-7.923-3.27-10.921-15.418-8.567-17.791-.643" fill="#ff4f5b"/>
        <path id="Trazado_1178" data-name="Trazado 1178" d="M261.246,113.1a49.383,49.383,0,0,0,2.477,13.492c2.3,6.425,17.536,50.756,17.536,50.756l9.856,34.693s-1.306-35.336-1.343-36.835-7.465-50.542-7.465-50.542-1.268-7.923-3.27-10.921S263.619,105.173,261.246,113.1Z" fill="none" stroke="#231f20" stroke-miterlimit="10" stroke-width="1"/>
        <path id="Trazado_1179" data-name="Trazado 1179" d="M260.3,109.67s-6.194.643-5.1,10.065,2.536,15.849,2.536,15.849" fill="none" stroke="#1a2e35" stroke-linecap="round" stroke-linejoin="round" stroke-width="2"/>
        <path id="Trazado_1180" data-name="Trazado 1180" d="M256.973,148.005s2.627,10.922,4.415,13.92,7.216,6,11.071,6" fill="none" stroke="#1a2e35" stroke-linecap="round" stroke-linejoin="round" stroke-width="1"/>
        <path id="Trazado_1181" data-name="Trazado 1181" d="M265.261,145.435s2.884,12.636,3.371,14.991-1.115,6.853-3.787,11.351" fill="none" stroke="#1a2e35" stroke-linecap="round" stroke-linejoin="round" stroke-width="1"/>
        <path id="Trazado_1182" data-name="Trazado 1182" d="M264.027,173.29h0a1.2,1.2,0,0,1-.474-1.608l.307-.557a1.161,1.161,0,0,1,1.6-.434,1.2,1.2,0,0,1,.473,1.608l-.306.557a1.161,1.161,0,0,1-1.6.434" fill="#1a2e35"/>
        <path id="Trazado_1183" data-name="Trazado 1183" d="M273.887,168.162h0a1.143,1.143,0,0,1-1.182,1.145l-.642-.018a1.214,1.214,0,0,1-1.175-1.21,1.144,1.144,0,0,1,1.182-1.145l.642.018a1.213,1.213,0,0,1,1.175,1.21" fill="#1a2e35"/>
        <path id="Trazado_1184" data-name="Trazado 1184" d="M256.994,148.862l-1.472-9.307a3.834,3.834,0,0,1,2.9-4.361,4.05,4.05,0,0,1,4.806,2.9l2.51,9.27" fill="none" stroke="#1a2e35" stroke-linecap="round" stroke-linejoin="round" stroke-width="2"/>
        <path id="Trazado_1185" data-name="Trazado 1185" d="M294.949,150.748c.061,2.436-1.605,4.411-3.721,4.411a4.278,4.278,0,0,1-3.94-4.411c-.061-2.436,1.605-4.411,3.721-4.411a4.278,4.278,0,0,1,3.94,4.411" fill="#fff"/>
        <path id="Trazado_1186" data-name="Trazado 1186" d="M294.949,150.748c.061,2.436-1.605,4.411-3.721,4.411a4.278,4.278,0,0,1-3.94-4.411c-.061-2.436,1.605-4.411,3.721-4.411A4.278,4.278,0,0,1,294.949,150.748Z" fill="none" stroke="#1a2e35" stroke-linecap="round" stroke-linejoin="round" stroke-width="1"/>
        <path id="Trazado_1187" data-name="Trazado 1187" d="M280.794,113.6s8.419,11.84,11.108,35.985" fill="none" stroke="#1a2e35" stroke-linecap="round" stroke-linejoin="round" stroke-width="2"/>
        <path id="Trazado_1188" data-name="Trazado 1188" d="M294,149.936a2.217,2.217,0,0,1-2.028,2.438,2.354,2.354,0,0,1-2.151-2.438,2.218,2.218,0,0,1,2.03-2.438A2.354,2.354,0,0,1,294,149.936" fill="#fff"/>
        <path id="Trazado_1189" data-name="Trazado 1189" d="M294,149.936a2.217,2.217,0,0,1-2.028,2.438,2.354,2.354,0,0,1-2.151-2.438,2.218,2.218,0,0,1,2.03-2.438A2.354,2.354,0,0,1,294,149.936Z" fill="none" stroke="#1a2e35" stroke-linecap="round" stroke-linejoin="round" stroke-width="1"/>
        <path id="Trazado_1190" data-name="Trazado 1190" d="M304.43,205.306a43.63,43.63,0,0,0-1.272,4.875c.017.7-.164,2.787-1.8,2.322s-1.149-8.822-.94-9.751,4.2,2.068,4.2,2.068" fill="#fff"/>
        <path id="Trazado_1191" data-name="Trazado 1191" d="M304.43,205.306a43.63,43.63,0,0,0-1.272,4.875c.017.7-.164,2.787-1.8,2.322s-1.149-8.822-.94-9.751,4.2,2.068,4.2,2.068" fill="none" stroke="#1a2e35" stroke-linecap="round" stroke-linejoin="round" stroke-width="1"/>
        <path id="Trazado_1192" data-name="Trazado 1192" d="M251.358,197.9a10.434,10.434,0,0,0,4.744,1.285c2.569,0,7.26-.857,8.984-.429s6.145,6,6.145,6,1.317,1.285.69,1.927-1.884,1.714-2.757,1.071-5.246-4.283-5.246-4.283l-11.025,4.5-4.556-2.356Z" fill="#fff"/>
        <path id="Trazado_1193" data-name="Trazado 1193" d="M251.358,197.9a10.434,10.434,0,0,0,4.744,1.285c2.569,0,7.26-.857,8.984-.429s6.145,6,6.145,6,1.317,1.285.69,1.927-1.884,1.714-2.757,1.071-5.246-4.283-5.246-4.283l-11.025,4.5-4.556-2.356Z" fill="none" stroke="#1a2e35" stroke-linecap="round" stroke-linejoin="round" stroke-width="1"/>
        <path id="Trazado_1194" data-name="Trazado 1194" d="M234.479,130.444s-7.262.857-8.5,2.784-21.141,45.616-21.093,47.544,39.8,33.194,39.8,33.194l8.591-16.276L231.8,177.773l9.315-21.63" fill="#fff"/>
        <path id="Trazado_1195" data-name="Trazado 1195" d="M234.479,130.444s-7.262.857-8.5,2.784-21.141,45.616-21.093,47.544,39.8,33.194,39.8,33.194l8.591-16.276L231.8,177.773l9.315-21.63" fill="none" stroke="#1a2e35" stroke-linecap="round" stroke-linejoin="round" stroke-width="1"/>
        <path id="Trazado_1196" data-name="Trazado 1196" d="M247.886,221.89l21,.428-.11-13.064" fill="none" stroke="#1a2e35" stroke-linecap="round" stroke-linejoin="round" stroke-width="1"/>
        <line id="Línea_55" data-name="Línea 55" x1="5.556" y2="2.068" transform="translate(247.338 207.97)" fill="none" stroke="#1a2e35" stroke-linecap="round" stroke-linejoin="round" stroke-width="1"/>
        <path id="Trazado_1197" data-name="Trazado 1197" d="M259.219,100.462s2.39,18.632,3.958,21.416,12.768,13.92,12.768,13.92,3.535-12.85,3.889-15.848.7-14.991.7-14.991l-21.35-6Z" fill="#fff"/>
        <path id="Trazado_1198" data-name="Trazado 1198" d="M259.219,100.462s2.39,18.632,3.958,21.416,12.768,13.92,12.768,13.92,3.535-12.85,3.889-15.848.7-14.991.7-14.991l-21.35-6Z" fill="none" stroke="#1a2e35" stroke-linecap="round" stroke-linejoin="round" stroke-width="1"/>
        <path id="Trazado_1199" data-name="Trazado 1199" d="M259.219,100.462s.28,2.183.711,5.166a21.4,21.4,0,0,0,5.662,3.8c2.759,1.213,10.1,1.892,14.745,1.352.118-3.14.2-5.817.2-5.817l-21.35-6Z" fill="#1a2e35"/>
        <path id="Trazado_1200" data-name="Trazado 1200" d="M259.219,100.462s.28,2.183.711,5.166a21.4,21.4,0,0,0,5.662,3.8c2.759,1.213,10.1,1.892,14.745,1.352.118-3.14.2-5.817.2-5.817l-21.35-6Z" fill="none" stroke="#1a2e35" stroke-linecap="round" stroke-linejoin="round" stroke-width="1"/>
        <path id="Trazado_1201" data-name="Trazado 1201" d="M253.032,84.185s-2.858-3-4.272.428,1.711,8.568,3.43,8.782a7.432,7.432,0,0,0,2.993-.214s1.193,4.924,2.3,6.423a22.434,22.434,0,0,0,8.108,6.414c3.9,1.715,16.953,2.367,18.607.012s1.556-14.991,1.529-16.063-.214-16.329-.214-16.329,1.176-5.3-.414-8.94-17.564-8.781-21.581-6.639-8.636,5.782-8.948,10.493-.119,12.422-.119,12.422Z" fill="#fff"/>
        <path id="Trazado_1202" data-name="Trazado 1202" d="M253.032,84.185s-2.858-3-4.272.428,1.711,8.568,3.43,8.782a7.432,7.432,0,0,0,2.993-.214s1.193,4.924,2.3,6.423a22.434,22.434,0,0,0,8.108,6.414c3.9,1.715,16.953,2.367,18.607.012s1.556-14.991,1.529-16.063-.214-16.329-.214-16.329,1.176-5.3-.414-8.94-17.564-8.781-21.581-6.639-8.636,5.782-8.948,10.493-.119,12.422-.119,12.422Z" fill="none" stroke="#1a2e35" stroke-linecap="round" stroke-linejoin="round" stroke-width="1"/>
        <path id="Trazado_1203" data-name="Trazado 1203" d="M276.64,77.547s2.658,12.207,2.053,13.706-2.532,1.5-4.92.214-1.146-3-1.146-3" fill="none" stroke="#1a2e35" stroke-linecap="round" stroke-linejoin="round" stroke-width="1"/>
        <path id="Trazado_1204" data-name="Trazado 1204" d="M267.353,91.681s1.15,3.212,3.3,3.427,7.513.642,7.513.642" fill="none" stroke="#1a2e35" stroke-linecap="round" stroke-linejoin="round" stroke-width="1"/>
        <path id="Trazado_1205" data-name="Trazado 1205" d="M259.731,77.975l.342,5.14s1.954,1.07,6.451,1.07,5.97-1.07,5.97-1.07l-.128-5.14S265.845,74.12,259.731,77.975Z" fill="none" stroke="#1a2e35" stroke-linecap="round" stroke-linejoin="round" stroke-width="1"/>
        <path id="Trazado_1206" data-name="Trazado 1206" d="M276.649,77.975l1.633,5.354s.663.856,5.161.856,5.97-1.07,5.97-1.07l-.128-5.14S282.764,74.12,276.649,77.975Z" fill="none" stroke="#1a2e35" stroke-linecap="round" stroke-linejoin="round" stroke-width="1"/>
        <line id="Línea_56" data-name="Línea 56" x2="4.283" transform="translate(272.366 77.975)" fill="none" stroke="#1a2e35" stroke-linecap="round" stroke-linejoin="round" stroke-width="1"/>
        <line id="Línea_57" data-name="Línea 57" x1="8.444" y2="4.926" transform="translate(251.287 77.975)" fill="none" stroke="#1a2e35" stroke-linecap="round" stroke-linejoin="round" stroke-width="1"/>
        <path id="Trazado_1207" data-name="Trazado 1207" d="M261.809,75.4s2.292-2.57,7.485-.428" fill="none" stroke="#1a2e35" stroke-linecap="round" stroke-linejoin="round" stroke-width="1"/>
        <path id="Trazado_1208" data-name="Trazado 1208" d="M277.442,75.4a5.3,5.3,0,0,1,5.553-.643" fill="none" stroke="#1a2e35" stroke-linecap="round" stroke-linejoin="round" stroke-width="1"/>
        <path id="Trazado_1209" data-name="Trazado 1209" d="M267.285,80.331c.023.946-.341,1.713-.814,1.713s-.875-.767-.9-1.713.341-1.713.814-1.713.876.767.9,1.713" fill="#1a2e35"/>
        <path id="Trazado_1210" data-name="Trazado 1210" d="M280.986,80.117c.023.946-.341,1.713-.814,1.713s-.875-.767-.9-1.713.342-1.713.815-1.713.876.767.9,1.713" fill="#1a2e35"/>
        <path id="Trazado_1211" data-name="Trazado 1211" d="M266.322,60.306s2.064,4.553-.5,6.178a5.187,5.187,0,0,1-5.2,0,5.76,5.76,0,0,1,.161,6.5,36.385,36.385,0,0,1-4.407,5.854s.463,5.527-.5,6.178-3.585-.325-3.625-1.951-1.1-4.878-1.138-6.5-.8-5.853-.8-5.853-6.576-2.927-3.088-6.5,10.9-6.5,10.9-6.5.163-6.5,4.667-8.455,14.187-4.877,14.268-1.626a9.99,9.99,0,0,1-.854,4.878s8.121-.325,13.787,5.2,5.469,10.731,2.543,10.731-3.887.651-3.887.651,5.609,3.252,2.723,4.878-5.862-.325-5.862-.325,1.245-2.277-2.4-5.2-16.787-8.129-16.787-8.129" fill="#1a2e35"/>
        <path id="Trazado_1212" data-name="Trazado 1212" d="M266.322,60.306s2.064,4.553-.5,6.178a5.187,5.187,0,0,1-5.2,0,5.76,5.76,0,0,1,.161,6.5,36.385,36.385,0,0,1-4.407,5.854s.463,5.527-.5,6.178-3.585-.325-3.625-1.951-1.1-4.878-1.138-6.5-.8-5.853-.8-5.853-6.576-2.927-3.088-6.5,10.9-6.5,10.9-6.5.163-6.5,4.667-8.455,14.187-4.877,14.268-1.626a9.99,9.99,0,0,1-.854,4.878s8.121-.325,13.787,5.2,5.469,10.731,2.543,10.731-3.887.651-3.887.651,5.609,3.252,2.723,4.878-5.862-.325-5.862-.325,1.245-2.277-2.4-5.2S266.322,60.306,266.322,60.306Z" fill="none" stroke="#1a2e35" stroke-linecap="round" stroke-linejoin="round" stroke-width="1"/>
        <path id="Trazado_1213" data-name="Trazado 1213" d="M103.824,161.524q.069-.749.145-1.493" fill="none" stroke="#1a2e35" stroke-miterlimit="10" stroke-width="1"/>
        <path id="Trazado_1214" data-name="Trazado 1214" d="M104.3,157.033a172.4,172.4,0,0,1,342.18-1.309" fill="none" stroke="#1a2e35" stroke-miterlimit="10" stroke-width="1" stroke-dasharray="3.016 3.016"/>
        <path id="Trazado_1215" data-name="Trazado 1215" d="M446.66,157.222q.087.744.169,1.49" fill="none" stroke="#1a2e35" stroke-miterlimit="10" stroke-width="1"/>
        <path id="Trazado_1216" data-name="Trazado 1216" d="M127.15,41.981,111.9,89.561l60.391,9.15,10.37-43.92s-36.6-2.44-55.511-12.81" fill="#fff"/>
        <path id="Trazado_1217" data-name="Trazado 1217" d="M127.15,41.981,111.9,89.561l60.391,9.15,10.37-43.92S146.06,52.351,127.15,41.981Z" fill="none" stroke="#1a2e35" stroke-linecap="round" stroke-linejoin="round" stroke-width="1"/>
        <path id="Trazado_1218" data-name="Trazado 1218" d="M189.982,11.48S218.652,14.53,239.391.5c0,0,25.621,20.13,35.381,21.96,0,0-15.251,16.47-31.109,21.35,0,0-39.041-17.69-53.681-32.33" fill="#fff"/>
        <path id="Trazado_1219" data-name="Trazado 1219" d="M189.982,11.48S218.652,14.53,239.391.5c0,0,25.621,20.13,35.381,21.96,0,0-15.251,16.47-31.109,21.35C243.663,43.81,204.622,26.12,189.982,11.48Z" fill="none" stroke="#1a2e35" stroke-linecap="round" stroke-linejoin="round" stroke-width="1"/>
        <path id="Trazado_1220" data-name="Trazado 1220" d="M189.982,11.48s5.075-4.333,14.226-6.772a38.993,38.993,0,0,0,9.806,23.577s-17.752-9.559-24.032-16.805" fill="#1a2e35"/>
        <path id="Trazado_1221" data-name="Trazado 1221" d="M189.982,11.48s5.075-4.333,14.226-6.772a38.993,38.993,0,0,0,9.806,23.577S196.262,18.726,189.982,11.48Z" fill="none" stroke="#1a2e35" stroke-linecap="round" stroke-linejoin="round" stroke-width="1"/>
        <path id="Trazado_1222" data-name="Trazado 1222" d="M303.169,31.508s-1.008,3.058,5.084,8.134c2.775,2.313,9.02,3.238,9.02,3.238l16.4-20.522s-26.84,3.66-30.5,9.15" fill="#1a2e35"/>
        <path id="Trazado_1223" data-name="Trazado 1223" d="M303.169,31.508s-1.008,3.058,5.084,8.134c2.775,2.313,9.02,3.238,9.02,3.238l16.4-20.522S306.829,26.018,303.169,31.508Z" fill="none" stroke="#1a2e35" stroke-linecap="round" stroke-linejoin="round" stroke-width="1"/>
        <path id="Trazado_1224" data-name="Trazado 1224" d="M303.169,31.508a78.9,78.9,0,0,1,28.06-4.27,33.662,33.662,0,0,1,23.791,11.59l17.689-21.96s-15.25-14.03-32.33-13.42-35.99,23.18-37.21,28.06" fill="#fff"/>
        <path id="Trazado_1225" data-name="Trazado 1225" d="M303.169,31.508a78.9,78.9,0,0,1,28.06-4.27,33.662,33.662,0,0,1,23.791,11.59l17.689-21.96s-15.25-14.03-32.33-13.42S304.389,26.628,303.169,31.508Z" fill="none" stroke="#1a2e35" stroke-linecap="round" stroke-linejoin="round" stroke-width="1"/>
        <path id="Trazado_1226" data-name="Trazado 1226" d="M406.005,43.249s-10.98,28.874-34.974,32.94c0,0,23.994,28.467,37.413,31.721,0,0,27.248-12.2,34.568-25.214,0,0-23.993-13.827-37.007-39.447" fill="#fff"/>
        <path id="Trazado_1227" data-name="Trazado 1227" d="M406.005,43.249s-10.98,28.874-34.974,32.94c0,0,23.994,28.467,37.413,31.721,0,0,27.248-12.2,34.568-25.214C443.012,82.7,419.019,68.869,406.005,43.249Z" fill="none" stroke="#1a2e35" stroke-linecap="round" stroke-linejoin="round" stroke-width="1"/>
        <path id="Trazado_1228" data-name="Trazado 1228" d="M144.235,190.34l10.658-45.168H83.334L81.811,190.34Z" fill="#1a2e35"/>
        <path id="Trazado_1229" data-name="Trazado 1229" d="M144.235,190.34l10.658-45.168H83.334L81.811,190.34Z" fill="none" stroke="#1a2e35" stroke-linecap="round" stroke-linejoin="round" stroke-width="1"/>
        <path id="Trazado_1230" data-name="Trazado 1230" d="M91.368,128.432l-.229,51.887,53.542,5.439,4.032-55.171Z" fill="#fff"/>
        <path id="Trazado_1231" data-name="Trazado 1231" d="M91.368,128.432l-.229,51.887,53.542,5.439,4.032-55.171Z" fill="none" stroke="#1a2e35" stroke-linecap="round" stroke-linejoin="round" stroke-width="1"/>
        <path id="Trazado_1232" data-name="Trazado 1232" d="M73.691,137.052l8.12,53.289h62.424l-4.06-48.214h-33.5l-3.045-6.09Z" fill="#c299f6"/>
        <path id="Trazado_1233" data-name="Trazado 1233" d="M73.691,137.052l8.12,53.289h62.424l-4.06-48.214h-33.5l-3.045-6.09Z" fill="none" stroke="#231f20" stroke-miterlimit="10" stroke-width="1"/>
        <path id="Trazado_1234" data-name="Trazado 1234" d="M413.027,190.34l-10.658-45.168h71.559l1.523,45.168Z" fill="#1a2e35"/>
        <path id="Trazado_1235" data-name="Trazado 1235" d="M413.027,190.34l-10.658-45.168h71.559l1.523,45.168Z" fill="none" stroke="#1a2e35" stroke-linecap="round" stroke-linejoin="round" stroke-width="1"/>
        <path id="Trazado_1236" data-name="Trazado 1236" d="M465.895,128.432l.229,51.887-53.542,5.439-4.031-55.171Z" fill="#fff"/>
        <path id="Trazado_1237" data-name="Trazado 1237" d="M465.895,128.432l.229,51.887-53.542,5.439-4.031-55.171Z" fill="none" stroke="#1a2e35" stroke-linecap="round" stroke-linejoin="round" stroke-width="1"/>
        <path id="Trazado_1238" data-name="Trazado 1238" d="M483.571,137.052l-8.12,53.289H413.027l4.061-48.214h33.495l3.045-6.09Z" fill="#c299f6"/>
        <path id="Trazado_1239" data-name="Trazado 1239" d="M483.571,137.052l-8.12,53.289H413.027l4.061-48.214h33.495l3.045-6.09Z" fill="none" stroke="#231f20" stroke-miterlimit="10" stroke-width="1"/>
        <g id="Grupo_240" data-name="Grupo 240" opacity="0.7" style="mix-blend-mode: multiply;isolation: isolate">
          <g id="Grupo_239" data-name="Grupo 239">
            <g id="Grupo_238" data-name="Grupo 238" clip-path="url(#clip-path-5)">
              <path id="Trazado_1240" data-name="Trazado 1240" d="M310.893,292.887V264.86a16.156,16.156,0,0,0-16.156-16.16H282.493v-4.167a4.128,4.128,0,0,0-4.13-4.129h-4.719v-1.391a14.866,14.866,0,0,0-14.848-14.85H227.449a14.869,14.869,0,0,0-14.851,14.85V240.4H207.88a4.127,4.127,0,0,0-4.127,4.129V248.7H191.505a16.157,16.157,0,0,0-16.156,16.16v65.767a16.157,16.157,0,0,0,16.156,16.158H294.737a16.157,16.157,0,0,0,16.156-16.158V296.785a11.35,11.35,0,0,1,11.338,11.339v47.088a11.394,11.394,0,0,1-11.046,11.338c-.377,0-28.957,0-39.344,0-1.464,0-2.557,0-3.368.043l-.128-.015a16.78,16.78,0,0,0-.332-1.777,15.618,15.618,0,0,0-15.128-11.89H233.357a15.586,15.586,0,0,0,0,31.172h19.528A15.618,15.618,0,0,0,268.013,372.2a16.836,16.836,0,0,0,.329-1.753l.121.005h3.378c39.3,0,39.351,0,39.4,0a15.322,15.322,0,0,0,14.889-15.233V308.124a15.252,15.252,0,0,0-15.236-15.237M225.109,240.4H220.39v-1.391a7.067,7.067,0,0,1,7.059-7.058H258.8a7.067,7.067,0,0,1,7.056,7.058V240.4h-4.719A4.129,4.129,0,0,0,257,244.533V248.7H229.241v-4.167a4.13,4.13,0,0,0-4.132-4.129" fill="gray"/>
            </g>
          </g>
        </g>
        <path id="Trazado_1241" data-name="Trazado 1241" d="M267.46,369.435h-.011l-.341-.016a1.91,1.91,0,0,1-1.951-1.933c0-1.3.244-1.736,1.951-1.877v-.07l.352.043c.81-.043,1.9-.043,3.367-.043,10.388,0,38.967,0,39.345,0A11.4,11.4,0,0,0,321.218,354.2V307.11a11.351,11.351,0,0,0-11.339-11.339h-8.907v-3.9h8.907a15.253,15.253,0,0,1,15.237,15.237V354.2a15.32,15.32,0,0,1-14.89,15.233c-.048,0-.1,0-39.4,0Z" fill="#fff"/>
        <path id="Trazado_1242" data-name="Trazado 1242" d="M272.63,242.609h-7.792V238a7.067,7.067,0,0,0-7.056-7.058H226.436A7.067,7.067,0,0,0,219.377,238v4.61h-7.792V238a14.869,14.869,0,0,1,14.851-14.85h31.346A14.866,14.866,0,0,1,272.63,238Z" fill="#ff4f5b"/>
        <path id="Trazado_1243" data-name="Trazado 1243" d="M190.491,247.686a16.156,16.156,0,0,0-16.155,16.16v65.767a16.156,16.156,0,0,0,16.155,16.158h51.617V247.686Z" fill="#ff4f5b"/>
        <path id="Trazado_1244" data-name="Trazado 1244" d="M293.724,247.686H242.109v98.085h51.615a16.156,16.156,0,0,0,16.155-16.158V263.846a16.156,16.156,0,0,0-16.155-16.16" fill="#ff4f5b"/>
        <path id="Trazado_1245" data-name="Trazado 1245" d="M248.724,270.66H235.492v19.452H216.039v13.235h19.453V322.8h13.232V303.347h19.454V290.112H248.724Z" fill="#fff"/>
        <g id="Grupo_243" data-name="Grupo 243" opacity="0.7">
          <g id="Grupo_242" data-name="Grupo 242">
            <g id="Grupo_241" data-name="Grupo 241" clip-path="url(#clip-path-6)">
              <path id="Trazado_1246" data-name="Trazado 1246" d="M268.178,284.266H254.57V264.815H229.646v19.451H210.2V309.19h19.451v19.454H254.57V309.19h19.453V284.266Zm0,19.081H248.724V322.8H235.491V303.347H216.039V290.112h19.452V270.66h13.233v19.452h19.454Z" fill="#eceffe"/>
            </g>
          </g>
        </g>
        <path id="Trazado_1247" data-name="Trazado 1247" d="M228.228,243.519a4.13,4.13,0,0,0-4.132-4.129h-17.23a4.127,4.127,0,0,0-4.127,4.129v4.167h25.489Z" fill="#c299f6"/>
        <path id="Trazado_1248" data-name="Trazado 1248" d="M228.228,243.519a4.13,4.13,0,0,0-4.132-4.129h-17.23a4.127,4.127,0,0,0-4.127,4.129v4.167h25.489Z" fill="none" stroke="#231f20" stroke-miterlimit="10" stroke-width="1"/>
        <path id="Trazado_1249" data-name="Trazado 1249" d="M281.478,243.519a4.128,4.128,0,0,0-4.129-4.129h-17.23a4.129,4.129,0,0,0-4.132,4.129v4.167h25.491Z" fill="#c299f6"/>
        <path id="Trazado_1250" data-name="Trazado 1250" d="M281.478,243.519a4.128,4.128,0,0,0-4.129-4.129h-17.23a4.129,4.129,0,0,0-4.132,4.129v4.167h25.491Z" fill="none" stroke="#231f20" stroke-miterlimit="10" stroke-width="1"/>
        <path id="Trazado_1251" data-name="Trazado 1251" d="M201.112,264.815a8.925,8.925,0,1,1-8.923-8.925,8.922,8.922,0,0,1,8.923,8.925" fill="#fff"/>
        <path id="Trazado_1252" data-name="Trazado 1252" d="M242.108,351.9h-9.765a15.514,15.514,0,0,0-10.552,4.141h20.317Z" fill="#c299f6"/>
        <path id="Trazado_1253" data-name="Trazado 1253" d="M262.425,356.04a15.521,15.521,0,0,0-10.554-4.141h-9.762v4.141Z" fill="#c299f6"/>
        <path id="Trazado_1254" data-name="Trazado 1254" d="M221.791,378.931a15.506,15.506,0,0,0,10.553,4.14h9.764v-4.14Z" fill="#c299f6"/>
        <path id="Trazado_1255" data-name="Trazado 1255" d="M242.108,383.072h9.763a15.508,15.508,0,0,0,10.553-4.14H242.108Z" fill="#c299f6"/>
        <path id="Trazado_1256" data-name="Trazado 1256" d="M257.692,363.79H267a15.592,15.592,0,0,0-4.575-7.75H242.108v22.891h20.316A15.577,15.577,0,0,0,267,371.183h-9.307Z" fill="#ff4f5b"/>
        <path id="Trazado_1257" data-name="Trazado 1257" d="M242.108,356.04H221.791a15.53,15.53,0,0,0,0,22.892h20.317Z" fill="#ff4f5b"/>
        <path id="Trazado_1258" data-name="Trazado 1258" d="M267,363.79h-9.307v7.393H267a15.051,15.051,0,0,0,0-7.393" fill="#1a2121"/>
        <path id="Trazado_1259" data-name="Trazado 1259" d="M253.4,372.681h2.925a5.2,5.2,0,0,0,5.192-5.2H248.207a5.194,5.194,0,0,0,5.194,5.2" fill="#c7c7c7"/>
        <path id="Trazado_1260" data-name="Trazado 1260" d="M256.326,362.291H253.4a5.2,5.2,0,0,0-5.194,5.194h13.311a5.2,5.2,0,0,0-5.192-5.194" fill="#fff"/>
        <g id="Grupo_246" data-name="Grupo 246" opacity="0.7" style="mix-blend-mode: multiply;isolation: isolate">
          <g id="Grupo_245" data-name="Grupo 245">
            <g id="Grupo_244" data-name="Grupo 244" clip-path="url(#clip-path-7)">
              <path id="Trazado_1261" data-name="Trazado 1261" d="M146.02,294.875v-6.294H121.084v6.294H98.8v83.879h22.374v6.294h24.935v-6.294H168.3V294.875Z" fill="gray"/>
            </g>
          </g>
        </g>
        <rect id="Rectángulo_148" data-name="Rectángulo 148" width="69.498" height="41.939" transform="translate(97.5 293.572)" fill="#fbd3c4"/>
        <rect id="Rectángulo_149" data-name="Rectángulo 149" width="69.498" height="41.939" transform="translate(97.5 335.512)" fill="#fbb69c"/>
        <path id="Rectángulo_150" data-name="Rectángulo 150" d="M4.178,0H45.93a4.177,4.177,0,0,1,4.177,4.177V57.683a4.178,4.178,0,0,1-4.178,4.178H4.178A4.178,4.178,0,0,1,0,57.683V4.178A4.178,4.178,0,0,1,4.178,0Z" transform="translate(107.197 304.581)" fill="#c299f6"/>
        <path id="Rectángulo_151" data-name="Rectángulo 151" d="M4.178,0H45.93a4.177,4.177,0,0,1,4.177,4.177V57.683a4.178,4.178,0,0,1-4.178,4.178H4.178A4.178,4.178,0,0,1,0,57.683V4.178A4.178,4.178,0,0,1,4.178,0Z" transform="translate(107.197 304.581)" fill="none" stroke="#231f20" stroke-miterlimit="10" stroke-width="1"/>
        <path id="Trazado_1262" data-name="Trazado 1262" d="M111.1,316.168v39.323h42.3Z" fill="#1a2121"/>
        <path id="Trazado_1263" data-name="Trazado 1263" d="M111.1,316.168l42.3,39.323V316.168Z" fill="#1a2121"/>
        <path id="Trazado_1264" data-name="Trazado 1264" d="M142.5,350.257H113.977v2.659h36.637v-2.659Z" fill="#c299f6"/>
        <rect id="Rectángulo_152" data-name="Rectángulo 152" width="36.638" height="4.715" transform="translate(113.976 299.866)" fill="#1a2121"/>
        <rect id="Rectángulo_153" data-name="Rectángulo 153" width="24.936" height="12.588" transform="translate(119.781 287.278)" fill="#f24f49"/>
        <rect id="Rectángulo_154" data-name="Rectángulo 154" width="36.638" height="4.715" transform="translate(113.977 366.442)" fill="#1a2121"/>
        <rect id="Rectángulo_155" data-name="Rectángulo 155" width="24.935" height="12.588" transform="translate(119.874 371.157)" fill="#f24f49"/>
        <path id="Trazado_1265" data-name="Trazado 1265" d="M132.343,319.522a14.158,14.158,0,1,0,14.166,14.17,14.139,14.139,0,0,0-14.166-14.17m1.6,22.619c-.953.732-1.6,1.163-1.6,1.163s-9.624-6.3-9.624-12.782a5.058,5.058,0,0,1,.874-2.958c2.367-3.4,8.75-2.689,8.75,1.987,0-5.738,9.626-5.5,9.626.971,0,4.8-5.285,9.5-8.022,11.619" fill="#fff"/>
        <path id="Trazado_1266" data-name="Trazado 1266" d="M132.344,329.551c0-4.676-6.384-5.386-8.751-1.987a5.058,5.058,0,0,0-.874,2.958c0,6.48,9.625,12.782,9.625,12.782s.65-.43,1.6-1.163c2.737-2.117,8.022-6.815,8.022-11.619,0-6.474-9.625-6.709-9.625-.971m-5.271-1.53a1.612,1.612,0,1,1-1.609,1.612,1.612,1.612,0,0,1,1.609-1.612" fill="#ec3b18"/>
        <path id="Trazado_1267" data-name="Trazado 1267" d="M127.073,328.021a1.612,1.612,0,1,0,1.612,1.612,1.612,1.612,0,0,0-1.612-1.612" fill="#fff"/>
        <g id="Grupo_249" data-name="Grupo 249" opacity="0.7" style="mix-blend-mode: multiply;isolation: isolate">
          <g id="Grupo_248" data-name="Grupo 248">
            <g id="Grupo_247" data-name="Grupo 247" clip-path="url(#clip-path-8)">
              <path id="Trazado_1268" data-name="Trazado 1268" d="M65.013,268.021H37.235v-1.6H50.19v-5h-7.1v-3.543H37.235v-2.515a4.67,4.67,0,1,0-5.36.11v2.4h-5.83v3.543h-7.1v5H31.875v1.6H3.965a2.13,2.13,0,0,0-2.131,2.131v38.707a2.129,2.129,0,0,0,2.131,2.126h27.91v3.443H15.343a7.085,7.085,0,1,0,0,14.17h9.242v5.316H8.258v2.918h2.825V345.8H8.258v2.918H15.67v8.13h16.2V368.67H15.67v2.4A5.734,5.734,0,1,0,21.4,376.8H47.576a5.733,5.733,0,1,0,5.732-5.734v-2.4H37.235V356.844H53.308v-8.13h7.409V345.8H57.894v-8.964h2.823v-2.918H44.394V328.6h9.24a7.085,7.085,0,0,0,0-14.17h-16.4v-3.443H65.013a2.125,2.125,0,0,0,2.129-2.126V270.152a2.127,2.127,0,0,0-2.129-2.131" fill="gray"/>
            </g>
          </g>
        </g>
        <rect id="Rectángulo_157" data-name="Rectángulo 157" width="5.359" height="118.056" transform="translate(30.541 249.282)" fill="#fff"/>
        <path id="Trazado_1269" data-name="Trazado 1269" d="M65.808,307.525a2.125,2.125,0,0,1-2.129,2.127H2.631A2.129,2.129,0,0,1,.5,307.525V268.818a2.129,2.129,0,0,1,2.131-2.13H63.679a2.126,2.126,0,0,1,2.129,2.13Z" fill="#c299f6"/>
        <path id="Trazado_1270" data-name="Trazado 1270" d="M65.808,307.525a2.125,2.125,0,0,1-2.129,2.127H2.631A2.129,2.129,0,0,1,.5,307.525V268.818a2.129,2.129,0,0,1,2.131-2.13H63.679a2.126,2.126,0,0,1,2.129,2.13Z" fill="none" stroke="#231f20" stroke-miterlimit="10" stroke-width="1"/>
        <path id="Trazado_1271" data-name="Trazado 1271" d="M63.034,270.264v35.814L3.275,270.264Z" fill="#f24f49"/>
        <path id="Trazado_1272" data-name="Trazado 1272" d="M63.034,306.078H3.275V270.264Z" fill="#f23129"/>
        <path id="Trazado_1273" data-name="Trazado 1273" d="M36.059,299.066l-2.826-2.824v9.21Z" fill="#fff"/>
        <path id="Trazado_1274" data-name="Trazado 1274" d="M30.383,299.093l2.85,6.359v-9.21Z" fill="#e5e5e5"/>
        <path id="Trazado_1275" data-name="Trazado 1275" d="M31.631,295.138l-2-2v2h.033a6.309,6.309,0,0,0,3.048,1.081Z" fill="#ffcab3"/>
        <path id="Trazado_1276" data-name="Trazado 1276" d="M29.633,291.827v1.314l2,2,1.083,1.081c.168.012.342.023.519.023.113,0,.221-.009.333-.016a6.268,6.268,0,0,0,3.226-1.087h.016v-3.312Z" fill="#fbb69c"/>
        <path id="Trazado_1277" data-name="Trazado 1277" d="M36.6,281.921a6.07,6.07,0,0,0-3.866,2.2l.5,10.442c3.673-.036,6.693-4.557,7.12-8.382a8.085,8.085,0,0,0,.053-.908V283.7c-.38-.994-2.759-1.776-3.811-1.776" fill="#fbb69c"/>
        <path id="Trazado_1278" data-name="Trazado 1278" d="M38.909,278.339a20.02,20.02,0,0,1-11.458,3.582c-.5,0-.981-.025-1.465-.061a7.049,7.049,0,0,0-.059.878v2.533a8.874,8.874,0,0,0,.055.908c.432,3.845,3.483,8.382,7.186,8.382h.064v-4.739a.821.821,0,0,0,.764-.853v-4.676c0-.864,1.635-1.916,3.049-1.916a4.19,4.19,0,0,1,3.36,1.32v-.959a7.213,7.213,0,0,0-1.5-4.4" fill="#ffcab3"/>
        <path id="Trazado_1279" data-name="Trazado 1279" d="M41,276.674a9.472,9.472,0,0,0-17.228,4.9c-.006.169-.013.341-.013.512v1.9a2.193,2.193,0,0,0,2.18,2.192h.042a8.875,8.875,0,0,1-.055-.908v-2.534a7.045,7.045,0,0,1,.059-.877c.484.036.97.061,1.465.061a20.041,20.041,0,0,0,11.461-3.584l0,0a7.21,7.21,0,0,1,1.5,4.4v2.534a8.081,8.081,0,0,1-.052.908h.174a2.194,2.194,0,0,0,2.179-2.192v-1.9A9.438,9.438,0,0,0,41,276.674" fill="#1a2121"/>
        <path id="Trazado_1280" data-name="Trazado 1280" d="M29.666,295.138h-.033v2.085l.75,1.87,2.849-2.851a6.292,6.292,0,0,1-3.566-1.1" fill="#fff"/>
        <path id="Trazado_1281" data-name="Trazado 1281" d="M36.821,297.223h-.014v-2.085H36.8a6.282,6.282,0,0,1-3.566,1.1l2.826,2.823Z" fill="#e5e5e5"/>
        <path id="Trazado_1282" data-name="Trazado 1282" d="M40.685,295.138H36.808l.014,2.085-3.589,8.229-3.6-8.229L26.7,300.161l5.916,5.917H47v-4.624a6.314,6.314,0,0,0-6.315-6.316" fill="#b0b0b0"/>
        <path id="Trazado_1283" data-name="Trazado 1283" d="M26.7,300.161l2.937-2.938v-2.085H25.759a6.315,6.315,0,0,0-6.317,6.315v4.625h13.17Z" fill="#fff"/>
        <path id="Trazado_1284" data-name="Trazado 1284" d="M35.549,286.18h.6a.746.746,0,1,1,1.491,0h.6a1.345,1.345,0,1,0-2.689,0" fill="#1a2121"/>
        <path id="Trazado_1285" data-name="Trazado 1285" d="M30.922,286.18h-.6a.745.745,0,1,0-1.489,0h-.6a1.347,1.347,0,1,1,2.693,0" fill="#1a2121"/>
        <rect id="Rectángulo_158" data-name="Rectángulo 158" width="31.244" height="5.003" transform="translate(17.611 260.082)" fill="#e6e6e6"/>
        <rect id="Rectángulo_159" data-name="Rectángulo 159" width="17.047" height="3.543" transform="translate(24.71 256.539)" fill="#c299f6"/>
        <rect id="Rectángulo_160" data-name="Rectángulo 160" width="17.047" height="3.543" transform="translate(24.71 256.539)" fill="none" stroke="#231f20" stroke-miterlimit="10" stroke-width="1"/>
        <path id="Trazado_1286" data-name="Trazado 1286" d="M37.836,250.251a4.681,4.681,0,1,1-4.683-4.682,4.683,4.683,0,0,1,4.683,4.682" fill="#e6e6e6"/>
        <path id="Trazado_1287" data-name="Trazado 1287" d="M36.3,251.111a3.144,3.144,0,1,1-3.146-3.145,3.146,3.146,0,0,1,3.146,3.145" fill="#1a2121"/>
        <path id="Trazado_1288" data-name="Trazado 1288" d="M59.382,320.179a7.082,7.082,0,0,1-7.083,7.085H14.009a7.085,7.085,0,1,1,0-14.169H52.3a7.082,7.082,0,0,1,7.083,7.084" fill="#fff"/>
        <path id="Trazado_1289" data-name="Trazado 1289" d="M18.92,320.179a4.586,4.586,0,1,1-4.584-4.586,4.584,4.584,0,0,1,4.584,4.586" fill="#1a2121"/>
        <path id="Trazado_1290" data-name="Trazado 1290" d="M56.56,320.179a4.587,4.587,0,1,1-4.586-4.586,4.586,4.586,0,0,1,4.586,4.586" fill="#1a2121"/>
        <rect id="Rectángulo_161" data-name="Rectángulo 161" width="19.81" height="2.813" transform="translate(23.25 321.402)" fill="#3a4a4a"/>
        <rect id="Rectángulo_162" data-name="Rectángulo 162" width="8.962" height="2.139" transform="translate(28.752 316.997)" fill="#c299f6"/>
        <rect id="Rectángulo_163" data-name="Rectángulo 163" width="8.962" height="2.139" transform="translate(28.752 316.997)" fill="none" stroke="#231f20" stroke-miterlimit="10" stroke-width="1"/>
        <rect id="Rectángulo_164" data-name="Rectángulo 164" width="19.81" height="5.315" transform="translate(23.25 327.264)" fill="#ccc"/>
        <rect id="Rectángulo_165" data-name="Rectángulo 165" width="52.458" height="2.918" transform="translate(6.924 332.58)" fill="#fff"/>
        <rect id="Rectángulo_166" data-name="Rectángulo 166" width="52.458" height="2.918" transform="translate(6.924 344.462)" fill="#fff"/>
        <rect id="Rectángulo_167" data-name="Rectángulo 167" width="46.811" height="8.964" transform="translate(9.749 335.498)" fill="#c299f6"/>
        <rect id="Rectángulo_168" data-name="Rectángulo 168" width="46.811" height="8.964" transform="translate(9.749 335.498)" fill="none" stroke="#231f20" stroke-miterlimit="10" stroke-width="1"/>
        <rect id="Rectángulo_169" data-name="Rectángulo 169" width="37.638" height="8.13" transform="translate(14.336 347.38)" fill="#ccc"/>
        <rect id="Rectángulo_170" data-name="Rectángulo 170" width="37.638" height="8.131" transform="translate(14.336 367.337)" fill="#ccc"/>
        <path id="Trazado_1291" data-name="Trazado 1291" d="M35.213,351.445a2.058,2.058,0,1,1-2.059-2.059,2.059,2.059,0,0,1,2.059,2.059" fill="#1a2121"/>
        <path id="Trazado_1292" data-name="Trazado 1292" d="M14.336,372.235a3.232,3.232,0,1,0,3.23,3.232,3.235,3.235,0,0,0-3.23-3.232" fill="#c299f6"/>
        <path id="Trazado_1293" data-name="Trazado 1293" d="M14.336,372.235a3.232,3.232,0,1,0,3.23,3.232A3.235,3.235,0,0,0,14.336,372.235Z" fill="none" stroke="#231f20" stroke-miterlimit="10" stroke-width="1"/>
        <path id="Trazado_1294" data-name="Trazado 1294" d="M14.336,369.733a5.734,5.734,0,1,0,5.733,5.735,5.735,5.735,0,0,0-5.733-5.735m0,8.965a3.232,3.232,0,1,1,3.23-3.23,3.235,3.235,0,0,1-3.23,3.23" fill="#c299f6"/>
        <path id="Trazado_1295" data-name="Trazado 1295" d="M14.336,369.733a5.734,5.734,0,1,0,5.733,5.735A5.735,5.735,0,0,0,14.336,369.733Zm0,8.965a3.232,3.232,0,1,1,3.23-3.23A3.235,3.235,0,0,1,14.336,378.7Z" fill="none" stroke="#231f20" stroke-miterlimit="10" stroke-width="1"/>
        <path id="Trazado_1296" data-name="Trazado 1296" d="M51.974,372.235a3.232,3.232,0,1,0,3.232,3.232,3.235,3.235,0,0,0-3.232-3.232" fill="#c299f6"/>
        <path id="Trazado_1297" data-name="Trazado 1297" d="M51.974,372.235a3.232,3.232,0,1,0,3.232,3.232A3.235,3.235,0,0,0,51.974,372.235Z" fill="none" stroke="#231f20" stroke-miterlimit="10" stroke-width="1"/>
        <path id="Trazado_1298" data-name="Trazado 1298" d="M51.974,369.733a5.734,5.734,0,1,0,5.735,5.735,5.734,5.734,0,0,0-5.735-5.735m0,8.965a3.232,3.232,0,1,1,3.232-3.23,3.235,3.235,0,0,1-3.232,3.23" fill="#c299f6"/>
        <path id="Trazado_1299" data-name="Trazado 1299" d="M51.974,369.733a5.734,5.734,0,1,0,5.735,5.735A5.734,5.734,0,0,0,51.974,369.733Zm0,8.965a3.232,3.232,0,1,1,3.232-3.23A3.235,3.235,0,0,1,51.974,378.7Z" fill="none" stroke="#231f20" stroke-miterlimit="10" stroke-width="1"/>
        <g id="Grupo_252" data-name="Grupo 252" opacity="0.7" style="mix-blend-mode: multiply;isolation: isolate">
          <g id="Grupo_251" data-name="Grupo 251">
            <g id="Grupo_250" data-name="Grupo 250" clip-path="url(#clip-path-9)">
              <path id="Trazado_1300" data-name="Trazado 1300" d="M516.558,335.8v-5.63a2.274,2.274,0,0,0-1.986-2.478h-.961l.006-5.175c.815-1.644,6.938-11.466,6.958-13.3l.251-22.895.14-6.4a4.674,4.674,0,0,0-.061-.789l.045-4.122c0-.133-.023-.259-.031-.391a4.667,4.667,0,0,0-4.425-4.9l-.1-.005a4.665,4.665,0,0,0-4.769,3.563l-.684-.127.028-2.625a5.138,5.138,0,0,0-.062-.717,4.978,4.978,0,0,0-2.9-4.081c-.115-.054-.239-.087-.358-.132a5,5,0,0,0-.526-.176,4.758,4.758,0,0,0-.6-.091c-.109-.013-.21-.044-.321-.05l-.1-.005-.03,0c-.019,0-.037-.006-.056-.006l-.1,0c-4.735-.253-5.057,4.014-5.071,4.956l-.01.189c-.344-.085-.674-.162-1.02-.25l.04-3.2a5.28,5.28,0,0,0-.882-2.98,4.991,4.991,0,0,0-3.986-2.356l-.1-.005a5,5,0,0,0-5.248,4.74l-.06,1.183c-.04-.008-.076-.018-.114-.026-.121-.05-.239-.1-.355-.151l.119-2.35a5.137,5.137,0,0,0-4.868-5.391l-.1-.005a5.138,5.138,0,0,0-5.392,4.869l-.926,18.207a5.073,5.073,0,0,0,.421,2.266l-.257,6.087a6.711,6.711,0,0,1-.815.985c.013-.577.017-1.091.033-1.7.481-18.96-4.378-23.259-7.653-23.806-2.755-.458-2.762,1.483-2.762,1.483l.134,33.81c.2.721.388,1.418.584,2.137,3.389,5.627,14.419,16.969,14.419,16.969l0,6.757h-1.159a2.273,2.273,0,0,0-1.986,2.478v5.877a16.063,16.063,0,0,0-6.521,4.37v25.141a27.624,27.624,0,0,0,9.673,6.968l0,8.7,31.494.115.009-8.571a28.119,28.119,0,0,0,10.253-7.216V340.418a16.171,16.171,0,0,0-7.257-4.617" fill="gray"/>
            </g>
          </g>
        </g>
        <path id="Trazado_1301" data-name="Trazado 1301" d="M496.809,374.6c.039,0,.075.005.115.005v-.008c17.582-.093,25.6-10.325,25.6-10.325v-18.23L513.89,334.1l-16.738-.793v-.034l-.343.017-.344-.017v.034l-16.739.793-8.634,11.94v18.23s8.018,10.232,25.6,10.325v.008c.039,0,.075-.005.115-.005" fill="#d42b24"/>
        <path id="Trazado_1302" data-name="Trazado 1302" d="M515.28,268.528h-.09c-1.984-.021-4.226.829-4.609,3.511-.4-.071-.477-.089-.927-.172l.029-2.625a5.107,5.107,0,0,0-4.952-5.256l-.1,0c-5.319-.285-5.071,5.147-5.071,5.147-.347-.086-.68-.164-1.03-.252l.039-3.2a5.126,5.126,0,0,0-4.995-5.253l-.1,0a5.128,5.128,0,0,0-5.109,5.142l-.007.743c-.375-.143-.7-.3-1.067-.453l0-.226-9.489.761-.984,23.376a6.712,6.712,0,0,1-.815.985c.012-.577.016-1.091.033-1.7.481-18.961-4.378-23.259-7.653-23.806-2.754-.458-2.762,1.483-2.762,1.483l.135,33.81c.2.72.386,1.418.583,2.136,3.388,5.628,14.42,16.97,14.42,16.97l.009,60.3,31.494.115.065-58.827c.814-1.646,6.937-11.467,6.958-13.3l.374-34.2c.031-2.842-1.929-5.169-4.378-5.2" fill="#ffd7be"/>
        <g id="Grupo_255" data-name="Grupo 255" style="mix-blend-mode: multiply;isolation: isolate">
          <g id="Grupo_254" data-name="Grupo 254">
            <g id="Grupo_253" data-name="Grupo 253" clip-path="url(#clip-path-10)">
              <path id="Trazado_1303" data-name="Trazado 1303" d="M512.313,368.148l-31.548-.209V321.082l31.548.209Z" fill="#eacfbb"/>
            </g>
          </g>
        </g>
        <g id="Grupo_258" data-name="Grupo 258" style="mix-blend-mode: multiply;isolation: isolate">
          <g id="Grupo_257" data-name="Grupo 257">
            <g id="Grupo_256" data-name="Grupo 256" clip-path="url(#clip-path-11)">
              <path id="Trazado_1304" data-name="Trazado 1304" d="M492.774,294.126l-.1,0a5,5,0,0,1-4.888-5.108l.389-17.739a5,5,0,0,1,5.109-4.889l.1,0c1.936.042,2.381,2.281,6.5,2.8.86.11-.278,1.587-.3,2.41l-.39,17.74c-.061,2.76-3.665,4.843-6.425,4.782" fill="#eacfbb"/>
              <path id="Trazado_1305" data-name="Trazado 1305" d="M482.011,291.328l-.1,0a5,5,0,0,1-4.887-5.108l.389-17.739a5,5,0,0,1,5.109-4.888l.1,0c1.937.042,2.382,2.281,6.5,2.805.86.108-.278,1.584-.3,2.409l-.389,17.739c-.061,2.761-3.665,4.843-6.426,4.782" fill="#eacfbb"/>
              <path id="Trazado_1306" data-name="Trazado 1306" d="M504.092,297.456l-.1,0a5,5,0,0,1-4.888-5.107l.389-17.74a5,5,0,0,1,5.109-4.888l.1,0a9.128,9.128,0,0,1,4.953,2.147l.927.172-.612,21.322c-.061,2.762-3.117,4.156-5.877,4.1" fill="#eacfbb"/>
              <path id="Trazado_1307" data-name="Trazado 1307" d="M514.54,299.768h-.095a4.673,4.673,0,0,1-4.566-4.772l.365-16.57a4.668,4.668,0,0,1,4.771-4.565l.094,0a4.671,4.671,0,0,1,4.567,4.772l-.365,16.568a4.67,4.67,0,0,1-4.771,4.566" fill="#eacfbb"/>
            </g>
          </g>
        </g>
        <path id="Trazado_1308" data-name="Trazado 1308" d="M492.292,288.048l-.1-.007a5,5,0,0,1-4.739-5.246l.9-17.72a5,5,0,0,1,5.247-4.74l.1.005a5,5,0,0,1,4.739,5.249l-.9,17.719a5,5,0,0,1-5.246,4.74" fill="#feddbd"/>
        <path id="Trazado_1309" data-name="Trazado 1309" d="M481.626,286.807l-.1-.005a5.138,5.138,0,0,1-4.869-5.391l.927-18.207a5.138,5.138,0,0,1,5.391-4.87l.1.006a5.137,5.137,0,0,1,4.868,5.391l-.925,18.206a5.139,5.139,0,0,1-5.392,4.87" fill="#feddbd"/>
        <path id="Trazado_1310" data-name="Trazado 1310" d="M503.508,291.7l-.1-.005a5,5,0,0,1-4.739-5.246l.9-17.722a5,5,0,0,1,5.248-4.738l.1.005a5,5,0,0,1,4.739,5.247l-.9,17.721a5,5,0,0,1-5.248,4.738" fill="#feddbd"/>
        <path id="Trazado_1311" data-name="Trazado 1311" d="M513.886,294.315l-.095-.005a4.672,4.672,0,0,1-4.426-4.9l.843-16.552a4.668,4.668,0,0,1,4.9-4.426l.093.005a4.669,4.669,0,0,1,4.427,4.9l-.842,16.551a4.669,4.669,0,0,1-4.9,4.427" fill="#feddbd"/>
        <path id="Trazado_1312" data-name="Trazado 1312" d="M513.568,334.1a16.066,16.066,0,0,1,8.955,5.029v25.14s-5.924-4.682-8.955-4.408Z" fill="#f24f49"/>
        <path id="Trazado_1313" data-name="Trazado 1313" d="M480.048,334.1a16.066,16.066,0,0,0-8.955,5.029v25.14s5.925-4.682,8.955-4.408Z" fill="#f24f49"/>
        <g id="Grupo_261" data-name="Grupo 261" opacity="0.75" style="mix-blend-mode: multiply;isolation: isolate">
          <g id="Grupo_260" data-name="Grupo 260">
            <g id="Grupo_259" data-name="Grupo 259" clip-path="url(#clip-path-12)">
              <path id="Trazado_1314" data-name="Trazado 1314" d="M513.568,346.993V359.86c3.031-.274,8.955,4.408,8.955,4.408V352.021a16.053,16.053,0,0,0-8.955-5.028" fill="#cdcfd0"/>
            </g>
          </g>
        </g>
        <path id="Trazado_1315" data-name="Trazado 1315" d="M513.568,346.993V359.86c3.031-.274,8.955,4.408,8.955,4.408V352.021a16.053,16.053,0,0,0-8.955-5.028" fill="#f23129"/>
        <g id="Grupo_264" data-name="Grupo 264" opacity="0.75" style="mix-blend-mode: multiply;isolation: isolate">
          <g id="Grupo_263" data-name="Grupo 263">
            <g id="Grupo_262" data-name="Grupo 262" clip-path="url(#clip-path-13)">
              <path id="Trazado_1316" data-name="Trazado 1316" d="M480.048,346.993a16.053,16.053,0,0,0-8.955,5.028v12.247s5.925-4.682,8.955-4.408Z" fill="#cdcfd0"/>
            </g>
          </g>
        </g>
        <path id="Trazado_1317" data-name="Trazado 1317" d="M480.048,346.993a16.053,16.053,0,0,0-8.955,5.028v12.247s5.925-4.682,8.955-4.408Z" fill="#f23129"/>
        <path id="Trazado_1318" data-name="Trazado 1318" d="M477.613,365.848V328.881A2.275,2.275,0,0,1,479.6,326.4H513.28a2.274,2.274,0,0,1,1.987,2.479v36.967a2.274,2.274,0,0,1-1.987,2.479H479.6a2.275,2.275,0,0,1-1.986-2.479" fill="#1a2121"/>
        <path id="Trazado_1319" data-name="Trazado 1319" d="M482.159,360.861V333.87a2.275,2.275,0,0,1,1.988-2.479h25.092a2.275,2.275,0,0,1,1.988,2.479v26.991a2.274,2.274,0,0,1-1.988,2.478H484.147a2.274,2.274,0,0,1-1.988-2.478" fill="#fff"/>
        <path id="Trazado_1320" data-name="Trazado 1320" d="M498,350.426H495.42a.344.344,0,0,1-.327-.236l-.275-.825a.344.344,0,0,1,.327-.453h3.132a.345.345,0,0,1,.328.453l-.276.825a.343.343,0,0,1-.326.236"/>
        <path id="Trazado_1321" data-name="Trazado 1321" d="M495.322,350.771l-.006,2.583a.342.342,0,0,1-.235.325l-.827.274a.345.345,0,0,1-.453-.328l.007-3.134a.343.343,0,0,1,.454-.324l.826.275a.348.348,0,0,1,.234.329"/>
        <path id="Trazado_1322" data-name="Trazado 1322" d="M498.058,350.771l.006,2.583a.342.342,0,0,0,.235.325l.827.274a.345.345,0,0,0,.453-.328l-.006-3.134a.344.344,0,0,0-.455-.324l-.826.275a.349.349,0,0,0-.234.329"/>
        <path id="Trazado_1323" data-name="Trazado 1323" d="M495.31,355.895l-.005,2.583a.344.344,0,0,1-.236.325l-.826.275a.346.346,0,0,1-.454-.329l.007-3.133a.344.344,0,0,1,.454-.325l.826.276a.346.346,0,0,1,.234.328"/>
        <path id="Trazado_1324" data-name="Trazado 1324" d="M498.045,355.895l.006,2.583a.342.342,0,0,0,.236.325l.826.275a.346.346,0,0,0,.453-.329l-.006-3.133a.345.345,0,0,0-.455-.325l-.825.276a.347.347,0,0,0-.235.328"/>
        <path id="Trazado_1325" data-name="Trazado 1325" d="M495.42,359.008H498a.343.343,0,0,1,.326.236l.276.825a.346.346,0,0,1-.328.455h-3.132a.345.345,0,0,1-.327-.455l.275-.825a.344.344,0,0,1,.327-.236"/>
        <path id="Trazado_1326" data-name="Trazado 1326" d="M497.81,353.971h-2.174a.306.306,0,0,0-.266.145l-.259.451a.246.246,0,0,0,0,.251l.259.451a.3.3,0,0,0,.266.147h2.174a.3.3,0,0,0,.265-.147l.26-.451a.25.25,0,0,0,0-.251l-.26-.451a.306.306,0,0,0-.265-.145"/>
        <path id="Trazado_1327" data-name="Trazado 1327" d="M505.042,350.389l-2.6-.015a.344.344,0,0,1-.327-.237l-.272-.832a.345.345,0,0,1,.331-.453l3.148.016a.347.347,0,0,1,.325.459l-.28.826a.348.348,0,0,1-.33.236"/>
        <path id="Trazado_1328" data-name="Trazado 1328" d="M502.347,350.769l-.021,2.8a.37.37,0,0,1-.24.352l-.832.293a.351.351,0,0,1-.452-.359l.025-3.4a.354.354,0,0,1,.459-.352l.828.307a.369.369,0,0,1,.233.355"/>
        <path id="Trazado_1329" data-name="Trazado 1329" d="M505.1,350.785l-.01,2.8a.374.374,0,0,0,.235.356l.829.3a.351.351,0,0,0,.457-.351l.012-3.4a.351.351,0,0,0-.455-.355l-.83.3a.374.374,0,0,0-.238.354"/>
        <path id="Trazado_1330" data-name="Trazado 1330" d="M502.309,355.636l-.022,2.782a.371.371,0,0,1-.24.35l-.831.289a.35.35,0,0,1-.453-.355l.026-3.374a.351.351,0,0,1,.458-.349l.828.3a.372.372,0,0,1,.234.354"/>
        <path id="Trazado_1331" data-name="Trazado 1331" d="M505.057,355.651l-.011,2.782a.369.369,0,0,0,.236.352l.828.3a.351.351,0,0,0,.457-.351l.011-3.375a.349.349,0,0,0-.454-.352l-.83.293a.371.371,0,0,0-.237.352"/>
        <path id="Trazado_1332" data-name="Trazado 1332" d="M502.4,359l2.6.013a.348.348,0,0,1,.326.239l.272.831a.345.345,0,0,1-.331.454l-3.147-.018a.345.345,0,0,1-.326-.457l.281-.828a.346.346,0,0,1,.33-.234"/>
        <path id="Trazado_1333" data-name="Trazado 1333" d="M498,336.05H495.42a.344.344,0,0,1-.327-.236l-.275-.825a.345.345,0,0,1,.327-.455h3.132a.346.346,0,0,1,.328.455l-.276.825a.343.343,0,0,1-.326.236"/>
        <path id="Trazado_1334" data-name="Trazado 1334" d="M498.058,336.394l.006,2.583a.344.344,0,0,0,.235.326l.827.273a.345.345,0,0,0,.453-.327l-.006-3.133a.345.345,0,0,0-.455-.326l-.826.277a.346.346,0,0,0-.234.327"/>
        <path id="Trazado_1335" data-name="Trazado 1335" d="M495.31,341.517,495.3,344.1a.346.346,0,0,1-.236.326l-.826.273a.346.346,0,0,1-.454-.327l.007-3.133a.344.344,0,0,1,.454-.326l.826.277a.345.345,0,0,1,.234.327"/>
        <path id="Trazado_1336" data-name="Trazado 1336" d="M495.42,344.632H498a.343.343,0,0,1,.326.236l.276.825a.345.345,0,0,1-.328.453h-3.132a.344.344,0,0,1-.327-.453l.275-.825a.344.344,0,0,1,.327-.236"/>
        <path id="Trazado_1337" data-name="Trazado 1337" d="M497.81,339.593h-2.174a.3.3,0,0,0-.266.146l-.259.452a.246.246,0,0,0,0,.251l.259.451a.307.307,0,0,0,.266.146h2.174a.307.307,0,0,0,.265-.146l.26-.451a.25.25,0,0,0,0-.251l-.26-.452a.3.3,0,0,0-.265-.146"/>
        <path id="Trazado_1338" data-name="Trazado 1338" d="M490.341,335.4l-.016,3.6a.485.485,0,0,0,.261.456l.917.385c.247.105.505-.126.507-.454l.018-4.362c0-.328-.254-.559-.5-.457l-.921.382a.482.482,0,0,0-.264.453"/>
        <path id="Trazado_1339" data-name="Trazado 1339" d="M490.292,341.531l-.016,3.639a.489.489,0,0,0,.26.461l.917.389c.248.106.505-.128.507-.458l.019-4.415c0-.33-.254-.564-.5-.461l-.921.386a.49.49,0,0,0-.264.459"/>
        <path id="Trazado_1340" data-name="Trazado 1340" d="M505.042,336.012l-2.6-.014a.346.346,0,0,1-.327-.238l-.272-.831a.347.347,0,0,1,.331-.455l3.148.019a.345.345,0,0,1,.325.457l-.28.828a.347.347,0,0,1-.33.234"/>
        <path id="Trazado_1341" data-name="Trazado 1341" d="M502.347,336.394l-.021,2.8a.373.373,0,0,1-.24.352l-.832.291a.351.351,0,0,1-.452-.357l.025-3.4a.352.352,0,0,1,.459-.35l.828.3a.372.372,0,0,1,.233.357"/>
        <path id="Trazado_1342" data-name="Trazado 1342" d="M505.1,336.407l-.01,2.8a.369.369,0,0,0,.235.355l.829.3a.352.352,0,0,0,.457-.353l.012-3.4a.351.351,0,0,0-.455-.355l-.83.294a.376.376,0,0,0-.238.354"/>
        <path id="Trazado_1343" data-name="Trazado 1343" d="M502.309,341.258l-.022,2.781a.37.37,0,0,1-.24.351l-.831.289a.35.35,0,0,1-.453-.355l.026-3.374a.351.351,0,0,1,.458-.349l.828.3a.374.374,0,0,1,.234.354"/>
        <path id="Trazado_1344" data-name="Trazado 1344" d="M505.057,341.273l-.011,2.781a.372.372,0,0,0,.236.354l.828.3a.352.352,0,0,0,.457-.35l.011-3.375a.35.35,0,0,0-.454-.353l-.83.3a.366.366,0,0,0-.237.35"/>
        <path id="Trazado_1345" data-name="Trazado 1345" d="M502.4,344.619l2.6.015a.344.344,0,0,1,.326.237l.272.832a.345.345,0,0,1-.331.453l-3.147-.017a.347.347,0,0,1-.326-.458l.281-.826a.348.348,0,0,1,.33-.236"/>
        <g id="Grupo_267" data-name="Grupo 267" opacity="0.7" style="mix-blend-mode: multiply;isolation: isolate">
          <g id="Grupo_266" data-name="Grupo 266">
            <g id="Grupo_265" data-name="Grupo 265" clip-path="url(#clip-path-14)">
              <path id="Trazado_1346" data-name="Trazado 1346" d="M458.716,315.273H436.577V297.568a2.192,2.192,0,0,0-1.942-2.375h-99.5a2.192,2.192,0,0,0-1.941,2.375v74.511a2.192,2.192,0,0,0,1.941,2.375h83.03v13.329a1.323,1.323,0,0,0,1.252,1.386h39.3a1.324,1.324,0,0,0,1.253-1.386V316.659a1.324,1.324,0,0,0-1.253-1.386M338.072,341.915a.775.775,0,1,1-1.509,0V334.5a.774.774,0,1,1,1.509,0Zm-.755-10.159a.754.754,0,1,1,.755-.754.755.755,0,0,1-.755.754" fill="gray"/>
            </g>
          </g>
        </g>
        <rect id="Rectángulo_177" data-name="Rectángulo 177" width="86.522" height="73.584" transform="translate(337.887 296.741)" fill="#fff"/>
        <path id="Trazado_1347" data-name="Trazado 1347" d="M331.9,296.277v74.511a2.192,2.192,0,0,0,1.942,2.375h99.5a2.192,2.192,0,0,0,1.941-2.375V296.277a2.19,2.19,0,0,0-1.941-2.374h-99.5a2.191,2.191,0,0,0-1.942,2.374m3.372,33.434a.754.754,0,1,1,.754.754.755.755,0,0,1-.754-.754m0,10.913v-7.416a.774.774,0,1,1,1.508,0v7.416a.774.774,0,1,1-1.508,0m94.352-6.943a2.222,2.222,0,1,1-2.223-2.223,2.222,2.222,0,0,1,2.223,2.223m-8.368,32.97h-80.61V300.415h80.61Z" fill="#fff"/>
        <path id="Trazado_1348" data-name="Trazado 1348" d="M427.4,330.505a3.175,3.175,0,1,1-3.175,3.176,3.175,3.175,0,0,1,3.175-3.176" fill="#fff"/>
        <rect id="Rectángulo_178" data-name="Rectángulo 178" width="80.757" height="66.185" transform="translate(340.617 300.361)" fill="#2a3030"/>
        <path id="Trazado_1349" data-name="Trazado 1349" d="M408.382,331.605s-2.054,1.6-5.579.292-1.739,1.069-7.787,2.612c-4.44,1.131-4.677,3.052-1.394,5.307a12.591,12.591,0,0,0,6.614,1.393c5.831-.348,5.831,2.655,10.965,1.393,5.475-1.345-.222-13.321-2.819-11" fill="#fff9f5"/>
        <path id="Trazado_1350" data-name="Trazado 1350" d="M393.491,300.361s.774,14.355-2.263,17.841-1.518,6.112-.843,7.091c.874,1.266,1.5-1.86,6.587-1.086,2.7.409,3.552,1.631,5.048,1.691,2.159.087,2.77-2.6.174-8.567-1.828-4.2,4.438-16.1,5.048-16.97Z" fill="#fff9f5"/>
        <path id="Trazado_1351" data-name="Trazado 1351" d="M350.11,348.347s-5.552.884-6.439,1.652,8.551,4.3,7.233,1.48c-.643-1.371.728-3.394-.794-3.132" fill="#fff9f5"/>
        <path id="Trazado_1352" data-name="Trazado 1352" d="M360.51,345.93s-1.556,2.371-7.037,2.39c-4.282.016-.958.988-1.415,2.488s-.882,1.958,2.447,1.675c3.39-.288,5.568-.358,7.277.628,1.3.749,1.763-.1,1.045-1.536a6.075,6.075,0,0,1-.913-2.121c-.208-1.129,0-4.96-1.4-3.524" fill="#fff9f5"/>
        <path id="Trazado_1353" data-name="Trazado 1353" d="M380.351,344.43s-6.4,2.175-9.441,2.436-3.16,1.124-2.437,2.636c.694,1.451,1.709,1.166,3.785,0,2.8-1.573,7.855-1.176,10.965-.721,2.087.306,2.9-.952,2.117-2.426a9.031,9.031,0,0,0-1.693-2.578c-1.369-1.491-1.976.223-3.3.653" fill="#fff9f5"/>
        <path id="Trazado_1354" data-name="Trazado 1354" d="M378.1,343.777s-11.356,2.076-11.291,4.373c.06,2.1-1.987,4.034-3.3,2.741-.47-.463.3-1.764-.346-2.937-2.786-5.04,1.159-3.355,2.827-3.362s4.814-1.331,6.853-2.578a9.992,9.992,0,0,0,2.488-2.033c.491-.582,1.536-2.013,2.624-.164,1.5,2.545,2.656,3.422.142,3.96" fill="#fff9f5"/>
        <path id="Trazado_1355" data-name="Trazado 1355" d="M389.341,338.692c-1.95.378-6.938,2.843-4.464,5.41,2.738,2.84,4.948,4.384,6.767-.13,2-4.973-.62-5.606-2.3-5.28" fill="#fff9f5"/>
        <path id="Trazado_1356" data-name="Trazado 1356" d="M376.466,334.525c-.792.105-.78,1.378.4,2.584,2.634,2.687,3.439,6.863,5.636,4.057.747-.954,2.465-1.412,2.807-1.763.628-.643-.754-.946-2.742-3.459-1.448-1.83-1.323-2.97-2.636-3-1.411-.033-1.866,1.369-3.468,1.581" fill="#fff9f5"/>
        <path id="Trazado_1357" data-name="Trazado 1357" d="M373.7,337.577a21.7,21.7,0,0,1-7.923,5.026c-2.307.713-2.4,1.25-1.176,1.3a11.1,11.1,0,0,0,3.71-.357A17.6,17.6,0,0,0,371.964,341a13.818,13.818,0,0,1,3.253-2.1c1.674-.658-1.1-3.14-1.519-1.325" fill="#fff9f5"/>
        <path id="Trazado_1358" data-name="Trazado 1358" d="M399.956,326.843c-1.327-1.5-4.554-1.625-6.508-1.171-2.522.583-2.848,3.272-3.735,3.364a31.72,31.72,0,0,0-3.661.812c-1.885.712-1.643,2.012.521,3.4,2.329,1.5,2.652,2.174,4.818,1.345s1.883-2.526,4.754-2.7c3.047-.181,8.034-1.4,8.008-2.784-.02-1.015-2.351-.174-4.2-2.27" fill="#fff9f5"/>
        <path id="Trazado_1359" data-name="Trazado 1359" d="M381.331,332.06c-1.077.36.673,1.875,1.99,3.394,1.238,1.428,1.677,2.991,2.818,3.167.958.147,1.213-1.04,3.265-1.1s-3.806-3.444-4.624-4.576c-.686-.952-.218-1.569-.84-1.833-.913-.388-.7.312-2.609.949" fill="#fff9f5"/>
        <g id="Grupo_270" data-name="Grupo 270" style="mix-blend-mode: multiply;isolation: isolate">
          <g id="Grupo_269" data-name="Grupo 269">
            <g id="Grupo_268" data-name="Grupo 268" clip-path="url(#clip-path-15)">
              <path id="Trazado_1360" data-name="Trazado 1360" d="M406.8,307.823a1.327,1.327,0,0,0-1.254,1.388v63.952h27.8a2.191,2.191,0,0,0,1.941-2.374V307.823Z" fill="#c4cfc6"/>
            </g>
          </g>
        </g>
        <path id="Trazado_1361" data-name="Trazado 1361" d="M457.426,315.723h-39.3a1.325,1.325,0,0,0-1.252,1.387v71.123a1.324,1.324,0,0,0,1.252,1.386h39.3a1.326,1.326,0,0,0,1.254-1.386V317.11a1.327,1.327,0,0,0-1.254-1.387" fill="#1a2121"/>
        <rect id="Rectángulo_180" data-name="Rectángulo 180" width="34.198" height="56.4" transform="translate(420.676 323.403)" fill="#c5e9f3"/>
        <path id="Trazado_1362" data-name="Trazado 1362" d="M441.293,319.294a.488.488,0,1,0,.486.488.486.486,0,0,0-.486-.488" fill="#d6d6d6"/>
        <path id="Trazado_1363" data-name="Trazado 1363" d="M439.22,383.29h-2.889a.36.36,0,0,0-.307.4v.586a.36.36,0,0,0,.307.4h2.889a.361.361,0,0,0,.309-.4v-.586a.361.361,0,0,0-.309-.4" fill="#d6d6d6"/>
        <path id="Trazado_1364" data-name="Trazado 1364" d="M439.074,319.294h-4.7a.5.5,0,1,0,0,.975h4.7a.5.5,0,1,0,0-.975" fill="#d6d6d6"/>
        <rect id="Rectángulo_181" data-name="Rectángulo 181" width="34.287" height="56.461" transform="translate(420.617 323.404)" fill="#f24f49"/>
        <path id="Trazado_1365" data-name="Trazado 1365" d="M438.082,376.236c1.262.991,1.468,1.221,1.825,3.628h3.721a7.063,7.063,0,0,1-1.692-5.639c.681-3.245-2.3-3.57-2.954-2.272a1.627,1.627,0,0,1-1.535.921,1.067,1.067,0,0,0-1.046.735c-.181.645.378,1.606,1.681,2.627" fill="#fff9f5"/>
        <path id="Trazado_1366" data-name="Trazado 1366" d="M445.034,379.865H448.8a22.855,22.855,0,0,1-2.359-4.6c-.444-1.552.452-3.58-.945-3.692a4.343,4.343,0,0,1-1.716-.464c-.431-.232-.951-.346-1.3.134-.694.962-.389,3.182,1.429,5.126,1.681,1.8.754,2.436,1.119,3.5" fill="#fff9f5"/>
        <path id="Trazado_1367" data-name="Trazado 1367" d="M447.675,364.953a2.766,2.766,0,0,1,.051.737,5.107,5.107,0,0,1-1.346,2.759,9.552,9.552,0,0,0-.974,1.1c-.7,1.368.864,1.722,1.543,1.357,1.071-.578.125-2.1,1.556-4.294.818-1.26,1.2-1.992,1.033-2.711-.08-.358-.464-.264-.757-.452-.531-.341-.661-.688-.856-.457a2.846,2.846,0,0,0-.25,1.958" fill="#fff9f5"/>
        <path id="Trazado_1368" data-name="Trazado 1368" d="M449.815,357.779a2.133,2.133,0,0,1,.079.571,4.006,4.006,0,0,1-.876,2.213,7.345,7.345,0,0,0-.684.909c-.462,1.1.9,1.432,1.4,1.112.786-.505-.164-1.776.808-3.557.556-1.023.8-1.611.643-2.162-.082-.273-.37-.181-.6-.311-.425-.235-.542-.5-.68-.31a2.272,2.272,0,0,0-.085,1.535" fill="#fff9f5"/>
        <path id="Trazado_1369" data-name="Trazado 1369" d="M451.371,352.837a1.175,1.175,0,0,1,.054.357,2.344,2.344,0,0,1-.677,1.394,4.887,4.887,0,0,0-.521.576c-.355.693.662.889,1.038.685.592-.323-.108-1.112.635-2.236.427-.645.618-1.016.5-1.359-.058-.172-.274-.111-.448-.19-.315-.145-.4-.309-.507-.189a1.215,1.215,0,0,0-.075.962" fill="#fff9f5"/>
        <path id="Trazado_1370" data-name="Trazado 1370" d="M444.361,349.689a2.94,2.94,0,0,1,.284.613,2.906,2.906,0,0,1-.2,2,3.807,3.807,0,0,0-.264.826c-.128,1.045,1.254.819,1.637.382.6-.686-.656-1.358-.239-3.133.24-1.017.308-1.576,0-1.957-.156-.19-.4-.011-.658-.032-.469-.035-.653-.2-.73,0a1.554,1.554,0,0,0,.166,1.3" fill="#fff9f5"/>
        <path id="Trazado_1371" data-name="Trazado 1371" d="M437.981,348.665a2.576,2.576,0,0,1,.623,2.544,3.1,3.1,0,0,0-.061.809c.09,1.05,1.6.858,1.882.353.45-.8-1.152-1.456-1.106-3.279.027-1.045-.021-1.606-.4-1.916-.19-.156-.394.071-.65.1-.466.06-.681-.065-.714.147a1.554,1.554,0,0,0,.426,1.238" fill="#fff9f5"/>
        <path id="Trazado_1372" data-name="Trazado 1372" d="M429.257,350.736a2.516,2.516,0,0,1,.419.419,2.543,2.543,0,0,1,.441,1.714,2.712,2.712,0,0,0,.049.711c.209.9,1.5.541,1.684.065.291-.751-1.186-1.117-1.374-2.711-.108-.912-.22-1.4-.59-1.616-.183-.111-.335.112-.553.174-.4.114-.6.032-.6.22a1.367,1.367,0,0,0,.528,1.024" fill="#fff9f5"/>
        <path id="Trazado_1373" data-name="Trazado 1373" d="M425.9,363.892a2.7,2.7,0,0,0,.334,1.086,3.887,3.887,0,0,0,1.445,1.5c.376.271.7.249.892.448a1.314,1.314,0,0,1-.908,2.14c-1.087-.226-.568-2.173-2.254-3.562-.966-.8-1.436-1.278-1.4-1.859.016-.288.345-.363.629-.495.306-.14.475-.594.721-.518.415.126.513.692.544,1.263" fill="#fff9f5"/>
        <path id="Trazado_1374" data-name="Trazado 1374" d="M444.549,356.094a1.891,1.891,0,0,1,.255.544,3.916,3.916,0,0,1-.421,2.545,8.26,8.26,0,0,0-.56,1.162c-.24,1.274,1.331,1.4,1.834.892.794-.794-.552-2.008.1-4.153.377-1.232.506-1.913.158-2.407-.172-.246-.49-.047-.8-.093-.572-.082-.784-.3-.894-.065a2.023,2.023,0,0,0,.328,1.575" fill="#fff9f5"/>
        <path id="Trazado_1375" data-name="Trazado 1375" d="M431.628,356.342a1.8,1.8,0,0,1,.473.385,3.92,3.92,0,0,1,.679,2.571,8.543,8.543,0,0,0-.039,1.347c.312,1.3,1.86.647,2.126-.062.419-1.116-1.38-1.585-1.666-3.9-.163-1.325-.33-2.02-.871-2.316-.268-.147-.487.189-.8.3-.58.194-.876.088-.88.365a1.964,1.964,0,0,0,.983,1.309" fill="#fff9f5"/>
        <path id="Trazado_1376" data-name="Trazado 1376" d="M439.073,355.049a2.082,2.082,0,0,1,.315.582,4.317,4.317,0,0,1-.294,2.836,8.952,8.952,0,0,0-.539,1.318c-.179,1.422,1.712,1.183,2.235.593.821-.928-.9-1.908-.317-4.319.332-1.382.43-2.142.013-2.664-.207-.259-.542-.019-.892-.049-.635-.052-.885-.283-.991-.011a2.23,2.23,0,0,0,.47,1.714" fill="#fff9f5"/>
        <path id="Trazado_1377" data-name="Trazado 1377" d="M443.674,364.092a2.66,2.66,0,0,1,.213.707,5.118,5.118,0,0,1-.7,2.988,9.376,9.376,0,0,0-.707,1.29c-.384,1.489,1.22,1.489,1.8.981.917-.8-.339-2.07.57-4.529.521-1.41,1.026-2.441.71-3.106-.157-.332-.46.048-1.137-.04-.626-.083-.8-.525-.936-.258a2.865,2.865,0,0,0,.187,1.967" fill="#fff9f5"/>
        <path id="Trazado_1378" data-name="Trazado 1378" d="M430.348,370.654a2.284,2.284,0,0,1,.732.1,4.764,4.764,0,0,1,2.343,2.191,9.994,9.994,0,0,0,.821,1.393c1.152,1.129,1.908-.652,1.727-1.536-.281-1.395-2.013-.6-3.783-2.771-1.015-1.244-1.7-2.291-2.445-2.254-.371.017-.173.534-.571,1.241-.369.658-.845.636-.673.919a2.419,2.419,0,0,0,1.849.719" fill="#fff9f5"/>
        <path id="Trazado_1379" data-name="Trazado 1379" d="M439.285,363.733a2.479,2.479,0,0,1,.423.659,5.138,5.138,0,0,1-.069,3.357,10.32,10.32,0,0,0-.5,1.6c-.075,1.683,1.792,1.113,2.341.378.867-1.157-.912-2.033-.469-4.914.253-1.651.582-2.9.049-3.483-.267-.289-.525.215-1.333.364-.748.137-1.056-.263-1.152.066a2.678,2.678,0,0,0,.71,1.978" fill="#fff9f5"/>
        <path id="Trazado_1380" data-name="Trazado 1380" d="M435.5,364.179a2.655,2.655,0,0,0-.136.832,5.535,5.535,0,0,0,1.511,3.277,11.542,11.542,0,0,1,1.177,1.358c.795,1.628-1.289,1.866-2.146,1.377-1.351-.768.493-2.3-1.369-4.821-1.021-1.381-2.266-3.18-1.524-3.935.3-.3.563.021,1.1-.1.8-.175,1-.528,1.235-.246a2.891,2.891,0,0,1,.15,2.254" fill="#fff9f5"/>
        <path id="Trazado_1381" data-name="Trazado 1381" d="M452.294,349.84a2.344,2.344,0,0,1-.591,1.246c-.6.539,1.329,1.106,1.3.378s-.155-1.221-.212-2.127c-.018-.321-.176-.388-.292-.313a3.088,3.088,0,0,0-.2.816" fill="#fff9f5"/>
        <path id="Trazado_1382" data-name="Trazado 1382" d="M444.18,345.41a3.049,3.049,0,0,1-.149,1.785c-.482.928,2.124.734,1.749-.138s-.746-1.412-1.229-2.485c-.171-.379-.392-.391-.5-.246a3.993,3.993,0,0,0,.128,1.084" fill="#fff9f5"/>
        <path id="Trazado_1383" data-name="Trazado 1383" d="M436.992,344.6a2.937,2.937,0,0,1,.02,1.764c-.4.966,2.19.476,1.735-.335s-.879-1.3-1.461-2.294c-.207-.352-.428-.337-.522-.183a3.777,3.777,0,0,0,.228,1.048" fill="#fff9f5"/>
        <path id="Trazado_1384" data-name="Trazado 1384" d="M423.63,360.37a2.965,2.965,0,0,0,1.206,1.29c.954.425-1.256,1.856-1.487.955s-.261-1.544-.527-2.668c-.094-.4.077-.54.25-.494a3.727,3.727,0,0,1,.558.917" fill="#fff9f5"/>
        <path id="Trazado_1385" data-name="Trazado 1385" d="M428.085,347.425a2.364,2.364,0,0,1,.183,1.4c-.225.808,1.789.172,1.351-.431s-.824-.951-1.382-1.689c-.2-.263-.373-.229-.433-.1a3.085,3.085,0,0,0,.281.814" fill="#fff9f5"/>
        <g id="Grupo_273" data-name="Grupo 273" opacity="0.7">
          <g id="Grupo_272" data-name="Grupo 272">
            <g id="Grupo_271" data-name="Grupo 271" clip-path="url(#clip-path-16)">
              <path id="Trazado_1386" data-name="Trazado 1386" d="M96.716,265.721H85.193v-4.642a1.449,1.449,0,0,0-1.45-1.449H69.86a1.449,1.449,0,0,0-1.45,1.449v4.642H56.887a2.028,2.028,0,0,0-2.026,2.028V291.6a2.028,2.028,0,0,0,2.026,2.029H96.716a2.028,2.028,0,0,0,2.026-2.029v-23.85a2.028,2.028,0,0,0-2.026-2.028M70.8,263.39a1.45,1.45,0,0,1,1.449-1.451h9.113a1.45,1.45,0,0,1,1.448,1.451v2.331H70.8Zm13.879,18.98H79.5v5.177H74.106V282.37H68.928v-5.391h5.178V271.8H79.5v5.177h5.178Z" fill="#eceffe"/>
            </g>
          </g>
        </g>
        <g id="Grupo_276" data-name="Grupo 276" opacity="0.7">
          <g id="Grupo_275" data-name="Grupo 275">
            <g id="Grupo_274" data-name="Grupo 274" clip-path="url(#clip-path-17)">
              <path id="Trazado_1387" data-name="Trazado 1387" d="M577.731,291.511H590.1V278.155H577.731Zm8.9-1.51h-3.369V286.63h3.369Zm0-6.965h-3.369v-3.37h3.369Z" fill="#eceffe"/>
              <path id="Trazado_1388" data-name="Trazado 1388" d="M530.119,273.819a11.627,11.627,0,0,0-7.6,10.9v.236a11.64,11.64,0,0,0,11.631,11.63h41.979V273.086H534.155a11.568,11.568,0,0,0-4.036.733M538.3,277.4h30.5v14.863H538.3c-4.063,0-7.455-2.5-8.264-5.827a6.469,6.469,0,0,1-.186-1.531v-.148a6.583,6.583,0,0,1,.97-3.417,8.205,8.205,0,0,1,4.549-3.476,9.53,9.53,0,0,1,2.931-.464" fill="#eceffe"/>
              <path id="Trazado_1389" data-name="Trazado 1389" d="M539.99,289.725a5.13,5.13,0,0,0,2.01.4h8.849v0h7.372a5.213,5.213,0,0,0,0-10.425h-7.372v0H542a5.317,5.317,0,0,0-1.04.1,5.038,5.038,0,0,0-.97.3,5.166,5.166,0,0,0-3.155,4.758v.105a5.134,5.134,0,0,0,.883,2.886,5.185,5.185,0,0,0,2.272,1.872m12.178-8.491h6.053a3.68,3.68,0,0,1,0,7.359h-6.053Z" fill="#eceffe"/>
            </g>
          </g>
        </g>
      </g>
    </g>
  </g>
</svg>
