<svg id="Grupo_8" data-name="Grupo 8" xmlns="http://www.w3.org/2000/svg" xmlns:xlink="http://www.w3.org/1999/xlink" width="121.595" height="121.595" viewBox="0 0 121.595 121.595">
  <defs>
    <clipPath id="clip-path">
      <rect id="Rectángulo_4" data-name="Rectángulo 4" width="121.595" height="121.595" fill="none"/>
    </clipPath>
  </defs>
  <g id="Grupo_7" data-name="Grupo 7" clip-path="url(#clip-path)">
    <path id="Trazado_45" data-name="Trazado 45" d="M119.428,60.8A58.63,58.63,0,1,1,60.8,2.167a58.63,58.63,0,0,1,58.63,58.63" fill="#fff"/>
    <path id="Trazado_46" data-name="Trazado 46" d="M60.8,121.6a60.8,60.8,0,1,1,60.8-60.8,60.867,60.867,0,0,1-60.8,60.8m0-117.26A56.462,56.462,0,1,0,117.26,60.8,56.526,56.526,0,0,0,60.8,4.335" fill="#3e145e"/>
    <path id="Trazado_47" data-name="Trazado 47" d="M50.487,22.349S64.2,17.8,72.448,22.93L69.37,30.866a17.823,17.823,0,0,0-16.262,0Z" fill="#ffe227"/>
    <path id="Trazado_48" data-name="Trazado 48" d="M47.422,42.292s.852,4.831-2.535,6.96H35.5V85.4H88.435V48.337h-11.9S74.1,45.22,75.3,41.832l18.729.261,1.085,48.772H27.958l.477-48.088a30.08,30.08,0,0,1,8.806-.976Z" fill="#ffe227"/>
    <path id="Trazado_49" data-name="Trazado 49" d="M92.241,92.578H31.411a4.351,4.351,0,0,1-4.347-4.346V45.246A4.352,4.352,0,0,1,31.411,40.9H42.379a1.279,1.279,0,0,1,0,2.557H31.411a1.793,1.793,0,0,0-1.79,1.79V88.232a1.792,1.792,0,0,0,1.79,1.79h60.83a1.791,1.791,0,0,0,1.789-1.79V45.246a1.792,1.792,0,0,0-1.789-1.79H81.085a1.279,1.279,0,1,1,0-2.557H92.241a4.352,4.352,0,0,1,4.346,4.347V88.232a4.351,4.351,0,0,1-4.346,4.346" fill="#3e145e"/>
    <path id="Trazado_50" data-name="Trazado 50" d="M87.629,86.661H36.023A2.259,2.259,0,0,1,33.766,84.4V49.525a2.26,2.26,0,0,1,2.257-2.257h4.3a1.278,1.278,0,1,1,0,2.557h-4V84.1H87.33V49.825H83.446a1.278,1.278,0,0,1,0-2.557h4.183a2.261,2.261,0,0,1,2.258,2.257V84.4a2.26,2.26,0,0,1-2.258,2.257" fill="#3e145e"/>
    <path id="Trazado_51" data-name="Trazado 51" d="M48.721,51.788a15.282,15.282,0,0,1-4.7-.726,1.279,1.279,0,0,1-.4-2.18,5.883,5.883,0,0,0,1.16-1.489,12.175,12.175,0,0,0,1.658-6.251V37.655c.25-5.739,2.257-8.3,4.471-10.628a1.278,1.278,0,1,1,1.852,1.761C50.755,30.9,49.2,32.9,48.993,37.711v3.431a14.718,14.718,0,0,1-2.02,7.561q-.117.2-.236.383a9.982,9.982,0,0,0,8.871-2.607,1.278,1.278,0,1,1,1.835,1.78,11.81,11.81,0,0,1-8.723,3.529" fill="#3e145e"/>
    <path id="Trazado_52" data-name="Trazado 52" d="M71.17,78.269a1.278,1.278,0,0,1-1.278-1.278V70.874a1.278,1.278,0,0,1,2.556,0v6.117a1.278,1.278,0,0,1-1.278,1.278" fill="#3e145e"/>
    <path id="Trazado_53" data-name="Trazado 53" d="M51.971,78.269a1.278,1.278,0,0,1-1.278-1.278V70.874a1.278,1.278,0,0,1,2.556,0v6.117a1.278,1.278,0,0,1-1.278,1.278" fill="#3e145e"/>
    <path id="Trazado_54" data-name="Trazado 54" d="M61.644,50.9a8.137,8.137,0,0,1-7.27-4.391c-.23-.435-.459-.906-.682-1.416a1.305,1.305,0,0,1-.1-.337,20.737,20.737,0,0,1-.343-5.221,1.28,1.28,0,0,1,1.109-1.14,7.022,7.022,0,0,0,4.5-3.151,1.278,1.278,0,0,1,2.227.154s1.378,2.256,7.526,2.045a1.254,1.254,0,0,1,1.318,1.21,35.163,35.163,0,0,1-.32,6.071,5.008,5.008,0,0,1-.165.6,8.043,8.043,0,0,1-7.072,5.542q-.366.031-.726.032m-5.561-6.722q.27.606.55,1.133a5.642,5.642,0,0,0,5.524,3.011,5.543,5.543,0,0,0,4.861-3.805c.032-.1.054-.173.068-.222A35.037,35.037,0,0,0,67.391,40c-3.981-.077-6.194-1.141-7.38-2.084a9.774,9.774,0,0,1-4.262,2.751,22.612,22.612,0,0,0,.334,3.5" fill="#3e145e"/>
    <path id="Trazado_55" data-name="Trazado 55" d="M80.761,78.269H42.379A1.279,1.279,0,0,1,41.1,76.99V63.878a9.552,9.552,0,0,1,8.383-9.47l3.855-.471c1.268-.156,2.842-1.127,3.071-2.273l.534-3.169a1.28,1.28,0,0,1,1.892-.9,5.815,5.815,0,0,0,5.527.083,1.278,1.278,0,0,1,1.855.921l.521,3.1c.223,1.107,1.8,2.078,3.065,2.234l3.853.471a9.551,9.551,0,0,1,8.383,9.47V76.99a1.279,1.279,0,0,1-1.278,1.279m-37.1-2.556H79.483V63.878a6.992,6.992,0,0,0-6.137-6.933l-3.855-.471c-2.188-.268-4.778-1.868-5.268-4.308l-.266-1.59a8.472,8.472,0,0,1-4.763-.057l-.271,1.608c-.495,2.479-3.085,4.079-5.275,4.347l-3.854.471a6.992,6.992,0,0,0-6.137,6.933Z" fill="#3e145e"/>
    <path id="Trazado_56" data-name="Trazado 56" d="M53.1,31.656a2.017,2.017,0,0,1-1.943-1.464L49.412,24.1a2.754,2.754,0,0,1,1.516-3.289,25.411,25.411,0,0,1,10.431-1.986,25.4,25.4,0,0,1,10.43,1.986A2.751,2.751,0,0,1,73.305,24.1l-1.747,6.092a2.018,2.018,0,0,1-2.6,1.356,31.381,31.381,0,0,0-7.622-1.058,31.359,31.359,0,0,0-7.582,1.058,2.014,2.014,0,0,1-.655.109m8.237-3.724a35.383,35.383,0,0,1,7.913,1.025l1.6-5.562a.211.211,0,0,0-.114-.256,22.821,22.821,0,0,0-9.375-1.758,22.811,22.811,0,0,0-9.374,1.758.211.211,0,0,0-.115.256l1.6,5.562a35.367,35.367,0,0,1,7.874-1.025" fill="#3e145e"/>
    <path id="Trazado_57" data-name="Trazado 57" d="M74,51.787a11.879,11.879,0,0,1-8.368-3.171,1.278,1.278,0,1,1,1.758-1.856c2.78,2.632,6.407,2.627,8.578,2.309-.076-.117-.152-.239-.227-.365a14.735,14.735,0,0,1-2.02-7.563V37.655a11.809,11.809,0,0,0-3.767-8.867,1.278,1.278,0,1,1,1.853-1.761c2.214,2.327,4.221,4.888,4.469,10.572v3.542a12.168,12.168,0,0,0,1.66,6.251A5.915,5.915,0,0,0,79.1,48.883a1.278,1.278,0,0,1-.4,2.179A15.233,15.233,0,0,1,74,51.787" fill="#3e145e"/>
    <path id="Trazado_58" data-name="Trazado 58" d="M61.57,27.658a1.278,1.278,0,0,1-1.278-1.278V23.094a1.278,1.278,0,1,1,2.556,0V26.38a1.278,1.278,0,0,1-1.278,1.278" fill="#3e145e"/>
    <path id="Trazado_59" data-name="Trazado 59" d="M63.213,26.015H59.927a1.279,1.279,0,0,1,0-2.557h3.286a1.278,1.278,0,0,1,0,2.557" fill="#3e145e"/>
    <path id="Trazado_60" data-name="Trazado 60" d="M54.174,68.41h-.285a1.279,1.279,0,0,1,0-2.557h.285l.037-2.38a2.38,2.38,0,0,0-4.76,0v2.344l.322.036a1.279,1.279,0,0,1,0,2.557h-.286A2.6,2.6,0,0,1,46.9,65.817V63.473a4.936,4.936,0,0,1,9.872,0v2.344a2.6,2.6,0,0,1-2.593,2.593" fill="#3e145e"/>
    <path id="Trazado_61" data-name="Trazado 61" d="M51.83,61.094a1.278,1.278,0,0,1-1.277-1.278V55.392a1.278,1.278,0,1,1,2.555,0v4.424a1.278,1.278,0,0,1-1.278,1.278" fill="#3e145e"/>
    <path id="Trazado_62" data-name="Trazado 62" d="M71.17,61.4a1.277,1.277,0,0,1-1.278-1.277V55.392a1.278,1.278,0,0,1,2.556,0v4.726A1.277,1.277,0,0,1,71.17,61.4" fill="#3e145e"/>
    <path id="Trazado_63" data-name="Trazado 63" d="M71.17,66.606a3.884,3.884,0,1,1,3.884-3.883,3.887,3.887,0,0,1-3.884,3.883m0-5.211A1.328,1.328,0,1,0,72.5,62.723,1.33,1.33,0,0,0,71.17,61.4" fill="#3e145e"/>
    <path id="Trazado_64" data-name="Trazado 64" d="M92.563,100.275H30.577a7.722,7.722,0,0,1-7.713-7.713,2.543,2.543,0,0,1,2.54-2.54H97.735a2.542,2.542,0,0,1,2.54,2.54,7.722,7.722,0,0,1-7.712,7.713M25.4,92.578a5.185,5.185,0,0,0,5.173,5.141H92.563a5.163,5.163,0,0,0,5.156-5.141Z" fill="#3e145e"/>
  </g>
</svg>
