<svg id="Grupo_6" data-name="Grupo 6" xmlns="http://www.w3.org/2000/svg" xmlns:xlink="http://www.w3.org/1999/xlink" width="121.595" height="121.595" viewBox="0 0 121.595 121.595">
  <defs>
    <clipPath id="clip-path">
      <rect id="Rectángulo_3" data-name="Rectángulo 3" width="121.595" height="121.595" fill="none"/>
    </clipPath>
  </defs>
  <g id="Grupo_5" data-name="Grupo 5" clip-path="url(#clip-path)">
    <path id="Trazado_35" data-name="Trazado 35" d="M119.428,60.8A58.63,58.63,0,1,1,60.8,2.168a58.631,58.631,0,0,1,58.63,58.63" fill="#fff"/>
    <path id="Trazado_36" data-name="Trazado 36" d="M60.8,121.6a60.8,60.8,0,1,1,60.8-60.8,60.867,60.867,0,0,1-60.8,60.8m0-117.259A56.462,56.462,0,1,0,117.26,60.8,56.526,56.526,0,0,0,60.8,4.336" fill="#3e145e"/>
    <path id="Trazado_37" data-name="Trazado 37" d="M92.741,52.768h-9.29l-3.484,6.209L72.419,44.921,65.305,57.26,60.8,47.1l-5.857,7.125-8.25-1.285s-1.708,7.683-7.224,1.285l-9.29-.593V69.744H92.161Z" fill="#ffe227"/>
    <path id="Trazado_38" data-name="Trazado 38" d="M90.138,98.156H32.075a1.286,1.286,0,0,1-1.225-1.672A15.2,15.2,0,0,1,45.4,85.824h31.42a15.2,15.2,0,0,1,14.546,10.66,1.285,1.285,0,0,1-1.225,1.672M33.959,95.587H88.254a12.631,12.631,0,0,0-11.437-7.193H45.4a12.632,12.632,0,0,0-11.438,7.193" fill="#3e145e"/>
    <path id="Trazado_39" data-name="Trazado 39" d="M76.3,88.393H45.919A1.285,1.285,0,0,1,44.7,86.7l3.113-9.249a1.285,1.285,0,0,1,1.217-.875H73.182a1.283,1.283,0,0,1,1.216.875L77.513,86.7A1.284,1.284,0,0,1,76.3,88.393m-28.59-2.569h26.8l-2.249-6.68h-22.3Z" fill="#3e145e"/>
    <path id="Trazado_40" data-name="Trazado 40" d="M96.447,79.145H25.767a5.4,5.4,0,0,1-5.4-5.4V31.787a5.4,5.4,0,0,1,5.4-5.4h70.68a5.4,5.4,0,0,1,5.394,5.4V73.749a5.4,5.4,0,0,1-5.394,5.4M25.767,28.961a2.829,2.829,0,0,0-2.825,2.826V73.749a2.828,2.828,0,0,0,2.825,2.826h70.68a2.829,2.829,0,0,0,2.826-2.826V31.787a2.83,2.83,0,0,0-2.826-2.826Z" fill="#3e145e"/>
    <path id="Trazado_41" data-name="Trazado 41" d="M92.507,71.608h-62.8a1.285,1.285,0,0,1-1.285-1.284V35.213a1.285,1.285,0,0,1,1.285-1.285h62.8a1.284,1.284,0,0,1,1.284,1.285V70.324a1.284,1.284,0,0,1-1.284,1.284M30.991,69.039H91.222V36.5H30.991Z" fill="#3e145e"/>
    <path id="Trazado_42" data-name="Trazado 42" d="M43.223,58.977a4.753,4.753,0,1,1,4.753-4.752,4.759,4.759,0,0,1-4.753,4.752m0-6.937a2.184,2.184,0,1,0,2.184,2.185,2.186,2.186,0,0,0-2.184-2.185" fill="#3e145e"/>
    <path id="Trazado_43" data-name="Trazado 43" d="M79.249,61.136a1.3,1.3,0,0,1-1.174-.763L72.021,46.749,65.81,58.425a1.242,1.242,0,0,1-1.169.68,1.286,1.286,0,0,1-1.131-.742l-4-8.607L56.4,54.891a1.282,1.282,0,0,1-1.1.618H46.691a1.285,1.285,0,1,1,0-2.569h7.884l3.992-6.576a1.259,1.259,0,0,1,1.169-.616,1.288,1.288,0,0,1,1.1.742l3.922,8.45,6.239-11.724A1.284,1.284,0,0,1,73.3,43.3l6.076,13.675,2.673-4.827a1.285,1.285,0,0,1,1.124-.661h9.334a1.284,1.284,0,0,1,0,2.568H83.93l-3.557,6.421a1.285,1.285,0,0,1-1.124.662" fill="#3e145e"/>
    <path id="Trazado_44" data-name="Trazado 44" d="M99.9,98.156H22.312a1.285,1.285,0,0,1,0-2.569H99.9a1.285,1.285,0,0,1,0,2.569" fill="#3e145e"/>
  </g>
</svg>
