<svg xmlns="http://www.w3.org/2000/svg" xmlns:xlink="http://www.w3.org/1999/xlink" width="72.695" height="51.142" viewBox="0 0 72.695 51.142">
  <defs>
    <clipPath id="clip-path">
      <rect id="Rectángulo_605" data-name="Rectángulo 605" width="72.695" height="51.142" transform="translate(0 -0.001)" fill="none"/>
    </clipPath>
  </defs>
  <g id="Grupo_741" data-name="Grupo 741" transform="translate(0 0.001)">
    <g id="Grupo_740" data-name="Grupo 740" clip-path="url(#clip-path)">
      <path id="Trazado_2670" data-name="Trazado 2670" d="M71.722,29.132A14.421,14.421,0,0,1,57.305,43.55H12.436a11.463,11.463,0,1,1,0-22.926,11.225,11.225,0,0,1,4.3.841,16.7,16.7,0,0,1-.243-2.9A17.584,17.584,0,0,1,51.472,15.95a14.413,14.413,0,0,1,20.25,13.182" fill="#fff"/>
      <path id="Trazado_2671" data-name="Trazado 2671" d="M56.9,44.523H12.815A12.7,12.7,0,0,1,0,32.322a12.448,12.448,0,0,1,15.58-12.269c-.038-.486-.057-.986-.057-1.492a18.557,18.557,0,0,1,36.689-3.95,15.389,15.389,0,0,1,20.462,15.27A15.58,15.58,0,0,1,56.9,44.523M12.436,21.6A10.492,10.492,0,0,0,1.948,32.285,10.739,10.739,0,0,0,12.815,42.577H56.9A13.638,13.638,0,0,0,70.733,29.788,13.441,13.441,0,0,0,52.588,16.544a1.655,1.655,0,0,1-2.215-1.23A16.614,16.614,0,0,0,17.559,20.3a1.627,1.627,0,0,1-.58,1.424,1.657,1.657,0,0,1-1.536.308,10.4,10.4,0,0,0-3.007-.437" fill="#3e145e"/>
      <path id="Trazado_2672" data-name="Trazado 2672" d="M35.848,8.8A10.894,10.894,0,0,0,24.97,19.673V27.13h3.815V19.762a7.06,7.06,0,0,1,14.12,0V27.13h3.814V19.673A10.888,10.888,0,0,0,35.848,8.8" fill="#fff"/>
      <path id="Trazado_2673" data-name="Trazado 2673" d="M47.692,28.1H41.933V19.761a6.087,6.087,0,0,0-12.174,0V28.1H24V19.673a11.847,11.847,0,1,1,23.693,0Zm-3.814-1.945h1.869V19.673a9.9,9.9,0,1,0-19.8,0v6.484h1.871v-6.4a8.032,8.032,0,0,1,16.064,0Z" fill="#3e145e"/>
      <path id="Trazado_2674" data-name="Trazado 2674" d="M50.649,29.59V47.709a2.459,2.459,0,0,1-2.461,2.46H23.508a2.458,2.458,0,0,1-2.46-2.46V29.59a2.458,2.458,0,0,1,2.46-2.46h24.68a2.459,2.459,0,0,1,2.461,2.46" fill="#fff"/>
      <path id="Trazado_2675" data-name="Trazado 2675" d="M48.189,51.141H23.509a3.437,3.437,0,0,1-3.433-3.433V29.589a3.437,3.437,0,0,1,3.433-3.432h24.68a3.437,3.437,0,0,1,3.433,3.432V47.708a3.437,3.437,0,0,1-3.433,3.433M23.509,28.1a1.489,1.489,0,0,0-1.487,1.487V47.708A1.489,1.489,0,0,0,23.509,49.2h24.68a1.49,1.49,0,0,0,1.488-1.488V29.589A1.489,1.489,0,0,0,48.189,28.1Z" fill="#3e145e"/>
      <path id="Trazado_2676" data-name="Trazado 2676" d="M38.993,35.934a3.251,3.251,0,0,1-1.09,3.28,2.111,2.111,0,0,0-.716,1.64v1.64a1.337,1.337,0,0,1-2.673,0V40.859a2.131,2.131,0,0,0-.738-1.656,3.239,3.239,0,1,1,5.217-3.269" fill="#3e145e"/>
    </g>
  </g>
</svg>
