<svg xmlns="http://www.w3.org/2000/svg" xmlns:xlink="http://www.w3.org/1999/xlink" width="59.623" height="39.223" viewBox="0 0 59.623 39.223">
  <defs>
    <clipPath id="clip-path">
      <rect id="Rectángulo_611" data-name="Rectángulo 611" width="59.623" height="39.223" transform="translate(0 0)" fill="none"/>
    </clipPath>
  </defs>
  <g id="Grupo_745" data-name="Grupo 745" transform="translate(0 -0.001)">
    <g id="Grupo_744" data-name="Grupo 744" clip-path="url(#clip-path)">
      <path id="Trazado_2682" data-name="Trazado 2682" d="M.975,33.033H15.38v5.215H6.2A5.237,5.237,0,0,1,2.5,36.721,5.185,5.185,0,0,1,.975,33.033" fill="#fff"/>
      <path id="Trazado_2683" data-name="Trazado 2683" d="M58.647,33.033a5.214,5.214,0,0,1-5.215,5.215H44.25V33.033Z" fill="#fff"/>
      <path id="Trazado_2684" data-name="Trazado 2684" d="M53.267,32.133H6.357V3.625A1.754,1.754,0,0,1,8.109,1.873H51.515a1.754,1.754,0,0,1,1.752,1.752ZM8.308,30.182H51.316V3.824H8.308Z" fill="#fff"/>
      <path id="Trazado_2685" data-name="Trazado 2685" d="M54.164,34.007H5.459a.974.974,0,0,1-.975-.975V3.625A3.629,3.629,0,0,1,8.109,0H51.515A3.629,3.629,0,0,1,55.14,3.625V33.032a.975.975,0,0,1-.976.975M6.435,32.056H53.189V3.625a1.675,1.675,0,0,0-1.674-1.673H8.109A1.675,1.675,0,0,0,6.435,3.625Z" fill="#3e145e"/>
      <path id="Trazado_2686" data-name="Trazado 2686" d="M44.25,39.223H15.381a.975.975,0,0,1-.976-.975V33.033a.975.975,0,0,1,.976-.976H44.25a.975.975,0,0,1,.975.976v5.215a.974.974,0,0,1-.975.975M16.356,37.272H43.274V34.008H16.356Z" fill="#3e145e"/>
      <path id="Trazado_2687" data-name="Trazado 2687" d="M15.38,39.224H6.2a6.182,6.182,0,0,1-4.381-1.811A6.12,6.12,0,0,1,0,33.033a.976.976,0,0,1,.976-.975H15.38a.975.975,0,0,1,.976.975v5.215a.976.976,0,0,1-.976.976M2.062,34.009a4.155,4.155,0,0,0,1.128,2.02A4.245,4.245,0,0,0,6.2,37.273H14.4V34.009Z" fill="#3e145e"/>
      <path id="Trazado_2688" data-name="Trazado 2688" d="M53.432,39.224H44.249a.974.974,0,0,1-.975-.975V33.034a.975.975,0,0,1,.975-.976h14.4a.975.975,0,0,1,.975.976,6.2,6.2,0,0,1-6.19,6.19m-8.207-1.951h8.207a4.246,4.246,0,0,0,4.126-3.264H45.225Z" fill="#3e145e"/>
      <path id="Trazado_2689" data-name="Trazado 2689" d="M45.437,11.914H29.2a.975.975,0,0,1,0-1.951h16.24a.975.975,0,1,1,0,1.951" fill="#3e145e"/>
      <path id="Trazado_2690" data-name="Trazado 2690" d="M45.437,17.212H29.2a.975.975,0,1,1,0-1.95h16.24a.975.975,0,1,1,0,1.95" fill="#3e145e"/>
      <path id="Trazado_2691" data-name="Trazado 2691" d="M45.437,22.563H29.2a.976.976,0,0,1,0-1.951h16.24a.976.976,0,1,1,0,1.951" fill="#3e145e"/>
      <path id="Trazado_2692" data-name="Trazado 2692" d="M16.626,4.782A6.032,6.032,0,0,0,10.6,10.8v4.13h2.112v-4.08a3.909,3.909,0,0,1,7.818,0v4.08h2.113V10.8a6.029,6.029,0,0,0-6.02-6.022" fill="#fff"/>
      <path id="Trazado_2693" data-name="Trazado 2693" d="M23.184,15.473H20V10.855a3.371,3.371,0,0,0-6.741,0v4.618h-3.19V10.806a6.56,6.56,0,1,1,13.12,0ZM21.072,14.4h1.035v-3.59a5.483,5.483,0,1,0-10.966,0V14.4h1.035V10.855a4.448,4.448,0,0,1,8.9,0Z" fill="#3e145e"/>
      <path id="Trazado_2694" data-name="Trazado 2694" d="M24.821,16.3V26.329a1.361,1.361,0,0,1-1.362,1.363H9.793A1.362,1.362,0,0,1,8.43,26.329V16.3a1.362,1.362,0,0,1,1.363-1.362H23.459A1.361,1.361,0,0,1,24.821,16.3" fill="#fff"/>
      <path id="Trazado_2695" data-name="Trazado 2695" d="M23.459,28.231H9.793a1.9,1.9,0,0,1-1.9-1.9V16.3a1.9,1.9,0,0,1,1.9-1.9H23.459a1.9,1.9,0,0,1,1.9,1.9V26.329a1.9,1.9,0,0,1-1.9,1.9M9.793,15.473a.825.825,0,0,0-.823.824V26.329a.824.824,0,0,0,.823.825H23.459a.825.825,0,0,0,.824-.825V16.3a.825.825,0,0,0-.824-.824Z" fill="#3e145e"/>
      <path id="Trazado_2696" data-name="Trazado 2696" d="M18.367,19.81a1.8,1.8,0,0,1-.6,1.816,1.172,1.172,0,0,0-.4.909v.908a.74.74,0,0,1-1.48,0v-.905a1.182,1.182,0,0,0-.409-.918,1.794,1.794,0,1,1,2.889-1.81" fill="#3e145e"/>
    </g>
  </g>
</svg>
