<svg id="Grupo_726" data-name="Grupo 726" xmlns="http://www.w3.org/2000/svg" xmlns:xlink="http://www.w3.org/1999/xlink" width="99.324" height="85.753" viewBox="0 0 99.324 85.753">
  <defs>
    <clipPath id="clip-path">
      <rect id="Rectángulo_530" data-name="Rectángulo 530" width="99.324" height="85.753" transform="translate(0 0)" fill="none"/>
    </clipPath>
  </defs>
  <g id="Grupo_725" data-name="Grupo 725" clip-path="url(#clip-path)">
    <path id="Trazado_2528" data-name="Trazado 2528" d="M1.4,75.629h24.11v8.729H10.136A8.764,8.764,0,0,1,3.952,81.8,8.67,8.67,0,0,1,1.4,75.629" fill="#fff"/>
    <path id="Trazado_2529" data-name="Trazado 2529" d="M97.928,75.629A8.728,8.728,0,0,1,89.2,84.358H73.828V75.629Z" fill="#fff"/>
    <path id="Trazado_2530" data-name="Trazado 2530" d="M90.425,77.022H8.9a1.4,1.4,0,0,1-1.395-1.4V26.405a5.837,5.837,0,0,1,5.83-5.83H85.989a5.837,5.837,0,0,1,5.83,5.83V75.627a1.4,1.4,0,0,1-1.394,1.4M10.3,74.231H89.029V26.405a3.042,3.042,0,0,0-3.04-3.039H13.336A3.042,3.042,0,0,0,10.3,26.405Z" fill="#3e145e"/>
    <rect id="Rectángulo_517" data-name="Rectángulo 517" width="48.322" height="8.729" transform="translate(25.506 75.629)" fill="#ffe227"/>
    <path id="Trazado_2531" data-name="Trazado 2531" d="M73.828,85.753H25.506a1.4,1.4,0,0,1-1.4-1.395v-8.73a1.4,1.4,0,0,1,1.4-1.394H73.828a1.4,1.4,0,0,1,1.4,1.394v8.73a1.4,1.4,0,0,1-1.4,1.395M26.9,82.962H72.433V77.024H26.9Z" fill="#3e145e"/>
    <path id="Trazado_2532" data-name="Trazado 2532" d="M25.506,85.753H10.135A10.123,10.123,0,0,1,0,75.628a1.394,1.394,0,0,1,1.4-1.394h24.11A1.4,1.4,0,0,1,26.9,75.628v8.73a1.4,1.4,0,0,1-1.395,1.395M2.921,77.024a7.211,7.211,0,0,0,2.014,3.788,7.335,7.335,0,0,0,5.2,2.15H24.11V77.024Z" fill="#3e145e"/>
    <path id="Trazado_2533" data-name="Trazado 2533" d="M89.2,85.754H73.828a1.4,1.4,0,0,1-1.4-1.395v-8.73a1.4,1.4,0,0,1,1.4-1.395h24.1a1.4,1.4,0,0,1,1.4,1.395A10.136,10.136,0,0,1,89.2,85.754M75.224,82.963H89.2a7.347,7.347,0,0,0,7.2-5.938H75.224Z" fill="#3e145e"/>
    <path id="Trazado_2534" data-name="Trazado 2534" d="M69.048,46.66A19.381,19.381,0,1,0,49.667,66.041,19.382,19.382,0,0,0,69.048,46.66" fill="#fff"/>
    <path id="Trazado_2535" data-name="Trazado 2535" d="M62.986,44.419,49.662,57.742,36.339,44.419h5.939V17.992H57.047V44.419Z" fill="#fff"/>
    <path id="Trazado_2536" data-name="Trazado 2536" d="M49.667,68.553A20.777,20.777,0,1,1,70.443,47.776,20.8,20.8,0,0,1,49.667,68.553m0-38.763A17.986,17.986,0,1,0,67.653,47.776,18.006,18.006,0,0,0,49.667,29.79" fill="#3e145e"/>
    <path id="Trazado_2537" data-name="Trazado 2537" d="M62.986,44.419,49.662,57.742,36.339,44.419h5.939V17.992H57.047V44.419Z" fill="#ffe227"/>
    <path id="Trazado_2538" data-name="Trazado 2538" d="M49.661,59.137a1.392,1.392,0,0,1-.986-.408L35.351,45.4a1.4,1.4,0,0,1,.987-2.383h4.544V17.992a1.4,1.4,0,0,1,1.4-1.4H57.046a1.4,1.4,0,0,1,1.4,1.4v25.03h4.544a1.4,1.4,0,0,1,.988,2.383L50.648,58.729a1.391,1.391,0,0,1-.987.408M39.706,45.813l9.955,9.956,9.956-9.956H57.046a1.4,1.4,0,0,1-1.4-1.4V19.387H43.673v25.03a1.4,1.4,0,0,1-1.4,1.4Z" fill="#3e145e"/>
    <path id="Trazado_2539" data-name="Trazado 2539" d="M62.986,12.71a1.4,1.4,0,0,1-1.4-1.4v-1.5a1.4,1.4,0,0,1,2.792,0v1.5a1.4,1.4,0,0,1-1.4,1.4" fill="#3e145e"/>
    <path id="Trazado_2540" data-name="Trazado 2540" d="M62.986,35.1a1.4,1.4,0,0,1-1.4-1.4V15.266a1.4,1.4,0,0,1,2.792,0V33.7a1.4,1.4,0,0,1-1.4,1.4" fill="#3e145e"/>
    <path id="Trazado_2541" data-name="Trazado 2541" d="M52.619,4.293a1.4,1.4,0,0,1-1.4-1.4V1.4a1.4,1.4,0,1,1,2.792,0V2.9a1.4,1.4,0,0,1-1.4,1.4" fill="#3e145e"/>
    <path id="Trazado_2542" data-name="Trazado 2542" d="M52.619,19.387a1.4,1.4,0,0,1-1.4-1.4V6.849a1.4,1.4,0,1,1,2.792,0V17.991a1.4,1.4,0,0,1-1.4,1.4" fill="#3e145e"/>
    <path id="Trazado_2543" data-name="Trazado 2543" d="M46.166,4.293a1.4,1.4,0,0,1-1.4-1.4V1.4a1.4,1.4,0,1,1,2.791,0V2.9a1.4,1.4,0,0,1-1.4,1.4" fill="#3e145e"/>
    <path id="Trazado_2544" data-name="Trazado 2544" d="M46.166,19.387a1.4,1.4,0,0,1-1.4-1.4V6.849a1.4,1.4,0,1,1,2.791,0V17.991a1.394,1.394,0,0,1-1.4,1.4" fill="#3e145e"/>
    <path id="Trazado_2545" data-name="Trazado 2545" d="M36.338,12.71a1.4,1.4,0,0,1-1.4-1.4v-1.5a1.4,1.4,0,1,1,2.791,0v1.5a1.394,1.394,0,0,1-1.4,1.4" fill="#3e145e"/>
    <path id="Trazado_2546" data-name="Trazado 2546" d="M36.338,35.1a1.4,1.4,0,0,1-1.4-1.4V15.266a1.4,1.4,0,0,1,2.791,0v18.44a1.4,1.4,0,0,1-1.4,1.4" fill="#3e145e"/>
    <rect id="Rectángulo_518" data-name="Rectángulo 518" width="2.785" height="2.785" transform="translate(79.498 48.339)" fill="#3e145e"/>
    <rect id="Rectángulo_519" data-name="Rectángulo 519" width="2.785" height="2.784" transform="translate(79.498 64.385)" fill="#3e145e"/>
    <rect id="Rectángulo_520" data-name="Rectángulo 520" width="2.785" height="2.785" transform="translate(79.498 42.991)" fill="#3e145e"/>
    <rect id="Rectángulo_521" data-name="Rectángulo 521" width="2.785" height="2.784" transform="translate(79.498 59.037)" fill="#3e145e"/>
    <rect id="Rectángulo_522" data-name="Rectángulo 522" width="2.785" height="2.785" transform="translate(79.498 37.642)" fill="#3e145e"/>
    <rect id="Rectángulo_523" data-name="Rectángulo 523" width="2.785" height="2.784" transform="translate(79.498 53.688)" fill="#3e145e"/>
    <rect id="Rectángulo_524" data-name="Rectángulo 524" width="2.784" height="2.785" transform="translate(16.882 48.339)" fill="#3e145e"/>
    <rect id="Rectángulo_525" data-name="Rectángulo 525" width="2.784" height="2.784" transform="translate(16.882 64.385)" fill="#3e145e"/>
    <rect id="Rectángulo_526" data-name="Rectángulo 526" width="2.784" height="2.785" transform="translate(16.882 42.991)" fill="#3e145e"/>
    <rect id="Rectángulo_527" data-name="Rectángulo 527" width="2.784" height="2.784" transform="translate(16.882 59.037)" fill="#3e145e"/>
    <rect id="Rectángulo_528" data-name="Rectángulo 528" width="2.784" height="2.785" transform="translate(16.882 37.642)" fill="#3e145e"/>
    <rect id="Rectángulo_529" data-name="Rectángulo 529" width="2.784" height="2.784" transform="translate(16.882 53.688)" fill="#3e145e"/>
  </g>
</svg>
