<svg id="Grupo_714" data-name="Grupo 714" xmlns="http://www.w3.org/2000/svg" xmlns:xlink="http://www.w3.org/1999/xlink" width="75.103" height="82.457" viewBox="0 0 75.103 82.457">
  <defs>
    <clipPath id="clip-path">
      <rect id="Rectángulo_495" data-name="Rectángulo 495" width="75.103" height="82.457" transform="translate(0 0)" fill="none"/>
    </clipPath>
  </defs>
  <g id="Grupo_713" data-name="Grupo 713" clip-path="url(#clip-path)">
    <path id="Trazado_2446" data-name="Trazado 2446" d="M2.39,44.893H72.712s.158,35.063-35.16,37.564c0,0-37.523-5.574-34.7-36.184" fill="#ffe227"/>
    <path id="Trazado_2447" data-name="Trazado 2447" d="M37.552,82.458A37.6,37.6,0,0,1,0,44.906a1.367,1.367,0,0,1,1.367-1.367h72.37A1.367,1.367,0,0,1,75.1,44.906,37.6,37.6,0,0,1,37.552,82.458M2.76,46.273a34.818,34.818,0,0,0,69.582,0Z" fill="#3e145e"/>
    <path id="Trazado_2448" data-name="Trazado 2448" d="M37.552,64.673C16.5,64.673,0,55.991,0,44.906a1.367,1.367,0,0,1,1.368-1.367H73.736A1.366,1.366,0,0,1,75.1,44.906c0,11.085-16.494,19.767-37.551,19.767m-34.7-18.4C4.328,54.9,19.618,61.94,37.552,61.94s33.224-7.044,34.7-15.667Z" fill="#3e145e"/>
    <path id="Trazado_2449" data-name="Trazado 2449" d="M37.552,82.457a1.366,1.366,0,0,1-1.367-1.367V44.9a1.367,1.367,0,1,1,2.734,0V81.09a1.367,1.367,0,0,1-1.367,1.367" fill="#3e145e"/>
    <path id="Trazado_2450" data-name="Trazado 2450" d="M37.557,42.222c-.183,0-.367,0-.551-.009A15.288,15.288,0,0,1,22.559,26.9V14.993a14.992,14.992,0,1,1,29.984,0V27.23A14.991,14.991,0,0,1,37.557,42.222M37.552,2.734A12.272,12.272,0,0,0,25.293,14.993V26.9A12.531,12.531,0,0,0,37.1,39.481,12.259,12.259,0,0,0,49.81,27.23V14.993A12.272,12.272,0,0,0,37.552,2.734" fill="#3e145e"/>
    <path id="Trazado_2451" data-name="Trazado 2451" d="M41.322,14.8a12.988,12.988,0,0,1-5.595-1.284c-6.733-3.173-10.52-1.456-10.556-1.439a1.367,1.367,0,0,1-1.216-2.449c.2-.1,4.894-2.375,12.938,1.415,6.584,3.107,12.155-1.891,12.387-2.1a1.367,1.367,0,0,1,1.855,2.008A15.7,15.7,0,0,1,41.322,14.8" fill="#3e145e"/>
    <path id="Trazado_2452" data-name="Trazado 2452" d="M51.565,25.306a3.516,3.516,0,0,1-.64-.064A1.366,1.366,0,0,1,49.811,23.9l-.018-9.237a1.366,1.366,0,0,1,1.1-1.369,3.3,3.3,0,0,1,.676-.072c2.5,0,4.457,2.654,4.457,6.044s-1.959,6.042-4.457,6.042m.979-8.685v5.243a4.5,4.5,0,0,0,.743-2.6,4.685,4.685,0,0,0-.743-2.643" fill="#3e145e"/>
    <path id="Trazado_2453" data-name="Trazado 2453" d="M23.539,25.306c-2.5,0-4.456-2.654-4.456-6.042s1.957-6.045,4.456-6.045a3.284,3.284,0,0,1,.675.073,1.366,1.366,0,0,1,1.1,1.369l-.013.224L25.293,23.9a1.367,1.367,0,0,1-1.114,1.344,3.534,3.534,0,0,1-.64.064m-.98-8.684a4.689,4.689,0,0,0-.741,2.642,4.681,4.681,0,0,0,.741,2.639Z" fill="#3e145e"/>
    <path id="Trazado_2454" data-name="Trazado 2454" d="M63.494,46.274a1.367,1.367,0,0,1-.551-2.619,10.5,10.5,0,0,0,6.267-9.6V23.4A10.5,10.5,0,0,0,58.724,12.917a10.6,10.6,0,0,0-1.985.187,1.367,1.367,0,0,1-.516-2.684A13.228,13.228,0,0,1,71.944,23.4V34.05a13.23,13.23,0,0,1-7.9,12.108,1.354,1.354,0,0,1-.549.116" fill="#3e145e"/>
    <path id="Trazado_2455" data-name="Trazado 2455" d="M54.007,46.274a1.379,1.379,0,0,1-.557-.119,13.356,13.356,0,0,1-5.288-4.283,1.367,1.367,0,0,1,2.2-1.619,10.626,10.626,0,0,0,4.2,3.406,1.367,1.367,0,0,1-.557,2.615" fill="#3e145e"/>
    <path id="Trazado_2456" data-name="Trazado 2456" d="M62,23.408a11.425,11.425,0,0,1-4.473-.922,1.367,1.367,0,0,1,1.063-2.518c5.494,2.321,10.167-1.92,10.215-1.963a1.366,1.366,0,1,1,1.855,2.007,13.847,13.847,0,0,1-8.66,3.4" fill="#3e145e"/>
    <path id="Trazado_2457" data-name="Trazado 2457" d="M70.915,32.554a3.123,3.123,0,0,1-.6-.06,1.366,1.366,0,0,1-1.108-1.342l-.015-8.028a1.366,1.366,0,0,1,1.1-1.375,3.086,3.086,0,0,1,.618-.066c2.273,0,4.053,2.388,4.053,5.436s-1.78,5.435-4.053,5.435m1.029-7.034v3.186a4.21,4.21,0,0,0,.291-1.587,4.328,4.328,0,0,0-.291-1.6" fill="#3e145e"/>
    <path id="Trazado_2458" data-name="Trazado 2458" d="M37.552,82.458c-11.085,0-19.768-16.5-19.768-37.552a1.366,1.366,0,0,1,1.367-1.367h36.8a1.367,1.367,0,0,1,1.367,1.367c0,21.056-8.684,37.552-19.768,37.552M20.531,46.273c.365,18.27,8.012,33.451,17.021,33.451S54.207,64.543,54.573,46.273Z" fill="#3e145e"/>
    <path id="Trazado_2459" data-name="Trazado 2459" d="M11.609,46.274a1.358,1.358,0,0,1-.549-.116A13.231,13.231,0,0,1,3.16,34.05V23.4A13.227,13.227,0,0,1,18.88,10.42a1.366,1.366,0,1,1-.514,2.684,10.63,10.63,0,0,0-1.986-.187A10.5,10.5,0,0,0,5.893,23.4V34.05a10.5,10.5,0,0,0,6.267,9.6,1.367,1.367,0,0,1-.551,2.619" fill="#3e145e"/>
    <path id="Trazado_2460" data-name="Trazado 2460" d="M13.1,23.408a13.851,13.851,0,0,1-8.66-3.4A1.366,1.366,0,1,1,6.3,18c.19.174,4.76,4.267,10.216,1.963a1.367,1.367,0,0,1,1.063,2.518,11.433,11.433,0,0,1-4.474.922" fill="#3e145e"/>
    <path id="Trazado_2461" data-name="Trazado 2461" d="M4.189,32.554c-2.273,0-4.054-2.388-4.054-5.435s1.781-5.436,4.054-5.436a3.173,3.173,0,0,1,.616.065,1.365,1.365,0,0,1,1.1,1.392c0,.015-.008.156-.01.17l0,7.842a1.366,1.366,0,0,1-1.107,1.342,3.131,3.131,0,0,1-.6.06M3.16,25.52a4.536,4.536,0,0,0,0,3.2Z" fill="#3e145e"/>
    <path id="Trazado_2462" data-name="Trazado 2462" d="M43.844,46.272H31.981A1.366,1.366,0,0,1,30.614,44.9V39.634a1.367,1.367,0,0,1,1.94-1.242A11.739,11.739,0,0,0,37.1,39.48,12.145,12.145,0,0,0,43.211,38.1a1.366,1.366,0,0,1,2,1.211V44.9a1.366,1.366,0,0,1-1.367,1.367m-10.5-2.734h9.131V41.389a15.284,15.284,0,0,1-5.472.825,14.6,14.6,0,0,1-3.659-.6Z" fill="#3e145e"/>
  </g>
</svg>
