<svg id="Grupo_708" data-name="Grupo 708" xmlns="http://www.w3.org/2000/svg" xmlns:xlink="http://www.w3.org/1999/xlink" width="332.086" height="335.698" viewBox="0 0 332.086 335.698">
  <defs>
    <clipPath id="clip-path">
      <rect id="Rectángulo_488" data-name="Rectángulo 488" width="332.086" height="335.698" fill="none"/>
    </clipPath>
  </defs>
  <path id="Trazado_2275" data-name="Trazado 2275" d="M1.593,241.16l7.375-5.1L.042,232.084Z" fill="#6237a0"/>
  <g id="Grupo_707" data-name="Grupo 707">
    <g id="Grupo_706" data-name="Grupo 706" clip-path="url(#clip-path)">
      <path id="Trazado_2276" data-name="Trazado 2276" d="M330.634,255.355c1.359-1.145,1.852-2.379,1.1-2.758L141.469,158.035c-.753-.379-2.466.241-3.826,1.386L3.033,238.867c-1.36,1.143-1.851,2.378-1.1,2.758l187.36,93.962c.753.379,2.466-.243,3.826-1.386Z" fill="#7c4bb4"/>
      <path id="Trazado_2277" data-name="Trazado 2277" d="M332,243.733l.021,9.126-9.215-2.723Z" fill="#6237a0"/>
      <path id="Trazado_2278" data-name="Trazado 2278" d="M329.05,246.15c1.36-1.144,1.854-2.378,1.1-2.757L139.885,148.831c-.75-.378-2.465.241-3.825,1.385L1.453,229.663c-1.36,1.143-1.853,2.378-1.1,2.757l187.364,93.963c.752.377,2.465-.243,3.825-1.386Z" fill="#dcd6ea"/>
      <path id="Trazado_2279" data-name="Trazado 2279" d="M134.86,4.378l8.071-4.3.5,9.006Z" fill="#6237a0"/>
      <path id="Trazado_2280" data-name="Trazado 2280" d="M332.086,242.86c-.067,1.785-.736,2.933-1.492,2.563L143.275,152.41c-.754-.372-1.314-2.119-1.247-3.906L142.013,2.632c.066-1.786.736-2.933,1.49-2.563L330.836,92.541c.755.37,1.314,2.119,1.245,3.9Z" fill="#7c4bb4"/>
      <path id="Trazado_2281" data-name="Trazado 2281" d="M322.882,249.843l8.091-4.351-7.758-5.706Z" fill="#6237a0"/>
      <path id="Trazado_2282" data-name="Trazado 2282" d="M323.9,247.211c-.069,1.786-.735,2.933-1.494,2.562L135.084,156.76c-.755-.371-1.314-2.119-1.245-3.9L133.821,6.983c.067-1.785.735-2.933,1.492-2.563L322.644,96.892c.756.37,1.314,2.119,1.245,3.9Z" fill="#c299f6"/>
      <path id="Trazado_2283" data-name="Trazado 2283" d="M310.98,230.888c-.057,1.544-.636,2.534-1.288,2.214L147.827,152.729c-.654-.32-1.135-1.832-1.076-3.374l-.016-126.05c.059-1.543.638-2.534,1.291-2.213L309.9,101c.653.32,1.138,1.83,1.078,3.374Z" fill="#fff"/>
      <path id="Trazado_2284" data-name="Trazado 2284" d="M159.88,258l-3.067-.2-43.324-21.92L83.7,253.464l-3.631.241v1.9l49.077,23.865,32.673-19.134v-1.9Z" fill="#7c4bb4"/>
      <path id="Trazado_2285" data-name="Trazado 2285" d="M129.143,277.57l32.673-19.134-48.326-24.45L80.066,253.7Z" fill="#7c4bb4"/>
      <path id="Trazado_2286" data-name="Trazado 2286" d="M136.278,175.629l-.519-.034-7.315-3.7-5.032,2.968-.613.041v1.205l8.288,4.03,5.519-3.231V175.7Z" fill="#8780bb"/>
      <path id="Trazado_2287" data-name="Trazado 2287" d="M131.087,178.934l5.52-3.231-8.163-4.13L122.8,174.9Z" fill="#6237a0"/>
      <path id="Trazado_2288" data-name="Trazado 2288" d="M149.845,182.324l-.519-.033-7.317-3.7-5.03,2.97-.613.04V182.8l8.289,4.029,5.515-3.231V182.4Z" fill="#8780bb"/>
      <path id="Trazado_2289" data-name="Trazado 2289" d="M144.655,185.628l5.516-3.231-8.162-4.128-5.642,3.33Z" fill="#6237a0"/>
      <path id="Trazado_2290" data-name="Trazado 2290" d="M162.641,188.449l-.519-.034-7.317-3.7-5.029,2.968-.614.04v1.205l8.289,4.031,5.516-3.232v-1.205Z" fill="#8780bb"/>
      <path id="Trazado_2291" data-name="Trazado 2291" d="M157.451,191.754l5.517-3.232-8.163-4.129-5.642,3.33Z" fill="#6237a0"/>
      <path id="Trazado_2292" data-name="Trazado 2292" d="M176.328,195.191l-.519-.033-7.315-3.7-5.032,2.968-.613.041v1.205l8.288,4.03,5.519-3.231v-1.205Z" fill="#8780bb"/>
      <path id="Trazado_2293" data-name="Trazado 2293" d="M171.136,198.5l5.52-3.231-8.163-4.129-5.645,3.33Z" fill="#6237a0"/>
      <path id="Trazado_2294" data-name="Trazado 2294" d="M189.673,201.718l-.52-.034-7.317-3.7-5.029,2.969-.614.041V202.2l8.289,4.03L190,203v-1.205Z" fill="#8780bb"/>
      <path id="Trazado_2295" data-name="Trazado 2295" d="M184.481,205.023,190,201.792l-8.164-4.13-5.643,3.33Z" fill="#6237a0"/>
      <path id="Trazado_2296" data-name="Trazado 2296" d="M202.673,208.2l-.519-.033-7.314-3.7-5.033,2.968-.613.041v1.205l8.288,4.03L203,209.478v-1.205Z" fill="#8780bb"/>
      <path id="Trazado_2297" data-name="Trazado 2297" d="M197.481,211.5l5.52-3.231-8.162-4.13-5.645,3.33Z" fill="#6237a0"/>
      <path id="Trazado_2298" data-name="Trazado 2298" d="M215.947,214.8l-.516-.033-7.317-3.7-5.03,2.968-.616.041v1.2l8.289,4.032,5.518-3.233V214.87Z" fill="#8780bb"/>
      <path id="Trazado_2299" data-name="Trazado 2299" d="M210.757,218.1l5.519-3.231-8.162-4.129-5.645,3.329Z" fill="#6237a0"/>
      <path id="Trazado_2300" data-name="Trazado 2300" d="M229.292,221.22l-.519-.034-7.314-3.7-5.033,2.968-.613.041V221.7l8.289,4.03,5.518-3.231v-1.205Z" fill="#8780bb"/>
      <path id="Trazado_2301" data-name="Trazado 2301" d="M224.1,224.524l5.519-3.231-8.162-4.13-5.645,3.33Z" fill="#6237a0"/>
      <path id="Trazado_2302" data-name="Trazado 2302" d="M242.344,227.962l-.518-.033-7.317-3.7-5.029,2.968-.614.041v1.205l8.289,4.031,5.516-3.232v-1.2Z" fill="#6237a0"/>
      <path id="Trazado_2303" data-name="Trazado 2303" d="M237.155,231.267l5.517-3.231-8.163-4.13-5.642,3.331Z" fill="#6237a0"/>
      <path id="Trazado_2304" data-name="Trazado 2304" d="M123.294,183.169l-.517-.033-7.318-3.7-5.031,2.968-.613.041v1.205l8.288,4.03,5.519-3.231v-1.205Z" fill="#8780bb"/>
      <path id="Trazado_2305" data-name="Trazado 2305" d="M118.1,186.474l5.52-3.231-8.164-4.128-5.643,3.329Z" fill="#262261"/>
      <path id="Trazado_2306" data-name="Trazado 2306" d="M136.861,189.864l-.519-.032-7.314-3.7-5.033,2.968-.613.041v1.2l8.289,4.03,5.518-3.232v-1.205Z" fill="#8780bb"/>
      <path id="Trazado_2307" data-name="Trazado 2307" d="M131.671,193.169l5.519-3.231-8.162-4.128-5.645,3.33Z" fill="#262261"/>
      <path id="Trazado_2308" data-name="Trazado 2308" d="M149.656,195.989l-.518-.032-7.317-3.7-5.029,2.968-.614.04v1.205l8.289,4.031,5.516-3.232v-1.2Z" fill="#8780bb"/>
      <path id="Trazado_2309" data-name="Trazado 2309" d="M144.466,199.294l5.517-3.231-8.163-4.129-5.642,3.329Z" fill="#262261"/>
      <path id="Trazado_2310" data-name="Trazado 2310" d="M163.343,202.731l-.517-.033-7.317-3.7-5.032,2.968-.613.041v1.205l8.288,4.032,5.519-3.232v-1.2Z" fill="#8780bb"/>
      <path id="Trazado_2311" data-name="Trazado 2311" d="M158.152,206.038l5.52-3.231-8.163-4.13-5.645,3.329Z" fill="#262261"/>
      <path id="Trazado_2312" data-name="Trazado 2312" d="M176.688,209.258l-.519-.033-7.318-3.7-5.029,2.968-.613.041v1.205l8.288,4.03,5.516-3.231v-1.205Z" fill="#8780bb"/>
      <path id="Trazado_2313" data-name="Trazado 2313" d="M171.5,212.563l5.517-3.231-8.163-4.13-5.642,3.33Z" fill="#262261"/>
      <path id="Trazado_2314" data-name="Trazado 2314" d="M189.688,215.74l-.516-.033-7.317-3.7-5.033,2.97-.613.04v1.205l8.289,4.029,5.518-3.231v-1.205Z" fill="#8780bb"/>
      <path id="Trazado_2315" data-name="Trazado 2315" d="M184.5,219.045l5.519-3.231-8.162-4.129-5.645,3.331Z" fill="#262261"/>
      <path id="Trazado_2316" data-name="Trazado 2316" d="M202.965,222.339l-.519-.034-7.317-3.7-5.03,2.968-.614.041v1.205l8.29,4.03,5.515-3.231v-1.205Z" fill="#8780bb"/>
      <path id="Trazado_2317" data-name="Trazado 2317" d="M197.775,225.644l5.516-3.231-8.162-4.13-5.644,3.331Z" fill="#262261"/>
      <path id="Trazado_2318" data-name="Trazado 2318" d="M216.307,228.76l-.516-.033-7.317-3.7-5.033,2.968-.613.041v1.205l8.289,4.03,5.518-3.231v-1.205Z" fill="#8780bb"/>
      <path id="Trazado_2319" data-name="Trazado 2319" d="M211.117,232.064l5.519-3.231-8.162-4.129-5.645,3.329Z" fill="#262261"/>
      <path id="Trazado_2320" data-name="Trazado 2320" d="M229.362,235.5l-.52-.032-7.317-3.7-5.029,2.968-.613.041v1.205l8.288,4.031,5.517-3.232v-1.2Z" fill="#8780bb"/>
      <path id="Trazado_2321" data-name="Trazado 2321" d="M224.171,238.807l5.518-3.231-8.164-4.128-5.642,3.329Z" fill="#262261"/>
      <path id="Trazado_2322" data-name="Trazado 2322" d="M114.995,188.028l-.516-.033-7.319-3.7-5.031,2.968-.613.041v1.205l8.289,4.031,5.518-3.232V188.1Z" fill="#8780bb"/>
      <path id="Trazado_2323" data-name="Trazado 2323" d="M109.8,191.333l5.519-3.231-8.164-4.128-5.643,3.329Z" fill="#262261"/>
      <path id="Trazado_2324" data-name="Trazado 2324" d="M128.563,194.725l-.52-.034-7.314-3.7-5.032,2.968-.613.041V195.2l8.288,4.031L128.888,196V194.8Z" fill="#8780bb"/>
      <path id="Trazado_2325" data-name="Trazado 2325" d="M123.372,198.029l5.517-3.231-8.16-4.13L115.084,194Z" fill="#262261"/>
      <path id="Trazado_2326" data-name="Trazado 2326" d="M141.359,200.849l-.52-.033-7.317-3.7-5.029,2.968-.613.041v1.205l8.288,4.032,5.516-3.232v-1.206Z" fill="#8780bb"/>
      <path id="Trazado_2327" data-name="Trazado 2327" d="M136.168,204.155l5.517-3.233-8.163-4.128-5.642,3.329Z" fill="#262261"/>
      <path id="Trazado_2328" data-name="Trazado 2328" d="M155.045,207.592l-.516-.034-7.317-3.7-5.033,2.969-.613.041v1.205l8.29,4.03,5.517-3.231v-1.2Z" fill="#8780bb"/>
      <path id="Trazado_2329" data-name="Trazado 2329" d="M149.855,210.9l5.518-3.231-8.162-4.13-5.645,3.33Z" fill="#262261"/>
      <path id="Trazado_2330" data-name="Trazado 2330" d="M168.389,214.118l-.519-.033-7.317-3.7-5.03,2.968-.613.041V214.6l8.288,4.03,5.516-3.231v-1.205Z" fill="#8780bb"/>
      <path id="Trazado_2331" data-name="Trazado 2331" d="M163.2,217.422l5.517-3.231-8.162-4.13-5.642,3.331Z" fill="#262261"/>
      <path id="Trazado_2332" data-name="Trazado 2332" d="M181.389,220.6l-.519-.033-7.314-3.7-5.032,2.968-.614.04v1.205l8.289,4.029,5.518-3.231v-1.205Z" fill="#8780bb"/>
      <path id="Trazado_2333" data-name="Trazado 2333" d="M176.2,223.9l5.519-3.231-8.162-4.129-5.645,3.331Z" fill="#262261"/>
      <path id="Trazado_2334" data-name="Trazado 2334" d="M194.665,227.2l-.517-.033-7.317-3.7-5.029,2.968-.616.041v1.205l8.288,4.03,5.518-3.231v-1.2Z" fill="#8780bb"/>
      <path id="Trazado_2335" data-name="Trazado 2335" d="M189.473,230.5l5.519-3.231-8.162-4.13-5.645,3.33Z" fill="#262261"/>
      <path id="Trazado_2336" data-name="Trazado 2336" d="M208.01,233.619l-.518-.033-7.317-3.7-5.032,2.968-.612.041V234.1l8.287,4.03,5.518-3.231v-1.2Z" fill="#8780bb"/>
      <path id="Trazado_2337" data-name="Trazado 2337" d="M202.818,236.924l5.519-3.231-8.162-4.129-5.644,3.33Z" fill="#262261"/>
      <path id="Trazado_2338" data-name="Trazado 2338" d="M221.063,240.363l-.519-.034-7.316-3.7-5.031,2.968-.613.041v1.205l8.288,4.031,5.516-3.231v-1.205Z" fill="#8780bb"/>
      <path id="Trazado_2339" data-name="Trazado 2339" d="M215.872,243.667l5.517-3.231-8.161-4.13-5.644,3.329Z" fill="#262261"/>
      <path id="Trazado_2340" data-name="Trazado 2340" d="M107.049,192.591l-.519-.033-7.317-3.7-5.03,2.968-.615.041v1.206l8.289,4.029,5.517-3.231v-1.205Z" fill="#8780bb"/>
      <path id="Trazado_2341" data-name="Trazado 2341" d="M101.856,195.9l5.518-3.231-8.162-4.13-5.645,3.33Z" fill="#262261"/>
      <path id="Trazado_2342" data-name="Trazado 2342" d="M120.614,199.287l-.517-.034-7.317-3.7-5.032,2.968-.613.041v1.205l8.288,4.03,5.518-3.231V199.36Z" fill="#8780bb"/>
      <path id="Trazado_2343" data-name="Trazado 2343" d="M115.423,202.592l5.519-3.231-8.162-4.13-5.645,3.33Z" fill="#262261"/>
      <path id="Trazado_2344" data-name="Trazado 2344" d="M133.41,205.411l-.52-.032-7.314-3.7-5.032,2.968-.613.041v1.2l8.288,4.03,5.519-3.232v-1.205Z" fill="#8780bb"/>
      <path id="Trazado_2345" data-name="Trazado 2345" d="M128.218,208.716l5.52-3.232-8.163-4.128-5.645,3.331Z" fill="#262261"/>
      <path id="Trazado_2346" data-name="Trazado 2346" d="M147.1,212.153l-.516-.033-7.317-3.7-5.03,2.968-.616.04v1.205l8.288,4.029,5.519-3.231v-1.205Z" fill="#8780bb"/>
      <path id="Trazado_2347" data-name="Trazado 2347" d="M141.9,215.458l5.52-3.231-8.162-4.129-5.645,3.331Z" fill="#262261"/>
      <path id="Trazado_2348" data-name="Trazado 2348" d="M160.44,218.68l-.519-.034-7.315-3.7-5.032,2.968-.613.04v1.2l8.288,4.031,5.519-3.232v-1.2Z" fill="#8780bb"/>
      <path id="Trazado_2349" data-name="Trazado 2349" d="M155.249,221.985l5.52-3.231-8.163-4.13-5.644,3.33Z" fill="#262261"/>
      <path id="Trazado_2350" data-name="Trazado 2350" d="M173.44,225.163l-.517-.034-7.316-3.7-5.03,2.968-.616.042v1.205l8.289,4.031,5.52-3.232v-1.2Z" fill="#8780bb"/>
      <path id="Trazado_2351" data-name="Trazado 2351" d="M168.25,228.468l5.521-3.231-8.164-4.13-5.645,3.331Z" fill="#262261"/>
      <path id="Trazado_2352" data-name="Trazado 2352" d="M186.717,231.76l-.519-.034-7.317-3.7-5.029,2.968-.614.04v1.205l8.287,4.031,5.518-3.232v-1.2Z" fill="#8780bb"/>
      <path id="Trazado_2353" data-name="Trazado 2353" d="M181.525,235.065l5.519-3.231-8.163-4.13-5.642,3.33Z" fill="#262261"/>
      <path id="Trazado_2354" data-name="Trazado 2354" d="M200.062,238.182l-.519-.033-7.317-3.7-5.03,2.968-.613.041v1.206l8.289,4.029,5.515-3.231v-1.2Z" fill="#8780bb"/>
      <path id="Trazado_2355" data-name="Trazado 2355" d="M194.872,241.486l5.516-3.232-8.162-4.129-5.642,3.33Z" fill="#262261"/>
      <path id="Trazado_2356" data-name="Trazado 2356" d="M213.114,244.924l-.518-.033-7.316-3.7-5.032,2.968-.613.04V245.4l8.288,4.029,5.517-3.231V245Z" fill="#8780bb"/>
      <path id="Trazado_2357" data-name="Trazado 2357" d="M207.923,248.229,213.44,245l-8.161-4.128-5.645,3.33Z" fill="#262261"/>
      <path id="Trazado_2358" data-name="Trazado 2358" d="M98.591,197.534l-.52-.034-7.317-3.7-5.029,2.968-.615.041v1.206l8.287,4.03,5.519-3.231v-1.205Z" fill="#8780bb"/>
      <path id="Trazado_2359" data-name="Trazado 2359" d="M93.4,200.839l5.52-3.231-8.163-4.13-5.644,3.329Z" fill="#262261"/>
      <path id="Trazado_2360" data-name="Trazado 2360" d="M112.156,204.229l-.516-.034-7.319-3.7-5.031,2.968-.613.04v1.205l8.289,4.031,5.518-3.232V204.3Z" fill="#8780bb"/>
      <path id="Trazado_2361" data-name="Trazado 2361" d="M106.965,207.534l5.519-3.232-8.164-4.129-5.643,3.33Z" fill="#262261"/>
      <path id="Trazado_2362" data-name="Trazado 2362" d="M124.952,210.354l-.519-.034-7.314-3.7-5.032,2.969-.614.041v1.2l8.289,4.03,5.518-3.231v-1.205Z" fill="#8780bb"/>
      <path id="Trazado_2363" data-name="Trazado 2363" d="M119.761,213.659l5.519-3.231-8.162-4.13-5.645,3.33Z" fill="#262261"/>
      <path id="Trazado_2364" data-name="Trazado 2364" d="M138.638,217.1l-.517-.034-7.317-3.7-5.029,2.968-.616.041v1.205l8.288,4.031,5.519-3.232v-1.2Z" fill="#8780bb"/>
      <path id="Trazado_2365" data-name="Trazado 2365" d="M133.447,220.4l5.52-3.231-8.163-4.13-5.645,3.331Z" fill="#262261"/>
      <path id="Trazado_2366" data-name="Trazado 2366" d="M151.983,223.622l-.52-.033-7.314-3.7-5.032,2.968-.613.041V224.1l8.288,4.03,5.519-3.231V223.7Z" fill="#8780bb"/>
      <path id="Trazado_2367" data-name="Trazado 2367" d="M146.792,226.927l5.52-3.231-8.163-4.13L138.5,222.9Z" fill="#262261"/>
      <path id="Trazado_2368" data-name="Trazado 2368" d="M164.983,230.105l-.516-.034-7.317-3.7-5.03,2.968-.616.041v1.205l8.288,4.03,5.519-3.231v-1.205Z" fill="#8780bb"/>
      <path id="Trazado_2369" data-name="Trazado 2369" d="M159.792,233.41l5.52-3.231-8.162-4.13L151.5,229.38Z" fill="#262261"/>
      <path id="Trazado_2370" data-name="Trazado 2370" d="M178.26,236.7l-.519-.033-7.317-3.7-5.03,2.968-.613.041v1.205l8.288,4.031,5.518-3.232v-1.205Z" fill="#8780bb"/>
      <path id="Trazado_2371" data-name="Trazado 2371" d="M173.069,240.007l5.519-3.231-8.164-4.13-5.642,3.331Z" fill="#262261"/>
      <path id="Trazado_2372" data-name="Trazado 2372" d="M191.605,243.124l-.519-.033-7.317-3.7-5.03,2.968-.615.041V243.6l8.29,4.031,5.516-3.232v-1.2Z" fill="#8780bb"/>
      <path id="Trazado_2373" data-name="Trazado 2373" d="M186.414,246.43l5.517-3.231-8.162-4.13-5.645,3.329Z" fill="#262261"/>
      <path id="Trazado_2374" data-name="Trazado 2374" d="M204.657,249.867l-.52-.034-7.314-3.7-5.032,2.97-.613.04v1.2l8.287,4.031,5.52-3.232v-1.2Z" fill="#8780bb"/>
      <path id="Trazado_2375" data-name="Trazado 2375" d="M199.464,253.172l5.521-3.231-8.163-4.13-5.645,3.331Z" fill="#262261"/>
      <path id="Trazado_2376" data-name="Trazado 2376" d="M90.339,202.4l-.52-.034-7.317-3.7-5.029,2.968-.615.041v1.205l8.287,4.031,5.519-3.232v-1.205Z" fill="#8780bb"/>
      <path id="Trazado_2377" data-name="Trazado 2377" d="M85.144,205.705l5.52-3.231-8.163-4.13-5.644,3.331Z" fill="#262261"/>
      <path id="Trazado_2378" data-name="Trazado 2378" d="M103.389,209.143l-.519-.033-7.314-3.7-5.032,2.968-.614.041v1.205l8.289,4.03,5.518-3.231v-1.205Z" fill="#8780bb"/>
      <path id="Trazado_2379" data-name="Trazado 2379" d="M98.2,212.448l5.519-3.231-8.162-4.129-5.645,3.329Z" fill="#262261"/>
      <path id="Trazado_2380" data-name="Trazado 2380" d="M181.707,249.6l-.519-.032-7.317-3.7-5.031,2.969-.612.04v1.205l8.289,4.031,5.515-3.232v-1.205Z" fill="#8780bb"/>
      <path id="Trazado_2381" data-name="Trazado 2381" d="M176.516,252.9l5.516-3.231-8.162-4.13-5.642,3.331Z" fill="#262261"/>
      <path id="Trazado_2382" data-name="Trazado 2382" d="M194.759,256.341l-.518-.033-7.317-3.7-5.029,2.97-.615.04v1.2l8.287,4.029,5.519-3.231v-1.205Z" fill="#8780bb"/>
      <path id="Trazado_2383" data-name="Trazado 2383" d="M189.567,259.646l5.52-3.231-8.163-4.13-5.644,3.332Z" fill="#262261"/>
      <path id="Trazado_2384" data-name="Trazado 2384" d="M268.016,240.624l-.519-.033-7.317-3.7-5.03,2.968-.613.041V241.1l8.288,4.03,5.516-3.231V240.7Z" fill="#8780bb"/>
      <path id="Trazado_2385" data-name="Trazado 2385" d="M262.825,243.928l5.517-3.231-8.162-4.13-5.642,3.33Z" fill="#6237a0"/>
      <path id="Trazado_2386" data-name="Trazado 2386" d="M278.384,245.429l-.519-.034-7.317-3.7-5.029,2.968-.614.042v1.205l8.289,4.03,5.516-3.231v-1.2Z" fill="#8780bb"/>
      <path id="Trazado_2387" data-name="Trazado 2387" d="M273.194,248.733l5.517-3.231-8.163-4.13-5.642,3.33Z" fill="#6237a0"/>
      <path id="Trazado_2388" data-name="Trazado 2388" d="M288.751,250.232l-.516-.033-7.317-3.7-5.03,2.968-.616.041v1.2l8.289,4.03,5.518-3.231v-1.205Z" fill="#8780bb"/>
      <path id="Trazado_2389" data-name="Trazado 2389" d="M283.56,253.537l5.519-3.231-8.162-4.129-5.645,3.329Z" fill="#6237a0"/>
      <path id="Trazado_2390" data-name="Trazado 2390" d="M252.924,249.39l-.517-.034-7.317-3.7-5.032,2.968-.613.041v1.205l8.288,4.03,5.519-3.231v-1.205Z" fill="#8780bb"/>
      <path id="Trazado_2391" data-name="Trazado 2391" d="M247.733,252.695l5.52-3.232-8.163-4.129-5.645,3.33Z" fill="#6237a0"/>
      <path id="Trazado_2392" data-name="Trazado 2392" d="M263.295,254.194l-.521-.033-7.314-3.7-5.033,2.968-.611.041v1.2l8.287,4.03,5.518-3.231v-1.205Z" fill="#8780bb"/>
      <path id="Trazado_2393" data-name="Trazado 2393" d="M258.1,257.5l5.519-3.231-8.162-4.129-5.644,3.329Z" fill="#6237a0"/>
      <path id="Trazado_2394" data-name="Trazado 2394" d="M273.662,259l-.52-.034-7.314-3.7-5.032,2.968-.613.041v1.2l8.288,4.03,5.519-3.231v-1.2Z" fill="#8780bb"/>
      <path id="Trazado_2395" data-name="Trazado 2395" d="M268.47,262.3l5.52-3.231-8.163-4.13-5.645,3.33Z" fill="#6237a0"/>
      <path id="Trazado_2396" data-name="Trazado 2396" d="M245.147,254.054l-.516-.032-7.316-3.7-5.031,2.968-.616.042v1.2l8.288,4.03,5.519-3.232v-1.2Z" fill="#8780bb"/>
      <path id="Trazado_2397" data-name="Trazado 2397" d="M239.956,257.359l5.52-3.232L237.315,250l-5.646,3.332Z" fill="#6237a0"/>
      <path id="Trazado_2398" data-name="Trazado 2398" d="M255.516,258.859l-.517-.032-7.317-3.7-5.032,2.968-.613.04v1.2l8.288,4.031,5.518-3.232v-1.205Z" fill="#8780bb"/>
      <path id="Trazado_2399" data-name="Trazado 2399" d="M250.325,262.164l5.519-3.232-8.162-4.129-5.645,3.33Z" fill="#6237a0"/>
      <path id="Trazado_2400" data-name="Trazado 2400" d="M265.884,263.665l-.519-.034-7.315-3.7-5.032,2.968-.613.042v1.205l8.288,4.03,5.519-3.231v-1.2Z" fill="#8780bb"/>
      <path id="Trazado_2401" data-name="Trazado 2401" d="M260.693,266.969l5.52-3.232-8.163-4.129-5.644,3.33Z" fill="#6237a0"/>
      <path id="Trazado_2402" data-name="Trazado 2402" d="M237.526,258.5l-.519-.034-7.315-3.7-5.032,2.968-.613.042v1.2l8.288,4.031,5.519-3.232v-1.2Z" fill="#8780bb"/>
      <path id="Trazado_2403" data-name="Trazado 2403" d="M232.335,261.8l5.52-3.231-8.163-4.13-5.645,3.331Z" fill="#6237a0"/>
      <path id="Trazado_2404" data-name="Trazado 2404" d="M247.894,263.3l-.519-.033-7.317-3.7-5.029,2.968-.614.041v1.2l8.289,4.03,5.515-3.231v-1.2Z" fill="#8780bb"/>
      <path id="Trazado_2405" data-name="Trazado 2405" d="M242.7,266.607l5.516-3.231-8.162-4.129-5.642,3.329Z" fill="#6237a0"/>
      <path id="Trazado_2406" data-name="Trazado 2406" d="M258.263,268.107l-.519-.034-7.318-3.7L245.4,267.34l-.613.041v1.2l8.288,4.03,5.517-3.231v-1.2Z" fill="#8780bb"/>
      <path id="Trazado_2407" data-name="Trazado 2407" d="M253.072,271.412l5.518-3.232-8.164-4.129-5.642,3.33Z" fill="#6237a0"/>
      <path id="Trazado_2408" data-name="Trazado 2408" d="M230.058,262.78l-.52-.033-7.317-3.7-5.029,2.968-.613.04v1.2l8.288,4.029,5.519-3.231v-1.2Z" fill="#8780bb"/>
      <path id="Trazado_2409" data-name="Trazado 2409" d="M224.867,266.085l5.52-3.231-8.166-4.129-5.642,3.331Z" fill="#6237a0"/>
      <path id="Trazado_2410" data-name="Trazado 2410" d="M240.426,267.585l-.519-.033-7.317-3.7-5.03,2.968-.614.041v1.2l8.29,4.03,5.515-3.231v-1.2Z" fill="#8780bb"/>
      <path id="Trazado_2411" data-name="Trazado 2411" d="M235.236,270.89l5.516-3.231-8.162-4.13-5.644,3.331Z" fill="#6237a0"/>
      <path id="Trazado_2412" data-name="Trazado 2412" d="M250.8,272.39l-.52-.034-7.317-3.7-5.029,2.968-.614.042v1.205l8.289,4.03,5.516-3.231v-1.2Z" fill="#8780bb"/>
      <path id="Trazado_2413" data-name="Trazado 2413" d="M245.6,275.695l5.517-3.231-8.163-4.13-5.643,3.331Z" fill="#6237a0"/>
      <path id="Trazado_2414" data-name="Trazado 2414" d="M170.444,243.754l-.52-.033-62.644-32.16-5.03,2.968-.616.041v1.2l63.618,32.488,5.519-3.231-.051-1.834Z" fill="#8780bb"/>
      <path id="Trazado_2415" data-name="Trazado 2415" d="M165.252,247.059l5.52-3.231L107.28,211.24l-5.645,3.331Z" fill="#262261"/>
      <path id="Trazado_2416" data-name="Trazado 2416" d="M285.159,185.525a3.655,3.655,0,0,0,.516-.906c.055-.151.111-.3.154-.457l-.072-.241c-.014-.04-.028-.08-.038-.12L240.747,36a.883.883,0,0,0-.073-.111c-.009-.014-.012-.017-.02-.028l-.045-.038-.009,0a1.582,1.582,0,0,0-.351-.114l0-.005c-.022,0-.043,0-.065,0s-.061-.014-.092-.017l-.007.01a3.643,3.643,0,0,0-1.348.213l-11.669,5.187-.579,2.478,3.461,6.617-59.6,85.234,92.85,39.909,9.524,15.82,12.313-5.475c.038-.049.079-.094.115-.143" fill="#8b181b"/>
      <path id="Trazado_2417" data-name="Trazado 2417" d="M272.731,191.143,227.071,41.085,156.948,141.377Z" fill="#ec1c24"/>
      <path id="Trazado_2418" data-name="Trazado 2418" d="M223.292,55.565l36.719,120.673L166.9,136.218Zm.372-2.351-58.355,83.459,96.352,41.414Z" fill="#fff"/>
      <path id="Trazado_2419" data-name="Trazado 2419" d="M222.792,122.7a19.862,19.862,0,0,0,2.266-7.43c.97-8.416-.438-17.5-7.234-19.961-7.908-2.859-10.381,4.824-11.352,13.239a25.3,25.3,0,0,0,.489,8.624,3.857,3.857,0,0,0-1.718,3c-.279,2.431,1.017,4.952,2.9,5.633a2.626,2.626,0,0,0,1.466.113c.046,1.124.377,3.56,1.077,3.813a.929.929,0,0,0,.425.055,2.142,2.142,0,0,0,1.13,1.571.937.937,0,0,0,.407.056,1.593,1.593,0,0,0,.787.713.957.957,0,0,0,.866-.1,1.468,1.468,0,0,0,.653.516,1.113,1.113,0,0,0,1.3-.531,1.169,1.169,0,0,0,.19.089c.792.288,1.724-1.923,1.928-3.177a3.833,3.833,0,0,0,1.6,1.161c1.882.682,3.635-.738,3.914-3.168a6.092,6.092,0,0,0-1.1-4.213m-2.578-11.879c1.661-.207,2.72,3.258,2.411,5.949s-1.894,4.393-3.535,3.8-2.72-3.258-2.412-5.949,1.614-3.559,3.536-3.8m-5.04,7.7c.529.192.682.553.769,2.035.07,1.17.554,2.361-1.2,1.728-1.675-.607-1.118-1.47-.723-2.423.5-1.205.623-1.533,1.154-1.34M212.4,108a6.065,6.065,0,0,1,2.411,5.949c-.31,2.691-1.892,4.392-3.535,3.8s-2.72-3.256-2.409-5.947,2.033-5.082,3.533-3.8" fill="#fff"/>
      <path id="Trazado_2420" data-name="Trazado 2420" d="M232.13,122.833a1.911,1.911,0,0,0-.571-.321,4.447,4.447,0,0,0,.585-1.311c.558-2.034,0-4.481-1.25-5.467s-2.72-.134-3.279,1.9a6.553,6.553,0,0,0-.031,3.223l-3.762,2.077s1.2,1.494.741,4.63c0,0,2.223-.238,4.1-.525A4.636,4.636,0,0,0,230.1,130.2c1.251.985,2.718.135,3.277-1.9s0-4.481-1.25-5.466" fill="#fff"/>
      <path id="Trazado_2421" data-name="Trazado 2421" d="M198.444,110.648a1.591,1.591,0,0,1,.6.1,6.334,6.334,0,0,1-.247-1.61c-.065-2.261.992-4.123,2.36-4.161s2.529,1.761,2.6,4.021a5.605,5.605,0,0,1-.688,2.986l3,4.524s-1.436.54-1.707,3.743c0,0-1.992-1.761-3.661-3.333-.41,1.129-1.15,1.889-2.021,1.913-1.368.038-2.529-1.764-2.593-4.024s.991-4.123,2.361-4.162" fill="#fff"/>
      <path id="Trazado_2422" data-name="Trazado 2422" d="M226.394,145.41a6.1,6.1,0,0,0-.2-.941,1.537,1.537,0,0,0,1,.021c1.336-.423,2.179-2.567,1.882-4.786s-1.622-3.676-2.96-3.253a2.786,2.786,0,0,0-1.586,1.806l-5.721-7.507a4.634,4.634,0,0,1-1.79,3.633s3.867,6.52,5.175,8.85a5.878,5.878,0,0,0-.646,3.711c.3,2.221,1.624,3.676,2.96,3.252s2.18-2.567,1.885-4.786" fill="#fff"/>
      <path id="Trazado_2423" data-name="Trazado 2423" d="M198.58,135.351a3.859,3.859,0,0,1,.392-.727,2.238,2.238,0,0,1-.925-.674,6.014,6.014,0,0,1-.673-5.712c.767-1.834,2.309-2.254,3.444-.936a5.1,5.1,0,0,1,1.059,2.762l6.925-2.935a6.545,6.545,0,0,0,.841,4.588s-5,3.313-6.72,4.547a6.35,6.35,0,0,1-.229,3.861c-.763,1.837-2.306,2.256-3.442.937a6.013,6.013,0,0,1-.672-5.711" fill="#fff"/>
    </g>
  </g>
</svg>
