<svg id="Grupo_722" data-name="Grupo 722" xmlns="http://www.w3.org/2000/svg" xmlns:xlink="http://www.w3.org/1999/xlink" width="94.361" height="94.361" viewBox="0 0 94.361 94.361">
  <defs>
    <clipPath id="clip-path">
      <rect id="Rectángulo_503" data-name="Rectángulo 503" width="94.361" height="94.361" transform="translate(0 0)" fill="none"/>
    </clipPath>
  </defs>
  <g id="Grupo_721" data-name="Grupo 721" clip-path="url(#clip-path)">
    <path id="Trazado_2489" data-name="Trazado 2489" d="M91.838,37.941A18.216,18.216,0,0,1,73.626,56.154H16.945a14.48,14.48,0,0,1,0-28.96,14.2,14.2,0,0,1,5.438,1.061,21.172,21.172,0,0,1-.306-3.668,22.213,22.213,0,0,1,44.18-3.3A18.205,18.205,0,0,1,91.838,37.941" fill="#ffe227"/>
    <path id="Trazado_2490" data-name="Trazado 2490" d="M73.109,57.382H17.426C8.658,57.382,1.4,50.468,1.24,41.969a15.728,15.728,0,0,1,19.683-15.5c-.049-.614-.074-1.245-.074-1.884A23.442,23.442,0,0,1,67.2,19.6,19.443,19.443,0,0,1,93.046,38.887,19.683,19.683,0,0,1,73.109,57.382M16.946,28.422A13.253,13.253,0,0,0,3.7,41.924a13.566,13.566,0,0,0,13.729,13H73.109A17.23,17.23,0,0,0,90.591,38.771l1.227.057-1.227-.057A16.978,16.978,0,0,0,67.67,22.039a2.092,2.092,0,0,1-2.8-1.554,20.988,20.988,0,0,0-41.453,6.3,2.049,2.049,0,0,1-.735,1.8,2.092,2.092,0,0,1-1.938.39,13.118,13.118,0,0,0-3.8-.553" fill="#3e145e"/>
    <path id="Trazado_2491" data-name="Trazado 2491" d="M16,72.2h0a1.351,1.351,0,1,1-1.351,1.352A1.353,1.353,0,0,1,16,72.2m1.352,7.3h0A1.352,1.352,0,1,0,16,80.857a1.352,1.352,0,0,0,1.352-1.351m0,5.951h0A1.352,1.352,0,1,0,16,86.809a1.353,1.353,0,0,0,1.352-1.352m5.19-5.951h0a1.351,1.351,0,1,0-1.351,1.351,1.351,1.351,0,0,0,1.351-1.351m0,5.951h0a1.351,1.351,0,1,0-1.351,1.352,1.351,1.351,0,0,0,1.351-1.352m5.192,0h0a1.352,1.352,0,1,0-1.352,1.352,1.353,1.353,0,0,0,1.352-1.352m5.511,0h0a1.352,1.352,0,1,0-1.352,1.352,1.352,1.352,0,0,0,1.352-1.352m5.51,0h0a1.351,1.351,0,1,0-1.35,1.352,1.351,1.351,0,0,0,1.35-1.352m5.512,0h0a1.351,1.351,0,1,0-1.352,1.352,1.352,1.352,0,0,0,1.352-1.352" fill="#3e145e"/>
    <path id="Trazado_2492" data-name="Trazado 2492" d="M65.3,33.633V72.411a2.427,2.427,0,0,1-2.43,2.422H31.961a2.428,2.428,0,0,1-2.431-2.422V27.477A2.268,2.268,0,0,1,31.8,25.209H56.875c.017,0,.034.008.051.008a.514.514,0,0,1,.2.043c.026.009.052.018.077.025a.916.916,0,0,1,.222.146v.008l7.649,7.648a1,1,0,0,1,.153.222c.008.025.016.052.025.077a1.9,1.9,0,0,1,.043.2c0,.018.008.026.008.043" fill="#fff"/>
    <path id="Trazado_2493" data-name="Trazado 2493" d="M65.291,33.59h-7.5a.666.666,0,0,1-.665-.665V25.26l.077.025a.906.906,0,0,1,.222.146v.008l7.648,7.648a.974.974,0,0,1,.154.222c.007.025.016.052.025.077a1.9,1.9,0,0,1,.043.2" fill="#ffe227"/>
    <path id="Trazado_2494" data-name="Trazado 2494" d="M62.869,76.062H31.96a3.659,3.659,0,0,1-3.658-3.65V27.477a3.5,3.5,0,0,1,3.5-3.5H57.025L57.1,24a1.719,1.719,0,0,1,.442.107l.158.059a2.189,2.189,0,0,1,.529.341l.419.368v.056l7.288,7.288a2.175,2.175,0,0,1,.36.5l.141.366c.019.077.038.155.051.233l.034.1,0,.218V72.412a3.659,3.659,0,0,1-3.659,3.65M31.8,26.438a1.04,1.04,0,0,0-1.039,1.039V72.412a1.2,1.2,0,0,0,1.2,1.193H62.869a1.2,1.2,0,0,0,1.2-1.193V33.827l-7.388-7.389Z" fill="#3e145e"/>
    <path id="Trazado_2495" data-name="Trazado 2495" d="M65.3,34.821H57.79a1.9,1.9,0,0,1-1.9-1.9V25.26a1.229,1.229,0,0,1,2.457,0v7.1H65.3a1.229,1.229,0,0,1,0,2.458" fill="#3e145e"/>
    <path id="Trazado_2496" data-name="Trazado 2496" d="M47.152,48.409H37.184a1.229,1.229,0,0,1,0-2.457h9.968a1.229,1.229,0,1,1,0,2.457" fill="#3e145e"/>
    <path id="Trazado_2497" data-name="Trazado 2497" d="M47.152,55.153H37.184a1.229,1.229,0,0,1,0-2.458h9.968a1.229,1.229,0,1,1,0,2.458" fill="#3e145e"/>
    <path id="Trazado_2498" data-name="Trazado 2498" d="M50.494,41.532a15.235,15.235,0,0,0,9.93,28.609,14.885,14.885,0,0,0,3.19-1.1,14.606,14.606,0,0,0,2.87-1.8,15.232,15.232,0,0,0-15.99-25.71M61.242,64.063A9.727,9.727,0,1,1,65.833,51.1a9.728,9.728,0,0,1-4.591,12.967" fill="#ffe227"/>
    <path id="Trazado_2499" data-name="Trazado 2499" d="M61.243,64.066A9.726,9.726,0,1,1,65.834,51.1a9.734,9.734,0,0,1-4.591,12.965" fill="#fff"/>
    <path id="Trazado_2500" data-name="Trazado 2500" d="M57.11,71.747a16.606,16.606,0,0,1-14.918-9.375,16.465,16.465,0,1,1,25.053,5.835,15.4,15.4,0,0,1-3.109,1.939,16.315,16.315,0,0,1-7.026,1.6M57.028,41.28A14,14,0,0,0,44.411,61.314a14.1,14.1,0,0,0,15.741,7.633,13.534,13.534,0,0,0,2.926-1.019,13.042,13.042,0,0,0,2.638-1.645,14.06,14.06,0,0,0,3.98-17.03h0A14.026,14.026,0,0,0,57.028,41.28" fill="#3e145e"/>
    <path id="Trazado_2501" data-name="Trazado 2501" d="M57.061,66.249a10.966,10.966,0,1,1,4.712-1.074h0a10.927,10.927,0,0,1-4.71,1.073m4.181-2.183h0ZM57.053,46.784a8.5,8.5,0,1,0,2.841.491,8.444,8.444,0,0,0-2.841-.491" fill="#3e145e"/>
    <path id="Trazado_2502" data-name="Trazado 2502" d="M74.593,84.241l1.445,3.029a3.359,3.359,0,1,1-6.064,2.893l-1.445-3.028Z" fill="#ffe227"/>
    <path id="Trazado_2503" data-name="Trazado 2503" d="M73.015,93.308a4.6,4.6,0,0,1-4.15-2.616l-1.974-4.138L75.173,82.6l1.974,4.137a4.591,4.591,0,0,1-4.132,6.568m-2.848-5.6.916,1.921a2.133,2.133,0,0,0,2.838,1.01A2.145,2.145,0,0,0,74.929,87.8l-.915-1.92Z" fill="#3e145e"/>
    <path id="Trazado_2504" data-name="Trazado 2504" d="M66.484,67.242l8.109,17-6.064,2.894L60.423,70.141a14.893,14.893,0,0,0,3.191-1.1,14.606,14.606,0,0,0,2.87-1.8" fill="#fff"/>
    <path id="Trazado_2505" data-name="Trazado 2505" d="M67.95,88.772l-9.3-19.5,1.509-.335a13.8,13.8,0,0,0,2.928-1.015,13.477,13.477,0,0,0,2.629-1.642l1.21-.975,9.307,19.511ZM62.164,70.937,69.108,85.5l3.847-1.834L66.01,69.1a16.334,16.334,0,0,1-3.846,1.837" fill="#3e145e"/>
    <path id="Trazado_2506" data-name="Trazado 2506" d="M48.062,36.2H37.184a1.229,1.229,0,0,1,0-2.457H48.062a1.229,1.229,0,1,1,0,2.457" fill="#3e145e"/>
    <path id="Trazado_2507" data-name="Trazado 2507" d="M50.985,42.361h-13.8a1.229,1.229,0,0,1,0-2.457h13.8a1.229,1.229,0,1,1,0,2.457" fill="#3e145e"/>
    <path id="Trazado_2508" data-name="Trazado 2508" d="M57.287,54.274H47.749a1.228,1.228,0,1,1,0-2.457h9.538a1.228,1.228,0,1,1,0,2.457" fill="#3e145e"/>
    <path id="Trazado_2509" data-name="Trazado 2509" d="M55.068,60.067H48.045a1.229,1.229,0,1,1,0-2.457h7.023a1.229,1.229,0,1,1,0,2.457" fill="#3e145e"/>
    <path id="Trazado_2510" data-name="Trazado 2510" d="M40.267,65.7a1.542,1.542,0,1,0-1.541,1.541A1.541,1.541,0,0,0,40.267,65.7" fill="#3e145e"/>
  </g>
</svg>
