<svg id="Grupo_724" data-name="Grupo 724" xmlns="http://www.w3.org/2000/svg" xmlns:xlink="http://www.w3.org/1999/xlink" width="91.695" height="97.144" viewBox="0 0 91.695 97.144">
  <defs>
    <clipPath id="clip-path">
      <rect id="Rectángulo_516" data-name="Rectángulo 516" width="91.695" height="97.144" fill="none"/>
    </clipPath>
  </defs>
  <g id="Grupo_723" data-name="Grupo 723" clip-path="url(#clip-path)">
    <path id="Trazado_2511" data-name="Trazado 2511" d="M90.356,36.769a18.144,18.144,0,0,1-18.141,18.14H15.761a14.423,14.423,0,1,1,0-28.845,14.128,14.128,0,0,1,5.416,1.058,21.118,21.118,0,0,1-.3-3.654,22.124,22.124,0,0,1,44-3.285A18.132,18.132,0,0,1,90.356,36.769" fill="#ffe227"/>
    <path id="Trazado_2512" data-name="Trazado 2512" d="M71.7,56.248H16.239C7.444,56.248.159,49.31,0,40.784a15.781,15.781,0,0,1,19.593-15.59c-.04-.562-.061-1.14-.061-1.726A23.464,23.464,0,0,1,65.9,18.346a19.479,19.479,0,0,1,25.775,19.37A19.719,19.719,0,0,1,71.7,56.248M15.76,27.4A13.086,13.086,0,0,0,2.679,40.734a13.4,13.4,0,0,0,13.56,12.837H71.7A17.044,17.044,0,0,0,89,37.59,16.8,16.8,0,0,0,66.323,21.037a2.2,2.2,0,0,1-2.94-1.634,20.79,20.79,0,0,0-41.061,6.243,2.16,2.16,0,0,1-.772,1.892,2.194,2.194,0,0,1-2.036.411A12.967,12.967,0,0,0,15.76,27.4" fill="#3e145e"/>
    <rect id="Rectángulo_504" data-name="Rectángulo 504" width="58.644" height="10.988" transform="translate(16.972 43.907)" fill="#fff"/>
    <rect id="Rectángulo_505" data-name="Rectángulo 505" width="58.644" height="10.988" transform="translate(16.972 54.884)" fill="#fff"/>
    <rect id="Rectángulo_506" data-name="Rectángulo 506" width="58.644" height="10.988" transform="translate(16.972 65.862)" fill="#fff"/>
    <path id="Trazado_2513" data-name="Trazado 2513" d="M68.654,87.828H23.935a6.963,6.963,0,0,1-6.963-6.962V76.84H75.616v4.026a6.962,6.962,0,0,1-6.962,6.962" fill="#fff"/>
    <path id="Trazado_2514" data-name="Trazado 2514" d="M75.616,43.917H16.972V39.743a6.815,6.815,0,0,1,6.815-6.814H68.8a6.813,6.813,0,0,1,6.813,6.814Z" fill="#fff"/>
    <path id="Trazado_2515" data-name="Trazado 2515" d="M76.955,56.233H15.635V42.569h61.32ZM18.311,53.556H74.278V45.245H18.311Z" fill="#3e145e"/>
    <path id="Trazado_2516" data-name="Trazado 2516" d="M76.955,45.257H15.634V37.222a5.637,5.637,0,0,1,5.63-5.631H71.325a5.637,5.637,0,0,1,5.63,5.631ZM18.311,42.579H74.278V37.222a2.958,2.958,0,0,0-2.953-2.955H21.264a2.958,2.958,0,0,0-2.953,2.955Z" fill="#3e145e"/>
    <path id="Trazado_2517" data-name="Trazado 2517" d="M76.955,67.21H15.635V53.546h61.32ZM18.311,64.534H74.278V56.223H18.311Z" fill="#3e145e"/>
    <path id="Trazado_2518" data-name="Trazado 2518" d="M76.955,78.188H15.635V64.524h61.32ZM18.311,75.512H74.278V67.2H18.311Z" fill="#3e145e"/>
    <path id="Trazado_2519" data-name="Trazado 2519" d="M71.231,89.166H21.358a5.73,5.73,0,0,1-5.724-5.723V75.5H76.955v7.942a5.73,5.73,0,0,1-5.724,5.723M18.311,78.178v5.265a3.051,3.051,0,0,0,3.047,3.047H71.231a3.051,3.051,0,0,0,3.047-3.047V78.178Z" fill="#3e145e"/>
    <path id="Trazado_2520" data-name="Trazado 2520" d="M46.3,38.873A14.99,14.99,0,0,0,31.329,53.841V64.1h5.247V53.964a9.716,9.716,0,0,1,19.431,0V64.1h5.249V53.841A14.984,14.984,0,0,0,46.3,38.873" fill="#ffe227"/>
    <path id="Trazado_2521" data-name="Trazado 2521" d="M62.594,65.441H54.668V53.964a8.377,8.377,0,0,0-16.753,0V65.441H29.99v-11.6a16.3,16.3,0,1,1,32.6,0Zm-5.249-2.677h2.572V53.842a13.626,13.626,0,1,0-27.251,0v8.922h2.573v-8.8a11.053,11.053,0,0,1,22.106,0Z" fill="#3e145e"/>
    <path id="Trazado_2522" data-name="Trazado 2522" d="M66.662,67.489V92.421a3.383,3.383,0,0,1-3.386,3.385H29.316a3.382,3.382,0,0,1-3.385-3.385V67.489A3.383,3.383,0,0,1,29.316,64.1h33.96a3.383,3.383,0,0,1,3.386,3.386" fill="#ffe227"/>
    <path id="Trazado_2523" data-name="Trazado 2523" d="M63.277,97.144H29.317a4.73,4.73,0,0,1-4.725-4.724V67.489a4.731,4.731,0,0,1,4.725-4.725h33.96A4.731,4.731,0,0,1,68,67.489V92.42a4.73,4.73,0,0,1-4.724,4.724m-33.96-31.7a2.05,2.05,0,0,0-2.048,2.048V92.42a2.049,2.049,0,0,0,2.048,2.047h33.96a2.05,2.05,0,0,0,2.047-2.047V67.489a2.05,2.05,0,0,0-2.047-2.048Z" fill="#3e145e"/>
    <path id="Trazado_2524" data-name="Trazado 2524" d="M50.624,76.219a4.478,4.478,0,0,1-1.5,4.513,2.9,2.9,0,0,0-.985,2.257v2.256a1.84,1.84,0,0,1-3.68,0V82.994a2.937,2.937,0,0,0-1.014-2.278,4.457,4.457,0,1,1,7.179-4.5" fill="#3e145e"/>
    <rect id="Rectángulo_507" data-name="Rectángulo 507" width="2.511" height="2.511" transform="translate(41.361 23.097)" fill="#3e145e"/>
    <rect id="Rectángulo_508" data-name="Rectángulo 508" width="2.511" height="2.511" transform="translate(35.832 23.097)" fill="#3e145e"/>
    <rect id="Rectángulo_509" data-name="Rectángulo 509" width="2.511" height="2.511" transform="translate(41.361 18.275)" fill="#3e145e"/>
    <rect id="Rectángulo_510" data-name="Rectángulo 510" width="2.511" height="2.511" transform="translate(35.832 18.275)" fill="#3e145e"/>
    <rect id="Rectángulo_511" data-name="Rectángulo 511" width="2.511" height="2.511" transform="translate(41.361 13.452)" fill="#3e145e"/>
    <rect id="Rectángulo_512" data-name="Rectángulo 512" width="2.511" height="2.511" transform="translate(35.832 13.452)" fill="#3e145e"/>
    <rect id="Rectángulo_513" data-name="Rectángulo 513" width="2.511" height="2.511" transform="translate(46.834 23.097)" fill="#3e145e"/>
    <rect id="Rectángulo_514" data-name="Rectángulo 514" width="2.511" height="2.511" transform="translate(46.834 18.275)" fill="#3e145e"/>
    <rect id="Rectángulo_515" data-name="Rectángulo 515" width="2.511" height="2.511" transform="translate(46.834 13.452)" fill="#3e145e"/>
    <path id="Trazado_2525" data-name="Trazado 2525" d="M68.44,39.927a1.054,1.054,0,1,0-1.054,1.055,1.054,1.054,0,0,0,1.054-1.055" fill="#3e145e"/>
    <path id="Trazado_2526" data-name="Trazado 2526" d="M68.44,49.4a1.054,1.054,0,1,0-1.054,1.055A1.054,1.054,0,0,0,68.44,49.4" fill="#3e145e"/>
    <path id="Trazado_2527" data-name="Trazado 2527" d="M68.44,60.378a1.054,1.054,0,1,0-1.054,1.054,1.054,1.054,0,0,0,1.054-1.054" fill="#3e145e"/>
  </g>
</svg>
