<svg id="Grupo_211" data-name="Grupo 211" xmlns="http://www.w3.org/2000/svg" xmlns:xlink="http://www.w3.org/1999/xlink" width="945.68" height="323.545" viewBox="0 0 945.68 323.545">
  <defs>
    <clipPath id="clip-path">
      <rect id="Rectángulo_240" data-name="Rectángulo 240" width="945.68" height="323.545" fill="none"/>
    </clipPath>
    <clipPath id="clip-path-3">
      <rect id="Rectángulo_205" data-name="Rectángulo 205" width="43.29" height="35.939" transform="translate(627.9 287.071)" fill="none"/>
    </clipPath>
    <clipPath id="clip-path-4">
      <rect id="Rectángulo_206" data-name="Rectángulo 206" width="28.911" height="11.021" transform="translate(639.448 160.07)" fill="none"/>
    </clipPath>
    <clipPath id="clip-path-5">
      <rect id="Rectángulo_207" data-name="Rectángulo 207" width="24.593" height="20.253" transform="translate(622.696 237.545)" fill="none"/>
    </clipPath>
    <clipPath id="clip-path-6">
      <rect id="Rectángulo_236" data-name="Rectángulo 236" width="15.365" height="15.108" transform="translate(211.442 125.545)" fill="none"/>
    </clipPath>
    <clipPath id="clip-path-7">
      <rect id="Rectángulo_238" data-name="Rectángulo 238" width="12.912" height="12.703" transform="translate(308.7 240.685)" fill="none"/>
    </clipPath>
  </defs>
  <g id="Grupo_210" data-name="Grupo 210" clip-path="url(#clip-path)">
    <g id="Grupo_209" data-name="Grupo 209">
      <g id="Grupo_208" data-name="Grupo 208" clip-path="url(#clip-path)">
        <path id="Trazado_1258" data-name="Trazado 1258" d="M712.176,320.892c-19.334-11.842-24.995-35.646-25.566-57.317-.1-3.618-.722-7.4.8-10.67s5.4-5.677,8.727-4.352c2.757,1.1,4.113,4.149,5.768,6.637a21.16,21.16,0,0,0,8.955,7.576c2.371,1.054,5.258,1.611,7.453.223,3.009-1.906,3.117-6.23,2.878-9.82q-.669-10.034-1.337-20.066c-.239-3.589-.471-7.255.44-10.73s3.188-6.789,6.545-7.952,7.7.552,8.634,4.023a33.374,33.374,0,0,1,.372,4.464c.189,1.485.983,3.091,2.424,3.421,1.459.334,2.834-.77,3.843-1.885,3.488-3.849,5.72-8.671,7.79-13.457s4.064-9.678,7.188-13.835,7.586-7.572,12.71-8.173,10.795,2.242,12.4,7.211-1.034,10.3-4,14.589a80.3,80.3,0,0,1-15.727,16.912,6.613,6.613,0,0,0-2.61,3.17c-.635,2.441,1.777,4.681,4.187,5.325,2.73.73,5.617.277,8.437.437s5.926,1.213,7.145,3.795c1.692,3.581-1.145,7.613-4.013,10.315a68.8,68.8,0,0,1-19.61,12.955c-2.583,1.125-5.312,2.141-7.329,4.125s-3.109,5.289-1.67,7.74,4.792,3.064,7.527,2.383,5.121-2.331,7.7-3.484c4.822-2.161,11.213-2.2,14.631,1.869,2.246,2.677,2.665,6.569,1.816,9.974a26.227,26.227,0,0,1-4.907,9.2c-7.348,9.755-17.021,17.836-28.228,22.5s-21.746,6.374-33.373,2.9" fill="#f5f5f5"/>
        <path id="Trazado_1259" data-name="Trazado 1259" d="M716.941,307a322,322,0,0,1,10.681-35.407q1.657-4.627,3.276-9.138c1.082-3,2.155-5.969,3.384-8.809a160.747,160.747,0,0,1,8-15.925c2.789-4.943,5.616-9.531,8.291-13.8s5.262-8.2,7.764-11.679A127.7,127.7,0,0,1,771.352,196.7c1.675-1.708,3.017-2.989,3.939-3.846l1.053-.967a2.831,2.831,0,0,1,.375-.313,2.556,2.556,0,0,1-.328.362c-.251.253-.585.588-1.009,1.016-.89.888-2.2,2.2-3.847,3.93a135.064,135.064,0,0,0-12.82,15.63c-2.471,3.489-5.019,7.423-7.679,11.7s-5.458,8.872-8.227,13.809a162.849,162.849,0,0,0-7.931,15.88c-1.219,2.827-2.28,5.775-3.363,8.779s-2.166,6.05-3.271,9.133a330.236,330.236,0,0,0-10.71,35.323" fill="#e1e1e1"/>
        <path id="Trazado_1260" data-name="Trazado 1260" d="M734.469,253.606a7.322,7.322,0,0,1-.443-1.511c-.248-.981-.561-2.411-.921-4.184-.724-3.544-1.556-8.473-2.452-13.909s-1.8-10.343-2.572-13.867c-.383-1.762-.707-3.186-.943-4.168a7.22,7.22,0,0,1-.295-1.546,7.2,7.2,0,0,1,.542,1.478c.313.962.708,2.373,1.149,4.128.9,3.508,1.873,8.418,2.77,13.863l2.261,13.934c.282,1.675.521,3.086.714,4.219a7.071,7.071,0,0,1,.19,1.563" fill="#e1e1e1"/>
        <path id="Trazado_1261" data-name="Trazado 1261" d="M780.11,242.193a9.988,9.988,0,0,1-1.828.331c-1.178.178-2.884.424-4.982.8-4.2.711-9.968,1.9-16.274,3.484s-11.95,3.288-16,4.628c-2.03.656-3.657,1.232-4.784,1.622a10.028,10.028,0,0,1-1.776.551,9.869,9.869,0,0,1,1.684-.8c1.1-.465,2.71-1.109,4.726-1.825,4.019-1.459,9.663-3.226,15.987-4.83a163.011,163.011,0,0,1,16.361-3.3c2.114-.313,3.835-.49,5.027-.587a9.715,9.715,0,0,1,1.856-.073" fill="#e1e1e1"/>
        <path id="Trazado_1262" data-name="Trazado 1262" d="M717.458,306.115a2.326,2.326,0,0,1-.351-.544c-.24-.438-.534-.975-.89-1.623-.767-1.411-1.822-3.484-3.094-6.062-2.546-5.154-5.839-12.383-9.365-20.41s-6.75-15.281-9.185-20.48c-1.191-2.527-2.173-4.6-2.9-6.151l-.78-1.677a.326.326,0,1,1,.119-.062c.24.439.534.973.889,1.621.767,1.412,1.824,3.485,3.1,6.063,2.546,5.153,5.839,12.384,9.366,20.413s6.748,15.277,9.184,20.477l2.9,6.15c.313.671.57,1.225.781,1.679a2.407,2.407,0,0,1,.232.606" fill="#e1e1e1"/>
        <path id="Trazado_1263" data-name="Trazado 1263" d="M777.6,282.643a2.514,2.514,0,0,1-.594.287c-.469.191-1.047.423-1.745.705l-6.44,2.525c-5.438,2.133-12.914,5.167-21.171,8.528s-15.771,6.331-21.254,8.352c-2.741,1.012-4.967,1.808-6.517,2.327-.717.235-1.307.427-1.788.587a2.544,2.544,0,0,1-.638.161,2.465,2.465,0,0,1,.593-.289l1.745-.7,6.44-2.525c5.437-2.133,12.915-5.166,21.174-8.529s15.766-6.33,21.25-8.351c2.742-1.011,4.967-1.807,6.518-2.326l1.788-.587a2.407,2.407,0,0,1,.639-.161" fill="#e1e1e1"/>
        <path id="Trazado_1264" data-name="Trazado 1264" d="M721.775,74.768c-3.3,8.255-8.577,21.6-11,27.732a3.526,3.526,0,0,0,1.976,4.572l22.553,8.982a3.526,3.526,0,0,0,4.582-1.972l10.944-27.474a7.832,7.832,0,0,0-4.377-10.172l1.609-4.041-14.769-5.883-1.523,3.82-.055-.019a7.827,7.827,0,0,0-9.939,4.455" fill="#f5f5f5"/>
        <path id="Trazado_1265" data-name="Trazado 1265" d="M733.086,67.026l-.732,1.838,14.561,6.407.941-2.362Z" fill="#e1e1e1"/>
        <path id="Trazado_1266" data-name="Trazado 1266" d="M747.349,74.075l-14.635-5.828a1.933,1.933,0,0,1-1.079-2.509l1.1-2.759a2.991,2.991,0,0,1,3.886-1.672l12.664,5.044a2.991,2.991,0,0,1,1.672,3.886L749.858,73a1.93,1.93,0,0,1-2.509,1.079" fill="#ececec"/>
        <path id="Trazado_1267" data-name="Trazado 1267" d="M733.242,68.489a18.671,18.671,0,0,1,1.26-3.727,18.7,18.7,0,0,1,1.647-3.572,18.693,18.693,0,0,1-1.26,3.727,18.635,18.635,0,0,1-1.647,3.572" fill="#e1e1e1"/>
        <path id="Trazado_1268" data-name="Trazado 1268" d="M735.188,69.264a18.653,18.653,0,0,1,1.26-3.727,18.668,18.668,0,0,1,1.647-3.572,18.69,18.69,0,0,1-1.26,3.727,18.67,18.67,0,0,1-1.647,3.572" fill="#e1e1e1"/>
        <path id="Trazado_1269" data-name="Trazado 1269" d="M737.134,70.039a18.653,18.653,0,0,1,1.26-3.727,18.736,18.736,0,0,1,1.647-3.573,18.619,18.619,0,0,1-1.26,3.728,18.7,18.7,0,0,1-1.647,3.572" fill="#e1e1e1"/>
        <path id="Trazado_1270" data-name="Trazado 1270" d="M739.081,70.814a18.774,18.774,0,0,1,1.26-3.727,18.742,18.742,0,0,1,1.647-3.572,18.611,18.611,0,0,1-1.26,3.728,18.641,18.641,0,0,1-1.647,3.571" fill="#e1e1e1"/>
        <path id="Trazado_1271" data-name="Trazado 1271" d="M741.027,71.589a18.756,18.756,0,0,1,1.26-3.727,18.707,18.707,0,0,1,1.647-3.572,18.6,18.6,0,0,1-1.26,3.727,18.632,18.632,0,0,1-1.647,3.572" fill="#e1e1e1"/>
        <path id="Trazado_1272" data-name="Trazado 1272" d="M742.973,72.365a18.748,18.748,0,0,1,1.26-3.727,18.778,18.778,0,0,1,1.647-3.572,18.6,18.6,0,0,1-1.26,3.727,18.635,18.635,0,0,1-1.647,3.572" fill="#e1e1e1"/>
        <path id="Trazado_1273" data-name="Trazado 1273" d="M744.92,73.14a18.6,18.6,0,0,1,1.259-3.727,18.775,18.775,0,0,1,1.647-3.572,18.538,18.538,0,0,1-1.26,3.727,18.777,18.777,0,0,1-1.646,3.572" fill="#e1e1e1"/>
        <path id="Trazado_1274" data-name="Trazado 1274" d="M746.867,73.915a18.606,18.606,0,0,1,1.259-3.727,18.74,18.74,0,0,1,1.647-3.572,18.565,18.565,0,0,1-1.26,3.727,18.743,18.743,0,0,1-1.646,3.572" fill="#e1e1e1"/>
        <path id="Trazado_1275" data-name="Trazado 1275" d="M738.526,102.268l-18.408-7.331a1.482,1.482,0,0,1-.829-1.926l4.478-11.244a1.481,1.481,0,0,1,1.926-.828L744.1,88.27a1.481,1.481,0,0,1,.828,1.926l-4.477,11.244a1.481,1.481,0,0,1-1.926.828" fill="#ececec"/>
        <path id="Trazado_1276" data-name="Trazado 1276" d="M738.868,101.291a1.494,1.494,0,0,1,.076-.241c.066-.176.145-.393.243-.658.23-.6.543-1.432.939-2.472.832-2.146,2-5.168,3.428-8.842l.092.216-18.564-7.348c-.061.025.512-.221.268-.116v0l0,.006-.005.013-.01.025-.021.051-.04.1-.08.2-.161.4-.319.8-.634,1.589-1.239,3.1c-.814,2.03-1.6,3.986-2.342,5.846l-.107-.249,13.276,5.388,3.818,1.577,1.024.433a2.94,2.94,0,0,1,.361.168,1.9,1.9,0,0,1-.337-.11l-1.005-.375-3.816-1.464-13.463-5.261-.178-.069.07-.18c.738-1.862,1.514-3.821,2.319-5.855l1.233-3.1.632-1.589.319-.8.162-.4.08-.2.04-.1.02-.05.01-.026.005-.012,0-.006v0c-.242.1.331-.144.273-.117l18.532,7.426.157.063-.063.153-3.628,8.872-1,2.406-.265.617a.932.932,0,0,1-.1.195" fill="#e1e1e1"/>
        <path id="Trazado_1277" data-name="Trazado 1277" d="M739.27,91.929a55.553,55.553,0,0,1-6.379-2.315,55.035,55.035,0,0,1-6.226-2.706,111,111,0,0,1,12.605,5.021" fill="#e1e1e1"/>
        <path id="Trazado_1278" data-name="Trazado 1278" d="M738.418,94.073a55.574,55.574,0,0,1-6.38-2.316,55.464,55.464,0,0,1-6.226-2.705,110.62,110.62,0,0,1,12.606,5.021" fill="#e1e1e1"/>
        <path id="Trazado_1279" data-name="Trazado 1279" d="M737.6,96.131a55.355,55.355,0,0,1-6.38-2.316,55.074,55.074,0,0,1-6.225-2.705,55.355,55.355,0,0,1,6.379,2.317,55.8,55.8,0,0,1,6.226,2.7" fill="#e1e1e1"/>
        <path id="Trazado_1280" data-name="Trazado 1280" d="M745.658,75.972a65.713,65.713,0,0,1-6.956-2.546,65.8,65.8,0,0,1-6.8-2.933,65.535,65.535,0,0,1,6.957,2.545,66.094,66.094,0,0,1,6.8,2.934" fill="#e1e1e1"/>
        <path id="Trazado_1281" data-name="Trazado 1281" d="M712.626,101.394a9.21,9.21,0,0,1,.446-1.329l1.361-3.566c1.166-3,2.8-7.143,4.636-11.705.921-2.276,1.8-4.445,2.6-6.426a13.826,13.826,0,0,1,2.928-4.874A6.159,6.159,0,0,1,728,71.754a4.381,4.381,0,0,1,1.05,0,1.25,1.25,0,0,1,.356.085,8.789,8.789,0,0,0-1.382.08A6.218,6.218,0,0,0,724.8,73.7a13.966,13.966,0,0,0-2.78,4.809l-2.569,6.437c-1.832,4.561-3.513,8.683-4.749,11.659-.606,1.436-1.106,2.622-1.484,3.516a9.029,9.029,0,0,1-.6,1.269" fill="#fff"/>
        <path id="Trazado_1282" data-name="Trazado 1282" d="M737.971,115.9a5.867,5.867,0,0,1-.888-.718c-.273-.244-.61-.539-1.02-.858s-.854-.711-1.388-1.088a39.26,39.26,0,0,0-3.821-2.531,38.212,38.212,0,0,0-10.392-4.138,39.026,39.026,0,0,0-4.515-.787c-.647-.1-1.239-.119-1.756-.165s-.964-.068-1.33-.077a6.2,6.2,0,0,1-1.138-.089,5.9,5.9,0,0,1,1.14-.074c.368-.015.818-.021,1.34.007s1.12.028,1.774.1a34.492,34.492,0,0,1,4.572.707,35.74,35.74,0,0,1,10.5,4.181A34.393,34.393,0,0,1,734.855,113c.527.4.964.8,1.359,1.144s.722.652.979.916a6.009,6.009,0,0,1,.778.837" fill="#fff"/>
        <path id="Trazado_1283" data-name="Trazado 1283" d="M634.748,16.34c-.871-7.019-6.81-13.563-13.882-13.568a15.5,15.5,0,0,0-11,5.232,28.561,28.561,0,0,0-2.79,3.309,28.44,28.44,0,0,0-2.084-3.793,15.5,15.5,0,0,0-9.76-7.3c-6.934-1.388-14.044,3.86-16.28,10.57s-.374,14.244,3.3,20.287,10.007,13.942,21.667,17.862c8.04-1.031,18.808-8.163,23.6-13.363s8.1-12.221,7.23-19.24" fill="#ff4f5b"/>
        <path id="Trazado_1284" data-name="Trazado 1284" d="M632.2,28.947a.807.807,0,0,1-.234,0l-.682-.044-2.618-.215-9.62-.881.174-.106c-1.161,3.023-2.519,6.564-4.008,10.448l-.242.63-.159-.657c-1.22-5.071-2.589-10.751-4.031-16.738l-1.3-5.458.407.081c-2.615,3.595-5.088,7-7.342,10.095l-.07.1-.119-.013-16.9-1.763-4.784-.535-1.265-.157a2.143,2.143,0,0,1-.432-.077,2.084,2.084,0,0,1,.439.01l1.271.094,4.795.418,16.918,1.6-.188.085c2.244-3.107,4.706-6.517,7.309-10.12l.291-.4.116.484c.426,1.78.864,3.6,1.309,5.457,1.427,5.989,2.782,11.674,3.991,16.747l-.4-.027c1.519-3.872,2.9-7.4,4.086-10.418l.047-.12.126.013,9.6,1.031,2.61.3.677.092a.921.921,0,0,1,.229.047" fill="#fafafa"/>
        <rect id="Rectángulo_203" data-name="Rectángulo 203" width="5.293" height="23.717" transform="translate(573.337 72.273)" fill="#ff4f5b"/>
        <rect id="Rectángulo_204" data-name="Rectángulo 204" width="23.717" height="5.293" transform="translate(564.125 81.485)" fill="#ff4f5b"/>
        <path id="Trazado_1285" data-name="Trazado 1285" d="M595.681,84.188a1.732,1.732,0,0,1-.038-.319c-.017-.232-.039-.542-.067-.938q-.021-.312-.045-.69c-.029-.253-.083-.527-.129-.824a14.64,14.64,0,0,0-.418-2.037,18.89,18.89,0,0,0-2.2-5.228A19.6,19.6,0,0,0,569.243,65.8a18,18,0,0,0-4.952,2.666,17.946,17.946,0,0,0-4.135,4.157,18.959,18.959,0,0,0-2.8,5.389,19.4,19.4,0,0,0,0,12.346,18.952,18.952,0,0,0,2.8,5.392,17.947,17.947,0,0,0,4.135,4.157,17.959,17.959,0,0,0,4.953,2.667,19.647,19.647,0,0,0,23.543-8.352,18.878,18.878,0,0,0,2.2-5.228,14.629,14.629,0,0,0,.418-2.036c.046-.3.1-.571.129-.824s.031-.482.045-.69c.028-.4.05-.706.067-.937a1.736,1.736,0,0,1,.038-.32,1.809,1.809,0,0,1,0,.32c-.007.233-.016.544-.026.943q-.012.314-.026.694c-.021.255-.07.531-.109.832a14.027,14.027,0,0,1-.383,2.057,18.723,18.723,0,0,1-2.154,5.308,19.9,19.9,0,0,1-13.395,9.435,19.978,19.978,0,0,1-10.481-.841,18.288,18.288,0,0,1-5.058-2.708,18.213,18.213,0,0,1-4.229-4.235,19.358,19.358,0,0,1-2.861-5.5,19.789,19.789,0,0,1,0-12.608,19.31,19.31,0,0,1,2.861-5.5,18.228,18.228,0,0,1,4.227-4.234,18.32,18.32,0,0,1,5.058-2.707,19.974,19.974,0,0,1,10.48-.841,19.905,19.905,0,0,1,13.4,9.434,18.72,18.72,0,0,1,2.154,5.308,13.939,13.939,0,0,1,.384,2.058c.039.3.088.577.109.832s.018.485.026.694c.01.4.019.71.026.943a1.809,1.809,0,0,1,0,.32" fill="#ff4f5b"/>
        <path id="Trazado_1286" data-name="Trazado 1286" d="M686.476,83.491c.1-3.492-3.13-6.19-6.38-7.469s-6.863-1.761-9.761-3.712c-2.566-1.726-4.29-4.421-6.463-6.622a21.5,21.5,0,0,0-36.162,9.866c-1.248,4.972-.4,10.851,3.525,14.156,4.549,3.835,11.294,2.983,17.123,1.791s12.427-2.37,17.294,1.053c2.935,2.064,4.617,5.422,6.412,8.531s4.046,6.28,7.438,7.449,8-.85,8.133-4.436" fill="#1a2e35"/>
        <path id="Trazado_1287" data-name="Trazado 1287" d="M686.241,85.407c-.384,2.927,1.734,5.547,3.843,7.613s4.489,4.258,4.862,7.186c.435,3.421-2.062,6.789-1.338,10.16.459,2.14,2.123,3.788,3.133,5.73a12.177,12.177,0,0,1,.621,8.973c-.868,2.947-2.253,9.53-4.3,11.82a47.308,47.308,0,0,1-22.969,13.7c-8.284,1.9-16.886,1.914-25.369,1.392-6.943-.428-14.928-.108-20.714-9.661-3-4.948-4.482-11.526-6.076-17.088-1.371-4.788-2.557-9.916-1.131-14.687.831-2.782,2.5-5.253,3.323-8.038,1.022-3.477.65-7.2,1.061-10.8a24.777,24.777,0,0,1,35.251-19.564" fill="#1a2e35"/>
        <path id="Trazado_1288" data-name="Trazado 1288" d="M624.507,97.407c.65-9.965,7.28-22.178,17.208-21.1l30.991,7.906a5.843,5.843,0,0,1,5.215,5.937l-3.484,74.766.215.047S667.588,186.046,647.1,179.6c-4.064-1.277-5.919-5.722-6.725-10.294l-.21.027c-.008-.543-.014-1.048-.021-1.567a48.911,48.911,0,0,1-.122-10.266c-.058-6.036-.051-8.512-.055-8.456,0,0-12.727-2.142-15.329-18.76-1.294-8.265-.849-21.81-.127-32.88" fill="#ffc09d"/>
        <path id="Trazado_1289" data-name="Trazado 1289" d="M629.5,107.418a2.13,2.13,0,0,0,2.049,2.154,2.038,2.038,0,0,0,2.2-1.916A2.131,2.131,0,0,0,631.7,105.5a2.038,2.038,0,0,0-2.2,1.917" fill="#1a2e35"/>
        <path id="Trazado_1290" data-name="Trazado 1290" d="M627.43,104.459c.264.278,1.881-.912,4.173-.9,2.29-.022,3.971,1.162,4.22.881.123-.124-.146-.626-.877-1.161a5.846,5.846,0,0,0-3.377-1.049,5.617,5.617,0,0,0-3.323,1.064c-.706.539-.946,1.042-.816,1.166" fill="#1a2e35"/>
        <path id="Trazado_1291" data-name="Trazado 1291" d="M652.034,107.418a2.131,2.131,0,0,0,2.05,2.154,2.039,2.039,0,0,0,2.2-1.916,2.131,2.131,0,0,0-2.048-2.155,2.038,2.038,0,0,0-2.2,1.917" fill="#1a2e35"/>
        <path id="Trazado_1292" data-name="Trazado 1292" d="M649.964,104.937c.265.279,1.883-.912,4.174-.9,2.29-.023,3.97,1.161,4.22.88.121-.124-.144-.626-.878-1.161a5.849,5.849,0,0,0-3.376-1.049,5.62,5.62,0,0,0-3.324,1.064c-.7.54-.945,1.042-.816,1.166" fill="#1a2e35"/>
        <path id="Trazado_1293" data-name="Trazado 1293" d="M641.607,121.921a15.133,15.133,0,0,0-3.723-.681c-.585-.061-1.138-.178-1.236-.579a2.975,2.975,0,0,1,.4-1.734q.829-2.123,1.741-4.453c2.418-6.342,4.17-11.557,3.914-11.653s-2.425,4.968-4.843,11.31q-.873,2.345-1.668,4.48a3.383,3.383,0,0,0-.309,2.3,1.468,1.468,0,0,0,.96.859,3.991,3.991,0,0,0,.995.14,14.959,14.959,0,0,0,3.774.014" fill="#1a2e35"/>
        <path id="Trazado_1294" data-name="Trazado 1294" d="M639.964,149.046a42.253,42.253,0,0,0,22.26-5.885s-5.619,11.488-22.242,9.9Z" fill="#ff9b6c"/>
        <path id="Trazado_1295" data-name="Trazado 1295" d="M642.564,127.449a4.126,4.126,0,0,1,3.707-1.526,3.771,3.771,0,0,1,2.6,1.4,2.389,2.389,0,0,1,.174,2.733,2.767,2.767,0,0,1-3.006.753,8.652,8.652,0,0,1-2.926-1.755,2.54,2.54,0,0,1-.654-.679.768.768,0,0,1,.005-.854" fill="#ff9b6c"/>
        <path id="Trazado_1296" data-name="Trazado 1296" d="M648.35,123.522c-.373-.022-.383,2.466-2.517,4.228s-4.782,1.481-4.8,1.829c-.035.156.59.485,1.709.517a6.182,6.182,0,0,0,4.008-1.387,5.394,5.394,0,0,0,1.952-3.544c.1-1.04-.18-1.658-.35-1.643" fill="#1a2e35"/>
        <path id="Trazado_1297" data-name="Trazado 1297" d="M648.942,100.921c.225.623,2.515.333,5.2.663,2.7.276,4.863,1.068,5.222.51.16-.267-.217-.854-1.093-1.459a9.117,9.117,0,0,0-7.941-.9c-.99.4-1.487.885-1.391,1.181" fill="#1a2e35"/>
        <path id="Trazado_1298" data-name="Trazado 1298" d="M628.288,97.827c.4.521,1.983-.016,3.882-.037,1.9-.087,3.507.358,3.878-.186.163-.264-.089-.786-.79-1.281a5.622,5.622,0,0,0-6.253.18c-.672.534-.894,1.069-.717,1.324" fill="#1a2e35"/>
        <path id="Trazado_1299" data-name="Trazado 1299" d="M684.306,138.862a14.751,14.751,0,0,1-17.549-16.312c.517-4.081,2.716-8.232,1.3-12.093-1.87-5.106-9.027-6.677-10.927-11.772-1.1-2.961-.112-6.425-1.364-9.327-1.176-2.728-4.047-4.3-6.842-5.31s-5.791-1.708-8.137-3.532-3.809-5.265-2.3-7.823a157.386,157.386,0,0,1,36.3,8.82c2.711,1.013,5.56,2.23,7.162,4.639,1.7,2.55,1.615,5.845,1.472,8.9q-1.043,22.375-2.088,44.749" fill="#1a2e35"/>
        <path id="Trazado_1300" data-name="Trazado 1300" d="M683.264,144.574a1.039,1.039,0,0,0,.268-.172c.2-.153.444-.339.739-.562.642-.5,1.587-1.252,2.752-2.281a29.259,29.259,0,0,0,3.906-4.11,15.324,15.324,0,0,0,3.106-6.838,10.4,10.4,0,0,0-2.142-8.741,33.61,33.61,0,0,0-3.871-3.3A9.03,9.03,0,0,1,685,114.452c-1.229-3.387-.681-7.308-1.156-11.316a22.52,22.52,0,0,0-4.709-11.446,15.539,15.539,0,0,0-4.927-4.026A30.423,30.423,0,0,0,668.4,85.7a13.517,13.517,0,0,1-5.1-2.514,20.026,20.026,0,0,1-3.7-4.083c-2.086-2.963-3.629-6.121-5.617-8.755a19.028,19.028,0,0,0-3.274-3.475,12.5,12.5,0,0,0-3.88-2.113,8.266,8.266,0,0,0-7.378.735,6.791,6.791,0,0,0-2.621,4.973,4.949,4.949,0,0,0,1,3.421,3.073,3.073,0,0,0,.676.649c.169.127.258.186.266.176s-.067-.09-.218-.234a3.6,3.6,0,0,1-.607-.68,4.917,4.917,0,0,1-.833-3.313,6.531,6.531,0,0,1,2.574-4.66,7.86,7.86,0,0,1,6.976-.578,12.042,12.042,0,0,1,3.692,2.063,18.576,18.576,0,0,1,3.141,3.4c1.926,2.591,3.439,5.741,5.554,8.783a20.6,20.6,0,0,0,3.815,4.237,14.2,14.2,0,0,0,5.337,2.657,30.06,30.06,0,0,1,5.683,1.923,14.864,14.864,0,0,1,4.7,3.844,21.91,21.91,0,0,1,4.562,11.071c.483,3.874-.077,7.855,1.233,11.457a9.687,9.687,0,0,0,3.243,4.382,33.948,33.948,0,0,1,3.828,3.209,9.889,9.889,0,0,1,2.085,8.255,15.049,15.049,0,0,1-2.924,6.677,30.46,30.46,0,0,1-3.771,4.144c-1.129,1.055-2.043,1.837-2.654,2.377a7.9,7.9,0,0,0-.913.848" fill="#375a64"/>
        <path id="Trazado_1301" data-name="Trazado 1301" d="M686.3,146.634c3.414-3.3,9.248-.432,12.114,3.356s4.9,8.669,9.248,10.575,10.009.266,13.66,3.3c5.036,4.183,2.208,13.876,7.652,17.512,2.162,1.444,5.011,1.392,7.321,2.583,5.442,2.806,5.378,10.485,4.537,16.551-1.18,8.513-2.474,17.337-7.172,24.533s-13.841,12.261-21.974,9.484c-7.817-2.668-11.828-11.1-15.007-18.725q-6.6-15.819-13.2-31.639c-2.544-6.1-5.115-12.294-5.943-18.852s.286-13.641,4.456-18.769" fill="#1a2e35"/>
        <path id="Trazado_1302" data-name="Trazado 1302" d="M688.487,139.36c2.481-.3,4.375,2.741,3.722,5.154s-2.97,4.024-5.33,4.848a7.951,7.951,0,0,1-4.118.476,4.057,4.057,0,0,1-3.117-2.508,2.359,2.359,0,0,1,1.141-3.116c1.633-1.021,2.59-1.824,3.878-2.534,1.97-1.087,1.853-1.233,3.824-2.32" fill="#ff4f5b"/>
        <path id="Trazado_1303" data-name="Trazado 1303" d="M631.39,166.092l9.64-7.3,36.314-2.321,1.461,4.87L666.993,235.05l9.319,87.943H625.648Z" fill="#ff4f5b"/>
        <g id="Grupo_195" data-name="Grupo 195" opacity="0.3">
          <g id="Grupo_194" data-name="Grupo 194">
            <g id="Grupo_193" data-name="Grupo 193" clip-path="url(#clip-path-3)">
              <path id="Trazado_1304" data-name="Trazado 1304" d="M670.275,291.794c-1.158-1.237-3.059-2.939-4.753-2.977-12.13-.266-24.521-1.479-36.651-1.747l-.971,35.94c2.9-5.115,5.647-10.439,6.412-16.271.334-2.548.762-5.591,3.087-6.682a6.948,6.948,0,0,1,4.283-.094c4.381.866,8.735,2,13.192,2.274s9.124-.372,12.868-2.807a7.87,7.87,0,0,0,3.078-3.325,4.074,4.074,0,0,0-.545-4.311"/>
            </g>
          </g>
        </g>
        <path id="Trazado_1305" data-name="Trazado 1305" d="M639.246,167.579l-1.123-10.54a3.343,3.343,0,0,1,3.022-3.682l33.432-3.021a1.579,1.579,0,0,1,1.72,1.524l.377,12.54-9.681,16.427-9.951,3.167H644.875l-7-7.474Z" fill="#ff4f5b"/>
        <path id="Trazado_1306" data-name="Trazado 1306" d="M671.738,160.378c-.007.034-.479-.05-1.337-.137a23.547,23.547,0,0,0-3.643-.062,36.053,36.053,0,0,0-5.353.77c-2,.419-4.167,1.008-6.466,1.567a42.472,42.472,0,0,1-6.582,1.172,16.959,16.959,0,0,1-5.457-.369,11.544,11.544,0,0,1-3.405-1.415,8.312,8.312,0,0,1-.815-.588c-.173-.148-.26-.232-.252-.243.023-.029.4.269,1.15.692a12.534,12.534,0,0,0,3.389,1.267,17.455,17.455,0,0,0,5.358.273,44.9,44.9,0,0,0,6.516-1.195c2.292-.557,4.471-1.135,6.487-1.537a33.288,33.288,0,0,1,5.416-.689,19.846,19.846,0,0,1,3.678.2c.429.07.76.134.982.193a1.059,1.059,0,0,1,.334.105" fill="#1a2e35"/>
        <g id="Grupo_198" data-name="Grupo 198" opacity="0.3">
          <g id="Grupo_197" data-name="Grupo 197">
            <g id="Grupo_196" data-name="Grupo 196" clip-path="url(#clip-path-4)">
              <path id="Trazado_1307" data-name="Trazado 1307" d="M640.044,162.035c-.9,2.46-.921,5.509.9,7.395a6.519,6.519,0,0,0,5.95,1.5,18.9,18.9,0,0,0,5.81-2.61c4.6-2.739,9.28-5.575,14.507-6.736a1.9,1.9,0,0,0,.94-.392.62.62,0,0,0,.03-.9.859.859,0,0,0-.433-.124c-4.624-.464-9.215.844-13.749,1.861s-9.375,1.738-13.746.161"/>
            </g>
          </g>
        </g>
        <path id="Trazado_1308" data-name="Trazado 1308" d="M646.429,153.018a3.065,3.065,0,0,0-1.144,1.093c-.527.847-.5,2.286-.457,3.842.086,3.12.6,5.613.479,5.638a5.538,5.538,0,0,1-.452-1.612,24.792,24.792,0,0,1-.444-4.014,18.509,18.509,0,0,1,.045-2.234,3.934,3.934,0,0,1,.578-1.776,2.311,2.311,0,0,1,.944-.838c.276-.123.446-.122.451-.1" fill="#1a2e35"/>
        <path id="Trazado_1309" data-name="Trazado 1309" d="M655.263,162.181a49.392,49.392,0,0,0-.239-5.1,49.52,49.52,0,0,0-1.19-4.968,4.388,4.388,0,0,1,.685,1.358,16.39,16.39,0,0,1,1.023,7.219,4.375,4.375,0,0,1-.279,1.494" fill="#1a2e35"/>
        <path id="Trazado_1310" data-name="Trazado 1310" d="M666.025,151.226a3.2,3.2,0,0,1,.638,1.241,8.642,8.642,0,0,1-.439,6.6,3.176,3.176,0,0,1-.8,1.145,11.044,11.044,0,0,0,.6-8.986" fill="#1a2e35"/>
        <path id="Trazado_1311" data-name="Trazado 1311" d="M619.152,170.833s-11.4,7.633-14.392,21.42c-2.354,10.838-8.8,68.081-8.8,68.081l-11.291,21.984,7.372,17.537a26.922,26.922,0,0,0,17.713-5.063l4.962-3.6,9.1-13.5Z" fill="#ececec"/>
        <path id="Trazado_1312" data-name="Trazado 1312" d="M638.475,160.724l-19.323,10.109-4.56,14.986-4.064,43.433,7.65,50.922L604.76,322.838l23.14.172.55-25.01,2.31-80.955,2.27-51.569Z" fill="#ececec"/>
        <path id="Trazado_1313" data-name="Trazado 1313" d="M629.117,228.207a4.334,4.334,0,0,1-.358-.6q-.357-.655-.961-1.772c-.4-.779-.788-1.78-1.29-2.919-.238-.575-.433-1.212-.671-1.876s-.49-1.367-.683-2.127a80.07,80.07,0,0,1-2.769-24.218c.025-.74.053-1.472.1-2.2l.009-.126.118-.05L626,190.894l-.049.35-3.377-2.715-.07-.056,0-.082a29.432,29.432,0,0,1,1.539-9.663c.851-2.827,1.782-5.262,2.6-7.264s1.528-3.567,2.036-4.63c.254-.532.455-.94.6-1.212a2.252,2.252,0,0,1,.232-.4,2.481,2.481,0,0,1-.17.434c-.136.313-.314.723-.537,1.239-.469,1.079-1.143,2.658-1.927,4.667s-1.68,4.449-2.5,7.267a29.512,29.512,0,0,0-1.469,9.534l-.073-.139,3.385,2.7.269.216-.318.134-3.38,1.426.127-.176c-.049.715-.077,1.447-.1,2.182a82.793,82.793,0,0,0,2.635,24.124c.184.758.432,1.457.652,2.124s.411,1.3.637,1.877c.479,1.14.842,2.146,1.218,2.932l.888,1.8a4.383,4.383,0,0,1,.285.644" fill="#1a2e35"/>
        <path id="Trazado_1314" data-name="Trazado 1314" d="M613.957,258.622a3.745,3.745,0,0,1-.187-.629c-.114-.453-.265-1.06-.457-1.822-.2-.791-.428-1.763-.652-2.9s-.518-2.424-.748-3.866c-.252-1.437-.521-3.013-.738-4.716-.258-1.7-.435-3.522-.64-5.442-.347-3.843-.58-8.084-.584-12.539.021-4.457.27-8.7.631-12.541.212-1.918.4-3.743.66-5.44.224-1.7.5-3.277.756-4.713.234-1.441.53-2.728.763-3.863s.46-2.107.663-2.9c.193-.761.347-1.366.463-1.819a3.626,3.626,0,0,1,.189-.628,3.83,3.83,0,0,1-.107.647q-.145.686-.387,1.836c-.178.8-.388,1.77-.593,2.908s-.485,2.427-.7,3.867c-.239,1.437-.5,3.01-.7,4.71-.249,1.694-.419,3.516-.62,5.429-.34,3.835-.576,8.063-.6,12.506,0,4.441.225,8.669.55,12.5.194,1.914.357,3.736.6,5.43.2,1.7.452,3.276.686,4.712.209,1.442.479,2.732.686,3.871s.406,2.114.582,2.91q.237,1.152.379,1.838a3.768,3.768,0,0,1,.1.648" fill="#1a2e35"/>
        <path id="Trazado_1315" data-name="Trazado 1315" d="M619.182,297.724a8.716,8.716,0,0,1-.938,1.943,31.719,31.719,0,0,1-6.583,8.036,8.635,8.635,0,0,1-1.72,1.3,14.911,14.911,0,0,1,1.52-1.519,43.957,43.957,0,0,0,6.531-7.972,14.978,14.978,0,0,1,1.19-1.79" fill="#1a2e35"/>
        <path id="Trazado_1316" data-name="Trazado 1316" d="M707.976,169.594a26.592,26.592,0,0,1,16.337,18.916c6.318,27.866,17.136,64.931,17.306,76.889.215,15.23-6.444,25.656-15.137,27.578-6.875,1.52-69.192-1.891-69.192-1.891l-2.915-23.218,50.463-7.429-6.91-38.611,6.84-53.476Z" fill="#ececec"/>
        <path id="Trazado_1317" data-name="Trazado 1317" d="M704.768,168.352l-13.953-5.7-14.71-8.618-.093,2.52a14.765,14.765,0,0,1,1.75,10.226l-12.24,63.857L668.3,277.29l5.7,45.72h44.254L697.928,275.2l7.174-64.432Z" fill="#ececec"/>
        <path id="Trazado_1318" data-name="Trazado 1318" d="M717.693,293.368a1.675,1.675,0,0,1-.3.042l-.89.085c-.787.086-1.949.078-3.451.117-3,.015-7.362-.065-12.784-.242-10.845-.362-25.946-1.088-42.989-2.076l-.172-.01-.021-.171c-.348-2.766-.714-5.684-1.087-8.645-.627-5.011-1.239-9.9-1.825-14.574l-.024-.2.2-.028,38.535-5.6,11.314-1.6c1.31-.179,2.328-.317,3.041-.413.333-.042.593-.075.788-.1a1.515,1.515,0,0,1,.27-.021,1.575,1.575,0,0,1-.265.057l-.782.134-3.031.481c-2.664.407-6.5.994-11.3,1.725l-38.513,5.745.173-.226c.588,4.676,1.2,9.561,1.833,14.572.371,2.961.737,5.879,1.084,8.645l-.194-.18c17.04,1,32.137,1.776,42.975,2.213,5.42.212,9.774.336,12.774.368,1.5-.016,2.663.016,3.445-.044l.891-.047a1.685,1.685,0,0,1,.306,0" fill="#1a2e35"/>
        <path id="Trazado_1319" data-name="Trazado 1319" d="M697.524,217.927a1.77,1.77,0,0,1,.108.429c.066.329.146.737.244,1.236.208,1.136.491,2.68.835,4.562.681,3.91,1.6,9.211,2.625,15.07.978,5.868,1.863,11.177,2.515,15.093.3,1.889.538,3.44.716,4.581.07.5.128.917.175,1.249a.222.222,0,1,1-.083.014c-.068-.329-.151-.737-.252-1.236-.211-1.135-.5-2.679-.847-4.559-.7-3.853-1.631-9.181-2.636-15.072s-1.888-11.224-2.5-15.092c-.291-1.89-.529-3.442-.7-4.583l-.166-1.252a1.662,1.662,0,0,1-.025-.44" fill="#1a2e35"/>
        <path id="Trazado_1320" data-name="Trazado 1320" d="M682.523,158.529a.6.6,0,0,1,.056.155c.035.126.077.28.129.466.1.413.282,1.019.447,1.817a57.02,57.02,0,0,1,1.064,6.872,77.975,77.975,0,0,1,.266,10.485c-.137,3.985-.559,8.393-1.16,13.064l-.02.148-.147.027-4.561.847.155-.281c.26.7.53,1.453.739,2.232a28.438,28.438,0,0,1-.522,15.48,48.765,48.765,0,0,1-5.358,11.544c-1.9,3.089-3.626,5.465-4.809,7.108q-.879,1.191-1.383,1.877l-.371.481a.834.834,0,0,1-.137.156.756.756,0,0,1,.1-.181l.336-.505,1.319-1.922c1.141-1.671,2.826-4.07,4.689-7.167a49.571,49.571,0,0,0,5.242-11.5,28.256,28.256,0,0,0,.487-15.261c-.2-.764-.468-1.5-.721-2.191l-.088-.236.243-.045,4.563-.84-.166.175c.608-4.661,1.046-9.055,1.206-13.026a81.221,81.221,0,0,0-.173-10.446,63.67,63.67,0,0,0-.94-6.867c-.141-.8-.3-1.409-.377-1.828-.037-.19-.067-.346-.092-.475a.509.509,0,0,1-.019-.164" fill="#1a2e35"/>
        <path id="Trazado_1321" data-name="Trazado 1321" d="M682.521,224.029V213.842s.132-2.513-1.984-1.985-1.72,4.5-1.72,4.5-.4,15.479.528,15.347,1.282-1.323,1.282-1.323v-5.954Z" fill="#ff4f5b"/>
        <path id="Trazado_1322" data-name="Trazado 1322" d="M691.327,224.663a71.359,71.359,0,0,1-10.915,0,71.359,71.359,0,0,1,10.915,0" fill="#1a2e35"/>
        <path id="Trazado_1323" data-name="Trazado 1323" d="M711.485,175.637a7.58,7.58,0,0,1-1.142.423,26.647,26.647,0,0,0-3.027,1.31,23.536,23.536,0,0,0-8.188,6.978,17.393,17.393,0,0,0-1.61,2.622,16.678,16.678,0,0,0-.969,2.7,27.043,27.043,0,0,0-.812,4.815c-.119,1.389-.142,2.521-.15,3.3a9.494,9.494,0,0,1-.03,1.218,5.3,5.3,0,0,1-.134-1.214,30.391,30.391,0,0,1,.02-3.328,25.325,25.325,0,0,1,.734-4.891,16.552,16.552,0,0,1,.971-2.774,17.094,17.094,0,0,1,1.643-2.693,22.67,22.67,0,0,1,8.393-7,20.985,20.985,0,0,1,3.11-1.2,6.3,6.3,0,0,1,1.191-.269" fill="#1a2e35"/>
        <path id="Trazado_1324" data-name="Trazado 1324" d="M531.855,260.334l72.9,27,61.456,9.394-73.068-35.621Z" fill="#1a2e35"/>
        <path id="Trazado_1325" data-name="Trazado 1325" d="M563.056,289.451a31.074,31.074,0,0,0-3.883-11.046,8.26,8.26,0,0,1-.994-2.074,2.379,2.379,0,0,1,.412-2.176c.937-1.019,2.647-.566,3.8.2a13.364,13.364,0,0,1,4.909,6.872,39.754,39.754,0,0,1,1.606,8.429" fill="#ffc09d"/>
        <path id="Trazado_1326" data-name="Trazado 1326" d="M591.47,282.508h-3.625a7.065,7.065,0,0,0-3.179-1.826,2.525,2.525,0,0,0-2.4.933c1.62-2.67,3.368-5.609,3.7-6.414.652-1.565-.783-2.74-3.132-2.74s-12.656,14.614-12.656,14.614,6.406-11.754,7.026-13.549c1.552-4.49-3.355-4.824-5.137-2.659-2.212,2.688-11.154,16.208-11.154,16.208s-1.7,2.741-.521,5.35,4.566,1.565,4.566,1.565a4.377,4.377,0,0,0,2.394,3.628c2.617,1.455,6.062-.232,6.062-.232l13.335,3s2.116-.213,4.826-.482a14.8,14.8,0,0,0,13.18-12.566Z" fill="#ffc09d"/>
        <path id="Trazado_1327" data-name="Trazado 1327" d="M582.484,281.413c.148.091-1.624,2.884-3.929,6.229-1.152,1.676-2.218,3.176-3.008,4.25a11.206,11.206,0,0,1-1.35,1.688,11.116,11.116,0,0,1,1.107-1.855c.728-1.118,1.755-2.644,2.908-4.319s2.209-3.18,2.983-4.264l.925-1.276a2.682,2.682,0,0,1,.364-.453" fill="#ff9b6c"/>
        <path id="Trazado_1328" data-name="Trazado 1328" d="M581.685,296.29a12.173,12.173,0,0,1,1.184-2.185c.787-1.313,1.911-3.105,3.144-5.086.613-.992,1.205-1.937,1.69-2.81a3.241,3.241,0,0,0,.294-2.475,6.115,6.115,0,0,0-1.139-2.123c.014-.017.222.111.518.433a4.288,4.288,0,0,1,.905,1.611,3.475,3.475,0,0,1-.238,2.733c-.478.907-1.059,1.855-1.675,2.851-1.236,1.986-2.4,3.752-3.25,5.025a18.422,18.422,0,0,1-1.433,2.026" fill="#ff9b6c"/>
        <path id="Trazado_1329" data-name="Trazado 1329" d="M588.7,297.619a7.629,7.629,0,0,1,.709-2.081l.953-2.173a17.3,17.3,0,0,0,.979-2.692,3.143,3.143,0,0,0-.421-2.606,2.5,2.5,0,0,0-.952-.679,2.66,2.66,0,0,0-1-.277,3.956,3.956,0,0,0-1.435.5c-.339.169-.535.25-.549.224s.152-.152.468-.364a6.541,6.541,0,0,1,.6-.36,2.222,2.222,0,0,1,.917-.3,2.863,2.863,0,0,1,1.136.256,2.778,2.778,0,0,1,1.112.755,3.446,3.446,0,0,1,.529,2.939,15.462,15.462,0,0,1-1.034,2.756c-.377.816-.74,1.535-1.036,2.14-.606,1.207-.922,1.976-.978,1.958" fill="#ff9b6c"/>
        <path id="Trazado_1330" data-name="Trazado 1330" d="M591.154,285a1.467,1.467,0,0,1,.567.172,6.548,6.548,0,0,1,1.394.819,7.6,7.6,0,0,1,2.158,9.667,6.525,6.525,0,0,1-.914,1.334c-.257.282-.422.414-.44.4-.06-.05.533-.657,1.089-1.861a7.725,7.725,0,0,0-2.078-9.306c-1.014-.855-1.809-1.152-1.776-1.222" fill="#ff9b6c"/>
        <path id="Trazado_1331" data-name="Trazado 1331" d="M567.672,277.331a77.834,77.834,0,0,1-6.384,9.431,78.136,78.136,0,0,1,6.384-9.431" fill="#ff9b6c"/>
        <path id="Trazado_1332" data-name="Trazado 1332" d="M654.157,268.741l-8.334-1.89-8-7.54a5.683,5.683,0,0,0-3.57-1.536l-14.566-.839a5.687,5.687,0,0,0-3.994,1.333l-10.415,8.8L650.7,289.212l6.234.551Z" fill="#ffc09d"/>
        <path id="Trazado_1333" data-name="Trazado 1333" d="M629.466,264.849c-.013.066-1.081-.132-2.807-.35a12.17,12.17,0,0,0-6.6.684,17.092,17.092,0,0,0-3.144,1.965c-.921.691-1.747,1.332-2.476,1.823a13.467,13.467,0,0,1-1.8,1.049,2.5,2.5,0,0,1-.719.262c-.029-.064.959-.5,2.35-1.551.7-.517,1.5-1.176,2.416-1.89a16.221,16.221,0,0,1,3.2-2.038,9.394,9.394,0,0,1,3.721-.831,16.561,16.561,0,0,1,3.089.234c.867.142,1.559.3,2.036.416a2.769,2.769,0,0,1,.729.227" fill="#ff9b6c"/>
        <path id="Trazado_1334" data-name="Trazado 1334" d="M632.453,272.959c-.027.065-.6-.2-1.571-.3a8.478,8.478,0,0,0-3.747.522,19.729,19.729,0,0,0-3.43,1.76,6.851,6.851,0,0,1-1.417.791,5.868,5.868,0,0,1,1.254-1.037,14.765,14.765,0,0,1,3.45-1.906,7.673,7.673,0,0,1,3.931-.422,3.078,3.078,0,0,1,1.53.591" fill="#ff9b6c"/>
        <path id="Trazado_1335" data-name="Trazado 1335" d="M651.2,274.3c-.1.063-1.277-1.677-2.824-3.746s-2.874-3.7-2.784-3.777A28.221,28.221,0,0,1,651.2,274.3" fill="#ff9b6c"/>
        <path id="Trazado_1336" data-name="Trazado 1336" d="M628.262,257.8l18.466-17.2a1.764,1.764,0,0,0-2.38-2.6L622.7,257.414" fill="#ff4f5b"/>
        <g id="Grupo_201" data-name="Grupo 201" opacity="0.3">
          <g id="Grupo_200" data-name="Grupo 200">
            <g id="Grupo_199" data-name="Grupo 199" clip-path="url(#clip-path-5)">
              <path id="Trazado_1337" data-name="Trazado 1337" d="M628.262,257.8l18.466-17.2a1.764,1.764,0,0,0-2.38-2.6L622.7,257.414"/>
            </g>
          </g>
        </g>
        <path id="Trazado_1338" data-name="Trazado 1338" d="M945.68,323.336c0,.115-211.715.209-472.817.209C211.669,323.545,0,323.451,0,323.336s211.67-.209,472.864-.209c261.1,0,472.817.094,472.817.209" fill="#1a2e35"/>
        <path id="Trazado_1339" data-name="Trazado 1339" d="M482.226,149.024v40.694h8.522l5.2,9.009,5.2-9.009h37.211V149.024Z" fill="#ffd54f"/>
        <path id="Trazado_1340" data-name="Trazado 1340" d="M489.454,157.716a2.342,2.342,0,1,1-2.342-2.342,2.343,2.343,0,0,1,2.342,2.342" fill="#fff"/>
        <path id="Trazado_1341" data-name="Trazado 1341" d="M498.1,157.716a2.342,2.342,0,1,1-2.342-2.342,2.343,2.343,0,0,1,2.342,2.342" fill="#fff"/>
        <path id="Trazado_1342" data-name="Trazado 1342" d="M506.738,157.716a2.342,2.342,0,1,1-2.342-2.342,2.342,2.342,0,0,1,2.342,2.342" fill="#fff"/>
        <path id="Trazado_1343" data-name="Trazado 1343" d="M488.041,161.9a3.116,3.116,0,1,1,3.114-3.116,3.12,3.12,0,0,1-3.114,3.116m0-4.684a1.568,1.568,0,1,0,1.567,1.568,1.57,1.57,0,0,0-1.567-1.568"/>
        <path id="Trazado_1344" data-name="Trazado 1344" d="M496.682,161.9a3.116,3.116,0,1,1,3.115-3.116,3.119,3.119,0,0,1-3.115,3.116m0-4.684a1.568,1.568,0,1,0,1.568,1.568,1.569,1.569,0,0,0-1.568-1.568"/>
        <path id="Trazado_1345" data-name="Trazado 1345" d="M505.325,161.9a3.116,3.116,0,1,1,3.115-3.116,3.119,3.119,0,0,1-3.115,3.116m0-4.684a1.568,1.568,0,1,0,1.568,1.568,1.57,1.57,0,0,0-1.568-1.568"/>
        <path id="Trazado_1346" data-name="Trazado 1346" d="M531.672,168.422H485.7a.773.773,0,0,1,0-1.547h45.975a.773.773,0,0,1,0,1.547"/>
        <path id="Trazado_1347" data-name="Trazado 1347" d="M531.672,172.521H485.7a.773.773,0,0,1,0-1.547h45.975a.773.773,0,0,1,0,1.547"/>
        <path id="Trazado_1348" data-name="Trazado 1348" d="M487.76,176.62H485.7a.773.773,0,0,1,0-1.546h2.063a.773.773,0,0,1,0,1.546"/>
        <path id="Trazado_1349" data-name="Trazado 1349" d="M504.177,176.62h-4.689a.773.773,0,1,1,0-1.546h4.689a.773.773,0,1,1,0,1.546m-8.208,0h-4.69a.773.773,0,1,1,0-1.546h4.69a.773.773,0,1,1,0,1.546"/>
        <path id="Trazado_1350" data-name="Trazado 1350" d="M509.757,176.62h-2.063a.773.773,0,1,1,0-1.546h2.063a.773.773,0,1,1,0,1.546"/>
        <path id="Trazado_1351" data-name="Trazado 1351" d="M494.34,197.891a.774.774,0,0,1-.669-.387l-4.977-8.621h-8.076a.774.774,0,0,1-.773-.774V147.415a.772.772,0,0,1,.773-.772h56.134a.773.773,0,0,1,.774.772v40.694a.775.775,0,0,1-.774.774H499.988L495.01,197.5a.774.774,0,0,1-.67.387m-12.949-10.555h7.749a.772.772,0,0,1,.669.387l4.531,7.848,4.531-7.848a.775.775,0,0,1,.67-.387h36.438V148.189H481.391Z"/>
        <rect id="Rectángulo_208" data-name="Rectángulo 208" width="36.29" height="43.898" transform="translate(286.078 47.659)" fill="#fff"/>
        <path id="Trazado_1352" data-name="Trazado 1352" d="M322.369,92.15H286.078a.594.594,0,0,1-.593-.593v-43.9a.593.593,0,0,1,.593-.593h36.291a.593.593,0,0,1,.593.593v43.9a.594.594,0,0,1-.593.593m-35.7-1.186h35.1V48.252h-35.1Z"/>
        <path id="Trazado_1353" data-name="Trazado 1353" d="M291.115,54.416h-1.581a.593.593,0,0,1,0-1.186h1.581a.593.593,0,1,1,0,1.186"/>
        <path id="Trazado_1354" data-name="Trazado 1354" d="M314.794,54.416h-3.383a.593.593,0,1,1,0-1.186h3.383a.593.593,0,0,1,0,1.186m-5.92,0h-3.382a.593.593,0,1,1,0-1.186h3.382a.593.593,0,1,1,0,1.186m-5.919,0h-3.383a.593.593,0,0,1,0-1.186h3.383a.593.593,0,1,1,0,1.186m-5.92,0h-3.383a.593.593,0,1,1,0-1.186h3.383a.593.593,0,0,1,0,1.186"/>
        <path id="Trazado_1355" data-name="Trazado 1355" d="M318.912,54.416h-1.581a.593.593,0,0,1,0-1.186h1.581a.593.593,0,1,1,0,1.186"/>
        <path id="Trazado_1356" data-name="Trazado 1356" d="M318.912,67.305H289.534a.593.593,0,0,1,0-1.186h29.378a.593.593,0,1,1,0,1.186"/>
        <path id="Trazado_1357" data-name="Trazado 1357" d="M318.912,71.322H289.534a.593.593,0,0,1,0-1.186h29.378a.593.593,0,1,1,0,1.186"/>
        <path id="Trazado_1358" data-name="Trazado 1358" d="M318.912,75.337H289.534a.593.593,0,0,1,0-1.186h29.378a.593.593,0,1,1,0,1.186"/>
        <path id="Trazado_1359" data-name="Trazado 1359" d="M318.912,79.354H289.534a.593.593,0,0,1,0-1.187h29.378a.593.593,0,0,1,0,1.187"/>
        <path id="Trazado_1360" data-name="Trazado 1360" d="M318.912,83.37H289.534a.593.593,0,0,1,0-1.186h29.378a.593.593,0,1,1,0,1.186"/>
        <path id="Trazado_1361" data-name="Trazado 1361" d="M297.379,78.389a10.935,10.935,0,1,1,0-15.434,10.986,10.986,0,0,1,0,15.434" fill="#e1d3f8"/>
        <path id="Trazado_1362" data-name="Trazado 1362" d="M289.622,80.308A11.533,11.533,0,0,1,278.1,69.456a11.522,11.522,0,0,1,10.874-12.142,11.539,11.539,0,0,1,12.186,10.833A11.525,11.525,0,0,1,290.288,80.29c-.223.011-.445.018-.666.018m.02-21.827c-.2,0-.4.006-.6.018a10.343,10.343,0,1,0,.6-.018"/>
        <path id="Trazado_1363" data-name="Trazado 1363" d="M289.627,77.935a9.164,9.164,0,0,1-9.146-8.614.592.592,0,0,1,.558-.626.585.585,0,0,1,.625.557,7.989,7.989,0,0,0,13.924,4.84A7.876,7.876,0,0,0,297.6,68.35a7.965,7.965,0,0,0-8.421-7.483.593.593,0,0,1-.068-1.185,9.162,9.162,0,0,1,9.673,8.6,9.146,9.146,0,0,1-8.632,9.638c-.176.01-.352.014-.526.014"/>
        <path id="Trazado_1364" data-name="Trazado 1364" d="M276.252,82.723a.593.593,0,0,1-.419-1.013l5.321-5.3a.593.593,0,1,1,.837.84l-5.321,5.3a.591.591,0,0,1-.418.173"/>
        <path id="Trazado_1365" data-name="Trazado 1365" d="M265.375,92.965h0a1.484,1.484,0,0,1,0-2.1l8.529-8.5a1.492,1.492,0,0,1,2.114,2.105l-8.53,8.5a1.5,1.5,0,0,1-2.113,0" fill="#fff"/>
        <path id="Trazado_1366" data-name="Trazado 1366" d="M266.432,94a2.08,2.08,0,0,1-1.475-3.554l8.529-8.5a2.14,2.14,0,0,1,2.95,0,2.079,2.079,0,0,1,0,2.944l-8.53,8.5a2.069,2.069,0,0,1-1.474.61m8.529-11.474a.9.9,0,0,0-.638.264l-8.529,8.5a.888.888,0,0,0,0,1.264.924.924,0,0,0,1.275,0l8.53-8.5a.893.893,0,0,0,0-1.264.9.9,0,0,0-.638-.264"/>
        <rect id="Rectángulo_209" data-name="Rectángulo 209" width="2.39" height="1.769" transform="translate(471.308 283.828)"/>
        <rect id="Rectángulo_210" data-name="Rectángulo 210" width="2.388" height="1.769" transform="translate(476.567 283.828)"/>
        <path id="Trazado_1367" data-name="Trazado 1367" d="M475.752,294.251a4.3,4.3,0,1,1-4.3-4.3,4.306,4.306,0,0,1,4.3,4.3" fill="#ffd84f"/>
        <path id="Trazado_1368" data-name="Trazado 1368" d="M460.383,298.551a4.3,4.3,0,1,1,4.3-4.3,4.3,4.3,0,0,1-4.3,4.3" fill="#ffd84f"/>
        <path id="Trazado_1369" data-name="Trazado 1369" d="M438.251,298.551a4.3,4.3,0,1,1,4.3-4.3,4.306,4.306,0,0,1-4.3,4.3" fill="#ffd84f"/>
        <path id="Trazado_1370" data-name="Trazado 1370" d="M367.266,268.906h-7.324v-7.324h-1.77v7.324h-7.324v1.769h7.324V278h1.77v-7.326h7.324Z"/>
        <path id="Trazado_1371" data-name="Trazado 1371" d="M372.989,273.187l-1.731-.351a13.024,13.024,0,0,1-.6,2.022l1.647.64a14.307,14.307,0,0,0,.68-2.311"/>
        <path id="Trazado_1372" data-name="Trazado 1372" d="M371,278.069l-1.486-.959a12.754,12.754,0,0,1-1.285,1.677l1.308,1.192a14.961,14.961,0,0,0,1.463-1.91"/>
        <path id="Trazado_1373" data-name="Trazado 1373" d="M367.387,281.9l-1.046-1.429a12.139,12.139,0,0,1-1.8,1.1l.789,1.581a13.914,13.914,0,0,0,2.057-1.25"/>
        <path id="Trazado_1374" data-name="Trazado 1374" d="M360.258,284.593a14.735,14.735,0,0,0,2.37-.418l-.452-1.711a12.971,12.971,0,0,1-2.079.369Z"/>
        <path id="Trazado_1375" data-name="Trazado 1375" d="M357.376,284.57l.189-1.757a12.348,12.348,0,0,1-2.067-.406l-.484,1.7a13.97,13.97,0,0,0,2.362.461"/>
        <path id="Trazado_1376" data-name="Trazado 1376" d="M352.33,283.043l.817-1.57a13.018,13.018,0,0,1-1.785-1.123l-1.066,1.409a14.723,14.723,0,0,0,2.034,1.284"/>
        <path id="Trazado_1377" data-name="Trazado 1377" d="M346.745,277.865a13.836,13.836,0,0,0,1.437,1.933l1.325-1.169a12.51,12.51,0,0,1-1.259-1.7Z"/>
        <path id="Trazado_1378" data-name="Trazado 1378" d="M347.136,274.663a13.194,13.194,0,0,1-.556-2.034l-1.737.323a14.39,14.39,0,0,0,.634,2.321Z"/>
        <path id="Trazado_1379" data-name="Trazado 1379" d="M344.6,270.077l1.769.029a12,12,0,0,1,.21-2.1l-1.738-.324a13.743,13.743,0,0,0-.241,2.394"/>
        <path id="Trazado_1380" data-name="Trazado 1380" d="M345.653,264.913l1.639.665a13.2,13.2,0,0,1,.956-1.877l-1.5-.934a14.927,14.927,0,0,0-1.092,2.146"/>
        <path id="Trazado_1381" data-name="Trazado 1381" d="M351.362,260.285l-1.066-1.411a14.051,14.051,0,0,0-1.788,1.606l1.284,1.216a12.133,12.133,0,0,1,1.57-1.411"/>
        <path id="Trazado_1382" data-name="Trazado 1382" d="M355.013,256.523a14.25,14.25,0,0,0-2.252.85l.764,1.6a12.5,12.5,0,0,1,1.972-.743Z"/>
        <path id="Trazado_1383" data-name="Trazado 1383" d="M360.1,257.8l.161-1.762a13.862,13.862,0,0,0-2.4-.017l.13,1.762a12.5,12.5,0,0,1,2.111.017"/>
        <path id="Trazado_1384" data-name="Trazado 1384" d="M363.092,256.589l-.51,1.693a13,13,0,0,1,1.959.781l.789-1.584a14.735,14.735,0,0,0-2.238-.89"/>
        <path id="Trazado_1385" data-name="Trazado 1385" d="M369.536,260.656a14.592,14.592,0,0,0-1.766-1.633l-1.091,1.391a12.666,12.666,0,0,1,1.549,1.434Z"/>
        <path id="Trazado_1386" data-name="Trazado 1386" d="M372.309,265.137a14.025,14.025,0,0,0-1.055-2.166l-1.517.907a12.248,12.248,0,0,1,.925,1.9Z"/>
        <path id="Trazado_1387" data-name="Trazado 1387" d="M373.075,267.919l-1.745.294a13.191,13.191,0,0,1,.179,2.1h1.768a14.828,14.828,0,0,0-.2-2.4"/>
        <path id="Trazado_1388" data-name="Trazado 1388" d="M253.425,162.862a51.554,51.554,0,1,1-51.554-51.554A51.554,51.554,0,0,1,253.425,162.862Z" fill="none" stroke="#3e145e" stroke-miterlimit="10" stroke-width="1.5"/>
        <path id="Trazado_1389" data-name="Trazado 1389" d="M339.585,73.392a40.938,40.938,0,1,1-40.938-40.938A40.939,40.939,0,0,1,339.585,73.392Z" fill="none" stroke="#3e145e" stroke-miterlimit="10" stroke-width="1.5"/>
        <path id="Trazado_1390" data-name="Trazado 1390" d="M339.585,270.869a40.938,40.938,0,1,1-40.938-40.938A40.938,40.938,0,0,1,339.585,270.869Z" fill="none" stroke="#3e145e" stroke-miterlimit="10" stroke-width="1.5"/>
        <path id="Trazado_1391" data-name="Trazado 1391" d="M379.39,168.094a31.351,31.351,0,1,1-31.351-31.351A31.351,31.351,0,0,1,379.39,168.094Z" fill="none" stroke="#3e145e" stroke-miterlimit="10" stroke-width="1.5"/>
        <path id="Trazado_1392" data-name="Trazado 1392" d="M467.478,81.159a31.35,31.35,0,1,1-31.351-31.351A31.351,31.351,0,0,1,467.478,81.159Z" fill="none" stroke="#3e145e" stroke-miterlimit="10" stroke-width="1.5"/>
        <path id="Trazado_1393" data-name="Trazado 1393" d="M467.478,253.2a31.35,31.35,0,1,1-31.351-31.351A31.351,31.351,0,0,1,467.478,253.2Z" fill="none" stroke="#3e145e" stroke-miterlimit="10" stroke-width="1.5"/>
        <path id="Trazado_1394" data-name="Trazado 1394" d="M549.355,168.489a40.938,40.938,0,1,1-40.938-40.938A40.938,40.938,0,0,1,549.355,168.489Z" fill="none" stroke="#3e145e" stroke-miterlimit="10" stroke-width="1.5"/>
        <line id="Línea_48" data-name="Línea 48" x2="37.301" y2="38.434" transform="translate(233.928 203.238)" fill="none" stroke="#3e145e" stroke-miterlimit="10" stroke-width="1.5"/>
        <line id="Línea_49" data-name="Línea 49" y1="23.298" x2="33.099" transform="translate(233.484 98.843)" fill="none" stroke="#3e145e" stroke-miterlimit="10" stroke-width="1.5"/>
        <line id="Línea_50" data-name="Línea 50" x2="17.265" y2="29.308" transform="translate(314.258 112.141)" fill="none" stroke="#3e145e" stroke-miterlimit="10" stroke-width="1.5"/>
        <line id="Línea_51" data-name="Línea 51" y1="37.911" x2="24.37" transform="translate(323.67 199.446)" fill="none" stroke="#3e145e" stroke-miterlimit="10" stroke-width="1.5"/>
        <line id="Línea_52" data-name="Línea 52" x2="88.922" transform="translate(378.951 162.862)" fill="none" stroke="#3e145e" stroke-miterlimit="10" stroke-width="1.5"/>
        <line id="Línea_53" data-name="Línea 53" y1="42.575" x2="46.579" transform="translate(363.138 98.042)" fill="none" stroke="#3e145e" stroke-miterlimit="10" stroke-width="1.5"/>
        <line id="Línea_54" data-name="Línea 54" x2="35.688" y2="33.533" transform="translate(464.317 94.886)" fill="none" stroke="#3e145e" stroke-miterlimit="10" stroke-width="1.5"/>
        <line id="Línea_55" data-name="Línea 55" x2="51.318" y2="39.854" transform="translate(357.473 197.998)" fill="none" stroke="#3e145e" stroke-miterlimit="10" stroke-width="1.5"/>
        <line id="Línea_56" data-name="Línea 56" y1="31.317" x2="36.464" transform="translate(464.598 208.756)" fill="none" stroke="#3e145e" stroke-miterlimit="10" stroke-width="1.5"/>
        <rect id="Rectángulo_211" data-name="Rectángulo 211" width="2.304" height="1.835" transform="translate(165.062 246.097)"/>
        <rect id="Rectángulo_212" data-name="Rectángulo 212" width="2.305" height="1.835" transform="translate(170.131 246.097)"/>
        <rect id="Rectángulo_213" data-name="Rectángulo 213" width="2.304" height="1.835" transform="translate(175.201 246.097)"/>
        <rect id="Rectángulo_214" data-name="Rectángulo 214" width="2.305" height="1.835" transform="translate(180.27 246.097)"/>
        <rect id="Rectángulo_215" data-name="Rectángulo 215" width="2.305" height="1.835" transform="translate(185.339 246.097)"/>
        <path id="Trazado_1395" data-name="Trazado 1395" d="M194.093,225.878h-9.219v-9.221h-1.837v9.221h-9.219v1.835h9.219v9.221h1.837v-9.221h9.219Z"/>
        <path id="Trazado_1396" data-name="Trazado 1396" d="M422.422,26.733a5.4,5.4,0,0,1,5.445,5.34H429.7a5.444,5.444,0,0,1,10.887,0h1.836a5.444,5.444,0,0,1,10.887,0h1.837a5.444,5.444,0,0,1,10.886,0h1.836a7.273,7.273,0,0,0-13.64-3.417,7.262,7.262,0,0,0-12.724,0,7.261,7.261,0,0,0-12.723,0,7.273,7.273,0,0,0-13.641,3.417h1.837a5.4,5.4,0,0,1,5.441-5.34"/>
        <path id="Trazado_1397" data-name="Trazado 1397" d="M232.222,99.45l-4.563-4.564,4.561-4.562-1.3-1.3-4.561,4.562L221.8,89.025l-1.3,1.3,4.562,4.562L220.5,99.45l1.3,1.3,4.565-4.565,4.563,4.565Z"/>
        <rect id="Rectángulo_216" data-name="Rectángulo 216" width="37.333" height="44.584" transform="translate(418.375 57.705)" fill="#d7e4ea"/>
        <rect id="Rectángulo_217" data-name="Rectángulo 217" width="37.333" height="44.584" transform="translate(418.375 57.705)" fill="none" stroke="#231f20" stroke-miterlimit="10" stroke-width="1"/>
        <rect id="Rectángulo_218" data-name="Rectángulo 218" width="33.354" height="20.191" transform="translate(420.365 63.786)" fill="#9eb6de"/>
        <rect id="Rectángulo_219" data-name="Rectángulo 219" width="33.354" height="20.191" transform="translate(420.365 63.786)" fill="none" stroke="#231f20" stroke-miterlimit="10" stroke-width="1"/>
        <rect id="Rectángulo_220" data-name="Rectángulo 220" width="37.333" height="3.936" transform="translate(418.375 57.705)" fill="#3f429a"/>
        <rect id="Rectángulo_221" data-name="Rectángulo 221" width="37.333" height="3.936" transform="translate(418.375 57.705)" fill="none" stroke="#231f20" stroke-miterlimit="10" stroke-width="1"/>
        <path id="Trazado_1398" data-name="Trazado 1398" d="M447.821,59.673a.852.852,0,1,1-.852-.852.852.852,0,0,1,.852.852" fill="#d7e4ea"/>
        <path id="Trazado_1399" data-name="Trazado 1399" d="M447.821,59.673a.852.852,0,1,1-.852-.852A.852.852,0,0,1,447.821,59.673Z" fill="none" stroke="#231f20" stroke-miterlimit="10" stroke-width="1"/>
        <path id="Trazado_1400" data-name="Trazado 1400" d="M450.47,59.673a.852.852,0,1,1-.852-.852.851.851,0,0,1,.852.852" fill="#d7e4ea"/>
        <path id="Trazado_1401" data-name="Trazado 1401" d="M450.47,59.673a.852.852,0,1,1-.852-.852A.851.851,0,0,1,450.47,59.673Z" fill="none" stroke="#231f20" stroke-miterlimit="10" stroke-width="1"/>
        <path id="Trazado_1402" data-name="Trazado 1402" d="M453.121,59.673a.852.852,0,1,1-.852-.852.85.85,0,0,1,.852.852" fill="#d7e4ea"/>
        <path id="Trazado_1403" data-name="Trazado 1403" d="M453.121,59.673a.852.852,0,1,1-.852-.852A.85.85,0,0,1,453.121,59.673Z" fill="none" stroke="#231f20" stroke-miterlimit="10" stroke-width="1"/>
        <rect id="Rectángulo_222" data-name="Rectángulo 222" width="33.266" height="0.964" transform="translate(420.364 85.101)" fill="#c0c1c3"/>
        <rect id="Rectángulo_223" data-name="Rectángulo 223" width="33.266" height="0.964" transform="translate(420.364 85.101)" fill="none" stroke="#231f20" stroke-miterlimit="10" stroke-width="1"/>
        <rect id="Rectángulo_224" data-name="Rectángulo 224" width="33.266" height="0.961" transform="translate(420.364 86.946)" fill="#c0c1c3"/>
        <rect id="Rectángulo_225" data-name="Rectángulo 225" width="33.266" height="0.961" transform="translate(420.364 86.946)" fill="none" stroke="#231f20" stroke-miterlimit="10" stroke-width="1"/>
        <rect id="Rectángulo_226" data-name="Rectángulo 226" width="33.354" height="0.961" transform="translate(420.365 88.789)" fill="#c0c1c3"/>
        <rect id="Rectángulo_227" data-name="Rectángulo 227" width="33.354" height="0.961" transform="translate(420.365 88.789)" fill="none" stroke="#231f20" stroke-miterlimit="10" stroke-width="1"/>
        <rect id="Rectángulo_228" data-name="Rectángulo 228" width="14.424" height="0.962" transform="translate(420.365 90.672)" fill="#c0c1c3"/>
        <rect id="Rectángulo_229" data-name="Rectángulo 229" width="14.424" height="0.962" transform="translate(420.365 90.672)" fill="none" stroke="#231f20" stroke-miterlimit="10" stroke-width="1"/>
        <path id="Trazado_1404" data-name="Trazado 1404" d="M430.089,96.851a3.134,3.134,0,1,1-3.134-3.134,3.134,3.134,0,0,1,3.134,3.134" fill="#3f429a"/>
        <path id="Trazado_1405" data-name="Trazado 1405" d="M430.089,96.851a3.134,3.134,0,1,1-3.134-3.134A3.134,3.134,0,0,1,430.089,96.851Z" fill="none" stroke="#231f20" stroke-miterlimit="10" stroke-width="1"/>
        <path id="Trazado_1406" data-name="Trazado 1406" d="M440.173,96.851a3.133,3.133,0,1,1-3.132-3.134,3.132,3.132,0,0,1,3.132,3.134" fill="#3f429a"/>
        <path id="Trazado_1407" data-name="Trazado 1407" d="M440.173,96.851a3.133,3.133,0,1,1-3.132-3.134A3.132,3.132,0,0,1,440.173,96.851Z" fill="none" stroke="#231f20" stroke-miterlimit="10" stroke-width="1"/>
        <path id="Trazado_1408" data-name="Trazado 1408" d="M450.26,96.851a3.133,3.133,0,1,1-3.134-3.134,3.134,3.134,0,0,1,3.134,3.134" fill="#3f429a"/>
        <path id="Trazado_1409" data-name="Trazado 1409" d="M450.26,96.851a3.133,3.133,0,1,1-3.134-3.134A3.134,3.134,0,0,1,450.26,96.851Z" fill="none" stroke="#231f20" stroke-miterlimit="10" stroke-width="1"/>
        <rect id="Rectángulo_230" data-name="Rectángulo 230" width="28.586" height="43.187" transform="translate(332.537 146.859)" fill="#ffc00e"/>
        <rect id="Rectángulo_231" data-name="Rectángulo 231" width="28.586" height="43.187" transform="translate(332.537 146.859)" fill="none" stroke="#231f20" stroke-miterlimit="10" stroke-width="1"/>
        <path id="Trazado_1410" data-name="Trazado 1410" d="M364.542,150.375l-3.469-3.516v20.568l3.469-2.28Z" fill="#f9a719"/>
        <path id="Trazado_1411" data-name="Trazado 1411" d="M364.542,150.375l-3.469-3.516v20.568l3.469-2.28Z" fill="none" stroke="#231f20" stroke-miterlimit="10" stroke-width="1"/>
        <rect id="Rectángulo_232" data-name="Rectángulo 232" width="18.247" height="10.948" transform="translate(337.707 153.348)" fill="#eeebec"/>
        <rect id="Rectángulo_233" data-name="Rectángulo 233" width="18.247" height="10.948" transform="translate(337.707 153.348)" fill="none" stroke="#231f20" stroke-miterlimit="10" stroke-width="1"/>
        <rect id="Rectángulo_234" data-name="Rectángulo 234" width="45.204" height="25.024" transform="translate(413.531 240.654)" fill="#ffc00e"/>
        <rect id="Rectángulo_235" data-name="Rectángulo 235" width="45.204" height="25.024" transform="translate(413.531 240.654)" fill="none" stroke="#231f20" stroke-miterlimit="10" stroke-width="1"/>
        <path id="Trazado_1412" data-name="Trazado 1412" d="M458.312,265.053l-21.663-15.108a.908.908,0,0,0-1.034,0l-21.66,15.113a.2.2,0,0,0-.057.276.207.207,0,0,0,.284.068l21.949-13.563,21.95,13.567a.211.211,0,0,0,.231-.353" fill="#ffc00e"/>
        <path id="Trazado_1413" data-name="Trazado 1413" d="M458.312,265.053l-21.663-15.108a.908.908,0,0,0-1.034,0l-21.66,15.113a.2.2,0,0,0-.057.276.207.207,0,0,0,.284.068l21.949-13.563,21.95,13.567a.211.211,0,0,0,.231-.353Z" fill="none" stroke="#231f20" stroke-miterlimit="10" stroke-width="1"/>
        <path id="Trazado_1414" data-name="Trazado 1414" d="M436.133,260.418l-22.6-19.765h45.205Z" fill="#ffc00e"/>
        <path id="Trazado_1415" data-name="Trazado 1415" d="M436.133,260.418l-22.6-19.765h45.205Z" fill="none" stroke="#231f20" stroke-miterlimit="10" stroke-width="1"/>
        <path id="Trazado_1416" data-name="Trazado 1416" d="M226.807,197.308H175.739V125.545h36.823l14.245,14.245Z" fill="none" stroke="#000" stroke-miterlimit="10" stroke-width="1"/>
        <g id="Grupo_204" data-name="Grupo 204" style="mix-blend-mode: multiply;isolation: isolate">
          <g id="Grupo_203" data-name="Grupo 203">
            <g id="Grupo_202" data-name="Grupo 202" clip-path="url(#clip-path-6)">
              <path id="Trazado_1417" data-name="Trazado 1417" d="M211.442,140.653l15.365-.862v0l-14.245-14.24h.022Z" fill="#bdbfc1"/>
            </g>
          </g>
        </g>
        <path id="Trazado_1418" data-name="Trazado 1418" d="M212.562,139.79h14.245l-14.245-14.245Z" fill="none" stroke="#000" stroke-linecap="round" stroke-linejoin="round" stroke-width="1"/>
        <line id="Línea_57" data-name="Línea 57" x2="11.289" transform="translate(179.349 191.824)" fill="none" stroke="#000" stroke-miterlimit="10" stroke-width="2"/>
        <line id="Línea_58" data-name="Línea 58" x2="15.522" transform="translate(179.349 187.792)" fill="none" stroke="#000" stroke-miterlimit="10" stroke-width="2"/>
        <line id="Línea_59" data-name="Línea 59" x2="18.141" transform="translate(179.349 179.73)" fill="none" stroke="#000" stroke-miterlimit="10" stroke-width="2"/>
        <line id="Línea_60" data-name="Línea 60" x2="43.539" transform="translate(179.349 175.699)" fill="none" stroke="#000" stroke-miterlimit="10" stroke-width="2"/>
        <line id="Línea_61" data-name="Línea 61" x2="43.539" transform="translate(179.349 171.667)" fill="none" stroke="#000" stroke-miterlimit="10" stroke-width="2"/>
        <line id="Línea_62" data-name="Línea 62" x2="43.539" transform="translate(179.349 167.635)" fill="none" stroke="#000" stroke-miterlimit="10" stroke-width="2"/>
        <line id="Línea_63" data-name="Línea 63" x2="43.539" transform="translate(179.349 163.604)" fill="none" stroke="#000" stroke-miterlimit="10" stroke-width="2"/>
        <line id="Línea_64" data-name="Línea 64" x2="43.539" transform="translate(179.349 159.573)" fill="none" stroke="#000" stroke-miterlimit="10" stroke-width="2"/>
        <line id="Línea_65" data-name="Línea 65" x2="43.539" transform="translate(179.349 155.541)" fill="none" stroke="#000" stroke-miterlimit="10" stroke-width="2"/>
        <line id="Línea_66" data-name="Línea 66" x2="8.063" transform="translate(179.349 143.447)" fill="none" stroke="#000" stroke-miterlimit="10" stroke-width="2"/>
        <line id="Línea_67" data-name="Línea 67" x2="13.708" transform="translate(179.349 139.415)" fill="none" stroke="#000" stroke-miterlimit="10" stroke-width="2"/>
        <line id="Línea_68" data-name="Línea 68" x2="18.746" transform="translate(179.349 131.353)" fill="none" stroke="#000" stroke-miterlimit="10" stroke-width="2"/>
        <rect id="Rectángulo_237" data-name="Rectángulo 237" width="47.048" height="26.043" transform="translate(277.862 273.206)" fill="none" stroke="#000" stroke-miterlimit="10" stroke-width="1"/>
        <path id="Trazado_1419" data-name="Trazado 1419" d="M301.386,252.657l23.523,20.569H277.862Z" fill="none" stroke="#000" stroke-miterlimit="10" stroke-width="1"/>
        <path id="Trazado_1420" data-name="Trazado 1420" d="M321.112,296.626H281.659V241.185h28.448l11.005,11Z" fill="#f5fafc"/>
        <path id="Trazado_1421" data-name="Trazado 1421" d="M321.112,296.626H281.659V241.185h28.448l11.005,11Z" fill="none" stroke="#000" stroke-miterlimit="10" stroke-width="1"/>
        <g id="Grupo_207" data-name="Grupo 207" style="mix-blend-mode: multiply;isolation: isolate">
          <g id="Grupo_206" data-name="Grupo 206">
            <g id="Grupo_205" data-name="Grupo 205" clip-path="url(#clip-path-7)">
              <path id="Trazado_1422" data-name="Trazado 1422" d="M309.242,252.857l11.87-.666v-.006l-11.005-11h.017Z" fill="#f5fafc"/>
              <path id="Trazado_1423" data-name="Trazado 1423" d="M309.242,252.857l11.87-.666v-.006l-11.005-11h.017Z" fill="none" stroke="#000" stroke-miterlimit="10" stroke-width="1"/>
            </g>
          </g>
        </g>
        <path id="Trazado_1424" data-name="Trazado 1424" d="M310.107,252.191h11l-11-11.006Z" fill="#f5fafc"/>
        <path id="Trazado_1425" data-name="Trazado 1425" d="M310.107,252.191h11l-11-11.006Z" fill="none" stroke="#000" stroke-miterlimit="10" stroke-width="1"/>
        <path id="Trazado_1426" data-name="Trazado 1426" d="M294.714,292.648h-8.72a.26.26,0,1,1,0-.519h8.72a.26.26,0,1,1,0,.519Z" fill="none" stroke="#000" stroke-miterlimit="10" stroke-width="1"/>
        <path id="Trazado_1427" data-name="Trazado 1427" d="M297.985,289.534h-11.99a.259.259,0,1,1,0-.519h11.99a.259.259,0,0,1,0,.519Z" fill="none" stroke="#000" stroke-miterlimit="10" stroke-width="1"/>
        <path id="Trazado_1428" data-name="Trazado 1428" d="M300.01,283.3H285.994a.26.26,0,0,1,0-.52H300.01a.26.26,0,0,1,0,.52Z" fill="none" stroke="#000" stroke-miterlimit="10" stroke-width="1"/>
        <path id="Trazado_1429" data-name="Trazado 1429" d="M319.632,280.19H285.994a.26.26,0,1,1,0-.519h33.638a.26.26,0,1,1,0,.519Z" fill="none" stroke="#000" stroke-miterlimit="10" stroke-width="1"/>
        <path id="Trazado_1430" data-name="Trazado 1430" d="M319.632,277.076H285.994a.259.259,0,1,1,0-.519h33.638a.259.259,0,1,1,0,.519Z" fill="none" stroke="#000" stroke-miterlimit="10" stroke-width="1"/>
        <path id="Trazado_1431" data-name="Trazado 1431" d="M319.632,273.961H285.994a.26.26,0,0,1,0-.52h33.638a.26.26,0,1,1,0,.52Z" fill="none" stroke="#000" stroke-miterlimit="10" stroke-width="1"/>
        <path id="Trazado_1432" data-name="Trazado 1432" d="M319.632,270.847H285.994a.26.26,0,0,1,0-.52h33.638a.26.26,0,1,1,0,.52Z" fill="none" stroke="#000" stroke-miterlimit="10" stroke-width="1"/>
        <path id="Trazado_1433" data-name="Trazado 1433" d="M319.632,267.732H285.994a.26.26,0,0,1,0-.52h33.638a.26.26,0,1,1,0,.52Z" fill="none" stroke="#000" stroke-miterlimit="10" stroke-width="1"/>
        <path id="Trazado_1434" data-name="Trazado 1434" d="M319.632,264.618H285.994a.26.26,0,0,1,0-.52h33.638a.26.26,0,0,1,0,.52Z" fill="none" stroke="#000" stroke-miterlimit="10" stroke-width="1"/>
        <path id="Trazado_1435" data-name="Trazado 1435" d="M292.223,255.274h-6.229a.259.259,0,1,1,0-.519h6.229a.26.26,0,1,1,0,.519Z" fill="none" stroke="#000" stroke-miterlimit="10" stroke-width="1"/>
        <path id="Trazado_1436" data-name="Trazado 1436" d="M296.583,252.16H285.995a.26.26,0,1,1,0-.52h10.588a.26.26,0,0,1,0,.52Z" fill="none" stroke="#000" stroke-miterlimit="10" stroke-width="1"/>
        <path id="Trazado_1437" data-name="Trazado 1437" d="M300.477,245.93H285.995a.26.26,0,1,1,0-.519h14.482a.259.259,0,0,1,0,.519Z" fill="none" stroke="#000" stroke-miterlimit="10" stroke-width="1"/>
        <path id="Trazado_1438" data-name="Trazado 1438" d="M301.386,293.776l-23.524-20.569V299.25h47.047V273.207Z" fill="#ffd54f"/>
        <path id="Trazado_1439" data-name="Trazado 1439" d="M278.539,297.983l16.207-10.015-1.156-1.009L278.3,297.625a.213.213,0,0,0-.061.288A.217.217,0,0,0,278.539,297.983Z" fill="none" stroke="#000" stroke-miterlimit="10" stroke-width="1"/>
        <path id="Trazado_1440" data-name="Trazado 1440" d="M324.225,297.987a.219.219,0,0,0,.24-.366L309.181,286.96l-1.157,1.012Z" fill="none" stroke="#000" stroke-miterlimit="10" stroke-width="1"/>
      </g>
    </g>
  </g>
</svg>
