<svg id="Grupo_37" data-name="Grupo 37" xmlns="http://www.w3.org/2000/svg" xmlns:xlink="http://www.w3.org/1999/xlink" width="291.096" height="352.856" viewBox="0 0 291.096 352.856">
  <defs>
    <clipPath id="clip-path">
      <rect id="Rectángulo_14" data-name="Rectángulo 14" width="291.096" height="352.856" fill="none"/>
    </clipPath>
    <clipPath id="clip-path-3">
      <rect id="Rectángulo_10" data-name="Rectángulo 10" width="59.948" height="31.428" transform="translate(99.294 321.428)" fill="none"/>
    </clipPath>
    <clipPath id="clip-path-4">
      <rect id="Rectángulo_11" data-name="Rectángulo 11" width="70.519" height="151.739" transform="translate(89.005 154.006)" fill="none"/>
    </clipPath>
  </defs>
  <g id="Grupo_36" data-name="Grupo 36" clip-path="url(#clip-path)">
    <g id="Grupo_35" data-name="Grupo 35">
      <g id="Grupo_34" data-name="Grupo 34" clip-path="url(#clip-path)">
        <path id="Trazado_355" data-name="Trazado 355" d="M255.36,116.9c-2-6.06,1.613-27.787-3.147-27.827-6.066-.052-4.323,24.563-4.335,26.764-.013,2.139-3.2,2.176-3.076.191.169-2.851,1.117-30.94-4.955-30.446-3.366.273-2.942,6.4-2.942,6.4s1.883,28.092-.993,28.228c-2.92.14-3.9-16.25-4.135-22.015-.228-5.529-2.554-7.725-5.094-5.87-2.711,1.981-2.038,18.491-1.9,24.032s.8,20.741-5.615,13.352S205.11,119,202.45,119.518s-2.8,4.436-.058,5.712c2.22,1.031,5.413,3.882,7.73,6.123a34.963,34.963,0,0,1,4.714,6.349,30.468,30.468,0,0,1,3.862,9.313,18.955,18.955,0,0,0,9.564,12.248l-.3,10.294,29.61-2.573.568-19.478c.3-14.885,2.906-24.9,4.476-33.752,2.5-14.12.685-14.555-1.008-14.474-3.736.179-4.29,23.536-6.246,17.622" fill="#c78976"/>
        <path id="Trazado_356" data-name="Trazado 356" d="M255.358,136.013a32.05,32.05,0,0,0-4.067,1.013,15.714,15.714,0,0,0-7.684,6.151,15.1,15.1,0,0,0-1.361,2.729l-.177.45-.361-.3a24.482,24.482,0,0,0-6.863-4.029c-1.871-.721-3.059-.976-3.038-1.073a9.9,9.9,0,0,1,3.185.659,22.034,22.034,0,0,1,7.151,3.919l-.538.147a15.038,15.038,0,0,1,1.414-2.875,15.542,15.542,0,0,1,3.944-4.143,15.292,15.292,0,0,1,4.167-2.1,13.251,13.251,0,0,1,3.079-.6,3.576,3.576,0,0,1,1.149.049" fill="#bf654e"/>
        <path id="Trazado_357" data-name="Trazado 357" d="M251.241,156.828c.071.16-3.057,1.5-7.189,2.007-4.132.528-7.493,0-7.464-.177.016-.209,3.337,0,7.377-.515,4.042-.493,7.209-1.515,7.276-1.315" fill="#bf654e"/>
        <path id="Trazado_358" data-name="Trazado 358" d="M171.78,157.714s15.43,7.882,23.55,19.238S227.954,223.5,227.954,223.5l-3.463-53.414,37.857-4.9s11.018,53.8,13.593,72.4c2.409,17.412,1.4,34.539-15.6,43.883-20.064,11.028-42.846-3.862-50.42-9.515-9.411-7.023-26.787-18.466-26.787-18.466Z" fill="#e1e1e1"/>
        <path id="Trazado_359" data-name="Trazado 359" d="M152.762,151.054l-10.8-12.069-47.219-3.622-6.12,9.892,16.551,103.283L97.721,352.856h61.521Z" fill="#ff4f5b"/>
        <g id="Grupo_30" data-name="Grupo 30" opacity="0.3">
          <g id="Grupo_29" data-name="Grupo 29">
            <g id="Grupo_28" data-name="Grupo 28" clip-path="url(#clip-path-3)">
              <path id="Trazado_360" data-name="Trazado 360" d="M100.576,328.046c1.623-1.733,4.286-4.118,6.659-4.17,17-.375,34.359-2.074,51.354-2.448l.653,31.428-8.277-3.87c-.468-3.569-1.067-7.835-4.326-9.363-1.843-.865-4-.527-6-.132-6.139,1.214-12.238,2.8-18.484,3.188s-12.783-.522-18.029-3.934a11.014,11.014,0,0,1-4.313-4.659,5.706,5.706,0,0,1,.763-6.04"/>
            </g>
          </g>
        </g>
        <path id="Trazado_361" data-name="Trazado 361" d="M141.963,138.985l30.245,19.575,6.389,21,6.124,65.455-6.743,67,11.653,40.843H159.242l-.062-16.114-3.237-113.431-3.181-72.257Z" fill="#e1e1e1"/>
        <path id="Trazado_362" data-name="Trazado 362" d="M158.245,238.95a6.106,6.106,0,0,0,.5-.845l1.346-2.483c.561-1.091,1.1-2.493,1.807-4.089.333-.806.607-1.7.941-2.629s.686-1.916.957-2.98c2.549-8.4,4.235-20.545,3.88-33.934-.036-1.037-.075-2.062-.145-3.083l-.013-.178-.166-.07q-2.415-1.014-4.738-1.991l.068.491,4.732-3.8.1-.079,0-.117c.222-5.046-1-9.585-2.156-13.538-1.192-3.961-2.5-7.374-3.638-10.178s-2.142-5-2.854-6.488c-.356-.745-.637-1.316-.836-1.7a3.286,3.286,0,0,0-.325-.569,3.544,3.544,0,0,0,.238.61l.753,1.734c.657,1.512,1.6,3.725,2.7,6.54s2.354,6.233,3.505,10.183c1.114,3.935,2.293,8.468,2.057,13.358l.1-.2-4.743,3.789-.379.3.447.188,4.736,2-.177-.247c.068,1,.107,2.027.142,3.057.353,13.328-1.26,25.417-3.693,33.8-.257,1.063-.6,2.043-.912,2.976s-.576,1.824-.893,2.63c-.671,1.6-1.181,3.008-1.707,4.109l-1.244,2.525a6.215,6.215,0,0,0-.4.9" fill="#1a2e35"/>
        <path id="Trazado_363" data-name="Trazado 363" d="M179.487,281.566a5.343,5.343,0,0,0,.262-.88l.639-2.554c.28-1.108.6-2.469.914-4.063s.727-3.4,1.048-5.417c.354-2.014.731-4.222,1.034-6.608.363-2.378.61-4.936.9-7.624.487-5.386.813-11.328.819-17.571-.029-6.245-.378-12.187-.884-17.572-.3-2.688-.555-5.245-.925-7.622-.313-2.384-.7-4.591-1.06-6.6-.328-2.018-.742-3.822-1.068-5.412s-.645-2.953-.929-4.06l-.649-2.551a5.366,5.366,0,0,0-.265-.879,5.5,5.5,0,0,0,.151.907q.2.962.541,2.573c.249,1.114.543,2.479.831,4.075s.679,3.4.98,5.418c.336,2.013.7,4.217.987,6.6.349,2.374.587,4.926.869,7.608.476,5.372.808,11.3.836,17.521-.006,6.223-.315,12.147-.77,17.52-.273,2.683-.5,5.236-.841,7.61-.282,2.383-.634,4.589-.962,6.6-.293,2.019-.671,3.826-.961,5.421s-.57,2.963-.815,4.079q-.333,1.614-.532,2.575a5.426,5.426,0,0,0-.147.908" fill="#1a2e35"/>
        <path id="Trazado_364" data-name="Trazado 364" d="M172.165,336.354a12.358,12.358,0,0,0,1.315,2.724,44.463,44.463,0,0,0,9.223,11.258,12.283,12.283,0,0,0,2.411,1.826,20.829,20.829,0,0,0-2.131-2.13,61.689,61.689,0,0,1-9.15-11.169,20.706,20.706,0,0,0-1.668-2.509" fill="#1a2e35"/>
        <g id="Grupo_33" data-name="Grupo 33" opacity="0.3">
          <g id="Grupo_32" data-name="Grupo 32">
            <g id="Grupo_31" data-name="Grupo 31" clip-path="url(#clip-path-4)">
              <path id="Trazado_365" data-name="Trazado 365" d="M157.068,281.543c-3.2-1.667-7.113-.8-10.478.5s-6.714,3.032-10.322,3c-4.9-.045-11.844-1.83-14.406-6a55.811,55.811,0,0,1-6.2-15.326c-3.9-17.956-4.786-33.7-8.689-51.659-2.124-9.773-4.818-21.08-8.445-30.4-3.512-9.025-6.764-18.368-9.52-27.652.483,21.063.973,42.2,4.228,63.013,2.093,13.385,5.322,26.584,7.081,40.017,1.506,11.5,1.927,23.12,2.345,34.715l10.947,13.381,30.163.614,15.755-20.319Z"/>
            </g>
          </g>
        </g>
        <path id="Trazado_366" data-name="Trazado 366" d="M47.75,156.824a37.258,37.258,0,0,0-22.89,26.5C16.006,222.373.85,274.307.611,291.062c-.3,21.34,9.029,35.949,21.21,38.642,9.632,2.129,96.949-2.65,96.949-2.65l4.126-36.436-70.75-6.505,9.683-54.1-9.583-74.93Z" fill="#e1e1e1"/>
        <path id="Trazado_367" data-name="Trazado 367" d="M52.246,155.082l19.55-7.989,22.346-12.075.205.647c-2.523,4.322-5.2,12.3-4.262,17.212l17.15,89.475-3.891,65.37-5.622,45.133H41.4l20.429-48.067L51.778,214.509Z" fill="#e1e1e1"/>
        <path id="Trazado_368" data-name="Trazado 368" d="M62.4,224.546a2.554,2.554,0,0,0-.152.6c-.091.46-.2,1.033-.341,1.732-.291,1.591-.687,3.754-1.17,6.391-.954,5.479-2.248,12.908-3.678,21.116-1.37,8.222-2.61,15.66-3.525,21.147-.413,2.648-.753,4.821-1,6.419-.1.707-.179,1.285-.244,1.75a2.453,2.453,0,0,0-.045.617,2.507,2.507,0,0,0,.161-.6c.094-.46.21-1.032.352-1.732.3-1.59.7-3.752,1.187-6.387.977-5.4,2.286-12.865,3.693-21.118s2.647-15.728,3.51-21.146c.407-2.649.741-4.823.986-6.422.1-.708.172-1.288.233-1.754a2.4,2.4,0,0,0,.036-.617" fill="#1a2e35"/>
        <path id="Trazado_369" data-name="Trazado 369" d="M83.415,141.319a.766.766,0,0,0-.079.217l-.18.654c-.143.579-.4,1.426-.627,2.545a79.743,79.743,0,0,0-1.492,9.629,109.15,109.15,0,0,0-.372,14.691c.192,5.584.784,11.761,1.626,18.305l.027.208.206.038,6.391,1.186-.218-.4c-.363.982-.742,2.037-1.033,3.13-2.079,7.59-1.166,15.267.729,21.688A68.375,68.375,0,0,0,95.9,229.391c2.667,4.327,5.08,7.657,6.738,9.959l1.939,2.63.518.674a1.082,1.082,0,0,0,.192.218,1.093,1.093,0,0,0-.144-.253l-.471-.708-1.848-2.692c-1.6-2.341-3.958-5.7-6.57-10.043a69.4,69.4,0,0,1-7.345-16.112c-1.849-6.364-2.724-13.938-.684-21.383.287-1.071.658-2.107,1.013-3.069l.122-.332-.341-.063-6.392-1.177.233.246c-.853-6.531-1.467-12.688-1.691-18.251a113.819,113.819,0,0,1,.242-14.637,90.277,90.277,0,0,1,1.316-9.622c.2-1.122.419-1.975.529-2.561.052-.267.095-.485.13-.666a.74.74,0,0,0,.027-.23" fill="#1a2e35"/>
        <path id="Trazado_370" data-name="Trazado 370" d="M83.418,233.1V218.822s-.186-3.522,2.78-2.781,2.41,6.3,2.41,6.3.557,21.689-.741,21.5-1.8-1.853-1.8-1.853v-8.342Z" fill="#ff4f5b"/>
        <path id="Trazado_371" data-name="Trazado 371" d="M71.079,233.985a50.2,50.2,0,0,0,7.646.292,50.209,50.209,0,0,0,7.648-.292,50.207,50.207,0,0,0-7.648-.292,50.2,50.2,0,0,0-7.646.292" fill="#1a2e35"/>
        <path id="Trazado_372" data-name="Trazado 372" d="M42.834,165.291a10.648,10.648,0,0,0,1.6.592,37.4,37.4,0,0,1,4.241,1.836A32.966,32.966,0,0,1,60.148,177.5a24.216,24.216,0,0,1,2.256,3.673,23.35,23.35,0,0,1,1.357,3.781A37.8,37.8,0,0,1,64.9,191.7c.167,1.948.2,3.533.212,4.628a13.71,13.71,0,0,0,.04,1.706,7.4,7.4,0,0,0,.187-1.7,42.309,42.309,0,0,0-.026-4.664,35.409,35.409,0,0,0-1.03-6.853,23.017,23.017,0,0,0-1.359-3.886,24.1,24.1,0,0,0-2.3-3.775,31.782,31.782,0,0,0-11.761-9.8,29.434,29.434,0,0,0-4.356-1.682,8.612,8.612,0,0,0-1.67-.376" fill="#1a2e35"/>
        <path id="Trazado_373" data-name="Trazado 373" d="M118.77,327.054a4.077,4.077,0,0,1,.033-.687c.045-.492.1-1.151.181-1.986.183-1.782.443-4.307.769-7.484.705-6.463,1.7-15.563,2.869-26.311l.251.306L96.6,288.666l-44.408-3.91a23.135,23.135,0,0,0-12.972,2.559,25.6,25.6,0,0,0-3.1,1.937l-.758.578a1.271,1.271,0,0,1-.272.183,17.541,17.541,0,0,1,4.017-2.906,22.993,22.993,0,0,1,13.121-2.779l44.428,3.732,26.268,2.283.284.024-.033.282c-1.261,10.738-2.329,19.828-3.088,26.286l-.924,7.466c-.112.831-.2,1.486-.267,1.976a3.939,3.939,0,0,1-.122.677" fill="#1a2e35"/>
        <path id="Trazado_374" data-name="Trazado 374" d="M99.771,328.025a7.525,7.525,0,0,1-.21-1.539c-.1-.993-.194-2.435-.264-4.219a112.174,112.174,0,0,1,2.458-27.736c.383-1.744.729-3.147,1-4.108a7.608,7.608,0,0,1,.477-1.477,7.592,7.592,0,0,1-.246,1.533c-.215,1.094-.487,2.482-.811,4.137-.658,3.5-1.426,8.354-1.909,13.761s-.574,10.322-.541,13.88c.028,1.687.052,3.1.07,4.216a7.6,7.6,0,0,1-.026,1.552" fill="#1a2e35"/>
        <path id="Trazado_375" data-name="Trazado 375" d="M109.784,316.6a1.538,1.538,0,0,1,.868-.147,3.93,3.93,0,0,1,2.27.81,3.739,3.739,0,0,1,1.543,3.221,4.113,4.113,0,0,1-2.5,3.573,4.049,4.049,0,0,1-4.242-1,3.534,3.534,0,0,1-.845-3.465,3.667,3.667,0,0,1,1.347-2c.472-.334.792-.393.8-.365.023.048-.258.183-.651.547a3.738,3.738,0,0,0-1.081,1.923,3.121,3.121,0,0,0,.827,2.967,3.538,3.538,0,0,0,3.624.828,3.606,3.606,0,0,0,2.16-3.041,3.342,3.342,0,0,0-1.251-2.848,4.072,4.072,0,0,0-2.022-.912,6.3,6.3,0,0,1-.849-.088" fill="#1a2e35"/>
        <path id="Trazado_376" data-name="Trazado 376" d="M94.391,134.71s-.122.083-.371.228l-1.118.637-4.38,2.448-16.649,9.211-.007,0-.01,0-28.051,11.75a30.054,30.054,0,0,0-14.12,11.669,39.933,39.933,0,0,0-4.459,9.021A46.85,46.85,0,0,0,22.8,189.93l0,.025,0,.015c-5.187,22.191-11.077,47.658-16.779,74.717q-1.837,8.73-3.467,17.27c-.282,1.42-.521,2.842-.777,4.255s-.526,2.822-.7,4.226a45.8,45.8,0,0,0-.429,8.41,42.2,42.2,0,0,0,3.71,15.865,30.658,30.658,0,0,0,4.176,6.713,23.951,23.951,0,0,0,5.856,5,24.939,24.939,0,0,0,14.264,3.5l14.2-.287c9.163-.227,17.7-.494,25.488-.756l36.9-1.349,10.031-.38,2.61-.086c.588-.017.89-.01.89-.01s-.3.035-.887.072l-2.607.147-10.028.494c-8.709.4-21.314.963-36.9,1.542-7.79.289-16.325.581-25.49.831l-14.207.317A25.471,25.471,0,0,1,14.094,326.9a24.5,24.5,0,0,1-6-5.109,31.218,31.218,0,0,1-4.267-6.838A42.75,42.75,0,0,1,.047,298.872a46.5,46.5,0,0,1,.428-8.516c.179-1.428.455-2.832.7-4.249s.5-2.841.777-4.262q1.618-8.544,3.466-17.282c5.7-27.07,11.616-52.532,16.844-74.719l-.006.039a47.217,47.217,0,0,1,2.473-10.377,40.439,40.439,0,0,1,4.535-9.122,30.508,30.508,0,0,1,14.364-11.806l28.1-11.632-.016.008,16.721-9.079L92.86,135.5,94,134.9c.257-.132.392-.19.392-.19" fill="#1a2e35"/>
        <rect id="Rectángulo_12" data-name="Rectángulo 12" width="26.692" height="8.322" transform="translate(165.681 228.536)" fill="#1a2e35"/>
        <path id="Trazado_377" data-name="Trazado 377" d="M291.1,243.848l-88.814,94.733-86.622.533-2.053-3.935,85.38-92.513Z" fill="#1a2e35"/>
        <path id="Trazado_378" data-name="Trazado 378" d="M207.158,242.666s5.771-.04,7.479,2.012c2.005,2.408,5.824,7.819-2.54,21.62-3.342,5.515-19.724,24.561-26.463,43.989-6.3,18.163-3.425,24.17-3.425,24.17l62.5-1.949,1.218-2.259S273.1,256.631,265.9,242.666c-3.313-6.425-59.184-2.357-58.741,0" fill="#e1e1e1"/>
        <path id="Trazado_379" data-name="Trazado 379" d="M255.1,330.6l-67.237.56c-.8-17.034,5.108-29.391,13.9-44,3.368-5.6,7.963-10.38,11.317-15.985a43.166,43.166,0,0,0,6.018-19.437c.168-2.731,0-5.687-1.679-7.845s-7.669-2.28-10.256-1.22a19.579,19.579,0,0,1,9.895-3.65c5.436-.453,49.875-.148,58.148-.087a26.484,26.484,0,0,1,5.9.957c6.023,3.125,7.263,11.331,6.411,17.235-.809,5.6-4.277,10.879-8.635,16.782a56,56,0,0,0-3.465,5.281c-4.591,7.955-17.26,30.253-19.536,37.949A35.277,35.277,0,0,0,255.1,330.6" fill="#fafafa"/>
        <path id="Trazado_380" data-name="Trazado 380" d="M255.1,330.449l-16.193.135-30.924.257L195,330.949l-4.348.037a10.433,10.433,0,0,1-2.427.02c-.061-.017-.321.05-.366,0-.011-.012.093-1.248.09-1.39q-.021-.88-.017-1.76.006-1.716.109-3.429a58.361,58.361,0,0,1,2.268-12.919c2.489-8.482,6.78-16.3,11.309-23.842,2.487-4.139,5.568-7.841,8.418-11.726a48.65,48.65,0,0,0,6.608-11.907,41.8,41.8,0,0,0,2.637-13.221c.079-2.9-.341-6.868-3.388-8.167a11.636,11.636,0,0,0-4.38-.775c-1-.012-3.3-.12-4.149.56-.241.192-.112.259.06.214a1.909,1.909,0,0,0,.4-.279c.457-.309.933-.591,1.417-.855a20.15,20.15,0,0,1,5.191-1.945c3.621-.813,7.543-.574,11.229-.606,11.524-.1,23.05-.037,34.574.021q6.651.034,13.3.081a31.461,31.461,0,0,1,6.233.6c3.522.734,5.82,4.268,6.861,7.482a22.069,22.069,0,0,1,.591,10.823c-.887,4.568-3.4,8.66-6.009,12.436-2.36,3.412-4.778,6.7-6.847,10.307q-2.151,3.751-4.264,7.525c-3.376,6.033-6.7,12.1-9.776,18.3-2.647,5.321-5.21,10.578-5.615,16.6a34.829,34.829,0,0,0,.246,7.5c.029.185.31.106.282-.078a32.213,32.213,0,0,1,2.506-17.882c2.637-6.015,5.77-11.822,8.907-17.587q4.286-7.879,8.78-15.645c4.359-7.531,11.368-14.1,12.332-23.17.6-5.661-.707-13.96-6.658-16.542a17.57,17.57,0,0,0-6.432-.95q-2.426-.021-4.852-.033-16.982-.109-33.962-.119c-4.88,0-9.76.009-14.638.1-4.434.081-8.67.513-12.613,2.808a12.751,12.751,0,0,0-1.551,1.029c-.112.09.009.295.142.244a12.73,12.73,0,0,1,8-.108c3.538,1.159,3.917,5.371,3.776,8.576a43.017,43.017,0,0,1-7.12,21.565c-2.081,3.163-4.486,6.092-6.74,9.13a93.347,93.347,0,0,0-5.8,9.044,101.012,101.012,0,0,0-8.461,17.834,60.858,60.858,0,0,0-3.135,22.307.148.148,0,0,0,.146.146l22.719-.189,36.211-.3,8.307-.069a.146.146,0,0,0,0-.292" fill="#1a2e35"/>
        <path id="Trazado_381" data-name="Trazado 381" d="M251.121,316.555c0,.168-11.858.3-26.482.3s-26.484-.136-26.484-.3,11.855-.3,26.484-.3,26.482.136,26.482.3" fill="#1a2e35"/>
        <path id="Trazado_382" data-name="Trazado 382" d="M252.6,307.7c0,.168-11.858.3-26.482.3s-26.484-.136-26.484-.3,11.855-.3,26.484-.3,26.482.136,26.482.3" fill="#1a2e35"/>
        <path id="Trazado_383" data-name="Trazado 383" d="M259.723,298.193c0,.168-11.857.3-26.481.3s-26.485-.136-26.485-.3,11.856-.3,26.485-.3,26.481.137,26.481.3" fill="#1a2e35"/>
        <path id="Trazado_384" data-name="Trazado 384" d="M264.107,289.51c0,.167-11.858.3-26.481.3s-26.485-.137-26.485-.3,11.855-.3,26.485-.3,26.481.136,26.481.3" fill="#1a2e35"/>
        <path id="Trazado_385" data-name="Trazado 385" d="M267.03,281.566c0,.168-11.858.3-26.482.3s-26.484-.136-26.484-.3,11.855-.3,26.484-.3,26.482.136,26.482.3" fill="#1a2e35"/>
        <path id="Trazado_386" data-name="Trazado 386" d="M274.172,271.131c0,.168-11.858.3-26.482.3s-26.484-.136-26.484-.3,11.855-.3,26.484-.3,26.482.136,26.482.3" fill="#1a2e35"/>
        <path id="Trazado_387" data-name="Trazado 387" d="M280.992,261.145c0,.168-11.858.3-26.482.3s-26.484-.136-26.484-.3,11.855-.3,26.484-.3,26.482.136,26.482.3" fill="#1a2e35"/>
        <path id="Trazado_388" data-name="Trazado 388" d="M280.505,251.646c0,.168-11.858.3-26.482.3s-26.484-.136-26.484-.3,11.855-.3,26.484-.3,26.482.136,26.482.3" fill="#1a2e35"/>
        <path id="Trazado_389" data-name="Trazado 389" d="M198.986,242.666a2.18,2.18,0,0,1,.369.261c.262.209.607.481,1.044.827q1.416,1.155,4.023,3.277l.108.088-.1.1c-7.234,7.9-22.9,24.8-41.078,44.293-12.551,13.749-24.633,25.525-33.374,34.019-4.379,4.243-7.947,7.652-10.425,9.993l-2.868,2.683-.757.685a1.483,1.483,0,0,1-.273.218,1.574,1.574,0,0,1,.23-.263l.715-.728,2.788-2.765,10.289-10.13c8.669-8.578,20.681-20.38,33.23-34.127,18.179-19.491,33.947-36.292,41.329-44.059l.012.192-3.942-3.373-1-.88a2.3,2.3,0,0,1-.323-.315" fill="#375a64"/>
        <path id="Trazado_390" data-name="Trazado 390" d="M122.811,294.8l12.674-.006s8.573-7.469,10.521-8.051c4.076-1.216,14.607-2.5,14.607-2.5l-7.193,7.793h0c-1.661,1.8-4.727,3.425-2.908,3.425H163.7s13.493-6.473,15.5-5.289c1.684.994,2.27,2.788.547,5.289s-13.545,8.411-14.909,8.865l-3.864,1.137,3.637,1.137L181.8,300.6c1.116-.2,2.658-.384,3.162.263a2.3,2.3,0,0,1-.09,3.324,72.779,72.779,0,0,1-7.781,6.117s2.745,4.033.471,6.079-8.865,8.184-8.865,8.184-.682,3.409-2.728,5-24.552,1.591-26.143,1.591-10.684-5.228-10.684-5.228l-9.873-.727Z" fill="#c78976"/>
        <path id="Trazado_391" data-name="Trazado 391" d="M162.018,316.8a7.029,7.029,0,0,0,2.462.332,7.522,7.522,0,0,0,2.691-.472,15.108,15.108,0,0,0,2.929-1.56c1.949-1.267,3.693-2.439,4.942-3.309a11.628,11.628,0,0,0,1.963-1.5,11.505,11.505,0,0,0-2.166,1.187c-1.3.79-3.079,1.915-5.025,3.179a16.7,16.7,0,0,1-2.817,1.55,7.869,7.869,0,0,1-2.528.552c-1.5.066-2.444-.049-2.451.041" fill="#bf654e"/>
        <path id="Trazado_392" data-name="Trazado 392" d="M160.987,325.223a2.763,2.763,0,0,0,1.708.958,6.34,6.34,0,0,0,4.64-.779,19.148,19.148,0,0,0,3.768-2.8,5.873,5.873,0,0,0,1.282-1.46c-.12-.137-2.186,2.024-5.3,3.8a6.524,6.524,0,0,1-4.312.877,10.461,10.461,0,0,1-1.784-.594" fill="#bf654e"/>
        <path id="Trazado_393" data-name="Trazado 393" d="M154.613,306.6a14.211,14.211,0,0,0,6.943-1.434,18.617,18.617,0,0,0-3.487.641,18.75,18.75,0,0,0-3.456.793" fill="#bf654e"/>
        <path id="Trazado_394" data-name="Trazado 394" d="M68.584,53.693A25.619,25.619,0,0,0,33.4,44.074c-5.04,2.922-9.229,8.2-8.891,14.015.318,5.483,4.4,9.909,8.253,13.826-6.133,2.555-9.2,10.33-7.2,16.663s8.336,10.8,14.951,11.409S53.783,97.72,58.556,93.1,66.346,82.269,68,75.834" fill="#1a2e35"/>
        <path id="Trazado_395" data-name="Trazado 395" d="M47.609,67.848a10.747,10.747,0,0,1-3.364.848,15.765,15.765,0,0,1-9.2-1.914A16.1,16.1,0,0,1,30,62.571a15.6,15.6,0,0,1-3.063-6.886,18.687,18.687,0,0,1,4.816-16.091,20.919,20.919,0,0,1,15.767-6.08A19.173,19.173,0,0,1,60.346,38.8a12.82,12.82,0,0,1,3.785,8.548,9.842,9.842,0,0,1-.252,2.57,5.8,5.8,0,0,1-.184.646c-.047.143-.076.215-.086.212A14.46,14.46,0,0,0,63.9,47.36,12.78,12.78,0,0,0,60.042,39.1a18.882,18.882,0,0,0-12.537-5.031A20.478,20.478,0,0,0,32.2,40.015a18.215,18.215,0,0,0-4.7,15.57A15.164,15.164,0,0,0,30.4,62.26a16.339,16.339,0,0,0,13.821,6.2,24.924,24.924,0,0,0,3.386-.612" fill="#1a2e35"/>
        <path id="Trazado_396" data-name="Trazado 396" d="M55.144,72.934c.02.037-.263.22-.8.522a14.629,14.629,0,0,1-2.368,1.056,19.731,19.731,0,0,1-3.739.935,21.177,21.177,0,0,1-9.363-.709,19.673,19.673,0,0,1-3.556-1.488,14.494,14.494,0,0,1-2.181-1.4c-.481-.379-.733-.6-.708-.637.066-.091,1.146.719,3.084,1.652a22.671,22.671,0,0,0,3.52,1.335,24.964,24.964,0,0,0,4.529.81,25.059,25.059,0,0,0,4.6-.12,22.614,22.614,0,0,0,3.681-.789c2.056-.63,3.245-1.27,3.3-1.169" fill="#375a64"/>
        <path id="Trazado_397" data-name="Trazado 397" d="M24.486,59.062a4.846,4.846,0,0,1,.471-1.4,7.96,7.96,0,0,1,2.475-3.2,11.654,11.654,0,0,1,5.684-1.911,28.456,28.456,0,0,1,7.315.345A38.622,38.622,0,0,1,52.94,57.213a34.187,34.187,0,0,1,3.393,2.153,6.482,6.482,0,0,1,1.137.938,7.275,7.275,0,0,1-1.269-.742c-.805-.491-1.969-1.2-3.464-1.97a41.814,41.814,0,0,0-12.4-4.094,29.444,29.444,0,0,0-7.164-.388,11.589,11.589,0,0,0-5.487,1.7,8.294,8.294,0,0,0-2.515,2.953,11.709,11.709,0,0,1-.683,1.3" fill="#375a64"/>
        <path id="Trazado_398" data-name="Trazado 398" d="M60.151,82.491c.018.011-.042.146-.172.394s-.341.6-.629,1.054a18.893,18.893,0,0,1-2.944,3.429A19.762,19.762,0,0,1,42.717,92.62a19.408,19.408,0,0,1-8.028-1.764A14.863,14.863,0,0,1,29.4,86.715a9.9,9.9,0,0,1-1.956-4.081,6.405,6.405,0,0,1-.145-1.225c-.009-.281,0-.428.018-.429.07-.006.076.588.357,1.6a10.365,10.365,0,0,0,2.061,3.868,14.908,14.908,0,0,0,5.189,3.9,19.393,19.393,0,0,0,7.8,1.664,20.061,20.061,0,0,0,7.837-1.506,20.534,20.534,0,0,0,5.561-3.458,29.084,29.084,0,0,0,4.031-4.557" fill="#375a64"/>
        <path id="Trazado_399" data-name="Trazado 399" d="M62.374,88.566A10.1,10.1,0,0,1,61.1,90.119c-.868.96-2.16,2.317-3.864,3.885-.851.785-1.814,1.614-2.885,2.459a20.165,20.165,0,0,1-3.664,2.4,19.879,19.879,0,0,1-9.784,1.9A16.591,16.591,0,0,1,31.5,97.516a17.043,17.043,0,0,1-4.946-6.477A14.928,14.928,0,0,1,25.259,85.7a8.525,8.525,0,0,1,.037-1.5,1.7,1.7,0,0,1,.08-.514,1.7,1.7,0,0,1,.042.52,12.159,12.159,0,0,0,.077,1.473,15.88,15.88,0,0,0,1.447,5.18,17.024,17.024,0,0,0,4.9,6.212,16.263,16.263,0,0,0,9.1,3.085,19.684,19.684,0,0,0,9.506-1.8,20.316,20.316,0,0,0,3.6-2.293c1.073-.819,2.043-1.622,2.907-2.381,1.729-1.517,3.063-2.822,3.979-3.728a16.88,16.88,0,0,1,1.447-1.39" fill="#375a64"/>
        <path id="Trazado_400" data-name="Trazado 400" d="M72.2,53l1.706,1.34c-.688-2.9-3.931-4.736-6.9-4.422a10.023,10.023,0,0,0-7.114,4.915,24.122,24.122,0,0,0-2.855,8.429c-.917,4.9-1.371,10.13.58,14.714s6.986,8.184,11.82,6.98c4.812-1.2,7.51-6.435,8.223-11.343A27.5,27.5,0,0,0,72.2,53" fill="#ff4f5b"/>
        <path id="Trazado_401" data-name="Trazado 401" d="M65.506,75.2c.082.13-1.926,1.151-4.62,1.005a9.781,9.781,0,0,1-3.3-.729c-.86-.344-1.109-.981-1.01-1a4.142,4.142,0,0,0,1.16.6,14.372,14.372,0,0,0,3.184.524c2.536.144,4.532-.571,4.59-.4" fill="#1a2e35"/>
        <path id="Trazado_402" data-name="Trazado 402" d="M67.876,66.544c0,.168-2.514.225-5.6.128s-5.587-.312-5.582-.48,2.513-.225,5.6-.128,5.588.312,5.583.48" fill="#1a2e35"/>
        <path id="Trazado_403" data-name="Trazado 403" d="M66.008,57.283c-.023.2-1.732-.049-3.761-.233a9.02,9.02,0,0,0-2.566.143c-.643.141-1.034.307-1.081.225-.039-.061.288-.371.955-.636a6.355,6.355,0,0,1,2.731-.339,9.884,9.884,0,0,1,3.722.84" fill="#1a2e35"/>
        <path id="Trazado_404" data-name="Trazado 404" d="M77.875,33.861c-.14-4.892,4.385-8.672,8.939-10.464s9.617-2.469,13.678-5.2c3.594-2.42,6.011-6.194,9.054-9.279A30.127,30.127,0,0,1,160.215,22.74c1.749,6.968.555,15.2-4.938,19.836-6.374,5.373-15.824,4.18-23.992,2.508s-17.412-3.32-24.232,1.476c-4.112,2.893-6.47,7.6-8.984,11.953S92.4,67.314,87.646,68.95s-11.209-1.189-11.4-6.214" fill="#1a2e35"/>
        <path id="Trazado_405" data-name="Trazado 405" d="M78.205,36.546c.539,4.1-2.429,7.772-5.383,10.667s-6.292,5.966-6.813,10.069c-.609,4.793,2.889,9.513,1.875,14.236-.645,3-2.976,5.308-4.39,8.029a17.06,17.06,0,0,0-.872,12.572c1.218,4.13,3.159,13.353,6.029,16.562,7.939,8.875,20.579,16.534,32.184,19.2s23.659,2.682,35.544,1.951c9.73-.6,20.918-.151,29.026-13.537,4.2-6.932,6.279-16.15,8.511-23.941,1.922-6.71,3.584-13.894,1.586-20.581-1.164-3.9-3.508-7.36-4.655-11.26-1.434-4.874-.912-10.085-1.488-15.132a34.717,34.717,0,0,0-49.393-27.412" fill="#1a2e35"/>
        <path id="Trazado_406" data-name="Trazado 406" d="M94.744,147.943s.042.3.061.43c-.01-.066-.027-.188-.061-.43" fill="#c78976"/>
        <path id="Trazado_407" data-name="Trazado 407" d="M164.7,53.36c-.911-13.962-10.2-31.075-24.111-29.572L97.169,34.865a8.188,8.188,0,0,0-7.307,8.321l4.774,102.441a13.729,13.729,0,0,0,1.207,5.044c3.226,7.11,13.94,25.175,37.211,17.859,5.693-1.79,8.293-8.018,9.421-14.423.011-.761.315-1.432.324-2.158a68.6,68.6,0,0,0,.172-14.385c.08-8.458.071-11.927.077-11.848,0,0,17.833-3,21.478-26.286,1.812-11.58,1.189-30.558.177-46.07" fill="#c78976"/>
        <path id="Trazado_408" data-name="Trazado 408" d="M94.805,148.373h0" fill="#c78976"/>
        <path id="Trazado_409" data-name="Trazado 409" d="M157.71,68.488a2.987,2.987,0,0,1-2.873,3.018,2.853,2.853,0,0,1-3.082-2.685,2.984,2.984,0,0,1,2.867-3.019,2.858,2.858,0,0,1,3.088,2.686" fill="#1a2e35"/>
        <path id="Trazado_410" data-name="Trazado 410" d="M160.608,63.243c-.369.39-2.635-1.278-5.847-1.263-3.209-.03-5.563,1.627-5.912,1.235-.172-.174.2-.877,1.229-1.627a8.192,8.192,0,0,1,4.731-1.47,7.861,7.861,0,0,1,4.655,1.491c.99.756,1.326,1.459,1.144,1.634" fill="#1a2e35"/>
        <path id="Trazado_411" data-name="Trazado 411" d="M125.874,68.488A2.984,2.984,0,0,1,123,71.506a2.856,2.856,0,0,1-3.083-2.685,2.986,2.986,0,0,1,2.869-3.019,2.857,2.857,0,0,1,3.086,2.686" fill="#1a2e35"/>
        <path id="Trazado_412" data-name="Trazado 412" d="M129.034,63.912c-.37.39-2.638-1.278-5.848-1.263-3.209-.03-5.563,1.627-5.912,1.235-.171-.174.2-.877,1.229-1.627a8.185,8.185,0,0,1,4.731-1.47,7.868,7.868,0,0,1,4.655,1.491c.987.756,1.326,1.46,1.145,1.634" fill="#1a2e35"/>
        <path id="Trazado_413" data-name="Trazado 413" d="M140.744,87.708c-.015-.182,1.981-.532,5.216-.953.82-.087,1.6-.251,1.733-.811a4.173,4.173,0,0,0-.553-2.43q-1.164-2.975-2.44-6.241c-3.388-8.885-5.843-16.192-5.484-16.325s3.4,6.96,6.785,15.846q1.222,3.287,2.338,6.278a4.749,4.749,0,0,1,.433,3.218,2.06,2.06,0,0,1-1.347,1.2,5.577,5.577,0,0,1-1.392.2c-3.256.183-5.276.2-5.289.019" fill="#1a2e35"/>
        <path id="Trazado_414" data-name="Trazado 414" d="M143.048,125.716a59.224,59.224,0,0,1-31.192-8.246s7.874,16.1,31.165,13.866Z" fill="#bf654e"/>
        <path id="Trazado_415" data-name="Trazado 415" d="M139.4,95.453a5.791,5.791,0,0,0-5.194-2.138,5.285,5.285,0,0,0-3.645,1.966,3.348,3.348,0,0,0-.246,3.828,3.883,3.883,0,0,0,4.213,1.056,12.142,12.142,0,0,0,4.1-2.459,3.533,3.533,0,0,0,.915-.951,1.074,1.074,0,0,0-.007-1.2" fill="#bf654e"/>
        <path id="Trazado_416" data-name="Trazado 416" d="M131.3,89.952c.522-.032.537,3.455,3.527,5.923s6.7,2.077,6.728,2.564c.05.219-.826.679-2.394.725a8.682,8.682,0,0,1-5.617-1.942,7.559,7.559,0,0,1-2.733-4.968c-.136-1.457.251-2.322.489-2.3" fill="#1a2e35"/>
        <path id="Trazado_417" data-name="Trazado 417" d="M130.466,58.285c-.314.874-3.523.467-7.29.93-3.778.387-6.814,1.5-7.316.714-.224-.374.3-1.2,1.531-2.045a12.774,12.774,0,0,1,11.128-1.253c1.385.554,2.082,1.239,1.947,1.654" fill="#1a2e35"/>
        <path id="Trazado_418" data-name="Trazado 418" d="M159.406,53.949c-.563.73-2.778-.021-5.439-.052-2.66-.122-4.913.5-5.434-.26-.228-.371.125-1.1,1.108-1.8a7.877,7.877,0,0,1,8.761.252c.942.748,1.253,1.5,1,1.855" fill="#1a2e35"/>
        <path id="Trazado_419" data-name="Trazado 419" d="M80.916,111.446A20.669,20.669,0,0,0,105.5,88.589c-.724-5.717-3.806-11.533-1.824-16.944,2.62-7.154,12.649-9.354,15.309-16.493,1.547-4.149.159-9,1.912-13.069,1.648-3.824,5.671-6.025,9.587-7.441s8.114-2.393,11.4-4.948,5.338-7.378,3.217-10.961A220.513,220.513,0,0,0,94.244,31.091c-3.8,1.418-7.789,3.124-10.035,6.5-2.376,3.573-2.262,8.189-2.063,12.475q1.464,31.35,2.926,62.7" fill="#1a2e35"/>
        <path id="Trazado_420" data-name="Trazado 420" d="M82.376,119.448a1.444,1.444,0,0,1-.375-.241l-1.036-.788c-.9-.705-2.223-1.753-3.856-3.194a41.009,41.009,0,0,1-5.473-5.759,21.469,21.469,0,0,1-4.352-9.581c-.694-3.823-.184-8.635,3-12.249a47.282,47.282,0,0,1,5.423-4.624,12.641,12.641,0,0,0,4.23-5.769c1.722-4.746.955-10.24,1.62-15.855a31.56,31.56,0,0,1,6.6-16.039,21.77,21.77,0,0,1,6.9-5.641c2.641-1.393,5.5-1.968,8.145-2.749a18.968,18.968,0,0,0,7.148-3.523,28.12,28.12,0,0,0,5.188-5.72c2.924-4.153,5.086-8.578,7.871-12.268A26.632,26.632,0,0,1,128,10.578a17.537,17.537,0,0,1,5.438-2.962c3.756-1.281,7.723-.857,10.337,1.031a9.522,9.522,0,0,1,3.672,6.968,6.945,6.945,0,0,1-1.4,4.794,4.315,4.315,0,0,1-.949.909c-.237.178-.361.261-.371.246s.094-.125.3-.326a5.081,5.081,0,0,0,.852-.954,6.9,6.9,0,0,0,1.167-4.642,9.145,9.145,0,0,0-3.608-6.529c-2.456-1.709-6.2-2.079-9.774-.81a16.871,16.871,0,0,0-5.173,2.89,26.042,26.042,0,0,0-4.4,4.76c-2.7,3.63-4.818,8.044-7.782,12.306a28.9,28.9,0,0,1-5.345,5.938,19.906,19.906,0,0,1-7.479,3.723c-2.7.8-5.478,1.373-7.963,2.694A20.813,20.813,0,0,0,88.947,46a30.7,30.7,0,0,0-6.394,15.512c-.677,5.429.109,11.006-1.728,16.054a13.572,13.572,0,0,1-4.542,6.14,47.468,47.468,0,0,0-5.365,4.5c-2.987,3.326-3.547,7.866-2.92,11.566a21.04,21.04,0,0,0,4.1,9.355,42.8,42.8,0,0,0,5.282,5.808c1.582,1.477,2.863,2.574,3.719,3.33a11.355,11.355,0,0,1,1.28,1.187" fill="#375a64"/>
        <path id="Trazado_421" data-name="Trazado 421" d="M176.846,83.057a5.594,5.594,0,0,0,1.36-2.23,8.592,8.592,0,0,0-1.329-6.834c-.808-1.295-1.9-2.583-2.995-4.04a14.138,14.138,0,0,1-2.682-5.208,18.355,18.355,0,0,1-.259-6.465c.243-2.225.693-4.487.983-6.808A26.533,26.533,0,0,0,170.4,38.56a28.967,28.967,0,0,0-5.563-9.124,26.963,26.963,0,0,0-5.53-4.677c-1.449-.921-2.314-1.337-2.284-1.4a2.923,2.923,0,0,1,.641.268,16.189,16.189,0,0,1,1.767.925,25.171,25.171,0,0,1,5.722,4.588,28.7,28.7,0,0,1,5.77,9.215,26.73,26.73,0,0,1,1.6,13.187c-.294,2.353-.747,4.608-.994,6.8a17.994,17.994,0,0,0,.211,6.264,13.757,13.757,0,0,0,2.543,5.042c1.069,1.452,2.15,2.772,2.956,4.115a8.7,8.7,0,0,1,1.189,7.132,4.531,4.531,0,0,1-1.04,1.721,2.3,2.3,0,0,1-.546.437" fill="#1a2e35"/>
      </g>
    </g>
  </g>
</svg>
