<svg xmlns="http://www.w3.org/2000/svg" xmlns:xlink="http://www.w3.org/1999/xlink" width="95.099" height="93.207" viewBox="0 0 95.099 93.207">
  <defs>
    <clipPath id="clip-path">
      <rect id="Rectángulo_15" data-name="Rectángulo 15" width="95.099" height="93.207" transform="translate(0 0)" fill="none"/>
    </clipPath>
  </defs>
  <g id="Grupo_23" data-name="Grupo 23" transform="translate(0 0)">
    <g id="Grupo_22" data-name="Grupo 22" clip-path="url(#clip-path)">
      <path id="Trazado_111" data-name="Trazado 111" d="M4.837,56.663l8.551-1.714.285,4.167,29.924.066,10.43,9.209,18.681,1.888,2.2,8.981L84.332,67.1S94.693,61.717,95.1,70.819L78.549,90.4l-38.858.806-23.075-8.5-1.471,9.272L1.894,90.513V55.191" fill="#ffe227"/>
      <path id="Trazado_112" data-name="Trazado 112" d="M1.472,91.984h11.78a1.472,1.472,0,0,0,1.471-1.471V84.2L25.8,89.181a63.17,63.17,0,0,0,22.216,4.026h19.4a16.651,16.651,0,0,0,12.27-5.4L90.7,76.468a7.8,7.8,0,0,0,2.506-5.649,6.758,6.758,0,0,0-2.4-4.883c-3.143-2.823-7.173-2.13-10.96,2.034L73.86,74.155a6.374,6.374,0,0,0-6.148-4.687H62.566v-9.5a5.492,5.492,0,0,0,2.7.732,5.647,5.647,0,0,0,5.645-5.976V29.192c0-8.3-6.17-12.08-11.9-12.08H56.944a10.681,10.681,0,0,0,2.6-7.083C59.546,4.5,55.56,0,50.663,0S41.78,4.5,41.78,10.029a10.671,10.671,0,0,0,2.6,7.083h-2.26A11.853,11.853,0,0,0,30.415,29.081V54.95a5.768,5.768,0,0,0,.688,2.694H14.723V55.191a1.472,1.472,0,0,0-1.471-1.471H1.472A1.472,1.472,0,0,0,0,55.191V90.513a1.472,1.472,0,0,0,1.471,1.471M33.358,54.95V52.145h5.4v2.58a2.944,2.944,0,0,1-2.144,2.957c-.245-.016-.49-.038-.739-.038h-.544a2.789,2.789,0,0,1-1.975-2.694m0-25.869a8.907,8.907,0,0,1,8.764-9.025H59.007c3.329,0,8.96,1.923,8.96,9.136V49.2h-5.4V31.419a1.472,1.472,0,1,0-2.943,0V45.994H41.7V31.419a1.472,1.472,0,1,0-2.944,0V49.2h-5.4ZM44.723,10.029c0-3.907,2.664-7.086,5.94-7.086S56.6,6.122,56.6,10.029s-2.665,7.083-5.939,7.083-5.94-3.178-5.94-7.083m23.244,44.7a2.934,2.934,0,0,1-2.243,3,2.746,2.746,0,0,1-3.158-2.77V52.145h5.4ZM59.623,69.169H54.129a8.689,8.689,0,0,1-2-.778v-9.16a1.471,1.471,0,0,0-2.943,0V66.05l-4.936-4.935A11.924,11.924,0,0,0,41.7,59.182V48.937H59.623V69.169ZM35.877,60.588c.235,0,.465.05.7.069A8.966,8.966,0,0,1,41.7,62.81c.153.135.326.243.469.386l5.75,5.751c.08.078.166.146.247.222a11.554,11.554,0,0,0,1.109.924c.261.195.528.377.805.548.256.157.513.312.779.45a12.108,12.108,0,0,0,5.438,1.32H67.712a3.441,3.441,0,0,1,3.418,3.794,3.1,3.1,0,0,1-.413,1.223c-1.252,1.625-2.137,1.824-2.7,1.824H48.234A17.5,17.5,0,0,1,39.306,76.8a1.471,1.471,0,0,0-1.5,2.529,20.428,20.428,0,0,0,10.43,2.862H68.02c1.827,0,3.458-.969,4.986-2.929,0,0,.007,0,.009-.006l8.978-9.277c2.652-2.913,4.863-3.64,6.843-1.858A3.833,3.833,0,0,1,90.261,70.9,4.93,4.93,0,0,1,88.6,74.4L77.54,85.792a13.723,13.723,0,0,1-10.126,4.472h-19.4a60.145,60.145,0,0,1-21.1-3.8l-12.2-5.489V60.588H35.877ZM2.944,56.663H11.78V89.041H2.944Z" fill="#3e145e"/>
    </g>
  </g>
</svg>
