<svg id="Grupo_342" data-name="Grupo 342" xmlns="http://www.w3.org/2000/svg" xmlns:xlink="http://www.w3.org/1999/xlink" width="519.999" height="376.891" viewBox="0 0 519.999 376.891">
  <defs>
    <clipPath id="clip-path">
      <rect id="Rectángulo_227" data-name="Rectángulo 227" width="519.999" height="376.891" fill="none"/>
    </clipPath>
    <clipPath id="clip-path-3">
      <rect id="Rectángulo_187" data-name="Rectángulo 187" width="351.413" height="333.767" transform="translate(88.879 35.698)" fill="none"/>
    </clipPath>
    <clipPath id="clip-path-5">
      <rect id="Rectángulo_188" data-name="Rectángulo 188" width="78.155" height="44.197" transform="translate(275.134 323.457)" fill="none"/>
    </clipPath>
    <clipPath id="clip-path-6">
      <rect id="Rectángulo_190" data-name="Rectángulo 190" width="70.327" height="132.816" transform="translate(98.207 234.239)" fill="none"/>
    </clipPath>
    <clipPath id="clip-path-7">
      <rect id="Rectángulo_197" data-name="Rectángulo 197" width="8.57" height="8.58" transform="translate(103.889 347.291)" fill="none"/>
    </clipPath>
    <clipPath id="clip-path-8">
      <rect id="Rectángulo_198" data-name="Rectángulo 198" width="11.348" height="11.289" transform="translate(123.827 347.291)" fill="none"/>
    </clipPath>
    <clipPath id="clip-path-9">
      <rect id="Rectángulo_205" data-name="Rectángulo 205" width="28.784" height="28.778" transform="translate(34.393 273.854)" fill="none"/>
    </clipPath>
    <clipPath id="clip-path-10">
      <rect id="Rectángulo_206" data-name="Rectángulo 206" width="30.243" height="30.243" transform="translate(44.934 320.489)" fill="none"/>
    </clipPath>
    <clipPath id="clip-path-11">
      <rect id="Rectángulo_207" data-name="Rectángulo 207" width="95.893" height="106.546" transform="translate(424.106 223.647)" fill="none"/>
    </clipPath>
    <clipPath id="clip-path-12">
      <rect id="Rectángulo_208" data-name="Rectángulo 208" width="58.614" height="135.838" transform="translate(342.476 231.333)" fill="none"/>
    </clipPath>
    <clipPath id="clip-path-13">
      <rect id="Rectángulo_209" data-name="Rectángulo 209" width="34.153" height="29.883" transform="translate(357.361 330.022)" fill="none"/>
    </clipPath>
    <clipPath id="clip-path-14">
      <rect id="Rectángulo_210" data-name="Rectángulo 210" width="7.406" height="14.287" transform="translate(388.41 339.812)" fill="none"/>
    </clipPath>
    <clipPath id="clip-path-15">
      <rect id="Rectángulo_211" data-name="Rectángulo 211" width="7.404" height="14.287" transform="translate(353.289 339.812)" fill="none"/>
    </clipPath>
    <clipPath id="clip-path-16">
      <rect id="Rectángulo_212" data-name="Rectángulo 212" width="98.01" height="99.624" transform="translate(411.515 276.453)" fill="none"/>
    </clipPath>
    <clipPath id="clip-path-17">
      <rect id="Rectángulo_216" data-name="Rectángulo 216" width="42.421" height="69.962" transform="translate(415.001 284.747)" fill="none"/>
    </clipPath>
    <clipPath id="clip-path-19">
      <rect id="Rectángulo_218" data-name="Rectángulo 218" width="50.086" height="54.408" transform="translate(410.281 312.478)" fill="none"/>
    </clipPath>
    <clipPath id="clip-path-20">
      <rect id="Rectángulo_220" data-name="Rectángulo 220" width="30.515" height="29.047" transform="translate(472.944 339.119)" fill="none"/>
    </clipPath>
    <clipPath id="clip-path-21">
      <rect id="Rectángulo_222" data-name="Rectángulo 222" width="156.697" height="155.454" transform="translate(175.48 213.579)" fill="none"/>
    </clipPath>
    <clipPath id="clip-path-22">
      <rect id="Rectángulo_225" data-name="Rectángulo 225" width="51.474" height="88.932" transform="translate(162.976 285.088)" fill="none"/>
    </clipPath>
  </defs>
  <g id="Grupo_341" data-name="Grupo 341" clip-path="url(#clip-path)">
    <g id="Grupo_324" data-name="Grupo 324">
      <g id="Grupo_323" data-name="Grupo 323" clip-path="url(#clip-path)">
        <g id="Grupo_286" data-name="Grupo 286" opacity="0.7">
          <g id="Grupo_285" data-name="Grupo 285">
            <g id="Grupo_284" data-name="Grupo 284" clip-path="url(#clip-path-3)">
              <path id="Trazado_1390" data-name="Trazado 1390" d="M199.021,56.243S139.249,86.7,109.434,133.634s-27.455,107.255,8.774,152.087S223.68,324.645,281.653,353.03s121.946,22.545,149.356-37.6-13.92-82.611-21.026-152.208S340.141-8.291,199.021,56.243" fill="#eceffe"/>
              <g id="Grupo_283" data-name="Grupo 283" opacity="0.7">
                <g id="Grupo_282" data-name="Grupo 282">
                  <g id="Grupo_281" data-name="Grupo 281" clip-path="url(#clip-path-3)">
                    <path id="Trazado_1391" data-name="Trazado 1391" d="M199.021,56.243S139.249,86.7,109.434,133.634s-27.455,107.255,8.774,152.087S223.68,324.645,281.653,353.03s121.946,22.545,149.356-37.6-13.92-82.611-21.026-152.208S340.141-8.291,199.021,56.243" fill="#eceffe"/>
                  </g>
                </g>
              </g>
            </g>
          </g>
        </g>
        <path id="Trazado_1392" data-name="Trazado 1392" d="M303.412,364.588c0,6.519-23.428,11.8-52.327,11.8s-52.328-5.285-52.328-11.8,23.427-11.8,52.328-11.8,52.327,5.284,52.327,11.8" fill="#1a2e35"/>
        <path id="Trazado_1393" data-name="Trazado 1393" d="M303.412,364.588c0,6.519-23.428,11.8-52.327,11.8s-52.328-5.285-52.328-11.8,23.427-11.8,52.328-11.8S303.412,358.069,303.412,364.588Z" fill="none" stroke="#1a2e35" stroke-linecap="round" stroke-linejoin="round" stroke-width="1"/>
        <path id="Trazado_1394" data-name="Trazado 1394" d="M285.539,120.521v9.559l13.9,6.372s1.449-6.372.289-17.669Z" fill="#999"/>
        <path id="Trazado_1395" data-name="Trazado 1395" d="M285.539,120.521v9.559l13.9,6.372s1.449-6.372.289-17.669Z" fill="none" stroke="#1a2e35" stroke-linecap="round" stroke-linejoin="round" stroke-width="1"/>
        <path id="Trazado_1396" data-name="Trazado 1396" d="M216.552,349.933a99.008,99.008,0,0,0-9.028,8.764c-3.984,4.514-4.781,9.029-1.063,11.154s9.561,1.593,15.934-2.391,6.107-5.577,9.826-6.9,6.107-3.983,6.107-8.232-13.544-4.781-16.464-5.046-5.312,2.655-5.312,2.655" fill="#fff"/>
        <path id="Trazado_1397" data-name="Trazado 1397" d="M216.552,349.933a99.008,99.008,0,0,0-9.028,8.764c-3.984,4.514-4.781,9.029-1.063,11.154s9.561,1.593,15.934-2.391,6.107-5.577,9.826-6.9,6.107-3.983,6.107-8.232-13.544-4.781-16.464-5.046S216.552,349.933,216.552,349.933Z" fill="none" stroke="#1a2e35" stroke-linecap="round" stroke-linejoin="round" stroke-width="1"/>
        <path id="Trazado_1398" data-name="Trazado 1398" d="M238.329,352.324s-6,2.653-8.9,5.074-8.715,11.137-15.493,11.137a20.122,20.122,0,0,1-9.865-2.573,4.4,4.4,0,0,0,2.394,3.889c3.718,2.124,9.56,1.593,15.933-2.39s6.108-5.577,9.827-6.9S238.329,356.573,238.329,352.324Z" fill="none" stroke="#1a2e35" stroke-linecap="round" stroke-linejoin="round" stroke-width="1"/>
        <path id="Trazado_1399" data-name="Trazado 1399" d="M283.941,349.933a99.009,99.009,0,0,1,9.028,8.764c3.985,4.514,4.781,9.029,1.063,11.154s-9.56,1.593-15.934-2.391-6.107-5.577-9.825-6.9-6.108-3.983-6.108-8.232,13.544-4.781,16.464-5.046,5.312,2.655,5.312,2.655" fill="#fff"/>
        <path id="Trazado_1400" data-name="Trazado 1400" d="M283.941,349.933a99.009,99.009,0,0,1,9.028,8.764c3.985,4.514,4.781,9.029,1.063,11.154s-9.56,1.593-15.934-2.391-6.107-5.577-9.825-6.9-6.108-3.983-6.108-8.232,13.544-4.781,16.464-5.046S283.941,349.933,283.941,349.933Z" fill="none" stroke="#1a2e35" stroke-linecap="round" stroke-linejoin="round" stroke-width="1"/>
        <path id="Trazado_1401" data-name="Trazado 1401" d="M262.164,352.324s6,2.653,8.9,5.074,8.715,11.137,15.493,11.137a20.122,20.122,0,0,0,9.865-2.573,4.4,4.4,0,0,1-2.394,3.889c-3.718,2.124-9.559,1.593-15.933-2.39s-6.108-5.577-9.826-6.9S262.164,356.573,262.164,352.324Z" fill="none" stroke="#1a2e35" stroke-linecap="round" stroke-linejoin="round" stroke-width="1"/>
        <path id="Trazado_1402" data-name="Trazado 1402" d="M208.851,199.094s1.594,59.751,2.391,68.515,3.186,28.68,3.186,29.744,1.328,45.144,1.328,45.144l-2.39,3.984.8,5.578,10.622,2.123c5.311,1.062,12.215,2.657,13.278,1.6s1.328-3.188,1.859-6.11,1.593-8.231.532-12.481,1.327-49.4,1.592-50.456,6.374-44.614,6.374-44.614,3.984,35.85,6.9,46.738,1.859,27.088,2.921,33.461,3.186,27.884,3.452,29.477.8,3.985.8,3.985,13.278-1.86,15.668-2.922a51.2,51.2,0,0,1,7.436-2.125s.8-15.137-.266-21.244a85.75,85.75,0,0,1-1.328-13.014c0-1.858,1.328-60.813,1.328-60.813l-1.328-57.1s-35.85,3.718-49.66,1.062-25.228-4.249-25.228-4.249Z" fill="#ff4f5b"/>
        <path id="Trazado_1403" data-name="Trazado 1403" d="M208.851,199.094s1.594,59.751,2.391,68.515,3.186,28.68,3.186,29.744,1.328,45.144,1.328,45.144l-2.39,3.984.8,5.578,10.622,2.123c5.311,1.062,12.215,2.657,13.278,1.6s1.328-3.188,1.859-6.11,1.593-8.231.532-12.481,1.327-49.4,1.592-50.456,6.374-44.614,6.374-44.614,3.984,35.85,6.9,46.738,1.859,27.088,2.921,33.461,3.186,27.884,3.452,29.477.8,3.985.8,3.985,13.278-1.86,15.668-2.922a51.2,51.2,0,0,1,7.436-2.125s.8-15.137-.266-21.244a85.75,85.75,0,0,1-1.328-13.014c0-1.858,1.328-60.813,1.328-60.813l-1.328-57.1s-35.85,3.718-49.66,1.062-25.228-4.249-25.228-4.249Z" fill="none" stroke="#231f20" stroke-miterlimit="10" stroke-width="1"/>
        <path id="Trazado_1404" data-name="Trazado 1404" d="M234.345,199.626c-13.81-2.656-25.229-4.249-25.229-4.249l-.265,3.718s.092,3.424.241,8.745c6.327,1.772,19.191,4.881,31.615,4.881,13.146,0,34.071-3.976,43.49-5.913l-.192-8.244s-35.85,3.717-49.66,1.062" fill="#ff4f5b"/>
        <path id="Trazado_1405" data-name="Trazado 1405" d="M234.345,199.626c-13.81-2.656-25.229-4.249-25.229-4.249l-.265,3.718s.092,3.424.241,8.745c6.327,1.772,19.191,4.881,31.615,4.881,13.146,0,34.071-3.976,43.49-5.913l-.192-8.244S248.155,202.281,234.345,199.626Z" fill="none" stroke="#231f20" stroke-miterlimit="10" stroke-width="1"/>
        <path id="Trazado_1406" data-name="Trazado 1406" d="M280.471,334.183c.173,1.832.277,2.879.277,2.879" fill="#ff4f5b"/>
        <path id="Trazado_1407" data-name="Trazado 1407" d="M280.471,334.183c.173,1.832.277,2.879.277,2.879" fill="none" stroke="#231f20" stroke-miterlimit="10" stroke-width="1"/>
        <path id="Trazado_1408" data-name="Trazado 1408" d="M276.391,213.112s.969,51.323.969,70.69c0,13.4,1.621,33.739,2.621,45.012" fill="#ff4f5b"/>
        <path id="Trazado_1409" data-name="Trazado 1409" d="M276.391,213.112s.969,51.323.969,70.69c0,13.4,1.621,33.739,2.621,45.012" fill="none" stroke="#231f20" stroke-miterlimit="10" stroke-width="1"/>
        <line id="Línea_58" data-name="Línea 58" x2="2.421" y2="55.681" transform="translate(222.647 210.207)" fill="#ff4f5b"/>
        <line id="Línea_59" data-name="Línea 59" x2="2.421" y2="55.681" transform="translate(222.647 210.207)" fill="none" stroke="#231f20" stroke-miterlimit="10" stroke-width="1"/>
        <line id="Línea_60" data-name="Línea 60" y2="9.199" transform="translate(224.583 270.246)" fill="#ff4f5b"/>
        <line id="Línea_61" data-name="Línea 61" y2="9.199" transform="translate(224.583 270.246)" fill="none" stroke="#231f20" stroke-miterlimit="10" stroke-width="1"/>
        <path id="Trazado_1410" data-name="Trazado 1410" d="M237.168,58.826a8.208,8.208,0,0,0-6.662,3.476,48.294,48.294,0,0,1-5.5,6.083L201.252,81.129l2.317,90.659.87,30.993s18.247,6.082,35.625,6.082,48.372-6.952,48.372-6.952S285.828,81.129,286.7,81.129s-17.089-15.641-25.2-19.695-24.33-2.608-24.33-2.608" fill="#ff4f5b"/>
        <path id="Trazado_1411" data-name="Trazado 1411" d="M237.168,58.826a8.208,8.208,0,0,0-6.662,3.476,48.294,48.294,0,0,1-5.5,6.083L201.252,81.129l2.317,90.659.87,30.993s18.247,6.082,35.625,6.082,48.372-6.952,48.372-6.952S285.828,81.129,286.7,81.129s-17.089-15.641-25.2-19.695S237.168,58.826,237.168,58.826Z" fill="none" stroke="#231f20" stroke-miterlimit="10" stroke-width="1"/>
        <path id="Trazado_1412" data-name="Trazado 1412" d="M230.394,69.794s9.2,16.947,13.073,24.693S254.6,113.371,254.6,113.371l12.1-32.441" fill="#ff4f5b"/>
        <path id="Trazado_1413" data-name="Trazado 1413" d="M230.394,69.794s9.2,16.947,13.073,24.693S254.6,113.371,254.6,113.371l12.1-32.441" fill="none" stroke="#231f20" stroke-miterlimit="10" stroke-width="1"/>
        <path id="Trazado_1414" data-name="Trazado 1414" d="M237.2,177.3l-.467-13.522-27.352-1.594s.265,19.917.8,20.979" fill="#ff4f5b"/>
        <path id="Trazado_1415" data-name="Trazado 1415" d="M237.2,177.3l-.467-13.522-27.352-1.594s.265,19.917.8,20.979" fill="none" stroke="#231f20" stroke-miterlimit="10" stroke-width="1"/>
        <line id="Línea_62" data-name="Línea 62" x1="0.131" y1="3.794" transform="translate(237.401 183.085)" fill="#ff4f5b"/>
        <line id="Línea_63" data-name="Línea 63" x1="0.131" y1="3.794" transform="translate(237.401 183.085)" fill="none" stroke="#231f20" stroke-miterlimit="10" stroke-width="1"/>
        <path id="Trazado_1416" data-name="Trazado 1416" d="M269.93,184.754l-.8-22.307s9.56.8,17.526-4.514" fill="#ff4f5b"/>
        <path id="Trazado_1417" data-name="Trazado 1417" d="M269.93,184.754l-.8-22.307s9.56.8,17.526-4.514" fill="none" stroke="#231f20" stroke-miterlimit="10" stroke-width="1"/>
        <path id="Trazado_1418" data-name="Trazado 1418" d="M228.947,109.311c.849,2.654,3.4,4.208,5.711,3.471s3.485-3.487,2.636-6.141-3.406-4.208-5.71-3.471S228.1,106.657,228.947,109.311Z" fill="none" stroke="#1a2e35" stroke-linecap="round" stroke-linejoin="round" stroke-width="1"/>
        <path id="Trazado_1419" data-name="Trazado 1419" d="M229.225,62.914s-3.078,11.8,3.9,43.823" fill="none" stroke="#1a2e35" stroke-linecap="round" stroke-linejoin="round" stroke-width="2"/>
        <path id="Trazado_1420" data-name="Trazado 1420" d="M235.283,107.845a2.418,2.418,0,1,1-1.427-3.383A2.611,2.611,0,0,1,235.283,107.845Z" fill="none" stroke="#1a2e35" stroke-linecap="round" stroke-linejoin="round" stroke-width="1"/>
        <path id="Trazado_1421" data-name="Trazado 1421" d="M285.539,79.391s4.345,3.186,4.634,4.345,15.062,36.5,15.062,36.5L283.8,123.417l.29-20.854" fill="#ff4f5b"/>
        <path id="Trazado_1422" data-name="Trazado 1422" d="M285.539,79.391s4.345,3.186,4.634,4.345,15.062,36.5,15.062,36.5L283.8,123.417l.29-20.854" fill="none" stroke="#231f20" stroke-miterlimit="10" stroke-width="1"/>
        <path id="Trazado_1423" data-name="Trazado 1423" d="M204.149,79.971s-4.924.579-6.083,4.345-9.558,42-9.558,42l30.7-2.9-2.9-28.675" fill="#ff4f5b"/>
        <path id="Trazado_1424" data-name="Trazado 1424" d="M204.149,79.971s-4.924.579-6.083,4.345-9.558,42-9.558,42l30.7-2.9-2.9-28.675" fill="none" stroke="#231f20" stroke-miterlimit="10" stroke-width="1"/>
        <path id="Trazado_1425" data-name="Trazado 1425" d="M263.452,61.108s7.611,4.347,8.355,15.145-.022,13.538-.022,13.538" fill="none" stroke="#1a2e35" stroke-linecap="round" stroke-linejoin="round" stroke-width="2"/>
        <path id="Trazado_1426" data-name="Trazado 1426" d="M275.249,103.625s-.677,12.763-2.068,16.46-6.893,8.056-11.247,8.756" fill="none" stroke="#1a2e35" stroke-linecap="round" stroke-linejoin="round" stroke-width="1"/>
        <path id="Trazado_1427" data-name="Trazado 1427" d="M265.349,102.239s-.608,14.736-.664,17.475,2.7,7.506,6.656,12.08" fill="none" stroke="#1a2e35" stroke-linecap="round" stroke-linejoin="round" stroke-width="1"/>
        <path id="Trazado_1428" data-name="Trazado 1428" d="M272.52,133.4l.123-.1a1.268,1.268,0,0,0,.186-1.784l-.562-.693a1.269,1.269,0,0,0-1.784-.187l-.123.1a1.27,1.27,0,0,0-.187,1.784l.563.693a1.269,1.269,0,0,0,1.784.187" fill="#1a2e35"/>
        <path id="Trazado_1429" data-name="Trazado 1429" d="M260.357,129.293l.029.154a1.269,1.269,0,0,0,1.483,1.011l.877-.166a1.268,1.268,0,0,0,1.009-1.482l-.029-.156a1.268,1.268,0,0,0-1.482-1.01l-.877.167a1.266,1.266,0,0,0-1.01,1.482" fill="#1a2e35"/>
        <path id="Trazado_1430" data-name="Trazado 1430" d="M275.4,104.592l-.289-10.736a4.513,4.513,0,0,0-9.009-.247l-.891,10.884" fill="none" stroke="#1a2e35" stroke-linecap="round" stroke-linejoin="round" stroke-width="2"/>
        <path id="Trazado_1431" data-name="Trazado 1431" d="M300.311,129.211l-6.951-1.448-24.33-4.055-34.123-6.5-8.088-3.57s-7.644-9.969-8.308-10.966-9.3,2.493-8.972,3.822,1.329,14.622,1.994,15.452,8.141.831,8.141.831,35.634,17.2,37.121,17.83c20.571,8.678,30.482,8.589,33.958,9.168s5.8-.85,7.823-3.176,1.735-17.388,1.735-17.388" fill="#999"/>
        <path id="Trazado_1432" data-name="Trazado 1432" d="M300.311,129.211l-6.951-1.448-24.33-4.055-34.123-6.5-8.088-3.57s-7.644-9.969-8.308-10.966-9.3,2.493-8.972,3.822,1.329,14.622,1.994,15.452,8.141.831,8.141.831,35.634,17.2,37.121,17.83c20.571,8.678,30.482,8.589,33.958,9.168s5.8-.85,7.823-3.176S300.311,129.211,300.311,129.211Z" fill="none" stroke="#1a2e35" stroke-linecap="round" stroke-linejoin="round" stroke-width="1"/>
        <path id="Trazado_1433" data-name="Trazado 1433" d="M217.514,102.506s-4.154.166-10.3,4.32c-2.291,1.548-3.489,2.659-3.489,3.323a10.3,10.3,0,0,0,.664,2.326,64.123,64.123,0,0,1,12.462-4.486" fill="#999"/>
        <path id="Trazado_1434" data-name="Trazado 1434" d="M217.514,102.506s-4.154.166-10.3,4.32c-2.291,1.548-3.489,2.659-3.489,3.323a10.3,10.3,0,0,0,.664,2.326,64.123,64.123,0,0,1,12.462-4.486" fill="none" stroke="#1a2e35" stroke-linecap="round" stroke-linejoin="round" stroke-width="1"/>
        <path id="Trazado_1435" data-name="Trazado 1435" d="M219.175,113.14s-11.3,2.825-13.126,3.157-2.16-1.5-2.16-2.16.5-1.662,2.492-2.659,11.964-3.655,11.964-3.655" fill="#999"/>
        <path id="Trazado_1436" data-name="Trazado 1436" d="M219.175,113.14s-11.3,2.825-13.126,3.157-2.16-1.5-2.16-2.16.5-1.662,2.492-2.659,11.964-3.655,11.964-3.655" fill="none" stroke="#1a2e35" stroke-linecap="round" stroke-linejoin="round" stroke-width="1"/>
        <path id="Trazado_1437" data-name="Trazado 1437" d="M220.338,118.291s-13.126,1.329-14.123.5a3.191,3.191,0,0,1-.831-2.493l11.8-2.492" fill="#999"/>
        <path id="Trazado_1438" data-name="Trazado 1438" d="M220.338,118.291s-13.126,1.329-14.123.5a3.191,3.191,0,0,1-.831-2.493l11.8-2.492" fill="none" stroke="#1a2e35" stroke-linecap="round" stroke-linejoin="round" stroke-width="1"/>
        <path id="Trazado_1439" data-name="Trazado 1439" d="M216.683,118.955l-10.136.5s.5,1.495,1,1.661a44.911,44.911,0,0,0,7.312,1.163,34.548,34.548,0,0,1,4.818.5" fill="#999"/>
        <path id="Trazado_1440" data-name="Trazado 1440" d="M216.683,118.955l-10.136.5s.5,1.495,1,1.661a44.911,44.911,0,0,0,7.312,1.163,34.548,34.548,0,0,1,4.818.5" fill="none" stroke="#1a2e35" stroke-linecap="round" stroke-linejoin="round" stroke-width="1"/>
        <path id="Trazado_1441" data-name="Trazado 1441" d="M194.88,125.735s4.634,19.985,5.793,21.434,10.717,0,20.275-2.9S271.057,124,271.057,124l5.793,1.158s-2.318-7.241-6.372-7.53-51.268,5.793-51.268,5.793Z" fill="#999"/>
        <path id="Trazado_1442" data-name="Trazado 1442" d="M194.88,125.735s4.634,19.985,5.793,21.434,10.717,0,20.275-2.9S271.057,124,271.057,124l5.793,1.158s-2.318-7.241-6.372-7.53-51.268,5.793-51.268,5.793Z" fill="none" stroke="#1a2e35" stroke-linecap="round" stroke-linejoin="round" stroke-width="1"/>
        <path id="Trazado_1443" data-name="Trazado 1443" d="M235.43,46.082s.008.427.025,1.158c.091,3.815.452,15.911,1.423,18.827,1.159,3.476,16.8,32.73,17.958,30.413s8.4-33.888,8.4-33.888V50.137s-3.766,3.186-10.717,3.186-17.09-7.241-17.09-7.241" fill="#999"/>
        <path id="Trazado_1444" data-name="Trazado 1444" d="M235.43,46.082s.008.427.025,1.158c.091,3.815.452,15.911,1.423,18.827,1.159,3.476,16.8,32.73,17.958,30.413s8.4-33.888,8.4-33.888V50.137s-3.766,3.186-10.717,3.186S235.43,46.082,235.43,46.082Z" fill="none" stroke="#1a2e35" stroke-linecap="round" stroke-linejoin="round" stroke-width="1"/>
        <path id="Trazado_1445" data-name="Trazado 1445" d="M258.6,63.237a38.36,38.36,0,0,0,4.635-3.3v-9.8s-3.766,3.187-10.717,3.187-17.089-7.241-17.089-7.241.007.426.025,1.157c.032,1.343.1,3.715.211,6.347a11.443,11.443,0,0,0,.922,1.25c2.028,2.317,11.586,8.11,13.9,8.69s5.5,1.158,8.109-.29" fill="#1a2e35"/>
        <path id="Trazado_1446" data-name="Trazado 1446" d="M258.6,63.237a38.36,38.36,0,0,0,4.635-3.3v-9.8s-3.766,3.187-10.717,3.187-17.089-7.241-17.089-7.241.007.426.025,1.157c.032,1.343.1,3.715.211,6.347a11.443,11.443,0,0,0,.922,1.25c2.028,2.317,11.586,8.11,13.9,8.69S256,64.685,258.6,63.237Z" fill="none" stroke="#1a2e35" stroke-linecap="round" stroke-linejoin="round" stroke-width="1"/>
        <path id="Trazado_1447" data-name="Trazado 1447" d="M270.188,29.283s4.635-2.606,4.635,2.317-4.345,10.717-4.345,10.717Z" fill="#999"/>
        <path id="Trazado_1448" data-name="Trazado 1448" d="M270.188,29.283s4.635-2.606,4.635,2.317-4.345,10.717-4.345,10.717Z" fill="none" stroke="#1a2e35" stroke-linecap="round" stroke-linejoin="round" stroke-width="1"/>
        <path id="Trazado_1449" data-name="Trazado 1449" d="M228.769,29.572s-6.372-1.737-6.372,4.056,5.793,9.557,5.793,9.557h4.055s2.317,5.793,4.344,8.111,11.586,8.109,13.9,8.69,5.5,1.157,8.109-.291a48.7,48.7,0,0,0,8.979-7.241c1.159-1.447,3.186-11.3,3.186-11.3s.58-17.668-.579-23.752S261.5,1.766,251.072.607,230.8,7.848,229.348,14.51s-.579,15.062-.579,15.062" fill="#999"/>
        <path id="Trazado_1450" data-name="Trazado 1450" d="M228.769,29.572s-6.372-1.737-6.372,4.056,5.793,9.557,5.793,9.557h4.055s2.317,5.793,4.344,8.111,11.586,8.109,13.9,8.69,5.5,1.157,8.109-.291a48.7,48.7,0,0,0,8.979-7.241c1.159-1.447,3.186-11.3,3.186-11.3s.58-17.668-.579-23.752S261.5,1.766,251.072.607,230.8,7.848,229.348,14.51,228.769,29.572,228.769,29.572Z" fill="none" stroke="#1a2e35" stroke-linecap="round" stroke-linejoin="round" stroke-width="1"/>
        <path id="Trazado_1451" data-name="Trazado 1451" d="M247.6,34.207s-2.028,4.055,1.448,5.213,7.821.87,8.689-.868-.579-3.766-.579-3.766" fill="none" stroke="#1a2e35" stroke-linecap="round" stroke-linejoin="round" stroke-width="1"/>
        <path id="Trazado_1452" data-name="Trazado 1452" d="M244.12,41.448s7.241,6.083,17.09.29" fill="none" stroke="#1a2e35" stroke-linecap="round" stroke-linejoin="round" stroke-width="1"/>
        <path id="Trazado_1453" data-name="Trazado 1453" d="M248.175,46.951s6.082,3.476,10.138-.579" fill="none" stroke="#1a2e35" stroke-linecap="round" stroke-linejoin="round" stroke-width="1"/>
        <path id="Trazado_1454" data-name="Trazado 1454" d="M246.148,28.414c0,1.28-.648,2.317-1.448,2.317s-1.448-1.037-1.448-2.317S243.9,26.1,244.7,26.1s1.448,1.037,1.448,2.317" fill="#1a2e35"/>
        <path id="Trazado_1455" data-name="Trazado 1455" d="M260.34,28.124c0,1.28-.648,2.317-1.448,2.317s-1.448-1.037-1.448-2.317.648-2.317,1.448-2.317,1.448,1.037,1.448,2.317" fill="#1a2e35"/>
        <path id="Trazado_1456" data-name="Trazado 1456" d="M240.644,25.228s1.448-2.317,6.952-1.448" fill="none" stroke="#1a2e35" stroke-linecap="round" stroke-linejoin="round" stroke-width="1"/>
        <path id="Trazado_1457" data-name="Trazado 1457" d="M256.575,24.069s2.606-4.055,6.662,0" fill="none" stroke="#1a2e35" stroke-linecap="round" stroke-linejoin="round" stroke-width="1"/>
        <path id="Trazado_1458" data-name="Trazado 1458" d="M270.188,17.407a16.249,16.249,0,0,0-1.926-4.872,17.83,17.83,0,0,0-.35,4.876c.423,2.117,1.9,5.081,1.9,6.563s-.212,7.41.847,6.563a1.116,1.116,0,0,0,.244-.372,87.207,87.207,0,0,0-.72-12.758" fill="#1a2e35"/>
        <path id="Trazado_1459" data-name="Trazado 1459" d="M270.188,17.407a16.249,16.249,0,0,0-1.926-4.872,17.83,17.83,0,0,0-.35,4.876c.423,2.117,1.9,5.081,1.9,6.563s-.212,7.41.847,6.563a1.116,1.116,0,0,0,.244-.372A87.207,87.207,0,0,0,270.188,17.407Z" fill="none" stroke="#1a2e35" stroke-linecap="round" stroke-linejoin="round" stroke-width="1"/>
        <path id="Trazado_1460" data-name="Trazado 1460" d="M255.632,5.343a40.819,40.819,0,0,0,5.535-.672,21.16,21.16,0,0,0-10.1-4.063C240.644-.551,230.8,7.849,229.348,14.51s-.579,15.062-.579,15.062,2.3,1.6,3.151-.094,0-4.446.847-7.409,2.117-4.447,2.329-6.775-1.271-5.717-.424-7.622,6.14-5.5,9.527-4.234a29.526,29.526,0,0,0,11.433,1.9" fill="#1a2e35"/>
        <path id="Trazado_1461" data-name="Trazado 1461" d="M255.632,5.343a40.819,40.819,0,0,0,5.535-.672,21.16,21.16,0,0,0-10.1-4.063C240.644-.551,230.8,7.849,229.348,14.51s-.579,15.062-.579,15.062,2.3,1.6,3.151-.094,0-4.446.847-7.409,2.117-4.447,2.329-6.775-1.271-5.717-.424-7.622,6.14-5.5,9.527-4.234A29.526,29.526,0,0,0,255.632,5.343Z" fill="none" stroke="#1a2e35" stroke-linecap="round" stroke-linejoin="round" stroke-width="1"/>
        <g id="Grupo_289" data-name="Grupo 289" opacity="0.49" style="mix-blend-mode: color-dodge;isolation: isolate">
          <g id="Grupo_288" data-name="Grupo 288">
            <g id="Grupo_287" data-name="Grupo 287" clip-path="url(#clip-path-5)">
              <path id="Trazado_1462" data-name="Trazado 1462" d="M349.85,350.428l-1.82-9.649-5.039,17.56-3.275-14.084-1.459,15.11-2.539-26.788-.978,0-2.35,22.753L328.209,343.7l-2.428,8.849H314.63l-2.075-12.789L309.1,350.443l-1.75-6.126-3.829,17.089-3.622-37.95-3.769,31.9-4.636-13.263-1.6,10.458h-4.5l-4.487-6.957h-5.775v.984h5.239l4.487,6.956h5.882l1.127-7.385,4.737,13.552,3.186-26.977,3.335,34.934,4.336-19.353,1.577,5.518,3.2-9.88,1.554,9.591h12.739l1.8-6.576,4.59,12.768,2.281-22.106,2.557,26.961h.979l1.375-14.25,2.773,11.925,4.94-17.218,1.2,6.378h4.252v-.983Z" fill="#919191"/>
            </g>
          </g>
        </g>
        <rect id="Rectángulo_189" data-name="Rectángulo 189" width="42.338" height="26.26" transform="translate(36.431 230.342)" fill="#c299f6"/>
        <path id="Trazado_1463" data-name="Trazado 1463" d="M56.875,236.041H52.657a.562.562,0,0,1-.532-.384l-.45-1.348a.563.563,0,0,1,.534-.74h5.113a.562.562,0,0,1,.534.74l-.449,1.348a.561.561,0,0,1-.532.384" fill="#fff"/>
        <path id="Trazado_1464" data-name="Trazado 1464" d="M56.964,236.6l.01,4.216a.561.561,0,0,0,.386.532l1.347.446a.563.563,0,0,0,.739-.535l-.011-5.114a.562.562,0,0,0-.741-.532l-1.346.452a.562.562,0,0,0-.384.535" fill="#fff"/>
        <path id="Trazado_1465" data-name="Trazado 1465" d="M52.479,244.966l-.01,4.217a.562.562,0,0,1-.385.532l-1.348.446a.563.563,0,0,1-.739-.534l.011-5.116a.563.563,0,0,1,.742-.531l1.346.452a.563.563,0,0,1,.383.534" fill="#fff"/>
        <path id="Trazado_1466" data-name="Trazado 1466" d="M52.658,250.05h4.217a.559.559,0,0,1,.533.384l.449,1.346a.563.563,0,0,1-.534.742H52.21a.563.563,0,0,1-.534-.742l.45-1.346a.558.558,0,0,1,.532-.384" fill="#fff"/>
        <path id="Trazado_1467" data-name="Trazado 1467" d="M56.558,241.824H53.01a.5.5,0,0,0-.432.238l-.425.737a.406.406,0,0,0,0,.41l.425.735a.493.493,0,0,0,.432.238h3.548a.493.493,0,0,0,.434-.238l.423-.735a.406.406,0,0,0,0-.41l-.423-.737a.5.5,0,0,0-.434-.238" fill="#fff"/>
        <path id="Trazado_1468" data-name="Trazado 1468" d="M44.369,234.989l-.025,5.871a.784.784,0,0,0,.424.743l1.5.63c.4.169.825-.207.827-.74l.03-7.122c0-.534-.414-.913-.819-.744l-1.5.621a.789.789,0,0,0-.432.741" fill="#fff"/>
        <path id="Trazado_1469" data-name="Trazado 1469" d="M44.289,244.989l-.026,5.937a.8.8,0,0,0,.425.752l1.5.637c.4.172.824-.209.827-.75l.03-7.2c0-.539-.414-.922-.82-.752l-1.5.629a.8.8,0,0,0-.431.751" fill="#fff"/>
        <path id="Trazado_1470" data-name="Trazado 1470" d="M68.365,235.979l-4.236-.023a.569.569,0,0,1-.534-.391l-.444-1.356a.566.566,0,0,1,.54-.741l5.139.03a.564.564,0,0,1,.531.747L68.9,235.6a.566.566,0,0,1-.538.383" fill="#fff"/>
        <path id="Trazado_1471" data-name="Trazado 1471" d="M63.965,236.6l-.035,4.571a.607.607,0,0,1-.39.575l-1.359.476a.572.572,0,0,1-.738-.584l.043-5.544a.572.572,0,0,1,.748-.572l1.35.5a.605.605,0,0,1,.381.58" fill="#fff"/>
        <path id="Trazado_1472" data-name="Trazado 1472" d="M68.451,236.625l-.017,4.571a.608.608,0,0,0,.385.579l1.352.491a.573.573,0,0,0,.745-.576l.021-5.544a.574.574,0,0,0-.742-.582l-1.355.484a.608.608,0,0,0-.389.577" fill="#fff"/>
        <path id="Trazado_1473" data-name="Trazado 1473" d="M63.9,244.543l-.035,4.54a.6.6,0,0,1-.391.571l-1.357.474a.572.572,0,0,1-.739-.58l.043-5.508a.571.571,0,0,1,.747-.568l1.35.494a.6.6,0,0,1,.382.577" fill="#fff"/>
        <path id="Trazado_1474" data-name="Trazado 1474" d="M68.387,244.567l-.017,4.54a.606.606,0,0,0,.384.576l1.353.488a.573.573,0,0,0,.745-.572l.02-5.508a.572.572,0,0,0-.741-.577l-1.355.48a.6.6,0,0,0-.389.573" fill="#fff"/>
        <path id="Trazado_1475" data-name="Trazado 1475" d="M64.05,250.028l4.236.023a.57.57,0,0,1,.534.39l.444,1.357a.566.566,0,0,1-.541.741l-5.138-.03a.564.564,0,0,1-.531-.747l.458-1.351a.565.565,0,0,1,.538-.383" fill="#fff"/>
        <g id="Grupo_292" data-name="Grupo 292" opacity="0.7" style="mix-blend-mode: multiply;isolation: isolate">
          <g id="Grupo_291" data-name="Grupo 291">
            <g id="Grupo_290" data-name="Grupo 290" clip-path="url(#clip-path-6)">
              <path id="Trazado_1476" data-name="Trazado 1476" d="M167.907,293.181c-2.209-3.025-9.242-.326-13.333,3.273-2.957,2.606-12.156,12.6-12.156,12.6-.205-1.847-.348-3.755-.441-5.694q.55-.77,1.115-1.548a52.44,52.44,0,0,0,6.085-9.877c3.468-8.061,4.231-13.322-.818-21.427a54.625,54.625,0,0,1-3.874-7.214c.456-3.249.987-6.813,1.431-9.731l1.208.2,1.336-8.151a5.108,5.108,0,1,0-10.082-1.65l-1.336,8.147.85.139c-1.968,10.708-5.625,30.6-5.631,30.626-.1.354-.317.715-.711.715a.712.712,0,0,1-.709-.715l-.01-43.827a4.808,4.808,0,0,0-9.616,0s.012,41.424.012,41.466a1.657,1.657,0,0,1-.127.634,1.436,1.436,0,0,1-.115.176,1.61,1.61,0,0,1-1.392.837,1.636,1.636,0,0,1-1.626-1.575l-.022-36.73a4.009,4.009,0,1,0-8.019,0l-.01,38.777a1.414,1.414,0,0,1-2.822,0l-.009-25.956a4.009,4.009,0,0,0-8.019,0c-.286,5.216-.858,25.054-.858,25.054v35.177c0,7.526,3.844,12.028,3.844,27.9h-1.663a2.18,2.18,0,0,0-2.181,2.181v17.889a2.181,2.181,0,0,0,2.181,2.182h40.754a2.182,2.182,0,0,0,2.182-2.182V346.985a2.18,2.18,0,0,0-2.182-2.181h-.4c0-5.073,4.5-9.083,7.035-13.664s7.037-15.3,9.244-19.3,8.754-11.864,8.754-11.864,4.335-3.764,2.126-6.791m-21.215-21.635c4.646,7.457,4,11.89.68,19.612a48.391,48.391,0,0,1-5.5,9,241.263,241.263,0,0,1,1.743-30.041c.1-.9.23-2.016.392-3.259.763,1.474,1.654,3.03,2.689,4.691" fill="gray"/>
            </g>
          </g>
        </g>
        <path id="Trazado_1477" data-name="Trazado 1477" d="M166.673,291.947c-2.21-3.024-9.243-.326-13.334,3.273-2.956,2.605-12.155,12.6-12.155,12.6-1.605-14.479.546-32.791,1.192-38.94.654-6.218,3.235-22.564,3.235-22.564l-.01,0a4,4,0,1,0-7.707-1.945l-.014,0s-6.845,37.24-6.853,37.275c-.1.354-.317.714-.711.714a.71.71,0,0,1-.709-.714l-.01-43.827a4.808,4.808,0,0,0-9.616,0s.012,41.424.012,41.465a1.631,1.631,0,0,1-3.26.073l-.023-36.731a4.008,4.008,0,1,0-8.017,0l-.011,38.777a1.414,1.414,0,0,1-2.822,0l-.01-25.955a4.009,4.009,0,1,0-8.019,0c-.285,5.216-.857,25.054-.857,25.054v35.178c0,7.525,3.844,12.027,3.844,27.9h38.7c0-5.074,4.5-9.083,7.035-13.665s7.036-15.3,9.244-19.3,8.754-11.864,8.754-11.864,4.335-3.763,2.126-6.79" fill="#ffd7be"/>
        <path id="Trazado_1478" data-name="Trazado 1478" d="M153.339,295.22c-2.956,2.6-12.155,12.6-12.155,12.6-1.605-14.48.546-32.791,1.192-38.941.654-6.218,3.234-22.563,3.234-22.563l-.009,0a4,4,0,1,0-7.707-1.946l-.014,0s-6.845,37.239-6.853,37.274c-.1.353-.317.714-.711.714a.711.711,0,0,1-.709-.714l-.01-43.826a4.808,4.808,0,1,0-9.616,0s.012,41.423.012,41.464a1.643,1.643,0,0,1-.46,1.144V343.57h19.981c0-5.075,4.5-9.083,7.035-13.665s7.036-15.3,9.244-19.3,8.754-11.864,8.754-11.864,4.335-3.763,2.126-6.79-9.243-.327-13.334,3.273" fill="#ffd7be"/>
        <path id="Trazado_1479" data-name="Trazado 1479" d="M143.01,238.51a5.112,5.112,0,0,0-5.867,4.217l-1.335,8.147,10.082,1.655,1.335-8.151a5.115,5.115,0,0,0-4.215-5.868" fill="#c299f6"/>
        <path id="Trazado_1480" data-name="Trazado 1480" d="M143.01,238.51a5.112,5.112,0,0,0-5.867,4.217l-1.335,8.147,10.082,1.655,1.335-8.151A5.115,5.115,0,0,0,143.01,238.51Z" fill="none" stroke="#231f20" stroke-miterlimit="10" stroke-width="1"/>
        <path id="Rectángulo_191" data-name="Rectángulo 191" d="M2.182,0H42.936a2.18,2.18,0,0,1,2.18,2.18V20.071a2.181,2.181,0,0,1-2.181,2.181H2.181A2.181,2.181,0,0,1,0,20.071V2.182A2.182,2.182,0,0,1,2.182,0Z" transform="translate(96.974 343.57)" fill="#ff4f5b"/>
        <path id="Trazado_1481" data-name="Trazado 1481" d="M134.444,341.524h-1.965c0-2.921-.183-5.893-.361-8.765-.38-6.179-.774-12.568.607-18.925,1.239-5.7,4.445-10.123,7.543-14.407a51.025,51.025,0,0,0,5.87-9.5c3.325-7.723,3.966-12.155-.679-19.612-5.271-8.459-6.939-14.24-5.761-19.956l1.923.4c-1.065,5.17.529,10.536,5.5,18.523,5.049,8.105,4.287,13.366.818,21.427a52.421,52.421,0,0,1-6.085,9.877c-3.117,4.31-6.061,8.379-7.213,13.674-1.323,6.09-.94,12.34-.567,18.385.18,2.9.366,5.907.366,8.886" fill="#1a2121"/>
        <rect id="Rectángulo_192" data-name="Rectángulo 192" width="5.747" height="3.612" transform="matrix(0.179, -0.984, 0.984, 0.179, 138.535, 252.192)" fill="#fff"/>
        <rect id="Rectángulo_193" data-name="Rectángulo 193" width="5.03" height="3.704" transform="translate(130.803 339.866)" fill="#fff"/>
        <rect id="Rectángulo_194" data-name="Rectángulo 194" width="31.286" height="11.289" transform="translate(103.889 347.291)" fill="#fff"/>
        <path id="Trazado_1482" data-name="Trazado 1482" d="M108.633,350.232h.554v5.157h-.738v-4.054H107.9v-.551a1.28,1.28,0,0,0,.736-.552" fill="#323232"/>
        <path id="Trazado_1483" data-name="Trazado 1483" d="M111.119,355.442c-.863,0-1.29-.638-1.29-1.526v-2.209c0-.916.4-1.526,1.29-1.526s1.29.613,1.29,1.526v2.209c0,.9-.42,1.526-1.29,1.526m0-.6c.452,0,.553-.475.553-.922v-2.209c0-.473-.079-.923-.553-.923s-.552.45-.552.923v2.209c0,.447.106.922.552.922" fill="#323232"/>
        <path id="Trazado_1484" data-name="Trazado 1484" d="M114.179,350.784c-.44,0-.554.472-.554.923v.183h-.736v-.183c0-.927.365-1.527,1.29-1.527a1.19,1.19,0,0,1,1.29,1.339,2.374,2.374,0,0,1-.553,1.478l-1.291,1.657h1.844v.735h-2.584v-.735l1.294-1.845a2.085,2.085,0,0,0,.553-1.29c0-.378-.173-.735-.553-.735" fill="#323232"/>
        <path id="Trazado_1485" data-name="Trazado 1485" d="M119.169,352.5v2.886h-.736v-2.674c0-.212.02-.458-.185-.458a.893.893,0,0,0-.553.232v2.9h-.737v-3.683h.737v.416a1.173,1.173,0,0,1,.919-.469c.367,0,.5.163.555.486a1.066,1.066,0,0,1,.921-.486c.569,0,.554.49.554,1.055v2.681h-.738V352.7c0-.2.018-.444-.183-.444a.89.89,0,0,0-.554.246" fill="#323232"/>
        <path id="Trazado_1486" data-name="Trazado 1486" d="M122.289,351.654a.841.841,0,0,1,.8.434.746.746,0,0,1,.678-.434v.6a.627.627,0,0,0-.461.183,1.754,1.754,0,0,1,.093.556c0,.752-.355,1.335-1.106,1.335a1.679,1.679,0,0,1-.232-.021l-.139-.024a.542.542,0,0,0-.1.235c0,.271.711.24.973.275.5.065.973.218.973.776,0,.691-.613.919-1.288.919-.552,0-1.476,0-1.476-.541a.909.909,0,0,1,.553-.818c-.17-.045-.367-.149-.367-.323a1.319,1.319,0,0,1,.367-.71,1.688,1.688,0,0,1-.367-1.1c0-.757.372-1.343,1.1-1.343m.829,4.02a.339.339,0,0,0-.013-.094c-.024-.142-.218-.239-.577-.28l-.607-.073a.718.718,0,0,0-.271.551c0,.222.6.17.825.17.261,0,.643-.017.643-.274m-.829-3.51c-.38,0-.461.451-.461.833s.086.78.461.78.461-.406.461-.78-.087-.833-.461-.833" fill="#323232"/>
        <path id="Trazado_1487" data-name="Trazado 1487" d="M126.128,350.232l-1.659,5.157h-.737l1.656-5.157Z" fill="#323232"/>
        <path id="Trazado_1488" data-name="Trazado 1488" d="M128.051,352.07v-1.837h.736v5.157h-.736v-.333a1.029,1.029,0,0,1-.738.385c-.738,0-.92-.968-.92-1.713,0-.964-.01-2.075.91-2.075a1.009,1.009,0,0,1,.748.416m-.554,2.768a1.53,1.53,0,0,0,.554-.114V352.4a1.177,1.177,0,0,0-.554-.145c-.43,0-.367.659-.367,1.1,0,.5-.078,1.477.367,1.477" fill="#323232"/>
        <rect id="Rectángulo_195" data-name="Rectángulo 195" width="0.736" height="5.157" transform="translate(129.472 350.232)" fill="#323232"/>
        <rect id="Rectángulo_196" data-name="Rectángulo 196" width="0.737" height="0.735" transform="translate(130.734 354.654)" fill="#323232"/>
        <path id="Trazado_1489" data-name="Trazado 1489" d="M135.175,361.188c0,.725-.885,1.317-1.965,1.317H123.09c-1.078,0-1.963-.592-1.963-1.317s.885-1.318,1.963-1.318h10.12c1.08,0,1.965.593,1.965,1.318" fill="#1a2121"/>
        <g id="Grupo_295" data-name="Grupo 295" opacity="0.1" style="mix-blend-mode: screen;isolation: isolate">
          <g id="Grupo_294" data-name="Grupo 294">
            <g id="Grupo_293" data-name="Grupo 293" clip-path="url(#clip-path-7)">
              <path id="Trazado_1490" data-name="Trazado 1490" d="M112.46,347.291l-8.57,8.581v-3.818l4.759-4.763Z" fill="#e6e6e6"/>
            </g>
          </g>
        </g>
        <g id="Grupo_298" data-name="Grupo 298" opacity="0.1" style="mix-blend-mode: screen;isolation: isolate">
          <g id="Grupo_297" data-name="Grupo 297">
            <g id="Grupo_296" data-name="Grupo 296" clip-path="url(#clip-path-8)">
              <path id="Trazado_1491" data-name="Trazado 1491" d="M135.175,347.291v5.83l-5.457,5.459h-5.891l11.3-11.289Z" fill="#e6e6e6"/>
            </g>
          </g>
        </g>
        <path id="Trazado_1492" data-name="Trazado 1492" d="M117.937,361.188c0,.725-.885,1.317-1.963,1.317H105.852c-1.08,0-1.963-.592-1.963-1.317s.883-1.318,1.963-1.318h10.122c1.078,0,1.963.593,1.963,1.318" fill="#1a2121"/>
        <path id="Trazado_1493" data-name="Trazado 1493" d="M78.577,356.882a3.893,3.893,0,0,1-3.885,3.883H34.874a3.9,3.9,0,0,1-3.882-3.883v-85.3a3.9,3.9,0,0,1,3.882-3.889H74.692a3.9,3.9,0,0,1,3.885,3.889Z" fill="#1a2121"/>
        <rect id="Rectángulo_199" data-name="Rectángulo 199" width="40.784" height="76.878" transform="translate(34.393 273.854)" fill="#c299f6"/>
        <rect id="Rectángulo_200" data-name="Rectángulo 200" width="40.79" height="3.72" transform="translate(34.39 273.848)" fill="#9d73e0"/>
        <path id="Trazado_1494" data-name="Trazado 1494" d="M70.413,285.093c0,1.911-3.26,3.91-3.26,3.91s-3.262-2-3.262-3.91,2.493-2.465,3.262-.21c.837-2.236,3.26-1.7,3.26.21" fill="#fff"/>
        <path id="Trazado_1495" data-name="Trazado 1495" d="M44.81,300.679c-2.64,0-4.076-1.587-4.076-4.242h2.329c0,1.43.347,2.33,1.747,2.33q1.747,0,1.747-3.495v-2.329a2.522,2.522,0,0,1-2.329,1.164c-2.7,0-3.494-1.983-3.494-4.659,0-2.959,1.128-5.4,4.076-5.4,2.858,0,4.077,2.473,4.077,5.4v5.24c0,3.194-.92,5.991-4.077,5.991m0-14.725c-1.392,0-1.747,1.492-1.747,2.91,0,1.749,0,3.494,1.747,3.494a1.962,1.962,0,0,0,1.747-1.164v-2.33c0-1.43-.362-2.91-1.747-2.91" fill="#fff"/>
        <path id="Trazado_1496" data-name="Trazado 1496" d="M54.483,285.954c-1.393,0-1.747,1.492-1.747,2.91v.584h-2.33v-.584c0-2.919,1.156-4.821,4.077-4.821,2.685,0,4.077,1.592,4.077,4.24a7.466,7.466,0,0,1-1.748,4.66l-4.076,5.24H58.56v2.33H50.4v-2.33l4.086-5.825c.865-1.227,1.747-2.254,1.747-4.075,0-1.2-.547-2.329-1.747-2.329" fill="#fff"/>
        <rect id="Rectángulo_201" data-name="Rectángulo 201" width="40.79" height="24.229" transform="translate(34.39 306.566)" fill="#9d73e0"/>
        <path id="Trazado_1497" data-name="Trazado 1497" d="M53.271,329.5l-2.1-16.319-3.738,11.157-.843-6.938-.783,1.956H34.39v-.929H45.171l1.9-4.753.788,6.456,3.716-11.091,1.738,13.5,1.009-7.128,1.822,3.621h4.432l1.924-6.444.663,7,1.311-1.161H75.18v.929H64.823L62.406,321.5l-.387-4.061-.752,2.523h-5.7l-.74-1.469Z" fill="#fff"/>
        <rect id="Rectángulo_202" data-name="Rectángulo 202" width="34.477" height="2.33" transform="translate(37.333 334.984)" fill="#ff4f5b"/>
        <rect id="Rectángulo_203" data-name="Rectángulo 203" width="34.477" height="2.33" transform="translate(37.333 339.409)" fill="#ff4f5b"/>
        <rect id="Rectángulo_204" data-name="Rectángulo 204" width="34.477" height="2.33" transform="translate(37.333 343.837)" fill="#ff4f5b"/>
        <g id="Grupo_301" data-name="Grupo 301" opacity="0.2">
          <g id="Grupo_300" data-name="Grupo 300">
            <g id="Grupo_299" data-name="Grupo 299" clip-path="url(#clip-path-9)">
              <path id="Trazado_1498" data-name="Trazado 1498" d="M63.176,273.854,34.393,302.631V288.416l14.565-14.562Z" fill="#fff"/>
            </g>
          </g>
        </g>
        <g id="Grupo_304" data-name="Grupo 304" opacity="0.2">
          <g id="Grupo_303" data-name="Grupo 303">
            <g id="Grupo_302" data-name="Grupo 302" clip-path="url(#clip-path-10)">
              <path id="Trazado_1499" data-name="Trazado 1499" d="M75.177,320.489v10.974l-19.27,19.269H44.934Z" fill="#fff"/>
            </g>
          </g>
        </g>
        <g id="Grupo_307" data-name="Grupo 307" opacity="0.7" style="mix-blend-mode: multiply;isolation: isolate">
          <g id="Grupo_306" data-name="Grupo 306">
            <g id="Grupo_305" data-name="Grupo 305" clip-path="url(#clip-path-11)">
              <path id="Trazado_1500" data-name="Trazado 1500" d="M514.949,274.741c4.919-15.229,5.481-34.242,4.829-40.18a6.831,6.831,0,0,0-3.841-5.525c-3.635-1.932-9.127-1.728-13.383-1.14l-.157-.513s-1.779,1.011-5.627.262c-4.839-.941-3.477,3.256-3.477,3.256s1.211,4.229,4.941,1.539c2.966-2.137,5.119-1.927,5.119-1.927l-.1-.336c3.881-.511,8.42-.623,11.131.819a4.573,4.573,0,0,1,2.549,3.775c.744,6.766-.173,25.523-4.935,39.97h-1.66c-3.914,9.587-7.386,14.784-15.224,16.19l-5.82.025c-7.454-1.726-10.7-6.931-14.486-16.215h-1.658c-4.762-14.447-5.679-33.2-4.935-39.97A4.57,4.57,0,0,1,470.761,231c2.711-1.442,7.25-1.33,11.132-.819l-.1.336s2.153-.21,5.12,1.927c3.729,2.69,4.941-1.539,4.941-1.539s1.362-4.2-3.477-3.256c-3.848.749-5.628-.262-5.628-.262l-.157.513c-4.256-.588-9.747-.792-13.383,1.14a6.835,6.835,0,0,0-3.841,5.525c-.652,5.938-.09,24.951,4.829,40.18h-1.339c2.34,5.884,5.33,11.093,9.1,14.909.134.153.279.285.417.432l0,.005a16.88,16.88,0,0,0,6.92,4.618,19.127,19.127,0,0,0,3.99,1.177v6.887c0,4.949-2.325,9.31-4.622,13.485l.844.375a27.792,27.792,0,0,1-21.357,9.532h-.579c-14.637,0-26.542-10.505-26.542-23.418V243.576a10.237,10.237,0,0,0,8.415-9.85c0-5.567-4.778-10.079-10.673-10.079s-10.672,4.512-10.672,10.079a10.252,10.252,0,0,0,8.66,9.9v59.121c0,15.136,13.822,27.449,30.812,27.449h.579a32.012,32.012,0,0,0,25.3-11.812l.768.341a28.858,28.858,0,0,0,4.884-15.952V296a19.216,19.216,0,0,0,4.815-1.327,17.211,17.211,0,0,0,7.25-5.017c3.777-3.819,6.771-9.03,9.111-14.918Z" fill="gray"/>
            </g>
          </g>
        </g>
        <path id="Trazado_1501" data-name="Trazado 1501" d="M486.967,294.175c-21.527-2.584-23.926-50.7-22.813-60.824a6.829,6.829,0,0,1,3.839-5.526c6.547-3.477,19.111-.036,19.643.112l-.922,2.211c-3.26-.907-12.7-2.738-17.165-.364A4.574,4.574,0,0,0,467,233.56c-1.242,11.307,2.143,56.114,20.382,58.3Z" fill="#fff"/>
        <path id="Trazado_1502" data-name="Trazado 1502" d="M490.639,229.69s1.361-4.2-3.478-3.256c-3.847.748-5.627-.264-5.627-.264l-.478,1.566-.479,1.566s2.154-.212,5.121,1.927c3.729,2.689,4.941-1.539,4.941-1.539" fill="#1a2121"/>
        <path id="Trazado_1503" data-name="Trazado 1503" d="M495.751,294.175c21.528-2.584,23.926-50.7,22.814-60.824a6.83,6.83,0,0,0-3.84-5.526c-6.546-3.477-19.111-.036-19.642.112l.922,2.211c3.26-.907,12.7-2.738,17.164-.364a4.577,4.577,0,0,1,2.55,3.776c1.242,11.307-2.143,56.114-20.383,58.3Z" fill="#fff"/>
        <path id="Trazado_1504" data-name="Trazado 1504" d="M492.081,229.69s-1.362-4.2,3.478-3.256c3.846.748,5.625-.264,5.625-.264l.479,1.566.479,1.566s-2.155-.212-5.121,1.927c-3.729,2.689-4.94-1.539-4.94-1.539" fill="#1a2121"/>
        <path id="Trazado_1505" data-name="Trazado 1505" d="M489.488,293.529v8c0,12.914-11.906,23.418-26.542,23.418h-.58c-14.637,0-26.542-10.5-26.542-23.418V235.775h-4.27v65.756c0,15.137,13.822,27.45,30.812,27.45h.58c16.989,0,30.811-12.313,30.811-27.45v-8Z" fill="#fff"/>
        <path id="Trazado_1506" data-name="Trazado 1506" d="M515.077,273.529h-5.952c-3.915,9.587-7.387,14.784-15.225,16.19l-5.82.025c-7.454-1.725-10.693-6.931-14.484-16.215h-5.953c4.316,10.854,10.825,19.45,20.437,21.141v6.887c0,4.949-2.324,9.31-4.621,13.485l5.557,2.467a28.858,28.858,0,0,0,4.884-15.952v-6.766c10.021-1.367,16.752-10.13,21.177-21.262" fill="#1a2121"/>
        <path id="Trazado_1507" data-name="Trazado 1507" d="M444.239,232.514c0,5.567-4.778,10.08-10.672,10.08s-10.673-4.513-10.673-10.08,4.779-10.079,10.673-10.079,10.672,4.513,10.672,10.079" fill="#1a2121"/>
        <path id="Trazado_1508" data-name="Trazado 1508" d="M439.57,232.514a6.013,6.013,0,1,1-6-5.669,5.844,5.844,0,0,1,6,5.669" fill="#fff"/>
        <g id="Grupo_310" data-name="Grupo 310" opacity="0.7" style="mix-blend-mode: multiply;isolation: isolate">
          <g id="Grupo_309" data-name="Grupo 309">
            <g id="Grupo_308" data-name="Grupo 308" clip-path="url(#clip-path-12)">
              <path id="Trazado_1509" data-name="Trazado 1509" d="M396.463,250.726h-.1c-2.608-.037-4.764,2.959-4.819,6.693l-.265,20.786c-.307-.1-.655-.219-.962-.305l.359-29.869c.061-4.317-2.331-7.852-5.347-7.894l-.109,0c-3.016-.044-5.511,3.421-5.573,7.738l-.324,27.013-.19-.052c-.374-.093-.732-.179-1.11-.277l.054-3.46c0-.081-.017-.156-.021-.235l.407-31.632c.061-4.316-2.334-7.851-5.347-7.894l-.111,0c-3.014-.042-5.509,3.422-5.57,7.74l-.364,28.265-.055,4.393c-.4-.154-.744-.325-1.129-.484l.016-1.225.427-29.814c.062-4.316-2.334-7.85-5.347-7.893l-.112,0c-3.015-.042-5.508,3.422-5.569,7.739l-.815,56.991a7.44,7.44,0,0,1-.883,1.064c.015-.625.021-1.181.041-1.833.588-20.486-4.647-25.148-8.183-25.75-2.975-.506-2.99,1.593-2.99,1.593l.025,36.531c.209.779.413,1.533.622,2.31,3.642,6.092,15.519,18.387,15.519,18.387l-.006,2.124a13.03,13.03,0,0,0-4.113,3.073v20.79a19.757,19.757,0,0,0,4.173,3.618l.009,8.22,34.048-.049-.005-8.09a20.01,20.01,0,0,0,4.3-3.7h0V345.2l0,0v-10.66a13.072,13.072,0,0,0-4.3-3.165l0-.209c.885-1.775,7.6-21.186,7.627-23.17,0,0,.442-28.266.432-28.336l.284-22.108c.054-3.733-2.017-6.79-4.625-6.828" fill="gray"/>
            </g>
          </g>
        </g>
        <path id="Trazado_1510" data-name="Trazado 1510" d="M374.55,362.638c.035,0,.063,0,.1,0v-.007c14.54-.076,21.168-8.536,21.168-8.536V339.024l-7.138-9.872-13.842-.658v-.027l-.284.014-.282-.014v.027l-13.842.658-7.138,9.872V354.1s6.628,8.46,21.168,8.536v.007c.032,0,.062,0,.094,0" fill="#d42b24"/>
        <path id="Trazado_1511" data-name="Trazado 1511" d="M395.23,249.493h-.1c-2.608-.038-4.765,2.959-4.819,6.693l-.265,20.786c-.307-.1-.655-.219-.963-.306l.36-29.868c.061-4.318-2.331-7.853-5.347-7.9l-.109,0c-3.016-.043-5.511,3.422-5.573,7.739l-.324,27.013-.19-.053c-.374-.092-.732-.178-1.111-.277l.054-3.46c0-.08-.016-.155-.02-.235L377.234,238c.061-4.316-2.334-7.851-5.348-7.894l-.111,0c-3.014-.043-5.508,3.422-5.569,7.74l-.364,28.264-.055,4.393c-.4-.153-.744-.324-1.13-.483l.017-1.225.427-29.814c.062-4.316-2.334-7.85-5.348-7.893l-.111,0c-3.016-.043-5.509,3.421-5.569,7.739l-.815,56.991a7.428,7.428,0,0,1-.883,1.063c.015-.625.021-1.18.04-1.833.589-20.485-4.646-25.147-8.182-25.749-2.975-.506-2.99,1.593-2.99,1.593l.024,36.531.623,2.31c3.642,6.091,15.519,18.387,15.519,18.387l-.048,18.084h.09l.021,19.74,34.047-.05-.02-34.228.012-1.724c.886-1.775,7.6-21.186,7.627-23.171,0,0,.443-28.265.433-28.335l.284-22.108c.054-3.734-2.017-6.791-4.625-6.828" fill="#ffd7be"/>
        <g id="Grupo_313" data-name="Grupo 313" style="mix-blend-mode: multiply;isolation: isolate">
          <g id="Grupo_312" data-name="Grupo 312">
            <g id="Grupo_311" data-name="Grupo 311" clip-path="url(#clip-path-13)">
              <path id="Trazado_1512" data-name="Trazado 1512" d="M391.5,336.044a14.568,14.568,0,0,0-1.686-.668v-1.632a1.644,1.644,0,0,0-1.644-1.644h-10.5v-.517a1.561,1.561,0,0,0-1.562-1.56H372.43a1.561,1.561,0,0,0-1.562,1.56v.517H360.321a1.644,1.644,0,0,0-1.643,1.644v1.845c-.394.143-.832.325-1.291.545L357.36,346.2h.09l.012,11.1a12.88,12.88,0,0,1,1.216-.554v1.518a1.644,1.644,0,0,0,1.643,1.643h27.85a1.644,1.644,0,0,0,1.644-1.643v-1.716a10.8,10.8,0,0,1,1.7.7Z" fill="#eacfbb"/>
            </g>
          </g>
        </g>
        <path id="Trazado_1513" data-name="Trazado 1513" d="M388.41,329.152a13.271,13.271,0,0,1,7.4,4.157V354.1s-4.9-3.874-7.4-3.645Z" fill="#f24f49"/>
        <path id="Trazado_1514" data-name="Trazado 1514" d="M360.693,329.152a13.271,13.271,0,0,0-7.4,4.157V354.1s4.9-3.874,7.4-3.645Z" fill="#f24f49"/>
        <g id="Grupo_316" data-name="Grupo 316" opacity="0.75" style="mix-blend-mode: multiply;isolation: isolate">
          <g id="Grupo_315" data-name="Grupo 315">
            <g id="Grupo_314" data-name="Grupo 314" clip-path="url(#clip-path-14)">
              <path id="Trazado_1515" data-name="Trazado 1515" d="M388.41,339.812v10.642c2.507-.229,7.406,3.645,7.406,3.645V343.97a13.277,13.277,0,0,0-7.406-4.158" fill="#cdcfd0"/>
            </g>
          </g>
        </g>
        <path id="Trazado_1516" data-name="Trazado 1516" d="M388.41,339.812v10.642c2.507-.229,7.406,3.645,7.406,3.645V343.97a13.277,13.277,0,0,0-7.406-4.158" fill="#f23129"/>
        <g id="Grupo_319" data-name="Grupo 319" opacity="0.75" style="mix-blend-mode: multiply;isolation: isolate">
          <g id="Grupo_318" data-name="Grupo 318">
            <g id="Grupo_317" data-name="Grupo 317" clip-path="url(#clip-path-15)">
              <path id="Trazado_1517" data-name="Trazado 1517" d="M360.693,339.812a13.269,13.269,0,0,0-7.4,4.158V354.1s4.9-3.874,7.4-3.645Z" fill="#cdcfd0"/>
            </g>
          </g>
        </g>
        <path id="Trazado_1518" data-name="Trazado 1518" d="M360.693,339.812a13.269,13.269,0,0,0-7.4,4.158V354.1s4.9-3.874,7.4-3.645Z" fill="#f23129"/>
        <path id="Trazado_1519" data-name="Trazado 1519" d="M370.869,327.9v-2.2a1.562,1.562,0,0,1,1.562-1.563h3.675a1.562,1.562,0,0,1,1.562,1.563v2.2Z" fill="#e6e6e6"/>
        <path id="Trazado_1520" data-name="Trazado 1520" d="M358.678,352.379V327.861a1.644,1.644,0,0,1,1.644-1.643h27.849a1.645,1.645,0,0,1,1.645,1.643v24.518a1.645,1.645,0,0,1-1.645,1.644H360.322a1.645,1.645,0,0,1-1.644-1.644" fill="#fff"/>
        <path id="Trazado_1521" data-name="Trazado 1521" d="M362.439,349.071v-17.9a1.643,1.643,0,0,1,1.643-1.644H384.83a1.644,1.644,0,0,1,1.644,1.644v17.9a1.644,1.644,0,0,1-1.644,1.643H364.082a1.643,1.643,0,0,1-1.643-1.643" fill="#1a2121"/>
        <path id="Trazado_1522" data-name="Trazado 1522" d="M380.812,345l-.959-8.155-.7,5.379-.727-3.2L377.08,342.2l.224-2.268H375.09l.465-.256c1.443-.8,2.226-1.648,2.323-2.526a1.929,1.929,0,0,0-.585-1.529c-1.21-1.187-2.846.3-2.864.317l-.1.088-.091-.09c-1.591-1.54-2.62-.548-2.664-.506a2.011,2.011,0,0,0-.767,1.781c.238,1.415,2.385,2.417,2.406,2.427l.569.261h-2.659l-.53,3.85-1.023-6.828-1,4.408-.638-2.527-.689,3.475-.7-2.259H364.68v-.274h2.065l.442,1.425.716-3.612.657,2.6,1.069-4.711.957,6.383.3-2.2h1.724a4.033,4.033,0,0,1-2.072-2.368,2.269,2.269,0,0,1,.844-2.023c.01-.009,1.212-1.187,2.956.42.4-.322,1.932-1.414,3.14-.233a2.194,2.194,0,0,1,.671,1.76,3.685,3.685,0,0,1-2.027,2.477h1.481l-.076.778.973-2.3.575,2.535.789-6.044,1,8.474.606-3.516h1.71v.274H381.7Z" fill="#fff"/>
        <g id="Grupo_322" data-name="Grupo 322" opacity="0.7" style="mix-blend-mode: multiply;isolation: isolate">
          <g id="Grupo_321" data-name="Grupo 321">
            <g id="Grupo_320" data-name="Grupo 320" clip-path="url(#clip-path-16)">
              <path id="Trazado_1523" data-name="Trazado 1523" d="M498.64,343.342l-1.5.824-2.1-3.828c-.066-1.382.377-10.1-.282-11.316l-12.267-22.685a3.645,3.645,0,0,0-4.788-1.825l-.059.032a3.141,3.141,0,0,0-1.756,4c-.288.1-.348.118-.672.229l-.941-1.743a3.854,3.854,0,0,0-5.191-1.653l-.066.036c-3.612,1.758-1.459,5.248-1.459,5.248-.261.073-.509.141-.771.21l-1.147-2.125a3.965,3.965,0,0,0-2.265-1.891V278.174a1.643,1.643,0,0,0-1.553-1.721H413.069a1.643,1.643,0,0,0-1.554,1.721V366.4a1.643,1.643,0,0,0,1.554,1.722h48.752a1.643,1.643,0,0,0,1.553-1.722V347.362c4.8,1.834,10.273,3.484,10.273,3.484l.537.968-.007,0,2.107,3.829-1.184.65,10.885,19.781,23.54-12.955Z" fill="gray"/>
            </g>
          </g>
        </g>
        <path id="Trazado_1524" data-name="Trazado 1524" d="M460.587,275.219H411.835a1.644,1.644,0,0,0-1.555,1.72v88.224a1.645,1.645,0,0,0,1.555,1.723h48.752a1.644,1.644,0,0,0,1.554-1.723V276.939a1.643,1.643,0,0,0-1.554-1.72" fill="#1a2121"/>
        <rect id="Rectángulo_213" data-name="Rectángulo 213" width="42.421" height="69.962" transform="translate(415 284.747)" fill="#c5e9f3"/>
        <path id="Trazado_1525" data-name="Trazado 1525" d="M440.573,279.65a.6.6,0,1,0,.6.6.6.6,0,0,0-.6-.6" fill="#d6d6d6"/>
        <path id="Trazado_1526" data-name="Trazado 1526" d="M438,359.034h-3.583a.449.449,0,0,0-.383.492v.728a.448.448,0,0,0,.383.492H438a.448.448,0,0,0,.383-.492v-.728a.449.449,0,0,0-.383-.492" fill="#d6d6d6"/>
        <path id="Trazado_1527" data-name="Trazado 1527" d="M437.822,279.65H431.99a.618.618,0,1,0,0,1.209h5.832a.618.618,0,1,0,0-1.209" fill="#d6d6d6"/>
      </g>
    </g>
    <g id="Grupo_326" data-name="Grupo 326">
      <g id="Grupo_325" data-name="Grupo 325" clip-path="url(#clip-path-17)">
        <rect id="Rectángulo_215" data-name="Rectángulo 215" width="42.421" height="69.962" transform="translate(415 284.747)" fill="#c299f6"/>
        <path id="Trazado_1528" data-name="Trazado 1528" d="M458.389,288.359v-.288h-4.646v-4.337h-.288v4.337h-4.6v-4.337h-.288v4.337h-4.6v-4.337h-.29v4.337h-4.6v-4.337h-.29v4.337h-4.6v-4.337h-.29v4.337h-4.6v-4.337H429v4.337h-4.6v-4.337h-.288v4.337h-4.6v-4.337h-.288v4.337h-5.56v.288h5.56v4.6h-5.56v.288h5.56v4.6h-5.56v.29h5.56v4.6h-5.56v.29h5.56v4.552h-5.56v.34h5.56v4.551h-5.56v.339h5.56v4.319h-5.56v.523h5.56v4.368h-5.56v.524h5.56v4.368h-5.56v.522h5.56v4.37h-5.56v.522h5.56v4.318h-5.56v.34h5.56v4.552h-5.56v.29h5.56v4.6h-5.56v.29h5.56v4.6h-5.56v.29h5.56v4.6h-5.56v.288h5.56v1.8h.288v-1.8h4.6v1.8h.288v-1.8H429v1.8h.289v-1.8h4.6v1.8h.29v-1.8h4.6v1.8h.29v-1.8h4.6v1.8h.29v-1.8h4.6v1.8h.288v-1.8h4.6v1.8h.288v-1.8h4.646v-.288h-4.646v-4.6h4.646v-.29h-4.646v-4.6h4.646v-.29h-4.646v-4.6h4.646v-.29h-4.646v-4.552h4.646v-.34h-4.646v-4.318h4.646v-.522h-4.646v-4.37h4.646v-.522h-4.646v-4.368h4.646v-.524h-4.646v-4.368h4.646v-.523h-4.646v-4.319h4.646v-.339h-4.646v-4.551h4.646v-.34h-4.646v-4.552h4.646v-.29h-4.646v-4.6h4.646v-.29h-4.646v-4.6h4.646v-.288h-4.646v-4.6Zm-9.538,0h4.6v4.6h-4.6Zm0,4.892h4.6v4.6h-4.6Zm0,4.893h4.6v4.6h-4.6Zm0,34.189h4.6v4.318h-4.6Zm0-4.892h4.6v4.369h-4.6Zm0-4.89h4.6v4.368h-4.6Zm0-4.892h4.6v4.368h-4.6Zm0-4.842h4.6v4.318h-4.6Zm0-4.89h4.6v4.551h-4.6Zm-4.89-19.568h4.6v4.6h-4.6Zm0,4.892h4.6v4.6h-4.6Zm0,4.893h4.6v4.6h-4.6Zm0,4.891h4.6v4.552h-4.6v-4.552Zm0,29.3h4.6v4.318h-4.6Zm0-4.892h4.6v4.369h-4.6Zm0-4.89h4.6v4.368h-4.6Zm0-4.892h4.6v4.368h-4.6Zm0-4.842h4.6v4.318h-4.6Zm0-4.89h4.6v4.551h-4.6Zm-4.892-19.568h4.6v4.6h-4.6Zm0,4.892h4.6v4.6h-4.6Zm0,4.893h4.6v4.6h-4.6Zm0,4.891h4.6v4.552h-4.6v-4.552Zm0,29.3h4.6v4.318h-4.6Zm0-4.892h4.6v4.369h-4.6Zm0-4.89h4.6v4.368h-4.6Zm0-4.892h4.6v4.368h-4.6Zm0-4.842h4.6v4.318h-4.6Zm0-4.89h4.6v4.551h-4.6Zm-4.891-19.568h4.6v4.6h-4.6Zm0,4.892h4.6v4.6h-4.6Zm0,4.893h4.6v4.6h-4.6Zm0,4.891h4.6v4.552h-4.6v-4.552Zm0,29.3h4.6v4.318h-4.6Zm0-4.892h4.6v4.369h-4.6Zm0-4.89h4.6v4.368h-4.6Zm0-4.892h4.6v4.368h-4.6Zm0-4.842h4.6v4.318h-4.6Zm0-4.89h4.6v4.551h-4.6Zm-4.893-19.568h4.6v4.6h-4.6Zm0,4.892h4.6v4.6h-4.6Zm0,4.893h4.6v4.6h-4.6Zm0,4.891h4.6v4.552h-4.6v-4.552Zm0,29.3h4.6v4.318h-4.6Zm0-4.892h4.6v4.369h-4.6Zm0-4.89h4.6v4.368h-4.6Zm0-4.892h4.6v4.368h-4.6Zm0-4.842h4.6v4.318h-4.6Zm0-4.89h4.6v4.551h-4.6Zm-4.892-19.568H429v4.6h-4.6Zm0,4.892H429v4.6h-4.6Zm0,4.893H429v4.6h-4.6Zm0,4.891H429v4.552h-4.6v-4.552Zm0,29.3H429v4.318h-4.6Zm0-4.892H429v4.369h-4.6Zm0-4.89H429v4.368h-4.6Zm0-4.892H429v4.368h-4.6Zm0-4.842H429v4.318h-4.6Zm0-4.89H429v4.551h-4.6ZM419.5,288.359h4.6v4.6h-4.6Zm0,4.892h4.6v4.6h-4.6Zm0,4.893h4.6v4.6h-4.6Zm0,4.891h4.6v4.552h-4.6v-4.552Zm4.6,9.443h-4.6v-4.551h4.6Zm0,4.658h-4.6v-4.318h4.6Zm0,4.891h-4.6v-4.368h4.6Zm0,4.892h-4.6v-4.368h4.6Zm0,4.892h-4.6v-4.369h4.6Zm0,4.84h-4.6v-4.318h4.6Zm0,19.568h-4.6v-4.6h4.6Zm0-4.894h-4.6v-4.6h4.6Zm0-4.89h-4.6v-4.6h4.6Zm0-4.892h-4.6v-4.552h4.6v4.552ZM429,356.219h-4.6v-4.6H429Zm0-4.894h-4.6v-4.6H429Zm0-4.89h-4.6v-4.6H429Zm0-4.892h-4.6v-4.552H429v4.552Zm4.892,14.676h-4.6v-4.6h4.6Zm0-4.894h-4.6v-4.6h4.6Zm0-4.89h-4.6v-4.6h4.6Zm0-4.892h-4.6v-4.552h4.6v4.552Zm4.891,14.676h-4.6v-4.6h4.6Zm0-4.894h-4.6v-4.6h4.6Zm0-4.89h-4.6v-4.6h4.6Zm0-4.892h-4.6v-4.552h4.6v4.552Zm4.892,14.676h-4.6v-4.6h4.6Zm0-4.894h-4.6v-4.6h4.6Zm0-4.89h-4.6v-4.6h4.6Zm0-4.892h-4.6v-4.552h4.6v4.552Zm4.892,14.676h-4.6v-4.6h4.6Zm0-4.894h-4.6v-4.6h4.6Zm0-4.89h-4.6v-4.6h4.6Zm0-4.892h-4.6v-4.552h4.6v4.552Zm4.892,14.676h-4.6v-4.6h4.6Zm0-4.894h-4.6v-4.6h4.6Zm0-4.89h-4.6v-4.6h4.6Zm0-4.892h-4.6v-4.552h4.6v4.552Zm0-33.956h-4.6v-4.552h4.6v4.552Z" fill="#8050cc"/>
      </g>
    </g>
    <g id="Grupo_340" data-name="Grupo 340">
      <g id="Grupo_339" data-name="Grupo 339" clip-path="url(#clip-path)">
        <path id="Trazado_1529" data-name="Trazado 1529" d="M445.814,292.789a6.209,6.209,0,0,0-4.487,2.955,6.209,6.209,0,0,0-4.487-2.955c-2.823-.44-7.688.567-7.688,6.484,0,8.236,12.175,14.528,12.175,14.528s12.175-6.292,12.175-14.528c0-5.917-4.865-6.924-7.688-6.484" fill="#f23129"/>
        <path id="Trazado_1530" data-name="Trazado 1530" d="M455.555,304.342l-.986-5.238-2.738,9.531-1.777-7.646-.791,8.2-1.378-14.541-.53,0L446.079,307l-2.271-6.312-1.317,4.8h-6.054l-1.125-6.94-1.875,5.8-.952-3.326-2.077,9.276-1.966-20.6L426.4,307.014l-2.517-7.2-.866,5.674H420.57l-2.436-3.775H415v.534h2.844l2.436,3.776h3.191l.611-4.008,2.573,7.356,1.729-14.644,1.81,18.963,2.353-10.506.858,3,1.735-5.362.843,5.2H442.9l.98-3.569,2.491,6.93,1.239-12L449,312.02l.533,0,.745-7.736,1.506,6.474,2.682-9.347.653,3.463h2.307v-.534Z" fill="#fff9f5"/>
        <rect id="Rectángulo_217" data-name="Rectángulo 217" width="27.577" height="17.105" transform="translate(417.455 328.762)" fill="#fff"/>
        <path id="Trazado_1531" data-name="Trazado 1531" d="M430.77,332.473h-2.746a.365.365,0,0,1-.347-.25l-.292-.877a.366.366,0,0,1,.347-.482h3.332a.368.368,0,0,1,.348.482l-.294.877a.365.365,0,0,1-.348.25" fill="#1a2121"/>
        <path id="Trazado_1532" data-name="Trazado 1532" d="M430.83,332.84l.005,2.745a.368.368,0,0,0,.252.348l.879.29a.364.364,0,0,0,.48-.347l-.007-3.332a.365.365,0,0,0-.482-.346l-.878.294a.367.367,0,0,0-.249.348" fill="#1a2121"/>
        <path id="Trazado_1533" data-name="Trazado 1533" d="M427.908,338.287l-.006,2.746a.365.365,0,0,1-.251.347l-.878.292a.368.368,0,0,1-.482-.349l.008-3.332a.366.366,0,0,1,.482-.346l.878.294a.367.367,0,0,1,.249.348" fill="#1a2121"/>
        <path id="Trazado_1534" data-name="Trazado 1534" d="M428.024,341.6h2.746a.368.368,0,0,1,.348.249l.294.88a.367.367,0,0,1-.348.48h-3.332a.365.365,0,0,1-.347-.48l.292-.88a.368.368,0,0,1,.347-.249" fill="#1a2121"/>
        <path id="Trazado_1535" data-name="Trazado 1535" d="M430.565,336.241h-2.312a.328.328,0,0,0-.283.155l-.275.479a.267.267,0,0,0,0,.268l.275.479a.325.325,0,0,0,.283.154h2.312a.321.321,0,0,0,.282-.154l.276-.479a.267.267,0,0,0,0-.268l-.276-.479a.324.324,0,0,0-.282-.155" fill="#1a2121"/>
        <path id="Trazado_1536" data-name="Trazado 1536" d="M422.625,331.79l-.018,3.823a.512.512,0,0,0,.278.484l.976.41c.263.111.535-.134.537-.482l.021-4.64c0-.347-.273-.593-.536-.484l-.978.4a.519.519,0,0,0-.28.484" fill="#1a2121"/>
        <path id="Trazado_1537" data-name="Trazado 1537" d="M422.573,338.3l-.017,3.867a.521.521,0,0,0,.276.492l.975.413c.265.112.538-.135.538-.487l.021-4.693c0-.352-.271-.6-.534-.49l-.978.41a.519.519,0,0,0-.281.488" fill="#1a2121"/>
        <path id="Trazado_1538" data-name="Trazado 1538" d="M438.255,332.432l-2.759-.015a.368.368,0,0,1-.348-.253l-.289-.883a.368.368,0,0,1,.351-.482l3.349.019a.366.366,0,0,1,.344.485l-.3.88a.367.367,0,0,1-.35.249" fill="#1a2121"/>
        <path id="Trazado_1539" data-name="Trazado 1539" d="M435.389,332.838l-.021,2.979a.4.4,0,0,1-.255.373l-.886.31a.373.373,0,0,1-.481-.379l.029-3.612a.374.374,0,0,1,.487-.373l.878.325a.393.393,0,0,1,.249.377" fill="#1a2121"/>
        <path id="Trazado_1540" data-name="Trazado 1540" d="M438.311,332.854l-.011,2.977a.394.394,0,0,0,.251.377l.88.321a.375.375,0,0,0,.486-.375l.013-3.612a.372.372,0,0,0-.482-.379l-.883.316a.4.4,0,0,0-.254.375" fill="#1a2121"/>
        <path id="Trazado_1541" data-name="Trazado 1541" d="M435.347,338.011l-.022,2.958a.392.392,0,0,1-.255.372l-.883.309a.375.375,0,0,1-.483-.379l.028-3.587a.373.373,0,0,1,.488-.371l.88.323a.389.389,0,0,1,.247.375" fill="#1a2121"/>
        <path id="Trazado_1542" data-name="Trazado 1542" d="M438.271,338.028l-.012,2.957a.391.391,0,0,0,.25.375l.881.317a.373.373,0,0,0,.486-.373l.013-3.587a.373.373,0,0,0-.484-.375l-.881.313a.39.39,0,0,0-.253.373" fill="#1a2121"/>
        <path id="Trazado_1543" data-name="Trazado 1543" d="M435.445,341.585l2.759.016a.365.365,0,0,1,.347.253l.29.882a.367.367,0,0,1-.352.483l-3.347-.019a.366.366,0,0,1-.345-.485l.3-.88a.372.372,0,0,1,.351-.25" fill="#1a2121"/>
        <g id="Grupo_329" data-name="Grupo 329" style="mix-blend-mode: multiply;isolation: isolate">
          <g id="Grupo_328" data-name="Grupo 328">
            <g id="Grupo_327" data-name="Grupo 327" clip-path="url(#clip-path-19)">
              <path id="Trazado_1544" data-name="Trazado 1544" d="M410.281,318.875v46.289a1.645,1.645,0,0,0,1.555,1.723h48.531l-42.444-54.409Z" fill="#c1c1c1"/>
            </g>
          </g>
        </g>
        <path id="Trazado_1545" data-name="Trazado 1545" d="M493.8,339.1c-.065-1.382.378-10.1-.281-11.316L481.255,305.1a3.643,3.643,0,0,0-4.788-1.825l-.059.032a3.139,3.139,0,0,0-1.755,4c-.288.1-.348.117-.672.229l-.943-1.743a3.853,3.853,0,0,0-5.189-1.654l-.066.037c-3.613,1.757-1.46,5.248-1.46,5.248-.261.072-.508.141-.772.21l-1.145-2.125a3.868,3.868,0,0,0-5.216-1.636l-.069.038a3.865,3.865,0,0,0-1.487,5.258l.268.493c-.3.043-.577.056-.87.092L446.727,292.7c-1.433-2.65-4.1-3.988-5.946-2.986l-.068.036c-1.85,1-2.19,3.961-.756,6.613l18.922,34.987a5.038,5.038,0,0,1-.177.948c-.2-.384-.387-.725-.6-1.13-6.622-12.675-11.4-13.732-13.757-12.894-1.984.7-1.279,1.988-1.279,1.988l12.462,22.241,1.167,1.2c4.293,2.469,15.715,5.91,15.715,5.91l6.132,11.032,20.8-11.449Z" fill="#ffd7be"/>
        <g id="Grupo_332" data-name="Grupo 332" style="mix-blend-mode: multiply;isolation: isolate">
          <g id="Grupo_331" data-name="Grupo 331">
            <g id="Grupo_330" data-name="Grupo 330" clip-path="url(#clip-path-20)">
              <rect id="Rectángulo_219" data-name="Rectángulo 219" width="23.789" height="20.068" transform="translate(472.944 350.582) rotate(-28.805)" fill="#eacfbb"/>
            </g>
          </g>
        </g>
        <rect id="Rectángulo_221" data-name="Rectángulo 221" width="26.869" height="22.578" transform="translate(473.866 355.063) rotate(-28.826)" fill="#fff"/>
        <g id="Grupo_335" data-name="Grupo 335" opacity="0.7" style="mix-blend-mode: multiply;isolation: isolate">
          <g id="Grupo_334" data-name="Grupo 334">
            <g id="Grupo_333" data-name="Grupo 333" clip-path="url(#clip-path-21)">
              <path id="Trazado_1546" data-name="Trazado 1546" d="M323.547,213.579H184.109a8.629,8.629,0,0,0-8.629,8.629V322.2a8.629,8.629,0,0,0,8.629,8.629h54.94l-5.986,23.839-9.8-.075a6.916,6.916,0,0,0-6.968,6.862l0,.14a6.915,6.915,0,0,0,6.863,6.967l61.228.47a6.917,6.917,0,0,0,6.969-6.861v-.141a6.916,6.916,0,0,0-6.864-6.968l-9.822-.075-6.066-24.158h54.941a8.63,8.63,0,0,0,8.63-8.629V222.208a8.63,8.63,0,0,0-8.63-8.629" fill="gray"/>
            </g>
          </g>
        </g>
        <path id="Trazado_1547" data-name="Trazado 1547" d="M275.743,362.173H229.951l9.493-37.8H266.25Z" fill="#313233"/>
        <path id="Trazado_1548" data-name="Trazado 1548" d="M322.566,329.847H183.128a8.629,8.629,0,0,1-8.629-8.629V221.226a8.629,8.629,0,0,1,8.629-8.629H322.566a8.63,8.63,0,0,1,8.63,8.629v99.992a8.63,8.63,0,0,1-8.63,8.629" fill="#1a2121"/>
        <rect id="Rectángulo_223" data-name="Rectángulo 223" width="128.481" height="88.885" transform="translate(188.606 223.155)" fill="#c299f6"/>
        <rect id="Rectángulo_224" data-name="Rectángulo 224" width="128.481" height="88.885" transform="translate(188.606 223.155)" fill="none" stroke="#231f20" stroke-miterlimit="10" stroke-width="1"/>
        <path id="Trazado_1549" data-name="Trazado 1549" d="M283.407,368.052l-61.228-.471a6.915,6.915,0,0,1-6.863-6.967l0-.14a6.916,6.916,0,0,1,6.968-6.862l61.227.469a6.916,6.916,0,0,1,6.864,6.969v.14a6.919,6.919,0,0,1-6.969,6.862" fill="#1a2121"/>
        <path id="Trazado_1550" data-name="Trazado 1550" d="M304.414,323.048a2.041,2.041,0,1,1-2.042-2.042,2.041,2.041,0,0,1,2.042,2.042" fill="#fbf6ed"/>
        <path id="Trazado_1551" data-name="Trazado 1551" d="M310.114,323.048a2.041,2.041,0,1,1-2.04-2.042,2.04,2.04,0,0,1,2.04,2.042" fill="#fbf6ed"/>
        <path id="Trazado_1552" data-name="Trazado 1552" d="M315.816,323.048a2.041,2.041,0,1,1-2.041-2.042,2.04,2.04,0,0,1,2.041,2.042" fill="#fbf6ed"/>
        <path id="Trazado_1553" data-name="Trazado 1553" d="M243.755,250.132V245.66a2.194,2.194,0,0,1,2.194-2.2h13.795a2.194,2.194,0,0,1,2.193,2.2v4.472h3.613v-7.973a2.193,2.193,0,0,0-2.194-2.192H242.338a2.192,2.192,0,0,0-2.194,2.192v7.973Z" fill="#fff"/>
        <path id="Trazado_1554" data-name="Trazado 1554" d="M282.994,291.436H222.7a3.07,3.07,0,0,1-3.069-3.07V252.259a3.07,3.07,0,0,1,3.069-3.07h60.294a3.07,3.07,0,0,1,3.069,3.07v36.107a3.07,3.07,0,0,1-3.069,3.07" fill="#ff4f5b"/>
        <path id="Trazado_1555" data-name="Trazado 1555" d="M264.766,266.232h-7.838v-7.84h-8.163v7.84h-7.837v8.162h7.837v7.837h8.163v-7.837h7.838Z" fill="#fff"/>
        <path id="Trazado_1556" data-name="Trazado 1556" d="M20.023,229.24a7.462,7.462,0,0,0-5.393,3.551,7.458,7.458,0,0,0-5.391-3.551C5.845,228.712,0,229.923,0,237.032c0,9.9,14.629,17.458,14.629,17.458s14.631-7.562,14.631-17.458c0-7.109-5.844-8.32-9.238-7.792" fill="#fff"/>
        <g id="Grupo_338" data-name="Grupo 338" opacity="0.7" style="mix-blend-mode: multiply;isolation: isolate">
          <g id="Grupo_337" data-name="Grupo 337">
            <g id="Grupo_336" data-name="Grupo 336" clip-path="url(#clip-path-22)">
              <path id="Trazado_1557" data-name="Trazado 1557" d="M188.741,308.567s.267-.176.659-.478c1.122-.867,3.29-2.793,3.29-4.764,0-2.656-3.949-2.752-3.949-.4,0-1.918-2.618-2.21-3.589-.815a2.077,2.077,0,0,0-.358,1.214c0,2.658,3.947,5.242,3.947,5.242" fill="gray"/>
              <path id="Trazado_1558" data-name="Trazado 1558" d="M213.583,348.015,194.45,314.876l-.27-.552-.267-.27a6.567,6.567,0,0,0-5.2-2.511l-.171,0a6.444,6.444,0,0,0-5.49,3.19l-.05.09-19.16,33.186a6.531,6.531,0,0,0,5.657,9.8h2.091a3.909,3.909,0,0,1,3.739,3.92v5.765a6.528,6.528,0,0,0,6.531,6.53l6.8,0,6.9,0a6.538,6.538,0,0,0,6.532-6.53l0-5.761a3.912,3.912,0,0,1,3.758-3.926h2.07a6.529,6.529,0,0,0,5.66-9.789m-44.08,5.11a1.849,1.849,0,0,1-1.6-2.773l19.158-33.186.05-.09a1.81,1.81,0,0,1,1.551-.85h.057a1.805,1.805,0,0,0-1.551.85l-.049.09-19.161,33.186a1.849,1.849,0,0,0,1.6,2.773Zm12.361,16.212a1.841,1.841,0,0,1-1.847-1.846v-5.765a8.608,8.608,0,0,0-8.327-8.6h.053a8.606,8.606,0,0,1,8.327,8.6l0,5.765a1.84,1.84,0,0,0,1.848,1.846Z" fill="gray"/>
              <path id="Trazado_1559" data-name="Trazado 1559" d="M188.714,297.9a1.652,1.652,0,0,0,1.651-1.651V286.74a1.653,1.653,0,0,0-3.305,0v9.512a1.652,1.652,0,0,0,1.654,1.651" fill="gray"/>
              <path id="Trazado_1560" data-name="Trazado 1560" d="M181.1,300.757a1.653,1.653,0,1,0,2.337-2.337l-6.723-6.725a1.654,1.654,0,1,0-2.339,2.338Z" fill="gray"/>
              <path id="Trazado_1561" data-name="Trazado 1561" d="M170.094,307.685H179.6a1.653,1.653,0,1,0,0-3.306l-9.511,0a1.654,1.654,0,0,0,0,3.309" fill="gray"/>
              <path id="Trazado_1562" data-name="Trazado 1562" d="M196.173,306.027a1.653,1.653,0,0,0,1.652,1.652h9.512a1.654,1.654,0,1,0,0-3.307h-9.51a1.654,1.654,0,0,0-1.652,1.654" fill="gray"/>
              <path id="Trazado_1563" data-name="Trazado 1563" d="M196.326,300.755l6.725-6.724a1.654,1.654,0,0,0-2.339-2.339l-6.723,6.723a1.654,1.654,0,0,0,2.337,2.34" fill="gray"/>
            </g>
          </g>
        </g>
        <path id="Trazado_1564" data-name="Trazado 1564" d="M187.854,302.04c0-1.919-2.618-2.21-3.59-.815a2.077,2.077,0,0,0-.357,1.212c0,2.659,3.947,5.244,3.947,5.244s.267-.177.658-.478c1.122-.867,3.291-2.8,3.291-4.766,0-2.656-3.949-2.751-3.949-.4" fill="#ec3b18"/>
        <path id="Trazado_1565" data-name="Trazado 1565" d="M187.829,315.339a1.81,1.81,0,0,1,1.6.848l0,0,19.212,33.273a1.848,1.848,0,0,1-1.6,2.772h-2.162a8.612,8.612,0,0,0-8.356,8.6l0,5.764a1.843,1.843,0,0,1-1.845,1.847h-13.7a1.842,1.842,0,0,1-1.847-1.847v-5.764a8.606,8.606,0,0,0-8.327-8.6h-2.188a1.85,1.85,0,0,1-1.6-2.774l19.159-33.186.05-.089a1.8,1.8,0,0,1,1.55-.85Zm0-4.684-.171,0a6.442,6.442,0,0,0-5.488,3.19l-.052.089L162.96,347.123a6.53,6.53,0,0,0,5.655,9.8h2.093a3.911,3.911,0,0,1,3.738,3.921V366.6a6.528,6.528,0,0,0,6.531,6.53l6.8,0,6.9,0a6.538,6.538,0,0,0,6.531-6.53l0-5.76a3.912,3.912,0,0,1,3.757-3.927h2.07a6.529,6.529,0,0,0,5.659-9.789l-19.132-33.139-.269-.551-.268-.27a6.57,6.57,0,0,0-5.2-2.512" fill="#fff"/>
        <path id="Trazado_1566" data-name="Trazado 1566" d="M186.23,329.966V316.278l-19.16,33.186a1.849,1.849,0,0,0,1.6,2.774h2.185a8.607,8.607,0,0,1,8.328,8.6V366.6a1.841,1.841,0,0,0,1.848,1.846h6.8V329.966Z" fill="#c299f6"/>
        <path id="Trazado_1567" data-name="Trazado 1567" d="M186.23,329.966V316.278l-19.16,33.186a1.849,1.849,0,0,0,1.6,2.774h2.185a8.607,8.607,0,0,1,8.328,8.6V366.6a1.841,1.841,0,0,0,1.848,1.846h6.8V329.966Z" fill="none" stroke="#231f20" stroke-miterlimit="10" stroke-width="1"/>
        <path id="Trazado_1568" data-name="Trazado 1568" d="M208.7,349.464l-19.214-33.272,0,0v13.778h-1.648V368.45h6.9a1.846,1.846,0,0,0,1.85-1.846l0-5.765a8.609,8.609,0,0,1,8.355-8.6h2.154a1.847,1.847,0,0,0,1.6-2.772" fill="#c299f6"/>
        <path id="Trazado_1569" data-name="Trazado 1569" d="M208.7,349.464l-19.214-33.272,0,0v13.778h-1.648V368.45h6.9a1.846,1.846,0,0,0,1.85-1.846l0-5.765a8.609,8.609,0,0,1,8.355-8.6h2.154a1.847,1.847,0,0,0,1.6-2.772Z" fill="none" stroke="#231f20" stroke-miterlimit="10" stroke-width="1"/>
        <path id="Trazado_1570" data-name="Trazado 1570" d="M187.831,315.339a1.8,1.8,0,0,0-1.551.851l-.05.088v13.688h3.249V316.188a1.817,1.817,0,0,0-1.648-.849" fill="#1a2121"/>
        <path id="Trazado_1571" data-name="Trazado 1571" d="M187.831,327.742h0v11.939h0a3.8,3.8,0,0,0,3.8-3.8v-4.33a3.8,3.8,0,0,0-3.8-3.8" fill="#fff"/>
        <path id="Trazado_1572" data-name="Trazado 1572" d="M184.026,331.547v4.33a3.805,3.805,0,0,0,3.8,3.8v-11.94a3.8,3.8,0,0,0-3.8,3.8" fill="#fff"/>
        <path id="Trazado_1573" data-name="Trazado 1573" d="M189.479,295.364a1.653,1.653,0,0,1-3.306,0v-9.511a1.653,1.653,0,0,1,3.306,0Z" fill="#fff"/>
        <path id="Trazado_1574" data-name="Trazado 1574" d="M182.552,297.532a1.653,1.653,0,1,1-2.337,2.338l-6.725-6.725a1.654,1.654,0,0,1,2.339-2.338Z" fill="#fff"/>
        <path id="Trazado_1575" data-name="Trazado 1575" d="M178.717,303.492a1.654,1.654,0,1,1,0,3.307h-9.51a1.655,1.655,0,0,1,0-3.31Z" fill="#fff"/>
        <path id="Trazado_1576" data-name="Trazado 1576" d="M196.939,306.792a1.654,1.654,0,0,1,0-3.307h9.51a1.655,1.655,0,0,1,0,3.309Z" fill="#fff"/>
        <path id="Trazado_1577" data-name="Trazado 1577" d="M195.439,299.868a1.654,1.654,0,0,1-2.338-2.341l6.724-6.722a1.654,1.654,0,0,1,2.339,2.339Z" fill="#fff"/>
      </g>
    </g>
  </g>
</svg>
