<svg id="Grupo_2" data-name="Grupo 2" xmlns="http://www.w3.org/2000/svg" xmlns:xlink="http://www.w3.org/1999/xlink" width="121.595" height="121.595" viewBox="0 0 121.595 121.595">
  <defs>
    <clipPath id="clip-path">
      <rect id="Rectángulo_1" data-name="Rectángulo 1" width="121.595" height="121.595" fill="none"/>
    </clipPath>
  </defs>
  <g id="Grupo_1" data-name="Grupo 1" clip-path="url(#clip-path)">
    <path id="Trazado_1" data-name="Trazado 1" d="M119.427,60.8A58.63,58.63,0,1,1,60.8,2.168,58.629,58.629,0,0,1,119.427,60.8" fill="#fff"/>
    <path id="Trazado_2" data-name="Trazado 2" d="M60.8,121.6a60.8,60.8,0,1,1,60.8-60.8,60.868,60.868,0,0,1-60.8,60.8m0-117.26A56.463,56.463,0,1,0,117.259,60.8,56.526,56.526,0,0,0,60.8,4.335" fill="#3e145e"/>
    <path id="Trazado_3" data-name="Trazado 3" d="M69.176,68.694H44.611a3.2,3.2,0,0,1-3.2-3.2V24.006a3.2,3.2,0,0,1,3.2-3.2H69.176a3.2,3.2,0,0,1,3.2,3.2V65.492a3.2,3.2,0,0,1-3.2,3.2" fill="#ffe227"/>
    <path id="Trazado_4" data-name="Trazado 4" d="M54.672,77.17S45,66.948,48.256,62.274c0,0,3.26-5.4,11.533,6.068V48.1s.808-4.134,3.389-4.031c0,0,3.877-.505,3.434,5.725l.036,8.969s3.319-6.822,6.287,0c0,0,5.145-2.668,6.149,2.44,0,0,5.558-3.021,6.922,4.019l-.668,26.492s3.473-.29,3.986,5.081c0,0-.067,4.293-3.84,3.889l-26.508.027a8.164,8.164,0,0,1-2.664-5.825s1.445-4.188,5.365-3.462c0,0-.655-8.618-7-14.252" fill="#fff"/>
    <path id="Trazado_5" data-name="Trazado 5" d="M60,69.479a1.332,1.332,0,0,1-1.332-1.332V47.761a4.458,4.458,0,1,1,8.915,0V63.669a1.332,1.332,0,0,1-2.664,0V47.761a1.793,1.793,0,0,0-3.587,0V68.147A1.332,1.332,0,0,1,60,69.479" fill="#3e145e"/>
    <path id="Trazado_6" data-name="Trazado 6" d="M85.007,93.2H60.862a1.333,1.333,0,0,1-1.332-1.332,19.844,19.844,0,0,0-1.042-6.356,1.333,1.333,0,0,1,2.526-.851,22.556,22.556,0,0,1,1.142,5.875H83.675V64.347a1.332,1.332,0,1,1,2.664,0V91.866A1.333,1.333,0,0,1,85.007,93.2" fill="#3e145e"/>
    <path id="Trazado_7" data-name="Trazado 7" d="M59.751,86.417a1.335,1.335,0,0,1-1.263-.907,19.922,19.922,0,0,0-2.653-5.2L48.5,70.028a1.332,1.332,0,1,1,2.17-1.546L58,78.766a22.567,22.567,0,0,1,3.01,5.893,1.334,1.334,0,0,1-1.263,1.758" fill="#3e145e"/>
    <path id="Trazado_8" data-name="Trazado 8" d="M61.846,71.323a1.325,1.325,0,0,1-.941-.391L53.23,63.258a2.575,2.575,0,0,0-3.918,3.315l1.361,1.909a1.332,1.332,0,0,1-2.17,1.546l-1.36-1.908a5.239,5.239,0,0,1,7.971-6.746l7.674,7.675a1.332,1.332,0,0,1-.942,2.274" fill="#3e145e"/>
    <path id="Trazado_9" data-name="Trazado 9" d="M85.007,65.68a1.332,1.332,0,0,1-1.332-1.332,1.794,1.794,0,0,0-3.588,0,1.332,1.332,0,0,1-2.664,0V61.18a1.793,1.793,0,1,0-3.587,0,1.332,1.332,0,0,1-2.664,0A4.458,4.458,0,0,1,80,60.306a4.459,4.459,0,0,1,6.338,4.042,1.333,1.333,0,0,1-1.332,1.332" fill="#3e145e"/>
    <path id="Trazado_10" data-name="Trazado 10" d="M72.5,66.347a1.333,1.333,0,0,1-1.332-1.332v-5.9a1.793,1.793,0,1,0-3.587,0,1.332,1.332,0,0,1-2.664,0,4.458,4.458,0,1,1,8.915,0v5.9A1.332,1.332,0,0,1,72.5,66.347" fill="#3e145e"/>
    <path id="Trazado_11" data-name="Trazado 11" d="M85.209,102.013H60.662a4.355,4.355,0,0,1-4.35-4.349v-2.78a4.355,4.355,0,0,1,4.35-4.35H85.209a4.355,4.355,0,0,1,4.349,4.35v2.78a4.355,4.355,0,0,1-4.349,4.349M60.662,93.2a1.688,1.688,0,0,0-1.686,1.686v2.78a1.687,1.687,0,0,0,1.686,1.685H85.209a1.686,1.686,0,0,0,1.685-1.685v-2.78A1.687,1.687,0,0,0,85.209,93.2Z" fill="#3e145e"/>
    <path id="Trazado_12" data-name="Trazado 12" d="M78.755,68.694a1.332,1.332,0,0,1-1.332-1.332V64.348a1.332,1.332,0,0,1,2.664,0v3.014a1.332,1.332,0,0,1-1.332,1.332" fill="#3e145e"/>
    <path id="Trazado_13" data-name="Trazado 13" d="M43.247,69.453a1.346,1.346,0,0,1-.519-.106,4.344,4.344,0,0,1-2.656-4.008V23.931a4.355,4.355,0,0,1,4.351-4.35H69.066a4.354,4.354,0,0,1,4.35,4.35V51.8a1.332,1.332,0,0,1-2.664,0V23.931a1.687,1.687,0,0,0-1.686-1.685H44.423a1.687,1.687,0,0,0-1.687,1.685V65.339a1.684,1.684,0,0,0,1.031,1.554,1.333,1.333,0,0,1-.52,2.56" fill="#3e145e"/>
    <path id="Trazado_14" data-name="Trazado 14" d="M64.184,27.733H49.3a3.283,3.283,0,0,1-3.28-3.281V20.913a1.332,1.332,0,0,1,1.332-1.332H66.132a1.332,1.332,0,0,1,1.332,1.332v3.539a3.283,3.283,0,0,1-3.28,3.281m-15.5-5.487v2.206a.617.617,0,0,0,.616.617h14.88a.617.617,0,0,0,.616-.617V22.246Z" fill="#3e145e"/>
    <path id="Trazado_15" data-name="Trazado 15" d="M56.251,54.641H52.972a1.331,1.331,0,0,1-1.332-1.332V49.172H47.5a1.332,1.332,0,0,1-1.332-1.333V40.295A1.333,1.333,0,0,1,47.5,38.963H51.64V34.827a1.33,1.33,0,0,1,1.332-1.332h7.544a1.331,1.331,0,0,1,1.332,1.332v4.136h4.137a1.332,1.332,0,1,1,0,2.664H60.516a1.331,1.331,0,0,1-1.332-1.332V36.159H54.3v4.136a1.332,1.332,0,0,1-1.332,1.332H48.834v4.88h4.138A1.333,1.333,0,0,1,54.3,47.839v4.138h1.947a1.332,1.332,0,1,1,0,2.664" fill="#3e145e"/>
    <path id="Trazado_16" data-name="Trazado 16" d="M77.753,102.014H44.308a1.332,1.332,0,0,1,0-2.664H77.753a1.332,1.332,0,0,1,0,2.664" fill="#3e145e"/>
  </g>
</svg>
