<svg xmlns="http://www.w3.org/2000/svg" xmlns:xlink="http://www.w3.org/1999/xlink" width="93.207" height="93.207" viewBox="0 0 93.207 93.207">
  <defs>
    <clipPath id="clip-path">
      <rect id="Rect치ngulo_6" data-name="Rect치ngulo 6" width="93.207" height="93.207" transform="translate(0 0)" fill="none"/>
    </clipPath>
  </defs>
  <g id="Grupo_11" data-name="Grupo 11" transform="translate(0 0)">
    <rect id="Rect치ngulo_5" data-name="Rect치ngulo 5" width="51.518" height="65.806" transform="translate(39.085 1.199)" fill="#ffe227"/>
    <g id="Grupo_10" data-name="Grupo 10">
      <g id="Grupo_9" data-name="Grupo 9" clip-path="url(#clip-path)">
        <path id="Trazado_65" data-name="Trazado 65" d="M91.735,0H38.754a1.472,1.472,0,0,0-1.471,1.472V20.719A12.038,12.038,0,0,0,28.4,16.99H26.37a10.622,10.622,0,0,0,2.573-7.025C28.943,4.471,24.982,0,20.113,0s-8.83,4.471-8.83,9.965a10.622,10.622,0,0,0,2.573,7.025H11.633A11.779,11.779,0,0,0,0,28.882V44a9.746,9.746,0,0,0,8.287,9.609v38.13a1.472,1.472,0,0,0,1.471,1.471H30.468a1.472,1.472,0,0,0,1.472-1.471V50.474h5.343V66.226A1.472,1.472,0,0,0,38.754,67.7h6L39.283,91.4a1.468,1.468,0,0,0,1.1,1.764,1.353,1.353,0,0,0,.333.039,1.472,1.472,0,0,0,1.432-1.14L47.774,67.7h16V91.736a1.472,1.472,0,0,0,2.943,0V67.7h16l5.624,24.369a1.473,1.473,0,0,0,1.432,1.14,1.369,1.369,0,0,0,.333-.039,1.467,1.467,0,0,0,1.1-1.764L85.735,67.7h6a1.472,1.472,0,0,0,1.471-1.472V1.472A1.472,1.472,0,0,0,91.735,0M90.263,64.754H40.226v-4.9H90.263ZM29,90.264H21.585V84.71H29ZM11.229,52.284V48.6H29V81.767H21.584V58.814a1.471,1.471,0,1,0-2.943,0V81.767H11.229Zm0,32.426h7.412v5.554H11.229ZM31.94,47.132V31.2A1.472,1.472,0,0,0,29,31.2V45.661H11.229V31.2a1.472,1.472,0,0,0-2.943,0V50.651A6.826,6.826,0,0,1,2.943,44V28.882a8.832,8.832,0,0,1,8.69-8.949H28.4c3.3,0,8.884,1.909,8.884,9.061V40.717a1.472,1.472,0,0,0,1.471,1.472h4.041v5.342H31.94ZM14.226,9.965c0-3.871,2.641-7.021,5.887-7.021S26,6.094,26,9.965s-2.64,7.025-5.886,7.025-5.887-3.153-5.887-7.025M45.739,47.531V42.189h2.549A2.9,2.9,0,0,1,51.252,44.4a2.6,2.6,0,0,1-.585,2.142,2.815,2.815,0,0,1-2.152.985Zm-5.513,2.943h8.289a5.75,5.75,0,0,0,4.4-2.027,5.567,5.567,0,0,0,1.241-4.528,5.868,5.868,0,0,0-5.867-4.674H40.226V2.944H90.263V56.906H40.226Z" fill="#3e145e"/>
        <path id="Trazado_66" data-name="Trazado 66" d="M68.188,7.849H46.6a1.472,1.472,0,1,0,0,2.943H68.188a1.472,1.472,0,1,0,0-2.943" fill="#3e145e"/>
        <path id="Trazado_67" data-name="Trazado 67" d="M64.263,18.642a1.472,1.472,0,1,0,0-2.943H62.3a1.472,1.472,0,1,0,0,2.943Z" fill="#3e145e"/>
        <path id="Trazado_68" data-name="Trazado 68" d="M46.6,18.642h9.812a1.472,1.472,0,0,0,0-2.943H46.6a1.472,1.472,0,1,0,0,2.943" fill="#3e145e"/>
        <path id="Trazado_69" data-name="Trazado 69" d="M83.886,7.849H76.037a1.472,1.472,0,0,0-1.472,1.472V17.17a1.472,1.472,0,0,0,1.472,1.472h7.849a1.472,1.472,0,0,0,1.472-1.472V9.321a1.472,1.472,0,0,0-1.472-1.472M82.415,15.7H77.509V10.793h4.906Z" fill="#3e145e"/>
        <path id="Trazado_70" data-name="Trazado 70" d="M68.188,23.547H54.452a1.471,1.471,0,1,0,0,2.943H68.188a1.471,1.471,0,1,0,0-2.943" fill="#3e145e"/>
        <path id="Trazado_71" data-name="Trazado 71" d="M46.6,26.49h1.962a1.471,1.471,0,1,0,0-2.943H46.6a1.471,1.471,0,1,0,0,2.943" fill="#3e145e"/>
        <path id="Trazado_72" data-name="Trazado 72" d="M68.188,31.4H46.6a1.472,1.472,0,1,0,0,2.943H68.188a1.472,1.472,0,1,0,0-2.943" fill="#3e145e"/>
        <path id="Trazado_73" data-name="Trazado 73" d="M83.886,23.547H76.037a1.472,1.472,0,0,0-1.472,1.472v7.849a1.472,1.472,0,0,0,1.472,1.471h7.849a1.472,1.472,0,0,0,1.472-1.471V25.019a1.472,1.472,0,0,0-1.472-1.472M82.415,31.4H77.509V26.491h4.906Z" fill="#3e145e"/>
        <path id="Trazado_74" data-name="Trazado 74" d="M68.188,47.094H60.611a1.471,1.471,0,1,0,0,2.943h7.577a1.471,1.471,0,1,0,0-2.943" fill="#3e145e"/>
        <path id="Trazado_75" data-name="Trazado 75" d="M68.188,39.245H60.611a1.472,1.472,0,1,0,0,2.943h7.577a1.472,1.472,0,1,0,0-2.943" fill="#3e145e"/>
        <path id="Trazado_76" data-name="Trazado 76" d="M83.886,39.246H76.037a1.472,1.472,0,0,0-1.472,1.471v7.849a1.473,1.473,0,0,0,1.472,1.472h7.849a1.473,1.473,0,0,0,1.472-1.472V40.717a1.472,1.472,0,0,0-1.472-1.471m-1.471,7.848H77.509V42.189h4.906Z" fill="#3e145e"/>
      </g>
    </g>
  </g>
</svg>
