<svg xmlns="http://www.w3.org/2000/svg" xmlns:xlink="http://www.w3.org/1999/xlink" width="93.207" height="93.207" viewBox="0 0 93.207 93.207">
  <defs>
    <clipPath id="clip-path">
      <rect id="Rectángulo_7" data-name="Rectángulo 7" width="93.207" height="93.207" transform="translate(0 0)" fill="none"/>
    </clipPath>
  </defs>
  <g id="Grupo_14" data-name="Grupo 14" transform="translate(0 0)">
    <path id="Trazado_77" data-name="Trazado 77" d="M70.521,48.01,73.733,55.3l-28.6,18.617L17.66,63.044,0,69.992V89.613l19.719-11.16L46.3,90,79.919,58.377l3.036,5.668,7.308-19.7Z" fill="#ffe227"/>
    <g id="Grupo_13" data-name="Grupo 13">
      <g id="Grupo_12" data-name="Grupo 12" clip-path="url(#clip-path)">
        <path id="Trazado_78" data-name="Trazado 78" d="M81.924,20.847H80.153a10.135,10.135,0,0,0,2.365-6.576c0-5.25-3.788-9.521-8.444-9.521s-8.442,4.271-8.442,9.521A10.134,10.134,0,0,0,68,20.847H66.042a10.918,10.918,0,0,0-2.206.226,11.5,11.5,0,0,0-8.753-4.084H52.859a10.607,10.607,0,0,0,2.575-7.02C55.434,4.473,51.473,0,46.6,0s-8.831,4.473-8.831,9.969a10.606,10.606,0,0,0,2.574,7.02h-2.03a11.965,11.965,0,0,0-9.154,4.055,12.559,12.559,0,0,0-2.183-.2H25.21a10.129,10.129,0,0,0,2.365-6.576c0-5.25-3.789-9.521-8.443-9.521s-8.444,4.271-8.444,9.521a10.13,10.13,0,0,0,2.366,6.576H11.1A11.235,11.235,0,0,0,0,32.189V44.65a9.311,9.311,0,0,0,7.849,9.172V66.313L1.006,68.594A1.475,1.475,0,0,0,0,69.991V89.613A1.472,1.472,0,0,0,2.187,90.9L17.66,82.3v1.582a1.472,1.472,0,0,0,2.944,0V82.047L46.017,93.084a1.466,1.466,0,0,0,1.594-.277L63.943,77.443a1.327,1.327,0,0,0,.321.066,1.472,1.472,0,0,0,1.471-1.472v-.28L80.5,61.868,82.5,65.819a1.465,1.465,0,0,0-.082.407v1.962a1.472,1.472,0,1,0,2.943,0V66.226a1.465,1.465,0,0,0-.084-.421l7.831-19.7c0-.014,0-.03,0-.045a1.439,1.439,0,0,0,.1-.5V32.3c0-7.866-5.848-11.45-11.282-11.45M89.382,47.5l-.439,1.1L83.727,61.725l-1.486-2.94a1.339,1.339,0,0,0-.206-.245,1.405,1.405,0,0,0-2.116-.163l-1.868,1.757L58.431,78.59l-2.336,2.2L46.3,90,19.719,78.453a1.47,1.47,0,0,0-1.3.064l-15.474,8.6V71.053l4.906-1.635,1.471-.49,1.472-.492,8.267-2.756,6.376,2.8,3.349,1.472,1.468.644,4.524,1.987,1.472.646,1.472.647,8.291,3.642a1.469,1.469,0,0,0,1.487-.181l7.989-6.126,1.472-1.129,1.472-1.129,4.917-3.768L65.4,63.612,69.715,60.3,77.1,54.638a1.472,1.472,0,0,0-.034-2.361l-1.842-1.324-.908-.653,4.4-.819,3.7-.687,2.38-.443.563-.1,1.6-.3ZM2.943,32.189a8.29,8.29,0,0,1,8.156-8.4H17.66V48.01H10.792V34.392a1.472,1.472,0,1,0-2.943,0V50.857A6.391,6.391,0,0,1,2.943,44.65ZM13.632,14.271c0-3.626,2.467-6.578,5.5-6.578s5.5,2.952,5.5,6.578-2.467,6.576-5.5,6.576-5.5-2.951-5.5-6.576m18.669,7.8a9.558,9.558,0,0,1,6.016-2.134H55.083A8.485,8.485,0,0,1,60.8,22.2a9,9,0,0,1,1.052,1.144,9.131,9.131,0,0,1,.8,1.234,9.033,9.033,0,0,1,1.121,4.308V48.85H58.431V31.2a1.543,1.543,0,0,0-1.472-1.472,1.6,1.6,0,0,0-.221.044A1.457,1.457,0,0,0,55.487,31.2V45.662H37.72V31.2a1.451,1.451,0,0,0-1.171-1.41,1.342,1.342,0,0,0-.3-.062A1.526,1.526,0,0,0,34.776,31.2V48.85H29.434V28.993a9.95,9.95,0,0,1,.977-4.528,7.667,7.667,0,0,1,.805-1.265A7.446,7.446,0,0,1,32.3,22.067m8.416-12.1c0-3.873,2.64-7.026,5.887-7.026S52.49,6.1,52.49,9.969s-2.64,7.02-5.886,7.02-5.887-3.15-5.887-7.02M66.042,23.79H72.6v3.19a1.472,1.472,0,1,0,2.943,0V23.79h6.378c3.1,0,8.339,1.792,8.339,8.507V44.342l-4.906.912V34.392a1.472,1.472,0,1,0-2.943,0V45.8L70.521,48.01H66.716V28.882A12.019,12.019,0,0,0,65.6,23.837c.147-.01.288-.047.439-.047m2.533-9.519c0-3.626,2.466-6.578,5.5-6.578s5.5,2.952,5.5,6.578-2.466,6.576-5.5,6.576-5.5-2.951-5.5-6.576M46.6,57.344a1.472,1.472,0,0,0-1.472,1.471v15.1L37.72,70.66V48.6H55.487V67.5l-7.412,5.684V58.815A1.472,1.472,0,0,0,46.6,57.344m-17.17-5.551h5.342v2.774a2.813,2.813,0,0,1-.8,1.976,2.622,2.622,0,0,1-2.328.765,2.394,2.394,0,0,1-1.237-.683,3.145,3.145,0,0,1-.981-2.284Zm.981,8.215a5.286,5.286,0,0,0,.753.2,5.749,5.749,0,0,0,.935.076,5.465,5.465,0,0,0,2.673-.719v9.8l-4.361-1.916Zm28.016-8.215h5.341v2.774a2.807,2.807,0,0,1-.794,1.976c-.058.06-.124.1-.186.151a2.588,2.588,0,0,1-2.143.614,2.91,2.91,0,0,1-2.218-2.967Zm0,7.779a5.143,5.143,0,0,0,1.734.639,5.74,5.74,0,0,0,.935.076A5.494,5.494,0,0,0,62.792,60v1.9l-4.361,3.345Zm7.3-1.784a5.749,5.749,0,0,0,.981-3.221V50.953h3.465l3.552,2.557-8,6.134ZM26.49,28.993V48.01H20.6V23.79H26.98c.158,0,.325.008.494.018a13.252,13.252,0,0,0-.984,5.185M10.792,52.5V50.953h15.7v3.388a6.182,6.182,0,0,0,.982,3.319v8.5L20.6,63.145v-2.6a1.472,1.472,0,0,0-2.944,0v2.495l-6.868,2.29Z" fill="#3e145e"/>
        <path id="Trazado_79" data-name="Trazado 79" d="M82.414,91.735a1.472,1.472,0,1,0,2.943,0V89.772a1.472,1.472,0,1,0-2.943,0Z" fill="#3e145e"/>
        <path id="Trazado_80" data-name="Trazado 80" d="M82.414,83.886a1.472,1.472,0,1,0,2.943,0V81.924a1.472,1.472,0,1,0-2.943,0Z" fill="#3e145e"/>
        <path id="Trazado_81" data-name="Trazado 81" d="M83.886,77.509a1.473,1.473,0,0,0,1.472-1.472V74.075a1.472,1.472,0,0,0-2.944,0v1.962a1.473,1.473,0,0,0,1.472,1.472" fill="#3e145e"/>
        <path id="Trazado_82" data-name="Trazado 82" d="M64.264,85.357a1.473,1.473,0,0,0,1.472-1.472V81.923a1.472,1.472,0,0,0-2.944,0v1.962a1.473,1.473,0,0,0,1.472,1.472" fill="#3e145e"/>
        <path id="Trazado_83" data-name="Trazado 83" d="M62.792,91.735a1.472,1.472,0,1,0,2.943,0V89.772a1.472,1.472,0,1,0-2.943,0Z" fill="#3e145e"/>
        <path id="Trazado_84" data-name="Trazado 84" d="M20.6,91.735V89.772a1.472,1.472,0,1,0-2.943,0v1.963a1.472,1.472,0,1,0,2.943,0" fill="#3e145e"/>
      </g>
    </g>
  </g>
</svg>
