<svg xmlns="http://www.w3.org/2000/svg" xmlns:xlink="http://www.w3.org/1999/xlink" width="93.71" height="93.885" viewBox="0 0 93.71 93.885">
  <defs>
    <clipPath id="clip-path">
      <rect id="Rectángulo_13" data-name="Rectángulo 13" width="93.71" height="93.885" transform="translate(0 0)" fill="none"/>
    </clipPath>
  </defs>
  <g id="Grupo_19" data-name="Grupo 19" transform="translate(0 0)">
    <g id="Grupo_18" data-name="Grupo 18" clip-path="url(#clip-path)">
      <path id="Trazado_105" data-name="Trazado 105" d="M92.262,45.12c0,24.919-20.653,45.12-46.131,45.12S0,70.039,0,45.12,20.654,0,46.131,0,92.262,20.2,92.262,45.12" fill="#ffe227"/>
      <path id="Trazado_106" data-name="Trazado 106" d="M37.72,90.24,36.8,79.552s-6,6.924-10.309-2.776l.4-28.724S32.36,39.51,40.347,39.2c0,0-6.209-12.589,4.785-16.821,0,0,10.846-.172,10.3,9.8,0,0-1.589,7.641-2.772,9.968,0,0,14.054-5.339,14.054,9.06l-.771,28.35s-4.788,4.516-10.4.975l1.413,12.656H36.248" fill="#f3f7fa"/>
      <path id="Trazado_107" data-name="Trazado 107" d="M83.548,18.233a1.2,1.2,0,0,0-.126-.111A46.522,46.522,0,0,0,47.966.7C47.785.695,47.6.678,47.423.678c-.04,0-.081,0-.122,0-.064,0-.129,0-.195,0A46.532,46.532,0,0,0,10.763,18.157c-.027.03-.065.048-.09.08s-.025.063-.044.094a46.556,46.556,0,0,0,24.65,74.028v.054a1.472,1.472,0,0,0,1.472,1.471H57.462a1.472,1.472,0,0,0,1.471-1.471v-.054a46.555,46.555,0,0,0,24.676-74,.893.893,0,0,0-.061-.129M82.073,73.4a47.237,47.237,0,0,0-7.723-4.39,64.968,64.968,0,0,0,3.629-20.255H90.728A43.405,43.405,0,0,1,82.073,73.4M58.933,89.3V82.475A5.463,5.463,0,0,0,61.6,83.2a5.614,5.614,0,0,0,.939-.079,5.865,5.865,0,0,0,4.675-5.866V69.409a48.183,48.183,0,0,1,13,6.283A43.749,43.749,0,0,1,58.933,89.3M3.485,48.753H16.236a63.069,63.069,0,0,0,3.75,20.2A47.288,47.288,0,0,0,12.142,73.4,43.421,43.421,0,0,1,3.485,48.753M12.17,21.128a47.235,47.235,0,0,0,7.882,4.455A62.549,62.549,0,0,0,16.228,45.81H3.485A43.406,43.406,0,0,1,12.17,21.128M33.811,5.7c-5.128,3.928-9.535,9.927-12.658,17.162a44.368,44.368,0,0,1-7.127-4.025A43.772,43.772,0,0,1,33.811,5.7M80.187,18.836a44.244,44.244,0,0,1-6.914,3.931C70.35,15.751,66.242,9.941,61.414,6.041a43.79,43.79,0,0,1,18.773,12.8M67.219,66.3V51.9a14.4,14.4,0,0,0-.342-3.151h8.159a62.156,62.156,0,0,1-3.388,19.075q-2.153-.84-4.429-1.526M55.99,90.031v.91H48.578V81.724a1.472,1.472,0,1,0-2.944,0v9.217H38.222V71.514H55.99V90.031Zm-33.3-22.253a60.171,60.171,0,0,1-3.509-19.025h8.213a12.125,12.125,0,0,0-.4,3.039V66.306c-1.472.444-2.911.932-4.306,1.472M29.937,74.7h5.342v2.548a2.905,2.905,0,0,1-2.217,2.963,2.706,2.706,0,0,1-3.125-2.736Zm29,0h5.343v2.548a2.905,2.905,0,0,1-2.217,2.963,2.7,2.7,0,0,1-3.126-2.736Zm5.343-6.142v3.2H58.933V54.115a1.471,1.471,0,1,0-2.943,0V68.571H38.222V54.115a1.472,1.472,0,1,0-2.943,0V71.759H29.937V51.792a9.11,9.11,0,0,1,.55-3.039A9,9,0,0,1,32.21,45.81a8.53,8.53,0,0,1,6.417-2.967H55.392a9.249,9.249,0,0,1,6.865,2.967,7.937,7.937,0,0,1,1.577,2.943,10.873,10.873,0,0,1,.442,3.151V68.561ZM52.993,32.874c0,3.873-2.641,7.026-5.887,7.026s-5.887-3.153-5.887-7.026a8.068,8.068,0,0,1,.277-2.007A7.431,7.431,0,0,1,42.883,28a5.228,5.228,0,0,1,8.447,0,7.446,7.446,0,0,1,1.387,2.866,8.022,8.022,0,0,1,.276,2.007M48.578,23.08V3.669C57.7,4.3,65.847,12.306,70.623,23.92a62.449,62.449,0,0,1-16.005,3.788,8.853,8.853,0,0,0-6.04-4.628m-2.944,0a8.865,8.865,0,0,0-6.042,4.628A62.462,62.462,0,0,1,23.8,24.01C28.628,12.7,36.716,4.685,45.634,3.729Zm-7.091,7.472a11.05,11.05,0,0,0-.267,2.322A10.616,10.616,0,0,0,40.85,39.9H38.627A11.583,11.583,0,0,0,28.59,45.81H19.172a60.228,60.228,0,0,1,3.539-19.069,65.2,65.2,0,0,0,15.832,3.811M65.8,45.81A11.6,11.6,0,0,0,55.392,39.9H53.363a10.615,10.615,0,0,0,2.573-7.026,11.184,11.184,0,0,0-.265-2.322,65.1,65.1,0,0,0,16-3.884A62.6,62.6,0,0,1,75.044,45.81Zm-38.8,23.6v8.067a5.616,5.616,0,0,0,6.554,5.639,5.152,5.152,0,0,0,1.731-.636V89.3A43.741,43.741,0,0,1,14,75.694a48.288,48.288,0,0,1,13-6.283m50.993-23.6A64.79,64.79,0,0,0,74.335,25.5a46.986,46.986,0,0,0,7.709-4.377A43.406,43.406,0,0,1,90.728,45.81Z" fill="#3e145e"/>
    </g>
  </g>
</svg>
