<svg id="Grupo_192" data-name="Grupo 192" xmlns="http://www.w3.org/2000/svg" xmlns:xlink="http://www.w3.org/1999/xlink" width="945.68" height="298.255" viewBox="0 0 945.68 298.255">
  <defs>
    <clipPath id="clip-path">
      <rect id="Rectángulo_202" data-name="Rectángulo 202" width="945.68" height="298.255" fill="none"/>
    </clipPath>
    <clipPath id="clip-path-3">
      <rect id="Rectángulo_112" data-name="Rectángulo 112" width="27.308" height="8.476" transform="translate(510.243 197.064)" fill="none"/>
    </clipPath>
    <clipPath id="clip-path-4">
      <rect id="Rectángulo_113" data-name="Rectángulo 113" width="58.263" height="29.054" transform="translate(428.186 129.831)" fill="none"/>
    </clipPath>
    <clipPath id="clip-path-5">
      <rect id="Rectángulo_114" data-name="Rectángulo 114" width="41.029" height="9.93" transform="translate(382.445 190.559)" fill="none"/>
    </clipPath>
  </defs>
  <g id="Grupo_191" data-name="Grupo 191" clip-path="url(#clip-path)">
    <g id="Grupo_190" data-name="Grupo 190">
      <g id="Grupo_189" data-name="Grupo 189" clip-path="url(#clip-path)">
        <path id="Trazado_958" data-name="Trazado 958" d="M507.644,295.6c-19.335-11.842-25-35.646-25.566-57.317-.1-3.618-.722-7.4.8-10.67s5.4-5.677,8.727-4.351c2.757,1.1,4.113,4.148,5.768,6.636a21.163,21.163,0,0,0,8.956,7.576c2.37,1.054,5.258,1.611,7.452.223,3.009-1.906,3.118-6.23,2.879-9.82q-.671-10.033-1.337-20.066c-.24-3.589-.471-7.255.439-10.73s3.188-6.789,6.545-7.952,7.7.552,8.635,4.023a33.546,33.546,0,0,1,.371,4.464c.189,1.485.983,3.091,2.425,3.421,1.458.335,2.833-.77,3.842-1.885,3.488-3.849,5.72-8.671,7.79-13.457s4.065-9.678,7.189-13.835,7.585-7.571,12.71-8.173,10.794,2.242,12.4,7.212-1.035,10.3-4,14.588A80.271,80.271,0,0,1,557.943,202.4a6.608,6.608,0,0,0-2.611,3.169c-.635,2.441,1.777,4.681,4.187,5.326,2.73.729,5.618.276,8.437.436s5.927,1.213,7.145,3.8c1.692,3.581-1.144,7.613-4.013,10.315a68.8,68.8,0,0,1-19.61,12.955c-2.583,1.126-5.312,2.141-7.329,4.125s-3.109,5.289-1.669,7.74,4.792,3.065,7.527,2.384,5.121-2.331,7.7-3.485c4.821-2.161,11.213-2.205,14.631,1.869,2.246,2.677,2.664,6.569,1.816,9.974a26.26,26.26,0,0,1-4.907,9.2c-7.349,9.756-17.022,17.836-28.229,22.5s-21.746,6.374-33.372,2.9" fill="#f5f5f5"/>
        <path id="Trazado_959" data-name="Trazado 959" d="M512.409,281.707a322.2,322.2,0,0,1,10.68-35.407l3.276-9.138c1.082-3,2.155-5.969,3.385-8.809a160.406,160.406,0,0,1,8-15.925c2.789-4.943,5.616-9.531,8.29-13.8s5.263-8.2,7.765-11.679a127.7,127.7,0,0,1,13.016-15.534c1.674-1.708,3.016-2.989,3.938-3.846l1.054-.967a2.879,2.879,0,0,1,.374-.313,2.34,2.34,0,0,1-.328.362l-1.009,1.016c-.889.888-2.2,2.2-3.846,3.931a134.833,134.833,0,0,0-12.821,15.629c-2.47,3.489-5.019,7.423-7.679,11.7s-5.458,8.872-8.227,13.809a162.862,162.862,0,0,0-7.931,15.88c-1.219,2.827-2.28,5.775-3.362,8.779s-2.167,6.05-3.272,9.133A330.489,330.489,0,0,0,513,281.849" fill="#e1e1e1"/>
        <path id="Trazado_960" data-name="Trazado 960" d="M529.937,228.316a7.214,7.214,0,0,1-.443-1.511c-.249-.98-.562-2.411-.921-4.184-.724-3.544-1.556-8.473-2.452-13.909s-1.8-10.343-2.573-13.867c-.382-1.762-.706-3.186-.943-4.167a7.238,7.238,0,0,1-.295-1.547,7.164,7.164,0,0,1,.543,1.478c.313.962.708,2.373,1.149,4.128.9,3.509,1.873,8.418,2.77,13.863.871,5.368,1.658,10.224,2.26,13.935.282,1.674.522,3.085.714,4.218a7.2,7.2,0,0,1,.191,1.563" fill="#e1e1e1"/>
        <path id="Trazado_961" data-name="Trazado 961" d="M575.577,216.9a10.008,10.008,0,0,1-1.828.332c-1.178.177-2.884.423-4.982.8-4.2.711-9.967,1.9-16.274,3.484s-11.949,3.288-16,4.629c-2.029.655-3.656,1.231-4.784,1.621a10,10,0,0,1-1.775.551,9.79,9.79,0,0,1,1.683-.795c1.1-.466,2.71-1.11,4.726-1.826,4.019-1.459,9.663-3.226,15.987-4.83a163.026,163.026,0,0,1,16.362-3.3c2.113-.313,3.834-.49,5.026-.587a9.715,9.715,0,0,1,1.856-.073" fill="#e1e1e1"/>
        <path id="Trazado_962" data-name="Trazado 962" d="M512.924,280.825a2.367,2.367,0,0,1-.351-.544l-.889-1.622c-.767-1.412-1.823-3.485-3.1-6.063-2.546-5.154-5.839-12.383-9.365-20.41s-6.749-15.28-9.185-20.479c-1.191-2.528-2.173-4.606-2.9-6.151-.313-.67-.569-1.224-.78-1.678a.326.326,0,1,1,.118-.062l.89,1.621c.767,1.412,1.823,3.485,3.094,6.063,2.547,5.153,5.84,12.384,9.367,20.413s6.748,15.277,9.183,20.477c1.193,2.527,2.173,4.606,2.9,6.15l.781,1.679a2.369,2.369,0,0,1,.231.606" fill="#e1e1e1"/>
        <path id="Trazado_963" data-name="Trazado 963" d="M573.072,257.353a2.442,2.442,0,0,1-.594.287c-.469.191-1.047.423-1.745.7l-6.44,2.526c-5.438,2.132-12.913,5.166-21.17,8.528s-15.771,6.33-21.254,8.351c-2.741,1.012-4.968,1.808-6.518,2.327-.717.235-1.307.428-1.787.587a2.544,2.544,0,0,1-.639.161,2.49,2.49,0,0,1,.593-.289l1.745-.7,6.44-2.525c5.437-2.133,12.915-5.166,21.174-8.529s15.767-6.329,21.251-8.351c2.741-1.011,4.966-1.807,6.517-2.326l1.788-.587a2.415,2.415,0,0,1,.639-.161" fill="#e1e1e1"/>
        <path id="Trazado_964" data-name="Trazado 964" d="M517.242,49.478c-3.3,8.255-8.577,21.6-11,27.732a3.526,3.526,0,0,0,1.976,4.572l22.553,8.982a3.526,3.526,0,0,0,4.582-1.972L546.3,61.318a7.831,7.831,0,0,0-4.377-10.172l1.609-4.041-14.769-5.883-1.522,3.82-.056-.019a7.827,7.827,0,0,0-9.939,4.455" fill="#f5f5f5"/>
        <path id="Trazado_965" data-name="Trazado 965" d="M528.553,41.736l-.731,1.838,14.56,6.407.942-2.362Z" fill="#e1e1e1"/>
        <path id="Trazado_966" data-name="Trazado 966" d="M542.816,48.785l-14.634-5.829a1.932,1.932,0,0,1-1.08-2.509l1.1-2.759a2.99,2.99,0,0,1,3.885-1.672l12.665,5.044a2.99,2.99,0,0,1,1.671,3.886l-1.1,2.759a1.931,1.931,0,0,1-2.509,1.08" fill="#ececec"/>
        <path id="Trazado_967" data-name="Trazado 967" d="M528.709,43.2a18.756,18.756,0,0,1,1.26-3.727,18.773,18.773,0,0,1,1.647-3.572,18.6,18.6,0,0,1-1.26,3.727,18.633,18.633,0,0,1-1.647,3.572" fill="#e1e1e1"/>
        <path id="Trazado_968" data-name="Trazado 968" d="M530.655,43.974a18.726,18.726,0,0,1,1.26-3.727,18.778,18.778,0,0,1,1.647-3.572A18.543,18.543,0,0,1,532.3,40.4a18.672,18.672,0,0,1-1.647,3.572" fill="#e1e1e1"/>
        <path id="Trazado_969" data-name="Trazado 969" d="M532.6,44.749a18.6,18.6,0,0,1,1.259-3.727,18.809,18.809,0,0,1,1.647-3.572,18.538,18.538,0,0,1-1.26,3.727,18.739,18.739,0,0,1-1.646,3.572" fill="#e1e1e1"/>
        <path id="Trazado_970" data-name="Trazado 970" d="M534.549,45.525a18.557,18.557,0,0,1,1.258-3.727,18.808,18.808,0,0,1,1.649-3.573,18.739,18.739,0,0,1-1.261,3.728,18.89,18.89,0,0,1-1.646,3.572" fill="#e1e1e1"/>
        <path id="Trazado_971" data-name="Trazado 971" d="M536.495,46.3a18.729,18.729,0,0,1,1.259-3.727A18.741,18.741,0,0,1,539.4,39a18.673,18.673,0,0,1-1.26,3.727,18.7,18.7,0,0,1-1.647,3.572" fill="#e1e1e1"/>
        <path id="Trazado_972" data-name="Trazado 972" d="M538.441,47.075a18.675,18.675,0,0,1,1.26-3.727,18.707,18.707,0,0,1,1.647-3.572,18.675,18.675,0,0,1-1.26,3.727,18.7,18.7,0,0,1-1.647,3.572" fill="#e1e1e1"/>
        <path id="Trazado_973" data-name="Trazado 973" d="M540.387,47.85a18.672,18.672,0,0,1,1.26-3.727,18.707,18.707,0,0,1,1.647-3.572,18.7,18.7,0,0,1-1.26,3.727,18.709,18.709,0,0,1-1.647,3.572" fill="#e1e1e1"/>
        <path id="Trazado_974" data-name="Trazado 974" d="M542.334,48.625a18.653,18.653,0,0,1,1.26-3.727,18.661,18.661,0,0,1,1.647-3.572,18.7,18.7,0,0,1-1.26,3.727,18.67,18.67,0,0,1-1.647,3.572" fill="#e1e1e1"/>
        <path id="Trazado_975" data-name="Trazado 975" d="M533.993,76.978l-18.408-7.331a1.483,1.483,0,0,1-.828-1.926l4.477-11.244a1.483,1.483,0,0,1,1.926-.828l18.408,7.331a1.484,1.484,0,0,1,.829,1.927L535.919,76.15a1.481,1.481,0,0,1-1.926.828" fill="#ececec"/>
        <path id="Trazado_976" data-name="Trazado 976" d="M534.335,76a1.572,1.572,0,0,1,.077-.24l.242-.659c.23-.6.544-1.432.94-2.472.831-2.146,2-5.168,3.427-8.841l.092.215-18.564-7.348c-.06.025.512-.221.269-.115v0l0,.006,0,.013-.011.025-.02.051-.04.1-.081.2-.16.4-.32.8-.634,1.589q-.629,1.576-1.238,3.1c-.814,2.031-1.6,3.986-2.342,5.846l-.108-.249c5.4,2.19,9.99,4.054,13.276,5.389l3.819,1.576,1.023.433a2.856,2.856,0,0,1,.361.168,1.994,1.994,0,0,1-.337-.109l-1.005-.376-3.816-1.464-13.462-5.261-.179-.069.071-.18c.738-1.862,1.513-3.821,2.319-5.855q.6-1.526,1.232-3.1c.209-.525.42-1.056.633-1.589l.319-.8.161-.4.08-.2.041-.1.019-.05.011-.026.005-.012,0-.006,0,0c-.242.1.331-.144.273-.117l18.532,7.426.156.063-.063.153c-1.508,3.688-2.747,6.72-3.628,8.872l-1,2.406c-.107.25-.2.452-.265.617a.9.9,0,0,1-.1.195" fill="#e1e1e1"/>
        <path id="Trazado_977" data-name="Trazado 977" d="M534.738,66.64a55.813,55.813,0,0,1-6.38-2.316,55.3,55.3,0,0,1-6.225-2.7,55.359,55.359,0,0,1,6.379,2.317,55.354,55.354,0,0,1,6.226,2.7" fill="#e1e1e1"/>
        <path id="Trazado_978" data-name="Trazado 978" d="M533.884,68.783a55.352,55.352,0,0,1-6.38-2.316,55.08,55.08,0,0,1-6.225-2.705,110.694,110.694,0,0,1,12.6,5.021" fill="#e1e1e1"/>
        <path id="Trazado_979" data-name="Trazado 979" d="M533.064,70.841a55.444,55.444,0,0,1-6.38-2.315,54.967,54.967,0,0,1-6.225-2.706,55.587,55.587,0,0,1,6.379,2.317,55.7,55.7,0,0,1,6.226,2.7" fill="#e1e1e1"/>
        <path id="Trazado_980" data-name="Trazado 980" d="M541.126,50.682a65.629,65.629,0,0,1-6.956-2.546,66.013,66.013,0,0,1-6.8-2.933,65.8,65.8,0,0,1,6.957,2.545,66.313,66.313,0,0,1,6.8,2.934" fill="#e1e1e1"/>
        <path id="Trazado_981" data-name="Trazado 981" d="M508.092,76.1a9.209,9.209,0,0,1,.446-1.329c.347-.906.806-2.109,1.362-3.566,1.166-3,2.8-7.143,4.635-11.7l2.6-6.426a13.826,13.826,0,0,1,2.928-4.874,6.162,6.162,0,0,1,3.406-1.74,4.389,4.389,0,0,1,1.051,0,1.183,1.183,0,0,1,.355.086,8.53,8.53,0,0,0-1.381.079,6.224,6.224,0,0,0-3.224,1.79,13.967,13.967,0,0,0-2.779,4.808c-.793,1.985-1.659,4.156-2.569,6.437-1.833,4.561-3.514,8.683-4.75,11.659-.605,1.436-1.106,2.623-1.483,3.516a8.953,8.953,0,0,1-.6,1.269" fill="#fff"/>
        <path id="Trazado_982" data-name="Trazado 982" d="M533.438,90.61a5.867,5.867,0,0,1-.888-.718c-.272-.244-.609-.538-1.02-.858s-.853-.711-1.388-1.087a38.844,38.844,0,0,0-3.821-2.531,38.1,38.1,0,0,0-10.391-4.138,38.869,38.869,0,0,0-4.515-.788c-.648-.1-1.239-.119-1.756-.165s-.965-.068-1.331-.077a6.2,6.2,0,0,1-1.138-.089,5.9,5.9,0,0,1,1.14-.074c.368-.015.818-.021,1.34.007s1.12.028,1.774.1a34.489,34.489,0,0,1,4.572.707,35.732,35.732,0,0,1,10.5,4.181,34.586,34.586,0,0,1,3.807,2.629c.527.4.964.8,1.359,1.144s.721.652.979.916a5.871,5.871,0,0,1,.777.837" fill="#fff"/>
        <path id="Trazado_983" data-name="Trazado 983" d="M400.009,173.551,338.8,203.012a2.408,2.408,0,0,1-3.214-1.125l-41.25-85.7a2.407,2.407,0,0,1,1.125-3.214L356.67,83.513a2.408,2.408,0,0,1,3.214,1.125l41.25,85.7a2.409,2.409,0,0,1-1.125,3.215" fill="#e1e1e1"/>
        <rect id="Rectángulo_111" data-name="Rectángulo 111" width="64.62" height="93.014" transform="translate(297.877 114.175) rotate(-25.703)" fill="#fafafa"/>
        <path id="Trazado_984" data-name="Trazado 984" d="M339.441,95.733a7.919,7.919,0,0,0-8.283-.865l-1.784-3.542a5.439,5.439,0,0,0-9.8,4.717l1.79,3.719-1.24.622a7.921,7.921,0,0,0-4.368,6.974l-.025,1.843L341.079,97Zm-13.53.577a2.928,2.928,0,1,1,1.368-3.907,2.928,2.928,0,0,1-1.368,3.907" fill="#ececec"/>
        <path id="Trazado_985" data-name="Trazado 985" d="M325.173,115.661c.05.1-3.444,1.89-7.8,3.987s-7.934,3.716-7.984,3.613,3.443-1.889,7.8-3.989,7.934-3.715,7.984-3.611" fill="#e1e1e1"/>
        <path id="Trazado_986" data-name="Trazado 986" d="M318.276,122.262a42.859,42.859,0,0,1-7.608,3.662,42.771,42.771,0,0,1,7.608-3.662" fill="#e1e1e1"/>
        <path id="Trazado_987" data-name="Trazado 987" d="M358.939,111.826c.05.1-9.747,4.924-21.879,10.763S315.048,133.081,315,132.976s9.745-4.921,21.88-10.763,22.01-10.491,22.06-10.387" fill="#e1e1e1"/>
        <path id="Trazado_988" data-name="Trazado 988" d="M360.956,116.016c.051.1-9.746,4.923-21.878,10.763s-22.012,10.491-22.062,10.387,9.745-4.921,21.88-10.763,22.01-10.491,22.06-10.387" fill="#e1e1e1"/>
        <path id="Trazado_989" data-name="Trazado 989" d="M362.973,120.206c.05.1-9.747,4.923-21.879,10.763s-22.012,10.491-22.061,10.387,9.744-4.922,21.88-10.763,22.009-10.491,22.06-10.387" fill="#e1e1e1"/>
        <path id="Trazado_990" data-name="Trazado 990" d="M364.99,124.4c.05.1-9.747,4.923-21.879,10.763S321.1,145.651,321.05,145.546s9.744-4.921,21.88-10.763,22.01-10.491,22.06-10.387" fill="#e1e1e1"/>
        <path id="Trazado_991" data-name="Trazado 991" d="M367.007,128.586c.049.1-9.747,4.923-21.88,10.763s-22.012,10.491-22.061,10.387,9.745-4.921,21.88-10.763,22.01-10.491,22.061-10.387" fill="#e1e1e1"/>
        <path id="Trazado_992" data-name="Trazado 992" d="M369.023,132.776c.051.1-9.746,4.924-21.878,10.763s-22.012,10.492-22.062,10.387,9.745-4.921,21.88-10.763,22.01-10.491,22.06-10.387" fill="#e1e1e1"/>
        <path id="Trazado_993" data-name="Trazado 993" d="M348.872,147.129a4.223,4.223,0,0,1-.828.489l-2.325,1.193c-1.972.991-4.708,2.334-7.741,3.794s-5.791,2.761-7.794,3.684c-.945.425-1.742.783-2.383,1.073a4.12,4.12,0,0,1-.9.342,4.374,4.374,0,0,1,.827-.488l2.327-1.193c1.97-.991,4.707-2.334,7.741-3.794s5.789-2.761,7.794-3.684l2.383-1.073a4.344,4.344,0,0,1,.9-.343" fill="#e1e1e1"/>
        <path id="Trazado_994" data-name="Trazado 994" d="M355.8,100.449a36.616,36.616,0,0,1-7.038,3.388,36.7,36.7,0,0,1,7.038-3.388" fill="#e1e1e1"/>
        <path id="Trazado_995" data-name="Trazado 995" d="M343.28,161.067A48.076,48.076,0,0,1,337.665,164a48.238,48.238,0,0,1-5.8,2.559,96.426,96.426,0,0,1,11.413-5.494" fill="#e1e1e1"/>
        <path id="Trazado_996" data-name="Trazado 996" d="M345.492,164.688a49.83,49.83,0,0,1-5.711,2.98,49.609,49.609,0,0,1-5.893,2.6,99.354,99.354,0,0,1,11.6-5.585" fill="#e1e1e1"/>
        <path id="Trazado_997" data-name="Trazado 997" d="M376.1,144.565a22.485,22.485,0,0,1-5.516,2.655,22.58,22.58,0,0,1,5.516-2.655" fill="#e1e1e1"/>
        <path id="Trazado_998" data-name="Trazado 998" d="M377.942,147.9a22.515,22.515,0,0,1-5.517,2.655,11.488,11.488,0,0,1,2.668-1.515,11.37,11.37,0,0,1,2.849-1.14" fill="#e1e1e1"/>
        <path id="Trazado_999" data-name="Trazado 999" d="M342.089,171.246a21,21,0,0,1-5.327,2.563,21.085,21.085,0,0,1,5.327-2.563" fill="#e1e1e1"/>
        <path id="Trazado_1000" data-name="Trazado 1000" d="M380.054,151.8a11.889,11.889,0,0,1-3.994,1.923,11.863,11.863,0,0,1,3.994-1.923" fill="#e1e1e1"/>
        <path id="Trazado_1001" data-name="Trazado 1001" d="M340.753,183a1.049,1.049,0,0,1,.222-.171l.675-.449c.635-.406,1.5-.964,2.592-1.662l9.3-5.842.183-.115.08.2a5.248,5.248,0,0,1,.1,3.531,4.319,4.319,0,0,1-2.561,2.777,4.276,4.276,0,0,1-3.966-.448,3.724,3.724,0,0,1-1.327-3.9,3.365,3.365,0,0,1,.766-1.455,2.082,2.082,0,0,1,.3-.286,1.436,1.436,0,0,1,.364-.249.6.6,0,0,1,.56.019.951.951,0,0,1,.317.368,7.188,7.188,0,0,1,.358,5.9A4.472,4.472,0,0,1,347,183.5a2.562,2.562,0,0,1-2.707-.06,3.863,3.863,0,0,1-1.606-2.012,9.3,9.3,0,0,1,.025-4.524l.051-.3.2.229a6.276,6.276,0,0,1,1.526,3.455,6.669,6.669,0,0,1-.267,2.843,5.92,5.92,0,0,1-.806,1.613c-.122.167-.23.283-.3.363s-.108.117-.114.112a7.479,7.479,0,0,0,1.061-2.136,6.639,6.639,0,0,0,.192-2.764,6.079,6.079,0,0,0-1.512-3.285l.255-.076a9.089,9.089,0,0,0,.01,4.362,3.524,3.524,0,0,0,1.468,1.81,2.183,2.183,0,0,0,2.319.046,4.106,4.106,0,0,0,1.55-2.1,6.8,6.8,0,0,0-.349-5.554.568.568,0,0,0-.168-.212c-.049-.028-.09-.03-.177.006a2.046,2.046,0,0,0-.524.435,2.969,2.969,0,0,0-.67,1.275,3.319,3.319,0,0,0,1.166,3.468,3.879,3.879,0,0,0,3.58.4,3.931,3.931,0,0,0,2.339-2.52,4.885,4.885,0,0,0-.072-3.278l.262.087-9.383,5.714-2.644,1.577-.7.4a1.064,1.064,0,0,1-.252.122" fill="#e1e1e1"/>
        <path id="Trazado_1002" data-name="Trazado 1002" d="M382.372,162.792a2.575,2.575,0,0,1-.134.752,3.09,3.09,0,0,1-.363.851,1.794,1.794,0,0,1-1.006.765,1.246,1.246,0,0,1-.78-.025,1.572,1.572,0,0,1-.666-.52,15.057,15.057,0,0,1-.9-1.529c-.6-1.1-1.273-2.322-1.993-3.635l.365-.085c-.064,1.838-.134,3.844-.209,5.945-.018.5-.038,1-.056,1.482l-.031.829-.363-.745c-1.1-2.253-2.118-4.355-3.011-6.189l.333-.032a21.294,21.294,0,0,0-.762,5.591c0,1.368.093,2.149.047,2.153a2.089,2.089,0,0,1-.117-.555c-.051-.366-.111-.9-.138-1.6a19.578,19.578,0,0,1,.626-5.687l.119-.461.213.428,3.063,6.163-.394.084c.017-.486.036-.981.054-1.482.084-2.1.165-4.106.239-5.943l.028-.721.336.636c.7,1.323,1.351,2.553,1.938,3.665a16.264,16.264,0,0,0,.837,1.508,1.072,1.072,0,0,0,1.162.491,2.043,2.043,0,0,0,1.308-1.425,5.027,5.027,0,0,1,.254-.714" fill="#e1e1e1"/>
        <path id="Trazado_1003" data-name="Trazado 1003" d="M382.285,159.79c.065.1-3.243,2.458-7.387,5.276s-7.558,5.028-7.623,4.933,3.242-2.458,7.388-5.277,7.558-5.028,7.622-4.932" fill="#e1e1e1"/>
        <path id="Trazado_1004" data-name="Trazado 1004" d="M386.35,160.493a64.406,64.406,0,0,1-5.417,4.932,64.376,64.376,0,0,1-5.689,4.615,64.227,64.227,0,0,1,5.417-4.932,64.429,64.429,0,0,1,5.689-4.615" fill="#e1e1e1"/>
        <path id="Trazado_1005" data-name="Trazado 1005" d="M517.332,210.137s23.458-5.592,24.231-6.579l-19.291-49.686a36.352,36.352,0,0,0-22.5-21.929,63.782,63.782,0,0,0-22.784-3.518L444.423,126.7a64.454,64.454,0,0,0-25.694,7.111A51.835,51.835,0,0,0,394.606,160.4l-14.6,36.483,36.836,7.7,1.4,39.194-5.555,54.081H514.41l-.71-85.722Z" fill="#ff4f5b"/>
        <g id="Grupo_182" data-name="Grupo 182" opacity="0.3">
          <g id="Grupo_181" data-name="Grupo 181">
            <g id="Grupo_180" data-name="Grupo 180" clip-path="url(#clip-path-3)">
              <path id="Trazado_1006" data-name="Trazado 1006" d="M537.55,197.069c.034.11-6.051,2.1-13.591,4.433s-13.681,4.144-13.716,4.034,6.05-2.1,13.593-4.433,13.68-4.144,13.714-4.034" fill="#fff"/>
            </g>
          </g>
        </g>
        <path id="Trazado_1007" data-name="Trazado 1007" d="M431.129,162.136a5.144,5.144,0,0,1-.626-.854c-.373-.567-.943-1.368-1.68-2.33a40.579,40.579,0,0,0-2.759-3.23,43.765,43.765,0,0,0-3.823-3.526,43.242,43.242,0,0,0-4.254-2.994,40.96,40.96,0,0,0-3.741-2.017c-1.1-.517-2-.9-2.63-1.15a5.254,5.254,0,0,1-.966-.431,5.1,5.1,0,0,1,1.022.279,26.859,26.859,0,0,1,2.7,1.033,35.391,35.391,0,0,1,3.818,1.957,36.415,36.415,0,0,1,8.158,6.585,35.318,35.318,0,0,1,2.717,3.319,26.59,26.59,0,0,1,1.58,2.419,5.083,5.083,0,0,1,.488.94" fill="#1a2e35"/>
        <path id="Trazado_1008" data-name="Trazado 1008" d="M426.324,173.995c.115.012-1.021,11.979-2.536,26.727s-2.838,26.7-2.952,26.686,1.02-11.976,2.537-26.729,2.837-26.7,2.951-26.684" fill="#1a2e35"/>
        <path id="Trazado_1009" data-name="Trazado 1009" d="M506.407,151.818a22.25,22.25,0,0,1-.524-2.429,42.844,42.844,0,0,0-4.018-11.2,22.611,22.611,0,0,1-1.139-2.207c.025-.016.173.171.421.524s.587.875.977,1.541a33.487,33.487,0,0,1,4.049,11.29c.122.76.2,1.379.226,1.81a2.136,2.136,0,0,1,.008.672" fill="#1a2e35"/>
        <path id="Trazado_1010" data-name="Trazado 1010" d="M508.444,193.661a6.589,6.589,0,0,1-.2-1.176c-.1-.761-.225-1.862-.357-3.226-.265-2.729-.544-6.507-.691-10.687s-.134-7.972-.061-10.711c.036-1.37.081-2.478.129-3.243a6.492,6.492,0,0,1,.114-1.187,6.545,6.545,0,0,1,.048,1.191c0,.843,0,1.933,0,3.242,0,2.737.037,6.519.183,10.693s.378,7.947.568,10.677c.091,1.307.166,2.394.224,3.236a6.449,6.449,0,0,1,.035,1.191" fill="#1a2e35"/>
        <path id="Trazado_1011" data-name="Trazado 1011" d="M459.2,186.663a167.367,167.367,0,0,1-25.655-.479v3.333H459.2Z" fill="#fff"/>
        <g id="Grupo_185" data-name="Grupo 185" opacity="0.3">
          <g id="Grupo_184" data-name="Grupo 184">
            <g id="Grupo_183" data-name="Grupo 183" clip-path="url(#clip-path-4)">
              <path id="Trazado_1012" data-name="Trazado 1012" d="M484.714,131.241a3.429,3.429,0,0,1,.1.506c.053.362.128.853.222,1.478.163,1.3.388,3.2.572,5.6.384,4.817.719,11.664.836,19.747l.005.309-.277-.135c-5.114-2.488-10.852-5.2-16.818-8.18L440.2,135.982l-8.811-4.463L429,130.287l-.615-.33a1.083,1.083,0,0,1-.2-.124.957.957,0,0,1,.223.087l.635.293,2.423,1.163,8.872,4.345,29.2,14.478c5.967,2.982,11.69,5.7,16.791,8.207l-.271.174c-.086-8.073-.368-14.918-.686-19.734-.15-2.408-.339-4.307-.463-5.607-.069-.627-.124-1.12-.164-1.483a2.883,2.883,0,0,1-.036-.515" fill="#fff"/>
            </g>
          </g>
        </g>
        <g id="Grupo_188" data-name="Grupo 188" opacity="0.3">
          <g id="Grupo_187" data-name="Grupo 187">
            <g id="Grupo_186" data-name="Grupo 186" clip-path="url(#clip-path-5)">
              <path id="Trazado_1013" data-name="Trazado 1013" d="M423.474,200.486a1.7,1.7,0,0,1-.425-.073l-1.2-.287-4.384-1.115c-3.7-.947-8.814-2.244-14.477-3.614s-10.807-2.553-14.531-3.4l-4.409-1.013-1.2-.291a1.674,1.674,0,0,1-.411-.129,1.6,1.6,0,0,1,.428.047l1.211.215c1.051.193,2.568.494,4.439.882,3.741.775,8.9,1.914,14.566,3.284s10.773,2.714,14.454,3.734c1.842.51,3.328.936,4.352,1.243l1.176.363a1.751,1.751,0,0,1,.4.154" fill="#fff"/>
            </g>
          </g>
        </g>
        <path id="Trazado_1014" data-name="Trazado 1014" d="M480.236,125.175c.038-.119,2.2,1.039,4.33,4.184a39.206,39.206,0,0,1,5.155,13.6,55.836,55.836,0,0,1,.936,7.976c.017,1.234.054,2.408.016,3.5-.06,1.1-.073,2.118-.169,3.045s-.189,1.753-.27,2.5c-.1.732-.226,1.358-.316,1.871a6.1,6.1,0,0,1-.379,1.573,6.14,6.14,0,0,1,.056-1.617q.075-.8.175-1.876c.043-.743.092-1.575.145-2.489s.036-1.933.065-3.016c.008-1.083-.054-2.241-.092-3.458a62.606,62.606,0,0,0-.985-7.852,42.97,42.97,0,0,0-4.832-13.443,18.784,18.784,0,0,0-2.673-3.4c-.725-.725-1.2-1.049-1.162-1.1" fill="#1a2e35"/>
        <path id="Trazado_1015" data-name="Trazado 1015" d="M443.8,125.4a18.04,18.04,0,0,1-1.694,2.438,33.862,33.862,0,0,0-3.774,7.046,48.29,48.29,0,0,0-2.8,11.52c-.584,4.446-.834,9.414-1.16,14.612-.269,5.19-.283,10.156-.29,14.674s0,8.584-.005,12.015c-.026,3.423-.088,6.194-.19,8.107a13.126,13.126,0,0,1-.3,2.968,14.224,14.224,0,0,1-.192-2.973c-.05-1.948-.121-4.7-.208-8.094-.086-3.417-.2-7.489-.263-12.015s-.079-9.511.193-14.749c.327-5.216.612-10.188,1.268-14.7a45.808,45.808,0,0,1,3.126-11.7,29.384,29.384,0,0,1,4.2-7A10.975,10.975,0,0,1,443.8,125.4" fill="#1a2e35"/>
        <path id="Trazado_1016" data-name="Trazado 1016" d="M497.683,192.409a16.03,16.03,0,0,1-.158-2.647c-.047-1.7-.088-4.171-.121-7.219-.013-1.529-.028-3.2-.042-4.986-.033-1.788.032-3.72-.109-5.689a9.372,9.372,0,0,0-2.045-5.6,7.707,7.707,0,0,0-5.651-2.672,8.839,8.839,0,0,0-5.9,2.291,10.138,10.138,0,0,0-2.986,5.2c-.5,1.907-.706,3.823-1,5.59l-.78,4.923c-.483,3.01-.888,5.444-1.187,7.122a16.037,16.037,0,0,1-.549,2.594,16.138,16.138,0,0,1,.227-2.641c.2-1.694.517-4.14.925-7.161.208-1.513.436-3.167.68-4.939.268-1.77.446-3.678.942-5.682a10.864,10.864,0,0,1,3.186-5.618,9.6,9.6,0,0,1,6.465-2.515,8.488,8.488,0,0,1,6.255,2.971,10.087,10.087,0,0,1,2.193,6.075c.125,2.054.03,3.955.034,5.749-.021,1.789-.042,3.458-.059,4.986-.043,3.048-.092,5.513-.146,7.219a16.163,16.163,0,0,1-.166,2.646" fill="#1a2e35"/>
        <path id="Trazado_1017" data-name="Trazado 1017" d="M489.949,155.76c-.26,2.808-1.161,5.956-3.109,7.994a11.247,11.247,0,0,1,5.173.1,17.791,17.791,0,0,1-1.377-8.094" fill="#1a2e35"/>
        <path id="Trazado_1018" data-name="Trazado 1018" d="M497.712,173.995a25.226,25.226,0,0,0-1.271-3.181,9.866,9.866,0,0,0-2.33-2.786,8.646,8.646,0,0,0-3.944-1.878,8.481,8.481,0,0,0-4.342.434,9.54,9.54,0,0,0-3.1,1.876,23.477,23.477,0,0,0-2.2,2.618,5.741,5.741,0,0,1,1.795-3.044,9.292,9.292,0,0,1,3.235-2.167,8.807,8.807,0,0,1,4.764-.539,8.95,8.95,0,0,1,4.3,2.115,9.55,9.55,0,0,1,2.354,3.1,5.833,5.833,0,0,1,.748,3.453" fill="#1a2e35"/>
        <path id="Trazado_1019" data-name="Trazado 1019" d="M519.162,264.8c4.773-.016,9.038-3.438,11.287-7.649s2.816-9.1,3.038-13.872a112.681,112.681,0,0,0-4.589-37.434l-20.92,3.652,5.7,56.338Z" fill="#ffc09d"/>
        <path id="Trazado_1020" data-name="Trazado 1020" d="M434.549,271.815l68.111-2.482,16.52-79.816L447.441,193.5Z" fill="#1a2e35"/>
        <path id="Trazado_1021" data-name="Trazado 1021" d="M469.61,192.132l1.026-2.035,5.436-.4s1.38-3.566,9.147-3.929c6.964-.327,7.248,3.176,7.248,3.176h3.755v1.709Z" fill="#375a64"/>
        <path id="Trazado_1022" data-name="Trazado 1022" d="M507.586,246.093l5.164-1.505a6.305,6.305,0,0,1,6.193,1.561c1.71,1.683,4.464,4.465,4.857,5.294.575,1.213.577,3.311,0,4.084s1.267,4.746,1.037,6.071a8.154,8.154,0,0,1-1.037,3.2c-.462.552,0,2.44-1.154,3.869a18.96,18.96,0,0,1-2.191,2.313s-14.181.662-15.564,0a20.484,20.484,0,0,1-3.8-3.2s-1.269-2.319.691-2.54l-8.072-3.09a1.917,1.917,0,0,1-1.171-2.42,1.339,1.339,0,0,1,.712-.782s-3.623-1.146-4.461-1.515c-1.676-.739-2.308-4.638,1.157-4.139,1.832.264,4.305.8,4.305.8s-1.321-2.152.526-3.433c1.123-.778,6.175.17,6.175.17Z" fill="#ffc09d"/>
        <path id="Trazado_1023" data-name="Trazado 1023" d="M509.383,267.379a11.971,11.971,0,0,1-4.193-.626,10.337,10.337,0,0,1-3.865-1.746c.056-.1,1.744.731,3.979,1.344,2.225.641,4.092.908,4.079,1.028" fill="#ff9b6c"/>
        <path id="Trazado_1024" data-name="Trazado 1024" d="M506.3,262.339A108.844,108.844,0,0,1,493.236,259a108.715,108.715,0,0,1,13.063,3.335" fill="#ff9b6c"/>
        <path id="Trazado_1025" data-name="Trazado 1025" d="M507.978,257.321a125.075,125.075,0,0,1-14.078-3.293,125.066,125.066,0,0,1,14.078,3.293" fill="#ff9b6c"/>
        <path id="Trazado_1026" data-name="Trazado 1026" d="M513.227,250.861a8.824,8.824,0,0,1-1.821.58l-2,.516-1.189.294a4.364,4.364,0,0,1-1.363.13,7.542,7.542,0,0,1-1.329-.217l-1.191-.272-2.01-.482a8.676,8.676,0,0,1-1.831-.549,8.631,8.631,0,0,1,1.894.261l2.034.4a23.581,23.581,0,0,0,2.457.447,9.093,9.093,0,0,0,2.428-.379l2.029-.432a8.677,8.677,0,0,1,1.892-.293" fill="#ff9b6c"/>
        <path id="Trazado_1027" data-name="Trazado 1027" d="M514.138,253.576c.043-.029.234.145.391.525a2.393,2.393,0,0,1-.9,2.855c-.345.223-.6.256-.621.208-.062-.1.841-.545,1.172-1.6a4.594,4.594,0,0,0-.047-1.984" fill="#ff9b6c"/>
        <path id="Trazado_1028" data-name="Trazado 1028" d="M513.842,259.057c.1-.047.421.523.375,1.3s-.423,1.309-.518,1.252.069-.6.1-1.276-.072-1.238.041-1.278" fill="#ff9b6c"/>
        <path id="Trazado_1029" data-name="Trazado 1029" d="M513.926,265.007c.1-.039.319.347.218.85s-.446.777-.528.7.044-.391.118-.782.078-.734.192-.768" fill="#ff9b6c"/>
        <path id="Trazado_1030" data-name="Trazado 1030" d="M515.47,250.533a4.5,4.5,0,0,1-1.364-.069l-1.457-.19a5.581,5.581,0,0,0-1.736-.084,4.247,4.247,0,0,0-1.543.694c-.443.3-.831.629-1.2.849a2.294,2.294,0,0,1-1.305.448c-.024-.069.485-.211,1.142-.693a6.987,6.987,0,0,1,2.857-1.712,4.755,4.755,0,0,1,.973-.022c.327.032.594.1.873.14l1.45.279a4.428,4.428,0,0,1,1.315.36" fill="#ff9b6c"/>
        <path id="Trazado_1031" data-name="Trazado 1031" d="M523.665,265.065a6.99,6.99,0,0,1,.361-1.019,7.837,7.837,0,0,0,.571-2.827,8.053,8.053,0,0,0-.3-1.967c-.165-.706-.488-1.408-.669-2.251a7.251,7.251,0,0,1,.174-2.62,4.61,4.61,0,0,0-.462-2.578,12.273,12.273,0,0,0-1.476-2.284c-.551-.7-1.091-1.376-1.629-1.987a9.49,9.49,0,0,0-3.354-2.624,5.433,5.433,0,0,0-2.818-.427c-.681.09-1.03.274-1.045.234-.006-.012.077-.062.243-.146a3.518,3.518,0,0,1,.774-.248,5.292,5.292,0,0,1,2.956.313,9.493,9.493,0,0,1,3.531,2.642c.557.617,1.1,1.287,1.664,1.991a12.369,12.369,0,0,1,1.533,2.36,4.985,4.985,0,0,1,.489,2.805,7.043,7.043,0,0,0-.2,2.5c.151.772.471,1.513.627,2.238a8.089,8.089,0,0,1,.263,2.053,7.335,7.335,0,0,1-.715,2.888,4.357,4.357,0,0,1-.512.958" fill="#ff9b6c"/>
        <path id="Trazado_1032" data-name="Trazado 1032" d="M475.984,225.584l-55.926,8.884,2.485-29.189-31.1-6.009-3.782,43.213-.655,9.906a19.336,19.336,0,0,0,25.285,19.66l12.017-3.917,58.61-20.851" fill="#ffc09d"/>
        <path id="Trazado_1033" data-name="Trazado 1033" d="M509.823,219.566a1.589,1.589,0,0,0-1.6-1.868c-3.152-.014-11.663.035-14.67.888-3.719,1.054-17.573,7-17.573,7l5.872,21.686,21.267.225s7.768-3.571,7.865-5.115a26.526,26.526,0,0,0-.193-2.894l2.343-1.257c3.495-2.218,1.254-6.471,1.254-6.471a5.17,5.17,0,0,0,2.533-3.784,3.8,3.8,0,0,0-1.876-3.586s.963-3.429-.828-4.352-4.821.263-4.821.263a1.281,1.281,0,0,0,.423-.734" fill="#ffc09d"/>
        <path id="Trazado_1034" data-name="Trazado 1034" d="M511.045,219.922a2.208,2.208,0,0,1-.653.229c-.427.12-1.056.26-1.837.394-1.562.279-3.738.514-6.131.771a50.241,50.241,0,0,0-6.073.925c-1.53.359-2.385.833-2.421.77-.014-.025.191-.157.582-.377a10.671,10.671,0,0,1,1.762-.678,36.975,36.975,0,0,1,6.1-1.055c2.4-.257,4.571-.445,6.133-.648s2.517-.394,2.534-.331" fill="#ff9b6c"/>
        <path id="Trazado_1035" data-name="Trazado 1035" d="M515.045,224.263a5.049,5.049,0,0,1-1.492.764,24.052,24.052,0,0,1-3.877,1.128c-1.543.325-2.951.53-3.971.663a6.782,6.782,0,0,1-1.666.13,50.13,50.13,0,0,1,5.55-1.2c1.528-.322,2.893-.683,3.864-1a9.71,9.71,0,0,1,1.592-.486" fill="#ff9b6c"/>
        <path id="Trazado_1036" data-name="Trazado 1036" d="M514.439,231.8a22.986,22.986,0,0,1-9.333,2.114c-.012-.123,2.116-.386,4.686-.973s4.6-1.256,4.647-1.141" fill="#ff9b6c"/>
        <path id="Trazado_1037" data-name="Trazado 1037" d="M513.138,238.23a16.126,16.126,0,0,1-7.193,1.736,517.82,517.82,0,0,0,7.193-1.736" fill="#ff9b6c"/>
        <path id="Trazado_1038" data-name="Trazado 1038" d="M502.048,234.384c.017.049-.218.19-.648.23a2.45,2.45,0,0,1-2.559-1.816c-.105-.421-.048-.688,0-.689.112-.029.23,1.039,1.188,1.72a4.347,4.347,0,0,0,2.015.555" fill="#ff9b6c"/>
        <path id="Trazado_1039" data-name="Trazado 1039" d="M501.6,241.1c.018.113-.832.165-1.559-.489s-.778-1.5-.664-1.492c.118-.026.324.644.943,1.18.6.553,1.292.682,1.28.8" fill="#ff9b6c"/>
        <path id="Trazado_1040" data-name="Trazado 1040" d="M499.141,227.453c.045.111-.545.3-1.087-.116s-.527-1.027-.408-1.013c.116-.014.26.39.66.68.388.305.815.334.835.449" fill="#ff9b6c"/>
        <path id="Trazado_1041" data-name="Trazado 1041" d="M475.984,225.584a.734.734,0,0,1,.167-.091l.505-.235,1.973-.872c1.724-.75,4.241-1.83,7.417-3.134,1.588-.647,3.34-1.357,5.257-2.069a20.227,20.227,0,0,1,3.053-.948,32.937,32.937,0,0,1,3.379-.418c2.326-.179,4.787-.26,7.359-.3l1.951-.017h.99a2.018,2.018,0,0,1,1.057.219,1.709,1.709,0,0,1,.91,1.931.637.637,0,0,1-.246.279,2.569,2.569,0,0,1-.24.146c-.159.087-.32.158-.483.228a7.727,7.727,0,0,1-1.009.348.2.2,0,0,1-.247-.143.2.2,0,0,1,.143-.247,21.731,21.731,0,0,1,2.651-.591,9.709,9.709,0,0,1,2.8-.1,2.541,2.541,0,0,1,1.373.6,2.5,2.5,0,0,1,.68,1.351,7,7,0,0,1-.18,2.925l-.107-.242a3.9,3.9,0,0,1,1.177,1.037,4.17,4.17,0,0,1,.612,3.794,5.593,5.593,0,0,1-2.437,2.9l.082-.276a6.693,6.693,0,0,1,.675,3.7,4.273,4.273,0,0,1-2.005,3.033l-.014.007-2.345,1.254.1-.195c.061.561.114,1.116.153,1.671.02.276.035.553.041.831,0,.139,0,.28-.006.425a1.068,1.068,0,0,1-.173.464,5.047,5.047,0,0,1-1.208,1.152c-.435.317-.879.6-1.325.877a55.3,55.3,0,0,1-5.279,2.765.164.164,0,0,1-.072.016l-15.477-.237-4.282-.091-1.122-.037a2.491,2.491,0,0,1-.384-.029,2.087,2.087,0,0,1,.385-.023l1.122-.013h4.283l15.479.091-.073.016a56.353,56.353,0,0,0,5.227-2.772c.438-.271.874-.555,1.294-.866a4.7,4.7,0,0,0,1.108-1.051.722.722,0,0,0,.116-.286c.005-.128.006-.259,0-.393-.005-.267-.022-.539-.042-.812-.041-.546-.094-1.1-.158-1.653a.2.2,0,0,1,.1-.2l2.342-1.26-.013.008a3.862,3.862,0,0,0,1.816-2.752,6.3,6.3,0,0,0-.637-3.454.217.217,0,0,1,.082-.277,5.207,5.207,0,0,0,2.244-2.675,3.756,3.756,0,0,0-.549-3.41,3.494,3.494,0,0,0-1.033-.919.219.219,0,0,1-.107-.242,6.627,6.627,0,0,0,.174-2.733,2.087,2.087,0,0,0-.558-1.13,2.134,2.134,0,0,0-1.152-.488,9.3,9.3,0,0,0-2.678.1,21.312,21.312,0,0,0-2.6.573l-.1-.39a7.3,7.3,0,0,0,.946-.326c.154-.065.307-.133.448-.209.139-.055.276-.21.332-.2a1.642,1.642,0,0,0-.135-.841,1.431,1.431,0,0,0-.615-.619,1.628,1.628,0,0,0-.874-.175l-.988,0-1.947.009c-2.566.03-5.022.1-7.337.266a32.592,32.592,0,0,0-3.343.394,19.751,19.751,0,0,0-3.01.913c-1.916.694-3.673,1.387-5.267,2.019-3.161,1.279-5.691,2.3-7.46,3.022l-2,.81-.519.2a.747.747,0,0,1-.181.058" fill="#ff9b6c"/>
        <path id="Trazado_1042" data-name="Trazado 1042" d="M420.285,234.414a16.576,16.576,0,0,0-6.889,8.277,4.489,4.489,0,0,1,.417-1.581,12.495,12.495,0,0,1,4.993-6,4.483,4.483,0,0,1,1.479-.7" fill="#ff9b6c"/>
        <path id="Trazado_1043" data-name="Trazado 1043" d="M493.311,61.489A28.248,28.248,0,0,0,465.2,35.453l-1.463,0c-15.776.89-23.834,14.784-22.509,30.529l2.722,63.123a2.846,2.846,0,0,0,1.636,2.456L481,148.175l-1.1-33.128s15.169-2.328,15.388-17.489c.105-7.322-.9-22.418-1.978-36.069" fill="#ffc09d"/>
        <path id="Trazado_1044" data-name="Trazado 1044" d="M480.027,115.024a36.775,36.775,0,0,1-19.854-5.854s4.65,10.92,19.781,9.585Z" fill="#ff9b6c"/>
        <path id="Trazado_1045" data-name="Trazado 1045" d="M487.936,70.9a2.165,2.165,0,0,1-2.093,2.181,2.072,2.072,0,0,1-2.227-1.957,2.166,2.166,0,0,1,2.09-2.182,2.072,2.072,0,0,1,2.23,1.958" fill="#1a2e35"/>
        <path id="Trazado_1046" data-name="Trazado 1046" d="M490.037,68.9c-.269.282-1.906-.936-4.236-.934-2.327-.032-4.04,1.163-4.292.877-.124-.126.15-.635.9-1.175a5.934,5.934,0,0,1,3.437-1.052,5.705,5.705,0,0,1,3.371,1.1c.716.551.957,1.062.824,1.188" fill="#1a2e35"/>
        <path id="Trazado_1047" data-name="Trazado 1047" d="M465.033,71.612a2.165,2.165,0,0,1-2.093,2.18,2.07,2.07,0,0,1-2.227-1.956,2.167,2.167,0,0,1,2.091-2.182,2.072,2.072,0,0,1,2.229,1.958" fill="#1a2e35"/>
        <path id="Trazado_1048" data-name="Trazado 1048" d="M467.134,69.287c-.27.282-1.909-.935-4.237-.934-2.327-.032-4.04,1.163-4.292.877-.124-.127.148-.635.9-1.175A5.941,5.941,0,0,1,462.938,67a5.711,5.711,0,0,1,3.372,1.1c.713.551.956,1.062.824,1.188" fill="#1a2e35"/>
        <path id="Trazado_1049" data-name="Trazado 1049" d="M475.554,86.584a15.393,15.393,0,0,1,3.786-.676c.6-.059,1.158-.177,1.259-.583a3.022,3.022,0,0,0-.394-1.764q-.832-2.161-1.75-4.534c-2.429-6.455-4.187-11.762-3.926-11.858s2.442,5.06,4.872,11.515q.877,2.387,1.675,4.56a3.434,3.434,0,0,1,.3,2.336,1.485,1.485,0,0,1-.979.867,4.026,4.026,0,0,1-1.011.139,15.225,15.225,0,0,1-3.836,0" fill="#1a2e35"/>
        <path id="Trazado_1050" data-name="Trazado 1050" d="M468.7,88.181c.379-.021.378,2.508,2.539,4.308s4.854,1.526,4.873,1.88c.034.159-.6.49-1.74.519a6.306,6.306,0,0,1-4.068-1.427,5.483,5.483,0,0,1-1.966-3.611c-.1-1.058.188-1.684.362-1.669" fill="#1a2e35"/>
        <path id="Trazado_1051" data-name="Trazado 1051" d="M467.754,60.159c-.23.633-2.557.327-5.29.651-2.741.27-4.947,1.065-5.309.5-.161-.272.225-.867,1.118-1.479a9.272,9.272,0,0,1,8.074-.874c1,.406,1.507.905,1.407,1.206" fill="#1a2e35"/>
        <path id="Trazado_1052" data-name="Trazado 1052" d="M489.2,62.156c-.411.528-2.016-.024-3.945-.055-1.929-.1-3.565.349-3.94-.206-.165-.268.094-.8.809-1.3a5.714,5.714,0,0,1,6.353.21c.681.545.9,1.091.723,1.349" fill="#1a2e35"/>
        <path id="Trazado_1053" data-name="Trazado 1053" d="M443.5,77.207c-.258-.112-10.411-3.1-10.1,7.264s10.654,7.917,10.663,7.619-.561-14.883-.561-14.883" fill="#ffc09d"/>
        <path id="Trazado_1054" data-name="Trazado 1054" d="M441.69,88.257c-.047-.031-.178.132-.479.281a1.809,1.809,0,0,1-1.348.069c-1.108-.37-2.081-2.08-2.188-3.948a5.99,5.99,0,0,1,.428-2.6,2.088,2.088,0,0,1,1.317-1.427.919.919,0,0,1,1.081.463c.148.286.087.495.143.511.03.025.218-.18.121-.606a1.158,1.158,0,0,0-.427-.638,1.362,1.362,0,0,0-1.006-.234,2.539,2.539,0,0,0-1.838,1.664,6.112,6.112,0,0,0-.54,2.908c.129,2.087,1.257,4.009,2.767,4.4a1.937,1.937,0,0,0,1.644-.323c.313-.267.361-.5.325-.518" fill="#ff9b6c"/>
        <path id="Trazado_1055" data-name="Trazado 1055" d="M450.3,46.394l43.225.953A19.8,19.8,0,0,0,487.171,40,33.783,33.783,0,0,0,467.6,32.957c-7.05-.124-21.4,8.463-26.507,13.324-4.087,3.89-4.061,7.256-4.061,7.256-.648,5.6,2.488,11.975,3.735,17.478.643,2.838,1.884,11.424,1.884,11.424h0c2.382-.009,3.266-1.9,2.9-4.258l-.446-9.238s8.1-5.757,4.262-16.292c-.615-.839-1.931-4.689.924-6.257" fill="#1a2e35"/>
        <path id="Trazado_1056" data-name="Trazado 1056" d="M459.373,79.177a.282.282,0,1,1,.2-.325.27.27,0,0,1-.2.325" fill="#ff9b6c"/>
        <path id="Trazado_1057" data-name="Trazado 1057" d="M463.826,78.177a.331.331,0,1,1,.189-.366.3.3,0,0,1-.189.366" fill="#ff9b6c"/>
        <path id="Trazado_1058" data-name="Trazado 1058" d="M466.824,78.109c-.141.018-.278-.155-.307-.385s.063-.431.2-.449.279.155.307.386-.062.43-.2.448" fill="#ff9b6c"/>
        <path id="Trazado_1059" data-name="Trazado 1059" d="M461.555,81.976c-.142,0-.257-.074-.257-.165s.115-.164.258-.163.257.073.256.164-.115.164-.257.164" fill="#ff9b6c"/>
        <path id="Trazado_1060" data-name="Trazado 1060" d="M465.64,81.037a.295.295,0,1,1,.23-.312.275.275,0,0,1-.23.312" fill="#ff9b6c"/>
        <path id="Trazado_1061" data-name="Trazado 1061" d="M486.891,78.544a.292.292,0,1,1,.2-.334.275.275,0,0,1-.2.334" fill="#ff9b6c"/>
        <path id="Trazado_1062" data-name="Trazado 1062" d="M489.925,78.273a.333.333,0,1,1,.225-.347.294.294,0,0,1-.225.347" fill="#ff9b6c"/>
        <path id="Trazado_1063" data-name="Trazado 1063" d="M484.211,78.615a.228.228,0,1,1,.209-.271.243.243,0,0,1-.209.271" fill="#ff9b6c"/>
        <path id="Trazado_1064" data-name="Trazado 1064" d="M486.455,81.653a.3.3,0,1,1,.116-.375.279.279,0,0,1-.116.375" fill="#ff9b6c"/>
        <path id="Trazado_1065" data-name="Trazado 1065" d="M489.047,81.14a.219.219,0,1,1,.114-.417.219.219,0,1,1-.114.417" fill="#ff9b6c"/>
        <path id="Trazado_1066" data-name="Trazado 1066" d="M440.806,46.872a12.783,12.783,0,0,1,12.769-15.888c2.019.083,4.025.656,6.034.436,3.739-.408,6.624-3.406,10.092-4.863a13.173,13.173,0,0,1,15.543,4.663c1.315,1.963,2.178,4.389,4.192,5.625,1.742,1.069,3.936.98,5.893,1.569a9.622,9.622,0,0,1,6.463,9.521,11.337,11.337,0,0,1-6.9,9.526,13.843,13.843,0,0,1-11.945-.844c-3.262-1.814-6.183-4.91-9.913-4.8-3.865.114-7.242,3.757-11.033,3-1.987-.4-3.519-1.926-4.974-3.337s-3.13-2.847-5.154-2.966-3.077,2.661-2.353,4.553l-8.713-6.195" fill="#1a2e35"/>
        <path id="Trazado_1067" data-name="Trazado 1067" d="M492.681,41.86c.007,0-.017.055-.068.151a4.071,4.071,0,0,1-.251.418,7.065,7.065,0,0,1-1.24,1.408,7.671,7.671,0,0,1-2.57,1.488,7.326,7.326,0,0,1-3.923.234,7.755,7.755,0,0,1-4.136-2.353c-1.181-1.3-1.882-3.032-2.981-4.555a5.611,5.611,0,0,0-4.96-2.524,6.507,6.507,0,0,0-2.941.793,5.508,5.508,0,0,0-2.169,2.23c-.522.948-.9,1.991-1.524,2.916a3.584,3.584,0,0,1-2.768,1.684,5.381,5.381,0,0,1-3.017-.871,11.333,11.333,0,0,1-2.295-1.9c-1.333-1.347-2.649-2.689-4.287-3.053a5.439,5.439,0,0,0-4.341,1.02,7.472,7.472,0,0,0-2.384,2.954,12.229,12.229,0,0,0-.892,2.779c-.16.789-.235,1.413-.286,1.835a4.12,4.12,0,0,1-.092.645.522.522,0,0,1-.01-.166c0-.11,0-.273.018-.486a16.075,16.075,0,0,1,.211-1.858,11.825,11.825,0,0,1,.839-2.847,7.643,7.643,0,0,1,2.423-3.094,5.728,5.728,0,0,1,4.592-1.119c1.772.383,3.147,1.791,4.48,3.118a11.077,11.077,0,0,0,2.228,1.83,5,5,0,0,0,2.787.805,3.169,3.169,0,0,0,2.452-1.511c.586-.862.96-1.9,1.5-2.882a5.914,5.914,0,0,1,2.331-2.392,6.92,6.92,0,0,1,3.135-.84,6.532,6.532,0,0,1,3.06.687,6.459,6.459,0,0,1,2.22,2.02c1.128,1.59,1.807,3.305,2.928,4.551a7.485,7.485,0,0,0,3.941,2.3,7.127,7.127,0,0,0,3.787-.167,7.679,7.679,0,0,0,2.538-1.39,9.858,9.858,0,0,0,1.664-1.853" fill="#375a64"/>
        <path id="Trazado_1068" data-name="Trazado 1068" d="M500.516,42.014a2.374,2.374,0,0,1,.176.833,6.654,6.654,0,0,1-.219,2.316,8.03,8.03,0,0,1-1.621,3.051,9.443,9.443,0,0,1-3.418,2.488,14.033,14.033,0,0,1-7.54.853,20.026,20.026,0,0,1-2.265-.451,2.981,2.981,0,0,1-.8-.269c.015-.069,1.185.223,3.1.427a14.67,14.67,0,0,0,7.338-.941,9.391,9.391,0,0,0,3.294-2.358,8.114,8.114,0,0,0,1.629-2.883,9.2,9.2,0,0,0,.326-3.066" fill="#375a64"/>
        <path id="Trazado_1069" data-name="Trazado 1069" d="M426.748,209.019a8.675,8.675,0,0,0,1.816,4.492,5.913,5.913,0,0,0,4.33,2.3,6.6,6.6,0,0,0,5.825-2.923c1.845-2.939,2.3-9.054.82-12.67-1.018-2.485-3.306-4.8-5.991-4.861a6.622,6.622,0,0,0-6.49,5.044" fill="#e1e1e1"/>
        <path id="Trazado_1070" data-name="Trazado 1070" d="M427.057,200.4a5.393,5.393,0,0,1,.652-1.729,7.082,7.082,0,0,1,1.324-1.734,6.148,6.148,0,0,1,2.5-1.466,6.273,6.273,0,0,1,1.676-.268,5.06,5.06,0,0,1,1.834.242,7.212,7.212,0,0,1,3.275,2.347,9.45,9.45,0,0,1,1.925,4.008,17.319,17.319,0,0,1,.358,4.75,13.12,13.12,0,0,1-2.046,6.917,6.18,6.18,0,0,1-2.66,2.006,7.207,7.207,0,0,1-3.013.507h.025a4.535,4.535,0,0,1-2.159-.535,7.081,7.081,0,0,1-1.624-1.133,8.064,8.064,0,0,1-1.769-2.635,7.8,7.8,0,0,1-.56-1.946,5.254,5.254,0,0,1-.05-.528.538.538,0,0,1,.006-.183,10.947,10.947,0,0,0,.783,2.577,8.122,8.122,0,0,0,1.776,2.512,6.984,6.984,0,0,0,1.574,1.057,4.265,4.265,0,0,0,2,.473h.025a6.413,6.413,0,0,0,5.327-2.413,12.89,12.89,0,0,0,1.945-6.7c.172-3.171-.359-6.366-2.164-8.492a6.918,6.918,0,0,0-3.084-2.262,4.789,4.789,0,0,0-1.719-.248,6.068,6.068,0,0,0-1.6.229,6,6,0,0,0-2.421,1.354,7.334,7.334,0,0,0-1.341,1.644,14.826,14.826,0,0,0-.793,1.648" fill="#1a2e35"/>
        <path id="Trazado_1071" data-name="Trazado 1071" d="M424.872,209.177a8.674,8.674,0,0,0,1.815,4.492,5.916,5.916,0,0,0,4.33,2.3,6.6,6.6,0,0,0,5.825-2.923c1.846-2.94,2.3-9.054.821-12.67-1.019-2.486-3.306-4.8-5.992-4.861a6.622,6.622,0,0,0-6.49,5.044" fill="#e1e1e1"/>
        <path id="Trazado_1072" data-name="Trazado 1072" d="M425.18,200.557a5.394,5.394,0,0,1,.652-1.729,7.1,7.1,0,0,1,1.324-1.735,6.166,6.166,0,0,1,2.5-1.466,6.32,6.32,0,0,1,1.676-.267,5.042,5.042,0,0,1,1.835.241,7.206,7.206,0,0,1,3.275,2.348,9.438,9.438,0,0,1,1.924,4.007,17.287,17.287,0,0,1,.358,4.75,13.12,13.12,0,0,1-2.045,6.917,6.185,6.185,0,0,1-2.661,2.007,7.234,7.234,0,0,1-3.013.507h.025a4.526,4.526,0,0,1-2.159-.535,7.1,7.1,0,0,1-1.624-1.132,8.062,8.062,0,0,1-1.768-2.636,7.746,7.746,0,0,1-.561-1.946,4.89,4.89,0,0,1-.049-.528.51.51,0,0,1,.006-.183,10.858,10.858,0,0,0,.782,2.578,8.147,8.147,0,0,0,1.776,2.511A6.926,6.926,0,0,0,429,215.323a4.258,4.258,0,0,0,2,.473h.025a6.409,6.409,0,0,0,5.328-2.413,12.889,12.889,0,0,0,1.944-6.7c.172-3.171-.359-6.366-2.164-8.492a6.915,6.915,0,0,0-3.083-2.262,4.745,4.745,0,0,0-1.719-.248,6.01,6.01,0,0,0-4.022,1.582,7.281,7.281,0,0,0-1.341,1.645,14.885,14.885,0,0,0-.794,1.648" fill="#1a2e35"/>
        <path id="Trazado_1073" data-name="Trazado 1073" d="M428.274,199.655a4.128,4.128,0,0,0-4.3,2.48,7.112,7.112,0,0,0,.01,5.231,6.481,6.481,0,0,0,1.334,2.356,3.52,3.52,0,0,0,2.392,1.163,4.161,4.161,0,0,0,3.309-1.956,7.461,7.461,0,0,0,1.13-6.148c-.365-1.39-1.389-2.814-2.825-2.853" fill="#e1e1e1"/>
        <path id="Trazado_1074" data-name="Trazado 1074" d="M429.319,199.928a.793.793,0,0,1,.319-.009,2.235,2.235,0,0,1,.869.295,4.262,4.262,0,0,1,1.833,2.759,7.573,7.573,0,0,1-.494,4.906,6.382,6.382,0,0,1-1.8,2.36,3.476,3.476,0,0,1-3.092.74,4.309,4.309,0,0,1-2.472-2.02,9.016,9.016,0,0,1-1.029-2.769,6.16,6.16,0,0,1,.8-4.842,4.3,4.3,0,0,1,2.8-1.778,3.023,3.023,0,0,1,.915,0c.206.043.309.072.307.087a5.894,5.894,0,0,0-1.192.075,4.249,4.249,0,0,0-2.584,1.788,5.935,5.935,0,0,0-.665,4.6,8.793,8.793,0,0,0,1,2.634,3.929,3.929,0,0,0,2.233,1.829,3.073,3.073,0,0,0,2.73-.661,6.067,6.067,0,0,0,1.7-2.2,7.408,7.408,0,0,0,.555-4.678,4.215,4.215,0,0,0-1.63-2.685,3.4,3.4,0,0,0-1.1-.425" fill="#1a2e35"/>
        <path id="Trazado_1075" data-name="Trazado 1075" d="M432.316,212.831c-.063.016-.151-.253-.426-.574a2.982,2.982,0,0,0-1.368-.878,7.52,7.52,0,0,0-1.683-.261c-.448-.033-.731-.069-.732-.128s.273-.124.73-.168a4.759,4.759,0,0,1,1.81.158,2.662,2.662,0,0,1,1.483,1.105c.25.424.234.74.186.746" fill="#1a2e35"/>
        <path id="Trazado_1076" data-name="Trazado 1076" d="M432.946,198.563c.036.035-.124.286-.5.581a3.992,3.992,0,0,1-3.53.638c-.453-.146-.691-.324-.669-.37a9.955,9.955,0,0,0,2.435.06,9.845,9.845,0,0,0,2.261-.909" fill="#1a2e35"/>
        <path id="Trazado_1077" data-name="Trazado 1077" d="M945.68,298.046c0,.115-211.715.209-472.817.209C211.669,298.255,0,298.161,0,298.046s211.67-.209,472.864-.209c261.1,0,472.817.094,472.817.209" fill="#1a2e35"/>
        <line id="Línea_28" data-name="Línea 28" x2="32.97" transform="translate(126.558 127.226)" fill="none" stroke="#3e145e" stroke-miterlimit="10" stroke-width="1.5"/>
        <line id="Línea_29" data-name="Línea 29" y1="27.365" x2="55.344" transform="translate(101.143 46.43)" fill="none" stroke="#3e145e" stroke-miterlimit="10" stroke-width="1.5"/>
        <line id="Línea_30" data-name="Línea 30" x2="66.547" y2="43.771" transform="translate(214.022 45.383)" fill="none" stroke="#3e145e" stroke-miterlimit="10" stroke-width="1.5"/>
        <line id="Línea_31" data-name="Línea 31" y2="33.174" transform="translate(185.026 64.808)" fill="none" stroke="#3e145e" stroke-miterlimit="10" stroke-width="1.5"/>
        <line id="Línea_32" data-name="Línea 32" x1="1.354" y2="37.229" transform="translate(185.689 159.807)" fill="none" stroke="#3e145e" stroke-miterlimit="10" stroke-width="1.5"/>
        <line id="Línea_33" data-name="Línea 33" x2="60.444" y2="48.515" transform="translate(90.829 167.302)" fill="none" stroke="#3e145e" stroke-miterlimit="10" stroke-width="1.5"/>
        <line id="Línea_34" data-name="Línea 34" y1="60.799" x2="58.435" transform="translate(222.229 156.897)" fill="none" stroke="#3e145e" stroke-miterlimit="10" stroke-width="1.5"/>
        <line id="Línea_35" data-name="Línea 35" x2="40.422" y2="0.241" transform="translate(222.229 128.343)" fill="none" stroke="#3e145e" stroke-miterlimit="10" stroke-width="1.5"/>
        <line id="Línea_36" data-name="Línea 36" x2="60.019" y2="58.872" transform="translate(330.055 156.023)" fill="none" stroke="#3e145e" stroke-miterlimit="10" stroke-width="1.5"/>
        <line id="Línea_37" data-name="Línea 37" x2="150.293" y2="0.298" transform="translate(226.628 244.236)" fill="none" stroke="#3e145e" stroke-miterlimit="10" stroke-width="1.5"/>
        <line id="Línea_38" data-name="Línea 38" y1="49.37" x2="94.272" transform="translate(456.453 183.997)" fill="none" stroke="#3e145e" stroke-miterlimit="10" stroke-width="1.5"/>
        <line id="Línea_39" data-name="Línea 39" x2="21.407" y2="36.053" transform="translate(599.271 185.411)" fill="none" stroke="#3e145e" stroke-miterlimit="10" stroke-width="1.5"/>
        <line id="Línea_40" data-name="Línea 40" y1="2.243" x2="149.165" transform="translate(458.226 247.496)" fill="none" stroke="#3e145e" stroke-miterlimit="10" stroke-width="1.5"/>
        <line id="Línea_41" data-name="Línea 41" y1="25.143" x2="27.132" transform="translate(593.547 114.018)" fill="none" stroke="#3e145e" stroke-miterlimit="10" stroke-width="1.5"/>
        <line id="Línea_42" data-name="Línea 42" x2="14.073" y2="24.47" transform="translate(681.388 111.51)" fill="none" stroke="#3e145e" stroke-miterlimit="10" stroke-width="1.5"/>
        <line id="Línea_43" data-name="Línea 43" y1="40.106" x2="34.322" transform="translate(665.186 190.559)" fill="none" stroke="#3e145e" stroke-miterlimit="10" stroke-width="1.5"/>
        <line id="Línea_44" data-name="Línea 44" x2="74.894" y2="1.672" transform="translate(606.927 164.895)" fill="none" stroke="#3e145e" stroke-miterlimit="10" stroke-width="1.5"/>
        <line id="Línea_45" data-name="Línea 45" x2="38.757" y2="37.709" transform="translate(738.506 179.987)" fill="none" stroke="#3e145e" stroke-miterlimit="10" stroke-width="1.5"/>
        <line id="Línea_46" data-name="Línea 46" y1="6.802" x2="64.027" transform="translate(742.997 147.126)" fill="none" stroke="#3e145e" stroke-miterlimit="10" stroke-width="1.5"/>
        <line id="Línea_47" data-name="Línea 47" y1="36.895" x2="34.772" transform="translate(812.527 192.409)" fill="none" stroke="#3e145e" stroke-miterlimit="10" stroke-width="1.5"/>
        <rect id="Rectángulo_115" data-name="Rectángulo 115" width="27.922" height="33.905" transform="translate(696.952 141.363)" fill="#fff"/>
        <path id="Trazado_1078" data-name="Trazado 1078" d="M724.873,175.724H696.952a.456.456,0,0,1-.456-.456v-33.9a.456.456,0,0,1,.456-.456h27.921a.457.457,0,0,1,.457.456v33.9a.457.457,0,0,1-.457.456m-27.465-.912h27.009V141.819H697.408Z"/>
        <path id="Trazado_1079" data-name="Trazado 1079" d="M722.214,160.721h-22.6a.456.456,0,0,1,0-.912h22.6a.456.456,0,0,1,0,.912"/>
        <path id="Trazado_1080" data-name="Trazado 1080" d="M722.214,158.034h-22.6a.456.456,0,0,1,0-.912h22.6a.456.456,0,0,1,0,.912"/>
        <path id="Trazado_1081" data-name="Trazado 1081" d="M722.214,155.346h-22.6a.456.456,0,0,1,0-.912h22.6a.456.456,0,0,1,0,.912"/>
        <path id="Trazado_1082" data-name="Trazado 1082" d="M722.214,152.659h-22.6a.456.456,0,0,1,0-.913h22.6a.456.456,0,0,1,0,.913"/>
        <path id="Trazado_1083" data-name="Trazado 1083" d="M722.214,171.473h-22.6a.456.456,0,0,1,0-.912h22.6a.456.456,0,0,1,0,.912"/>
        <path id="Trazado_1084" data-name="Trazado 1084" d="M722.214,168.785h-22.6a.457.457,0,0,1,0-.913h22.6a.457.457,0,0,1,0,.913"/>
        <path id="Trazado_1085" data-name="Trazado 1085" d="M722.214,166.1h-22.6a.456.456,0,0,1,0-.912h22.6a.456.456,0,0,1,0,.912"/>
        <path id="Trazado_1086" data-name="Trazado 1086" d="M722.214,163.409h-22.6a.456.456,0,0,1,0-.913h22.6a.456.456,0,0,1,0,.913"/>
        <path id="Trazado_1087" data-name="Trazado 1087" d="M722.214,148.856h-22.6a.456.456,0,0,1-.456-.456v-4.437a.456.456,0,0,1,.456-.456h22.6a.457.457,0,0,1,.457.456V148.4a.457.457,0,0,1-.457.456m-22.147-.912h21.69V144.42h-21.69Z"/>
        <path id="Trazado_1088" data-name="Trazado 1088" d="M719.883,157.494a1.983,1.983,0,0,0-1.977,1.977v-.707a1.977,1.977,0,1,0-3.953,0v-.749a1.977,1.977,0,0,0-3.953,0V147.473a1.977,1.977,0,1,0-3.954,0v16.016a11.5,11.5,0,0,0-1.533-2.23c-.8-.633-2.42-.922-2.42.165v8.552l4.561,7.046h13.99l1.217-1.824V159.471a1.983,1.983,0,0,0-1.978-1.977" fill="#fff"/>
        <path id="Trazado_1089" data-name="Trazado 1089" d="M721.1,158.1a1.983,1.983,0,0,0-1.977,1.977v-.707a1.977,1.977,0,1,0-3.953,0v-.749a1.977,1.977,0,1,0-3.954,0V148.082a1.977,1.977,0,1,0-3.953,0V164.1a11.547,11.547,0,0,0-1.533-2.23c-.8-.633-2.42-.922-2.42.165v8.552l4.561,7.046h13.99l1.216-1.825V160.08A1.983,1.983,0,0,0,721.1,158.1" fill="#80deea"/>
        <path id="Trazado_1090" data-name="Trazado 1090" d="M722.165,184.2H705.438a.456.456,0,0,1-.456-.456v-6.588a.456.456,0,0,1,.456-.456h16.727a.456.456,0,0,1,.456.456v6.588a.456.456,0,0,1-.456.456m-16.27-.912h15.813V177.61H705.9Z"/>
        <path id="Trazado_1091" data-name="Trazado 1091" d="M720.644,177.61H706.655a.457.457,0,0,1-.383-.208l-4.561-7.046a.456.456,0,0,1-.074-.248v-8.552a1.091,1.091,0,0,1,.622-1.042,2.741,2.741,0,0,1,2.539.52,4.68,4.68,0,0,1,.792.956V147.6a2.433,2.433,0,0,1,4.867,0v8.645a4.6,4.6,0,0,0,5.473.214,2.432,2.432,0,0,0,3.953.707,2.436,2.436,0,0,1,2.434,2.432V175.33a.456.456,0,0,1-.077.253l-1.216,1.824a.456.456,0,0,1-.38.2M706.9,176.7h13.5l1.005-1.507V159.6a1.521,1.521,0,0,0-3.042,0,.456.456,0,1,1-.912,0V158.9a1.521,1.521,0,0,0-3.041,0,.456.456,0,1,1-.912,0v-.748a1.521,1.521,0,0,0-3.041,0,.456.456,0,0,1-.913,0V147.6a1.521,1.521,0,0,0-3.041,0v16.017a.455.455,0,0,1-.343.442.46.46,0,0,1-.513-.222,10.416,10.416,0,0,0-1.417-2.093,1.933,1.933,0,0,0-1.573-.413c-.046.021-.108.052-.108.221v8.418Zm14.958-1.368h0Z"/>
        <path id="Trazado_1092" data-name="Trazado 1092" d="M706.047,163.621v0Z" fill="#fff"/>
        <path id="Trazado_1093" data-name="Trazado 1093" d="M706.047,170.717a.456.456,0,0,1-.457-.456v-6.64a.456.456,0,0,1,.913,0v6.64a.456.456,0,0,1-.456.456"/>
        <path id="Trazado_1094" data-name="Trazado 1094" d="M708.558,182.114a1.664,1.664,0,1,1,1.664-1.665,1.667,1.667,0,0,1-1.664,1.665m0-2.417a.752.752,0,1,0,.752.752.753.753,0,0,0-.752-.752"/>
        <rect id="Rectángulo_116" data-name="Rectángulo 116" width="56.178" height="34.217" transform="translate(621.494 75.343)" fill="#ffd54f"/>
        <rect id="Rectángulo_117" data-name="Rectángulo 117" width="56.178" height="13.322" transform="translate(620.951 62.021)" fill="#fff"/>
        <path id="Trazado_1095" data-name="Trazado 1095" d="M677.672,109.157H621.495a.606.606,0,0,1-.6-.606v-46.1a.6.6,0,0,1,.6-.6h56.177a.605.605,0,0,1,.606.6v46.1a.607.607,0,0,1-.606.606m-55.572-1.21h54.968V63.061H622.1Z"/>
        <rect id="Rectángulo_118" data-name="Rectángulo 118" width="4.722" height="5.195" transform="translate(625.575 78.324)" fill="#fff"/>
        <path id="Trazado_1096" data-name="Trazado 1096" d="M631.249,85.275h-4.723a.605.605,0,0,1-.6-.606V79.474a.6.6,0,0,1,.6-.606h4.723a.6.6,0,0,1,.6.606v5.195a.605.605,0,0,1-.6.606m-4.118-1.211h3.512V80.079h-3.512Z"/>
        <rect id="Rectángulo_119" data-name="Rectángulo 119" width="4.722" height="5.195" transform="translate(635.34 78.324)" fill="#fff"/>
        <path id="Trazado_1097" data-name="Trazado 1097" d="M641.012,85.275h-4.721a.606.606,0,0,1-.605-.606V79.474a.605.605,0,0,1,.605-.606h4.721a.606.606,0,0,1,.606.606v5.195a.606.606,0,0,1-.606.606M636.9,84.064h3.512V80.079H636.9Z"/>
        <rect id="Rectángulo_120" data-name="Rectángulo 120" width="4.722" height="5.195" transform="translate(644.718 78.324)" fill="#fff"/>
        <path id="Trazado_1098" data-name="Trazado 1098" d="M650.39,85.275h-4.721a.606.606,0,0,1-.6-.606V79.474a.605.605,0,0,1,.6-.606h4.721a.606.606,0,0,1,.606.606v5.195a.607.607,0,0,1-.606.606m-4.116-1.211h3.512V80.079h-3.512Z"/>
        <rect id="Rectángulo_121" data-name="Rectángulo 121" width="4.723" height="5.195" transform="translate(653.96 78.324)" fill="#fff"/>
        <path id="Trazado_1099" data-name="Trazado 1099" d="M659.633,85.275h-4.721a.607.607,0,0,1-.606-.606V79.474a.606.606,0,0,1,.606-.606h4.721a.606.606,0,0,1,.606.606v5.195a.607.607,0,0,1-.606.606m-4.117-1.211h3.513V80.079h-3.513Z"/>
        <rect id="Rectángulo_122" data-name="Rectángulo 122" width="4.722" height="5.195" transform="translate(663.203 78.324)" fill="#fff"/>
        <path id="Trazado_1100" data-name="Trazado 1100" d="M668.877,85.275h-4.722a.607.607,0,0,1-.606-.606V79.474a.606.606,0,0,1,.606-.606h4.722a.6.6,0,0,1,.6.606v5.195a.605.605,0,0,1-.6.606m-4.118-1.211h3.512V80.079h-3.512Z"/>
        <rect id="Rectángulo_123" data-name="Rectángulo 123" width="4.722" height="5.196" transform="translate(625.575 87.634)" fill="#fff"/>
        <path id="Trazado_1101" data-name="Trazado 1101" d="M631.249,94.585h-4.723a.6.6,0,0,1-.6-.6v-5.2a.6.6,0,0,1,.6-.6h4.723a.6.6,0,0,1,.6.6v5.2a.6.6,0,0,1-.6.6m-4.118-1.21h3.512V89.389h-3.512Z"/>
        <rect id="Rectángulo_124" data-name="Rectángulo 124" width="4.722" height="5.196" transform="translate(635.34 87.634)" fill="#fff"/>
        <path id="Trazado_1102" data-name="Trazado 1102" d="M641.012,94.585h-4.721a.605.605,0,0,1-.605-.6v-5.2a.605.605,0,0,1,.605-.6h4.721a.605.605,0,0,1,.606.6v5.2a.605.605,0,0,1-.606.6m-4.116-1.21h3.512V89.389H636.9Z"/>
        <rect id="Rectángulo_125" data-name="Rectángulo 125" width="4.722" height="5.196" transform="translate(644.718 87.634)" fill="#fff"/>
        <path id="Trazado_1103" data-name="Trazado 1103" d="M650.39,94.585h-4.721a.605.605,0,0,1-.6-.6v-5.2a.605.605,0,0,1,.6-.6h4.721a.606.606,0,0,1,.606.6v5.2a.606.606,0,0,1-.606.6m-4.116-1.21h3.512V89.389h-3.512Z"/>
        <rect id="Rectángulo_126" data-name="Rectángulo 126" width="4.723" height="5.196" transform="translate(653.96 87.634)" fill="#fff"/>
        <path id="Trazado_1104" data-name="Trazado 1104" d="M659.633,94.585h-4.721a.606.606,0,0,1-.606-.6v-5.2a.606.606,0,0,1,.606-.6h4.721a.606.606,0,0,1,.606.6v5.2a.606.606,0,0,1-.606.6m-4.117-1.21h3.513V89.389h-3.513Z"/>
        <rect id="Rectángulo_127" data-name="Rectángulo 127" width="4.722" height="5.196" transform="translate(663.203 87.634)" fill="#fff"/>
        <path id="Trazado_1105" data-name="Trazado 1105" d="M668.877,94.585h-4.722a.606.606,0,0,1-.606-.6v-5.2a.606.606,0,0,1,.606-.6h4.722a.6.6,0,0,1,.6.6v5.2a.6.6,0,0,1-.6.6m-4.118-1.21h3.512V89.389h-3.512Z"/>
        <rect id="Rectángulo_128" data-name="Rectángulo 128" width="4.722" height="5.195" transform="translate(625.575 96.946)" fill="#fff"/>
        <path id="Trazado_1106" data-name="Trazado 1106" d="M631.249,103.9h-4.723a.6.6,0,0,1-.6-.605V98.1a.6.6,0,0,1,.6-.605h4.723a.6.6,0,0,1,.6.605v5.2a.6.6,0,0,1-.6.605m-4.118-1.21h3.512V98.7h-3.512Z"/>
        <rect id="Rectángulo_129" data-name="Rectángulo 129" width="4.722" height="5.195" transform="translate(635.34 96.946)" fill="#fff"/>
        <path id="Trazado_1107" data-name="Trazado 1107" d="M641.012,103.9h-4.721a.605.605,0,0,1-.605-.605V98.1a.605.605,0,0,1,.605-.605h4.721a.605.605,0,0,1,.606.605v5.2a.605.605,0,0,1-.606.605m-4.116-1.21h3.512V98.7H636.9Z"/>
        <rect id="Rectángulo_130" data-name="Rectángulo 130" width="4.722" height="5.195" transform="translate(644.718 96.946)" fill="#fff"/>
        <path id="Trazado_1108" data-name="Trazado 1108" d="M650.39,103.9h-4.721a.605.605,0,0,1-.6-.605V98.1a.605.605,0,0,1,.6-.605h4.721A.606.606,0,0,1,651,98.1v5.2a.606.606,0,0,1-.606.605m-4.116-1.21h3.512V98.7h-3.512Z"/>
        <rect id="Rectángulo_131" data-name="Rectángulo 131" width="4.723" height="5.195" transform="translate(653.96 96.946)" fill="#fff"/>
        <path id="Trazado_1109" data-name="Trazado 1109" d="M659.633,103.9h-4.721a.606.606,0,0,1-.606-.605V98.1a.606.606,0,0,1,.606-.605h4.721a.606.606,0,0,1,.606.605v5.2a.606.606,0,0,1-.606.605m-4.117-1.21h3.513V98.7h-3.513Z"/>
        <rect id="Rectángulo_132" data-name="Rectángulo 132" width="4.722" height="5.195" transform="translate(663.203 96.946)" fill="#fff"/>
        <path id="Trazado_1110" data-name="Trazado 1110" d="M668.877,103.9h-4.722a.606.606,0,0,1-.606-.605V98.1a.606.606,0,0,1,.606-.605h4.722a.6.6,0,0,1,.6.605v5.2a.6.6,0,0,1-.6.605m-4.118-1.21h3.512V98.7h-3.512Z"/>
        <rect id="Rectángulo_133" data-name="Rectángulo 133" width="4.985" height="8.023" transform="translate(624.742 258.871)" fill="#80deea"/>
        <path id="Trazado_1111" data-name="Trazado 1111" d="M628.9,268.1h-4.985a.6.6,0,0,1-.6-.6v-8.023a.6.6,0,0,1,.6-.6H628.9a.6.6,0,0,1,.6.6v8.023a.6.6,0,0,1-.6.6m-4.385-1.2H628.3v-6.822h-3.784Z"/>
        <path id="Trazado_1112" data-name="Trazado 1112" d="M660.233,268.013H619.412a.519.519,0,0,1,0-1.038h40.821a.519.519,0,1,1,0,1.038"/>
        <rect id="Rectángulo_134" data-name="Rectángulo 134" width="4.986" height="25.591" transform="translate(651.568 241.303)" fill="#ff8a65"/>
        <path id="Trazado_1113" data-name="Trazado 1113" d="M655.728,268.1h-4.985a.6.6,0,0,1-.6-.6V241.9a.6.6,0,0,1,.6-.6h4.985a.6.6,0,0,1,.6.6v25.59a.6.6,0,0,1-.6.6m-4.385-1.2h3.784V242.5h-3.784Z"/>
        <rect id="Rectángulo_135" data-name="Rectángulo 135" width="4.985" height="17.519" transform="translate(633.685 249.375)" fill="#ff8a65"/>
        <path id="Trazado_1114" data-name="Trazado 1114" d="M637.844,268.1h-4.985a.6.6,0,0,1-.6-.6V249.976a.6.6,0,0,1,.6-.6h4.985a.6.6,0,0,1,.6.6v17.518a.6.6,0,0,1-.6.6m-4.384-1.2h3.784V250.577H633.46Z"/>
        <rect id="Rectángulo_136" data-name="Rectángulo 136" width="4.985" height="14.53" transform="translate(642.627 252.364)" fill="#80deea"/>
        <path id="Trazado_1115" data-name="Trazado 1115" d="M646.786,268.1H641.8a.6.6,0,0,1-.6-.6v-14.53a.6.6,0,0,1,.6-.6h4.986a.6.6,0,0,1,.6.6v14.53a.6.6,0,0,1-.6.6m-4.385-1.2h3.784V253.565H642.4Z"/>
        <path id="Trazado_1116" data-name="Trazado 1116" d="M616.7,256.436a.518.518,0,0,1-.288-.951l39.563-26.256a.521.521,0,0,1,.533-.024.515.515,0,0,1,.274.457v6a.519.519,0,1,1-1.038,0v-5.03L616.981,256.35a.512.512,0,0,1-.286.086"/>
        <path id="Trazado_1117" data-name="Trazado 1117" d="M656.258,230.181a.486.486,0,0,1-.092-.009l-6.381-1.135a.519.519,0,0,1,.183-1.022l6.381,1.136a.519.519,0,0,1-.091,1.03"/>
        <path id="Trazado_1118" data-name="Trazado 1118" d="M885.653,82.877a4.839,4.839,0,1,0,4.839-4.839,4.84,4.84,0,0,0-4.839,4.839" fill="#80deea"/>
        <path id="Trazado_1119" data-name="Trazado 1119" d="M892.1,87.13a5.793,5.793,0,1,1,5.794-5.793A5.8,5.8,0,0,1,892.1,87.13m0-9.678a3.885,3.885,0,1,0,3.885,3.885,3.888,3.888,0,0,0-3.885-3.885"/>
        <path id="Trazado_1120" data-name="Trazado 1120" d="M908.172,87.13a.954.954,0,0,1-.954-.954,19.02,19.02,0,0,0-19-19,.955.955,0,0,1,0-1.909,20.93,20.93,0,0,1,20.907,20.907.954.954,0,0,1-.954.954"/>
        <path id="Trazado_1121" data-name="Trazado 1121" d="M918.545,87.13a.954.954,0,0,1-.954-.954A29.406,29.406,0,0,0,888.219,56.8a.955.955,0,0,1,0-1.909A31.315,31.315,0,0,1,919.5,86.176a.954.954,0,0,1-.954.954"/>
        <path id="Trazado_1122" data-name="Trazado 1122" d="M928.92,87.13a.954.954,0,0,1-.954-.954A39.791,39.791,0,0,0,888.22,46.431a.955.955,0,0,1,0-1.909,41.7,41.7,0,0,1,41.654,41.654.954.954,0,0,1-.954.954"/>
        <path id="Trazado_1123" data-name="Trazado 1123" d="M204.746,37.771a17.736,17.736,0,1,1-17.735-17.735,17.734,17.734,0,0,1,17.735,17.735" fill="#fff"/>
        <path id="Trazado_1124" data-name="Trazado 1124" d="M187.01,56.069a18.3,18.3,0,1,1,18.3-18.3,18.318,18.318,0,0,1-18.3,18.3m0-35.471a17.173,17.173,0,1,0,17.173,17.173A17.192,17.192,0,0,0,187.01,20.6"/>
        <path id="Trazado_1125" data-name="Trazado 1125" d="M187.01,52.249V37.77h-14.7s0,13.565,14.7,14.479" fill="#ff8a65"/>
        <path id="Trazado_1126" data-name="Trazado 1126" d="M187.01,53.031a15.261,15.261,0,1,1,15.262-15.26,15.278,15.278,0,0,1-15.262,15.26m0-29.4a14.135,14.135,0,1,0,14.136,14.136A14.152,14.152,0,0,0,187.01,23.635"/>
        <path id="Trazado_1127" data-name="Trazado 1127" d="M188.66,37.771a1.65,1.65,0,1,1-1.649-1.649,1.649,1.649,0,0,1,1.649,1.649" fill="#fff"/>
        <path id="Trazado_1128" data-name="Trazado 1128" d="M187.01,39.983a2.213,2.213,0,1,1,2.212-2.212,2.215,2.215,0,0,1-2.212,2.212m0-3.3a1.087,1.087,0,1,0,1.086,1.087,1.087,1.087,0,0,0-1.086-1.087"/>
        <path id="Trazado_1129" data-name="Trazado 1129" d="M187.01,27.023a.562.562,0,0,1-.562-.562V23.292a.562.562,0,1,1,1.124,0v3.169a.562.562,0,0,1-.562.562"/>
        <path id="Trazado_1130" data-name="Trazado 1130" d="M183.515,27.576a.561.561,0,0,1-.535-.389L182,24.175a.563.563,0,0,1,1.071-.349l.979,3.014a.563.563,0,0,1-.361.709.584.584,0,0,1-.174.027"/>
        <path id="Trazado_1131" data-name="Trazado 1131" d="M180.362,29.183a.559.559,0,0,1-.455-.232l-1.863-2.564a.563.563,0,1,1,.911-.661l1.862,2.563a.562.562,0,0,1-.455.894"/>
        <path id="Trazado_1132" data-name="Trazado 1132" d="M177.859,31.685a.564.564,0,0,1-.33-.107l-2.564-1.863a.563.563,0,1,1,.663-.911l2.563,1.862a.563.563,0,0,1-.332,1.019"/>
        <path id="Trazado_1133" data-name="Trazado 1133" d="M176.253,34.838a.584.584,0,0,1-.174-.027l-3.014-.98a.563.563,0,1,1,.349-1.07l3.014.978a.563.563,0,0,1-.175,1.1"/>
        <path id="Trazado_1134" data-name="Trazado 1134" d="M187.01,52.813a.563.563,0,0,1-.562-.563V49.912a12.174,12.174,0,0,1-11.58-11.578h-2.337a.563.563,0,1,1,0-1.126h2.887a.562.562,0,0,1,.564.563A11.04,11.04,0,0,0,187.01,48.8a.562.562,0,0,1,.562.563V52.25a.563.563,0,0,1-.562.563"/>
        <path id="Trazado_1135" data-name="Trazado 1135" d="M191.485,52.1a.565.565,0,0,1-.536-.389L189.97,48.7a.563.563,0,0,1,1.071-.348l.979,3.013a.564.564,0,0,1-.361.71.584.584,0,0,1-.174.027"/>
        <path id="Trazado_1136" data-name="Trazado 1136" d="M195.521,50.047a.56.56,0,0,1-.455-.231L193.2,47.252a.563.563,0,0,1,.911-.662l1.862,2.563a.563.563,0,0,1-.125.787.557.557,0,0,1-.33.107"/>
        <path id="Trazado_1137" data-name="Trazado 1137" d="M198.723,46.844a.564.564,0,0,1-.33-.107l-2.564-1.863a.563.563,0,0,1,.662-.911l2.563,1.862a.563.563,0,0,1-.331,1.019"/>
        <path id="Trazado_1138" data-name="Trazado 1138" d="M200.781,42.808a.589.589,0,0,1-.174-.027l-3.013-.98a.562.562,0,0,1,.347-1.07l3.014.978a.563.563,0,0,1-.174,1.1"/>
        <path id="Trazado_1139" data-name="Trazado 1139" d="M201.49,38.333h-3.169a.563.563,0,0,1,0-1.126h3.169a.563.563,0,0,1,0,1.126"/>
        <path id="Trazado_1140" data-name="Trazado 1140" d="M197.767,34.838a.563.563,0,0,1-.173-1.1l3.013-.978a.563.563,0,0,1,.348,1.07l-3.014.98a.584.584,0,0,1-.174.027"/>
        <path id="Trazado_1141" data-name="Trazado 1141" d="M196.162,31.685a.563.563,0,0,1-.332-1.019l2.563-1.862a.563.563,0,1,1,.662.911l-2.564,1.863a.561.561,0,0,1-.329.107"/>
        <path id="Trazado_1142" data-name="Trazado 1142" d="M193.658,29.183a.563.563,0,0,1-.455-.894l1.863-2.563a.562.562,0,1,1,.91.661l-1.862,2.564a.563.563,0,0,1-.456.232"/>
        <path id="Trazado_1143" data-name="Trazado 1143" d="M190.505,27.576a.584.584,0,0,1-.174-.027.562.562,0,0,1-.361-.709l.978-3.014a.564.564,0,0,1,1.072.349l-.98,3.012a.561.561,0,0,1-.535.389"/>
        <path id="Trazado_1144" data-name="Trazado 1144" d="M187.01,36.374a.562.562,0,0,1-.562-.562V28.533a.562.562,0,0,1,1.124,0v7.279a.562.562,0,0,1-.562.562"/>
        <path id="Trazado_1145" data-name="Trazado 1145" d="M191.592,42.95a.561.561,0,0,1-.4-.165l-3.366-3.365a.563.563,0,1,1,.8-.8l3.365,3.366a.563.563,0,0,1-.4.96"/>
        <path id="Trazado_1146" data-name="Trazado 1146" d="M196.983,58.521a.56.56,0,0,1-.5-.305l-2.142-4.148a.562.562,0,1,1,1-.517l2.143,4.15a.562.562,0,0,1-.5.82"/>
        <path id="Trazado_1147" data-name="Trazado 1147" d="M177.039,58.521a.571.571,0,0,1-.259-.062.563.563,0,0,1-.241-.758l2.142-4.15a.563.563,0,0,1,1,.517l-2.143,4.148a.561.561,0,0,1-.5.305"/>
        <path id="Trazado_1148" data-name="Trazado 1148" d="M187.01,20.035a17.76,17.76,0,0,1,5.186.771V17.583H181.824v3.223a17.76,17.76,0,0,1,5.186-.771" fill="#fff"/>
        <path id="Trazado_1149" data-name="Trazado 1149" d="M192.2,21.371a.546.546,0,0,1-.165-.025,17.315,17.315,0,0,0-10.042,0,.563.563,0,0,1-.727-.538V17.584a.563.563,0,0,1,.563-.563H192.2a.563.563,0,0,1,.562.563v3.224a.562.562,0,0,1-.562.563m-9.809-3.225v1.918a18.418,18.418,0,0,1,9.245,0V18.146Z"/>
        <path id="Trazado_1150" data-name="Trazado 1150" d="M161.273,35.432a.71.71,0,0,1-.078-.005.562.562,0,0,1-.479-.635,28.02,28.02,0,0,1,.61-3.108.563.563,0,1,1,1.09.279,27.076,27.076,0,0,0-.586,2.984.562.562,0,0,1-.557.485m1.27-5.276a.57.57,0,0,1-.185-.031.562.562,0,0,1-.346-.716,27.832,27.832,0,0,1,1.211-2.93.563.563,0,0,1,1.014.489,27.043,27.043,0,0,0-1.163,2.811.561.561,0,0,1-.531.377m2.284-4.924a.562.562,0,0,1-.484-.849,28.477,28.477,0,0,1,1.761-2.634.563.563,0,1,1,.9.678,26.945,26.945,0,0,0-1.69,2.529.564.564,0,0,1-.486.276m3.2-4.382a.562.562,0,0,1-.42-.937,28.7,28.7,0,0,1,2.24-2.24.562.562,0,1,1,.75.838,27.629,27.629,0,0,0-2.15,2.152.562.562,0,0,1-.42.187m3.994-3.673a.563.563,0,0,1-.339-1.013,28.245,28.245,0,0,1,2.631-1.762.563.563,0,1,1,.573.97,27.175,27.175,0,0,0-2.526,1.691.563.563,0,0,1-.339.114m4.632-2.826a.563.563,0,0,1-.244-1.07,28.3,28.3,0,0,1,2.924-1.211.563.563,0,0,1,.372,1.063A26.993,26.993,0,0,0,176.9,14.3a.571.571,0,0,1-.244.055m5.1-1.861a.563.563,0,0,1-.14-1.108,28.405,28.405,0,0,1,3.108-.613.563.563,0,1,1,.156,1.115,26.7,26.7,0,0,0-2.983.588.574.574,0,0,1-.141.018"/>
        <path id="Trazado_1151" data-name="Trazado 1151" d="M82.28,158.576a.955.955,0,0,1-.955-.954V154.06H66.3v3.562a.955.955,0,0,1-1.91,0V153.1a.955.955,0,0,1,.955-.954H82.28a.955.955,0,0,1,.954.954v4.517a.955.955,0,0,1-.954.954"/>
        <path id="Trazado_1152" data-name="Trazado 1152" d="M97.026,122.573a21.877,21.877,0,1,0-29.988,20.318v8.522H83.973v-8.82a21.88,21.88,0,0,0,13.053-20.02" fill="#ffd54f"/>
        <path id="Trazado_1153" data-name="Trazado 1153" d="M82.279,150.673H65.345a.955.955,0,0,1-.955-.954v-7.886a22.831,22.831,0,1,1,18.844-.323v8.209a.955.955,0,0,1-.955.954M66.3,148.764H81.324V140.9a.954.954,0,0,1,.57-.873,20.924,20.924,0,1,0-16.195.286.953.953,0,0,1,.6.887Z"/>
        <path id="Trazado_1154" data-name="Trazado 1154" d="M57.81,131.222a.954.954,0,0,1-.821-.466,19.165,19.165,0,0,1,28.184-24.971A.954.954,0,1,1,84,107.294a17.088,17.088,0,0,0-10.55-3.6A17.26,17.26,0,0,0,58.629,129.78a.954.954,0,0,1-.819,1.442"/>
        <path id="Trazado_1155" data-name="Trazado 1155" d="M73.455,95.235a.955.955,0,0,1-.954-.954V87.918a.955.955,0,0,1,1.909,0v6.363a.955.955,0,0,1-.955.954"/>
        <path id="Trazado_1156" data-name="Trazado 1156" d="M73.455,85.674a.954.954,0,0,1-.954-.954V78.358a.955.955,0,1,1,1.909,0V84.72a.955.955,0,0,1-.955.954"/>
        <path id="Trazado_1157" data-name="Trazado 1157" d="M64.335,96.843a.954.954,0,0,1-.9-.628l-2.177-5.978a.955.955,0,1,1,1.794-.654l2.177,5.979a.954.954,0,0,1-.57,1.223.965.965,0,0,1-.327.058"/>
        <path id="Trazado_1158" data-name="Trazado 1158" d="M61.065,87.86a.954.954,0,0,1-.9-.628l-2.176-5.978a.955.955,0,0,1,1.795-.655l2.175,5.98a.955.955,0,0,1-.57,1.223.99.99,0,0,1-.327.058"/>
        <path id="Trazado_1159" data-name="Trazado 1159" d="M56.313,101.473a.945.945,0,0,1-.73-.341l-4.09-4.873a.954.954,0,1,1,1.461-1.228L57.043,99.9a.954.954,0,0,1-.73,1.568"/>
        <path id="Trazado_1160" data-name="Trazado 1160" d="M50.168,94.151a.95.95,0,0,1-.73-.34l-4.09-4.874A.954.954,0,1,1,46.81,87.71L50.9,92.583a.955.955,0,0,1-.731,1.568"/>
        <path id="Trazado_1161" data-name="Trazado 1161" d="M50.358,108.569a.951.951,0,0,1-.476-.128l-5.51-3.181a.955.955,0,0,1,.955-1.653l5.51,3.182a.954.954,0,0,1-.479,1.78"/>
        <path id="Trazado_1162" data-name="Trazado 1162" d="M42.081,103.789a.952.952,0,0,1-.477-.128l-5.51-3.182a.954.954,0,1,1,.954-1.652l5.512,3.182a.954.954,0,0,1-.479,1.78"/>
        <path id="Trazado_1163" data-name="Trazado 1163" d="M96.552,108.569a.954.954,0,0,1-.479-1.78l5.51-3.182a.954.954,0,1,1,.954,1.653l-5.509,3.181a.951.951,0,0,1-.476.128"/>
        <path id="Trazado_1164" data-name="Trazado 1164" d="M104.831,103.789a.954.954,0,0,1-.479-1.78l5.511-3.182a.954.954,0,1,1,.954,1.652l-5.509,3.182a.952.952,0,0,1-.477.128"/>
        <path id="Trazado_1165" data-name="Trazado 1165" d="M90.6,101.473a.954.954,0,0,1-.73-1.568l4.089-4.874a.954.954,0,1,1,1.461,1.228l-4.09,4.873a.945.945,0,0,1-.73.341"/>
        <path id="Trazado_1166" data-name="Trazado 1166" d="M96.742,94.151a.955.955,0,0,1-.73-1.568L100.1,87.71a.954.954,0,1,1,1.461,1.227l-4.089,4.874a.951.951,0,0,1-.731.34"/>
        <path id="Trazado_1167" data-name="Trazado 1167" d="M82.577,96.843a.965.965,0,0,1-.327-.058.954.954,0,0,1-.57-1.223l2.175-5.979a.955.955,0,1,1,1.795.654l-2.177,5.978a.953.953,0,0,1-.9.628"/>
        <path id="Trazado_1168" data-name="Trazado 1168" d="M85.846,87.86a.99.99,0,0,1-.327-.058.954.954,0,0,1-.57-1.223l2.175-5.98a.955.955,0,1,1,1.795.655l-2.176,5.978a.955.955,0,0,1-.9.628"/>
        <path id="Trazado_1169" data-name="Trazado 1169" d="M78.705,157.944H68.92a.954.954,0,1,1,0-1.908h9.785a.954.954,0,0,1,0,1.908"/>
        <path id="Trazado_1170" data-name="Trazado 1170" d="M78.705,161.519H68.92a.954.954,0,1,1,0-1.908h9.785a.954.954,0,0,1,0,1.908"/>
        <path id="Trazado_1171" data-name="Trazado 1171" d="M101.682,127.086a8.993,8.993,0,1,1-8.992-8.993,8.992,8.992,0,0,1,8.992,8.993" fill="#fff"/>
        <path id="Trazado_1172" data-name="Trazado 1172" d="M92.69,137.033a9.947,9.947,0,1,1,9.946-9.948,9.96,9.96,0,0,1-9.946,9.948m0-17.986a8.038,8.038,0,1,0,8.037,8.038,8.047,8.047,0,0,0-8.037-8.038"/>
        <path id="Trazado_1173" data-name="Trazado 1173" d="M87.6,127.086h0Z" fill="#fff"/>
        <path id="Trazado_1174" data-name="Trazado 1174" d="M97.78,128.039H87.6a.954.954,0,0,1,0-1.908H97.78a.954.954,0,0,1,0,1.908"/>
        <path id="Trazado_1175" data-name="Trazado 1175" d="M92.69,122v0Z" fill="#fff"/>
        <path id="Trazado_1176" data-name="Trazado 1176" d="M92.69,133.13a.956.956,0,0,1-.955-.955V122a.954.954,0,1,1,1.909,0v10.18a.955.955,0,0,1-.954.955"/>
        <rect id="Rectángulo_137" data-name="Rectángulo 137" width="62.238" height="35.978" transform="translate(826.426 116.733)" fill="#fff"/>
        <path id="Trazado_1177" data-name="Trazado 1177" d="M888.664,153.449H826.425a.738.738,0,0,1-.738-.738V116.734a.738.738,0,0,1,.738-.739h62.239a.738.738,0,0,1,.738.739v35.977a.737.737,0,0,1-.738.738m-61.5-1.476h60.761v-34.5H827.165Z"/>
        <rect id="Rectángulo_138" data-name="Rectángulo 138" width="52.206" height="4.704" transform="translate(831.442 124.026)" fill="#80deea"/>
        <rect id="Rectángulo_139" data-name="Rectángulo 139" width="22.354" height="2.353" transform="translate(831.443 133.641)" fill="#ffd54f"/>
        <rect id="Rectángulo_140" data-name="Rectángulo 140" width="22.354" height="2.353" transform="translate(831.443 138.192)" fill="#80deea"/>
        <rect id="Rectángulo_141" data-name="Rectángulo 141" width="22.354" height="2.353" transform="translate(831.443 142.742)" fill="#80deea"/>
        <rect id="Rectángulo_142" data-name="Rectángulo 142" width="22.355" height="2.353" transform="translate(861.293 133.641)" fill="#80deea"/>
        <rect id="Rectángulo_143" data-name="Rectángulo 143" width="22.355" height="2.353" transform="translate(861.293 138.192)" fill="#ffd54f"/>
        <path id="Trazado_1178" data-name="Trazado 1178" d="M886.258,149.359H828.832a.739.739,0,0,1-.74-.739v-27.8a.739.739,0,0,1,.74-.738h57.426a.739.739,0,0,1,.739.738v27.8a.739.739,0,0,1-.739.739m-56.688-1.478h55.949V121.564H829.57Z"/>
        <rect id="Rectángulo_144" data-name="Rectángulo 144" width="79.264" height="4.212" transform="translate(817.912 161.77)" fill="#fff"/>
        <path id="Trazado_1179" data-name="Trazado 1179" d="M897.176,166.721H817.913a.739.739,0,0,1-.739-.738V161.77a.739.739,0,0,1,.739-.738h79.263a.739.739,0,0,1,.74.738v4.213a.739.739,0,0,1-.74.738m-78.524-1.478h77.786v-2.734H818.652Z"/>
        <path id="Trazado_1180" data-name="Trazado 1180" d="M881.23,164.615h-5.862a.739.739,0,1,1,0-1.478h5.862a.739.739,0,1,1,0,1.478"/>
        <path id="Trazado_1181" data-name="Trazado 1181" d="M858.159,118.726a.615.615,0,1,1-.614-.614.613.613,0,0,1,.614.614"/>
        <path id="Trazado_1182" data-name="Trazado 1182" d="M885.8,163.876a.71.71,0,1,1-.7-.614.664.664,0,0,1,.7.614"/>
        <path id="Trazado_1183" data-name="Trazado 1183" d="M897.176,161.77l-8.513-9.059H826.425l-8.513,9.059Z" fill="#fff"/>
        <path id="Trazado_1184" data-name="Trazado 1184" d="M897.177,162.51H817.913a.739.739,0,0,1-.538-1.246l8.513-9.058a.734.734,0,0,1,.538-.233h62.238a.739.739,0,0,1,.539.233l8.513,9.058a.74.74,0,0,1-.539,1.246m-77.555-1.478h75.847l-7.124-7.582h-61.6Z"/>
        <path id="Trazado_1185" data-name="Trazado 1185" d="M833.33,155.764h-4.043a.739.739,0,1,1,0-1.478h4.043a.739.739,0,0,1,0,1.478"/>
        <path id="Trazado_1186" data-name="Trazado 1186" d="M840.826,155.764h-4.043a.739.739,0,0,1,0-1.478h4.043a.739.739,0,1,1,0,1.478"/>
        <path id="Trazado_1187" data-name="Trazado 1187" d="M848.322,155.764h-4.043a.739.739,0,0,1,0-1.478h4.043a.739.739,0,0,1,0,1.478"/>
        <path id="Trazado_1188" data-name="Trazado 1188" d="M855.818,155.764h-4.043a.739.739,0,0,1,0-1.478h4.043a.739.739,0,1,1,0,1.478"/>
        <path id="Trazado_1189" data-name="Trazado 1189" d="M863.314,155.764h-4.043a.739.739,0,0,1,0-1.478h4.043a.739.739,0,0,1,0,1.478"/>
        <path id="Trazado_1190" data-name="Trazado 1190" d="M870.81,155.764h-4.043a.739.739,0,0,1,0-1.478h4.043a.739.739,0,0,1,0,1.478"/>
        <path id="Trazado_1191" data-name="Trazado 1191" d="M878.307,155.764h-4.043a.739.739,0,0,1,0-1.478h4.043a.739.739,0,0,1,0,1.478"/>
        <path id="Trazado_1192" data-name="Trazado 1192" d="M885.8,155.764H881.76a.739.739,0,1,1,0-1.478H885.8a.739.739,0,0,1,0,1.478"/>
        <path id="Trazado_1193" data-name="Trazado 1193" d="M830.878,159.337h-4.453a.739.739,0,0,1,0-1.477h4.453a.739.739,0,0,1,0,1.477"/>
        <path id="Trazado_1194" data-name="Trazado 1194" d="M839.133,159.337H834.68a.739.739,0,0,1,0-1.477h4.453a.739.739,0,0,1,0,1.477"/>
        <path id="Trazado_1195" data-name="Trazado 1195" d="M847.388,159.337h-4.453a.739.739,0,0,1,0-1.477h4.453a.739.739,0,0,1,0,1.477"/>
        <path id="Trazado_1196" data-name="Trazado 1196" d="M855.643,159.337h-4.452a.739.739,0,0,1,0-1.477h4.452a.739.739,0,0,1,0,1.477"/>
        <path id="Trazado_1197" data-name="Trazado 1197" d="M863.9,159.337h-4.453a.739.739,0,0,1,0-1.477H863.9a.739.739,0,0,1,0,1.477"/>
        <path id="Trazado_1198" data-name="Trazado 1198" d="M872.154,159.337H867.7a.739.739,0,1,1,0-1.477h4.452a.739.739,0,0,1,0,1.477"/>
        <path id="Trazado_1199" data-name="Trazado 1199" d="M880.409,159.337h-4.452a.739.739,0,1,1,0-1.477h4.452a.739.739,0,0,1,0,1.477"/>
        <path id="Trazado_1200" data-name="Trazado 1200" d="M888.664,159.337h-8.255a.739.739,0,1,1,0-1.477h8.255a.739.739,0,0,1,0,1.477"/>
        <path id="Trazado_1201" data-name="Trazado 1201" d="M834.355,134.375a6.96,6.96,0,1,1-6.96-6.96,6.96,6.96,0,0,1,6.96,6.96" fill="#fff"/>
        <path id="Trazado_1202" data-name="Trazado 1202" d="M827.4,142.075a7.7,7.7,0,1,1,7.7-7.7,7.708,7.708,0,0,1-7.7,7.7m0-13.92a6.221,6.221,0,1,0,6.222,6.221,6.229,6.229,0,0,0-6.222-6.221"/>
        <path id="Trazado_1203" data-name="Trazado 1203" d="M823.455,134.375h0Z" fill="#fff"/>
        <path id="Trazado_1204" data-name="Trazado 1204" d="M831.336,135.115h-7.88a.739.739,0,1,1,0-1.478h7.88a.739.739,0,0,1,0,1.478"/>
        <path id="Trazado_1205" data-name="Trazado 1205" d="M827.4,130.436v0Z" fill="#fff"/>
        <path id="Trazado_1206" data-name="Trazado 1206" d="M827.4,139.054a.737.737,0,0,1-.738-.738v-7.88a.738.738,0,1,1,1.477,0v7.88a.738.738,0,0,1-.739.738"/>
        <rect id="Rectángulo_145" data-name="Rectángulo 145" width="52.509" height="30.354" transform="translate(276.412 106.117)" fill="#fff"/>
        <path id="Trazado_1207" data-name="Trazado 1207" d="M328.92,137.02H276.412a.549.549,0,0,1-.549-.549V106.117a.549.549,0,0,1,.549-.548H328.92a.548.548,0,0,1,.548.548v30.354a.548.548,0,0,1-.548.549m-51.959-1.1h51.41V106.666h-51.41Z"/>
        <rect id="Rectángulo_146" data-name="Rectángulo 146" width="48.449" height="23.449" transform="translate(279.588 110.716)" fill="#80deea"/>
        <rect id="Rectángulo_147" data-name="Rectángulo 147" width="41.626" height="3.969" transform="translate(281.853 127.147)" fill="#fff"/>
        <path id="Trazado_1208" data-name="Trazado 1208" d="M326.89,133.568H278.442a.548.548,0,0,1-.549-.549V109.57a.549.549,0,0,1,.549-.549H326.89a.549.549,0,0,1,.549.549v23.449a.549.549,0,0,1-.549.549m-47.9-1.1h47.351V110.118H278.991Z"/>
        <rect id="Rectángulo_148" data-name="Rectángulo 148" width="58.38" height="3.554" transform="translate(273.476 136.471)" fill="#fff"/>
        <path id="Trazado_1209" data-name="Trazado 1209" d="M331.856,140.574H273.475a.55.55,0,0,1-.549-.549v-3.554a.549.549,0,0,1,.549-.549h58.381a.549.549,0,0,1,.549.549v3.554a.549.549,0,0,1-.549.549m-57.832-1.1h57.283V137.02H274.024Z"/>
        <path id="Trazado_1210" data-name="Trazado 1210" d="M320.111,138.8h-4.317a.549.549,0,1,1,0-1.1h4.317a.549.549,0,1,1,0,1.1"/>
        <path id="Trazado_1211" data-name="Trazado 1211" d="M303.184,107.8a.518.518,0,1,1-.519-.518.519.519,0,0,1,.519.518"/>
        <path id="Trazado_1212" data-name="Trazado 1212" d="M323.479,138.247a.518.518,0,1,1-.518-.518.518.518,0,0,1,.518.518"/>
        <path id="Trazado_1213" data-name="Trazado 1213" d="M325.681,138.247a.518.518,0,1,1-.518-.518.518.518,0,0,1,.518.518"/>
        <path id="Trazado_1214" data-name="Trazado 1214" d="M327.927,138.247a.518.518,0,1,1-.519-.518.519.519,0,0,1,.519.518"/>
        <rect id="Rectángulo_149" data-name="Rectángulo 149" width="9.708" height="2.85" transform="translate(297.423 113.631)" fill="#fff"/>
        <rect id="Rectángulo_150" data-name="Rectángulo 150" width="9.708" height="2.85" transform="translate(297.423 117.887)" fill="#fff"/>
        <rect id="Rectángulo_151" data-name="Rectángulo 151" width="9.707" height="2.85" transform="translate(313.772 113.631)" fill="#fff"/>
        <rect id="Rectángulo_152" data-name="Rectángulo 152" width="9.707" height="2.85" transform="translate(313.772 117.887)" fill="#fff"/>
        <rect id="Rectángulo_153" data-name="Rectángulo 153" width="9.707" height="2.85" transform="translate(313.772 122.142)" fill="#fff"/>
        <rect id="Rectángulo_154" data-name="Rectángulo 154" width="9.707" height="2.85" transform="translate(281.853 113.631)" fill="#fff"/>
        <path id="Trazado_1215" data-name="Trazado 1215" d="M295.615,121.811l3.17-3.169-3.592-.915,7.437-2.93-2.93,7.437-.915-3.592Z" fill="#fff"/>
        <path id="Trazado_1216" data-name="Trazado 1216" d="M299.7,122.781h-.034a.544.544,0,0,1-.5-.412l-.678-2.657L296,122.2a.549.549,0,1,1-.777-.776l2.487-2.488-2.657-.677a.549.549,0,0,1-.065-1.043l7.436-2.929a.549.549,0,0,1,.712.712l-2.928,7.436a.551.551,0,0,1-.512.347m-.383-4.273.5,1.942,1.844-4.679-4.681,1.843,1.934.493a.507.507,0,0,1,.122.044h0a.486.486,0,0,1,.053.031.549.549,0,0,1,.227.306l0,.008,0,.012"/>
        <rect id="Rectángulo_155" data-name="Rectángulo 155" width="2.304" height="1.837" transform="translate(305.208 70.096)"/>
        <rect id="Rectángulo_156" data-name="Rectángulo 156" width="2.305" height="1.837" transform="translate(310.276 70.096)"/>
        <rect id="Rectángulo_157" data-name="Rectángulo 157" width="2.305" height="1.837" transform="translate(315.345 70.096)"/>
        <rect id="Rectángulo_158" data-name="Rectángulo 158" width="2.305" height="1.837" transform="translate(320.414 70.096)"/>
        <rect id="Rectángulo_159" data-name="Rectángulo 159" width="2.305" height="1.837" transform="translate(325.484 70.096)"/>
        <rect id="Rectángulo_160" data-name="Rectángulo 160" width="2.304" height="1.837" transform="translate(330.553 70.096)"/>
        <path id="Trazado_1217" data-name="Trazado 1217" d="M857.464,199.865v9.22h-9.22v1.837h9.22v9.219H859.3v-9.219h9.22v-1.837H859.3v-9.22Z"/>
        <rect id="Rectángulo_161" data-name="Rectángulo 161" width="2.45" height="1.835" transform="translate(723.419 117.118)"/>
        <rect id="Rectángulo_162" data-name="Rectángulo 162" width="2.45" height="1.835" transform="translate(728.81 117.118)"/>
        <rect id="Rectángulo_163" data-name="Rectángulo 163" width="2.45" height="1.835" transform="translate(734.205 117.118)"/>
        <rect id="Rectángulo_164" data-name="Rectángulo 164" width="2.45" height="1.835" transform="translate(739.597 117.118)"/>
        <rect id="Rectángulo_165" data-name="Rectángulo 165" width="2.45" height="1.835" transform="translate(744.991 117.118)"/>
        <rect id="Rectángulo_166" data-name="Rectángulo 166" width="2.451" height="1.835" transform="translate(750.382 117.118)"/>
        <rect id="Rectángulo_167" data-name="Rectángulo 167" width="2.451" height="1.835" transform="translate(755.777 117.118)"/>
        <rect id="Rectángulo_168" data-name="Rectángulo 168" width="2.451" height="1.835" transform="translate(761.169 117.118)"/>
        <rect id="Rectángulo_169" data-name="Rectángulo 169" width="2.451" height="1.835" transform="translate(766.563 117.118)"/>
        <rect id="Rectángulo_170" data-name="Rectángulo 170" width="2.45" height="1.835" transform="translate(771.956 117.118)"/>
        <rect id="Rectángulo_171" data-name="Rectángulo 171" width="2.523" height="1.835" transform="translate(760.843 129.163) rotate(-45.016)"/>
        <rect id="Rectángulo_172" data-name="Rectángulo 172" width="2.523" height="1.834" transform="matrix(0.707, -0.707, 0.707, 0.707, 764.767, 125.239)"/>
        <rect id="Rectángulo_173" data-name="Rectángulo 173" width="2.523" height="1.837" transform="translate(768.693 121.31) rotate(-44.933)"/>
        <rect id="Rectángulo_174" data-name="Rectángulo 174" width="1.835" height="2.523" transform="matrix(0.707, -0.707, 0.707, 0.707, 768.694, 114.76)"/>
        <path id="Trazado_1218" data-name="Trazado 1218" d="M767.848,111.32l-1.784-1.784-1.3,1.3,1.784,1.784Z"/>
        <rect id="Rectángulo_175" data-name="Rectángulo 175" width="1.834" height="2.523" transform="translate(760.843 106.909) rotate(-44.999)"/>
        <rect id="Rectángulo_176" data-name="Rectángulo 176" width="2.501" height="1.835" transform="translate(297.64 267.801)"/>
        <rect id="Rectángulo_177" data-name="Rectángulo 177" width="2.501" height="1.835" transform="translate(303.143 267.801)"/>
        <rect id="Rectángulo_178" data-name="Rectángulo 178" width="2.502" height="1.835" transform="translate(308.645 267.801)"/>
        <rect id="Rectángulo_179" data-name="Rectángulo 179" width="2.501" height="1.835" transform="translate(314.148 267.801)"/>
        <rect id="Rectángulo_180" data-name="Rectángulo 180" width="2.501" height="1.835" transform="translate(319.651 267.801)"/>
        <rect id="Rectángulo_181" data-name="Rectángulo 181" width="2.501" height="1.835" transform="translate(325.154 267.801)"/>
        <rect id="Rectángulo_182" data-name="Rectángulo 182" width="27.865" height="1.835" transform="translate(283.014 251.032)"/>
        <rect id="Rectángulo_183" data-name="Rectángulo 183" width="50.706" height="1.835" transform="translate(250.113 259.343)"/>
        <path id="Trazado_1219" data-name="Trazado 1219" d="M129.656,32.414a7.058,7.058,0,0,0-.977.077l-.757.148-.55-.683a10.528,10.528,0,0,0-7.542-6.544,10.791,10.791,0,0,0-3.448-.194,10.458,10.458,0,0,0-3.242.9A10.613,10.613,0,0,0,107.631,32l-.378,1.008-.936-.533a2.525,2.525,0,0,0-1.867-.259,2.57,2.57,0,0,0-1.909,2.08l-.121.777h-.786a5.584,5.584,0,1,0-.044,11.168h28.066a6.915,6.915,0,0,0,0-13.83" fill="#e1d3f8"/>
        <path id="Trazado_1220" data-name="Trazado 1220" d="M129.656,30.577a7.775,7.775,0,0,0-.849.05,12.348,12.348,0,0,0-8.574-7.006,12.6,12.6,0,0,0-4.045-.23,12.286,12.286,0,0,0-3.811,1.052,12.485,12.485,0,0,0-6.1,6.04,4.385,4.385,0,0,0-5.37,2.789,7.48,7.48,0,0,0-6,4.171,7.417,7.417,0,0,0,6.683,10.638h28.067a8.752,8.752,0,0,0,0-17.5m6.915,8.752a6.923,6.923,0,0,1-6.915,6.915H101.59a5.584,5.584,0,1,1,.043-11.168h.787l.121-.777a2.57,2.57,0,0,1,1.909-2.08,2.521,2.521,0,0,1,1.867.259l.936.533L107.631,32a10.61,10.61,0,0,1,5.509-5.89,10.458,10.458,0,0,1,3.242-.9,10.791,10.791,0,0,1,3.448.194,10.528,10.528,0,0,1,7.542,6.544l.55.683.757-.148a7.058,7.058,0,0,1,.977-.077,6.919,6.919,0,0,1,6.915,6.915"/>
        <rect id="Rectángulo_184" data-name="Rectángulo 184" width="50.706" height="1.836" transform="translate(81.88 11.059)"/>
        <rect id="Rectángulo_185" data-name="Rectángulo 185" width="27.866" height="1.837" transform="translate(57.655 52.658)"/>
        <rect id="Rectángulo_186" data-name="Rectángulo 186" width="27.867" height="1.837" transform="translate(89.299 -0.001)"/>
        <path id="Trazado_1221" data-name="Trazado 1221" d="M29.277,221.923q2.539-2.828,5.182-5.546l.328-.339c2.386-2.451,4.852-4.814,7.355-7.135a14.853,14.853,0,0,0,22.592-18.148q6.1-4.208,12.523-7.97l.874-.515-.918-1.589-.618.363c-.112.056-.216.127-.326.191l-1.213.711q-1.271.8-2.548,1.581c-.016-.026-2.135,1.3-2.135,1.3-.842.54-1.671,1.1-2.508,1.646-.015-.025-2.1,1.356-2.1,1.356-.63.462-1.282.891-1.93,1.326a14.87,14.87,0,1,0-23.088,18.5l-.757.7c-.716.7-1.439,1.388-2.157,2.084-.016-.014-1.8,1.733-1.8,1.733-.686.729-1.406,1.421-2.108,2.135-.008-.009-.451.449-.451.449l-.34.35-.957.987q-1.006,1.11-2.029,2.209c-.026-.026-1.716,1.817-1.716,1.817-.164.2-.346.382-.519.575Zm9.04-24.679a12.891,12.891,0,1,1,3.8,9.189,13.06,13.06,0,0,1-3.8-9.189"/>
        <path id="Trazado_1222" data-name="Trazado 1222" d="M591.913,160.115c-.018-.068-.049-.129-.069-.2a6.551,6.551,0,0,0-.723-1.622,6.549,6.549,0,0,0-6.6-3.094l-.731.142-.528-.658a10.14,10.14,0,0,0-7.268-6.306,10.337,10.337,0,0,0-3.324-.188,10.085,10.085,0,0,0-3.125.861,10.244,10.244,0,0,0-5.308,5.677l-.364.972-.9-.513a2.425,2.425,0,0,0-1.8-.25,2.474,2.474,0,0,0-1.84,2l-.116.75h-.759a5.38,5.38,0,1,0-.042,10.76h27.047a6.672,6.672,0,0,0,6.664-6.664,6.757,6.757,0,0,0-.214-1.675" fill="#e1d3f8"/>
        <path id="Trazado_1223" data-name="Trazado 1223" d="M558.415,170.224h13.556q-7.93,5.562-15.338,11.85l1.147,1.35a208.207,208.207,0,0,1,17.339-13.2h10.344a8.443,8.443,0,0,0,8.433-8.434,8.586,8.586,0,0,0-.269-2.116c-.057-.216-.147-.414-.218-.622,2.216-1.2,4.447-2.372,6.706-3.491l-.784-1.586c-2.245,1.112-4.463,2.275-6.667,3.467a8.417,8.417,0,0,0-7.2-4.084,7.864,7.864,0,0,0-.818.047,11.9,11.9,0,0,0-8.262-6.751,12.078,12.078,0,0,0-3.9-.221,11.852,11.852,0,0,0-3.675,1.012,12.045,12.045,0,0,0-5.876,5.822,4.226,4.226,0,0,0-5.175,2.687,7.206,7.206,0,0,0-5.785,4.021,7.144,7.144,0,0,0,6.44,10.249m-4.846-9.481a5.361,5.361,0,0,1,4.886-3.049h.761l.117-.75a2.472,2.472,0,0,1,1.84-2,2.422,2.422,0,0,1,1.8.25l.9.513.364-.972a10.239,10.239,0,0,1,5.308-5.676,10.052,10.052,0,0,1,3.125-.862,10.339,10.339,0,0,1,3.324.188,10.137,10.137,0,0,1,7.267,6.306l.529.659.731-.143a6.549,6.549,0,0,1,6.6,3.094,6.587,6.587,0,0,1,.722,1.622c.021.067.052.128.07.2a6.8,6.8,0,0,1,.214,1.675,6.672,6.672,0,0,1-6.664,6.664H558.416a5.377,5.377,0,0,1-4.847-7.711"/>
        <path id="Trazado_1224" data-name="Trazado 1224" d="M777.723,242.97l12.209,12.214,17.145-17.145v8.348h1.77V235.018H797.478v1.77h8.348l-15.894,15.893-12.209-12.214L761.089,257.1l1.252,1.251Z"/>
        <rect id="Rectángulo_187" data-name="Rectángulo 187" width="3.145" height="10.549" transform="translate(189.872 126.564)" fill="#c2e1ff"/>
        <rect id="Rectángulo_188" data-name="Rectángulo 188" width="3.141" height="13.412" transform="translate(199.181 123.701)" fill="#ffd84f"/>
        <rect id="Rectángulo_189" data-name="Rectángulo 189" width="3.145" height="6.697" transform="translate(180.565 130.416)" fill="#fff394"/>
        <path id="Trazado_1225" data-name="Trazado 1225" d="M196.916,138.808H170.2v2.057h41.625v-2.057Z" fill="#fff394"/>
        <path id="Trazado_1226" data-name="Trazado 1226" d="M197.409,112.88H170.2v3.953h41.625V112.88Z" fill="#fff394"/>
        <rect id="Rectángulo_190" data-name="Rectángulo 190" width="17.437" height="1.696" transform="translate(176.427 120.745)"/>
        <rect id="Rectángulo_191" data-name="Rectángulo 191" width="8.716" height="1.696" transform="translate(176.426 124.867)"/>
        <path id="Trazado_1227" data-name="Trazado 1227" d="M197.1,142.56h1.442l8.944,8.946,1.2-1.2-7.746-7.748h12.58v-5.447H209.3V118.529h4.218v-7.344H168.5v7.344h3.951v18.584H168.5v5.447h12.583l-7.749,7.748,1.2,1.2,8.948-8.946H197.1Zm-26.9-25.726v-3.953h41.625v3.953Zm3.951,1.695H207.6v18.584h-3.586V122.006h-6.531v15.107h-2.774V124.868h-6.536v12.245H185.4v-8.394H178.87v8.394h-4.722Zm28.174,18.584h-3.141V123.7h3.141Zm-9.306,0h-3.145V126.564h3.145Zm-9.306,0h-3.145v-6.7h3.145ZM170.2,140.865v-2.057h41.625v2.057H170.2Z"/>
        <rect id="Rectángulo_192" data-name="Rectángulo 192" width="12.876" height="4.908" transform="translate(178.36 252.608)" fill="#ffd84f"/>
        <path id="Trazado_1228" data-name="Trazado 1228" d="M159.828,263.475h49.94v-4.19h-49.94Z" fill="#fff394"/>
        <path id="Trazado_1229" data-name="Trazado 1229" d="M195.242,223.533H174.067v5.2h21.459v-5.2Z" fill="#fff394"/>
        <path id="Trazado_1230" data-name="Trazado 1230" d="M209.411,212.53H159.828v38.31h49.94V212.53Zm-8.456,36.881h-2.573v-1.769h2.573Zm4.7,0h-2.576v-1.769h2.576Zm.127-3.039H163.82V217h41.961v29.375Z" fill="#fff394"/>
        <path id="Trazado_1231" data-name="Trazado 1231" d="M201.692,218.766h-36.1V244.6h38.424V218.766Zm-5.282,22.842H173.183v-1.769H196.41Zm0-3.373H173.184v-1.767H196.41Zm0-3.366H173.184V233.1H196.41Zm.885-12.79V230.5h-25v-8.735h25Z" fill="#c2e1ff"/>
        <path id="Trazado_1232" data-name="Trazado 1232" d="M158.059,210.762v41.846h18.532v4.908H158.059v7.727h53.478v-7.727H193v-4.908h18.533V210.762H158.059Zm51.709,48.522v4.191h-49.94v-4.191h49.94Zm-18.532-1.768H178.36v-4.908h12.876Zm18.532-6.676h-49.94V212.53h49.94v38.31Z"/>
        <path id="Trazado_1233" data-name="Trazado 1233" d="M163.82,217v29.375h41.961V217H163.82Zm40.192,1.769V244.6H165.588V218.766h38.424Z"/>
        <rect id="Rectángulo_193" data-name="Rectángulo 193" width="2.576" height="1.769" transform="translate(203.078 247.642)"/>
        <rect id="Rectángulo_194" data-name="Rectángulo 194" width="2.573" height="1.769" transform="translate(198.381 247.642)"/>
        <path id="Trazado_1234" data-name="Trazado 1234" d="M172.3,230.5h25v-8.736h-25Zm1.769-6.968h21.459v5.2H174.067Z"/>
        <rect id="Rectángulo_195" data-name="Rectángulo 195" width="23.227" height="1.769" transform="translate(173.183 239.84)"/>
        <path id="Trazado_1235" data-name="Trazado 1235" d="M180.549,233.1h-7.366v1.769h23.226V233.1h-15.86Z"/>
        <path id="Trazado_1236" data-name="Trazado 1236" d="M174.6,236.468h-1.417v1.768H196.41v-1.768H174.6Z"/>
        <path id="Trazado_1237" data-name="Trazado 1237" d="M419.668,241.928H413.16V248.6h6.958v-6.674Z" fill="#ffd84f"/>
        <path id="Trazado_1238" data-name="Trazado 1238" d="M427.782,224.426H407.935a2.56,2.56,0,0,0-2.555,2.558v39.4a2.559,2.559,0,0,0,2.555,2.555h19.847a2.558,2.558,0,0,0,2.554-2.555v-39.4a2.559,2.559,0,0,0-2.554-2.558M417.86,265.2a1.87,1.87,0,1,1,1.869-1.869,1.871,1.871,0,0,1-1.869,1.869m10.245-6.968H407.616V226.869h20.489Z" fill="#fff394"/>
        <path id="Trazado_1239" data-name="Trazado 1239" d="M417.86,261.453a1.87,1.87,0,1,0,1.869,1.872,1.872,1.872,0,0,0-1.869-1.872"/>
        <rect id="Rectángulo_196" data-name="Rectángulo 196" width="10.55" height="1.769" transform="translate(411.366 232.101)"/>
        <path id="Trazado_1240" data-name="Trazado 1240" d="M421.887,240.161h-10.5v10.21h10.5v-10.21Zm-1.769,8.441H413.16v-6.674h6.958V248.6Z"/>
        <path id="Trazado_1241" data-name="Trazado 1241" d="M426.154,222.485l.608.173H407.935a4.328,4.328,0,0,0-4.324,4.326v39.4a4.309,4.309,0,0,0,2.352,3.825l-.376.648,1.525.9.618-1.065c.069,0,.134.02.2.02h19.846a4.327,4.327,0,0,0,4.324-4.323v-39.4a4.32,4.32,0,0,0-4.17-4.311m2.4,4.311v39.4a2.558,2.558,0,0,1-2.555,2.555H407.935a2.558,2.558,0,0,1-2.555-2.555v-39.4a2.56,2.56,0,0,1,2.555-2.558h19.846a2.56,2.56,0,0,1,2.555,2.558"/>
        <path id="Trazado_1242" data-name="Trazado 1242" d="M424.933,226.868H407.615v31.359h20.49V226.868h-3.172Zm1.4,29.591H409.383V228.637h16.953Z"/>
        <path id="Trazado_1243" data-name="Trazado 1243" d="M421.916,237.882v-1.769h-10.55v1.769h10.55Z"/>
        <path id="Trazado_1244" data-name="Trazado 1244" d="M126.558,118.226A51.553,51.553,0,1,1,75,66.673,51.553,51.553,0,0,1,126.558,118.226Z" fill="none" stroke="#3e145e" stroke-miterlimit="10" stroke-width="1.5"/>
        <path id="Trazado_1245" data-name="Trazado 1245" d="M909.936,142.655A51.553,51.553,0,1,1,858.382,91.1,51.553,51.553,0,0,1,909.936,142.655Z" fill="none" stroke="#3e145e" stroke-miterlimit="10" stroke-width="1.5"/>
        <path id="Trazado_1246" data-name="Trazado 1246" d="M344.551,122.993a40.938,40.938,0,1,1-40.938-40.938A40.939,40.939,0,0,1,344.551,122.993Z" fill="none" stroke="#3e145e" stroke-miterlimit="10" stroke-width="1.5"/>
        <path id="Trazado_1247" data-name="Trazado 1247" d="M690.995,84.107a40.939,40.939,0,1,1-40.938-40.938A40.939,40.939,0,0,1,690.995,84.107Z" fill="none" stroke="#3e145e" stroke-miterlimit="10" stroke-width="1.5"/>
        <path id="Trazado_1248" data-name="Trazado 1248" d="M458.8,244.534A40.938,40.938,0,1,1,417.859,203.6,40.939,40.939,0,0,1,458.8,244.534Z" fill="none" stroke="#3e145e" stroke-miterlimit="10" stroke-width="1.5"/>
        <path id="Trazado_1249" data-name="Trazado 1249" d="M216.377,33.457A31.351,31.351,0,1,1,185.026,2.106,31.351,31.351,0,0,1,216.377,33.457Z" fill="none" stroke="#3e145e" stroke-miterlimit="10" stroke-width="1.5"/>
        <path id="Trazado_1250" data-name="Trazado 1250" d="M222.229,128.343a31.351,31.351,0,1,1-31.351-31.351A31.351,31.351,0,0,1,222.229,128.343Z" fill="none" stroke="#3e145e" stroke-miterlimit="10" stroke-width="1.5"/>
        <path id="Trazado_1251" data-name="Trazado 1251" d="M606.927,164.9a31.35,31.35,0,1,1-31.351-31.351A31.351,31.351,0,0,1,606.927,164.9Z" fill="none" stroke="#3e145e" stroke-miterlimit="10" stroke-width="1.5"/>
        <path id="Trazado_1252" data-name="Trazado 1252" d="M744.089,162.136a31.35,31.35,0,1,1-31.351-31.351A31.351,31.351,0,0,1,744.089,162.136Z" fill="none" stroke="#3e145e" stroke-miterlimit="10" stroke-width="1.5"/>
        <path id="Trazado_1253" data-name="Trazado 1253" d="M670.092,247.495a31.35,31.35,0,1,1-31.351-31.351A31.351,31.351,0,0,1,670.092,247.495Z" fill="none" stroke="#3e145e" stroke-miterlimit="10" stroke-width="1.5"/>
        <path id="Trazado_1254" data-name="Trazado 1254" d="M818.353,247.495A31.351,31.351,0,1,1,787,216.144,31.351,31.351,0,0,1,818.353,247.495Z" fill="none" stroke="#3e145e" stroke-miterlimit="10" stroke-width="1.5"/>
        <path id="Trazado_1255" data-name="Trazado 1255" d="M226.628,237.974a40.938,40.938,0,1,1-40.938-40.938A40.939,40.939,0,0,1,226.628,237.974Z" fill="none" stroke="#3e145e" stroke-miterlimit="10" stroke-width="1.5"/>
        <rect id="Rectángulo_197" data-name="Rectángulo 197" width="2.304" height="1.835" transform="translate(479.76 229.304)"/>
        <rect id="Rectángulo_198" data-name="Rectángulo 198" width="2.305" height="1.835" transform="translate(484.829 229.304)"/>
        <rect id="Rectángulo_199" data-name="Rectángulo 199" width="2.304" height="1.835" transform="translate(489.899 229.304)"/>
        <rect id="Rectángulo_200" data-name="Rectángulo 200" width="2.305" height="1.835" transform="translate(494.967 229.304)"/>
        <path id="Trazado_1256" data-name="Trazado 1256" d="M503.662,160.9v-3.392h-1.836v4.946h1.836Z"/>
        <path id="Trazado_1257" data-name="Trazado 1257" d="M503.722,209.085H494.5v-9.221h-1.836v9.221h-9.219v1.835h9.219v9.221H494.5V210.92h9.22Z"/>
      </g>
    </g>
  </g>
</svg>
