<svg id="Grupo_259" data-name="Grupo 259" xmlns="http://www.w3.org/2000/svg" xmlns:xlink="http://www.w3.org/1999/xlink" width="508.211" height="308.234" viewBox="0 0 508.211 308.234">
  <defs>
    <clipPath id="clip-path">
      <rect id="Rectángulo_308" data-name="Rectángulo 308" width="508.211" height="308.234" fill="none"/>
    </clipPath>
    <clipPath id="clip-path-3">
      <rect id="Rectángulo_287" data-name="Rectángulo 287" width="2.401" height="4.085" transform="translate(272.878 76.165)" fill="none"/>
    </clipPath>
    <clipPath id="clip-path-4">
      <rect id="Rectángulo_288" data-name="Rectángulo 288" width="2.4" height="4.082" transform="translate(324.99 77.396)" fill="none"/>
    </clipPath>
    <clipPath id="clip-path-5">
      <rect id="Rectángulo_289" data-name="Rectángulo 289" width="8.156" height="2.427" transform="translate(296.094 67.658)" fill="none"/>
    </clipPath>
    <clipPath id="clip-path-6">
      <rect id="Rectángulo_291" data-name="Rectángulo 291" width="1.794" height="27.864" transform="translate(314.811 187.421)" fill="none"/>
    </clipPath>
    <clipPath id="clip-path-7">
      <rect id="Rectángulo_292" data-name="Rectángulo 292" width="1.794" height="21.162" transform="translate(307.709 185.505)" fill="none"/>
    </clipPath>
    <clipPath id="clip-path-8">
      <rect id="Rectángulo_293" data-name="Rectángulo 293" width="1.795" height="19.246" transform="translate(300.465 187.421)" fill="none"/>
    </clipPath>
    <clipPath id="clip-path-9">
      <rect id="Rectángulo_294" data-name="Rectángulo 294" width="1.793" height="14.937" transform="translate(293.223 193.168)" fill="none"/>
    </clipPath>
    <clipPath id="clip-path-10">
      <rect id="Rectángulo_295" data-name="Rectángulo 295" width="8.485" height="11.333" transform="translate(320.367 211.77)" fill="none"/>
    </clipPath>
    <clipPath id="clip-path-11">
      <rect id="Rectángulo_297" data-name="Rectángulo 297" width="10.333" height="1.711" transform="translate(192.055 120.221)" fill="none"/>
    </clipPath>
    <clipPath id="clip-path-12">
      <rect id="Rectángulo_305" data-name="Rectángulo 305" width="9.678" height="1.708" transform="translate(405.336 74.851)" fill="none"/>
    </clipPath>
    <clipPath id="clip-path-13">
      <rect id="Rectángulo_306" data-name="Rectángulo 306" width="1.703" height="9.153" transform="translate(405.336 53.57)" fill="none"/>
    </clipPath>
  </defs>
  <g id="Grupo_258" data-name="Grupo 258" clip-path="url(#clip-path)">
    <g id="Grupo_257" data-name="Grupo 257">
      <g id="Grupo_256" data-name="Grupo 256" clip-path="url(#clip-path)">
        <circle id="Elipse_6" data-name="Elipse 6" cx="40.397" cy="40.397" r="40.397" transform="translate(157.826 105.02)" fill="none" stroke="#3e145e" stroke-miterlimit="10" stroke-width="1.5"/>
        <path id="Trazado_1645" data-name="Trazado 1645" d="M345.167,79.845a40.4,40.4,0,1,1-40.4-40.4A40.4,40.4,0,0,1,345.167,79.845Z" fill="none" stroke="#3e145e" stroke-miterlimit="10" stroke-width="1.5"/>
        <path id="Trazado_1646" data-name="Trazado 1646" d="M455.023,79.845a40.4,40.4,0,1,1-40.4-40.4A40.4,40.4,0,0,1,455.023,79.845Z" fill="none" stroke="#3e145e" stroke-miterlimit="10" stroke-width="1.5"/>
        <path id="Trazado_1647" data-name="Trazado 1647" d="M345.167,211.485a40.4,40.4,0,1,1-40.4-40.4A40.4,40.4,0,0,1,345.167,211.485Z" fill="none" stroke="#3e145e" stroke-miterlimit="10" stroke-width="1.5"/>
        <path id="Trazado_1648" data-name="Trazado 1648" d="M453.618,211.485a40.4,40.4,0,1,1-40.4-40.4A40.4,40.4,0,0,1,453.618,211.485Z" fill="none" stroke="#3e145e" stroke-miterlimit="10" stroke-width="1.5"/>
        <path id="Trazado_1649" data-name="Trazado 1649" d="M269.648,77.463c.476,2.7,3.282,2.045,6.777,1.43s9.323.519,8.849-2.177-6.664-5.868-10.158-5.251-5.944,3.3-5.468,6" fill="#e35e4f"/>
        <path id="Trazado_1650" data-name="Trazado 1650" d="M324.615,76.644c-.476,2.7,5.354,1.562,8.849,2.177s6.3,1.266,6.776-1.43-1.973-5.383-5.468-6-9.681,2.556-10.157,5.252" fill="#e35e4f"/>
        <rect id="Rectángulo_286" data-name="Rectángulo 286" width="10.961" height="20.337" transform="translate(299.464 93.051)" fill="#e35e4f"/>
        <path id="Trazado_1651" data-name="Trazado 1651" d="M309.643,114.105c0-.736-2.1-3.016-4.7-3.016s-4.7,2.28-4.7,3.016,2.106-.351,4.7-.351,4.7,1.086,4.7.351" fill="#e35e4f"/>
        <path id="Trazado_1652" data-name="Trazado 1652" d="M301.076,114.663a.971.971,0,0,1-1.934.169L297.381,94.7a.97.97,0,0,1,1.933-.169Z" fill="#f9aa89"/>
        <path id="Trazado_1653" data-name="Trazado 1653" d="M310.767,114.852a.971.971,0,1,1-1.934-.169l1.761-20.131a.971.971,0,1,1,1.934.169Z" fill="#f9aa89"/>
        <path id="Trazado_1654" data-name="Trazado 1654" d="M304.944,66.563c-7.315,0-13.245,3.188-13.245,10.5,0,4.346,4.13,9.495,5.338,13.347a8.776,8.776,0,0,1,.251,2.638,12.939,12.939,0,0,0,2.555,7.556c.775,1,1.608,2.13,2.76,2.306,1.319.2,2.341-1.305,2.341-2.676,0,1.371,1.022,2.875,2.341,2.676,1.165-.177,2.005-1.326,2.782-2.338a12.919,12.919,0,0,0,2.532-7.524,8.712,8.712,0,0,1,.254-2.638c1.205-3.852,5.335-9,5.335-13.347,0-7.315-5.93-10.5-13.244-10.5" fill="#f9aa89"/>
        <path id="Trazado_1655" data-name="Trazado 1655" d="M320.017,72.48c0-1.862-6.749,1.531-15.073,1.531S289.87,70.618,289.87,72.48c0,1.629,11.707,5.057,11.707,6.586,0,5.464,1.506,10.876,3.367,10.876s3.37-5.412,3.37-10.876c0-1.529,11.7-4.957,11.7-6.586" fill="#e35e4f"/>
        <path id="Trazado_1656" data-name="Trazado 1656" d="M306.087,95.05c0-3.594-.512-6.508-1.143-6.508S303.8,91.456,303.8,95.05s.512,6.508,1.141,6.508,1.143-2.914,1.143-6.508" fill="#e35e4f"/>
        <path id="Trazado_1657" data-name="Trazado 1657" d="M338.853,77.177c-.6-3.372-4.1-2.557-8.474-1.787s-7.94,1.206-7.346,4.576,4.617,5.481,8.984,4.709,7.43-4.126,6.836-7.5" fill="#ffd8bc"/>
        <path id="Trazado_1658" data-name="Trazado 1658" d="M286.855,80.037c.6-3.371-2.979-3.807-7.349-4.576s-7.875-1.584-8.468,1.787,2.463,6.727,6.832,7.5,8.39-1.339,8.985-4.709" fill="#ffd8bc"/>
        <path id="Trazado_1659" data-name="Trazado 1659" d="M294.235,75.2a1.328,1.328,0,0,1-.2-.014,21.233,21.233,0,0,1-11.3-5.595,4,4,0,0,0-4.1-1.268c-1.022.414-1.586,1.529-1.586,3.142a1.485,1.485,0,0,1-2.97,0c0-2.86,1.255-5.007,3.441-5.893a6.9,6.9,0,0,1,7.344,1.949c3.8,3.915,9.509,4.714,9.566,4.723a1.484,1.484,0,0,1-.194,2.956" fill="#e35e4f"/>
        <path id="Trazado_1660" data-name="Trazado 1660" d="M315.653,75.2a1.485,1.485,0,0,1-.2-2.956c.058-.009,5.787-.83,9.567-4.723a6.9,6.9,0,0,1,7.344-1.949c2.186.886,3.442,3.033,3.442,5.893a1.485,1.485,0,0,1-2.97,0c0-1.613-.564-2.728-1.587-3.142a3.994,3.994,0,0,0-4.1,1.268,21.239,21.239,0,0,1-11.3,5.595,1.347,1.347,0,0,1-.2.014" fill="#e35e4f"/>
        <g id="Grupo_225" data-name="Grupo 225" opacity="0.5">
          <g id="Grupo_224" data-name="Grupo 224">
            <g id="Grupo_223" data-name="Grupo 223" clip-path="url(#clip-path-3)">
              <path id="Trazado_1661" data-name="Trazado 1661" d="M275.279,78.208c0-1.128-.537-2.042-1.2-2.042s-1.2.914-1.2,2.042.537,2.042,1.2,2.042,1.2-.916,1.2-2.042" fill="#fff"/>
            </g>
          </g>
        </g>
        <g id="Grupo_228" data-name="Grupo 228" opacity="0.5">
          <g id="Grupo_227" data-name="Grupo 227">
            <g id="Grupo_226" data-name="Grupo 226" clip-path="url(#clip-path-4)">
              <path id="Trazado_1662" data-name="Trazado 1662" d="M327.39,79.436c0-1.126-.537-2.04-1.2-2.04s-1.2.914-1.2,2.04.538,2.042,1.2,2.042,1.2-.913,1.2-2.042" fill="#fff"/>
            </g>
          </g>
        </g>
        <g id="Grupo_231" data-name="Grupo 231" opacity="0.5">
          <g id="Grupo_230" data-name="Grupo 230">
            <g id="Grupo_229" data-name="Grupo 229" clip-path="url(#clip-path-5)">
              <path id="Trazado_1663" data-name="Trazado 1663" d="M300.352,69.7c2.25-.488,3.992-1.256,3.894-1.716s-2.005-.435-4.253.052S296,69.3,296.1,69.755s2.005.437,4.254-.052" fill="#fff"/>
            </g>
          </g>
        </g>
        <rect id="Rectángulo_290" data-name="Rectángulo 290" width="20.593" height="9.101" transform="translate(293.438 232.002)" fill="#bfafdd"/>
        <path id="Trazado_1664" data-name="Trazado 1664" d="M291.763,240.145a.959.959,0,0,1,.956-.958H314.75a.958.958,0,1,1,0,1.916H292.719a.958.958,0,0,1-.956-.958" fill="#bfafdd"/>
        <path id="Trazado_1665" data-name="Trazado 1665" d="M311.278,188.582a3.113,3.113,0,0,1,6.227,0v21.394a3.113,3.113,0,0,1-6.227,0Z" fill="#bfafdd"/>
        <path id="Trazado_1666" data-name="Trazado 1666" d="M293.079,191.215a3.114,3.114,0,0,1,3.113,3.114v13.492h.878V188.582a3.113,3.113,0,0,1,6.226,0v17.8h8.461a5.748,5.748,0,0,1,5.748,5.748V229.7a5.749,5.749,0,0,1-5.748,5.748H295.715a5.748,5.748,0,0,1-5.749-5.748V194.329a3.114,3.114,0,0,1,3.113-3.114" fill="#bfafdd"/>
        <path id="Trazado_1667" data-name="Trazado 1667" d="M304.214,186.666a3.113,3.113,0,0,1,6.226,0V208.06a3.113,3.113,0,0,1-6.226,0Z" fill="#bfafdd"/>
        <path id="Trazado_1668" data-name="Trazado 1668" d="M323.815,210.18a3.306,3.306,0,0,1,5.371,3.855l-12.48,18.589c-1.065,1.483-3.888,1.689-5.373.627s-2.443-5.39-1.378-6.875Z" fill="#bfafdd"/>
        <g id="Grupo_234" data-name="Grupo 234" opacity="0.5">
          <g id="Grupo_233" data-name="Grupo 233">
            <g id="Grupo_232" data-name="Grupo 232" clip-path="url(#clip-path-6)">
              <path id="Trazado_1669" data-name="Trazado 1669" d="M314.811,214.343a.943.943,0,0,0,.944.942h-.1a.943.943,0,0,0,.945-.942V188.364a.944.944,0,0,0-.945-.942h.1a.943.943,0,0,0-.944.942Z" fill="#fff"/>
            </g>
          </g>
        </g>
        <g id="Grupo_237" data-name="Grupo 237" opacity="0.5">
          <g id="Grupo_236" data-name="Grupo 236">
            <g id="Grupo_235" data-name="Grupo 235" clip-path="url(#clip-path-7)">
              <path id="Trazado_1670" data-name="Trazado 1670" d="M307.709,205.721a.946.946,0,0,0,.944.946h-.093a.946.946,0,0,0,.943-.946V186.449a.944.944,0,0,0-.943-.944h.093a.944.944,0,0,0-.944.944Z" fill="#fff"/>
            </g>
          </g>
        </g>
        <g id="Grupo_240" data-name="Grupo 240" opacity="0.5">
          <g id="Grupo_239" data-name="Grupo 239">
            <g id="Grupo_238" data-name="Grupo 238" clip-path="url(#clip-path-8)">
              <path id="Trazado_1671" data-name="Trazado 1671" d="M300.465,205.721a.947.947,0,0,0,.944.946h-.094a.946.946,0,0,0,.945-.946V188.364a.944.944,0,0,0-.945-.943h.094a.944.944,0,0,0-.944.943Z" fill="#fff"/>
            </g>
          </g>
        </g>
        <g id="Grupo_243" data-name="Grupo 243" opacity="0.5">
          <g id="Grupo_242" data-name="Grupo 242">
            <g id="Grupo_241" data-name="Grupo 241" clip-path="url(#clip-path-9)">
              <path id="Trazado_1672" data-name="Trazado 1672" d="M293.223,207.161a.944.944,0,0,0,.944.944h-.1a.944.944,0,0,0,.944-.944V194.112a.946.946,0,0,0-.944-.944h.1a.946.946,0,0,0-.944.944Z" fill="#fff"/>
            </g>
          </g>
        </g>
        <g id="Grupo_246" data-name="Grupo 246" opacity="0.5">
          <g id="Grupo_245" data-name="Grupo 245">
            <g id="Grupo_244" data-name="Grupo 244" clip-path="url(#clip-path-10)">
              <path id="Trazado_1673" data-name="Trazado 1673" d="M320.539,221.67a.944.944,0,0,0,.229,1.315l-.078-.052a.946.946,0,0,0,1.316-.231l6.675-9.5a.948.948,0,0,0-.229-1.317l.077.055a.945.945,0,0,0-1.315.23Z" fill="#fff"/>
            </g>
          </g>
        </g>
        <path id="Trazado_1674" data-name="Trazado 1674" d="M216.75,169.368a3.524,3.524,0,0,1-3.523,3.523H183.222a3.525,3.525,0,0,1-3.527-3.523V124.745a3.524,3.524,0,0,1,3.526-3.525h30.005a3.524,3.524,0,0,1,3.522,3.525Z" fill="#594d4d"/>
        <path id="Trazado_1675" data-name="Trazado 1675" d="M214.4,165.443a3.527,3.527,0,0,1-3.525,3.526h-25.3a3.527,3.527,0,0,1-3.526-3.526V127.1a3.526,3.526,0,0,1,3.527-3.523h25.3A3.525,3.525,0,0,1,214.4,127.1Z" fill="#e1d3f8"/>
        <path id="Rectángulo_296" data-name="Rectángulo 296" d="M1.882,0h9.976a1.88,1.88,0,0,1,1.88,1.88v3.5a1.88,1.88,0,0,1-1.88,1.88H1.881A1.881,1.881,0,0,1,0,5.379v-3.5A1.882,1.882,0,0,1,1.882,0Z" transform="translate(191.355 119.16)" fill="#bfafdd"/>
        <g id="Grupo_249" data-name="Grupo 249" opacity="0.5">
          <g id="Grupo_248" data-name="Grupo 248">
            <g id="Grupo_247" data-name="Grupo 247" clip-path="url(#clip-path-11)">
              <path id="Trazado_1676" data-name="Trazado 1676" d="M201.487,120.221a.9.9,0,0,1,.9.9v-.09a.9.9,0,0,1-.9.9h-8.531a.9.9,0,0,1-.9-.9v.089a.9.9,0,0,1,.9-.9Z" fill="#fff"/>
            </g>
          </g>
        </g>
        <path id="Trazado_1677" data-name="Trazado 1677" d="M211.688,133.267a.9.9,0,0,1,.9.9v-.089a.9.9,0,0,1-.9.9H195.31a.9.9,0,0,1-.9-.9l0,.089a.9.9,0,0,1,.9-.9Z" fill="#bfafdd"/>
        <path id="Rectángulo_298" data-name="Rectángulo 298" d="M1.483,0H5.317A1.485,1.485,0,0,1,6.8,1.485V5.316A1.484,1.484,0,0,1,5.317,6.8H1.484A1.484,1.484,0,0,1,0,5.316V1.483A1.483,1.483,0,0,1,1.483,0Z" transform="translate(185.567 129.867)" fill="#bfafdd"/>
        <path id="Rectángulo_299" data-name="Rectángulo 299" d="M.307,0H4.141a.306.306,0,0,1,.306.306V4.139a.308.308,0,0,1-.308.308H.307A.307.307,0,0,1,0,4.14V.307A.307.307,0,0,1,.307,0Z" transform="translate(186.744 131.044)" fill="#c2f2ec"/>
        <path id="Trazado_1678" data-name="Trazado 1678" d="M189.866,130.053a.756.756,0,0,1,.966-.452l-.072-.026a.752.752,0,0,1,.45.965l-1.54,4.236a.755.755,0,0,1-.966.45l.071.026a.755.755,0,0,1-.452-.966Z" fill="#cc3b29"/>
        <path id="Trazado_1679" data-name="Trazado 1679" d="M187.023,132.7a.754.754,0,0,1,.277-1.028l-.066.038a.752.752,0,0,1,1.029.274l1.27,2.2a.753.753,0,0,1-.275,1.029l.065-.039a.751.751,0,0,1-1.029-.275Z" fill="#cc3b29"/>
        <path id="Trazado_1680" data-name="Trazado 1680" d="M211.687,142.87a.9.9,0,0,1,.9.9v-.09a.9.9,0,0,1-.9.9H195.31a.9.9,0,0,1-.9-.9v.09a.9.9,0,0,1,.9-.9Z" fill="#bfafdd"/>
        <path id="Rectángulo_300" data-name="Rectángulo 300" d="M1.484,0H5.316A1.486,1.486,0,0,1,6.8,1.486V5.318A1.483,1.483,0,0,1,5.319,6.8H1.484A1.484,1.484,0,0,1,0,5.317V1.484A1.484,1.484,0,0,1,1.484,0Z" transform="translate(185.566 139.47)" fill="#bfafdd"/>
        <path id="Rectángulo_301" data-name="Rectángulo 301" d="M.308,0H4.141a.305.305,0,0,1,.305.305V4.14a.307.307,0,0,1-.307.307H.308A.308.308,0,0,1,0,4.139V.308A.308.308,0,0,1,.308,0Z" transform="translate(186.744 140.647)" fill="#c2f2ec"/>
        <path id="Trazado_1681" data-name="Trazado 1681" d="M189.867,139.655a.751.751,0,0,1,.964-.449l-.071-.026a.753.753,0,0,1,.45.965l-1.541,4.234a.752.752,0,0,1-.965.451l.07.025a.753.753,0,0,1-.451-.964Z" fill="#cc3b29"/>
        <path id="Trazado_1682" data-name="Trazado 1682" d="M187.023,142.3a.756.756,0,0,1,.277-1.03l-.067.037a.755.755,0,0,1,1.03.275l1.269,2.2a.757.757,0,0,1-.274,1.031l.065-.039a.753.753,0,0,1-1.029-.277Z" fill="#cc3b29"/>
        <path id="Trazado_1683" data-name="Trazado 1683" d="M211.688,152.472a.9.9,0,0,1,.9.9v-.091a.9.9,0,0,1-.9.9H195.31a.9.9,0,0,1-.9-.9v.091a.9.9,0,0,1,.9-.9Z" fill="#bfafdd"/>
        <path id="Rectángulo_302" data-name="Rectángulo 302" d="M1.481,0H5.317A1.484,1.484,0,0,1,6.8,1.484V5.317A1.482,1.482,0,0,1,5.319,6.8H1.485A1.485,1.485,0,0,1,0,5.314V1.481A1.481,1.481,0,0,1,1.481,0Z" transform="translate(185.567 149.073)" fill="#bfafdd"/>
        <path id="Trazado_1684" data-name="Trazado 1684" d="M187.051,154.7a.306.306,0,0,1-.307-.306v-3.836a.3.3,0,0,1,.307-.3h3.833a.3.3,0,0,1,.307.3v3.836a.306.306,0,0,1-.307.306Z" fill="#c2f2ec"/>
        <path id="Trazado_1685" data-name="Trazado 1685" d="M189.866,149.259a.751.751,0,0,1,.966-.448l-.072-.028a.753.753,0,0,1,.45.965l-1.541,4.237a.752.752,0,0,1-.965.448l.07.027a.755.755,0,0,1-.45-.966Z" fill="#cc3b29"/>
        <path id="Trazado_1686" data-name="Trazado 1686" d="M187.024,151.9a.754.754,0,0,1,.276-1.029l-.066.038a.753.753,0,0,1,1.029.273l1.27,2.2a.754.754,0,0,1-.275,1.029l.064-.035a.752.752,0,0,1-1.027-.278Z" fill="#cc3b29"/>
        <path id="Trazado_1687" data-name="Trazado 1687" d="M211.687,162.077a.9.9,0,0,1,.9.9v-.089a.9.9,0,0,1-.9.9H195.31a.9.9,0,0,1-.9-.9v.089a.9.9,0,0,1,.9-.9Z" fill="#bfafdd"/>
        <path id="Rectángulo_303" data-name="Rectángulo 303" d="M1.482,0H5.317A1.485,1.485,0,0,1,6.8,1.485V5.317A1.483,1.483,0,0,1,5.319,6.8H1.484A1.484,1.484,0,0,1,0,5.316V1.482A1.482,1.482,0,0,1,1.482,0Z" transform="translate(185.566 158.677)" fill="#bfafdd"/>
        <path id="Rectángulo_304" data-name="Rectángulo 304" d="M.308,0H4.139a.307.307,0,0,1,.307.307V4.139a.307.307,0,0,1-.307.307H.307A.307.307,0,0,1,0,4.139V.308A.308.308,0,0,1,.308,0Z" transform="translate(186.744 159.855)" fill="#c2f2ec"/>
        <path id="Trazado_1688" data-name="Trazado 1688" d="M189.866,158.863a.753.753,0,0,1,.966-.451l-.072-.026a.752.752,0,0,1,.45.964l-1.54,4.237a.755.755,0,0,1-.966.45l.071.025a.755.755,0,0,1-.452-.966Z" fill="#cc3b29"/>
        <path id="Trazado_1689" data-name="Trazado 1689" d="M187.023,161.508a.754.754,0,0,1,.277-1.028l-.066.038a.754.754,0,0,1,1.029.274l1.27,2.2a.753.753,0,0,1-.275,1.029l.064-.037a.752.752,0,0,1-1.028-.277Z" fill="#cc3b29"/>
        <path id="Trazado_1690" data-name="Trazado 1690" d="M123.294,95.371c6.146,4.958,13.93,14.829,15.813,17.355s11.24,59.43,12.836,63.078,22.973,33.414,21.925,35.235-11.775,13.021-16.93,12.6S132.87,189.6,129.22,185.4s-5.926-90.031-5.926-90.031" fill="#fff"/>
        <path id="Trazado_1691" data-name="Trazado 1691" d="M99.135,81.4c-12.354-.428-30.994,22.453-33.545,32.158S77.621,160.78,76.509,171.6s-4.963,21.027-2.44,25.359,28.824,12.627,38.821,11.864,18.6-14.553,20.918-17.584-1.065-29.736-.514-31.441,9.4-8.537,8-17.7-12.482-37.758-15.541-41.85S111.142,81.82,99.135,81.4" fill="#bdbfe1"/>
        <path id="Trazado_1692" data-name="Trazado 1692" d="M118.5,155.783c-4.506,1.523-8.946,4.007-13.655,4.785-5.65.935-11.261-1.526-16.2-4a.126.126,0,0,0-.134.214c4.411,2.912,9.219,5.622,14.688,5.354,5.348-.261,10.877-3.367,15.556-5.683.361-.179.14-.807-.256-.673" fill="#2e2766"/>
        <path id="Trazado_1693" data-name="Trazado 1693" d="M127.722,157.61a30.677,30.677,0,0,0-13.354,2.357c-.209.082-.075.433.139.368a51.748,51.748,0,0,1,13.191-2.022.352.352,0,0,0,.024-.7" fill="#2e2766"/>
        <path id="Trazado_1694" data-name="Trazado 1694" d="M75.5,178.411s28.862,9.89,39.236,8.913,19.715-8.272,19.715-8.272,7.929,31.183,9.76,42.311,5.935,63.34,5.871,65.184-13.881,16.985-37.118,16.182S55.42,290.292,53.3,287.634s10.956-71.263,14.341-83.7S75.5,178.411,75.5,178.411" fill="#ff4f5b"/>
        <path id="Trazado_1695" data-name="Trazado 1695" d="M75.5,178.411s28.862,9.89,39.236,8.913,19.715-8.272,19.715-8.272,7.929,31.183,9.76,42.311,5.935,63.34,5.871,65.184-13.881,16.985-37.118,16.182S55.42,290.292,53.3,287.634s10.956-71.263,14.341-83.7S75.5,178.411,75.5,178.411Z" fill="none" stroke="#000" stroke-miterlimit="10" stroke-width="1"/>
        <path id="Trazado_1696" data-name="Trazado 1696" d="M103,306.456c.2,4.438-27.193-.437-36.445-3.711s-17.131-9.957-18.027-12.691c-.88-2.734,15.485-72.111,16.468-79.2s8.65-31.275,9.173-35.688S61.44,123.332,59.079,120.3c-1.966-2.534,15.072-23.246,23.609-30.9a13.794,13.794,0,0,1,3.848-2.776c.448-.147,1.059,1,1.814,3.091,3.823,10.753,10.939,46.745,14.155,65.262,1.516,8.708,1.874,33.388,1.784,60.358-.148,41.487-1.4,88.433-1.288,91.124" fill="#fff"/>
        <path id="Trazado_1697" data-name="Trazado 1697" d="M87.833,211.491c-2.923,4.99-4.883,10.053-9.049,14.256A62.555,62.555,0,0,1,66.168,236.04a.121.121,0,0,0,.09.222c5.407-1.368,9.757-5.562,13.54-9.465a38.094,38.094,0,0,0,8.6-15.056.312.312,0,0,0-.564-.25" fill="#2e2766"/>
        <path id="Trazado_1698" data-name="Trazado 1698" d="M90,218.484c-3.542,9.267-10.058,15.289-18.258,20.6a.063.063,0,0,0,.063.11c8.039-4.56,16.144-11.252,18.538-20.6a.179.179,0,0,0-.343-.1" fill="#2e2766"/>
        <path id="Trazado_1699" data-name="Trazado 1699" d="M112.5,86.816c-1.459-.889,13.39,44.9,11.836,75.623s-2.47,142.7.65,145.028,24.048-11.97,27.669-17.015-4.711-73.836-8.271-84.791-6.875-20.752-7.757-23.738-2.981-20.886-2.471-21.853,7.508-7.5,8.662-15.949-17.1-44.906-18.339-47.286S113.468,87.4,112.5,86.816" fill="#fff"/>
        <path id="Trazado_1700" data-name="Trazado 1700" d="M138.744,188.164c-2.243-8.071-3.749-22.353-4.117-27.344l.01-.007c4.381-4.946,9.366-12.1,8.732-19.066-.347-3.812-1.979-7.728-3.4-11.332a29.031,29.031,0,0,0-2.57-8.859c-.038-.089-.192-.032-.16.061a43.745,43.745,0,0,1,1.347,5.337,95.915,95.915,0,0,0-4.609-9.672c-.065-.118-.235-.022-.183.1,2.928,6.82,5.956,13.726,7.89,20.91,2.19,8.125-2.486,15.857-7.734,21.789-.211.238,0,16.231,3.22,26.385,3.05,9.627,6.374,19.168,9.266,28.846a.133.133,0,0,0,.258-.061c-2.1-9.183-5.431-18.02-7.952-27.086" fill="#2e2766"/>
        <path id="Trazado_1701" data-name="Trazado 1701" d="M104.289,215.332c-1.465-.361-2.5-34.475-4.229-41.329S86.812,140.59,86.393,138.6s8.378-14.6,7.9-14.987c-.489-.385-11.495,4.774-12.628,3.375-1.021-1.246,1.56-31.424,2.546-37.7.111-.676,2.195-4.617,2.824-3.352,7.869,15.84,12.249,50.521,15.465,69.038,1.515,8.708,1.874,33.388,1.784,60.358" fill="#fff"/>
        <path id="Trazado_1702" data-name="Trazado 1702" d="M101.855,192.287c-.47-6.038-.231-12.22-1.6-18.146-2.046-8.851-13.467-34.566-13.4-34.709,1.3-3,6.486-13.234,7.421-15.476.127-.307.268-.617-.4-.391-1.935.66-10.5,3.924-11.575,3.416-.842-.4,1.058-35.941,3-39.611.1-.2-.253-.264-.349-.062-2.828,5.879-4.666,37.849-3.3,40.479a.551.551,0,0,0,.6.27,53.8,53.8,0,0,0,11.217-3.8c-1.582,2.029-7.91,14.789-7.831,15,4.332,11.624,10.866,23.207,13.671,35.761,1.456,6.518,1.379,13.387,2.018,20.02.582,6.049,1.36,12.075,2.467,18.051.038.2.328.122.3-.073-.857-6.9-1.7-13.8-2.243-20.732" fill="#2e2766"/>
        <path id="Trazado_1703" data-name="Trazado 1703" d="M112.5,86.816c-2.182.385,6.917,39.878,7.934,47.854s2.655,81.311,2.655,81.311,3.046-43.264,3.867-45.636,4.187-35.675,4.054-37.157-10.282-12.357-10.448-12.917,8.55,1.034,8.938.494-15.965-34.132-17-33.949" fill="#fff"/>
        <path id="Trazado_1704" data-name="Trazado 1704" d="M131.761,132.918c.009-.187-6.571-8.958-10.461-12.477,2.5.286,8.464,1.007,8.724.642.509-.713-9.556-22.623-16.172-32.5-.032-.049-.111-.01-.081.044,5.677,10.25,10.432,20.939,15.072,31.684a75.881,75.881,0,0,0-8.038-.278.207.207,0,0,0-.185.342c3.254,4.239,10.154,12.854,10.324,12.861-1.68,13.157-3.462,26.292-5.206,39.443-1.734,13.072-3.166,26.667-2.217,39.855,0,.066.1.072.1,0a275.756,275.756,0,0,1,3.049-39.827c1.859-13.189,4.47-26.471,5.087-39.794" fill="#2e2766"/>
        <path id="Trazado_1705" data-name="Trazado 1705" d="M68.16,105.248c-3.887,5.02-10.565,12.048-14.2,26.2S42.1,194.115,42.328,198.5s24.131,33.827,27.765,34.944c1.107.341,6.026-4.148,9.88-8.989,3.17-3.981,6.027-8.236,6.082-9.756.061-1.73-16.936-22.628-16.594-24.37s3.936-28.414,6.106-37.453c1.216-5.062-7.407-47.631-7.407-47.631" fill="#fff"/>
        <path id="Trazado_1706" data-name="Trazado 1706" d="M64.316,115.665c-.057-.061-.146.024-.094.087,7.74,9.227,9.231,20.807,10.823,32.318.013.095.179.08.17-.017-1.053-11.41-2.795-23.65-10.9-32.388" fill="#2e2766"/>
        <path id="Trazado_1707" data-name="Trazado 1707" d="M86.31,214.122c-3.831-6.014-8-11.8-12.305-17.487a41.128,41.128,0,0,0-3.324-4.449,5.186,5.186,0,0,0-1.1-1.423c0-.013.011-.022.013-.036,1.239-8.993,3.164-17.936,4.642-26.916.675-1.576,1.3-3.175,1.988-4.74.053-.12-.143-.207-.208-.1-.48.813-.95,1.638-1.4,2.472.439-2.842.832-5.687,1.125-8.54a.087.087,0,0,0-.17-.029,302.658,302.658,0,0,0-6.949,37.162,16.105,16.105,0,0,0-4.584-1.745.047.047,0,0,0-.028.089,20.325,20.325,0,0,1,3.763,1.733,5.39,5.39,0,0,1,.766.6c0,.014,0,.029,0,.045-1.982-.7-4.908-.568-6.816-.624a.087.087,0,0,0-.028.169c2.04.533,5.379.456,7.11,1.6,2.064,1.359,3.771,4.606,5.271,6.594,3.961,5.252,7.746,10.632,11.585,15.973.267.374.91.059.65-.35" fill="#2e2766"/>
        <path id="Trazado_1708" data-name="Trazado 1708" d="M69.976,233.028c-2.658-2.8-5.617-5.264-8.42-7.9-.055-.051-.136.023-.084.078,2.626,2.8,5.084,5.758,7.87,8.413.4.381,1.02-.184.634-.591" fill="#2e2766"/>
        <path id="Trazado_1709" data-name="Trazado 1709" d="M161.147,236.189l-42.658-13.612a4.094,4.094,0,0,1-2.656-5.146L134.3,159.544a4.1,4.1,0,0,1,5.146-2.655L182.109,170.5a4.1,4.1,0,0,1,2.656,5.146l-18.472,57.886a4.1,4.1,0,0,1-5.146,2.656" fill="#d9c0ae"/>
        <path id="Trazado_1710" data-name="Trazado 1710" d="M170.1,170.951l-20.692-6.63a1.686,1.686,0,0,1-1.092-2.121l1.291-4.031a1.688,1.688,0,0,1,2.122-1.092l20.692,6.63a1.685,1.685,0,0,1,1.092,2.121l-1.291,4.03a1.688,1.688,0,0,1-2.122,1.093" fill="#fff"/>
        <path id="Trazado_1711" data-name="Trazado 1711" d="M169.788,158.763l-1.192,3.722-2.945-.944.548-1.708a1.717,1.717,0,0,0-1.109-2.155l-3.89-1.246a1.717,1.717,0,0,0-2.155,1.109l-.547,1.708-2.944-.942,1.192-3.722a2.476,2.476,0,0,1,3.122-1.607l8.313,2.663a2.486,2.486,0,0,1,1.607,3.122" fill="#fff"/>
        <path id="Trazado_1712" data-name="Trazado 1712" d="M181.734,202.995c-1.761-1.65-14.875-7.192-16.817-6.249-2.264,1.1,9.885,7.486,9.848,7.657-.049.223-11.273-7.4-13.267-5.768-1.714,1.4,11.3,9.193,11.3,9.193s-12.1-7.913-13.581-6.621c-1.673,1.463,10.087,9.929,9.931,10,0,0-8.253-6.338-9.967-5.515-1.484.714,5.471,6.89,7.492,9.433s9.024,1.4,11.039.282,6.247-10.32,4.02-12.408" fill="#dd9168"/>
        <path id="Trazado_1713" data-name="Trazado 1713" d="M78.146,98.207C77.887,89.3,91.858,86.122,98.515,85.214c8.477-1.156,15.826-.367,19.637,7.908,3.764,8.174,5.407,17.649,6.63,26.529a1.3,1.3,0,0,0,2.583-.315c-1.41-10.233-3.074-29.624-13.17-35.206-9.992-5.526-39.07-.7-38.632,14.392.049,1.673,2.631,1.348,2.583-.315" fill="#231f20"/>
        <path id="Trazado_1714" data-name="Trazado 1714" d="M132.6,123.651a5.975,5.975,0,1,1-6.655-5.208,5.976,5.976,0,0,1,6.655,5.208" fill="#778bfd"/>
        <path id="Trazado_1715" data-name="Trazado 1715" d="M130.24,123.939a3.6,3.6,0,1,1-4.007-3.136,3.6,3.6,0,0,1,4.007,3.136" fill="#e4eef8"/>
        <path id="Trazado_1716" data-name="Trazado 1716" d="M86.085,126.388c5.6,25.211,4.343,31.268,2.155,34.056a16.606,16.606,0,0,1-6.041,4.5l-.69-1.677.345.839-.346-.838a15,15,0,0,0,5.306-3.941c1.58-2.015,3.041-7.582-2.5-32.544Z" fill="#bdbfe1"/>
        <path id="Trazado_1717" data-name="Trazado 1717" d="M83.985,162.084l.735,1.461a1.115,1.115,0,0,1-.494,1.495l-3.619,1.821a1.116,1.116,0,0,1-1.5-.494l-.735-1.462a1.116,1.116,0,0,1,.494-1.495l3.619-1.82a1.115,1.115,0,0,1,1.5.494" fill="#778bfd"/>
        <path id="Trazado_1718" data-name="Trazado 1718" d="M69.771,126.373c-5.687,18.612-7.287,28.859-5.033,32.249a14.875,14.875,0,0,0,4.981,4.343l-.819,1.618a16.594,16.594,0,0,1-5.672-4.956c-2.685-4.036-1.291-13.824,4.809-33.784Z" fill="#bdbfe1"/>
        <path id="Trazado_1719" data-name="Trazado 1719" d="M67.342,161.593l-.848,1.4a1.118,1.118,0,0,0,.376,1.529l3.467,2.1a1.117,1.117,0,0,0,1.529-.376l.847-1.4a1.115,1.115,0,0,0-.376-1.529l-3.466-2.1a1.119,1.119,0,0,0-1.529.376" fill="#778bfd"/>
        <path id="Trazado_1720" data-name="Trazado 1720" d="M67.445,125.03a104.433,104.433,0,0,1,3.717-12.171,10.87,10.87,0,0,1,3.805-4.311c.36-.021.328-3.2.245-5.789-.077-2.291-.213-4.955.362-5.669a1.794,1.794,0,0,1,2.492-.03c.6.7.526,3.366.516,5.658-.015,2.6.039,5.767.4,5.78a11.861,11.861,0,0,1,3.707,4.258A85.95,85.95,0,0,1,86.532,125.2c.476,2.7-.415,2.994-1.191,3.227-1.1.328-1.759-.438-2.5-3.43-1.167-4.742-2.561-12.7-5.824-12.8v-.007c-3.253.2-4.891,8.51-6.114,13.129-.766,2.892-1.393,3.149-2.5,2.852-.781-.209-1.575-.573-.96-3.141" fill="#778bfd"/>
        <path id="Trazado_1721" data-name="Trazado 1721" d="M103.329,3.116S92.772-5.074,77.374,5.1C59.829,16.7,65.336,35.732,60.733,46.61S45.073,60.049,47.575,72.3c2.144,10.5,36,13.239,52.983,10.98,20.949-2.786,36-10.208,38.18-19.057s-10.411-14.254-11.313-20.97.009-40.981-24.1-40.138" fill="#1a2e35"/>
        <path id="Trazado_1722" data-name="Trazado 1722" d="M68.4,14.756A54.707,54.707,0,0,0,62.4,32.177c-.65,4.158-.8,8.332-2.588,12.208a35.439,35.439,0,0,1-6.893,9.405c-3.434,3.6-7.37,7.531-6.694,12.957a9.853,9.853,0,0,0,8.556,8.529c.1.016.132-.159.03-.183a9.965,9.965,0,0,1-7.613-7.344c-.945-4.109,1.134-7.555,3.768-10.464,3.208-3.542,6.684-6.629,9.033-10.871,2.486-4.49,2.677-9.237,3.392-14.2A66.048,66.048,0,0,1,68.434,14.77c.008-.017-.021-.031-.029-.014" fill="#1a2e35"/>
        <path id="Trazado_1723" data-name="Trazado 1723" d="M139.864,56.194c-2.728-5.341-8.343-8.236-10.856-13.8-4.6-10.189-1.967-22.9-9.966-31.615-.069-.074-.172.027-.113.1,6.679,8.667,5.057,19.972,8.569,29.8a25.341,25.341,0,0,0,6.926,10.017c4.751,4.556,8.9,11.086,4.221,17.362-.146.2.167.381.317.2,2.921-3.542,2.955-8.044.9-12.063" fill="#1a2e35"/>
        <path id="Trazado_1724" data-name="Trazado 1724" d="M73.266,8.879c-6.749,4.7-9.173,11.671-10.819,19.431-.911,4.29-1.638,8.625-2.921,12.827a54.43,54.43,0,0,1-6.382,12.886C49.852,59.317,46.1,66.363,49.3,72.6c3.49,6.816,12.071,6.8,18.642,6.5.182-.008.195-.293.011-.286-8.038.3-19.474-.8-19.324-11.506.107-7.6,5.812-13.115,9.1-19.489C64.25,35.136,61.35,18.73,73.393,9.057c.1-.077-.025-.249-.127-.178" fill="#1a2e35"/>
        <path id="Trazado_1725" data-name="Trazado 1725" d="M110.436,89.4s1.726,24.45-1.391,25.441c-5.976,1.9-17.761-24.948-18.646-26.67a104.518,104.518,0,0,1-2.865-14.119q-.136-1-.27-2c-.09-.665-.167-1.3-.229-1.937-.1-.85-.181-1.684-.264-2.518C86.129,61.3,85.624,55.9,85.624,55.9l3.013.88,21.1,7.069.44,16.178.036.987,0,.325.113,4.879,0,.042Z" fill="#dd9168"/>
        <path id="Trazado_1726" data-name="Trazado 1726" d="M110.219,81.011a16.844,16.844,0,0,1-7.968,1.416c-6.23-.343-10.869-3.927-14.718-8.372q-.133-1-.268-2c-.09-.665-.167-1.3-.23-1.938-.1-.849-.18-1.683-.264-2.517C86.129,61.3,85.625,55.9,85.625,55.9l3.013.88,21.1,7.069.442,16.178Z" fill="#975a35"/>
        <path id="Trazado_1727" data-name="Trazado 1727" d="M115.549,10.977s9.35,1.667,11.917,13.344c2.138,9.724-3.9,18.922-5.107,19.83-2.137,1.612-12.258-26.953-6.81-33.174" fill="#1a2e35"/>
        <path id="Trazado_1728" data-name="Trazado 1728" d="M125.013,42.511c.6,28.666-15.421,30.582-20.279,31.5-5.515,1.041-27.141.655-30.7-27.8S83.622,8.425,96.444,7.493s27.973,6.351,28.569,35.018" fill="#dd9168"/>
        <path id="Trazado_1729" data-name="Trazado 1729" d="M98.977,44.49c-.024-.071-.142.11-.13.189.294,1.931.305,4.193-1.372,5.045-.051.028-.034.124.03.107,2.1-.557,2.059-3.559,1.472-5.341"/>
        <path id="Trazado_1730" data-name="Trazado 1730" d="M97,42.674c-3.146.136-2.642,6.418.273,6.292,2.869-.125,2.365-6.406-.273-6.292"/>
        <path id="Trazado_1731" data-name="Trazado 1731" d="M113.765,43.344c.016-.074.15.095.146.175-.1,1.951.116,4.2,1.87,4.883.054.021.047.12-.019.109-2.148-.345-2.4-3.336-2-5.167"/>
        <path id="Trazado_1732" data-name="Trazado 1732" d="M115.546,41.339c3.145-.178,3.27,6.123.357,6.288-2.867.163-2.992-6.138-.357-6.288"/>
        <path id="Trazado_1733" data-name="Trazado 1733" d="M100.237,59.092c.441.483.871,1.138,1.575,1.237a5.144,5.144,0,0,0,2.123-.371.068.068,0,0,1,.078.1,2.627,2.627,0,0,1-2.534.918,2.078,2.078,0,0,1-1.434-1.811c-.024-.115.128-.148.192-.078" fill="#975a35"/>
        <path id="Trazado_1734" data-name="Trazado 1734" d="M116.654,36.192a18.724,18.724,0,0,1-1.939-.4,3.2,3.2,0,0,1-1.9-.786,1.02,1.02,0,0,1,0-1.245,2.529,2.529,0,0,1,2.491-.6,3.708,3.708,0,0,1,2.338,1.3,1.088,1.088,0,0,1-.985,1.729"/>
        <path id="Trazado_1735" data-name="Trazado 1735" d="M94.483,37.655a18.9,18.9,0,0,0,1.89-.593,3.2,3.2,0,0,0,1.811-.97,1.021,1.021,0,0,0-.12-1.241,2.532,2.532,0,0,0-2.539-.349,3.708,3.708,0,0,0-2.195,1.531,1.088,1.088,0,0,0,1.153,1.622"/>
        <path id="Trazado_1736" data-name="Trazado 1736" d="M107.9,55.791a8,8,0,0,1-2.983,2.743,3.6,3.6,0,0,1-2.167.32c-1.612-.281-1.773-1.724-1.588-2.986a8.574,8.574,0,0,1,.547-1.954,10.357,10.357,0,0,0,6.191,1.877" fill="#2e2766"/>
        <path id="Trazado_1737" data-name="Trazado 1737" d="M104.917,58.534a3.588,3.588,0,0,1-2.167.319c-1.611-.28-1.772-1.723-1.588-2.985,1.7.03,3.473,1.036,3.755,2.666" fill="#f8d9d2"/>
        <path id="Trazado_1738" data-name="Trazado 1738" d="M108.4,52.032s.4,2.916.4,4.291c0,.129-.333.19-.8.218-.022.007-.035.015-.054,0A6.536,6.536,0,0,1,101.6,54.1c-.1-.133.08-.276.205-.19a9.852,9.852,0,0,0,5.971,1.709c.1-.381-.858-4.971-.641-4.987a11.942,11.942,0,0,1,3.123.706c-.665-6.1-2.3-12.039-2.874-18.121a.187.187,0,0,1,.359-.089c2.158,6.1,3.077,13.106,3.927,19.385.113.783-2.719-.25-3.27-.483" fill="#975a35"/>
        <path id="Trazado_1739" data-name="Trazado 1739" d="M76.038,47.978c4.737.431,7.79-12.313,7.79-12.313s31.856-4.413,31.721-24.688c0,0-18.123-14.037-35.563.1s-8.272,36.5-3.948,36.9" fill="#1a2e35"/>
        <path id="Trazado_1740" data-name="Trazado 1740" d="M78.74,49.51s-5.656-9.342-9.855-7.382-.356,15.214,4.285,17.3a4.849,4.849,0,0,0,6.654-2.174Z" fill="#dd9168"/>
        <path id="Trazado_1741" data-name="Trazado 1741" d="M70.081,45.9c-.076-.012-.1.1-.033.126,3.246,1.57,4.8,4.779,5.817,8.067-.911-1.3-2.217-2.065-3.948-.993-.091.056-.017.2.079.184A2.98,2.98,0,0,1,75.2,54.538,14.381,14.381,0,0,1,76.6,57.291c.135.307.685.183.594-.167-.006-.026-.015-.053-.022-.079.364-4.248-2.55-10.417-7.088-11.146" fill="#975a35"/>
        <path id="Trazado_1742" data-name="Trazado 1742" d="M67.9,51.549a26.231,26.231,0,0,0,5.416,10.938c3.489,4.5,8.619,6.75,13.687,8.665.5.185.683-.674.16-.859a27.724,27.724,0,0,1-13.6-10.448c-.027,0-.027,0-.019-.01-.2-.138-.389-.293-.579-.448-1.781-.945-3.421-3.5-4.512-6.377a.918.918,0,0,1-.043-.123c-.189-.443-.36-.9-.512-1.338" fill="#fff"/>
        <path id="Trazado_1743" data-name="Trazado 1743" d="M72.86,42.91a16.7,16.7,0,0,1,3.479,2.868c.009.01.019.01.029.028a16.058,16.058,0,0,1,1.866,2.119c.2.247.395.511.576.767.309.393.471.63.471.63l.009.044c1.378,2,2.536,3.983,3.068,4.58.164.193.463-.047.359-.236-1.482-2.765-4.2-10.027-8.281-10.763a4.438,4.438,0,0,0-1.576-.037" fill="#fff"/>
        <path id="Trazado_1744" data-name="Trazado 1744" d="M80.555,50.53c-.68-1.389,9.654,3.181,20.2.66,2.158-.515,8.135-3.146,11.5-3.253s7.4,2.5,12.071,2.857c1.6.122.656,13.948-3.222,20.1-1.277,2.025-6.848,6.267-10.32,6.735-8.154,1.1-22.353-4.3-24.572-6.959-1.78-2.136.8-6.963-5.657-20.142" fill="#fff"/>
        <path id="Trazado_1745" data-name="Trazado 1745" d="M123.649,55.195a48.036,48.036,0,0,0-9.286-2.651c-2.747-.451-5.184.624-7.744,1.627-6.859,2.683-13.851,2.627-20.9.854-.084-.02-.11.121-.03.153a27.7,27.7,0,0,0,17.543.9c3.16-.838,6.284-2.653,9.583-2.55,3.6.112,7.151,1.713,10.729,2.22.3.043.409-.439.109-.556" fill="#bdbfe1"/>
        <path id="Trazado_1746" data-name="Trazado 1746" d="M118.981,71.3c-2.172,1.133-4.3,2.758-6.564,3.577-2.713.98-5.983.179-8.712-.372-5.167-1.042-10.152-2.993-15.216-4.565-.043-.014-.055.058-.016.076A66.593,66.593,0,0,0,106,75.542c2.011.291,4.239.733,6.214.07,2.386-.8,4.731-2.667,6.826-4.173.062-.045.014-.18-.056-.143" fill="#bdbfe1"/>
        <path id="Trazado_1747" data-name="Trazado 1747" d="M122.048,59.89c-5.265-1.373-10.109-.837-15.38.034a61.414,61.414,0,0,1-18.05.233c-.057-.008-.081.094-.021.1a52.389,52.389,0,0,0,16.115.329c2.6-.351,5.167-.924,7.773-1.186a30.371,30.371,0,0,1,9.5.82c.186.04.255-.286.068-.335" fill="#bdbfe1"/>
        <path id="Trazado_1748" data-name="Trazado 1748" d="M120.985,65.208a25.758,25.758,0,0,1-15.155,3.826c-5.433-.329-10.706-2.208-15.942-3.827-.069-.021-.091.1-.025.125,10.519,4.056,21.135,6.684,31.267.188.2-.13.055-.429-.145-.312" fill="#bdbfe1"/>
        <path id="Trazado_1749" data-name="Trazado 1749" d="M436.953,216.108a2.711,2.711,0,0,1,0,3.834L420.665,236.23a2.711,2.711,0,0,1-3.834,0l-27.558-27.558a2.712,2.712,0,0,1,0-3.834l16.288-16.288a2.712,2.712,0,0,1,3.834,0Z" fill="#d9c0ae"/>
        <path id="Trazado_1750" data-name="Trazado 1750" d="M426.4,224.807a.614.614,0,1,1-.869.869l-25.7-25.7a.614.614,0,0,1,.869-.869Z" fill="#cca283"/>
        <path id="Trazado_1751" data-name="Trazado 1751" d="M408.678,192.863a1.412,1.412,0,1,0,0,2,1.411,1.411,0,0,0,0-2" fill="#f2e5d3"/>
        <path id="Trazado_1752" data-name="Trazado 1752" d="M412.672,196.857a1.412,1.412,0,1,0,0,2,1.409,1.409,0,0,0,0-2" fill="#f2e5d3"/>
        <path id="Trazado_1753" data-name="Trazado 1753" d="M416.666,200.85a1.412,1.412,0,1,0,0,2,1.413,1.413,0,0,0,0-2" fill="#f2e5d3"/>
        <path id="Trazado_1754" data-name="Trazado 1754" d="M420.659,204.844a1.412,1.412,0,1,0,0,2,1.411,1.411,0,0,0,0-2" fill="#f2e5d3"/>
        <path id="Trazado_1755" data-name="Trazado 1755" d="M424.653,208.839a1.412,1.412,0,1,0,0,2,1.411,1.411,0,0,0,0-2" fill="#f2e5d3"/>
        <path id="Trazado_1756" data-name="Trazado 1756" d="M428.646,212.832a1.412,1.412,0,1,0,0,2,1.413,1.413,0,0,0,0-2" fill="#f2e5d3"/>
        <path id="Trazado_1757" data-name="Trazado 1757" d="M432.641,216.826a1.412,1.412,0,1,0,0,2,1.411,1.411,0,0,0,0-2" fill="#f2e5d3"/>
        <path id="Trazado_1758" data-name="Trazado 1758" d="M405.207,196.334a1.412,1.412,0,1,0,0,2,1.41,1.41,0,0,0,0-2" fill="#f2e5d3"/>
        <path id="Trazado_1759" data-name="Trazado 1759" d="M409.2,200.328a1.412,1.412,0,1,0,0,2,1.411,1.411,0,0,0,0-2" fill="#f2e5d3"/>
        <path id="Trazado_1760" data-name="Trazado 1760" d="M413.2,204.321a1.412,1.412,0,1,0,0,2,1.411,1.411,0,0,0,0-2" fill="#f2e5d3"/>
        <path id="Trazado_1761" data-name="Trazado 1761" d="M417.188,208.315a1.412,1.412,0,1,0,0,2,1.41,1.41,0,0,0,0-2" fill="#f2e5d3"/>
        <path id="Trazado_1762" data-name="Trazado 1762" d="M421.183,212.308a1.412,1.412,0,1,0,0,2,1.413,1.413,0,0,0,0-2" fill="#f2e5d3"/>
        <path id="Trazado_1763" data-name="Trazado 1763" d="M425.177,216.3a1.412,1.412,0,1,0,0,2,1.411,1.411,0,0,0,0-2" fill="#f2e5d3"/>
        <path id="Trazado_1764" data-name="Trazado 1764" d="M429.17,220.3a1.412,1.412,0,1,0,0,2,1.412,1.412,0,0,0,0-2" fill="#f2e5d3"/>
        <path id="Trazado_1765" data-name="Trazado 1765" d="M399.053,202.488a1.411,1.411,0,1,0,0,2,1.41,1.41,0,0,0,0-2" fill="#f2e5d3"/>
        <path id="Trazado_1766" data-name="Trazado 1766" d="M403.048,206.481a1.412,1.412,0,1,0,0,2,1.413,1.413,0,0,0,0-2" fill="#f2e5d3"/>
        <path id="Trazado_1767" data-name="Trazado 1767" d="M407.041,210.474a1.412,1.412,0,1,0,0,2,1.413,1.413,0,0,0,0-2" fill="#f2e5d3"/>
        <path id="Trazado_1768" data-name="Trazado 1768" d="M411.035,214.469a1.412,1.412,0,1,0,0,2,1.411,1.411,0,0,0,0-2" fill="#f2e5d3"/>
        <path id="Trazado_1769" data-name="Trazado 1769" d="M415.028,218.463a1.412,1.412,0,1,0,0,2,1.41,1.41,0,0,0,0-2" fill="#f2e5d3"/>
        <path id="Trazado_1770" data-name="Trazado 1770" d="M419.022,222.457a1.412,1.412,0,1,0,0,2,1.411,1.411,0,0,0,0-2" fill="#f2e5d3"/>
        <path id="Trazado_1771" data-name="Trazado 1771" d="M423.017,226.451a1.412,1.412,0,1,0,0,2,1.41,1.41,0,0,0,0-2" fill="#f2e5d3"/>
        <path id="Trazado_1772" data-name="Trazado 1772" d="M395.583,205.959a1.412,1.412,0,1,0,0,2,1.409,1.409,0,0,0,0-2" fill="#f2e5d3"/>
        <path id="Trazado_1773" data-name="Trazado 1773" d="M399.577,209.952a1.412,1.412,0,1,0,0,2,1.411,1.411,0,0,0,0-2" fill="#f2e5d3"/>
        <path id="Trazado_1774" data-name="Trazado 1774" d="M403.571,213.945a1.412,1.412,0,1,0,0,2,1.414,1.414,0,0,0,0-2" fill="#f2e5d3"/>
        <path id="Trazado_1775" data-name="Trazado 1775" d="M407.564,217.939a1.412,1.412,0,1,0,0,2,1.41,1.41,0,0,0,0-2" fill="#f2e5d3"/>
        <path id="Trazado_1776" data-name="Trazado 1776" d="M411.559,221.933a1.412,1.412,0,1,0,0,2,1.412,1.412,0,0,0,0-2" fill="#f2e5d3"/>
        <path id="Trazado_1777" data-name="Trazado 1777" d="M415.552,225.927a1.412,1.412,0,1,0,0,2,1.412,1.412,0,0,0,0-2" fill="#f2e5d3"/>
        <path id="Trazado_1778" data-name="Trazado 1778" d="M419.546,229.921a1.412,1.412,0,1,0,0,2,1.411,1.411,0,0,0,0-2" fill="#f2e5d3"/>
        <path id="Trazado_1779" data-name="Trazado 1779" d="M443.271,104.938v-3.745h-.062c-.378-6.566-10.735-11.835-27.854-11.835s-27.473,5.269-27.853,11.835h-.061v3.745Z" fill="#e1d3f8"/>
        <path id="Trazado_1780" data-name="Trazado 1780" d="M443.271,104.938c0-1.976-12.49-3.583-27.9-3.583s-27.9,1.607-27.9,3.583,12.49,3.582,27.9,3.582,27.9-1.6,27.9-3.582" fill="#e1d3f8"/>
        <path id="Trazado_1781" data-name="Trazado 1781" d="M419.267,84.605c-.755,0-3.151-.713-3.91-.713s-3.28.713-4.034.713c-.3,0-.553.344-.553.767l-.6,4.795c0,.425,4.422,6.4,5.182,6.4s5.181-5.975,5.181-6.4l-.719-4.795c0-.423-.246-.767-.552-.767" fill="#f9aa89"/>
        <path id="Trazado_1782" data-name="Trazado 1782" d="M427.577,66.114c0-7.633-4.571-11.771-12.2-11.771s-12.2,4.138-12.2,11.771,4.57,22.5,12.2,22.5,12.2-14.868,12.2-22.5" fill="#ffd8bc"/>
        <path id="Trazado_1783" data-name="Trazado 1783" d="M425.27,74.823c-1.442,0-8.33-.713-9.777-.713s-8.572.713-10.013.713c-.583,0-1.055.343-1.055.766l2.99,9.032c0,.425,6.629,2.163,8.078,2.163s8.076-1.738,8.076-2.163l2.754-9.032c0-.423-.472-.766-1.053-.766" fill="#e1d3f8"/>
        <path id="Trazado_1784" data-name="Trazado 1784" d="M415.369,63.508c7.288,0,11.725.71,11.972,1.6V55.339h-.027c-.163-2.767-4.609-4.984-11.957-4.984s-11.8,2.217-11.959,4.984h-.026v9.849c0-.927,4.495-1.68,12-1.68" fill="#e1d3f8"/>
        <path id="Trazado_1785" data-name="Trazado 1785" d="M415.435,96.567l-.078,4.062,7.693-10.662-2.81-1.785.2,1.326Z" fill="#bfafdd"/>
        <path id="Trazado_1786" data-name="Trazado 1786" d="M415.277,96.567l.08,4.062-7.694-10.662,2.773-1.785-.2,1.326Z" fill="#bfafdd"/>
        <g id="Grupo_252" data-name="Grupo 252" opacity="0.5">
          <g id="Grupo_251" data-name="Grupo 251">
            <g id="Grupo_250" data-name="Grupo 250" clip-path="url(#clip-path-12)">
              <path id="Trazado_1787" data-name="Trazado 1787" d="M405.986,76.557a.61.61,0,0,1-.65-.563l0,.062a.605.605,0,0,1,.562-.649l8.462-.554a.605.605,0,0,1,.65.561l-.005-.06a.606.606,0,0,1-.562.65Z" fill="#fff"/>
            </g>
          </g>
        </g>
        <g id="Grupo_255" data-name="Grupo 255" opacity="0.5">
          <g id="Grupo_254" data-name="Grupo 254">
            <g id="Grupo_253" data-name="Grupo 253" clip-path="url(#clip-path-13)">
              <path id="Trazado_1788" data-name="Trazado 1788" d="M407.039,61.829a.9.9,0,0,1-.9.9h.089a.9.9,0,0,1-.9-.9V54.465a.9.9,0,0,1,.9-.9h-.089a.9.9,0,0,1,.9.9Z" fill="#fff"/>
            </g>
          </g>
        </g>
        <line id="Línea_80" data-name="Línea 80" x2="38.173" y2="21.426" transform="translate(232.791 166.331)" fill="none" stroke="#3e145e" stroke-miterlimit="10" stroke-width="1.5"/>
        <line id="Línea_81" data-name="Línea 81" y1="21.304" x2="38.507" transform="translate(231.082 100.628)" fill="none" stroke="#3e145e" stroke-miterlimit="10" stroke-width="1.5"/>
        <line id="Línea_82" data-name="Línea 82" y1="0.38" x2="29.195" transform="translate(345.114 77.396)" fill="none" stroke="#3e145e" stroke-miterlimit="10" stroke-width="1.5"/>
        <line id="Línea_83" data-name="Línea 83" x2="44.983" y2="55.002" transform="translate(453.618 90.415)" fill="none" stroke="#3e145e" stroke-miterlimit="10" stroke-width="1.5"/>
        <line id="Línea_84" data-name="Línea 84" y1="50.011" transform="translate(411.51 121.077)" fill="none" stroke="#3e145e" stroke-miterlimit="10" stroke-width="1.5"/>
        <line id="Línea_85" data-name="Línea 85" y1="62.484" x2="45.15" transform="translate(453.451 145.417)" fill="none" stroke="#3e145e" stroke-miterlimit="10" stroke-width="1.5"/>
        <line id="Línea_86" data-name="Línea 86" y1="0.468" x2="27.959" transform="translate(344.864 215.888)" fill="none" stroke="#3e145e" stroke-miterlimit="10" stroke-width="1.5"/>
        <line id="Línea_87" data-name="Línea 87" y2="50.845" transform="translate(304.77 120.243)" fill="none" stroke="#3e145e" stroke-miterlimit="10" stroke-width="1.5"/>
        <line id="Línea_88" data-name="Línea 88" y1="25.267" x2="155.198" transform="translate(238.181 114.202)" fill="none" stroke="#3e145e" stroke-miterlimit="10" stroke-width="1.5"/>
        <line id="Línea_89" data-name="Línea 89" x2="146.308" y2="33.164" transform="translate(238.62 148.135)" fill="none" stroke="#3e145e" stroke-miterlimit="10" stroke-width="1.5"/>
        <line id="Línea_90" data-name="Línea 90" x2="59.189" y2="68.086" transform="translate(332.444 109.261)" fill="none" stroke="#3e145e" stroke-miterlimit="10" stroke-width="1.5"/>
        <line id="Línea_91" data-name="Línea 91" y1="63.175" x2="69.188" transform="translate(330.947 117.554)" fill="none" stroke="#3e145e" stroke-miterlimit="10" stroke-width="1.5"/>
        <path id="Trazado_1789" data-name="Trazado 1789" d="M503.919,147.055a6.5,6.5,0,1,1-6.5-6.5,6.5,6.5,0,0,1,6.5,6.5" fill="#3e145e"/>
        <path id="Trazado_1790" data-name="Trazado 1790" d="M508.211,304.1c0-.134-113.776-.241-254.094-.241C113.752,303.854,0,303.961,0,304.1s113.752.24,254.117.24c140.318,0,254.094-.108,254.094-.24" fill="#1a2e35"/>
      </g>
    </g>
  </g>
</svg>
