<svg id="Grupo_335" data-name="Grupo 335" xmlns="http://www.w3.org/2000/svg" xmlns:xlink="http://www.w3.org/1999/xlink" width="508.211" height="309.636" viewBox="0 0 508.211 309.636">
  <defs>
    <clipPath id="clip-path">
      <rect id="Rectángulo_348" data-name="Rectángulo 348" width="508.211" height="309.636" fill="none"/>
    </clipPath>
    <clipPath id="clip-path-3">
      <rect id="Rectángulo_314" data-name="Rectángulo 314" width="45.429" height="25.414" transform="translate(365.649 138.787)" fill="none"/>
    </clipPath>
    <clipPath id="clip-path-4">
      <rect id="Rectángulo_309" data-name="Rectángulo 309" width="15.772" height="15.353" transform="translate(365.649 145.554)" fill="none"/>
    </clipPath>
    <clipPath id="clip-path-5">
      <rect id="Rectángulo_310" data-name="Rectángulo 310" width="15.772" height="15.353" transform="translate(380.477 145.554)" fill="none"/>
    </clipPath>
    <clipPath id="clip-path-6">
      <rect id="Rectángulo_311" data-name="Rectángulo 311" width="15.773" height="15.353" transform="translate(395.305 145.554)" fill="none"/>
    </clipPath>
    <clipPath id="clip-path-7">
      <rect id="Rectángulo_312" data-name="Rectángulo 312" width="4.845" height="5.199" transform="translate(377.141 140.273)" fill="none"/>
    </clipPath>
    <clipPath id="clip-path-8">
      <rect id="Rectángulo_313" data-name="Rectángulo 313" width="4.845" height="5.199" transform="translate(389.161 139.712)" fill="none"/>
    </clipPath>
    <clipPath id="clip-path-9">
      <rect id="Rectángulo_315" data-name="Rectángulo 315" width="10.451" height="11.214" transform="translate(171.768 114.529)" fill="none"/>
    </clipPath>
    <clipPath id="clip-path-10">
      <rect id="Rectángulo_316" data-name="Rectángulo 316" width="10.452" height="11.214" transform="translate(197.696 113.318)" fill="none"/>
    </clipPath>
    <clipPath id="clip-path-11">
      <rect id="Rectángulo_317" data-name="Rectángulo 317" width="32.973" height="32.973" transform="translate(385.736 187.784)" fill="none"/>
    </clipPath>
    <clipPath id="clip-path-12">
      <rect id="Rectángulo_326" data-name="Rectángulo 326" width="1.811" height="35.98" transform="translate(277.341 51.905)" fill="none"/>
    </clipPath>
    <clipPath id="clip-path-13">
      <rect id="Rectángulo_327" data-name="Rectángulo 327" width="1.251" height="15.928" transform="translate(282.372 70.376)" fill="none"/>
    </clipPath>
    <clipPath id="clip-path-14">
      <rect id="Rectángulo_328" data-name="Rectángulo 328" width="4.896" height="5.253" transform="translate(291.274 51.614)" fill="none"/>
    </clipPath>
    <clipPath id="clip-path-15">
      <rect id="Rectángulo_334" data-name="Rectángulo 334" width="3.474" height="2.808" transform="translate(312.551 198.381)" fill="none"/>
    </clipPath>
    <clipPath id="clip-path-16">
      <rect id="Rectángulo_335" data-name="Rectángulo 335" width="1.105" height="11.515" transform="translate(314.545 209.199)" fill="none"/>
    </clipPath>
    <clipPath id="clip-path-17">
      <rect id="Rectángulo_336" data-name="Rectángulo 336" width="1.105" height="14.698" transform="translate(273.811 188.045)" fill="none"/>
    </clipPath>
    <clipPath id="clip-path-18">
      <rect id="Rectángulo_337" data-name="Rectángulo 337" width="1.105" height="3.242" transform="translate(284.472 214.131)" fill="none"/>
    </clipPath>
    <clipPath id="clip-path-19">
      <rect id="Rectángulo_338" data-name="Rectángulo 338" width="10.235" height="10.236" transform="translate(424.667 60.491)" fill="none"/>
    </clipPath>
    <clipPath id="clip-path-20">
      <rect id="Rectángulo_339" data-name="Rectángulo 339" width="10.236" height="10.238" transform="translate(416.66 68.497)" fill="none"/>
    </clipPath>
    <clipPath id="clip-path-21">
      <rect id="Rectángulo_340" data-name="Rectángulo 340" width="10.237" height="10.237" transform="translate(408.652 76.505)" fill="none"/>
    </clipPath>
    <clipPath id="clip-path-22">
      <rect id="Rectángulo_341" data-name="Rectángulo 341" width="10.237" height="10.238" transform="translate(400.644 84.512)" fill="none"/>
    </clipPath>
    <clipPath id="clip-path-23">
      <rect id="Rectángulo_343" data-name="Rectángulo 343" width="10.236" height="10.237" transform="translate(412.151 47.975)" fill="none"/>
    </clipPath>
    <clipPath id="clip-path-24">
      <rect id="Rectángulo_344" data-name="Rectángulo 344" width="10.235" height="10.237" transform="translate(404.145 55.982)" fill="none"/>
    </clipPath>
    <clipPath id="clip-path-25">
      <rect id="Rectángulo_345" data-name="Rectángulo 345" width="10.237" height="10.236" transform="translate(396.136 63.99)" fill="none"/>
    </clipPath>
    <clipPath id="clip-path-26">
      <rect id="Rectángulo_346" data-name="Rectángulo 346" width="10.235" height="10.237" transform="translate(388.13 71.997)" fill="none"/>
    </clipPath>
  </defs>
  <g id="Grupo_334" data-name="Grupo 334" clip-path="url(#clip-path)">
    <g id="Grupo_333" data-name="Grupo 333">
      <g id="Grupo_332" data-name="Grupo 332" clip-path="url(#clip-path)">
        <path id="Trazado_1791" data-name="Trazado 1791" d="M508.211,309.395c0-.133-113.776-.24-254.094-.24-140.365,0-254.117.107-254.117.24s113.752.24,254.117.24c140.318,0,254.094-.107,254.094-.24" fill="#1a2e35"/>
        <g id="Grupo_277" data-name="Grupo 277" opacity="0.5" style="mix-blend-mode: screen;isolation: isolate">
          <g id="Grupo_276" data-name="Grupo 276">
            <g id="Grupo_275" data-name="Grupo 275" clip-path="url(#clip-path-3)">
              <path id="Trazado_1792" data-name="Trazado 1792" d="M397.341,139.795c-2.854-1.649-6.221-1.446-9.449,1.909v0c-3.23-3.355-6.6-3.558-9.45-1.909-3.705,2.14-5.148,6.581-1.135,13.531,2.95,5.11,10.586,10.875,10.586,10.875s7.634-5.765,10.585-10.875c4.011-6.95,2.57-11.391-1.136-13.531" fill="#e35e4f"/>
              <g id="Grupo_262" data-name="Grupo 262" style="mix-blend-mode: screen;isolation: isolate">
                <g id="Grupo_261" data-name="Grupo 261">
                  <g id="Grupo_260" data-name="Grupo 260" clip-path="url(#clip-path-4)">
                    <path id="Trazado_1793" data-name="Trazado 1793" d="M374.568,160.907h-.012a.474.474,0,0,1-.458-.422l-1.229-11.342-1.143,5.753a.471.471,0,0,1-.441.379.458.458,0,0,1-.475-.337l-.449-1.51-.132.314a.471.471,0,0,1-.435.29h-3.673a.472.472,0,1,1,0-.944h3.359l.522-1.246a.472.472,0,0,1,.888.048l.282.948,1.372-6.9a.479.479,0,0,1,.484-.381.474.474,0,0,1,.448.423l1.18,10.882.73-4.616a.473.473,0,0,1,.908-.1l.632,1.624,1.09-.589a.477.477,0,0,1,.224-.056h2.708a.473.473,0,1,1,0,.945H378.36l-1.456.785a.473.473,0,0,1-.665-.244l-.192-.494-1.012,6.393a.474.474,0,0,1-.467.4" fill="#e35e4f"/>
                  </g>
                </g>
              </g>
              <g id="Grupo_265" data-name="Grupo 265" style="mix-blend-mode: screen;isolation: isolate">
                <g id="Grupo_264" data-name="Grupo 264">
                  <g id="Grupo_263" data-name="Grupo 263" clip-path="url(#clip-path-5)">
                    <path id="Trazado_1794" data-name="Trazado 1794" d="M389.4,160.907h-.012a.474.474,0,0,1-.458-.422l-1.228-11.34-1.144,5.751a.472.472,0,0,1-.915.042l-.45-1.51-.132.314a.471.471,0,0,1-.435.29h-3.674a.472.472,0,0,1,0-.944h3.359l.521-1.246a.464.464,0,0,1,.462-.289.472.472,0,0,1,.427.337l.283.95,1.372-6.9a.472.472,0,0,1,.933.042l1.179,10.882.731-4.616a.471.471,0,0,1,.415-.4.477.477,0,0,1,.492.3l.632,1.624,1.09-.589a.477.477,0,0,1,.224-.056h2.709a.473.473,0,0,1,0,.945h-2.589l-1.456.785a.471.471,0,0,1-.664-.244l-.193-.495-1.012,6.394a.474.474,0,0,1-.467.4" fill="#e35e4f"/>
                  </g>
                </g>
              </g>
              <g id="Grupo_268" data-name="Grupo 268" style="mix-blend-mode: screen;isolation: isolate">
                <g id="Grupo_267" data-name="Grupo 267">
                  <g id="Grupo_266" data-name="Grupo 266" clip-path="url(#clip-path-6)">
                    <path id="Trazado_1795" data-name="Trazado 1795" d="M404.224,160.907h-.011a.473.473,0,0,1-.458-.422l-1.228-11.34-1.145,5.751a.471.471,0,0,1-.914.042l-.45-1.51-.132.314a.471.471,0,0,1-.435.29h-3.673a.472.472,0,1,1,0-.944h3.358l.521-1.245a.462.462,0,0,1,.462-.29.468.468,0,0,1,.426.337l.283.95,1.373-6.9a.479.479,0,0,1,.484-.381.474.474,0,0,1,.448.423l1.179,10.882.732-4.616a.472.472,0,0,1,.906-.1l.632,1.624,1.091-.589a.478.478,0,0,1,.225-.056h2.708a.473.473,0,0,1,0,.945h-2.59l-1.455.785a.471.471,0,0,1-.664-.244l-.194-.495-1.012,6.394a.473.473,0,0,1-.467.4" fill="#e35e4f"/>
                  </g>
                </g>
              </g>
              <g id="Grupo_271" data-name="Grupo 271" style="mix-blend-mode: screen;isolation: isolate">
                <g id="Grupo_270" data-name="Grupo 270">
                  <g id="Grupo_269" data-name="Grupo 269" clip-path="url(#clip-path-7)">
                    <path id="Trazado_1796" data-name="Trazado 1796" d="M381.556,140.56c-.762-.655-2.269-.152-3.371,1.126s-1.374,2.842-.611,3.5,2.267.153,3.369-1.124,1.373-2.845.613-3.5" fill="#e35e4f"/>
                  </g>
                </g>
              </g>
              <g id="Grupo_274" data-name="Grupo 274" style="mix-blend-mode: screen;isolation: isolate">
                <g id="Grupo_273" data-name="Grupo 273">
                  <g id="Grupo_272" data-name="Grupo 272" clip-path="url(#clip-path-8)">
                    <path id="Trazado_1797" data-name="Trazado 1797" d="M393.576,140c-.763-.654-2.27-.154-3.371,1.125s-1.375,2.842-.612,3.5,2.267.151,3.368-1.126,1.374-2.843.615-3.5" fill="#e35e4f"/>
                  </g>
                </g>
              </g>
            </g>
          </g>
        </g>
        <path id="Trazado_1798" data-name="Trazado 1798" d="M215.342,113.5c-6.157-3.556-13.418-3.119-20.383,4.118v.007l0-.007c-6.967-7.237-14.228-7.674-20.386-4.118-7.993,4.615-11.1,14.2-2.448,29.187,6.365,11.024,22.836,23.459,22.836,23.459s16.467-12.435,22.831-23.459c8.656-14.991,5.547-24.572-2.448-29.187" fill="#cc3b29"/>
        <path id="Trazado_1799" data-name="Trazado 1799" d="M166.219,159.038H166.2a1.018,1.018,0,0,1-.988-.91l-2.652-24.465-2.467,12.408a1.018,1.018,0,0,1-.951.819.989.989,0,0,1-1.024-.728l-.968-3.258-.285.68a1.02,1.02,0,0,1-.94.625H148a1.019,1.019,0,1,1,0-2.037h7.245l1.127-2.689a1.019,1.019,0,0,1,1.917.1l.608,2.047,2.96-14.891a1.018,1.018,0,0,1,2.011.091l2.543,23.474,1.578-9.957a1.019,1.019,0,0,1,.9-.855,1.031,1.031,0,0,1,1.06.643l1.364,3.5,2.351-1.269a1.013,1.013,0,0,1,.484-.124h5.842a1.02,1.02,0,1,1,0,2.039H174.4l-3.141,1.693a1.008,1.008,0,0,1-.835.06,1.019,1.019,0,0,1-.6-.586l-.415-1.065-2.184,13.789a1.018,1.018,0,0,1-1.006.86" fill="#bfafdd"/>
        <path id="Trazado_1800" data-name="Trazado 1800" d="M198.2,159.038h-.024a1.019,1.019,0,0,1-.988-.91l-2.652-24.464-2.465,12.407a1.018,1.018,0,0,1-1.975.091l-.971-3.258-.284.68a1.017,1.017,0,0,1-.94.625h-7.923a1.019,1.019,0,0,1,0-2.037h7.245l1.125-2.689a1,1,0,0,1,.995-.624,1.024,1.024,0,0,1,.922.728l.609,2.049,2.96-14.893a1.027,1.027,0,0,1,1.043-.818,1.017,1.017,0,0,1,.969.909l2.544,23.474,1.578-9.957a1.018,1.018,0,0,1,1.955-.212l1.364,3.5,2.35-1.269a1.024,1.024,0,0,1,.486-.124h5.843a1.02,1.02,0,0,1,0,2.039h-5.586l-3.139,1.693a1.01,1.01,0,0,1-.836.06,1.022,1.022,0,0,1-.6-.586l-.416-1.067-2.183,13.791a1.02,1.02,0,0,1-1.008.86" fill="#bfafdd"/>
        <path id="Trazado_1801" data-name="Trazado 1801" d="M230.19,159.038h-.026a1.019,1.019,0,0,1-.988-.91l-2.649-24.463-2.468,12.406a1.017,1.017,0,0,1-1.973.091l-.971-3.257-.283.679a1.02,1.02,0,0,1-.941.625h-7.922a1.019,1.019,0,1,1,0-2.037h7.244l1.124-2.687a1,1,0,0,1,.995-.626,1.022,1.022,0,0,1,.922.728l.61,2.049,2.96-14.893a1.028,1.028,0,0,1,1.044-.818,1.017,1.017,0,0,1,.968.909l2.542,23.474,1.58-9.957a1.015,1.015,0,0,1,.9-.855,1.028,1.028,0,0,1,1.06.643l1.364,3.5,2.351-1.269a1.02,1.02,0,0,1,.485-.124h5.842a1.02,1.02,0,0,1,0,2.039h-5.584l-3.141,1.693a1.008,1.008,0,0,1-.835.06,1.021,1.021,0,0,1-.6-.586l-.416-1.067L231.2,158.178a1.019,1.019,0,0,1-1.006.86" fill="#bfafdd"/>
        <g id="Grupo_280" data-name="Grupo 280" opacity="0.4">
          <g id="Grupo_279" data-name="Grupo 279">
            <g id="Grupo_278" data-name="Grupo 278" clip-path="url(#clip-path-9)">
              <path id="Trazado_1802" data-name="Trazado 1802" d="M181.291,115.148c-1.644-1.412-4.893-.33-7.272,2.428s-2.965,6.131-1.319,7.549,4.893.328,7.266-2.428,2.965-6.134,1.325-7.549" fill="#fff"/>
            </g>
          </g>
        </g>
        <g id="Grupo_283" data-name="Grupo 283" opacity="0.4">
          <g id="Grupo_282" data-name="Grupo 282">
            <g id="Grupo_281" data-name="Grupo 281" clip-path="url(#clip-path-10)">
              <path id="Trazado_1803" data-name="Trazado 1803" d="M207.221,113.937c-1.645-1.412-4.895-.33-7.273,2.428s-2.966,6.13-1.321,7.548,4.893.329,7.268-2.427,2.964-6.135,1.326-7.549" fill="#fff"/>
            </g>
          </g>
        </g>
        <path id="Trazado_1804" data-name="Trazado 1804" d="M417.9,180.083,382.45,215.535a10.254,10.254,0,0,0,14.5,14.5L432.4,194.585Z" fill="#e1d3f8"/>
        <path id="Trazado_1805" data-name="Trazado 1805" d="M383.921,228.563a8.365,8.365,0,0,1,0-11.815l24.187-24.191,11.821,11.82-24.191,24.188a8.362,8.362,0,0,1-11.817,0" fill="#cc3b29"/>
        <g id="Grupo_286" data-name="Grupo 286" opacity="0.5">
          <g id="Grupo_285" data-name="Grupo 285">
            <g id="Grupo_284" data-name="Grupo 284" clip-path="url(#clip-path-11)">
              <path id="Trazado_1806" data-name="Trazado 1806" d="M389.1,220.179a1.972,1.972,0,0,1-2.789-2.789l29.029-29.03a1.972,1.972,0,1,1,2.788,2.789Z" fill="#fff"/>
            </g>
          </g>
        </g>
        <path id="Trazado_1807" data-name="Trazado 1807" d="M432.255,193.665a2.517,2.517,0,0,1-3.559,3.56l-13.431-13.431a2.517,2.517,0,0,1,3.56-3.559Z" fill="#bfafdd"/>
        <path id="Trazado_1808" data-name="Trazado 1808" d="M394.777,226.256a.974.974,0,0,1,0-1.379c1.146-1.145.361-3.362-.545-5.927-1.233-3.483-2.764-7.817.546-11.124,3.071-3.074,7.074-1.679,10.607-.448,3.182,1.107,5.2,1.689,6.442.448a.975.975,0,1,1,1.381,1.378c-2.2,2.2-5.382,1.089-8.463.015-3.28-1.142-6.38-2.221-8.588-.015-2.439,2.44-1.243,5.824-.085,9.1,1.031,2.919,2.1,5.939.084,7.954a.976.976,0,0,1-1.378,0" fill="#f2e5d3"/>
        <path id="Trazado_1809" data-name="Trazado 1809" d="M386.251,217.729a.977.977,0,0,1,0-1.378c2.014-2.014,5.034-.947,7.953.084,3.273,1.157,6.658,2.353,9.1-.088,2.208-2.205,1.127-5.3-.014-8.587-1.074-3.08-2.182-6.264.014-8.461a.976.976,0,0,1,1.381,1.38c-1.242,1.242-.66,3.262.446,6.441,1.228,3.532,2.626,7.536-.446,10.609-3.31,3.307-7.644,1.775-11.126.547-2.565-.908-4.781-1.693-5.927-.546a.974.974,0,0,1-1.378,0" fill="#f2e5d3"/>
        <rect id="Rectángulo_318" data-name="Rectángulo 318" width="1.16" height="11.277" transform="matrix(0.707, -0.707, 0.707, 0.707, 403.658, 200.916)" fill="#f2e5d3"/>
        <rect id="Rectángulo_319" data-name="Rectángulo 319" width="1.156" height="9.571" transform="translate(402.516 203.265) rotate(-45.004)" fill="#f2e5d3"/>
        <rect id="Rectángulo_320" data-name="Rectángulo 320" width="1.157" height="10.181" transform="translate(398.291 207.058) rotate(-45)" fill="#f2e5d3"/>
        <rect id="Rectángulo_321" data-name="Rectángulo 321" width="1.16" height="11.279" transform="translate(395.229 209.343) rotate(-45.004)" fill="#f2e5d3"/>
        <path id="Trazado_1810" data-name="Trazado 1810" d="M400.147,219.6l-7.2-7.2.818-.82,7.2,7.2Z" fill="#f2e5d3"/>
        <rect id="Rectángulo_322" data-name="Rectángulo 322" width="1.156" height="11.278" transform="translate(388.549 216.023) rotate(-45)" fill="#f2e5d3"/>
        <rect id="Rectángulo_323" data-name="Rectángulo 323" width="1.158" height="11.278" transform="translate(386.803 217.77) rotate(-45)" fill="#f2e5d3"/>
        <path id="Rectángulo_324" data-name="Rectángulo 324" d="M7.666,0H40.613a7.664,7.664,0,0,1,7.664,7.664V44.243a7.664,7.664,0,0,1-7.664,7.664H7.665A7.665,7.665,0,0,1,0,44.242V7.666A7.666,7.666,0,0,1,7.666,0Z" transform="translate(276.264 44.928)" fill="#e1d3f8"/>
        <path id="Rectángulo_325" data-name="Rectángulo 325" d="M7.664,0H31.671a7.665,7.665,0,0,1,7.665,7.665V20.606a7.666,7.666,0,0,1-7.666,7.666H7.664A7.664,7.664,0,0,1,0,20.608V7.664A7.664,7.664,0,0,1,7.664,0Z" transform="translate(280.734 64.091)" fill="#bfafdd"/>
        <path id="Trazado_1811" data-name="Trazado 1811" d="M300.4,48.649A11.247,11.247,0,0,0,289.156,59.9h22.492A11.247,11.247,0,0,0,300.4,48.649" fill="#f2e5d3"/>
        <g id="Grupo_289" data-name="Grupo 289" opacity="0.5">
          <g id="Grupo_288" data-name="Grupo 288">
            <g id="Grupo_287" data-name="Grupo 287" clip-path="url(#clip-path-12)">
              <path id="Trazado_1812" data-name="Trazado 1812" d="M279.152,86.981a.906.906,0,0,1-1.812,0V52.809a.906.906,0,0,1,1.812,0Z" fill="#fff"/>
            </g>
          </g>
        </g>
        <g id="Grupo_292" data-name="Grupo 292" opacity="0.5">
          <g id="Grupo_291" data-name="Grupo 291">
            <g id="Grupo_290" data-name="Grupo 290" clip-path="url(#clip-path-13)">
              <path id="Trazado_1813" data-name="Trazado 1813" d="M283.623,85.678a.625.625,0,1,1-1.251,0V71a.625.625,0,0,1,1.251,0Z" fill="#fff"/>
            </g>
          </g>
        </g>
        <path id="Trazado_1814" data-name="Trazado 1814" d="M300.864,53.778a.462.462,0,1,1-.924,0V49.372a.462.462,0,1,1,.924,0Z" fill="#cca283"/>
        <path id="Trazado_1815" data-name="Trazado 1815" d="M303.931,54.847a.462.462,0,0,1-.8-.462l2.2-3.816a.463.463,0,1,1,.8.461Z" fill="#cca283"/>
        <path id="Trazado_1816" data-name="Trazado 1816" d="M299.918,59.875h.945l-2.294-9.2a.459.459,0,1,0-.891.219Z" fill="#e35e4f"/>
        <path id="Trazado_1817" data-name="Trazado 1817" d="M306.054,57.309a.464.464,0,0,1-.463-.8l3.819-2.2a.463.463,0,0,1,.461.8Z" fill="#cca283"/>
        <path id="Trazado_1818" data-name="Trazado 1818" d="M297.675,54.386a.463.463,0,0,1-.8.462l-2.206-3.816a.463.463,0,0,1,.8-.463Z" fill="#cca283"/>
        <path id="Trazado_1819" data-name="Trazado 1819" d="M295.214,56.506a.464.464,0,0,1-.464.8L290.934,55.1a.463.463,0,0,1,.461-.8Z" fill="#cca283"/>
        <g id="Grupo_295" data-name="Grupo 295" opacity="0.4">
          <g id="Grupo_294" data-name="Grupo 294">
            <g id="Grupo_293" data-name="Grupo 293" clip-path="url(#clip-path-14)">
              <path id="Trazado_1820" data-name="Trazado 1820" d="M295.735,51.9c-.769-.663-2.292-.156-3.406,1.136s-1.39,2.872-.619,3.536,2.291.154,3.4-1.138,1.388-2.874.62-3.534" fill="#fff"/>
            </g>
          </g>
        </g>
        <path id="Trazado_1821" data-name="Trazado 1821" d="M311.1,230.724H281.148a6.452,6.452,0,0,1-6.445-6.444v-2.689a6.451,6.451,0,0,1,6.445-6.444h11.093v1.366H281.148a5.083,5.083,0,0,0-5.078,5.078v2.689a5.085,5.085,0,0,0,5.078,5.079H311.1a5.084,5.084,0,0,0,5.078-5.079V219.6h1.368v4.677a6.453,6.453,0,0,1-6.446,6.444" fill="#e1d3f8"/>
        <path id="Rectángulo_329" data-name="Rectángulo 329" d="M1.354,0h3.3A1.354,1.354,0,0,1,6.011,1.354V17.767a1.356,1.356,0,0,1-1.356,1.356h-3.3A1.354,1.354,0,0,1,0,17.769V1.354A1.354,1.354,0,0,1,1.354,0Z" transform="translate(313.674 202.333)" fill="#e1d3f8"/>
        <path id="Trazado_1822" data-name="Trazado 1822" d="M316.679,197.521c-2.658,0-5.448,2.154-5.448,4.812s2.79,8,5.448,8,5.45-5.338,5.45-8-2.792-4.812-5.45-4.812" fill="#e1d3f8"/>
        <path id="Trazado_1823" data-name="Trazado 1823" d="M311.23,202.333h10.9c0-2.657-2.792-4.812-5.45-4.812s-5.448,2.155-5.448,4.812" fill="#bfafdd"/>
        <path id="Trazado_1824" data-name="Trazado 1824" d="M316.679,193.753a25.9,25.9,0,0,1,7.475,1.107l.8-.8a26.755,26.755,0,0,0-16.551,0l.8.8a25.879,25.879,0,0,1,7.471-1.107" fill="#e1d3f8"/>
        <path id="Trazado_1825" data-name="Trazado 1825" d="M328.3,190.71a31.021,31.021,0,0,0-23.247,0l.77.77a30.1,30.1,0,0,1,21.707,0Z" fill="#e1d3f8"/>
        <path id="Trazado_1826" data-name="Trazado 1826" d="M331.55,187.465a35.428,35.428,0,0,0-29.737,0l.764.766a34.331,34.331,0,0,1,28.2,0Z" fill="#e1d3f8"/>
        <path id="Trazado_1827" data-name="Trazado 1827" d="M316.679,179.926a39.546,39.546,0,0,0-18.06,4.347l.746.744a38.72,38.72,0,0,1,34.631,0l.745-.745a39.545,39.545,0,0,0-18.062-4.347" fill="#e1d3f8"/>
        <path id="Rectángulo_330" data-name="Rectángulo 330" d="M7.375,0H27.631A7.374,7.374,0,0,1,35,7.374V21a7.375,7.375,0,0,1-7.375,7.375H7.375A7.375,7.375,0,0,1,0,21V7.375A7.375,7.375,0,0,1,7.375,0Z" transform="translate(273.26 181.409)" fill="#bfafdd"/>
        <path id="Rectángulo_331" data-name="Rectángulo 331" d="M4.712,0H24.967a4.712,4.712,0,0,1,4.712,4.712V18.336a4.712,4.712,0,0,1-4.712,4.712H4.713A4.713,4.713,0,0,1,0,18.335V4.712A4.712,4.712,0,0,1,4.712,0Z" transform="translate(275.923 184.07)" fill="#594d4d"/>
        <path id="Rectángulo_332" data-name="Rectángulo 332" d="M.967,0H12.69a.967.967,0,0,1,.967.967V3.324a.968.968,0,0,1-.968.968H.966A.966.966,0,0,1,0,3.326V.967A.967.967,0,0,1,.967,0Z" transform="translate(283.934 213.685)" fill="#bfafdd"/>
        <rect id="Rectángulo_333" data-name="Rectángulo 333" width="8.062" height="3.903" transform="translate(286.731 209.781)" fill="#e1d3f8"/>
        <g id="Grupo_298" data-name="Grupo 298" opacity="0.7">
          <g id="Grupo_297" data-name="Grupo 297">
            <g id="Grupo_296" data-name="Grupo 296" clip-path="url(#clip-path-15)">
              <path id="Trazado_1828" data-name="Trazado 1828" d="M315.915,198.771c-.334-.536-1.332-.518-2.232.042s-1.357,1.449-1.022,1.985,1.333.519,2.233-.042,1.356-1.449,1.021-1.985" fill="#fff"/>
            </g>
          </g>
        </g>
        <g id="Grupo_301" data-name="Grupo 301" opacity="0.5">
          <g id="Grupo_300" data-name="Grupo 300">
            <g id="Grupo_299" data-name="Grupo 299" clip-path="url(#clip-path-16)">
              <path id="Trazado_1829" data-name="Trazado 1829" d="M315.649,220.162a.552.552,0,1,1-1.1,0V209.75a.552.552,0,0,1,1.1,0Z" fill="#fff"/>
            </g>
          </g>
        </g>
        <g id="Grupo_304" data-name="Grupo 304" opacity="0.5">
          <g id="Grupo_303" data-name="Grupo 303">
            <g id="Grupo_302" data-name="Grupo 302" clip-path="url(#clip-path-17)">
              <path id="Trazado_1830" data-name="Trazado 1830" d="M274.916,202.191a.552.552,0,0,1-1.1,0V188.6a.552.552,0,0,1,1.1,0Z" fill="#fff"/>
            </g>
          </g>
        </g>
        <g id="Grupo_307" data-name="Grupo 307" opacity="0.5">
          <g id="Grupo_306" data-name="Grupo 306">
            <g id="Grupo_305" data-name="Grupo 305" clip-path="url(#clip-path-18)">
              <path id="Trazado_1831" data-name="Trazado 1831" d="M285.577,216.821a.552.552,0,0,1-1.1,0v-2.14a.552.552,0,0,1,1.1,0Z" fill="#fff"/>
            </g>
          </g>
        </g>
        <path id="Trazado_1832" data-name="Trazado 1832" d="M407.259,102.6a3.638,3.638,0,0,1-5.148,0l-21.923-21.92a3.642,3.642,0,0,1,0-5.15l32.6-32.6a3.642,3.642,0,0,1,5.151,0l21.921,21.921a3.64,3.64,0,0,1,0,5.148Z" fill="#e1d3f8"/>
        <path id="Trazado_1833" data-name="Trazado 1833" d="M421.261,66.308a2.474,2.474,0,0,1,0-3.5l2.834-2.833a2.475,2.475,0,0,1,3.5,0l7.731,7.731a2.477,2.477,0,0,1,0,3.5l-2.833,2.833a2.475,2.475,0,0,1-3.5,0Z" fill="#bfafdd"/>
        <path id="Trazado_1834" data-name="Trazado 1834" d="M424.306,66.009a2.112,2.112,0,0,1,2.987-2.987l4.986,4.985a2.112,2.112,0,0,1-2.988,2.987Z" fill="#f2e5d3"/>
        <path id="Trazado_1835" data-name="Trazado 1835" d="M429.787,65.514l-2.494-2.493a2.112,2.112,0,0,0-2.987,2.987L426.8,68.5Z" fill="#cc3b29"/>
        <g id="Grupo_310" data-name="Grupo 310" opacity="0.5">
          <g id="Grupo_309" data-name="Grupo 309">
            <g id="Grupo_308" data-name="Grupo 308" clip-path="url(#clip-path-19)">
              <path id="Trazado_1836" data-name="Trazado 1836" d="M434.556,68.785a1.19,1.19,0,0,1,0,1.679l.085-.085a1.188,1.188,0,0,1-1.68,0l-7.946-7.946a1.191,1.191,0,0,1,0-1.681l-.085.085a1.189,1.189,0,0,1,1.68,0Z" fill="#fff"/>
            </g>
          </g>
        </g>
        <path id="Trazado_1837" data-name="Trazado 1837" d="M413.253,74.317a2.473,2.473,0,0,1,0-3.5l2.832-2.833a2.473,2.473,0,0,1,3.5,0l7.732,7.732a2.473,2.473,0,0,1,0,3.5l-2.832,2.832a2.472,2.472,0,0,1-3.5,0Z" fill="#bfafdd"/>
        <path id="Trazado_1838" data-name="Trazado 1838" d="M416.3,74.016a2.111,2.111,0,1,1,2.984-2.987l4.986,4.984A2.113,2.113,0,1,1,421.283,79Z" fill="#f2e5d3"/>
        <path id="Trazado_1839" data-name="Trazado 1839" d="M421.778,73.521l-2.493-2.492a2.111,2.111,0,1,0-2.985,2.987l2.493,2.492Z" fill="#cc3b29"/>
        <g id="Grupo_313" data-name="Grupo 313" opacity="0.5">
          <g id="Grupo_312" data-name="Grupo 312">
            <g id="Grupo_311" data-name="Grupo 311" clip-path="url(#clip-path-20)">
              <path id="Trazado_1840" data-name="Trazado 1840" d="M426.548,76.792a1.187,1.187,0,0,1,0,1.679l.085-.085a1.186,1.186,0,0,1-1.679,0l-7.946-7.946a1.19,1.19,0,0,1,0-1.681l-.084.085a1.19,1.19,0,0,1,1.681,0Z" fill="#fff"/>
            </g>
          </g>
        </g>
        <path id="Trazado_1841" data-name="Trazado 1841" d="M405.246,82.323a2.473,2.473,0,0,1,0-3.5l2.833-2.832a2.473,2.473,0,0,1,3.5,0l7.73,7.731a2.474,2.474,0,0,1,0,3.5l-2.832,2.833a2.474,2.474,0,0,1-3.5,0Z" fill="#bfafdd"/>
        <path id="Trazado_1842" data-name="Trazado 1842" d="M408.292,82.024a2.111,2.111,0,1,1,2.985-2.987l4.987,4.985a2.112,2.112,0,1,1-2.988,2.986Z" fill="#f2e5d3"/>
        <path id="Trazado_1843" data-name="Trazado 1843" d="M413.77,81.53l-2.493-2.493a2.112,2.112,0,0,0-2.986,2.987l2.492,2.491Z" fill="#cc3b29"/>
        <g id="Grupo_316" data-name="Grupo 316" opacity="0.5">
          <g id="Grupo_315" data-name="Grupo 315">
            <g id="Grupo_314" data-name="Grupo 314" clip-path="url(#clip-path-21)">
              <path id="Trazado_1844" data-name="Trazado 1844" d="M418.541,84.8a1.185,1.185,0,0,1,0,1.679l.085-.084a1.187,1.187,0,0,1-1.679,0L409,78.45a1.19,1.19,0,0,1,0-1.681l-.083.084a1.188,1.188,0,0,1,1.681,0Z" fill="#fff"/>
            </g>
          </g>
        </g>
        <path id="Trazado_1845" data-name="Trazado 1845" d="M397.238,90.332a2.472,2.472,0,0,1,0-3.5L400.07,84a2.475,2.475,0,0,1,3.5,0L411.3,91.73a2.476,2.476,0,0,1,0,3.5l-2.833,2.832a2.475,2.475,0,0,1-3.5,0Z" fill="#bfafdd"/>
        <path id="Trazado_1846" data-name="Trazado 1846" d="M400.284,90.032a2.112,2.112,0,0,1,2.987-2.987l4.985,4.984a2.113,2.113,0,0,1-2.989,2.988Z" fill="#f2e5d3"/>
        <path id="Trazado_1847" data-name="Trazado 1847" d="M405.763,89.536l-2.491-2.491a2.112,2.112,0,0,0-2.988,2.987l2.492,2.492Z" fill="#cc3b29"/>
        <g id="Grupo_319" data-name="Grupo 319" opacity="0.5">
          <g id="Grupo_318" data-name="Grupo 318">
            <g id="Grupo_317" data-name="Grupo 317" clip-path="url(#clip-path-22)">
              <path id="Trazado_1848" data-name="Trazado 1848" d="M410.532,92.807a1.183,1.183,0,0,1,0,1.678l.086-.083a1.187,1.187,0,0,1-1.678,0l-7.946-7.947a1.187,1.187,0,0,1,0-1.68l-.085.085a1.189,1.189,0,0,1,1.682,0Z" fill="#fff"/>
            </g>
          </g>
        </g>
        <path id="Rectángulo_342" data-name="Rectángulo 342" d="M2.474,0H6.482A2.475,2.475,0,0,1,8.957,2.475V13.409a2.475,2.475,0,0,1-2.475,2.475H2.476A2.476,2.476,0,0,1,0,13.408V2.474A2.474,2.474,0,0,1,2.474,0Z" transform="matrix(0.707, -0.707, 0.707, 0.707, 406.994, 52.042)" fill="#bfafdd"/>
        <path id="Trazado_1849" data-name="Trazado 1849" d="M411.791,53.493a2.112,2.112,0,1,1,2.987-2.987l4.985,4.985a2.112,2.112,0,0,1-2.988,2.987Z" fill="#f2e5d3"/>
        <path id="Trazado_1850" data-name="Trazado 1850" d="M417.271,53l-2.493-2.492a2.112,2.112,0,1,0-2.987,2.987l2.493,2.493Z" fill="#cc3b29"/>
        <g id="Grupo_322" data-name="Grupo 322" opacity="0.5">
          <g id="Grupo_321" data-name="Grupo 321">
            <g id="Grupo_320" data-name="Grupo 320" clip-path="url(#clip-path-23)">
              <path id="Trazado_1851" data-name="Trazado 1851" d="M422.041,56.268a1.192,1.192,0,0,1,0,1.68l.084-.085a1.188,1.188,0,0,1-1.68,0L412.5,49.918a1.187,1.187,0,0,1,0-1.68l-.085.085a1.185,1.185,0,0,1,1.679,0Z" fill="#fff"/>
            </g>
          </g>
        </g>
        <path id="Trazado_1852" data-name="Trazado 1852" d="M400.737,61.8a2.472,2.472,0,0,1,0-3.5l2.832-2.833a2.474,2.474,0,0,1,3.5,0L414.8,63.2a2.475,2.475,0,0,1,0,3.5l-2.834,2.832a2.475,2.475,0,0,1-3.5,0Z" fill="#bfafdd"/>
        <path id="Trazado_1853" data-name="Trazado 1853" d="M403.784,61.5a2.112,2.112,0,0,1,2.986-2.987l4.984,4.984a2.112,2.112,0,0,1-2.986,2.987Z" fill="#f2e5d3"/>
        <path id="Trazado_1854" data-name="Trazado 1854" d="M409.263,61.006l-2.492-2.492a2.112,2.112,0,0,0-2.987,2.987l2.494,2.493Z" fill="#cc3b29"/>
        <g id="Grupo_325" data-name="Grupo 325" opacity="0.5">
          <g id="Grupo_324" data-name="Grupo 324">
            <g id="Grupo_323" data-name="Grupo 323" clip-path="url(#clip-path-24)">
              <path id="Trazado_1855" data-name="Trazado 1855" d="M414.031,64.276a1.185,1.185,0,0,1,0,1.68l.085-.086a1.183,1.183,0,0,1-1.678,0l-7.946-7.946a1.19,1.19,0,0,1,0-1.679l-.083.084a1.19,1.19,0,0,1,1.681,0Z" fill="#fff"/>
            </g>
          </g>
        </g>
        <path id="Trazado_1856" data-name="Trazado 1856" d="M392.731,69.807a2.469,2.469,0,0,1,0-3.5l2.832-2.832a2.474,2.474,0,0,1,3.5,0l7.732,7.732a2.476,2.476,0,0,1,0,3.5l-2.834,2.832a2.474,2.474,0,0,1-3.5,0Z" fill="#bfafdd"/>
        <path id="Trazado_1857" data-name="Trazado 1857" d="M395.776,69.508a2.111,2.111,0,0,1,2.986-2.986l4.984,4.985a2.112,2.112,0,1,1-2.988,2.985Z" fill="#f2e5d3"/>
        <path id="Trazado_1858" data-name="Trazado 1858" d="M401.255,69.014l-2.492-2.493a2.112,2.112,0,0,0-2.987,2.986L398.268,72Z" fill="#cc3b29"/>
        <g id="Grupo_328" data-name="Grupo 328" opacity="0.5">
          <g id="Grupo_327" data-name="Grupo 327">
            <g id="Grupo_326" data-name="Grupo 326" clip-path="url(#clip-path-25)">
              <path id="Trazado_1859" data-name="Trazado 1859" d="M406.024,72.284a1.186,1.186,0,0,1,0,1.679l.084-.084a1.186,1.186,0,0,1-1.678,0l-7.946-7.946a1.188,1.188,0,0,1,0-1.679l-.082.084a1.187,1.187,0,0,1,1.678,0Z" fill="#fff"/>
            </g>
          </g>
        </g>
        <path id="Trazado_1860" data-name="Trazado 1860" d="M384.721,77.815a2.475,2.475,0,0,1,0-3.5l2.834-2.831a2.471,2.471,0,0,1,3.5,0l7.729,7.731a2.474,2.474,0,0,1,0,3.5l-2.833,2.833a2.474,2.474,0,0,1-3.5,0Z" fill="#bfafdd"/>
        <path id="Trazado_1861" data-name="Trazado 1861" d="M387.768,77.516a2.112,2.112,0,0,1,2.987-2.988l4.984,4.984a2.113,2.113,0,1,1-2.988,2.988Z" fill="#f2e5d3"/>
        <path id="Trazado_1862" data-name="Trazado 1862" d="M393.248,77.02l-2.492-2.492a2.112,2.112,0,0,0-2.987,2.988l2.492,2.493Z" fill="#cc3b29"/>
        <g id="Grupo_331" data-name="Grupo 331" opacity="0.5">
          <g id="Grupo_330" data-name="Grupo 330">
            <g id="Grupo_329" data-name="Grupo 329" clip-path="url(#clip-path-26)">
              <path id="Trazado_1863" data-name="Trazado 1863" d="M398.017,80.292a1.185,1.185,0,0,1,0,1.678l.086-.083a1.191,1.191,0,0,1-1.681,0l-7.944-7.948a1.184,1.184,0,0,1,0-1.678l-.086.084a1.188,1.188,0,0,1,1.68,0Z" fill="#fff"/>
            </g>
          </g>
        </g>
        <path id="Trazado_1864" data-name="Trazado 1864" d="M131.45,216.171s-7.407,91.2-8.468,92.466H90.72V216.171Z" fill="#434b95"/>
        <path id="Trazado_1865" data-name="Trazado 1865" d="M46.834,216.171h57.918S90.72,254.351,89.2,256.887s-9.133,51.75-9.133,51.75H46.834s-.063-41.476,0-44.14-3.361-38.623,0-48.326" fill="#434b95"/>
        <path id="Trazado_1866" data-name="Trazado 1866" d="M88.581,82.641c7.367.306,13.172,4.24,16.671,6.975s21.143,19.389,22.6,24.369,3.353,108.651,1.423,111.817S106.918,236.3,97.9,236.848s-48.164-6.747-51.253-9.609-10.416-102.776-8.8-108.9S64.454,92.472,69.437,86.7c2.213-2.563,15.95-4.195,19.144-4.062" fill="#bdbfe1"/>
        <path id="Trazado_1867" data-name="Trazado 1867" d="M103.411,104.332c.067,1.417-1.556,7.909-2.27,8.715s-6.344,1.2-7.007.731-3.838-7.064-3.956-8.328,4.5-6.789,6.454-7.111,6.738,5.142,6.779,5.993" fill="#2e2766"/>
        <path id="Trazado_1868" data-name="Trazado 1868" d="M101.142,113.047s9.128,66.922,9.656,71.465-9.78,31.6-11.523,32.209S87.813,189.713,87.208,186.7s6.291-70.761,6.847-73.16c.151-.653,7-1.119,7.087-.492" fill="#2e2766"/>
        <path id="Trazado_1869" data-name="Trazado 1869" d="M112.687,287.545c.942,2.733,25.234-4.56,25.72-7.883.5-3.308-8.117-80.31-8.131-86.347-.029-6.037.926-72.73-1.934-80.425-1.442-3.939-10.306-12.857-15.408-17.793-2.17-2.1-3.671-3.469-3.671-3.469.836,3.243,3.989,46.83,3.19,76.491-.25,9.485-.419,24.864-.5,41.475-.006.153,0,.29-.006.412-.147,35.171.092,75.7.737,77.539" fill="#fff"/>
        <path id="Trazado_1870" data-name="Trazado 1870" d="M124.472,136.134c.2-3.062-10.376-15.521-10.376-15.521s9.391,1.476,9.4-.569c0-1.783-8.546-20.541-10.565-24.947-2.17-2.1-5.215-4.512-5.215-4.512.837,3.242,5.533,47.873,4.733,77.534-.25,9.485-.419,24.865-.5,41.475.42-9.449,12.318-70.444,12.516-73.46" fill="#fff"/>
        <path id="Trazado_1871" data-name="Trazado 1871" d="M124.278,135.228c-3.066-5.115-10.813-14.9-10.772-14.861.026,0,8.973.35,9.616-.374.454-.513-7.566-18.438-9.953-23.283a.1.1,0,0,1,.168-.1c4.379,6.428,11.982,23.709,10.425,24.219-1.579.517-6.325.481-8.5.487,3.8,3.9,9.86,13.42,10.076,14.1.193.6-3.672,23.555-5.712,34.545-2.2,11.858-4.024,25.4-6.789,37.136-.053.227-.369.136-.342-.083,1.4-11.76,9.437-58.742,11.78-71.777" fill="#2e2766"/>
        <path id="Trazado_1872" data-name="Trazado 1872" d="M33.849,279.913c19.313,15.026,45.172,11.191,46.082,9.108.535-1.237,2.034-39.509,2.529-77.233l.016-.5c.324-25.667.211-51.018-.983-64.2A315.7,315.7,0,0,0,69.7,86.684a11.194,11.194,0,0,0-2.5,1.753l-.014.016C59.8,94.389,39.055,113.5,39.27,117.054c.27,4.222,1.291,59.71-.36,83.856s-7.765,76.894-5.061,79" fill="#fff"/>
        <path id="Trazado_1873" data-name="Trazado 1873" d="M44.28,232.8c.1-.339.905-.4,1.06-.367,8.987,1.607,17.842,3.552,26.967,4.295.09.008.1.141,0,.143-9.149.126-18.291-1.5-27.176-3.6-.012,0-.02-.011-.032-.015q-.842,3-1.433,6.061c8.3,2.239,16.427,2.97,24.97,3.609a.061.061,0,0,1,0,.121c-8.293.862-17.175-.66-25.1-3.079A65.765,65.765,0,0,0,42.4,252.215c.008,2.244-.469,7.452,1.108,9.275,1.912,2.21,6.4,3.245,9.13,3.769a27.3,27.3,0,0,0,10.512-.028c2.1-.425,3.713-.761,4.948-3.048.737-1.362,3.243-17.672,3.809-24.089.016-.18.288-.2.286-.009-.1,7.437-1.23,19.2-3.133,24.332-1.87,5.043-10.572,4.558-14.853,4-3.483-.455-8.085-1.166-11.01-3.195-1.915-1.328-1.814-2.736-1.913-5.1a77.549,77.549,0,0,1,3-25.32" fill="#2e2766"/>
        <path id="Trazado_1874" data-name="Trazado 1874" d="M53.917,151.477c3.387-.291,17.435.508,21.049.9.207.023.161.352-.038.359-3.6.114-19.4-.739-19.97-.486-.494.217-.354,3.152-.019,3.317.829.408,16.376.541,20.1.624.635.015.667,1.005.029.99q-10.479-.246-20.944-.794a.5.5,0,0,1-.5-.473,20.794,20.794,0,0,1,.294-4.435" fill="#2e2766"/>
        <path id="Trazado_1875" data-name="Trazado 1875" d="M72.131,117.568c.16.371-9.924,10.13-10.479,11.551S75.215,168.586,78.2,180.1s4.264,31.688,4.264,31.688l.016-.5c.324-25.667.21-51.019-.984-64.2A391.713,391.713,0,0,0,70.59,85.6c-.214,0-2.01,1.734-3.392,2.839l-.013.016c-.2.79-6.936,25.777-7.024,26.591-.072.827,11.825,2.151,11.97,2.524" fill="#fff"/>
        <path id="Trazado_1876" data-name="Trazado 1876" d="M66.858,89.214c.061-.241.228-.179.181.063a223.076,223.076,0,0,1-6.321,25.758c4.007.675,11.6,2.231,11.744,2.4.256.316-3.049,4.3-4.753,6.059a59.841,59.841,0,0,1-5.835,5.77c5.571,12.533,17.334,51.055,18.473,57.5a182.98,182.98,0,0,1,2.166,20.3c.006.086-.121.087-.132,0-.877-7.145-1.657-14.313-3.156-21.362-1.349-6.347-13.832-43.672-18.246-56.253-.118-.336,9.243-10.09,10.926-11.744-3.816-.591-12.165-1.891-12.064-2.247,2.479-8.7,4.829-17.473,7.017-26.252" fill="#2e2766"/>
        <path id="Trazado_1877" data-name="Trazado 1877" d="M56.217,187.173c.065,1.73.354,2.934.641,3.08.887.482,4.661,2.3,9.766,4.359.912.368,1.867.749,2.865,1.127C72.281,196.8,82.44,202,93.845,207.485c15.235,7.324,32.67,15.146,37.716,14.292,8.789-1.5,21.112-12.081,22.016-18.152s-17.551-78.219-19.895-83.122-4.988-9.065-7.527-11.555l3.822,79.388a5.356,5.356,0,0,0-.814-.342c-2.847-1.014-12.28-3.623-23.113-6.457-18.218-4.77-40.385-10.2-41.822-9.747a11.563,11.563,0,0,0-1.476.593h-.014c-5.623,2.815-6.72,10.441-6.521,14.789" fill="#fff"/>
        <path id="Trazado_1878" data-name="Trazado 1878" d="M132.161,154.587c-.027,0-.029-.044,0-.044" fill="none" stroke="#2e2766" stroke-linecap="round" stroke-linejoin="round" stroke-width="0"/>
        <path id="Trazado_1879" data-name="Trazado 1879" d="M66.624,194.612c.912.367,1.867.748,2.865,1.127,2.792,1.058,12.95,6.265,24.356,11.745,2.575-1.514,5.15-3.041,7.726-4.541,6.232-3.622,12.625-7.053,18.71-10.882a15.979,15.979,0,0,0,1.407-1c.381.017.762.033,1.073.053,1.988.067,6.168-.085,6.419-2.558a.729.729,0,0,0,.037-.17.353.353,0,0,0-.032-.126,1.711,1.711,0,0,0-.022-.266c-2.848-1.015-12.28-3.623-23.113-6.457a56.6,56.6,0,0,0-28.382,5.915,54.852,54.852,0,0,0-11.044,7.16" fill="#bdbfe1"/>
        <path id="Trazado_1880" data-name="Trazado 1880" d="M55.669,187.218c.051.772.146,1.573.269,2.415-.065.185.225.472.44.593,10.607,6.138,42.834,20.579,50.8,24.1,4.683,2.087,20.661,9.742,25.592,7.341.1-.059.122-.159-.005-.14-.042,0-.084.016-.126.017-4.5.7-21.7-6.442-38.6-14.183-2.828-1.282-5.656-2.592-8.413-3.877a2.507,2.507,0,0,0-.271-.133c-5.773-2.717-11.233-5.359-15.808-7.589-.028-.014-.043-.013-.057-.027-.929-.451-1.816-.89-2.659-1.3-6.162-3.016-10.152-5.038-10.152-5.038-.27-3.839-.206-14.055,7.856-17.239,12.185,3.245,25.937,6.162,38.218,9.348.426.1.852.214,1.277.328q9.649,2.544,19.314,5.16a23.267,23.267,0,0,1,5.672,2.185,15.233,15.233,0,0,1,3.111,2.288c2.262,2.131,4.426,4.335,6.782,6.364a.14.14,0,0,0,.192-.2c-2.558-3.108-5.241-6.635-8.635-8.972.347-9.66.538-19.359.771-29.045a6.658,6.658,0,0,0,.889-2.336,22.632,22.632,0,0,0,.6-3.216.154.154,0,0,0-.3-.075c-.238.993-.547,1.974-.884,2.956-.078.213-.171.427-.263.656.106-4.032.2-8.065.332-12.1,0-.028-.058-.041-.071,0-1.6,10.994-1.943,22.332-2,33.59-.023,3-.018,6-.014,8.989a14.736,14.736,0,0,0-2.943-1.364c-6.429-2.063-13.094-3.556-19.612-5.264-7.625-2.013-15.783-3.913-23.91-5.743-.17-.037-.355-.088-.553-.124-5.12-1.144-10.212-2.289-15.134-3.411-.964-.211-1.915-.437-2.865-.647a7.848,7.848,0,0,0-2.144.866c-2.745,1.491-7.36,5.473-6.688,14.823" fill="#2e2766"/>
        <path id="Trazado_1881" data-name="Trazado 1881" d="M109.213,177.512a26.636,26.636,0,0,1,5.955,6.515,21.657,21.657,0,0,1,3.033,5.827,9.525,9.525,0,0,0,2.5-.229,4.72,4.72,0,0,0,3.716-2.97l4.788,1.365c2.019-.821-.51-3.887-.51-3.887.062-1.242-2.195-2.767-2.195-2.767-.277-1.259-3.184-2.4-3.184-2.4s-.91-1.2-4.253-1.832c-2.1-.417-6.706,0-9.851.377" fill="#f8d9d2"/>
        <path id="Trazado_1882" data-name="Trazado 1882" d="M23.77,200.422c-.013,3.846,12.392,22.567,20.615,21.506,13.5-1.711,70.647-29.668,73.389-30.3.573-.145.667-.795.427-1.774a21.639,21.639,0,0,0-3.034-5.828,26.591,26.591,0,0,0-5.955-6.514,6.029,6.029,0,0,0-1.645-.839c-3.654-1.117-37.7,4.839-51.931,7.571-3.7.716-6.05,1.209-6.2,1.3-.2.006-.445-5.03-.7-12.574-.77-22.11-1.693-66-1.693-66-4.265,4.368-12.9,12.823-14.492,15.8s-8.756,73.8-8.782,77.649" fill="#fff"/>
        <path id="Trazado_1883" data-name="Trazado 1883" d="M39.83,190.385a43.183,43.183,0,0,1,8.255-4.716c-1.958-.493-4.983.511-6.559.669-.3.03-.342-.407-.084-.506a16.41,16.41,0,0,1,5.409-1.013,3.484,3.484,0,0,1,1.671.343,208.574,208.574,0,0,1,.472-37.642c.024-.217.379-.173.38.04q.009,4.98-.014,9.96c.339-1.393.745-2.768,1.093-4.084a.066.066,0,0,1,.128.031c-.592,2.987-.594,6.131-1.243,9.094-.035,7.539-.069,15.077-.013,22.62,7.171-2.611,48.569-9.8,58.106-8.705a3.754,3.754,0,0,1,1.715.8c.226.169.2.4.07.345a5.037,5.037,0,0,0-2.148-.717c-10.139-.057-50.689,6.894-57.845,9.526a.37.37,0,0,1-.265.1,67,67,0,0,0-9.1,4.162c-.4.222-.409-.05-.024-.307" fill="#2e2766"/>
        <path id="Trazado_1884" data-name="Trazado 1884" d="M37.519,219.3a13.245,13.245,0,0,0,5.321,2.308c2.833.473,10.54-2.543,15.243-4.289,7.2-2.673,14.164-5.928,21.106-9.2,6.277-2.961,12.568-5.888,18.928-8.669q4.983-2.178,10.007-4.264c2.046-.85,8.577-3.155,9.774-3.981.367-.252.129-1.045.156-1.452.009-.143.231-.208.27-.045a7.929,7.929,0,0,1,.294,1.794.289.289,0,0,1-.2.28c-15.618,6.526-30.879,13.725-46.249,20.795A166.727,166.727,0,0,1,51.73,220.7c-2.734.841-6.07,2.13-9.068,1.8a7.735,7.735,0,0,1-5.4-3.009c-.121-.157.094-.3.259-.184" fill="#2e2766"/>
        <path id="Trazado_1885" data-name="Trazado 1885" d="M37.462,183.742s-.634,1.442-.163,2.091a10.1,10.1,0,0,0,2.091,1.628s8.435-1.532,10.045-1.918c.152-.089,2.5-.582,6.2-1.3.377-7.238,4.295-10.524,6.721-11.851-1.8.026-9.153.174-13.621.575a16.908,16.908,0,0,0-3.086.458c-2.625.809-9.047,7.988-8.95,8.887a2.282,2.282,0,0,0,.761,1.428" fill="#f8d9d2"/>
        <path id="Trazado_1886" data-name="Trazado 1886" d="M69.274,89.276c1.509-8.782,15.832-9.133,22.538-8.706,8.537.544,15.585,2.772,17.683,11.638,2.072,8.757,1.807,18.371,1.249,27.316a1.3,1.3,0,0,0,2.593.2c.644-10.31,2.85-29.646-5.941-37.116-8.7-7.394-38.159-8.418-40.716,6.462-.283,1.649,2.313,1.842,2.594.2" fill="#2e2766"/>
        <path id="Trazado_1887" data-name="Trazado 1887" d="M117.616,124.993a5.976,5.976,0,1,1-5.493-6.422,5.976,5.976,0,0,1,5.493,6.422" fill="#778bfd"/>
        <path id="Trazado_1888" data-name="Trazado 1888" d="M115.245,124.808a3.6,3.6,0,1,1-3.307-3.866,3.6,3.6,0,0,1,3.307,3.866" fill="#e4eef8"/>
        <path id="Trazado_1889" data-name="Trazado 1889" d="M71.478,118.47c.5,25.82-1.931,31.509-4.627,33.811a16.6,16.6,0,0,1-6.812,3.211l-.345-1.78.173.892-.174-.892a14.983,14.983,0,0,0,5.98-2.812c1.949-1.662,4.483-6.828,3.992-32.395Z" fill="#bdbfe1"/>
        <path id="Trazado_1890" data-name="Trazado 1890" d="M62.356,153.045l.432,1.578a1.116,1.116,0,0,1-.781,1.367L58.1,157.06a1.118,1.118,0,0,1-1.368-.782L56.3,154.7a1.117,1.117,0,0,1,.782-1.367l3.907-1.068a1.116,1.116,0,0,1,1.368.78" fill="#778bfd"/>
        <path id="Trazado_1891" data-name="Trazado 1891" d="M55.491,115.226c-9.259,17.119-12.855,26.848-11.316,30.616a14.883,14.883,0,0,0,4.023,5.242l-1.123,1.424a16.582,16.582,0,0,1-4.579-5.98c-1.832-4.488,1.471-13.806,11.4-32.164Z" fill="#bdbfe1"/>
        <path id="Trazado_1892" data-name="Trazado 1892" d="M46.139,149.269l-1.107,1.2a1.117,1.117,0,0,0,.066,1.573l2.982,2.744a1.118,1.118,0,0,0,1.574-.067l1.107-1.2a1.116,1.116,0,0,0-.066-1.573L47.713,149.2a1.118,1.118,0,0,0-1.574.065" fill="#778bfd"/>
        <path id="Trazado_1893" data-name="Trazado 1893" d="M53.477,113.45a104.121,104.121,0,0,1,6.051-11.194,10.873,10.873,0,0,1,4.584-3.473c.356.051.953-3.067,1.385-5.627.378-2.26.772-4.9,1.476-5.484a1.8,1.8,0,0,1,2.45.464c.447.8-.15,3.4-.615,5.647-.528,2.543-1.1,5.662-.75,5.745a11.868,11.868,0,0,1,2.791,4.907,86,86,0,0,1,1.3,12.963c-.067,2.739-1,2.853-1.806,2.928-1.142.1-1.639-.778-1.767-3.856-.206-4.879,0-12.957-3.176-13.7l0-.006c-3.229-.447-6.479,7.373-8.591,11.659-1.324,2.682-1.988,2.811-3.018,2.3-.724-.361-1.429-.874-.318-3.27" fill="#778bfd"/>
        <path id="Trazado_1894" data-name="Trazado 1894" d="M80.921,74.557C78.5,75.585,70.189,86.62,70.5,88.211s-.729,21.672,17.626,29.486l9.007-16.943,8.98,13.893s5.186-11.072,5.02-13.838S108.812,84.29,98.119,77.442c-8.033-5.146-12.154-5.028-17.2-2.885" fill="#bdbfe1"/>
        <path id="Trazado_1895" data-name="Trazado 1895" d="M70.774,88c.942,10.971,5.7,25.28,17.127,29.056,3.148-5.394,6.342-10.667,9.026-16.31a.287.287,0,0,1,.464-.069c.081.022,6.425,9.2,8.862,13.686a61.992,61.992,0,0,0,3.382-9.68c1.393-4.515.791-8.01-.613-12.439-.035-.11.143-.189.191-.08,1.631,3.623,2.714,7.218,1.647,11.145a54.64,54.64,0,0,1-4.171,11.656.263.263,0,0,1-.276.141.2.2,0,0,1-.238-.056c-3.147-4.309-5.722-9.011-8.884-13.331-2.71,5.619-5.768,11.01-8.83,16.011-.146.24-.67.113-.718.1C75.861,114.08,70.322,99.542,70.631,88a.072.072,0,0,1,.143,0" fill="#2e2766"/>
        <path id="Trazado_1896" data-name="Trazado 1896" d="M107.157,61.763l-1.351,25.971v.042l-.189,3.647s-1.345,7.521-9.211,8.905c-7.858,1.4-19.754-9.105-20.687-11.065-.479-1-.874-10.321-1.152-19.166-.264-8.449-.42-16.486-.42-16.486l3.684.913Z" fill="#f8d9d2"/>
        <path id="Trazado_1897" data-name="Trazado 1897" d="M107.157,61.763l-1.351,25.971v.042A50.81,50.81,0,0,1,82.019,77.408,48.879,48.879,0,0,1,74.568,70.1c-.264-8.449-.42-16.486-.42-16.486l3.684.913Z" fill="#dba89b"/>
        <path id="Trazado_1898" data-name="Trazado 1898" d="M69.263,17.321c-5.436,12.257-.641,42.939,8.683,53.358,6.384,7.135,20.283,9.353,30.636,5.15a19.851,19.851,0,0,0,10.883-9.853c7.049-15.056.651-51.174-6.9-56.853-13.326-10.031-36.66-6.789-43.306,8.2" fill="#f8d9d2"/>
        <path id="Trazado_1899" data-name="Trazado 1899" d="M93.594,44.965c-.021-.071-.143.1-.133.182.214,1.911.138,4.135-1.545,4.911-.051.023-.039.119.025.1,2.091-.467,2.163-3.422,1.653-5.2"/>
        <path id="Trazado_1900" data-name="Trazado 1900" d="M91.723,43.1c-3.1.013-2.847,6.213.026,6.2,2.828-.013,2.574-6.213-.026-6.2"/>
        <path id="Trazado_1901" data-name="Trazado 1901" d="M108.607,43.871c.012-.074.153.084.154.163.018,1.923.363,4.123,2.126,4.69.055.017.053.114-.011.107-2.133-.211-2.561-3.136-2.269-4.96"/>
        <path id="Trazado_1902" data-name="Trazado 1902" d="M110.24,41.795c3.079-.361,3.575,5.824.723,6.158-2.809.33-3.305-5.855-.723-6.158"/>
        <path id="Trazado_1903" data-name="Trazado 1903" d="M96.267,62.287c.478.431.962,1.031,1.661,1.062a5.086,5.086,0,0,0,2.045-.569.068.068,0,0,1,.088.1,2.588,2.588,0,0,1-2.4,1.142,2.047,2.047,0,0,1-1.581-1.637c-.033-.11.114-.156.183-.094" fill="#dba89b"/>
        <path id="Trazado_1904" data-name="Trazado 1904" d="M89.159,40.366a24.152,24.152,0,0,0,2.367-.944A4.122,4.122,0,0,0,93.756,38a1.315,1.315,0,0,0-.276-1.579,3.252,3.252,0,0,0-3.291-.2A4.781,4.781,0,0,0,87.521,38.4a1.4,1.4,0,0,0,1.638,1.968"/>
        <path id="Trazado_1905" data-name="Trazado 1905" d="M112.51,38.574a23.932,23.932,0,0,1-2.49-.538A4.122,4.122,0,0,1,107.584,37a1.313,1.313,0,0,1,.01-1.6,3.254,3.254,0,0,1,3.212-.744,4.777,4.777,0,0,1,2.992,1.705,1.4,1.4,0,0,1-1.288,2.213"/>
        <path id="Trazado_1906" data-name="Trazado 1906" d="M103.022,57.88s-1.558,3.959-4.616,3.255c-2.307-.53-1.2-5.192-1.2-5.192s3.007,2.222,5.812,1.937" fill="#fff"/>
        <path id="Trazado_1907" data-name="Trazado 1907" d="M97.039,56.122a6.539,6.539,0,0,0,4.484,2.73,8.2,8.2,0,0,0,2.357.012,2.345,2.345,0,0,0,.447-.07c.14-.023.266-.044.419-.082a.478.478,0,0,0,.367-.445v-.015a.923.923,0,0,0-.026-.195v-.015l-.011-.168c-.019-1.481-.256-3.724-.256-3.724.551.249,3.358,1.375,3.283.6-.645-6.38-1.362-13.475-3.35-19.689a.178.178,0,0,0-.349.065c.377,6.156,1.833,12.2,2.31,18.383a11.478,11.478,0,0,0-3.125-.811c-.208.069.533,4.327.489,4.993a.277.277,0,0,1-.01.071c-2.471.419-4.376-.254-6.856-1.824-.147-.1-.294.033-.172.18" fill="#dba89b"/>
        <path id="Trazado_1908" data-name="Trazado 1908" d="M113.922,17.7c6.539,10.394,7.5,27.185,8.843,22.424,4.437-15.685-3.418-24.76-3.418-24.76s-6.211,1.086-5.425,2.336" fill="#2e2766"/>
        <path id="Trazado_1909" data-name="Trazado 1909" d="M71.257,50.115s11.867-2.358,8.4-27.6a41.646,41.646,0,0,0,21.823,2.86c12.955-1.618,19.964-7.118,24.058-16.03,1.338-2.91-5.686,1.189-8.771-.134-5.5-2.358-10.87-9.527-25.669-9.2S72.372,10.3,72.372,10.3s-7.955,2.448-11.137,9.366S63.619,50.1,71.257,50.115" fill="#1a2e35"/>
        <path id="Trazado_1910" data-name="Trazado 1910" d="M75.421,49.254s-6.047-10.2-10.624-8.112-.539,16.511,4.478,18.821A5.264,5.264,0,0,0,76.52,57.67Z" fill="#f8d9d2"/>
        <path id="Trazado_1911" data-name="Trazado 1911" d="M66.058,45.248c-.083-.014-.107.1-.038.136,3.508,1.738,5.161,5.237,6.234,8.816-.976-1.42-2.386-2.264-4.275-1.118-.1.061-.022.215.083.2a3.238,3.238,0,0,1,3.469,1.394,15.792,15.792,0,0,1,1.485,3c.145.336.741.207.646-.175-.005-.028-.016-.058-.023-.086.438-4.608-2.662-11.333-7.581-12.17" fill="#dba89b"/>
        <path id="Trazado_1912" data-name="Trazado 1912" d="M82.452,72.841c-5.221-2.33-10.483-5.021-13.879-9.975A27.67,27.67,0,0,1,63.552,51a21.219,21.219,0,0,0,2,4.888,14.97,14.97,0,0,0,3.435,4.195c-.012.013-.012.013.014.013a29.239,29.239,0,0,0,13.68,11.852c.532.227.293,1.12-.227.893" fill="#fff"/>
        <path id="Trazado_1913" data-name="Trazado 1913" d="M76.978,52.758c-.934-1.158-3.824-7.151-6.422-9.389l-.026-.026a16.612,16.612,0,0,0-1.239-1.133,6.094,6.094,0,0,0-2.4-1.278,3.882,3.882,0,0,1,2.276-.2c4,.758,6.687,8.736,8.152,11.758.107.214-.186.48-.345.267" fill="#fff"/>
        <path id="Trazado_1914" data-name="Trazado 1914" d="M76.1,51.407c-.672-1.488,10.077,3.675,21.281,1.367,2.294-.472,8.685-3.049,12.24-3.049s7.723,2.884,12.638,3.414c1.681.182.229,14.734-4.067,21.1-1.413,2.092-7.432,6.382-11.11,6.76-8.636.888-23.433-5.277-25.685-8.157-1.807-2.312,1.07-7.318-5.3-21.432" fill="#fff"/>
        <path id="Trazado_1915" data-name="Trazado 1915" d="M121.089,56.325a50.486,50.486,0,0,0-9.706-3.1c-2.883-.567-5.489.485-8.223,1.458-7.323,2.6-14.7,2.31-22.076.207-.089-.026-.121.124-.037.16A29.233,29.233,0,0,0,99.521,56.58c3.36-.779,6.716-2.589,10.192-2.371,3.8.238,7.486,2.045,11.242,2.7.317.055.446-.449.134-.582" fill="#bdbfe1"/>
        <path id="Trazado_1916" data-name="Trazado 1916" d="M115.631,73.151c-2.329,1.123-4.624,2.767-7.044,3.556-2.894.942-6.316-.011-9.177-.683C94,74.754,88.8,72.53,83.513,70.7c-.044-.016-.059.06-.019.08a70.224,70.224,0,0,0,18.3,6.415c2.112.375,4.448.914,6.553.281,2.544-.765,5.079-2.656,7.339-4.176.066-.045.02-.188-.054-.152" fill="#bdbfe1"/>
        <path id="Trazado_1917" data-name="Trazado 1917" d="M119.243,61.223c-5.507-1.623-10.635-1.219-16.224-.475a64.785,64.785,0,0,1-19.045-.355c-.061-.01-.089.1-.026.11a55.3,55.3,0,0,0,16.986.884c2.75-.285,5.481-.8,8.238-.994a32.092,32.092,0,0,1,9.988,1.182c.195.047.279-.293.083-.352" fill="#bdbfe1"/>
        <path id="Trazado_1918" data-name="Trazado 1918" d="M117.946,66.8a27.182,27.182,0,0,1-16.113,3.532c-5.719-.528-11.219-2.684-16.687-4.566-.072-.025-.1.1-.031.131,10.961,4.627,22.07,7.752,32.974,1.236.216-.129.072-.449-.143-.333" fill="#bdbfe1"/>
        <path id="Trazado_1919" data-name="Trazado 1919" d="M233.79,136.982a40.4,40.4,0,1,1-40.4-40.4A40.4,40.4,0,0,1,233.79,136.982Z" fill="none" stroke="#3e145e" stroke-miterlimit="10" stroke-width="1.5"/>
        <path id="Trazado_1920" data-name="Trazado 1920" d="M340.337,71.411a40.4,40.4,0,1,1-40.4-40.4A40.4,40.4,0,0,1,340.337,71.411Z" fill="none" stroke="#3e145e" stroke-miterlimit="10" stroke-width="1.5"/>
        <path id="Trazado_1921" data-name="Trazado 1921" d="M450.193,71.411a40.4,40.4,0,1,1-40.4-40.4A40.4,40.4,0,0,1,450.193,71.411Z" fill="none" stroke="#3e145e" stroke-miterlimit="10" stroke-width="1.5"/>
        <path id="Trazado_1922" data-name="Trazado 1922" d="M340.337,203.05a40.4,40.4,0,1,1-40.4-40.4A40.4,40.4,0,0,1,340.337,203.05Z" fill="none" stroke="#3e145e" stroke-miterlimit="10" stroke-width="1.5"/>
        <path id="Trazado_1923" data-name="Trazado 1923" d="M448.788,203.05a40.4,40.4,0,1,1-40.4-40.4A40.4,40.4,0,0,1,448.788,203.05Z" fill="none" stroke="#3e145e" stroke-miterlimit="10" stroke-width="1.5"/>
        <line id="Línea_92" data-name="Línea 92" x2="38.173" y2="21.426" transform="translate(227.962 158.242)" fill="none" stroke="#3e145e" stroke-miterlimit="10" stroke-width="1.5"/>
        <line id="Línea_93" data-name="Línea 93" y1="21.304" x2="38.507" transform="translate(226.253 92.54)" fill="none" stroke="#3e145e" stroke-miterlimit="10" stroke-width="1.5"/>
        <line id="Línea_94" data-name="Línea 94" y1="0.381" x2="29.194" transform="translate(340.285 69.306)" fill="none" stroke="#3e145e" stroke-miterlimit="10" stroke-width="1.5"/>
        <line id="Línea_95" data-name="Línea 95" x2="44.984" y2="55.002" transform="translate(448.788 82.326)" fill="none" stroke="#3e145e" stroke-miterlimit="10" stroke-width="1.5"/>
        <line id="Línea_96" data-name="Línea 96" y1="50.011" transform="translate(406.681 112.988)" fill="none" stroke="#3e145e" stroke-miterlimit="10" stroke-width="1.5"/>
        <line id="Línea_97" data-name="Línea 97" y1="62.484" x2="45.151" transform="translate(448.621 137.328)" fill="none" stroke="#3e145e" stroke-miterlimit="10" stroke-width="1.5"/>
        <line id="Línea_98" data-name="Línea 98" y1="0.467" x2="27.96" transform="translate(340.034 207.799)" fill="none" stroke="#3e145e" stroke-miterlimit="10" stroke-width="1.5"/>
        <line id="Línea_99" data-name="Línea 99" y2="50.845" transform="translate(299.94 112.154)" fill="none" stroke="#3e145e" stroke-miterlimit="10" stroke-width="1.5"/>
        <line id="Línea_100" data-name="Línea 100" y1="25.268" x2="155.198" transform="translate(233.352 106.113)" fill="none" stroke="#3e145e" stroke-miterlimit="10" stroke-width="1.5"/>
        <line id="Línea_101" data-name="Línea 101" x2="146.308" y2="33.165" transform="translate(233.79 140.045)" fill="none" stroke="#3e145e" stroke-miterlimit="10" stroke-width="1.5"/>
        <line id="Línea_102" data-name="Línea 102" x2="59.189" y2="68.086" transform="translate(327.614 101.172)" fill="none" stroke="#3e145e" stroke-miterlimit="10" stroke-width="1.5"/>
        <line id="Línea_103" data-name="Línea 103" y1="63.175" x2="69.188" transform="translate(326.117 109.465)" fill="none" stroke="#3e145e" stroke-miterlimit="10" stroke-width="1.5"/>
        <path id="Trazado_1924" data-name="Trazado 1924" d="M499.09,138.967a6.5,6.5,0,1,1-6.5-6.5,6.5,6.5,0,0,1,6.5,6.5" fill="#3e145e"/>
      </g>
    </g>
  </g>
</svg>
