<svg id="Grupo_179" data-name="Grupo 179" xmlns="http://www.w3.org/2000/svg" xmlns:xlink="http://www.w3.org/1999/xlink" width="693.958" height="323.121" viewBox="0 0 693.958 323.121">
  <defs>
    <clipPath id="clip-path">
      <rect id="Rectángulo_110" data-name="Rectángulo 110" width="693.958" height="323.121" fill="none"/>
    </clipPath>
  </defs>
  <g id="Grupo_178" data-name="Grupo 178" clip-path="url(#clip-path)">
    <path id="Trazado_829" data-name="Trazado 829" d="M154.8,320.717c-19.334-11.842-25-35.646-25.566-57.317-.1-3.618-.722-7.4.8-10.671s5.4-5.677,8.727-4.35c2.757,1.1,4.113,4.148,5.768,6.636a21.168,21.168,0,0,0,8.955,7.576c2.371,1.054,5.258,1.611,7.453.223,3.009-1.906,3.117-6.23,2.878-9.82q-.669-10.034-1.337-20.067c-.239-3.588-.471-7.253.44-10.729s3.188-6.789,6.545-7.952,7.7.552,8.634,4.022a33.4,33.4,0,0,1,.372,4.465c.189,1.484.983,3.091,2.424,3.421,1.459.335,2.834-.77,3.843-1.885,3.488-3.849,5.72-8.671,7.79-13.457s4.064-9.678,7.188-13.835,7.586-7.571,12.71-8.173,10.795,2.242,12.4,7.211-1.034,10.3-4,14.588A80.277,80.277,0,0,1,205.1,227.516a6.613,6.613,0,0,0-2.61,3.17c-.635,2.441,1.776,4.681,4.187,5.325,2.73.73,5.617.277,8.437.437s5.926,1.213,7.145,3.795c1.692,3.581-1.145,7.613-4.013,10.314a68.773,68.773,0,0,1-19.611,12.955c-2.582,1.126-5.311,2.142-7.328,4.126s-3.109,5.289-1.67,7.74,4.792,3.064,7.527,2.383,5.121-2.331,7.7-3.484c4.822-2.161,11.213-2.205,14.631,1.869,2.246,2.677,2.665,6.569,1.816,9.974a26.228,26.228,0,0,1-4.907,9.2c-7.348,9.756-17.021,17.836-28.228,22.5s-21.747,6.374-33.373,2.9" fill="#f5f5f5"/>
    <path id="Trazado_830" data-name="Trazado 830" d="M159.561,306.823a321.942,321.942,0,0,1,10.681-35.408q1.657-4.628,3.276-9.137c1.082-3,2.155-5.969,3.384-8.81a160.956,160.956,0,0,1,8-15.925c2.789-4.942,5.616-9.531,8.291-13.8s5.262-8.2,7.764-11.678a127.623,127.623,0,0,1,13.016-15.534c1.675-1.708,3.017-2.99,3.939-3.846.443-.407.792-.727,1.053-.968a2.879,2.879,0,0,1,.374-.312,2.485,2.485,0,0,1-.327.362L218,192.781c-.89.888-2.2,2.2-3.847,3.931a135.129,135.129,0,0,0-12.821,15.629c-2.47,3.489-5.018,7.424-7.678,11.7s-5.458,8.872-8.227,13.81a162.721,162.721,0,0,0-7.931,15.879c-1.219,2.828-2.28,5.775-3.363,8.78s-2.166,6.049-3.271,9.133a330.24,330.24,0,0,0-10.71,35.323" fill="#e1e1e1"/>
    <path id="Trazado_831" data-name="Trazado 831" d="M177.089,253.431a7.294,7.294,0,0,1-.443-1.51c-.248-.981-.561-2.411-.921-4.185-.724-3.544-1.556-8.472-2.452-13.909s-1.8-10.343-2.572-13.866c-.383-1.763-.707-3.187-.943-4.168a7.226,7.226,0,0,1-.295-1.547,7.237,7.237,0,0,1,.542,1.478c.313.962.708,2.374,1.149,4.128.9,3.509,1.873,8.418,2.77,13.864l2.261,13.934c.282,1.674.521,3.085.714,4.218a7.072,7.072,0,0,1,.19,1.563" fill="#e1e1e1"/>
    <path id="Trazado_832" data-name="Trazado 832" d="M222.73,242.018a10.143,10.143,0,0,1-1.828.332c-1.178.176-2.884.423-4.982.795-4.2.712-9.968,1.9-16.274,3.485s-11.95,3.288-16,4.629c-2.03.655-3.657,1.23-4.784,1.621a10.027,10.027,0,0,1-1.776.551,9.829,9.829,0,0,1,1.684-.795c1.1-.466,2.71-1.11,4.726-1.826,4.019-1.459,9.663-3.226,15.987-4.831a163.258,163.258,0,0,1,16.361-3.3c2.114-.314,3.835-.491,5.027-.587a9.713,9.713,0,0,1,1.856-.073" fill="#e1e1e1"/>
    <path id="Trazado_833" data-name="Trazado 833" d="M160.077,305.939a2.3,2.3,0,0,1-.351-.543c-.24-.439-.534-.975-.89-1.623-.767-1.412-1.822-3.485-3.094-6.063-2.546-5.153-5.839-12.383-9.365-20.41s-6.75-15.28-9.185-20.479c-1.191-2.528-2.173-4.606-2.9-6.151-.312-.67-.569-1.224-.78-1.678a2.421,2.421,0,0,1-.232-.607,2.452,2.452,0,0,1,.351.546c.24.438.534.972.889,1.621.767,1.412,1.824,3.484,3.1,6.062,2.547,5.154,5.839,12.384,9.366,20.414s6.748,15.277,9.184,20.477l2.9,6.149c.313.671.57,1.225.781,1.679a2.419,2.419,0,0,1,.232.606" fill="#e1e1e1"/>
    <path id="Trazado_834" data-name="Trazado 834" d="M220.225,282.468a2.487,2.487,0,0,1-.594.288l-1.745.7-6.44,2.525c-5.438,2.134-12.914,5.166-21.171,8.528s-15.771,6.331-21.254,8.352c-2.741,1.012-4.967,1.808-6.517,2.327-.717.234-1.307.428-1.788.587a2.45,2.45,0,0,1-.638.16,2.49,2.49,0,0,1,.593-.288l1.745-.7,6.44-2.525c5.437-2.133,12.915-5.166,21.174-8.53s15.766-6.329,21.25-8.35c2.742-1.012,4.967-1.808,6.518-2.326l1.788-.587a2.409,2.409,0,0,1,.639-.161" fill="#e1e1e1"/>
    <path id="Trazado_835" data-name="Trazado 835" d="M185,109.755c-3.3,8.255-8.577,21.6-11,27.732a3.526,3.526,0,0,0,1.976,4.572l22.553,8.983a3.527,3.527,0,0,0,4.582-1.973L214.054,121.6a7.832,7.832,0,0,0-4.377-10.173l1.609-4.041L196.517,101.5l-1.522,3.821-.056-.02A7.827,7.827,0,0,0,185,109.755" fill="#f5f5f5"/>
    <path id="Trazado_836" data-name="Trazado 836" d="M196.313,102.012l-.732,1.838,14.56,6.407.942-2.362Z" fill="#e1e1e1"/>
    <path id="Trazado_837" data-name="Trazado 837" d="M210.574,109.062l-14.634-5.829a1.93,1.93,0,0,1-1.079-2.508l1.1-2.759a2.991,2.991,0,0,1,3.885-1.673l12.665,5.044a2.991,2.991,0,0,1,1.671,3.887l-1.1,2.758a1.931,1.931,0,0,1-2.509,1.08" fill="#ececec"/>
    <path id="Trazado_838" data-name="Trazado 838" d="M196.467,103.475a18.75,18.75,0,0,1,1.26-3.727,18.741,18.741,0,0,1,1.647-3.572,18.519,18.519,0,0,1-1.26,3.727,18.67,18.67,0,0,1-1.647,3.572" fill="#e1e1e1"/>
    <path id="Trazado_839" data-name="Trazado 839" d="M198.414,104.25a18.65,18.65,0,0,1,1.259-3.727,18.888,18.888,0,0,1,1.647-3.572,18.52,18.52,0,0,1-1.26,3.727,18.668,18.668,0,0,1-1.646,3.572" fill="#e1e1e1"/>
    <path id="Trazado_840" data-name="Trazado 840" d="M200.361,105.026a18.728,18.728,0,0,1,1.259-3.727,18.7,18.7,0,0,1,1.648-3.572,18.641,18.641,0,0,1-1.261,3.727,18.706,18.706,0,0,1-1.646,3.572" fill="#e1e1e1"/>
    <path id="Trazado_841" data-name="Trazado 841" d="M202.307,105.8a18.7,18.7,0,0,1,1.259-3.727,18.7,18.7,0,0,1,1.648-3.572,18.673,18.673,0,0,1-1.26,3.727,18.744,18.744,0,0,1-1.647,3.572" fill="#e1e1e1"/>
    <path id="Trazado_842" data-name="Trazado 842" d="M204.253,106.576a18.7,18.7,0,0,1,1.26-3.727,18.741,18.741,0,0,1,1.647-3.572A18.673,18.673,0,0,1,205.9,103a18.7,18.7,0,0,1-1.647,3.572" fill="#e1e1e1"/>
    <path id="Trazado_843" data-name="Trazado 843" d="M206.2,107.351a18.672,18.672,0,0,1,1.26-3.727,18.667,18.667,0,0,1,1.647-3.572,18.673,18.673,0,0,1-1.26,3.727,18.67,18.67,0,0,1-1.647,3.572" fill="#e1e1e1"/>
    <path id="Trazado_844" data-name="Trazado 844" d="M208.146,108.127a18.673,18.673,0,0,1,1.26-3.727,18.668,18.668,0,0,1,1.647-3.572,18.6,18.6,0,0,1-1.26,3.727,18.67,18.67,0,0,1-1.647,3.572" fill="#e1e1e1"/>
    <path id="Trazado_845" data-name="Trazado 845" d="M210.092,108.9a18.7,18.7,0,0,1,1.26-3.727A18.743,18.743,0,0,1,213,101.6a18.594,18.594,0,0,1-1.26,3.727,18.633,18.633,0,0,1-1.647,3.572" fill="#e1e1e1"/>
    <path id="Trazado_846" data-name="Trazado 846" d="M201.751,137.255l-18.407-7.332a1.482,1.482,0,0,1-.829-1.926l4.478-11.243a1.482,1.482,0,0,1,1.926-.829l18.407,7.331a1.484,1.484,0,0,1,.829,1.927l-4.478,11.243a1.482,1.482,0,0,1-1.926.829" fill="#ececec"/>
    <path id="Trazado_847" data-name="Trazado 847" d="M202.093,136.278a1.612,1.612,0,0,1,.077-.241c.065-.176.145-.393.242-.659l.94-2.472c.831-2.145,2-5.167,3.427-8.84l.092.215-18.563-7.348c-.061.025.511-.221.268-.115v0l0,.007,0,.013-.01.025-.021.051-.04.1-.081.2-.16.4-.32.8-.634,1.589q-.629,1.577-1.238,3.1c-.814,2.031-1.6,3.986-2.342,5.846l-.108-.249c5.4,2.19,9.99,4.054,13.276,5.389l3.819,1.576,1.023.433a2.853,2.853,0,0,1,.361.168,1.962,1.962,0,0,1-.337-.11l-1-.375-3.816-1.465-13.462-5.26-.179-.07.071-.179c.738-1.862,1.513-3.821,2.319-5.855q.606-1.527,1.232-3.1.315-.788.633-1.589l.319-.8.161-.4.081-.2.04-.1.019-.05.011-.026.005-.012,0-.007v0c-.242.1.331-.144.273-.118l18.532,7.427.156.063-.063.153c-1.508,3.687-2.747,6.719-3.628,8.872l-1,2.406-.265.617a.892.892,0,0,1-.1.2" fill="#e1e1e1"/>
    <path id="Trazado_848" data-name="Trazado 848" d="M202.5,126.916a55.351,55.351,0,0,1-6.38-2.316,55.29,55.29,0,0,1-6.225-2.705,55.588,55.588,0,0,1,6.379,2.317,55.257,55.257,0,0,1,6.226,2.7" fill="#e1e1e1"/>
    <path id="Trazado_849" data-name="Trazado 849" d="M201.643,129.059a55.354,55.354,0,0,1-6.38-2.316,55.292,55.292,0,0,1-6.225-2.7,55.356,55.356,0,0,1,6.379,2.317,55.255,55.255,0,0,1,6.226,2.7" fill="#e1e1e1"/>
    <path id="Trazado_850" data-name="Trazado 850" d="M200.823,131.118a55.425,55.425,0,0,1-6.38-2.316,55.175,55.175,0,0,1-6.225-2.705,55.637,55.637,0,0,1,6.38,2.317,55.19,55.19,0,0,1,6.225,2.7" fill="#e1e1e1"/>
    <path id="Trazado_851" data-name="Trazado 851" d="M208.884,110.959a66.011,66.011,0,0,1-6.956-2.545,66.2,66.2,0,0,1-6.8-2.934,65.924,65.924,0,0,1,6.956,2.545,66.056,66.056,0,0,1,6.8,2.934" fill="#e1e1e1"/>
    <path id="Trazado_852" data-name="Trazado 852" d="M175.852,136.38a8.945,8.945,0,0,1,.445-1.329c.347-.906.806-2.109,1.362-3.566,1.166-3,2.8-7.143,4.635-11.705l2.6-6.426a13.836,13.836,0,0,1,2.929-4.874,6.156,6.156,0,0,1,3.406-1.739,4.328,4.328,0,0,1,1.05,0,1.2,1.2,0,0,1,.355.085,8.68,8.68,0,0,0-1.381.079,6.227,6.227,0,0,0-3.224,1.79,13.967,13.967,0,0,0-2.779,4.808c-.793,1.985-1.659,4.157-2.569,6.437-1.833,4.562-3.514,8.684-4.75,11.659-.605,1.437-1.106,2.623-1.483,3.517a9.194,9.194,0,0,1-.6,1.268" fill="#fff"/>
    <path id="Trazado_853" data-name="Trazado 853" d="M201.2,150.887a5.947,5.947,0,0,1-.888-.718c-.272-.244-.609-.538-1.019-.858s-.854-.711-1.389-1.088a38.836,38.836,0,0,0-3.821-2.531,38.189,38.189,0,0,0-10.391-4.138,39.3,39.3,0,0,0-4.515-.788c-.648-.094-1.239-.118-1.756-.164s-.965-.068-1.331-.078a6.171,6.171,0,0,1-1.138-.088,5.907,5.907,0,0,1,1.141-.074c.367-.015.817-.021,1.339.007s1.12.028,1.774.1a34.613,34.613,0,0,1,4.572.706,35.8,35.8,0,0,1,10.5,4.181,34.717,34.717,0,0,1,3.807,2.63c.527.395.964.8,1.359,1.144s.722.652.979.916a5.875,5.875,0,0,1,.777.837" fill="#fff"/>
    <path id="Trazado_854" data-name="Trazado 854" d="M196.732,16.34c-.871-7.019-6.81-13.564-13.882-13.568a15.5,15.5,0,0,0-11,5.232,28.654,28.654,0,0,0-2.79,3.308,28.564,28.564,0,0,0-2.084-3.793,15.5,15.5,0,0,0-9.759-7.3c-6.935-1.388-14.045,3.86-16.281,10.57s-.374,14.244,3.3,20.287S154.241,45.022,165.9,48.942c8.039-1.03,18.807-8.162,23.6-13.362s8.1-12.221,7.23-19.24" fill="#ff4f5b"/>
    <path id="Trazado_855" data-name="Trazado 855" d="M194.182,28.946a.832.832,0,0,1-.233,0l-.683-.043-2.618-.215-9.62-.881.174-.107c-1.161,3.024-2.519,6.565-4.008,10.449l-.242.63-.159-.657c-1.22-5.07-2.589-10.751-4.031-16.738-.442-1.853-.879-3.677-1.3-5.458l.408.081-7.343,10.1-.07.1-.119-.012-16.9-1.763-4.784-.535-1.265-.157a2.238,2.238,0,0,1-.432-.077,2.083,2.083,0,0,1,.439.01l1.271.094,4.795.418,16.918,1.6-.188.085c2.244-3.107,4.706-6.517,7.309-10.12l.291-.4.116.484c.426,1.78.864,3.6,1.309,5.457,1.427,5.99,2.782,11.674,3.991,16.747L176.8,38c1.519-3.872,2.9-7.4,4.086-10.418l.047-.12.126.013,9.6,1.03,2.61.305.677.091a.852.852,0,0,1,.229.047" fill="#fafafa"/>
    <rect id="Rectángulo_58" data-name="Rectángulo 58" width="5.293" height="23.717" transform="translate(17.404 60.166)" fill="#ff4f5b"/>
    <rect id="Rectángulo_59" data-name="Rectángulo 59" width="23.717" height="5.292" transform="translate(8.192 69.379)" fill="#ff4f5b"/>
    <path id="Trazado_856" data-name="Trazado 856" d="M39.747,72.081a1.821,1.821,0,0,1-.037-.32c-.018-.231-.04-.541-.068-.937q-.021-.312-.045-.69c-.029-.253-.083-.527-.129-.824a14.6,14.6,0,0,0-.418-2.036,18.87,18.87,0,0,0-2.2-5.229,19.6,19.6,0,0,0-23.543-8.351,20.508,20.508,0,0,0-2.552,1.123,20.656,20.656,0,0,0-2.4,1.543,22.125,22.125,0,0,0-2.218,1.888,21.946,21.946,0,0,0-1.917,2.269,18.96,18.96,0,0,0-2.8,5.389,19.4,19.4,0,0,0,0,12.346,18.977,18.977,0,0,0,2.8,5.392,22.052,22.052,0,0,0,1.917,2.269A21.9,21.9,0,0,0,8.357,87.8a20.232,20.232,0,0,0,2.4,1.543,20.369,20.369,0,0,0,2.552,1.124,19.65,19.65,0,0,0,23.544-8.352,18.915,18.915,0,0,0,2.2-5.228,14.516,14.516,0,0,0,.418-2.036c.046-.3.1-.571.129-.824s.031-.482.045-.69c.028-.4.05-.706.068-.937a1.821,1.821,0,0,1,.037-.32,1.8,1.8,0,0,1,0,.32c-.006.233-.016.545-.026.942-.008.21-.016.442-.026.695s-.07.531-.109.832a14.069,14.069,0,0,1-.383,2.057,18.721,18.721,0,0,1-2.154,5.308,19.9,19.9,0,0,1-13.4,9.435,19.977,19.977,0,0,1-10.481-.84,20.832,20.832,0,0,1-2.607-1.14A20.856,20.856,0,0,1,8.12,88.122,22.656,22.656,0,0,1,5.851,86.2a22.5,22.5,0,0,1-1.959-2.313,19.309,19.309,0,0,1-2.861-5.5,19.779,19.779,0,0,1,0-12.608,19.32,19.32,0,0,1,2.86-5.5,23,23,0,0,1,1.96-2.312A22.514,22.514,0,0,1,8.121,56.04a20.645,20.645,0,0,1,2.451-1.568,20.882,20.882,0,0,1,2.606-1.14,19.983,19.983,0,0,1,10.48-.84,19.9,19.9,0,0,1,13.4,9.434,18.727,18.727,0,0,1,2.155,5.308,14.056,14.056,0,0,1,.383,2.058c.039.3.088.577.109.831s.018.486.026.695c.01.4.02.71.026.943a1.8,1.8,0,0,1,0,.32" fill="#ff4f5b"/>
    <path id="Trazado_857" data-name="Trazado 857" d="M71.268,92.253c-.286-.115-11.467-3.047-10.791,8.259s11.889,8.295,11.889,7.97-1.1-16.229-1.1-16.229" fill="#c78976"/>
    <path id="Trazado_858" data-name="Trazado 858" d="M68.656,104.406c-.052-.033-.188.149-.512.322a1.969,1.969,0,0,1-1.47.118c-1.221-.367-2.34-2.2-2.517-4.237a6.513,6.513,0,0,1,.382-2.854,2.279,2.279,0,0,1,1.391-1.6,1,1,0,0,1,1.195.47c.171.307.112.537.174.553.033.026.23-.2.112-.665a1.261,1.261,0,0,0-.488-.682,1.494,1.494,0,0,0-1.107-.223,2.775,2.775,0,0,0-1.952,1.877,6.692,6.692,0,0,0-.494,3.192c.209,2.273,1.5,4.336,3.165,4.71a2.111,2.111,0,0,0,1.784-.407c.333-.3.377-.556.337-.574" fill="#bf654e"/>
    <path id="Trazado_859" data-name="Trazado 859" d="M99.5,51.86c5.745,0,11.6,0,18.787,3.756,4.535,2.368,7.363,6.121,9.727,10.659a24.538,24.538,0,0,1,2.673,11.933c-.208,3.91-.222,6.644-1.785,10.235" fill="#1a2e35"/>
    <path id="Trazado_860" data-name="Trazado 860" d="M97.205,52.747a30.484,30.484,0,0,1,32.576,28.806c.741,14.164,1.393,29.485,1.236,37.2-.336,16.557-16.919,19-16.919,19s.366,4.91.774,11a21.809,21.809,0,1,1-43.553,2.274L68.855,84.291a30.5,30.5,0,0,1,28.35-31.544" fill="#c78976"/>
    <path id="Trazado_861" data-name="Trazado 861" d="M114.1,137.752s-10.176.529-21.242-6.546c0,0,5.008,12.047,21.543,10.688Z" fill="#bf654e"/>
    <path id="Trazado_862" data-name="Trazado 862" d="M123.44,90.766a2.365,2.365,0,0,1-2.3,2.368,2.262,2.262,0,0,1-2.421-2.152,2.365,2.365,0,0,1,2.3-2.369,2.263,2.263,0,0,1,2.423,2.153" fill="#1a2e35"/>
    <path id="Trazado_863" data-name="Trazado 863" d="M125.734,87.418c-.3.306-2.076-1.034-4.622-1.048-2.541-.05-4.419,1.244-4.692.93-.135-.138.168-.693.986-1.278a6.479,6.479,0,0,1,3.76-1.126,6.22,6.22,0,0,1,3.674,1.218c.779.607,1.04,1.167.894,1.3" fill="#1a2e35"/>
    <path id="Trazado_864" data-name="Trazado 864" d="M98.485,90.766a2.364,2.364,0,0,1-2.3,2.367,2.262,2.262,0,0,1-2.421-2.151,2.367,2.367,0,0,1,2.3-2.369,2.263,2.263,0,0,1,2.422,2.153" fill="#1a2e35"/>
    <path id="Trazado_865" data-name="Trazado 865" d="M100.717,87.693c-.3.307-2.079-1.034-4.622-1.047-2.541-.05-4.42,1.244-4.693.93-.134-.139.166-.693.987-1.279a6.492,6.492,0,0,1,3.76-1.126,6.232,6.232,0,0,1,3.674,1.219c.777.607,1.039,1.167.894,1.3" fill="#1a2e35"/>
    <path id="Trazado_866" data-name="Trazado 866" d="M109.8,106.638c-.011-.145,1.573-.4,4.14-.712.649-.062,1.265-.186,1.379-.629a3.314,3.314,0,0,0-.418-1.93Q114,101,113.019,98.4c-2.613-7.067-4.5-12.875-4.212-12.978s2.635,5.542,5.247,12.607q.942,2.615,1.8,4.993a3.755,3.755,0,0,1,.316,2.552,1.629,1.629,0,0,1-1.076.942,4.406,4.406,0,0,1-1.105.145c-2.58.118-4.18.117-4.189-.028" fill="#1a2e35"/>
    <path id="Trazado_867" data-name="Trazado 867" d="M102.3,108.339c.415-.021.4,2.741,2.746,4.721s5.291,1.7,5.31,2.085c.037.174-.66.531-1.9.555a6.875,6.875,0,0,1-4.432-1.585,5.98,5.98,0,0,1-2.125-3.956c-.1-1.156.217-1.837.4-1.82" fill="#1a2e35"/>
    <path id="Trazado_868" data-name="Trazado 868" d="M101.453,77.726c-.257.689-2.8.341-5.782.677-3,.276-5.41,1.131-5.8.508-.175-.3.25-.947,1.229-1.609a10.125,10.125,0,0,1,8.825-.9c1.092.45,1.639,1,1.529,1.326" fill="#1a2e35"/>
    <path id="Trazado_869" data-name="Trazado 869" d="M125.377,78.359c-.452.574-2.2-.04-4.309-.084-2.106-.12-3.9.356-4.3-.251-.178-.3.107-.872.892-1.413a6.24,6.24,0,0,1,6.938.27c.74.6.979,1.2.78,1.478" fill="#1a2e35"/>
    <path id="Trazado_870" data-name="Trazado 870" d="M69.05,89.459s.72,3.829.913,5.557c.07.631-.012,7.648,1.691,8,1.466.3,4.38-1.033,5.677-3.934s3.765-9.865,3.5-13.031a45.829,45.829,0,0,1,.3-12.954,18.588,18.588,0,0,1,6.308-11.06c3.414-2.67,8.335-3.606,12.209-1.662,2.39,1.2,4.179,3.324,6.408,4.8a9.935,9.935,0,0,0,6.828,1.777,6.424,6.424,0,0,0,5.278-4.328c.71-2.527-.592-5.295-2.615-6.969a15.987,15.987,0,0,0-7.21-2.952,38.782,38.782,0,0,0-21.5,1.5c-6.785,2.637-12.806,7.7-15.707,14.379-3.353,7.723-2.964,12.457-2.078,20.874" fill="#1a2e35"/>
    <path id="Trazado_871" data-name="Trazado 871" d="M106.9,90.873a19.617,19.617,0,0,0-.432-2.728,11.209,11.209,0,0,0-4.1-6.1,11.071,11.071,0,0,0-10.487-1.561,11.094,11.094,0,0,0-5.128,3.858,11,11,0,0,0,0,13.059,11.1,11.1,0,0,0,5.129,3.858,11.156,11.156,0,0,0,14.59-7.66,19.711,19.711,0,0,0,.431-2.727.61.61,0,0,1,.012.182c0,.147,0,.323-.007.537a5.182,5.182,0,0,1-.067.872,8.079,8.079,0,0,1-.211,1.176,11.328,11.328,0,0,1-8.871,8.456,11.443,11.443,0,0,1-6.007-.474,11.426,11.426,0,0,1-5.328-3.978,11.375,11.375,0,0,1,0-13.543,11.415,11.415,0,0,1,5.328-3.977,11.42,11.42,0,0,1,6.006-.474,11.327,11.327,0,0,1,8.872,8.455,8.09,8.09,0,0,1,.211,1.177,5.171,5.171,0,0,1,.067.871c0,.215.005.391.007.537a.615.615,0,0,1-.012.183" fill="#1a2e35"/>
    <path id="Trazado_872" data-name="Trazado 872" d="M136.048,90.873a19.3,19.3,0,0,0-.431-2.728,11.209,11.209,0,0,0-4.1-6.1,11.071,11.071,0,0,0-10.487-1.561,11.094,11.094,0,0,0-5.128,3.858,11,11,0,0,0,0,13.059,11.09,11.09,0,0,0,5.129,3.858,11.154,11.154,0,0,0,14.589-7.66,19.328,19.328,0,0,0,.431-2.727.548.548,0,0,1,.013.182c0,.147,0,.323-.007.537a5.092,5.092,0,0,1-.068.872,7.933,7.933,0,0,1-.21,1.176A11.331,11.331,0,0,1,126.9,102.1a11.443,11.443,0,0,1-6.007-.474,11.435,11.435,0,0,1-5.329-3.978,11.38,11.38,0,0,1,0-13.543,11.424,11.424,0,0,1,5.329-3.977,11.419,11.419,0,0,1,6.006-.474,11.327,11.327,0,0,1,8.872,8.455,7.944,7.944,0,0,1,.21,1.177,5.082,5.082,0,0,1,.068.871c0,.215.005.391.007.537a.552.552,0,0,1-.013.183" fill="#1a2e35"/>
    <path id="Trazado_873" data-name="Trazado 873" d="M113.811,89.673a5.619,5.619,0,0,1-1.039-.359,6.7,6.7,0,0,0-5.036.335c-.6.292-.94.545-.983.493-.032-.033.245-.375.84-.752a5.769,5.769,0,0,1,5.285-.351c.64.294.96.6.933.634" fill="#1a2e35"/>
    <path id="Trazado_874" data-name="Trazado 874" d="M118.326,61.737c.162-.859-.12-1.341.362-1.692.553-.4,1.6.652,1.978,1.071.122.134.512-.389.662-.489a2.909,2.909,0,0,0,.291-1.1c-.072-.6-1.013-.76-1.455-1.168a4.463,4.463,0,0,0-1.561-.886,1.49,1.49,0,0,0-1.495.088,1.445,1.445,0,0,0-.333,1.12A3.133,3.133,0,0,0,117,59.849a1.641,1.641,0,0,0,.8.855" fill="#1a2e35"/>
    <path id="Trazado_875" data-name="Trazado 875" d="M68.435,80.659s8.117,2.977,12.344,4.767l-.239-4.152L68.729,76.6s-.3,3.084-.294,4.056" fill="#ececec"/>
    <path id="Trazado_876" data-name="Trazado 876" d="M69.193,74.209a45.417,45.417,0,0,1,5.747,2.2A45.457,45.457,0,0,1,80.525,79a45.482,45.482,0,0,1-5.747-2.2,45.545,45.545,0,0,1-5.585-2.588" fill="#ececec"/>
    <path id="Trazado_877" data-name="Trazado 877" d="M71.64,161.675l-.627-19.65s3.9,17.983,24.35,17.749c19.541-.224,19.183-15.844,19.183-15.844l.7,7.92v31.993L102.5,236.034,86.222,238.1,68.234,166.756Z" fill="#ff4f5b"/>
    <path id="Trazado_878" data-name="Trazado 878" d="M112.728,155.385a1.978,1.978,0,0,1-.235.418,11.17,11.17,0,0,1-.775,1.14,16.786,16.786,0,0,1-3.639,3.523,20.947,20.947,0,0,1-6.8,3.192,23.985,23.985,0,0,1-9.172.635,29.878,29.878,0,0,1-8.811-2.652,38.194,38.194,0,0,1-6.434-3.878,44.4,44.4,0,0,1-3.9-3.228c-.442-.4-.763-.736-.987-.957a2.041,2.041,0,0,1-.322-.357,2.155,2.155,0,0,1,.38.3l1.038.9c.9.777,2.232,1.874,3.963,3.11a39.9,39.9,0,0,0,6.424,3.769,30.24,30.24,0,0,0,8.7,2.586,24.057,24.057,0,0,0,9.018-.592,21.2,21.2,0,0,0,6.728-3.062,17.868,17.868,0,0,0,3.682-3.383c.745-.923,1.1-1.481,1.138-1.457" fill="#1a2e35"/>
    <path id="Trazado_879" data-name="Trazado 879" d="M98.539,323.121l-.295-92.744L71.907,162.689l-.886-20.371L54.975,154.456s-23.368,80.416-23.728,77.628-.008,91.037-.008,91.037Z" fill="#ececec"/>
    <path id="Trazado_880" data-name="Trazado 880" d="M97.907,322.864c-.115,0-.208-20.9-.208-46.672s.093-46.677.208-46.677.209,20.894.209,46.677-.094,46.672-.209,46.672" fill="#1a2e35"/>
    <path id="Trazado_881" data-name="Trazado 881" d="M55.209,167.7l3.257,2.466-2.29,15,38.445,40.269L59.7,179.59,62.679,167.7Z" fill="#e1e1e1"/>
    <path id="Trazado_882" data-name="Trazado 882" d="M99.981,275.61l-59-17.3L39.028,213.5,55.21,154.456s-38.574,19.243-41.2,31.489S5.06,227.961,4.385,249.477c-.6,19.238-.69,32.1,3.7,38.242,12.581,17.587,95.494,20.728,128.618-.025" fill="#ececec"/>
    <path id="Trazado_883" data-name="Trazado 883" d="M95.363,226.415a1.5,1.5,0,0,1-.191-.217l-.53-.661-2-2.567-7.308-9.487-23.987-31.4q-.907-1.194-1.8-2.37l-.061-.08.025-.1c1.03-4.107,2.029-8.087,2.982-11.885l.195.25-7.469-.01h-.192v-.19c.012-4.853.023-9.3.032-13.247v-.08l.062-.046c4.866-3.7,8.828-6.709,11.6-8.812l3.182-2.39.836-.613a2.149,2.149,0,0,1,.3-.2,1.924,1.924,0,0,1-.265.235c-.2.16-.468.375-.809.649l-3.131,2.457-11.511,8.923.063-.126c.009,3.943.019,8.394.031,13.247l-.19-.191,7.469-.01h.257l-.062.251c-.949,3.8-1.943,7.78-2.968,11.888l-.036-.177,1.805,2.37L85.564,213.3l7.2,9.568,1.942,2.614.5.686a1.557,1.557,0,0,1,.157.243" fill="#1a2e35"/>
    <path id="Trazado_884" data-name="Trazado 884" d="M121.664,150.966c-4.706-8.23-7.146-7.374-7.146-7.374l.246,2.934,0,6.164-2.229,26.445L98.244,236.6l.295,86.521h54.032L159.3,217.505l-.611-45.5Z" fill="#ececec"/>
    <path id="Trazado_885" data-name="Trazado 885" d="M158.687,172.006s13.985,10.325,15.2,26.935c.984,13.492,3.241,50.432,3.651,58.475.635,12.525-9.117,41.852-34.508,33.544-15.226-4.981-71.484-24.1-71.484-24.1l3.743-23.892,66.773,3.979,1.326-55.693Z" fill="#ececec"/>
    <path id="Trazado_886" data-name="Trazado 886" d="M74.526,245.715s-18.9-2.043-23.276-.986c-4.206,1.015-10.2,6.161-10.2,6.161l.085,7.467,30.406,8.5Z" fill="#c78976"/>
    <path id="Trazado_887" data-name="Trazado 887" d="M98.244,227.961a1.208,1.208,0,0,1,.084-.257c.071-.187.165-.431.284-.739l1.13-2.824c1.009-2.47,2.451-6,4.23-10.356l6.321-15.34c.6-1.436,1.192-2.936,1.935-4.4.712-1.479,1.553-2.928,2.42-4.4a97,97,0,0,1,6-8.66c1.09-1.406,2.19-2.776,3.325-4.089l-.036.214-2.355-5.987-.078-.2.2-.069,9.849-3.348-.1.276c-4.569-7.63-8.432-14.078-11.167-18.645-1.352-2.263-2.506-4.069-3.73-4.812a4.931,4.931,0,0,0-1.494-.6,5.59,5.59,0,0,1-.547-.133,3.985,3.985,0,0,1,.56.073,4.652,4.652,0,0,1,1.544.562,6.8,6.8,0,0,1,1.894,1.838,33.1,33.1,0,0,1,1.963,2.954c2.769,4.549,6.677,10.974,11.3,18.574l.121.2-.222.076-9.84,3.375.123-.267q1.154,2.923,2.362,5.984l.046.117-.083.1c-1.124,1.3-2.223,2.669-3.307,4.069A97.733,97.733,0,0,0,115,189.862c-.864,1.455-1.7,2.894-2.413,4.359-.739,1.45-1.329,2.929-1.937,4.37l-6.4,15.307c-1.83,4.333-3.313,7.847-4.352,10.306-.514,1.194-.917,2.131-1.2,2.794-.133.3-.24.54-.322.722a1.283,1.283,0,0,1-.123.241" fill="#1a2e35"/>
    <path id="Trazado_888" data-name="Trazado 888" d="M166.359,286.312a1.97,1.97,0,0,1-.233.248l-.719.7a21.138,21.138,0,0,1-3.069,2.327,20.721,20.721,0,0,1-5.619,2.355,22.714,22.714,0,0,1-8.046.512,25.552,25.552,0,0,1-4.606-.976c-1.567-.5-3.138-1.112-4.8-1.7-3.3-1.2-6.838-2.444-10.561-3.751-7.452-2.609-15.668-5.4-24.325-8.242-17.316-5.688-33.1-10.482-44.547-13.9l-13.562-4.013-3.686-1.1-.957-.3a2.117,2.117,0,0,1-.321-.114,2.076,2.076,0,0,1,.333.073l.968.255,3.707,1.02c3.218.9,7.866,2.217,13.6,3.885,11.466,3.345,27.273,8.1,44.594,13.786,8.659,2.84,16.875,5.646,24.322,8.275,3.722,1.318,7.256,2.577,10.552,3.789,1.651.588,3.24,1.216,4.776,1.714a25.526,25.526,0,0,0,4.544.99,22.68,22.68,0,0,0,7.956-.445,20.958,20.958,0,0,0,5.591-2.268,22.8,22.8,0,0,0,3.1-2.251c.317-.282.563-.5.745-.666a2.077,2.077,0,0,1,.264-.217" fill="#1a2e35"/>
    <path id="Trazado_889" data-name="Trazado 889" d="M41.138,258.491c-.013.087-1.061-.141-2.754-.075a12.757,12.757,0,0,0-2.92.482,13.51,13.51,0,0,0-3.287,1.5,15.319,15.319,0,0,0-4.57,4.7c-.9,1.443-1.282,2.437-1.358,2.4a2.637,2.637,0,0,1,.224-.715,12.871,12.871,0,0,1,.881-1.842,14.337,14.337,0,0,1,4.6-4.9,13.055,13.055,0,0,1,3.408-1.517,11.845,11.845,0,0,1,3.016-.407,9.989,9.989,0,0,1,2.036.183,2.582,2.582,0,0,1,.726.187" fill="#1a2e35"/>
    <path id="Trazado_890" data-name="Trazado 890" d="M22.552,252.636c-.013-.006.013-.078.076-.21A2.016,2.016,0,0,1,23,251.9a3.787,3.787,0,0,1,2.1-1.041,10.707,10.707,0,0,1,3.464.007,19.965,19.965,0,0,1,4.11,1,18.029,18.029,0,0,1,6.52,3.99,13.924,13.924,0,0,1,1.511,1.769,3.317,3.317,0,0,1,.438.733c-.066.049-.727-.976-2.152-2.287a19.291,19.291,0,0,0-6.457-3.811,21.064,21.064,0,0,0-4.023-1.011,11.129,11.129,0,0,0-3.359-.1,3.855,3.855,0,0,0-2.035.867c-.391.359-.524.64-.56.619" fill="#1a2e35"/>
    <path id="Trazado_891" data-name="Trazado 891" d="M44.579,201.167a7.17,7.17,0,0,1-.27-1.216c-.119-.381-.293-.838-.475-1.372-.256-.5-.507-1.1-.873-1.713a24.264,24.264,0,0,0-3.008-4,32.259,32.259,0,0,0-4.608-4.053,27.733,27.733,0,0,0-10.075-4.628,21.137,21.137,0,0,0-3.354-.427,7.162,7.162,0,0,1-1.248-.1,7.13,7.13,0,0,1,1.252-.061,17.624,17.624,0,0,1,3.408.3,26.488,26.488,0,0,1,10.261,4.578,30.9,30.9,0,0,1,4.647,4.132,22.953,22.953,0,0,1,2.982,4.116c.356.631.593,1.25.833,1.772.166.554.32,1.027.416,1.42a7.284,7.284,0,0,1,.112,1.254" fill="#1a2e35"/>
    <path id="Trazado_892" data-name="Trazado 892" d="M156.593,269.692a1.316,1.316,0,0,1-.021-.286c0-.21-.01-.487-.017-.838-.024-.736-.052-1.822-.159-3.216a44.763,44.763,0,0,0-2.372-11.551,16.367,16.367,0,0,0-1.618-3.528,6.923,6.923,0,0,0-3.127-2.652c-2.685-1.156-5.916-1-9.2-1.189l-21.516-.9c-17.78-.773-33.595-1.441-43.53-1.972l.133-.108c-.6,3.651-1.076,6.545-1.406,8.554q-.252,1.458-.391,2.267l-.109.582a.84.84,0,0,1-.049.2.8.8,0,0,1,.014-.2c.018-.152.043-.344.074-.587q.116-.812.324-2.276c.3-2.015.74-4.917,1.29-8.576l.017-.112.116,0,43.534,1.811,21.516.937c1.653.082,3.263.121,4.837.249a14.077,14.077,0,0,1,4.487,1.008,7.244,7.244,0,0,1,3.257,2.792A16.478,16.478,0,0,1,154.3,253.7a43.414,43.414,0,0,1,2.256,11.636c.083,1.4.085,2.49.081,3.227-.01.352-.018.629-.024.839a1.437,1.437,0,0,1-.022.286" fill="#1a2e35"/>
    <path id="Trazado_893" data-name="Trazado 893" d="M143.86,217.417c.115,0,.208,6.468.208,14.444s-.093,14.445-.208,14.445-.209-6.466-.209-14.445.094-14.444.209-14.444" fill="#1a2e35"/>
    <path id="Trazado_894" data-name="Trazado 894" d="M14.477,184.5s-.05.183-.165.533-.314.862-.482,1.563c-.39,1.388-.883,3.463-1.436,6.164-1.116,5.4-2.491,13.3-4.033,23.195C7.6,220.9,6.78,226.347,5.978,232.231c-.409,2.938-.661,6-.874,9.174s-.379,6.446-.5,9.816c-.244,6.738-.388,13.857-.192,21.273.056,1.853.125,3.726.279,5.609.048.946.2,1.875.318,2.816a22.592,22.592,0,0,0,.684,2.768,15.777,15.777,0,0,0,2.655,5.076,11.464,11.464,0,0,0,4.558,3.51l.026.01.008,0a69.383,69.383,0,0,0,11.884,4.539c4.142,1.241,8.424,2.243,12.771,3.137a175.945,175.945,0,0,0,28.7,3.494,133.248,133.248,0,0,0,13.7-.357c4.464-.309,8.813-.775,13.022-1.4a137.281,137.281,0,0,0,23.375-5.433,119.863,119.863,0,0,0,18.9-8.109l.02.259-25.928-9.178-6.981-2.493-1.805-.656c-.4-.149-.609-.235-.609-.235s.213.06.623.2l1.818.618,7.006,2.422,25.971,9.056.306.107-.286.154a119.3,119.3,0,0,1-18.927,8.181,136.99,136.99,0,0,1-23.426,5.488c-4.218.632-8.577,1.105-13.05,1.418a133.347,133.347,0,0,1-13.739.369,175.578,175.578,0,0,1-28.766-3.493c-4.358-.9-8.649-1.9-12.806-3.147a69.658,69.658,0,0,1-11.96-4.577l.033.015a11.805,11.805,0,0,1-4.747-3.646,16.184,16.184,0,0,1-2.722-5.208,23.041,23.041,0,0,1-.693-2.822c-.119-.956-.275-1.907-.321-2.854-.154-1.893-.219-3.77-.274-5.628-.188-7.431-.033-14.554.223-21.3q.194-5.06.521-9.825c.22-3.173.481-6.248.9-9.194.818-5.886,1.65-11.329,2.434-16.275,1.577-9.891,2.993-17.789,4.155-23.184.576-2.7,1.092-4.771,1.506-6.154.181-.7.4-1.208.518-1.556s.2-.52.2-.52" fill="#1a2e35"/>
    <path id="Trazado_895" data-name="Trazado 895" d="M41.053,252.952c9.865-10.922,9.432-30.348,3.771-44.129-.523,14.931-2.285,28.17-3.634,42.679" fill="#e1e1e1"/>
    <path id="Trazado_896" data-name="Trazado 896" d="M44.844,211.619a2.006,2.006,0,0,1,0,.478c-.023.357-.053.809-.089,1.364-.1,1.238-.23,2.936-.393,5.009-.353,4.277-.832,10.092-1.361,16.518-.5,6.429-.96,12.246-1.3,16.525-.156,2.073-.284,3.771-.378,5.009-.047.555-.086,1.005-.118,1.362a2.023,2.023,0,0,1-.069.473,2.033,2.033,0,0,1-.015-.478c.011-.358.025-.81.04-1.366.04-1.186.127-2.9.245-5.019.243-4.237.647-10.085,1.173-16.54s1.064-12.289,1.484-16.511c.217-2.068.4-3.761.525-5,.068-.553.123-1,.167-1.357a2.021,2.021,0,0,1,.087-.47" fill="#1a2e35"/>
    <path id="Trazado_897" data-name="Trazado 897" d="M69.166,191.883c.115,0,.209,3.792.209,8.469s-.094,8.47-.209,8.47-.209-3.791-.209-8.47.094-8.469.209-8.469" fill="#1a2e35"/>
    <path id="Trazado_898" data-name="Trazado 898" d="M62.739,220.024a8.683,8.683,0,0,0,1.815,4.492,5.918,5.918,0,0,0,4.331,2.3,6.6,6.6,0,0,0,5.825-2.923c1.845-2.94,2.3-9.054.82-12.67-1.018-2.486-3.306-4.8-5.991-4.862a6.622,6.622,0,0,0-6.49,5.044" fill="#e1e1e1"/>
    <path id="Trazado_899" data-name="Trazado 899" d="M63.048,211.4a5.393,5.393,0,0,1,.652-1.729,7.083,7.083,0,0,1,1.324-1.734,6.148,6.148,0,0,1,2.5-1.466,6.273,6.273,0,0,1,1.676-.268,5.059,5.059,0,0,1,1.834.241,7.221,7.221,0,0,1,3.275,2.348A9.45,9.45,0,0,1,76.23,212.8a17.319,17.319,0,0,1,.358,4.75,13.121,13.121,0,0,1-2.046,6.917,6.188,6.188,0,0,1-2.66,2.006,7.239,7.239,0,0,1-3.013.507h.025a4.524,4.524,0,0,1-2.159-.536,7.078,7.078,0,0,1-1.624-1.132,8.074,8.074,0,0,1-1.769-2.635,7.8,7.8,0,0,1-.56-1.946,5.265,5.265,0,0,1-.05-.529.534.534,0,0,1,.006-.182,10.948,10.948,0,0,0,.783,2.577,8.119,8.119,0,0,0,1.776,2.511,6.919,6.919,0,0,0,1.574,1.057,4.265,4.265,0,0,0,2,.474H68.9a6.413,6.413,0,0,0,5.327-2.413,12.891,12.891,0,0,0,1.945-6.7c.172-3.171-.359-6.366-2.164-8.492a6.918,6.918,0,0,0-3.084-2.262,4.767,4.767,0,0,0-1.719-.248,6.068,6.068,0,0,0-1.6.229,5.992,5.992,0,0,0-2.421,1.354,7.312,7.312,0,0,0-1.341,1.644,14.831,14.831,0,0,0-.793,1.648" fill="#1a2e35"/>
    <path id="Trazado_900" data-name="Trazado 900" d="M60.863,220.183a8.678,8.678,0,0,0,1.815,4.492,5.916,5.916,0,0,0,4.33,2.3,6.6,6.6,0,0,0,5.825-2.923c1.846-2.94,2.3-9.055.821-12.67-1.019-2.486-3.306-4.8-5.992-4.862a6.623,6.623,0,0,0-6.49,5.044" fill="#e1e1e1"/>
    <path id="Trazado_901" data-name="Trazado 901" d="M61.171,211.562a5.393,5.393,0,0,1,.652-1.729,7.083,7.083,0,0,1,1.324-1.734,6.154,6.154,0,0,1,2.5-1.466,6.279,6.279,0,0,1,1.676-.268,5.064,5.064,0,0,1,1.835.241,7.221,7.221,0,0,1,3.275,2.348,9.437,9.437,0,0,1,1.924,4.008,17.28,17.28,0,0,1,.358,4.75,13.12,13.12,0,0,1-2.045,6.917A6.19,6.19,0,0,1,70,226.635a7.234,7.234,0,0,1-3.013.507h.025a4.527,4.527,0,0,1-2.159-.536,7.1,7.1,0,0,1-1.624-1.132,8.07,8.07,0,0,1-1.768-2.635,7.769,7.769,0,0,1-.561-1.946,4.924,4.924,0,0,1-.049-.529.5.5,0,0,1,.006-.182,10.861,10.861,0,0,0,.782,2.577,8.135,8.135,0,0,0,1.776,2.511A6.925,6.925,0,0,0,65,226.328a4.259,4.259,0,0,0,2,.474h.025a6.414,6.414,0,0,0,5.328-2.413,12.89,12.89,0,0,0,1.944-6.7c.172-3.171-.359-6.366-2.164-8.492a6.915,6.915,0,0,0-3.083-2.262,4.77,4.77,0,0,0-1.72-.248,6.074,6.074,0,0,0-1.6.229,5.994,5.994,0,0,0-2.42,1.354,7.256,7.256,0,0,0-1.341,1.644,14.988,14.988,0,0,0-.794,1.648" fill="#1a2e35"/>
    <path id="Trazado_902" data-name="Trazado 902" d="M64.265,210.66a4.129,4.129,0,0,0-4.305,2.48,7.112,7.112,0,0,0,.01,5.231,6.493,6.493,0,0,0,1.334,2.357A3.523,3.523,0,0,0,63.7,221.89,4.16,4.16,0,0,0,67,219.935a7.462,7.462,0,0,0,1.13-6.149c-.365-1.39-1.389-2.814-2.825-2.852" fill="#e1e1e1"/>
    <path id="Trazado_903" data-name="Trazado 903" d="M65.31,210.934a.761.761,0,0,1,.319-.008,2.214,2.214,0,0,1,.869.294,4.262,4.262,0,0,1,1.833,2.759,7.573,7.573,0,0,1-.494,4.906,6.37,6.37,0,0,1-1.8,2.359,3.47,3.47,0,0,1-3.092.74,4.3,4.3,0,0,1-2.472-2.019,9.017,9.017,0,0,1-1.029-2.769,6.16,6.16,0,0,1,.8-4.842,4.3,4.3,0,0,1,2.795-1.778,3.022,3.022,0,0,1,.915,0,.922.922,0,0,1,.307.086,6.049,6.049,0,0,0-1.192.076,4.253,4.253,0,0,0-2.584,1.788,5.935,5.935,0,0,0-.665,4.6,8.793,8.793,0,0,0,1,2.634,3.93,3.93,0,0,0,2.233,1.829,3.073,3.073,0,0,0,2.73-.661,6.076,6.076,0,0,0,1.7-2.2,7.408,7.408,0,0,0,.555-4.678,4.221,4.221,0,0,0-1.63-2.686,3.376,3.376,0,0,0-1.1-.424" fill="#1a2e35"/>
    <path id="Trazado_904" data-name="Trazado 904" d="M68.307,223.837c-.063.016-.151-.252-.426-.574a2.99,2.99,0,0,0-1.368-.878,7.52,7.52,0,0,0-1.683-.261c-.448-.033-.731-.069-.732-.128s.273-.124.73-.167a4.74,4.74,0,0,1,1.81.158,2.657,2.657,0,0,1,1.483,1.1c.25.423.234.74.186.745" fill="#1a2e35"/>
    <path id="Trazado_905" data-name="Trazado 905" d="M68.937,209.569c.036.036-.124.286-.5.581a3.992,3.992,0,0,1-3.53.638c-.453-.146-.691-.325-.669-.371a9.867,9.867,0,0,0,2.435.061,9.842,9.842,0,0,0,2.261-.909" fill="#1a2e35"/>
    <path id="Trazado_906" data-name="Trazado 906" d="M124.013,152.154c.007-.013.1.021.264.1a7.521,7.521,0,0,1,.713.368,14.492,14.492,0,0,1,2.4,1.718,17.24,17.24,0,0,1,5.159,8.163,52.316,52.316,0,0,1,1.965,9.5c.139,1.234.215,2.236.261,2.928a5.438,5.438,0,0,1,.02,1.08,5.358,5.358,0,0,1-.182-1.064c-.1-.768-.235-1.742-.392-2.906a61.31,61.31,0,0,0-2.072-9.423,17.755,17.755,0,0,0-4.956-8.062,27.407,27.407,0,0,0-3.182-2.4" fill="#1a2e35"/>
    <path id="Trazado_907" data-name="Trazado 907" d="M114.03,240.385c2.323-.089,4.18-2.4,6.5-2.281a3.23,3.23,0,1,1-.545,6.434c-2.438-.283-3.865-3.142-6.259-3.691" fill="#1a2e35"/>
    <path id="Trazado_908" data-name="Trazado 908" d="M133.73,242.364a13.856,13.856,0,0,1-2.176-.18l.127-.792a9.224,9.224,0,0,0,7.169-1.4c2.372-1.743,3.9-4.862,4.545-9.27l.024-.169c.263-1.746.625-36.029.626-42.538,0-10.166-8.923-11.554-9.3-11.608-.361-.066-8.472-1.421-12.777,9.683-4.506,11.628-11.711,34.037-12.187,36.664-.059.322-.148.72-.25,1.182-.749,3.363-2.308,10.36,2.359,14.39,5.2,4.493,9.306,2.754,9.477,2.679l.329.731c-.192.085-4.72,2.042-10.33-2.8-5.029-4.342-3.4-11.656-2.617-15.171.1-.449.186-.837.243-1.15.48-2.647,7.711-25.152,12.229-36.811,4.553-11.75,13.564-10.2,13.655-10.184a12.058,12.058,0,0,1,9.974,12.4c0,5.362-.355,40.8-.635,42.658l-.024.165c-.674,4.628-2.311,7.925-4.863,9.8a9.211,9.211,0,0,1-5.594,1.725" fill="#1a2e35"/>
    <path id="Trazado_909" data-name="Trazado 909" d="M144.446,194.574a14.926,14.926,0,0,0-1.669-4,13.589,13.589,0,0,0-8.315-5.862,15.067,15.067,0,0,0-10.148,1.323,17.877,17.877,0,0,0-3.527,2.527c-.011-.01.053-.094.182-.246a7.057,7.057,0,0,1,.6-.64,12.1,12.1,0,0,1,2.607-1.9,14.891,14.891,0,0,1,10.38-1.47,13.7,13.7,0,0,1,5.288,2.535,13.325,13.325,0,0,1,3.185,3.58,10.622,10.622,0,0,1,1.235,2.983,6.055,6.055,0,0,1,.162.861c.027.2.035.3.02.306" fill="#1a2e35"/>
    <path id="Trazado_910" data-name="Trazado 910" d="M164.858,258.653a27.894,27.894,0,0,0-1.1-3.419,14.934,14.934,0,0,0-5.437-6.524,11.769,11.769,0,0,0-4.412-1.592c-1.445-.24-2.77-.327-3.882-.4l-2.64-.182a4.4,4.4,0,0,1-.966-.132,4.391,4.391,0,0,1,.974-.031l2.647.051a32.955,32.955,0,0,1,3.929.318,11.749,11.749,0,0,1,4.575,1.619,14.539,14.539,0,0,1,5.485,6.763,12.857,12.857,0,0,1,.731,2.561,3.676,3.676,0,0,1,.1.971" fill="#1a2e35"/>
    <path id="Trazado_911" data-name="Trazado 911" d="M124.425,245.274s7.882-11.939,9.9-13.5,19.218-9.331,21.233-8.082.775,3.959.775,3.959,7.284-2.552,8.059-1.547a3.6,3.6,0,0,1,0,4.106s4.03-.62,4.03.62a5.1,5.1,0,0,1-2.325,4.184c-1.859,1.4-13.952,9.446-14.923,11.669l-3.917-.237Z" fill="#c78976"/>
    <path id="Trazado_912" data-name="Trazado 912" d="M147.109,241.86a2.9,2.9,0,0,1,.36-.752,14.107,14.107,0,0,1,1.3-1.867,21.726,21.726,0,0,1,5.717-4.812,43.06,43.06,0,0,1,6.762-3.177c.892-.34,1.62-.6,2.126-.767a3.258,3.258,0,0,1,.8-.223,3.167,3.167,0,0,1-.744.375l-2.074.888a54.672,54.672,0,0,0-6.657,3.262,23.913,23.913,0,0,0-5.706,4.645c-1.249,1.424-1.816,2.468-1.881,2.428" fill="#bf654e"/>
    <path id="Trazado_913" data-name="Trazado 913" d="M137.111,241.666a4.173,4.173,0,0,1,.382-.877c.271-.552.671-1.347,1.212-2.307a21.968,21.968,0,0,1,2.173-3.217,10.114,10.114,0,0,1,1.651-1.636c.665-.448,1.365-.87,2.089-1.3a57.532,57.532,0,0,1,7.7-3.838,22.537,22.537,0,0,1,2.476-.829,4.083,4.083,0,0,1,.944-.168c.018.07-1.307.377-3.308,1.27a72.969,72.969,0,0,0-7.6,3.925c-.717.426-1.42.846-2.069,1.276a10.172,10.172,0,0,0-1.588,1.548,24.162,24.162,0,0,0-2.212,3.118c-.525.884-.967,1.631-1.325,2.234a4.2,4.2,0,0,1-.524.8" fill="#bf654e"/>
    <path id="Trazado_914" data-name="Trazado 914" d="M327.881,158.848a51.554,51.554,0,1,1-51.554-51.553A51.553,51.553,0,0,1,327.881,158.848Z" fill="none" stroke="#3e145e" stroke-miterlimit="10" stroke-width="1.5"/>
    <path id="Trazado_915" data-name="Trazado 915" d="M414.039,69.378A40.939,40.939,0,1,1,373.1,28.44,40.938,40.938,0,0,1,414.039,69.378Z" fill="none" stroke="#3e145e" stroke-miterlimit="10" stroke-width="1.5"/>
    <path id="Trazado_916" data-name="Trazado 916" d="M414.039,266.855A40.939,40.939,0,1,1,373.1,225.917,40.937,40.937,0,0,1,414.039,266.855Z" fill="none" stroke="#3e145e" stroke-miterlimit="10" stroke-width="1.5"/>
    <path id="Trazado_917" data-name="Trazado 917" d="M453.846,164.081a31.351,31.351,0,1,1-31.351-31.351A31.351,31.351,0,0,1,453.846,164.081Z" fill="none" stroke="#3e145e" stroke-miterlimit="10" stroke-width="1.5"/>
    <path id="Trazado_918" data-name="Trazado 918" d="M541.934,77.145a31.351,31.351,0,1,1-31.351-31.351A31.351,31.351,0,0,1,541.934,77.145Z" fill="none" stroke="#3e145e" stroke-miterlimit="10" stroke-width="1.5"/>
    <path id="Trazado_919" data-name="Trazado 919" d="M541.934,249.183a31.351,31.351,0,1,1-31.351-31.351A31.351,31.351,0,0,1,541.934,249.183Z" fill="none" stroke="#3e145e" stroke-miterlimit="10" stroke-width="1.5"/>
    <path id="Trazado_920" data-name="Trazado 920" d="M623.811,164.475a40.938,40.938,0,1,1-40.938-40.938A40.938,40.938,0,0,1,623.811,164.475Z" fill="none" stroke="#3e145e" stroke-miterlimit="10" stroke-width="1.5"/>
    <line id="Línea_19" data-name="Línea 19" x2="37.3" y2="38.435" transform="translate(308.384 199.224)" fill="none" stroke="#3e145e" stroke-miterlimit="10" stroke-width="1.5"/>
    <line id="Línea_20" data-name="Línea 20" y1="23.298" x2="33.099" transform="translate(307.94 94.83)" fill="none" stroke="#3e145e" stroke-miterlimit="10" stroke-width="1.5"/>
    <line id="Línea_21" data-name="Línea 21" x2="17.264" y2="29.308" transform="translate(388.714 108.127)" fill="none" stroke="#3e145e" stroke-miterlimit="10" stroke-width="1.5"/>
    <line id="Línea_22" data-name="Línea 22" y1="37.912" x2="24.37" transform="translate(398.125 195.432)" fill="none" stroke="#3e145e" stroke-miterlimit="10" stroke-width="1.5"/>
    <line id="Línea_23" data-name="Línea 23" x2="88.922" transform="translate(453.407 158.848)" fill="none" stroke="#3e145e" stroke-miterlimit="10" stroke-width="1.5"/>
    <line id="Línea_24" data-name="Línea 24" y1="42.576" x2="46.579" transform="translate(437.594 94.028)" fill="none" stroke="#3e145e" stroke-miterlimit="10" stroke-width="1.5"/>
    <line id="Línea_25" data-name="Línea 25" x2="35.688" y2="33.533" transform="translate(538.773 90.873)" fill="none" stroke="#3e145e" stroke-miterlimit="10" stroke-width="1.5"/>
    <line id="Línea_26" data-name="Línea 26" x2="51.318" y2="39.853" transform="translate(431.929 193.985)" fill="none" stroke="#3e145e" stroke-miterlimit="10" stroke-width="1.5"/>
    <line id="Línea_27" data-name="Línea 27" y1="31.317" x2="36.464" transform="translate(539.054 204.742)" fill="none" stroke="#3e145e" stroke-miterlimit="10" stroke-width="1.5"/>
    <path id="Trazado_921" data-name="Trazado 921" d="M250.581,149.633c.305.022.609.047.918.047.036,0,.07-.006.106-.006.273,0,.543-.021.812-.041a12.864,12.864,0,0,0,5.07-1.461,12.744,12.744,0,0,0,4.452-3.983,12.69,12.69,0,1,0-11.358,5.444m-4.74-15.736a5.664,5.664,0,0,1,5.658-5.658,5.788,5.788,0,0,1,1.949.367,5.641,5.641,0,1,1-7.607,5.291" fill="#ffee8d"/>
    <path id="Trazado_922" data-name="Trazado 922" d="M313.851,185.418V169.556a9.811,9.811,0,0,1-7.987,4.126h-2.847v4.8h-8.639v-4.8H271.891v4.8h-8.639v-4.8h-2.846a9.774,9.774,0,0,1-3.153-.529l-4.836,4.836v7.429a8,8,0,0,0,7.989,7.988h45.458a8,8,0,0,0,7.987-7.988" fill="#ccccca"/>
    <path id="Trazado_923" data-name="Trazado 923" d="M255.471,172.339l.181-.18v-3.953a3.987,3.987,0,0,1,0-7.154v-1.407h-2.226v-5.568h2.226V150.9a14.321,14.321,0,0,1-2.774.542c-.151.015-.307.015-.461.024-.3.019-.608.046-.918.046-.195,0-.383-.021-.577-.029-.114,0-.227-.01-.341-.017a14.444,14.444,0,0,1-3.234-.566v29.559l3.234-3.234,1.836-1.836Z" fill="#ffee8d"/>
    <rect id="Rectángulo_60" data-name="Rectángulo 60" width="2.305" height="1.835" transform="translate(234.449 242.084)"/>
    <rect id="Rectángulo_61" data-name="Rectángulo 61" width="2.304" height="1.835" transform="translate(239.518 242.084)"/>
    <rect id="Rectángulo_62" data-name="Rectángulo 62" width="2.304" height="1.835" transform="translate(244.587 242.084)"/>
    <rect id="Rectángulo_63" data-name="Rectángulo 63" width="2.305" height="1.835" transform="translate(249.656 242.084)"/>
    <rect id="Rectángulo_64" data-name="Rectángulo 64" width="2.304" height="1.835" transform="translate(254.726 242.084)"/>
    <rect id="Rectángulo_65" data-name="Rectángulo 65" width="2.305" height="1.835" transform="translate(259.794 242.084)"/>
    <path id="Trazado_924" data-name="Trazado 924" d="M315.688,185.418v-31.4a9.857,9.857,0,0,0-9.825-9.824H294.429v-3.7a5.074,5.074,0,0,0-5.069-5.069H276.908a5.073,5.073,0,0,0-5.068,5.069v3.7H264.1a14.527,14.527,0,1,0-18.59,6.02V184.9l5.07-5.07v5.592a9.836,9.836,0,0,0,9.824,9.825h45.458a9.837,9.837,0,0,0,9.825-9.825m-42.012-44.931a3.237,3.237,0,0,1,3.232-3.233H289.36a3.236,3.236,0,0,1,3.232,3.233v3.7h-.921v-2.161a3.969,3.969,0,0,0-3.965-3.966h-9.143a3.969,3.969,0,0,0-3.964,3.966v2.161h-.923Zm16.159,1.541v2.161h-13.4v-2.161a2.132,2.132,0,0,1,2.128-2.13h9.143a2.132,2.132,0,0,1,2.129,2.13m-17.995,4h34.023a8,8,0,0,1,7.988,7.988v9.844a8,8,0,0,1-7.988,7.988h-2.846v-4.8h-8.639v4.8H271.891v-4.8h-8.639v4.8H260.4a7.928,7.928,0,0,1-2.918-.57v-4.468a2.181,2.181,0,1,1-.042-4.361c.042,0,.042-1.833.042-1.833v-2.805h-2.224v-1.9h2.224v-5.7a14.585,14.585,0,0,0,5.368-4.184Zm29.646,22.551v8.374h-5.578v-8.374Zm-31.126,0v8.374h-5.579v-8.374ZM238.8,136.984a12.744,12.744,0,1,1,13.613,12.649c-.27.019-.539.039-.812.041-.037,0-.07.005-.106.005-.31,0-.613-.024-.918-.046A12.672,12.672,0,0,1,238.8,136.984m8.543,43.478V150.9a14.5,14.5,0,0,0,3.234.565c.113.007.227.013.341.017.193.008.382.03.577.03.31,0,.613-.027.918-.047.153-.009.31-.009.461-.024a14.371,14.371,0,0,0,2.773-.541v3.172h-2.225v5.569h2.225v1.406a3.989,3.989,0,0,0,0,7.155v3.952l-.18.18-3.054,3.054-1.836,1.837Zm5.07,4.956v-7.429l4.836-4.836a9.768,9.768,0,0,0,3.152.529h2.847v4.8h8.639v-4.8h22.487v4.8h8.639v-4.8h2.846a9.814,9.814,0,0,0,7.988-4.126v15.862a8,8,0,0,1-7.988,7.988H260.4a8,8,0,0,1-7.988-7.988"/>
    <path id="Trazado_925" data-name="Trazado 925" d="M251.5,139.555a5.781,5.781,0,1,0-.918-.093,5.656,5.656,0,0,0,.918.093m-3.822-5.658a3.82,3.82,0,0,1,3.19-3.758,3.866,3.866,0,0,1,.632-.063,3.773,3.773,0,0,1,1.249.227,3.808,3.808,0,1,1-5.071,3.594"/>
    <path id="Trazado_926" data-name="Trazado 926" d="M268.489,173.682v-3.391h-1.836v4.945h1.836Z"/>
    <path id="Trazado_927" data-name="Trazado 927" d="M601.072,153.672h11.107a29.226,29.226,0,0,0-21.732-13.4v.293a26.612,26.612,0,0,1,10.625,13.107" fill="#e1d3f8"/>
    <path id="Trazado_928" data-name="Trazado 928" d="M603.939,168.815h12.8a29,29,0,0,0-3.931-14.112H601.469a42.592,42.592,0,0,1,2.47,14.112" fill="#e1d3f8"/>
    <path id="Trazado_929" data-name="Trazado 929" d="M552.518,147.466l-10.19,10.191h9.76l5.231,5.233-4,4,.365.365.365.365,3.77-3.771a30.232,30.232,0,1,0,32.626-24.611v-8.745H578.221l-16.974,16.974Zm-7.7,9.16,8.128-8.129h7.271l-8.128,8.128Zm13.54,13.221h4.924v8.764l7.906-7.9a42.812,42.812,0,0,0,2.47,13.253H562.289a29,29,0,0,1-3.932-14.112m0-1.032a29.308,29.308,0,0,1,.421-4.465l4.465,4.465Zm5.955,1.032v-.994l.038-.038,7.506-7.506.585-.585v7.268l-.245.245-.578.578-.464.465-.567.567-6.275,6.276Zm-1.4,15.143h11.125c2.414,6.045,6.234,10.776,11.016,13.432a29.224,29.224,0,0,1-22.141-13.432m24.116,13.263c-5.16-2.281-9.292-7.016-11.874-13.263h11.874Zm0-14.294H574.746a41.82,41.82,0,0,1-2.548-13.677c0-.144,0-.29-.005-.435h14.84Zm0-15.144H573.078l.4-.4v-8.727l4.989-4.989h8.571Zm0-15.144h-7.54l7.54-7.54ZM602.9,169.847c0,.146,0,.293-.005.438a41.833,41.833,0,0,1-2.546,13.674H588.065V169.847Zm-14.839-1.032V154.7h12.3a41.323,41.323,0,0,1,2.54,14.112Zm11.873,16.175c-2.581,6.247-6.713,10.983-11.873,13.263V184.99Zm-9.9,13.432c4.781-2.656,8.6-7.388,11.015-13.432H612.18a29.223,29.223,0,0,1-22.139,13.432m22.767-14.463h-11.37a42.9,42.9,0,0,0,2.492-13.649c0-.154,0-.31.005-.463h12.8a29.012,29.012,0,0,1-3.93,14.112m3.93-15.144h-12.8a42.614,42.614,0,0,0-2.469-14.112h11.339a29.012,29.012,0,0,1,3.93,14.112m-26.292-28.544a29.229,29.229,0,0,1,21.733,13.4H601.071a26.611,26.611,0,0,0-10.625-13.107Zm0,1.5a25.64,25.64,0,0,1,9.509,11.9h-11.89V145.1l2.381-2.382Zm-11.8-10.252h10.769v10.768l-1.351,1.351-1.032,1.031-2.056,2.057-2.953-2.953-.733-.732-1.782-1.784-.835-.834-4.465-4.465Zm-1.066,9.269.812.813,2.143,2.143.731.73,2.98,2.981-6.212,6.212L577,154.7l-3.362,3.362-1.412,1.411L563.8,167.91l-4.783-4.783-.237-.236.379-.379,7.81-7.809.607-.608-.364-.365-.06-.059-.3-.305-.3.305-1.032,1.032-5.793,5.793-1.495,1.495-.17.17-5.019-5.019,20.449-20.451Z"/>
    <path id="Trazado_930" data-name="Trazado 930" d="M373.45,102.611a7.1,7.1,0,0,0,6.087-3.462H367.365a7.1,7.1,0,0,0,6.085,3.462" fill="#ffee8d"/>
    <path id="Trazado_931" data-name="Trazado 931" d="M379.609,91.989H365.692c-.019.04-.039.078-.057.118V94.14h15.632V92.11c-.016-.042-.039-.08-.057-.121Z" fill="#ffee8d"/>
    <path id="Trazado_932" data-name="Trazado 932" d="M373.45,88.409h-7.814V90.56h15.631V88.409H373.45Z" fill="#ffee8d"/>
    <path id="Trazado_933" data-name="Trazado 933" d="M366.354,95.569h-.719v2.15h15.632v-2.15H366.354Z" fill="#ffee8d"/>
    <path id="Trazado_934" data-name="Trazado 934" d="M357.674,62.7a15.683,15.683,0,0,0,.624,4.347c-.014,0,5.676,19.935,5.676,19.935h-1v1.429h1.234V90.56h-1.583v1.429h1.583V94.14h-1.583v1.429h1.583V97.72h-1.583v1.429h3.125a8.509,8.509,0,0,0,15.4,0h2.427V97.72h-.885V95.569h.885V94.14h-.885V91.989h.885V90.56h-.885V88.409h1.236V86.98h-1l5.461-19.24.42-1.486.063-.223a16.06,16.06,0,0,0,.357-3.333,15.776,15.776,0,0,0-31.553,0m15.775,39.913a7.094,7.094,0,0,1-6.084-3.462h12.171a7.1,7.1,0,0,1-6.087,3.462m7.817-4.891H365.635V95.569h15.631Zm0-3.58H365.635V92.106c.017-.04.038-.078.056-.117H381.21c.017.041.04.079.056.12Zm0-3.58H365.635V88.409h15.631ZM370.973,71.889V70.72h1.764v1.169h1.428V70.72h1.765v1.169h1.427V70.72h.454V86.98h-8.722V70.72h.457v1.169Zm2.479-23.538a14.314,14.314,0,0,1,14,17.442l-.435,1.534-1.592,5.615L381.441,86.98h-2.2V69.291h-1.883V68.123H375.93v1.168h-1.765V68.123h-1.428v1.168h-1.764V68.123h-1.427v1.168h-1.885V86.98h-2.2L361.443,72.9l-1.709-5.993a14.349,14.349,0,0,1,13.718-18.561"/>
    <rect id="Rectángulo_66" data-name="Rectángulo 66" width="5.398" height="1.429" transform="translate(353.38 81.411) rotate(-45.023)"/>
    <rect id="Rectángulo_67" data-name="Rectángulo 67" width="5.396" height="1.428" transform="matrix(0.966, -0.258, 0.258, 0.966, 346.667, 69.041)"/>
    <rect id="Rectángulo_68" data-name="Rectángulo 68" width="1.429" height="5.398" transform="translate(346.666 56.353) rotate(-74.99)"/>
    <rect id="Rectángulo_69" data-name="Rectángulo 69" width="1.428" height="5.397" transform="translate(353.38 43.987) rotate(-45.015)"/>
    <rect id="Rectángulo_70" data-name="Rectángulo 70" width="1.427" height="5.397" transform="translate(365.378 36.633) rotate(-15.02)"/>
    <rect id="Rectángulo_71" data-name="Rectángulo 71" width="5.397" height="1.43" transform="matrix(0.259, -0.966, 0.966, 0.259, 378.049, 41.476)"/>
    <rect id="Rectángulo_72" data-name="Rectángulo 72" width="5.397" height="1.429" transform="translate(387.999 46.796) rotate(-45.085)"/>
    <rect id="Rectángulo_73" data-name="Rectángulo 73" width="5.398" height="1.428" transform="matrix(0.966, -0.258, 0.258, 0.966, 393.953, 56.37)"/>
    <rect id="Rectángulo_74" data-name="Rectángulo 74" width="1.429" height="5.397" transform="matrix(0.258, -0.966, 0.966, 0.258, 393.954, 69.027)"/>
    <rect id="Rectángulo_75" data-name="Rectángulo 75" width="1.428" height="5.397" transform="translate(387.996 78.604) rotate(-45.029)"/>
    <rect id="Rectángulo_76" data-name="Rectángulo 76" width="4.277" height="5.051" transform="translate(433.366 150.899)" fill="#ffee8d"/>
    <rect id="Rectángulo_77" data-name="Rectángulo 77" width="2.96" height="5.051" transform="translate(441.218 150.899)" fill="#ffee8d"/>
    <path id="Trazado_935" data-name="Trazado 935" d="M432.227,168.474H412.36v14.394h23.094V168.474h-3.227Z" fill="#e1d3f8"/>
    <path id="Trazado_936" data-name="Trazado 936" d="M413.516,155.951h.248V150.9h-8.426v5.051h8.178Z" fill="#ffee8d"/>
    <path id="Trazado_937" data-name="Trazado 937" d="M445.316,157.088v-7.327h-11.95V147.4a2.862,2.862,0,0,0-4.739-2.176,2.846,2.846,0,0,0-4.633-1.375,2.849,2.849,0,0,0-4.645-1.291,2.87,2.87,0,0,0-5.585.936v6.266h-9.15l-.413.219-6.794,3.446,6.794,3.444.413.218h2.36l6.186,7.228H412.7v3.021h-1.48v16.669h25.37V167.337h-1.48v-3.021h-1.746v-7.228Zm-4.1-6.189h2.96v5.051h-2.96Zm-2.436,0h1.3v5.051h-1.3Zm-5.416,0h4.277v5.051h-4.277ZM404.2,152.1v3.5l-4.277-2.167,4.277-2.169Zm1.8,3.854h-.662V150.9h8.426v5.052H406Zm2.472,1.137h4.521l.771.9V160.7H414.9V143.495a1.738,1.738,0,1,1,3.476,0v7.4h1.139v-6.2a1.739,1.739,0,1,1,3.478,0v6.2h1.139v-4.887a1.738,1.738,0,1,1,3.477,0V150.9h1.138v-3.5a1.738,1.738,0,1,1,3.477,0v16.915h-17.57l-.893-1.044Zm26.981,11.386v14.4H412.36v-14.4h23.093Zm-1.48-3.021v1.884H413.84v-1.884h20.133Z"/>
    <rect id="Rectángulo_78" data-name="Rectángulo 78" width="3.934" height="8.69" transform="translate(509.108 66.279)" fill="#e1d3f8"/>
    <path id="Trazado_938" data-name="Trazado 938" d="M521.363,63.154l-6.485,2.809v9.321l6.485,2.811Z" fill="#ffee8d"/>
    <rect id="Rectángulo_79" data-name="Rectángulo 79" width="7.306" height="1.836" transform="translate(525.337 67.002) rotate(-44.956)"/>
    <rect id="Rectángulo_80" data-name="Rectángulo 80" width="1.835" height="7.308" transform="matrix(0.707, -0.707, 0.707, 0.707, 525.083, 74.245)"/>
    <rect id="Rectángulo_81" data-name="Rectángulo 81" width="8.428" height="1.836" transform="translate(526.539 69.834)"/>
    <path id="Trazado_939" data-name="Trazado 939" d="M509.487,92.993H488.424V94.83h25.513L490.649,71.67h16.625v5.135h6.5l9.426,4.088V60.358l-9.428,4.084h-6.5v5.392H486.2Zm5.39-27.03,6.486-2.809V78.1l-6.486-2.811Zm-5.768.316h3.934v8.69h-3.934Z"/>
    <path id="Trazado_940" data-name="Trazado 940" d="M268.549,221.865h-9.22v-9.22h-1.836v9.22h-9.219V223.7h9.219v9.22h1.836V223.7h9.22Z"/>
    <path id="Trazado_941" data-name="Trazado 941" d="M496.878,22.719a5.4,5.4,0,0,1,5.444,5.34h1.837a5.445,5.445,0,0,1,10.887,0h1.836a5.444,5.444,0,0,1,10.887,0h1.837a5.443,5.443,0,0,1,10.885,0h1.837a7.273,7.273,0,0,0-13.641-3.417,7.261,7.261,0,0,0-12.723,0,7.261,7.261,0,0,0-12.723,0A7.273,7.273,0,0,0,489.6,28.059h1.836a5.4,5.4,0,0,1,5.442-5.34"/>
    <rect id="Rectángulo_82" data-name="Rectángulo 82" width="2.451" height="1.835" transform="translate(642.97 163.163)"/>
    <rect id="Rectángulo_83" data-name="Rectángulo 83" width="2.451" height="1.835" transform="translate(648.362 163.163)"/>
    <rect id="Rectángulo_84" data-name="Rectángulo 84" width="2.45" height="1.835" transform="translate(653.757 163.164)"/>
    <rect id="Rectángulo_85" data-name="Rectángulo 85" width="2.45" height="1.835" transform="translate(659.149 163.163)"/>
    <rect id="Rectángulo_86" data-name="Rectángulo 86" width="2.45" height="1.835" transform="translate(664.543 163.163)"/>
    <rect id="Rectángulo_87" data-name="Rectángulo 87" width="2.45" height="1.835" transform="translate(669.935 163.164)"/>
    <rect id="Rectángulo_88" data-name="Rectángulo 88" width="2.451" height="1.835" transform="translate(675.33 163.163)"/>
    <rect id="Rectángulo_89" data-name="Rectángulo 89" width="2.451" height="1.835" transform="translate(680.721 163.164)"/>
    <rect id="Rectángulo_90" data-name="Rectángulo 90" width="2.451" height="1.835" transform="translate(686.116 163.163)"/>
    <rect id="Rectángulo_91" data-name="Rectángulo 91" width="2.451" height="1.835" transform="translate(691.507 163.164)"/>
    <rect id="Rectángulo_92" data-name="Rectángulo 92" width="2.523" height="1.834" transform="matrix(0.707, -0.707, 0.707, 0.707, 680.396, 175.208)"/>
    <rect id="Rectángulo_93" data-name="Rectángulo 93" width="2.523" height="1.835" transform="matrix(0.707, -0.707, 0.707, 0.707, 684.319, 171.284)"/>
    <rect id="Rectángulo_94" data-name="Rectángulo 94" width="2.523" height="1.837" transform="matrix(0.708, -0.707, 0.707, 0.708, 688.246, 167.356)"/>
    <rect id="Rectángulo_95" data-name="Rectángulo 95" width="1.835" height="2.523" transform="matrix(0.707, -0.707, 0.707, 0.707, 688.247, 160.806)"/>
    <path id="Trazado_942" data-name="Trazado 942" d="M687.4,157.366l-1.784-1.784-1.3,1.3,1.784,1.784Z"/>
    <rect id="Rectángulo_96" data-name="Rectángulo 96" width="1.834" height="2.523" transform="matrix(0.707, -0.707, 0.707, 0.707, 680.396, 152.954)"/>
    <path id="Trazado_943" data-name="Trazado 943" d="M306.677,95.436l-4.562-4.565,4.561-4.561-1.3-1.3-4.561,4.562-4.562-4.562-1.3,1.3,4.562,4.561-4.565,4.565,1.3,1.3,4.565-4.564,4.563,4.564Z"/>
    <rect id="Rectángulo_97" data-name="Rectángulo 97" width="22.124" height="4.95" transform="translate(492.152 241.697)" fill="#e1d3f8"/>
    <path id="Trazado_944" data-name="Trazado 944" d="M514.276,253.078H510.9V252.06h3.371v-4.394H492.152v16.267h29.4V255.39h-7.277Zm-19.763-3.33h18.1v1.019h-18.1Zm14.273,3.432h-1.622v-1.223h1.622Zm-3.568,0H503.6v-1.223h1.622Zm-3.568,0h-1.622v-1.223h1.622Zm-3.569,0h-1.622v-1.223h1.622Zm-3.568,1.192h18.1v1.019h-18.1Zm0,2.313h14.852V257.7H494.513Zm11.786,3.88h-1.605v-1.222H506.3Zm-3.533,0h-1.6v-1.222h1.6Zm5.079,1.707h-8.612v-1.019h8.612Zm1.988-1.707h-1.606v-1.222h1.606Zm3.534,0h-1.606v-1.222h1.606Z" fill="#ffee8d"/>
    <rect id="Rectángulo_98" data-name="Rectángulo 98" width="18.104" height="1.019" transform="translate(494.513 249.748)"/>
    <rect id="Rectángulo_99" data-name="Rectángulo 99" width="1.605" height="1.222" transform="translate(501.161 259.343)"/>
    <rect id="Rectángulo_100" data-name="Rectángulo 100" width="1.605" height="1.222" transform="translate(504.694 259.343)"/>
    <rect id="Rectángulo_101" data-name="Rectángulo 101" width="1.606" height="1.222" transform="translate(508.227 259.343)"/>
    <rect id="Rectángulo_102" data-name="Rectángulo 102" width="1.606" height="1.222" transform="translate(511.76 259.343)"/>
    <rect id="Rectángulo_103" data-name="Rectángulo 103" width="1.622" height="1.223" transform="translate(496.459 251.958)"/>
    <rect id="Rectángulo_104" data-name="Rectángulo 104" width="1.622" height="1.223" transform="translate(500.028 251.958)"/>
    <rect id="Rectángulo_105" data-name="Rectángulo 105" width="1.622" height="1.223" transform="translate(503.596 251.958)"/>
    <rect id="Rectángulo_106" data-name="Rectángulo 106" width="1.622" height="1.223" transform="translate(507.164 251.958)"/>
    <rect id="Rectángulo_107" data-name="Rectángulo 107" width="18.104" height="1.019" transform="translate(494.513 254.372)"/>
    <rect id="Rectángulo_108" data-name="Rectángulo 108" width="14.852" height="1.019" transform="translate(494.513 256.685)"/>
    <rect id="Rectángulo_109" data-name="Rectángulo 109" width="8.612" height="1.019" transform="translate(499.233 261.253)"/>
    <path id="Trazado_945" data-name="Trazado 945" d="M514.275,240.678H491.133v24.273h31.438V255.39h8.808V231.9h-17.1ZM492.151,241.7h22.124v4.95H492.151Zm29.4,22.235h-29.4V247.665h22.124v4.394H510.9v1.019h3.371v2.312h7.278Zm-6.259-10.854V232.913H530.36v21.458H515.294Z"/>
    <path id="Trazado_946" data-name="Trazado 946" d="M521.912,247.231l.151.164.509.555.41.446a1.467,1.467,0,0,0-.158.654,1.488,1.488,0,1,0,2.975,0,1.474,1.474,0,0,0-.171-.681L527.8,246a1.527,1.527,0,1,0-.745-.694l-2.177,2.374a1.462,1.462,0,0,0-.57-.115,1.485,1.485,0,0,0-.6.127l-1.057-1.15a1.464,1.464,0,0,0,.173-.681,1.482,1.482,0,0,0-1.278-1.468,1.448,1.448,0,0,0-.211-.021,1.476,1.476,0,0,0-1.314,2.17l-.1.109-.934,1.019-1.143,1.244a1.474,1.474,0,0,0-.569-.114,1.488,1.488,0,1,0,1.487,1.489,1.463,1.463,0,0,0-.172-.681l1.779-1.938.4-.435a1.477,1.477,0,0,0,.568.114,1.606,1.606,0,0,0,.211-.021,1.579,1.579,0,0,0,.359-.093m6.12-2.925a.465.465,0,0,1,.811.315.481.481,0,0,1-.468.471.466.466,0,0,1-.343-.786m-4.064,4.428a.458.458,0,0,1,.66-.028.632.632,0,0,1,.046.055.467.467,0,1,1-.706-.027m-6.344,1.866a.459.459,0,1,1,.126-.315.465.465,0,0,1-.126.315m3.4-4.4a.489.489,0,0,1-.154-.343.469.469,0,0,1,.126-.315.46.46,0,0,1,.342-.155.439.439,0,0,1,.211.056.453.453,0,0,1,.133.1.457.457,0,0,1,0,.63.488.488,0,0,1-.133.1.439.439,0,0,1-.211.056.464.464,0,0,1-.314-.126"/>
    <path id="Trazado_947" data-name="Trazado 947" d="M528.132,235.789v-.509h-11.18V236.3h11.18Z"/>
    <path id="Trazado_948" data-name="Trazado 948" d="M518.672,239.386h1.433v-1.222h-1.433v1.222Z"/>
    <path id="Trazado_949" data-name="Trazado 949" d="M521.826,239.386h1.434v-1.222h-1.434v1.222Z"/>
    <path id="Trazado_950" data-name="Trazado 950" d="M524.979,239.386h1.433v-1.222h-1.433v1.222Z"/>
    <path id="Trazado_951" data-name="Trazado 951" d="M522.572,242.268h5.561v-1.019h-11.18v1.019h5.619Z"/>
    <path id="Trazado_952" data-name="Trazado 952" d="M397.705,289.434V266.547H377.893v12.57l-11.818,10.317Z" fill="#e1d3f8"/>
    <path id="Trazado_953" data-name="Trazado 953" d="M348.262,283.622l3.259,2.845,1.6,1.4,6.154,5.374,2.525-2.2,1.835-1.6,12.653-11.045v-26.9l-9.066-.816-7.947-3.115-8.166,3.167-.082.007-1.614.14-7.145.617v26.9l4.567,3.989Zm-2.628-28.759,3.773-.325,1.451-.124.147-.058,8.272-3.243,8.423,3.3,5.223.449v21.513l-12.842,11.269-.8.706-.8-.7-5.356-4.7-1.6-1.407-2.544-2.233-1.451-1.273-1.892-1.661Z" fill="#ccccca"/>
    <path id="Trazado_954" data-name="Trazado 954" d="M360.081,277.781V257.313h-1.6v20.468h1.6Z"/>
    <path id="Trazado_955" data-name="Trazado 955" d="M354.782,274.816V260.28h-1.6v14.536h1.6Z"/>
    <path id="Trazado_956" data-name="Trazado 956" d="M365.379,274.816V260.28h-1.6v14.536h1.6Z"/>
    <path id="Trazado_957" data-name="Trazado 957" d="M348.977,279.31l2.544,2.233,1.6,1.407,5.355,4.7.8.7.8-.706,12.842-11.269V254.863l-5.223-.449-8.424-3.3-8.271,3.244-.148.058-1.45.124-3.774.325v21.513l1.892,1.661Zm-1.74-22.975,2.151-.186,1.607-.138.116-.01,8.166-3.166,7.947,3.114,4.1.386V275.65l-11.239,9.863-.8.706-.8-.7-5.355-4.7-1.6-1.406-2.283-2.005-1.437-1.26-.564-.5Z"/>
  </g>
</svg>
