<svg id="Capa_1" data-name="Capa 1" xmlns="http://www.w3.org/2000/svg" xmlns:xlink="http://www.w3.org/1999/xlink" viewBox="0 0 945.68 323.55"><defs><style>.cls-1,.cls-10,.cls-12,.cls-13{fill:none;}.cls-2{clip-path:url(#clip-path);}.cls-3{fill:#f5f5f5;}.cls-4{fill:#e1e1e1;}.cls-5{fill:#ececec;}.cls-6{fill:#fff;}.cls-7{fill:#ff4f5b;}.cls-8{fill:#fafafa;}.cls-9{fill:#1a2e35;}.cls-10{stroke:#3e145e;stroke-width:1.5px;}.cls-10,.cls-13{stroke-miterlimit:10;}.cls-11{clip-path:url(#clip-path-2);}.cls-12{stroke:#1a2e35;stroke-linecap:round;stroke-linejoin:round;}.cls-13{stroke:#000;}.cls-14{fill:#ffc09d;}.cls-15{fill:#80deea;}.cls-16{fill:#c7ddeb;}.cls-17{fill:#7eb9c7;}.cls-18{fill:#fdc345;}.cls-19{fill:#f04f4c;}.cls-20{fill:#f5fafc;}.cls-21{clip-path:url(#clip-path-4);}.cls-22{fill:url(#Degradado_sin_nombre);}.cls-23{fill:#3d4451;}.cls-24{fill:#6b968b;}</style><clipPath id="clip-path"><rect class="cls-1" width="945.68" height="510.45"/></clipPath><clipPath id="clip-path-2"><rect class="cls-1" x="137.94" width="186.97" height="322.73"/></clipPath><clipPath id="clip-path-4"><path class="cls-1" d="M547.32,88.63v-.12h0A7.06,7.06,0,0,1,550,83.37c3.59-3.22,9.42-4.64,15.6-3.79,4.67.64,7.93,2.36,9.7,5.12,2.52,3.91,1.13,8.66,1.12,8.68-1,3-4.28,4.43-6.77,4.8-2.32.34-4.33-.15-5.14-1.28a6.65,6.65,0,0,0-2.1-1.85l-.24-.13L562,95a12.47,12.47,0,0,1-4.89,1c-5.37,0-9.75-3.32-9.75-7.4m2-6.07a8.13,8.13,0,0,0-3.09,6v.12c0,4.68,4.87,8.48,10.85,8.48a13,13,0,0,0,5.07-1,5.59,5.59,0,0,1,1.53,1.42,5.52,5.52,0,0,0,4.6,1.83,11.88,11.88,0,0,0,1.58-.13c2.8-.41,6.47-2.11,7.65-5.53.06-.21,1.55-5.26-1.23-9.6-2-3-5.48-4.93-10.48-5.62a27.56,27.56,0,0,0-3.63-.25c-5.1,0-9.74,1.53-12.85,4.31"/></clipPath><linearGradient id="Degradado_sin_nombre" x1="-431.23" y1="-18.17" x2="-431.21" y2="-18.17" gradientTransform="translate(16636.45 679.45) scale(38.58 32.5)" gradientUnits="userSpaceOnUse"><stop offset="0" stop-color="#3d4451"/><stop offset="1" stop-color="#3d4451"/></linearGradient></defs><g id="Capa_2" data-name="Capa 2"><g id="Capa_1-2" data-name="Capa 1-2"><g id="Grupo_213" data-name="Grupo 213"><g class="cls-2"><g id="Grupo_212" data-name="Grupo 212"><path id="Trazado_1441" data-name="Trazado 1441" class="cls-3" d="M180.44,317.84c-20.32,10.05-43.48,2.16-62.13-8.9-3.11-1.84-6.64-3.33-8.6-6.36s-1.92-7.6,1-9.7c2.4-1.75,5.7-1.28,8.69-1.35A21.13,21.13,0,0,0,130.55,288c2.16-1.45,4.17-3.6,4.16-6.19,0-3.56-3.61-6-6.77-7.67l-17.7-9.56c-3.16-1.71-6.39-3.46-8.84-6.08s-4.05-6.32-3.25-9.78,4.57-6.22,8-5.16a31.47,31.47,0,0,1,4,2.06c1.36.63,3.14.81,4.19-.23s.85-2.81.45-4.26c-1.4-5-4.29-9.46-7.24-13.76s-6-8.6-7.88-13.45-2.37-10.45-.15-15.11,7.65-7.94,12.71-6.65,8.17,6.36,10.22,11.15a80.35,80.35,0,0,1,5.93,22.32,6.68,6.68,0,0,0,1.29,3.9c1.73,1.84,4.91,1,6.74-.7,2.07-1.92,3.23-4.61,4.86-6.91s4.19-4.37,7-4c3.94.48,5.84,5,6.59,8.9a68.7,68.7,0,0,1,.52,23.5c-.42,2.78-1,5.63-.41,8.4s2.82,5.44,5.66,5.53,5.14-2.42,6-5.1.75-5.57,1.15-8.37c.74-5.23,4.11-10.66,9.37-11.39,3.47-.47,7,1.25,9.41,3.78a26.21,26.21,0,0,1,5.17,9.06,69.05,69.05,0,0,1,4,35.87c-2,12-6.19,21.8-15.32,29.79"/><path id="Trazado_1442" data-name="Trazado 1442" class="cls-4" d="M171.22,306.41A322.71,322.71,0,0,1,147,278.51l-6-7.64c-2-2.52-3.9-5-5.65-7.56a156.54,156.54,0,0,1-9.22-15.26c-2.7-5-5.07-9.82-7.26-14.36s-4.14-8.82-5.75-12.8a126.41,126.41,0,0,1-6.21-19.29c-.55-2.32-.92-4.14-1.16-5.38-.11-.59-.19-1.06-.26-1.41a3.93,3.93,0,0,1-.06-.48,2.52,2.52,0,0,1,.13.47c.08.35.19.81.32,1.4.28,1.22.69,3,1.28,5.35a134.73,134.73,0,0,0,6.4,19.17c1.64,3.95,3.61,8.2,5.81,12.73s4.6,9.35,7.3,14.32a160.47,160.47,0,0,0,9.22,15.17c1.74,2.54,3.67,5,5.63,7.53l6,7.63A330.15,330.15,0,0,0,171.66,306"/><path id="Trazado_1443" data-name="Trazado 1443" class="cls-4" d="M135.37,263.13a7.23,7.23,0,0,1-1.51-.43c-1-.31-2.34-.81-4-1.45-3.39-1.28-8-3.2-13.08-5.34s-9.71-4-13.11-5.21c-1.69-.61-3.07-1.1-4-1.42a7.71,7.71,0,0,1-1.47-.57,6.83,6.83,0,0,1,1.54.33c1,.24,2.38.66,4.11,1.22,3.44,1.11,8.12,2.9,13.2,5l13,5.52,3.95,1.64a6.9,6.9,0,0,1,1.43.67"/><path id="Trazado_1444" data-name="Trazado 1444" class="cls-4" d="M150,218.42a10.4,10.4,0,0,1-.69,1.73c-.48,1.09-1.18,2.67-2,4.64-1.64,3.93-3.7,9.45-5.72,15.63s-3.59,11.86-4.6,16c-.53,2.06-.91,3.75-1.18,4.91a9.38,9.38,0,0,1-.48,1.8,10.5,10.5,0,0,1,.22-1.85c.2-1.18.5-2.88,1-5,.91-4.18,2.42-9.9,4.43-16.1a164,164,0,0,1,5.93-15.6c.86-2,1.63-3.51,2.18-4.57a11.15,11.15,0,0,1,.92-1.61"/><path id="Trazado_1445" data-name="Trazado 1445" class="cls-4" d="M170.75,305.5a3.53,3.53,0,0,1-.65,0l-1.85-.11c-1.6-.1-3.92-.32-6.77-.61-5.72-.6-13.6-1.66-22.27-3s-16.52-2.43-22.22-3.14l-6.75-.82-1.84-.23a2.71,2.71,0,0,1-.63-.13,2.29,2.29,0,0,1,.64,0l1.85.11c1.6.1,3.92.32,6.78.61,5.72.59,13.59,1.66,22.26,2.95s16.53,2.43,22.22,3.14l6.75.82,1.84.23a2.8,2.8,0,0,1,.64.13"/><path id="Trazado_1446" data-name="Trazado 1446" class="cls-4" d="M182.93,242.09a2.48,2.48,0,0,1-.08.66c-.09.5-.2,1.11-.33,1.85-.32,1.7-.76,4-1.29,6.8-1.09,5.73-2.51,13.68-4.06,22.46s-3,16.71-4.26,22.43c-.6,2.86-1.12,5.17-1.5,6.76l-.45,1.82a2.72,2.72,0,0,1-.2.63,2.47,2.47,0,0,1,.07-.66c.09-.5.2-1.11.33-1.85.33-1.7.76-4,1.3-6.79,1.09-5.74,2.5-13.69,4.06-22.47s3-16.71,4.25-22.43c.6-2.86,1.12-5.17,1.5-6.76.18-.73.33-1.33.46-1.82a2.31,2.31,0,0,1,.2-.63"/><path id="Trazado_1447" data-name="Trazado 1447" class="cls-3" d="M626.88,74.77c-3.3,8.25-8.58,21.6-11,27.73a3.51,3.51,0,0,0,2,4.56h0l22.55,9a3.54,3.54,0,0,0,4.59-2h0L656,86.6a7.83,7.83,0,0,0-4.38-10.17l1.61-4-14.77-5.89-1.52,3.82h0A7.82,7.82,0,0,0,627,74.82"/><path id="Trazado_1448" data-name="Trazado 1448" class="cls-4" d="M638.19,67l-.73,1.83L652,75.27l.94-2.36Z"/><path id="Trazado_1449" data-name="Trazado 1449" class="cls-5" d="M652.45,74.07l-14.63-5.82a1.94,1.94,0,0,1-1.08-2.51h0l1.1-2.76a3,3,0,0,1,3.88-1.67l12.67,5a3,3,0,0,1,1.67,3.89h0L655,73a1.94,1.94,0,0,1-2.51,1.08"/><path id="Trazado_1450" data-name="Trazado 1450" class="cls-4" d="M638.34,68.49a19.05,19.05,0,0,1,1.26-3.73,18.93,18.93,0,0,1,1.65-3.57A19.7,19.7,0,0,1,640,64.92a18.06,18.06,0,0,1-1.65,3.57"/><path id="Trazado_1451" data-name="Trazado 1451" class="cls-4" d="M640.29,69.26a18.74,18.74,0,0,1,1.26-3.72A17.81,17.81,0,0,1,643.2,62a19.05,19.05,0,0,1-1.26,3.73,19.58,19.58,0,0,1-1.65,3.57"/><path id="Trazado_1452" data-name="Trazado 1452" class="cls-4" d="M642.24,70a18.83,18.83,0,0,1,1.26-3.73,18.89,18.89,0,0,1,1.64-3.57,18.83,18.83,0,0,1-1.26,3.73A18.89,18.89,0,0,1,642.24,70"/><path id="Trazado_1453" data-name="Trazado 1453" class="cls-4" d="M644.18,70.81a18.74,18.74,0,0,1,1.26-3.72,18.06,18.06,0,0,1,1.65-3.57,18.74,18.74,0,0,1-1.26,3.72,18.06,18.06,0,0,1-1.65,3.57"/><path id="Trazado_1454" data-name="Trazado 1454" class="cls-4" d="M646.13,71.59a19.05,19.05,0,0,1,1.26-3.73A18.77,18.77,0,0,1,649,64.29,18,18,0,0,1,647.77,68a18.89,18.89,0,0,1-1.64,3.57"/><path id="Trazado_1455" data-name="Trazado 1455" class="cls-4" d="M648.08,72.36a18.12,18.12,0,0,1,1.26-3.72A18.69,18.69,0,0,1,651,65.07a18.74,18.74,0,0,1-1.26,3.72,18.61,18.61,0,0,1-1.64,3.57"/><path id="Trazado_1456" data-name="Trazado 1456" class="cls-4" d="M650,73.14a19.05,19.05,0,0,1,1.26-3.73,18.93,18.93,0,0,1,1.65-3.57,19.05,19.05,0,0,1-1.26,3.73A18.93,18.93,0,0,1,650,73.14"/><path id="Trazado_1457" data-name="Trazado 1457" class="cls-4" d="M652,73.92a19.05,19.05,0,0,1,1.26-3.73,18.89,18.89,0,0,1,1.64-3.57,18.12,18.12,0,0,1-1.26,3.72A18.69,18.69,0,0,1,652,73.92"/><path id="Trazado_1458" data-name="Trazado 1458" class="cls-5" d="M643.63,102.27l-18.41-7.33a1.49,1.49,0,0,1-.83-1.93l4.48-11.24a1.48,1.48,0,0,1,1.92-.83h0l18.4,7.33a1.48,1.48,0,0,1,.83,1.92h0l-4.48,11.24a1.48,1.48,0,0,1-1.92.83"/><path id="Trazado_1459" data-name="Trazado 1459" class="cls-4" d="M644,101.29a2.17,2.17,0,0,1,.07-.24c.07-.17.15-.39.25-.66.23-.6.54-1.43.94-2.47l3.42-8.84.1.22L630.18,82c-.06,0,.52-.22.27-.12h0V82l-.09.2-.16.4-.32.8-.7,1.57-1.24,3.1c-.81,2-1.6,4-2.34,5.85l-.11-.25,13.28,5.39,3.82,1.58,1,.43a2.37,2.37,0,0,1,.36.17l-.34-.11-1-.38-3.81-1.46-13.46-5.26-.18-.07.07-.18C626,92,626.76,90,627.57,88l1.23-3.1.63-1.59.32-.8.16-.4.08-.2v-.1h0c-.25.1.33-.14.27-.12L648.87,89l.16.06-.07.15-3.62,8.88-1,2.4-.27.62a.69.69,0,0,1-.1.19"/><path id="Trazado_1460" data-name="Trazado 1460" class="cls-4" d="M644.37,91.93A55.06,55.06,0,0,1,638,89.61a53.59,53.59,0,0,1-6.22-2.7,111.17,111.17,0,0,1,12.6,5"/><path id="Trazado_1461" data-name="Trazado 1461" class="cls-4" d="M643.52,94.07a55.84,55.84,0,0,1-6.38-2.31,56.38,56.38,0,0,1-6.23-2.71,111.17,111.17,0,0,1,12.6,5"/><path id="Trazado_1462" data-name="Trazado 1462" class="cls-4" d="M642.7,96.13a55.84,55.84,0,0,1-6.38-2.31,56.38,56.38,0,0,1-6.23-2.71,112.07,112.07,0,0,1,12.61,5"/><path id="Trazado_1463" data-name="Trazado 1463" class="cls-4" d="M650.76,76a69.61,69.61,0,0,1-7-2.54,64.86,64.86,0,0,1-6.8-2.94A65.31,65.31,0,0,1,644,73a67,67,0,0,1,6.8,2.93"/><path id="Trazado_1464" data-name="Trazado 1464" class="cls-6" d="M617.73,101.39a9,9,0,0,1,.44-1.33l1.36-3.56c1.17-3,2.8-7.14,4.64-11.71l2.6-6.42a14,14,0,0,1,2.93-4.88,6.22,6.22,0,0,1,3.4-1.74,4.18,4.18,0,0,1,1,0,1.12,1.12,0,0,1,.36.09,8,8,0,0,0-1.38.08,6.26,6.26,0,0,0-3.23,1.79,14.06,14.06,0,0,0-2.78,4.81L624.56,85c-1.84,4.56-3.52,8.69-4.75,11.66l-1.49,3.52a9.82,9.82,0,0,1-.6,1.27"/><path id="Trazado_1465" data-name="Trazado 1465" class="cls-6" d="M643.07,115.9a5.61,5.61,0,0,1-.89-.72c-.27-.24-.6-.54-1-.86s-.86-.71-1.39-1.08a38.46,38.46,0,0,0-18.73-7.46c-.65-.1-1.24-.12-1.76-.17s-1-.06-1.33-.07a7.3,7.3,0,0,1-1.14-.09,5.56,5.56,0,0,1,1.15-.07,9.84,9.84,0,0,1,1.33,0,11.43,11.43,0,0,1,1.78.1,33.65,33.65,0,0,1,4.57.71,35.88,35.88,0,0,1,10.5,4.18A34.74,34.74,0,0,1,640,113a16.23,16.23,0,0,1,1.36,1.14c.36.34.72.65,1,.92a5.18,5.18,0,0,1,.78.84"/><path id="Trazado_1466" data-name="Trazado 1466" class="cls-7" d="M157.24,39.22c-4.79-5.2-13.43-7.08-19.19-3a15.5,15.5,0,0,0-5.9,10.66,28.36,28.36,0,0,0-.35,4.31,27.93,27.93,0,0,0-3.9-1.87,15.48,15.48,0,0,0-12.18-.26c-6.45,2.9-9.18,11.31-7.1,18.07s8,11.8,14.48,14.58,16.25,5.52,28,1.93C157,78.13,161.66,66.06,162.53,59s-.51-14.65-5.3-19.85"/><path id="Trazado_1467" data-name="Trazado 1467" class="cls-8" d="M162.5,51a1.33,1.33,0,0,1-.19.14l-.58.36-2.25,1.34-8.34,4.88.08-.19C152,60.63,153,64.3,154,68.32l.17.66-.51-.45-13-11.27-4.23-3.68.38-.17c0,4.44-.08,8.65-.1,12.48V66l-.1.06-14.78,8.4-4.2,2.35-1.12.61a2.93,2.93,0,0,1-.4.19,1.78,1.78,0,0,1,.36-.25l1.09-.66,4.15-2.45,14.68-8.55-.1.18c0-3.83,0-8,.06-12.48v-.5l.38.32L141,56.91l13,11.3-.34.21c-1-4-1.94-7.71-2.74-10.85v-.13l.11-.06,8.42-4.75,2.3-1.27.6-.31a.51.51,0,0,1,.21-.1"/><rect id="Rectángulo_241" data-name="Rectángulo 241" class="cls-7" x="360.52" y="60.16" width="5.29" height="23.72"/><rect id="Rectángulo_242" data-name="Rectángulo 242" class="cls-7" x="351.31" y="69.38" width="23.72" height="5.29"/><path id="Trazado_1468" data-name="Trazado 1468" class="cls-7" d="M382.86,72.08a1.71,1.71,0,0,1,0-.32,5.09,5.09,0,0,0-.07-.94,3.5,3.5,0,0,0-.05-.69c-.05-.26-.08-.52-.12-.82a13.67,13.67,0,0,0-.42-2,19,19,0,0,0-2.2-5.22,19.61,19.61,0,0,0-23.54-8.36,19.38,19.38,0,0,0-9.13,6.83,18.82,18.82,0,0,0-2.8,5.39,19.31,19.31,0,0,0,0,12.34,18.82,18.82,0,0,0,2.8,5.39A19.61,19.61,0,0,0,380,82.12a19.11,19.11,0,0,0,2.2-5.23,13.67,13.67,0,0,0,.42-2,6.13,6.13,0,0,1,.13-.82,5.29,5.29,0,0,0,0-.69,8.94,8.94,0,0,1,.07-.94,1.71,1.71,0,0,1,0-.32,1.71,1.71,0,0,1,0,.32v1.64a7.05,7.05,0,0,1-.11.83,14.62,14.62,0,0,1-.38,2.06,18.6,18.6,0,0,1-2.16,5.31A19.87,19.87,0,0,1,347,83.89a19.48,19.48,0,0,1-2.86-5.5,19.72,19.72,0,0,1,0-12.61,19.35,19.35,0,0,1,2.86-5.5A18.52,18.52,0,0,1,351.24,56a21.59,21.59,0,0,1,2.45-1.56,20.21,20.21,0,0,1,2.61-1.14,19.86,19.86,0,0,1,23.88,8.59,18.87,18.87,0,0,1,2.15,5.31,13.1,13.1,0,0,1,.38,2.06c0,.3.09.57.11.83s0,.48,0,.69v1a1.71,1.71,0,0,1,0,.32"/><path id="Trazado_1469" data-name="Trazado 1469" class="cls-9" d="M945.68,323.34c0,.11-211.72.21-472.82.21S0,323.45,0,323.34s211.67-.21,472.86-.21,472.82.09,472.82.21"/><line id="Línea_69" data-name="Línea 69" class="cls-10" x1="371.96" y1="251.29" x2="466.23" y2="201.92"/><line id="Línea_70" data-name="Línea 70" class="cls-10" x1="514.78" y1="203.34" x2="536.18" y2="239.39"/><line id="Línea_71" data-name="Línea 71" class="cls-10" x1="373.73" y1="267.67" x2="522.9" y2="265.42"/><line id="Línea_72" data-name="Línea 72" class="cls-10" x1="509.05" y1="157.09" x2="536.18" y2="131.95"/><line id="Línea_73" data-name="Línea 73" class="cls-10" x1="596.89" y1="129.44" x2="610.97" y2="153.91"/><line id="Línea_74" data-name="Línea 74" class="cls-10" x1="580.69" y1="248.59" x2="615.01" y2="208.49"/><line id="Línea_75" data-name="Línea 75" class="cls-10" x1="522.43" y1="182.82" x2="597.33" y2="184.49"/><line id="Línea_76" data-name="Línea 76" class="cls-10" x1="654.01" y1="197.91" x2="692.77" y2="235.62"/><line id="Línea_77" data-name="Línea 77" class="cls-10" x1="658.5" y1="171.86" x2="722.53" y2="165.05"/><line id="Línea_78" data-name="Línea 78" class="cls-10" x1="728.03" y1="247.23" x2="762.8" y2="210.34"/></g></g></g><g id="Grupo_215" data-name="Grupo 215"><g class="cls-11"><g id="Grupo_214" data-name="Grupo 214"><path id="Trazado_1470" data-name="Trazado 1470" class="cls-6" d="M167.66,130.23s-9.65,5.92-9.51,8.5-3.6,49.84-4,55.74-6,18.09-6.48,23.63,1,11.07,2.58,13.66,7.58,10.7,7.58,10.7l16-24.74s.5-4.43.24-16.25-6.41-71.23-6.41-71.23"/><path id="Trazado_1471" data-name="Trazado 1471" class="cls-12" d="M167.66,130.23s-9.65,5.92-9.51,8.5-3.6,49.84-4,55.74-6,18.09-6.48,23.63,1,11.07,2.58,13.66,7.58,10.7,7.58,10.7l16-24.74s.5-4.43.24-16.25S167.66,130.23,167.66,130.23Z"/><path id="Trazado_1472" data-name="Trazado 1472" class="cls-9" d="M229.3,13.18s-17-1.1-26.74,10.73-7.62,29.9-7.7,35.44-16.55,21.78-14.71,28.43,6.67,7.38,5.12,12.91-11.71,8.87-10.22,15.88,6.81,17,6.81,17l98.23.67s3.5-10.34-.23-18.09-9.05-10.33-8.14-14,5.6-12.55,3.77-19.2-8.21-8.48-8.84-20.3-2.43-31.37-11.8-41-25.55-8.47-25.55-8.47"/><path id="Trazado_1473" data-name="Trazado 1473" class="cls-12" d="M229.3,13.18s-17-1.1-26.74,10.73-7.62,29.9-7.7,35.44-16.55,21.78-14.71,28.43,6.67,7.38,5.12,12.91-11.71,8.87-10.22,15.88,6.81,17,6.81,17l98.23.67s3.5-10.34-.23-18.09-9.05-10.33-8.14-14,5.6-12.55,3.77-19.2-8.21-8.48-8.84-20.3-2.43-31.37-11.8-41S229.3,13.18,229.3,13.18Z"/><path id="Trazado_1474" data-name="Trazado 1474" class="cls-7" d="M169.46,273.82s2.28,76.77,5.3,91.91,16.55,101.86,16.55,101.86a32.56,32.56,0,0,0,13.06,2.58h14.76l1.33-64.6.5-93.75,7.42,158.71s20.34.73,22.53.36,4-.74,4-.74L268,369.72l7.49-66.81.41-26.58s-62.5-2.17-80.66-3.64-25.57-1.82-25.57-1.82Z"/><path id="Trazado_1475" data-name="Trazado 1475" class="cls-13" d="M169.46,273.82s2.28,76.77,5.3,91.91,16.55,101.86,16.55,101.86a32.56,32.56,0,0,0,13.06,2.58h14.76l1.33-64.6.5-93.75,7.42,158.71s20.34.73,22.53.36,4-.74,4-.74L268,369.72l7.49-66.81.41-26.58s-62.5-2.17-80.66-3.64-25.57-1.82-25.57-1.82Z"/><path id="Trazado_1476" data-name="Trazado 1476" class="cls-12" d="M255.57,317s1.27,54.7-.95,84.38"/><path id="Trazado_1477" data-name="Trazado 1477" class="cls-12" d="M188.52,312.56s1.58,36.17,3.12,44.29"/><path id="Trazado_1478" data-name="Trazado 1478" class="cls-9" d="M246.77,289.5v27.62A59.3,59.3,0,0,0,257.6,319c5.6.37,16,0,16,0l.74-10.45Z"/><path id="Trazado_1479" data-name="Trazado 1479" class="cls-12" d="M246.77,289.5v27.62A59.3,59.3,0,0,0,257.6,319c5.6.37,16,0,16,0l.74-10.45Z"/><path id="Trazado_1480" data-name="Trazado 1480" class="cls-9" d="M170.63,310.77s14.18,4.48,20.15,4.86,11.57,1.12,11.57,1.12l-.74-7.47-31.73-3Z"/><path id="Trazado_1481" data-name="Trazado 1481" class="cls-12" d="M170.63,310.77s14.18,4.48,20.15,4.86,11.57,1.12,11.57,1.12l-.74-7.47-31.73-3Z"/><path id="Trazado_1482" data-name="Trazado 1482" class="cls-7" d="M213.71,101l-11.14,12.6-30.9,22.54,6.6,136.56s24.62,6.63,45.75,8.46,48.3-3,48.3-3l-4-143.22s-12-17.71-18.18-22.5-9-9.22-17.15-10S213.72,101,213.72,101"/><path id="Trazado_1483" data-name="Trazado 1483" class="cls-13" d="M213.71,101l-11.14,12.6-30.9,22.54,6.6,136.56s24.62,6.63,45.75,8.46,48.3-3,48.3-3l-4-143.22s-12-17.71-18.18-22.5-9-9.22-17.15-10S213.71,101,213.71,101Z"/><path id="Trazado_1484" data-name="Trazado 1484" class="cls-6" d="M200.78,107.7l-33.12,22.54,5.2,83-1.76,8.33-13.91,16,5.92,28.16-2.64,39.75s13.15,4.42,22.07,5.53a196.45,196.45,0,0,0,20,1.09l1.15-54.26s4.39-90.07,4.91-94.13S213.72,101,213.72,101Z"/><path id="Trazado_1485" data-name="Trazado 1485" class="cls-12" d="M200.78,107.7l-33.12,22.54,5.2,83-1.76,8.33-13.91,16,5.92,28.16-2.64,39.75s13.15,4.42,22.07,5.53a196.45,196.45,0,0,0,20,1.09l1.15-54.26s4.39-90.07,4.91-94.13S213.72,101,213.72,101Z"/><path id="Trazado_1486" data-name="Trazado 1486" class="cls-12" d="M201.31,111.17l-16,40.2,17.31,7.18-16.34,3,14.46,56.68"/><path id="Trazado_1487" data-name="Trazado 1487" class="cls-6" d="M210.92,90.34s5.75,38.39,10.29,47.24,5.8,11.81,5.8,11.81,9.84-29.9,11.81-34.34,4.08-20.3,4.08-20.3-19.59,6.29-32-4.41"/><path id="Trazado_1488" data-name="Trazado 1488" class="cls-12" d="M210.92,90.34s5.75,38.39,10.29,47.24,5.8,11.81,5.8,11.81,9.84-29.9,11.81-34.34,4.08-20.3,4.08-20.3S223.31,101,210.92,90.34Z"/><path id="Trazado_1489" data-name="Trazado 1489" class="cls-9" d="M210.92,90.34s.53,3.5,1.38,8.61c2.87,2.2,10.5,7.62,16.13,7.9,4.29.22,9.74-2.56,13.37-4.78.67-4,1.1-7.32,1.1-7.32s-19.59,6.29-32-4.41"/><path id="Trazado_1490" data-name="Trazado 1490" class="cls-12" d="M210.92,90.34s.53,3.5,1.38,8.61c2.87,2.2,10.5,7.62,16.13,7.9,4.29.22,9.74-2.56,13.37-4.78.67-4,1.1-7.32,1.1-7.32S223.31,101,210.92,90.34Z"/><path id="Trazado_1491" data-name="Trazado 1491" class="cls-14" d="M203.12,63.82s-3.93-5.59-6.58,0,4.1,13.86,6,15c5.34,3.18,3.92-2.69,3.92-2.69Z"/><path id="Trazado_1492" data-name="Trazado 1492" class="cls-13" d="M203.12,63.82s-3.93-5.59-6.58,0,4.1,13.86,6,15c5.34,3.18,3.92-2.69,3.92-2.69Z"/><path id="Trazado_1493" data-name="Trazado 1493" class="cls-14" d="M251.88,66.23s3.31-5.78,6.56-.33-2.61,14-4.36,15.25c-5,3.45-4.2-2.48-4.2-2.48Z"/><path id="Trazado_1494" data-name="Trazado 1494" class="cls-13" d="M251.88,66.23s3.31-5.78,6.56-.33-2.61,14-4.36,15.25c-5,3.45-4.2-2.48-4.2-2.48Z"/><path id="Trazado_1495" data-name="Trazado 1495" class="cls-14" d="M202.18,58.89s14.24-3.33,21.4-7.58a39.06,39.06,0,0,0,11.28-10.26s6.17,11.65,11.6,16.3,6.55,5,6.55,5-2.6,20.37-5.54,27.46-12.56,14-21.54,12c-5.09-1.13-13.93-4.8-16.48-11s-7.26-31.92-7.26-31.92"/><path id="Trazado_1496" data-name="Trazado 1496" class="cls-7" d="M238.51,74.54c-4.43.12-19.21.14-26.85-4.46a50.37,50.37,0,0,1-8.54-6.26c.27,1.42.6,3.06.95,4.84l1.66,1.21,4.18,15.76-1.95.42a44.39,44.39,0,0,0,1.48,4.76c2.56,6.21,11.4,9.89,16.49,11,9,2,18.55-4.89,21.51-12a6.77,6.77,0,0,1-.58-4.45c.87-4.46,1.93-12.23,1.93-12.23l3-2.68c.16-1,.31-2,.44-2.83-3.68,2.47-10.58,6.8-13.75,6.88"/><path id="Trazado_1497" data-name="Trazado 1497" class="cls-13" d="M238.51,74.54c-4.43.12-19.21.14-26.85-4.46a50.37,50.37,0,0,1-8.54-6.26c.27,1.42.6,3.06.95,4.84l1.66,1.21,4.18,15.76-1.95.42a44.39,44.39,0,0,0,1.48,4.76c2.56,6.21,11.4,9.89,16.49,11,9,2,18.55-4.89,21.51-12a6.77,6.77,0,0,1-.58-4.45c.87-4.46,1.93-12.23,1.93-12.23l3-2.68c.16-1,.31-2,.44-2.83C248.59,70.12,241.68,74.46,238.51,74.54Z"/><path id="Trazado_1498" data-name="Trazado 1498" class="cls-12" d="M222.26,68s-4.74-5.78-11-5.25"/><path id="Trazado_1499" data-name="Trazado 1499" class="cls-12" d="M234.52,69.11a13.43,13.43,0,0,1,12-4"/><path id="Trazado_1500" data-name="Trazado 1500" class="cls-12" d="M208.52,59.83s6.87-2.77,12.86-1.45"/><path id="Trazado_1501" data-name="Trazado 1501" class="cls-12" d="M235.13,59.87a9.86,9.86,0,0,1,11.18,1.55"/><path id="Trazado_1502" data-name="Trazado 1502" class="cls-9" d="M217.68,66.06a1.57,1.57,0,0,1-1.28,1.82h0a1.7,1.7,0,0,1-1.5-1.76,1.58,1.58,0,0,1,1.3-1.82h0a1.69,1.69,0,0,1,1.5,1.75"/><path id="Trazado_1503" data-name="Trazado 1503" class="cls-9" d="M242.38,67.84a1.6,1.6,0,0,1-1.3,1.83h0a1.69,1.69,0,0,1-1.5-1.75,1.58,1.58,0,0,1,1.28-1.83h0a1.7,1.7,0,0,1,1.5,1.75"/><path id="Trazado_1504" data-name="Trazado 1504" class="cls-6" d="M279.09,122.41s8,3.68,10.85,9.59,26.61,69.37,26.5,74.17-7.94,10.34-15.28,11.09-18-12.54-19.62-14.75-1.87-28.06-1.87-28.06Z"/><path id="Trazado_1505" data-name="Trazado 1505" class="cls-12" d="M279.09,122.41s8,3.68,10.85,9.59,26.61,69.37,26.5,74.17-7.94,10.34-15.28,11.09-18-12.54-19.62-14.75-1.87-28.06-1.87-28.06Z"/><path id="Trazado_1506" data-name="Trazado 1506" class="cls-6" d="M241.63,105.45l3.87,127,1.35,80.1a102.53,102.53,0,0,0,22.67,2.94c11.44,0,18.65-3.34,18.65-3.34s-2.31-49.83-2.75-57.95-3.11-23.62-3.11-23.62l-3.22-108.15s-29.91-14-37.45-17"/><path id="Trazado_1507" data-name="Trazado 1507" class="cls-12" d="M241.63,105.45l3.87,127,1.35,80.1a102.53,102.53,0,0,0,22.67,2.94c11.44,0,18.65-3.34,18.65-3.34s-2.31-49.83-2.75-57.95-3.11-23.62-3.11-23.62l-3.22-108.15S249.17,108.4,241.63,105.45Z"/><path id="Trazado_1508" data-name="Trazado 1508" class="cls-6" d="M250.13,112.46l13.73,44.78-12.51,3.39,12.17,5.92-15.18,48.24"/><path id="Trazado_1509" data-name="Trazado 1509" class="cls-12" d="M250.13,112.46l13.73,44.78-12.51,3.39,12.17,5.92-15.18,48.24"/><path id="Trazado_1510" data-name="Trazado 1510" class="cls-9" d="M259.71,153.43l-17,81.58s11.64,3.69,20.15,4.05,26.23.35,26.23.35l17.7-76s-34.88-3.3-47-9.93"/><path id="Trazado_1511" data-name="Trazado 1511" class="cls-12" d="M259.71,153.43l-17,81.58s11.64,3.69,20.15,4.05,26.23.35,26.23.35l17.7-76S271.88,160.06,259.71,153.43Z"/><path id="Trazado_1512" data-name="Trazado 1512" class="cls-6" d="M265.64,229.46l.55-25.49,13.52,2.85s-8.93,19.68-14.07,22.64"/><path id="Trazado_1513" data-name="Trazado 1513" class="cls-12" d="M265.64,229.46l.55-25.49,13.52,2.85S270.77,226.5,265.64,229.46Z"/><path id="Trazado_1514" data-name="Trazado 1514" class="cls-14" d="M276,194.76q-2.24-3.25-4.77-6.27c-1.17-1.11-6.88-4.43-8-4.43s-7-.36-8.14-.36-2.44,2.58-1.28,3.69,5.25,1.47,5.25,1.47l2.8,4.06-12.61-1.1s-2.1,2.22-1.63,4.06a26.93,26.93,0,0,0,1.3,3.69,58,58,0,0,0,.44,8.12c.49,2.22,2.74,3,5.79,4.8s13.33.73,13.33.73h4.8Z"/><path id="Trazado_1515" data-name="Trazado 1515" class="cls-13" d="M276,194.76q-2.24-3.25-4.77-6.27c-1.17-1.11-6.88-4.43-8-4.43s-7-.36-8.14-.36-2.44,2.58-1.28,3.69,5.25,1.47,5.25,1.47l2.8,4.06-12.61-1.1s-2.1,2.22-1.63,4.06a26.93,26.93,0,0,0,1.3,3.69,58,58,0,0,0,.44,8.12c.49,2.22,2.74,3,5.79,4.8s13.33.73,13.33.73h4.8Z"/><path id="Trazado_1516" data-name="Trazado 1516" class="cls-6" d="M306.73,197.32,274,192.91s-2.56,21-5.13,28.06-3.24,8.49-3.24,8.49,34.29-.76,42.37-1.5,12.62-5.55,12.26-12.19-4.4-13.29-4.4-13.29"/><path id="Trazado_1517" data-name="Trazado 1517" class="cls-12" d="M306.73,197.32,274,192.91s-2.56,21-5.13,28.06-3.24,8.49-3.24,8.49,34.29-.76,42.37-1.5,12.62-5.55,12.26-12.19-4.4-13.29-4.4-13.29"/><path id="Trazado_1518" data-name="Trazado 1518" class="cls-14" d="M170.28,220.3s7.64,4.79,9.57,6.27,2.07,11.07,3.27,12.92-.21,2.95-2.42,2.95-5.55-7-5.55-7l-.14-2.58L159.42,238l-4.07-7s4.6-10.7,14.93-10.71"/><path id="Trazado_1519" data-name="Trazado 1519" class="cls-13" d="M170.28,220.3s7.64,4.79,9.57,6.27,2.07,11.07,3.27,12.92-.21,2.95-2.42,2.95-5.55-7-5.55-7l-.14-2.58L159.42,238l-4.07-7S160,220.3,170.28,220.3Z"/></g></g></g><g id="Grupo_217" data-name="Grupo 217"><g class="cls-2"><g id="Grupo_216" data-name="Grupo 216"><path id="Trazado_1520" data-name="Trazado 1520" class="cls-15" d="M801.16,100.81A4.84,4.84,0,1,0,806,96h0a4.84,4.84,0,0,0-4.84,4.84h0"/><path id="Trazado_1521" data-name="Trazado 1521" d="M807.61,105.06a5.8,5.8,0,1,1,5.79-5.81v0a5.79,5.79,0,0,1-5.79,5.79m0-9.68a3.89,3.89,0,1,0,3.88,3.9h0a3.9,3.9,0,0,0-3.88-3.89"/><path id="Trazado_1522" data-name="Trazado 1522" d="M823.68,105.06a1,1,0,0,1-1-1,19,19,0,0,0-19-19,1,1,0,0,1-1-.93.94.94,0,0,1,.88-1h.1A20.92,20.92,0,0,1,824.57,104a1,1,0,0,1-1,1"/><path id="Trazado_1523" data-name="Trazado 1523" d="M834.05,105.06a1,1,0,0,1-.95-1,29.4,29.4,0,0,0-29.37-29.38,1,1,0,1,1,0-1.91h0A31.33,31.33,0,0,1,835,104.11a1,1,0,0,1-1,1"/><path id="Trazado_1524" data-name="Trazado 1524" d="M844.42,105.06a1,1,0,0,1-.95-1,39.8,39.8,0,0,0-39.74-39.75,1,1,0,0,1-.71-1.23,1,1,0,0,1,.64-.68h.07a41.71,41.71,0,0,1,41.65,41.66,1,1,0,0,1-1,1"/><path id="Trazado_1525" data-name="Trazado 1525" d="M773,217.79V227h-9.22v1.84H773v9.22h1.84v-9.22H784V227h-9.22v-9.22Z"/><rect id="Rectángulo_245" data-name="Rectángulo 245" x="638.92" y="135.05" width="2.45" height="1.84"/><rect id="Rectángulo_246" data-name="Rectángulo 246" x="644.32" y="135.05" width="2.45" height="1.84"/><rect id="Rectángulo_247" data-name="Rectángulo 247" x="649.71" y="135.04" width="2.45" height="1.84"/><rect id="Rectángulo_248" data-name="Rectángulo 248" x="655.1" y="135.05" width="2.45" height="1.84"/><rect id="Rectángulo_249" data-name="Rectángulo 249" x="660.5" y="135.04" width="2.45" height="1.84"/><rect id="Rectángulo_250" data-name="Rectángulo 250" x="665.89" y="135.04" width="2.45" height="1.84"/><rect id="Rectángulo_251" data-name="Rectángulo 251" x="671.28" y="135.04" width="2.45" height="1.84"/><rect id="Rectángulo_252" data-name="Rectángulo 252" x="676.67" y="135.04" width="2.45" height="1.84"/><rect id="Rectángulo_253" data-name="Rectángulo 253" x="682.07" y="135.05" width="2.45" height="1.84"/><rect id="Rectángulo_254" data-name="Rectángulo 254" x="687.46" y="135.05" width="2.45" height="1.84"/><rect id="Rectángulo_255" data-name="Rectángulo 255" x="676.63" y="145.93" width="2.52" height="1.83" transform="translate(94.71 522.35) rotate(-45)"/><rect id="Rectángulo_256" data-name="Rectángulo 256" x="680.55" y="142" width="2.52" height="1.83" transform="translate(98.64 523.97) rotate(-45)"/><path id="Trazado_1526" data-name="Trazado 1526" d="M684.2,139.24l1.3,1.3,1.78-1.78-1.3-1.3Z"/><rect id="Rectángulo_257" data-name="Rectángulo 257" x="684.82" y="131.66" width="1.84" height="2.52" transform="translate(106.86 523.82) rotate(-45)"/><path id="Trazado_1527" data-name="Trazado 1527" d="M683.35,129.25l-1.78-1.78-1.3,1.3,1.78,1.78Z"/><rect id="Rectángulo_258" data-name="Rectángulo 258" x="676.97" y="123.81" width="1.83" height="2.52" transform="translate(110.11 515.97) rotate(-45)"/><circle id="Elipse_5" data-name="Elipse 5" class="cls-10" cx="773.89" cy="160.58" r="51.55"/><path id="Trazado_1528" data-name="Trazado 1528" class="cls-10" d="M606.5,102a40.94,40.94,0,1,1-41-40.9h0A40.94,40.94,0,0,1,606.5,102Z"/><path id="Trazado_1529" data-name="Trazado 1529" class="cls-10" d="M374.3,262.46a40.94,40.94,0,1,1-40.95-40.93h0a40.93,40.93,0,0,1,40.94,40.92Z"/><path id="Trazado_1530" data-name="Trazado 1530" class="cls-10" d="M522.43,182.82a31.35,31.35,0,1,1-31.35-31.35,31.36,31.36,0,0,1,31.35,31.35Z"/><path id="Trazado_1531" data-name="Trazado 1531" class="cls-10" d="M659.59,180.07a31.35,31.35,0,1,1-31.35-31.36,31.36,31.36,0,0,1,31.35,31.36Z"/><path id="Trazado_1532" data-name="Trazado 1532" class="cls-10" d="M585.6,265.43a31.35,31.35,0,1,1-31.35-31.36,31.36,31.36,0,0,1,31.35,31.36Z"/><path id="Trazado_1533" data-name="Trazado 1533" class="cls-10" d="M733.86,265.43a31.35,31.35,0,1,1-31.35-31.36,31.36,31.36,0,0,1,31.35,31.36Z"/><rect id="Rectángulo_259" data-name="Rectángulo 259" x="395.27" y="247.23" width="2.3" height="1.84"/><rect id="Rectángulo_260" data-name="Rectángulo 260" x="400.33" y="247.23" width="2.31" height="1.84"/><rect id="Rectángulo_261" data-name="Rectángulo 261" x="405.4" y="247.23" width="2.3" height="1.84"/><rect id="Rectángulo_262" data-name="Rectángulo 262" x="410.47" y="247.23" width="2.31" height="1.84"/><path id="Trazado_1534" data-name="Trazado 1534" d="M396.76,213.26h-9.21V204h-1.84v9.22h-9.22v1.83h9.22v9.22h1.84v-9.22h9.21Z"/><path id="Trazado_1535" data-name="Trazado 1535" class="cls-16" d="M707.67,247.85a16.21,16.21,0,1,0,.08.08l-.08-.08h0m-1.88,21.06a13.56,13.56,0,1,1,0-19.18,13.57,13.57,0,0,1,0,19.18h0"/><path id="Trazado_1536" data-name="Trazado 1536" class="cls-16" d="M720.62,280.65a1.67,1.67,0,0,1,.17,2.3l-1.56,1.56a1.66,1.66,0,0,1-2.3-.17L711,278.4a1.6,1.6,0,0,1-.15-2.26h0l1.56-1.56a1.62,1.62,0,0,1,2.27.14Z"/><path id="Trazado_1537" data-name="Trazado 1537" class="cls-17" d="M705.35,264.51c0,1.14-4.18,2.06-9.35,2.06s-9.35-.92-9.35-2.06,4.19-2.06,9.35-2.06,9.35.93,9.35,2.06"/><path id="Trazado_1538" data-name="Trazado 1538" d="M695.52,275a16.88,16.88,0,1,1,11.94-5,16.88,16.88,0,0,1-11.94,5m-11-5.88a15.57,15.57,0,1,0-4.56-11,15.56,15.56,0,0,0,4.56,11"/><path id="Trazado_1539" data-name="Trazado 1539" d="M695.52,272.05a14,14,0,1,1,9.89-4.09,14,14,0,0,1-9.89,4.09m0-27.17a13.2,13.2,0,1,0,9.33,3.86,13.2,13.2,0,0,0-9.33-3.86"/><path id="Trazado_1540" data-name="Trazado 1540" d="M710.81,275.33,706,270.51l3.09-3.09,4.82,4.82ZM707,270.51l3.85,3.86,2.14-2.13-3.86-3.86Z"/><path id="Trazado_1541" data-name="Trazado 1541" d="M718.4,283.43h-.09a2.15,2.15,0,0,1-1.4-.62L711,276.87a2.05,2.05,0,0,1-.6-1.38,1.88,1.88,0,0,1,.54-1.38l1.68-1.68a1.85,1.85,0,0,1,1.38-.54,2.05,2.05,0,0,1,1.38.6l5.94,5.94a2.15,2.15,0,0,1,.62,1.4,1.83,1.83,0,0,1-.53,1.4l-1.68,1.67a1.88,1.88,0,0,1-1.31.53m-4.48-11a1.25,1.25,0,0,0-.91.38l-1.68,1.67a1.29,1.29,0,0,0-.37,1,1.45,1.45,0,0,0,.43,1l5.94,5.94a1.56,1.56,0,0,0,1,.44,1.23,1.23,0,0,0,1-.35l1.68-1.68a1.31,1.31,0,0,0,.35-1,1.52,1.52,0,0,0-.45-1L715,272.9a1.44,1.44,0,0,0-1-.44Z"/><path id="Trazado_1542" data-name="Trazado 1542" d="M718.4,283.67h-.1a2.31,2.31,0,0,1-1.55-.69l-5.94-6a2.21,2.21,0,0,1-.67-1.55,2.09,2.09,0,0,1,.61-1.55l1.67-1.67a2.14,2.14,0,0,1,1.55-.62,2.26,2.26,0,0,1,1.55.68l5.94,5.93a2.36,2.36,0,0,1,.69,1.56,2.1,2.1,0,0,1-.6,1.57L719.88,283a2.05,2.05,0,0,1-1.48.6m-4.48-10.95a1,1,0,0,0-.75.3l-1.67,1.67a1,1,0,0,0-.3.78,1.21,1.21,0,0,0,.36.82l5.94,5.94a1.31,1.31,0,0,0,.85.38,1,1,0,0,0,.78-.29l1.67-1.67a1,1,0,0,0,.29-.78,1.31,1.31,0,0,0-.38-.85L714.77,273a1.21,1.21,0,0,0-.82-.36Z"/><path id="Trazado_1543" data-name="Trazado 1543" d="M718.08,281.58a.25.25,0,0,1-.2-.09l-5.57-5.57a.29.29,0,0,1,0-.41.28.28,0,0,1,.4,0h0l5.57,5.57a.29.29,0,0,1,0,.41.27.27,0,0,1-.21.09"/><rect id="Rectángulo_263" data-name="Rectángulo 263" class="cls-18" x="696.36" y="250.29" width="3.68" height="13.69"/><path id="Trazado_1544" data-name="Trazado 1544" d="M700.43,264.37H696V249.91h4.45Zm-3.69-.76h2.92V250.67h-2.92Z"/><rect id="Rectángulo_264" data-name="Rectángulo 264" class="cls-19" x="691.74" y="255.11" width="3.21" height="8.88"/><path id="Trazado_1545" data-name="Trazado 1545" d="M695.33,264.38h-4v-9.65h4Zm-3.2-.78h2.43v-8.1h-2.43Z"/><rect id="Rectángulo_265" data-name="Rectángulo 265" class="cls-16" x="701.45" y="257.16" width="2.94" height="6.82"/><path id="Trazado_1546" data-name="Trazado 1546" d="M704.75,264.35h-3.67V256.8h3.67Zm-2.94-.73H704v-6.09h-2.21Z"/><rect id="Rectángulo_266" data-name="Rectángulo 266" class="cls-17" x="687.42" y="258.07" width="2.92" height="5.92"/><path id="Trazado_1547" data-name="Trazado 1547" d="M690.71,264.35h-3.65v-6.64h3.65Zm-2.92-.73H690v-5.18h-2.19Z"/><path id="Trazado_1548" data-name="Trazado 1548" class="cls-17" d="M497.19,191.43H482.74a10.1,10.1,0,0,1-.2-20.19h14.65a10.1,10.1,0,1,1,.8,20.18h-.8"/><rect id="Rectángulo_267" data-name="Rectángulo 267" class="cls-20" x="477.2" y="178.59" width="25.39" height="5.93"/><path id="Trazado_1549" data-name="Trazado 1549" d="M502.84,184.77H477v-6.43h25.89Zm-25.39-.5h24.9v-5.43h-24.9Z"/><path id="Trazado_1550" data-name="Trazado 1550" class="cls-16" d="M494.45,200.91l-.62-3.44h-6.2l-.49,3.41a1.4,1.4,0,0,1-1.46,1h-2.34V204h14.94v-2.1H495.9a1.41,1.41,0,0,1-1.46-1"/><path id="Trazado_1551" data-name="Trazado 1551" d="M508,197.35H471.53a1.89,1.89,0,0,1-1.89-1.89h0V170.24a1.9,1.9,0,0,1,1.89-1.9H508a1.9,1.9,0,0,1,1.88,1.9v25.22a1.89,1.89,0,0,1-1.88,1.89m-36.43-28.07a1,1,0,0,0-.94,1V195.5a.93.93,0,0,0,.91.95H508a1,1,0,0,0,.94-.95V170.24a1,1,0,0,0-.94-1Z"/><path id="Trazado_1552" data-name="Trazado 1552" d="M499.31,204.45H480v-3.21h3.35c.75,0,1.28-.38,1.33-.73l.67-4.09h8.39l.84,4.11a1.31,1.31,0,0,0,1.33.71h3.39Zm-18.37-.94h17.43v-1.33h-2.46a2.16,2.16,0,0,1-2.25-1.46l-.68-3.36h-6.83l-.54,3.3a2.12,2.12,0,0,1-2.26,1.51h-2.41Z"/><rect id="Rectángulo_268" data-name="Rectángulo 268" x="469.68" y="190.66" width="39.29" height="0.94"/><path id="Trazado_1553" data-name="Trazado 1553" class="cls-19" d="M493.56,170.23h0a4.18,4.18,0,0,0,.87-2.52,4.79,4.79,0,0,0-9.55,0,4.41,4.41,0,0,0,.74,2.64h0l3.83,6.52a.21.21,0,0,0,.29.08h0a.27.27,0,0,0,.08-.07Z"/><path id="Trazado_1554" data-name="Trazado 1554" d="M489.66,177.39a.65.65,0,0,1-.56-.32l-3.82-6.5a4.84,4.84,0,0,1-.82-2.88,5.22,5.22,0,0,1,10.4,0,4.51,4.51,0,0,1-.94,2.76l-3.7,6.61a.65.65,0,0,1-.56.33Zm0-13.66a4.16,4.16,0,0,0-4.34,4v0a4,4,0,0,0,.65,2.37v.06l3.64,6.2,3.53-6.31.05-.07a3.77,3.77,0,0,0,.78-2.26,4.17,4.17,0,0,0-4.35-4"/><path id="Trazado_1555" data-name="Trazado 1555" class="cls-6" d="M487.6,167.64a2.08,2.08,0,1,1,2.16,2h-.08a2,2,0,0,1-2.08-1.92v-.08"/><path id="Trazado_1556" data-name="Trazado 1556" d="M489.68,170.07a2.43,2.43,0,1,1,2.51-2.43,2.48,2.48,0,0,1-2.51,2.43m0-4a1.57,1.57,0,1,0,1.65,1.57,1.62,1.62,0,0,0-1.65-1.57"/><path id="Trazado_1557" data-name="Trazado 1557" d="M333,273.32a.81.81,0,0,1-.41-1.52l15-8.78-14.93-8.78a.8.8,0,0,1,.78-1.39l16.13,9.48a.81.81,0,0,1,.28,1.11.86.86,0,0,1-.28.29l-16.18,9.48a.84.84,0,0,1-.41.11"/><path id="Trazado_1558" data-name="Trazado 1558" class="cls-20" d="M354.29,267.66a5.14,5.14,0,1,0-5.07-5.21v.06a5.11,5.11,0,0,0,5.07,5.15h0"/><path id="Trazado_1559" data-name="Trazado 1559" d="M354.3,268.27h0a5.76,5.76,0,0,1-5.67-5.85h0a5.82,5.82,0,0,1,1.67-4,5.63,5.63,0,0,1,4-1.67h0a5.77,5.77,0,0,1,4,9.83,5.63,5.63,0,0,1-4,1.67m0-10.28a4.43,4.43,0,0,0-3.15,1.31,4.55,4.55,0,0,0,0,6.43,4.5,4.5,0,0,0,3.11,1.32h0a4.39,4.39,0,0,0,3.15-1.31,4.55,4.55,0,0,0,0-6.43A4.5,4.5,0,0,0,354.3,258Z"/><path id="Trazado_1560" data-name="Trazado 1560" d="M348.71,280.29a.63.63,0,0,1-.3-.07L321.7,268a.73.73,0,0,1,.61-1.33L349,278.89a.73.73,0,0,1,.38,1l0,0a.74.74,0,0,1-.67.43"/><path id="Trazado_1561" data-name="Trazado 1561" d="M322.38,260.26a.73.73,0,0,1-.33-1.39l27.07-13.31a.73.73,0,0,1,.68,1.3h0l-27.1,13.32a.72.72,0,0,1-.32.08"/><path id="Trazado_1562" data-name="Trazado 1562" class="cls-20" d="M333.43,276.72a5,5,0,1,0-4.89-5.11v.17a4.94,4.94,0,0,0,4.88,5h0"/><path id="Trazado_1563" data-name="Trazado 1563" d="M333.45,277.33h0a5.59,5.59,0,0,1-3.88-9.53,5.44,5.44,0,0,1,3.9-1.62h0a5.59,5.59,0,0,1,3.88,9.52,5.46,5.46,0,0,1-3.89,1.63m0-1.22h0a4.19,4.19,0,0,0,3-1.27,4.37,4.37,0,0,0-3-7.44h0a4.26,4.26,0,0,0-3,1.26,4.37,4.37,0,0,0,3,7.45"/><path id="Trazado_1564" data-name="Trazado 1564" class="cls-17" d="M354.33,265.8a3.24,3.24,0,1,0-3.19-3.29h0a3.22,3.22,0,0,0,3.18,3.24h0"/><path id="Trazado_1565" data-name="Trazado 1565" class="cls-20" d="M354.05,251.18a5.15,5.15,0,1,0-5.05-5.25V246h0a5.11,5.11,0,0,0,5.06,5.16h0"/><path id="Trazado_1566" data-name="Trazado 1566" d="M354.06,251.79h0a5.76,5.76,0,0,1-4-9.83,5.62,5.62,0,0,1,4-1.68h0a5.77,5.77,0,0,1,4,9.83,5.68,5.68,0,0,1-4,1.68m0-10.29a4.4,4.4,0,0,0-3.15,1.32,4.56,4.56,0,0,0,0,6.43,4.61,4.61,0,0,0,3.12,1.32h0a4.44,4.44,0,0,0,3.15-1.32,4.55,4.55,0,0,0,0-6.43A4.5,4.5,0,0,0,354,241.5Z"/><path id="Trazado_1567" data-name="Trazado 1567" class="cls-17" d="M354.08,249.31A3.23,3.23,0,1,0,350.9,246h0a3.2,3.2,0,0,0,3.16,3.24h0"/><path id="Trazado_1568" data-name="Trazado 1568" class="cls-20" d="M354.05,284.39a5.14,5.14,0,1,0-5.07-5.21v.06a5.1,5.1,0,0,0,5,5.15h0"/><path id="Trazado_1569" data-name="Trazado 1569" d="M354.06,285h0a5.76,5.76,0,0,1-4-9.83,5.62,5.62,0,0,1,4-1.68h0a5.77,5.77,0,0,1,4,9.83,5.68,5.68,0,0,1-4,1.68m0-10.29a4.4,4.4,0,0,0-3.15,1.32,4.54,4.54,0,0,0,3.14,7.74h0a4.39,4.39,0,0,0,3.15-1.31,4.55,4.55,0,0,0,0-6.43A4.5,4.5,0,0,0,354.06,274.71Z"/><path id="Trazado_1570" data-name="Trazado 1570" class="cls-17" d="M354.08,282.53a3.23,3.23,0,1,0-3.18-3.28h0a3.2,3.2,0,0,0,3.16,3.24h0"/><path id="Trazado_1571" data-name="Trazado 1571" class="cls-17" d="M333.47,275a3.2,3.2,0,1,0-3.15-3.25h0a3.18,3.18,0,0,0,3.15,3.21h0"/><path id="Trazado_1572" data-name="Trazado 1572" class="cls-20" d="M333.43,258.52a5,5,0,1,0-4.89-5.11v.17a4.94,4.94,0,0,0,4.88,5h0"/><path id="Trazado_1573" data-name="Trazado 1573" d="M333.45,259.14h0a5.59,5.59,0,0,1-3.88-9.53,5.44,5.44,0,0,1,3.9-1.63h0a5.59,5.59,0,0,1,3.88,9.53,5.48,5.48,0,0,1-3.89,1.63m0-1.23h0a4.18,4.18,0,0,0,3-1.26,4.37,4.37,0,0,0-3-7.45h0a4.27,4.27,0,0,0-3,1.27,4.36,4.36,0,0,0,3,7.44"/><path id="Trazado_1574" data-name="Trazado 1574" class="cls-17" d="M333.47,256.8a3.2,3.2,0,1,0-3.15-3.25h0a3.18,3.18,0,0,0,3.15,3.21h0"/><path id="Trazado_1575" data-name="Trazado 1575" class="cls-20" d="M312.44,268.05l-9.14-1.76c-.8-.16-1.39-1.7-1.39-2.89v-1.17c0-1.19.6-2.73,1.39-2.89l9.14-1.76c1-.18,1.8.92,1.8,2.35v5.77c0,1.43-.84,2.54-1.8,2.35"/><path id="Trazado_1576" data-name="Trazado 1576" class="cls-19" d="M302.28,260.36a2.67,2.67,0,1,0-.2,5.34h.2"/><path id="Trazado_1577" data-name="Trazado 1577" d="M302.28,266.15a3.13,3.13,0,1,1-.47-6.24h.47v.91a2.22,2.22,0,0,0-.16,4.43h.16Z"/><path id="Trazado_1578" data-name="Trazado 1578" class="cls-18" d="M306.78,266.7s-2.16,2.25-.4,4.58a.29.29,0,0,1-.06.41h0a.37.37,0,0,1-.18.05H303.9a.51.51,0,0,1-.51-.51h0v-5.09"/><path id="Trazado_1579" data-name="Trazado 1579" d="M306.14,272.2H303.9a1,1,0,0,1-1-1v-5.09h.91v5.09a.06.06,0,0,0,0,.06h1.93a4,4,0,0,1,.62-4.9l.66.63c-.07.08-1.86,2-.37,4a.75.75,0,0,1-.15,1.05.81.81,0,0,1-.45.15"/><path id="Trazado_1580" data-name="Trazado 1580" class="cls-18" d="M311.77,267.69l-8.65-1.23c-.76-.11-1.32-1.18-1.32-2v-.82c0-.83.56-1.9,1.32-2l8.65-1.23a1.57,1.57,0,0,1,1.71,1.42h0a.81.81,0,0,1,0,.22v4a1.56,1.56,0,0,1-1.48,1.64h-.23"/><path id="Trazado_1581" data-name="Trazado 1581" d="M312.65,268.7h-.33l-9.14-1.77c-1.24-.23-1.9-2.18-1.9-3.5v-1.16c0-1.32.66-3.27,1.9-3.5l9.14-1.77a1.78,1.78,0,0,1,1.5.41,3.3,3.3,0,0,1,1.05,2.56v5.76a3.3,3.3,0,0,1-1.05,2.56,1.86,1.86,0,0,1-1.17.44m0-10.51h-.09L303.42,260c-.3.06-.88,1.12-.88,2.27v1.17c0,1.15.58,2.21.88,2.27l9.14,1.76a.52.52,0,0,0,.46-.14,2.13,2.13,0,0,0,.6-1.59V260a2.13,2.13,0,0,0-.6-1.59.58.58,0,0,0-.38-.15"/><rect id="Rectángulo_269" data-name="Rectángulo 269" x="311.97" y="257.43" width="0.91" height="10.27"/><path id="Trazado_1582" data-name="Trazado 1582" d="M320.47,270.15l-1-1a8.54,8.54,0,0,0,0-11.9l1-1a10,10,0,0,1,0,13.9"/><path id="Trazado_1583" data-name="Trazado 1583" d="M318.5,268.15l-1-1a5.68,5.68,0,0,0,0-7.9l1-1a7.12,7.12,0,0,1,0,9.9"/><path id="Trazado_1584" data-name="Trazado 1584" d="M316.52,266.15l-1-1a2.86,2.86,0,0,0,0-3.91l1-1a4.28,4.28,0,0,1,0,5.91"/><path id="Trazado_1585" data-name="Trazado 1585" class="cls-17" d="M763.79,187.24h0A12.79,12.79,0,0,1,751,174.45V153.3a12.79,12.79,0,0,1,25.58,0h0v21.15a12.79,12.79,0,0,1-12.79,12.79h0"/><path id="Trazado_1586" data-name="Trazado 1586" d="M773.91,193.4H751.84a6.94,6.94,0,0,1-6.93-6.93v-50.2a7,7,0,0,1,6.93-6.94h22.07a7,7,0,0,1,6.93,6.94v50.2a7,7,0,0,1-6.93,6.93m-22.07-62.56a5.43,5.43,0,0,0-5.42,5.43v50.2a5.44,5.44,0,0,0,5.42,5.42h22.07a5.44,5.44,0,0,0,5.42-5.42v-50.2a5.45,5.45,0,0,0-5.42-5.43Z"/><rect id="Rectángulo_270" data-name="Rectángulo 270" x="760.49" y="133.2" width="9.3" height="2.01"/><rect id="Rectángulo_271" data-name="Rectángulo 271" x="756.97" y="133.2" width="2.26" height="2.01"/><path id="Trazado_1587" data-name="Trazado 1587" d="M775.13,186.61H750.66A2.65,2.65,0,0,1,748,184V139.68a2.65,2.65,0,0,1,2.64-2.63h24.47a2.65,2.65,0,0,1,2.64,2.63V184a2.64,2.64,0,0,1-2.64,2.64h0m-24.47-48.5a1.57,1.57,0,0,0-1.58,1.56h0V184a1.58,1.58,0,0,0,1.58,1.58h24.47a1.58,1.58,0,0,0,1.58-1.58h0V139.68a1.57,1.57,0,0,0-1.57-1.57h0Z"/><path id="Trazado_1588" data-name="Trazado 1588" class="cls-17" d="M787.78,166.94l5.23-5.47,2.33,2.43,6.39-6.69v9.73Z"/><path id="Trazado_1589" data-name="Trazado 1589" class="cls-19" d="M796.15,150.12h0a6.72,6.72,0,1,1,6.72-6.72h0a6.72,6.72,0,0,1-6.72,6.72h0"/><path id="Trazado_1590" data-name="Trazado 1590" d="M800,149.37H789.85a2.14,2.14,0,0,1-2.14-2.14h0V137.06a2.16,2.16,0,0,1,2.14-2.14H800a2.16,2.16,0,0,1,2.14,2.14v10.17a2.14,2.14,0,0,1-2.14,2.14h0m-10.16-13.44a1.14,1.14,0,0,0-1.14,1.13v10.17a1.14,1.14,0,0,0,1.13,1.13H800a1.14,1.14,0,0,0,1.14-1.12h0V137.06a1.14,1.14,0,0,0-1.14-1.13Z"/><path id="Trazado_1591" data-name="Trazado 1591" class="cls-6" d="M793.11,139.27v5.88l4.31-2.94Z"/><path id="Trazado_1592" data-name="Trazado 1592" d="M801.65,167.48H788.21a.51.51,0,0,1-.49-.48V154.48a.47.47,0,0,1,.48-.48h13.45a.47.47,0,0,1,.49.47h0V167a.5.5,0,0,1-.49.49m-12.95-1h12.47V155H788.7Z"/><path id="Trazado_1593" data-name="Trazado 1593" class="cls-18" d="M796.15,187.3h0a6.72,6.72,0,1,1,6.72-6.72h0a6.72,6.72,0,0,1-6.72,6.72h0"/><path id="Trazado_1594" data-name="Trazado 1594" d="M799.46,186.55H790.4a2.68,2.68,0,0,1-2.69-2.67V174.8a2.68,2.68,0,0,1,2.67-2.69h9.08a2.7,2.7,0,0,1,2.7,2.69v9.06a2.7,2.7,0,0,1-2.7,2.69m-9.06-13.44a1.69,1.69,0,0,0-1.69,1.69h0v9.06a1.69,1.69,0,0,0,1.69,1.69h9.06a1.69,1.69,0,0,0,1.69-1.69h0V174.8a1.69,1.69,0,0,0-1.69-1.69H790.4Z"/><path id="Trazado_1595" data-name="Trazado 1595" class="cls-18" d="M796.46,158.33a1.57,1.57,0,1,1-1.57-1.57h0a1.57,1.57,0,0,1,1.57,1.57h0"/><path id="Trazado_1596" data-name="Trazado 1596" class="cls-6" d="M799.35,177.35v4.11l-2.14-2.06Z"/><rect id="Rectángulo_272" data-name="Rectángulo 272" class="cls-6" x="792.32" y="177.08" width="4.65" height="4.65"/><path id="Trazado_1597" data-name="Trazado 1597" d="M788,177.71a.46.46,0,0,1-.3-.09l-23.11-15.88a.53.53,0,0,1-.13-.74h0a.34.34,0,0,1,.12-.12L788,143.53a.52.52,0,0,1,.73.1h0a.54.54,0,0,1-.11.74l-22.8,16.91,22.49,15.46a.54.54,0,0,1,.14.74.52.52,0,0,1-.44.22"/><path id="Trazado_1598" data-name="Trazado 1598" class="cls-20" d="M770,161.37a6.5,6.5,0,1,1-6.5-6.5h0a6.5,6.5,0,0,1,6.49,6.5"/><path id="Trazado_1599" data-name="Trazado 1599" d="M763.5,168.39a7,7,0,1,1,7-7h0a7,7,0,0,1-7,7m0-13a6,6,0,1,0,6,6h0a6,6,0,0,0-6-6"/><path id="Trazado_1600" data-name="Trazado 1600" d="M788.29,161.59h-2.68a.66.66,0,0,1-.65-.66.65.65,0,0,1,.65-.64h2.68a.65.65,0,0,1,.65.64.66.66,0,0,1-.65.66m-6.58,0h-3.9a.66.66,0,0,1-.65-.66.65.65,0,0,1,.65-.64h3.9a.65.65,0,0,1,.65.64.66.66,0,0,1-.65.66m-7.8,0H770a.66.66,0,0,1-.65-.66.65.65,0,0,1,.65-.64h3.9a.65.65,0,0,1,.65.64.66.66,0,0,1-.65.66"/><path id="Trazado_1601" data-name="Trazado 1601" class="cls-18" d="M769,161.93a5.2,5.2,0,1,1-5.2-5.21,5.2,5.2,0,0,1,5.2,5.21h0"/><path id="Trazado_1602" data-name="Trazado 1602" d="M762.83,164.71a.75.75,0,0,1-.48-.18l-2.27-2a.75.75,0,0,1,1-1.11h0l1.71,1.48,3.9-4.57a.72.72,0,0,1,1-.08.73.73,0,0,1,.09,1l-4.39,5.14a.69.69,0,0,1-.5.25h0"/><path id="Trazado_1603" data-name="Trazado 1603" class="cls-16" d="M566.72,127.19h14.43s-5.48-10.51-6.87-15.9c-1.17-4.52,5.57-4.17,6.07-13.06h0v.12c0-11-7.93-17.45-17.42-17.45s-17.16,6.85-17.16,15.31a11.34,11.34,0,0,0,1.2,6l2.49.25s-1.12,5.06,1.66,7.1,1.39,6.61,3.66,7.21,4.93-3,4.93-3,10.1,11.54,7,13.4"/><path id="Trazado_1604" data-name="Trazado 1604" d="M584.33,126.31a.71.71,0,0,1-.5-.21c-3-3-6.78-16.33-6.94-16.9l-.11-.4.29-.29c4-4.1,4.63-8.7,4.67-12.67,0-12.47-10.3-19.2-20-19.2-10.08,0-18.28,7.41-18.28,16.52a12.41,12.41,0,0,0,1.25,6.45.71.71,0,0,1-1.25.66,13.87,13.87,0,0,1-1.4-7.11c0-9.89,8.83-17.93,19.68-17.93a22.43,22.43,0,0,1,14.75,5.48,19.48,19.48,0,0,1,4.84,6.5,20.41,20.41,0,0,1,1.82,8.64c0,4.16-.64,9-4.79,13.35,1.17,4,4.29,13.67,6.48,15.9a.7.7,0,0,1,0,1h0a.66.66,0,0,1-.51.21"/><path id="Trazado_1605" data-name="Trazado 1605" d="M549.46,121.54a11.16,11.16,0,0,1-1.38-.05c-2.74-.17-2.89-.62-3-.92a.71.71,0,0,1,.45-.89.72.72,0,0,1,.68.12c.91.32,7.57,1,12-2,2.82-1.91,4.14-5,3.93-9.06a.71.71,0,1,1,1.4-.23.61.61,0,0,1,0,.14h0c.19,3.81-.83,6.86-3,9.06a13.25,13.25,0,0,1-7.07,3.42,22.37,22.37,0,0,1-4,.36"/><path id="Trazado_1606" data-name="Trazado 1606" d="M545.77,121.06h0a.72.72,0,0,1-.7-.72v-.64a18.67,18.67,0,0,0-.06-2.59c-.12-1-.35-1.17-.36-1.17a1.71,1.71,0,0,1-1.15-.93,1.52,1.52,0,0,1-.06-1.07v-.3a3,3,0,0,1-1.42-1.55,1.1,1.1,0,0,1,.21-.91l.1-.11c-2.06-.14-3.28-.64-3.72-1.54a2.1,2.1,0,0,1,.38-2.23c3-4.34,4.85-7.23,4.87-7.26a.71.71,0,0,1,1.2.75s-1.86,3-4.91,7.32c-.25.35-.35.64-.28.79s.89.7,3,.78h0c.36,0,1.11.11,1.33.72s-.22,1-.54,1.33l-.16.16a4.53,4.53,0,0,0,1,.68l.33.18.13,1.42-.08.15a.24.24,0,0,0,0,.12.5.5,0,0,0,.27.14c1.5.47,1.46,3,1.42,5.14v.64a.72.72,0,0,1-.71.7"/><path id="Trazado_1607" data-name="Trazado 1607" d="M560.67,127.35l-.79-.28c0-.14,1.11-3.48-3.86-6.69l.47-.71c5.56,3.6,4.25,7.52,4.19,7.68"/><path id="Trazado_1608" data-name="Trazado 1608" d="M544.12,113.77a.36.36,0,0,1-.17-.69c.85-.44,3.07-.11,3.51,0a.38.38,0,0,1,.29.43.37.37,0,0,1-.41.29,7.83,7.83,0,0,0-3.05,0,.49.49,0,0,1-.17,0"/><path id="Trazado_1609" data-name="Trazado 1609" class="cls-17" d="M569.81,99.24A5,5,0,0,1,566,97.92a4.44,4.44,0,0,0-1.28-1,12.77,12.77,0,0,1-4.24.73c-5,0-9.06-2.75-9.08-6.18v-.08A6,6,0,0,1,554,87c3.18-2.53,8.32-3.67,13.74-3,4.18.49,7.13,1.86,8.77,4.08a8.16,8.16,0,0,1,1.06,7c-1,2.52-4,3.77-6.37,4.09a9.76,9.76,0,0,1-1.32.09"/></g></g></g><g id="Grupo_219" data-name="Grupo 219"><g class="cls-21"><g id="Grupo_218" data-name="Grupo 218"><rect id="Rectángulo_274" data-name="Rectángulo 274" class="cls-22" x="543.33" y="72.62" width="38.58" height="32.5" transform="translate(11.25 231.81) rotate(-23.51)"/></g></g></g><g id="Grupo_221" data-name="Grupo 221"><g class="cls-2"><g id="Grupo_220" data-name="Grupo 220"><path id="Trazado_1611" data-name="Trazado 1611" d="M547.81,99.32c-.86.94-.17,2.24.22,2.83a.47.47,0,0,0,.57.18l4.2-1.7a.48.48,0,0,0,.26-.62.48.48,0,0,0-.37-.29c-1.86-.28-4.65-.66-4.88-.4"/><path id="Trazado_1612" data-name="Trazado 1612" d="M564.16,109.34a3.37,3.37,0,0,1-1-.16.6.6,0,0,1-.52-.67.61.61,0,0,1,.68-.52l.09,0h.11a1.82,1.82,0,0,0,1.53-.14c1.39-.78,2.25-3.2,2.46-4.07h0a2.43,2.43,0,0,0-.12-1.72,1.64,1.64,0,0,0-1.17-.7c-2-.36-2.3.83-2.34,1a.6.6,0,0,1-.71.45h0a.6.6,0,0,1-.46-.71h0c.19-.85,1.21-2.34,3.73-1.87a2.77,2.77,0,0,1,2,1.27,3.61,3.61,0,0,1,.24,2.66c-.08.3-1,3.65-3,4.81a3,3,0,0,1-1.49.4"/><path id="Trazado_1613" data-name="Trazado 1613" class="cls-19" d="M558.26,89.43a3.74,3.74,0,0,0,.1-1l1-.5-.45-1.46-1.11.17a3.31,3.31,0,0,0-.64-.8l.37-1-1.36-.71-.64.88a3.45,3.45,0,0,0-1.06-.11l-.46-1-1.47.45.16,1.05a3.62,3.62,0,0,0-.82.69l-1-.36-.72,1.36.87.64a3.36,3.36,0,0,0-.09,1l-1,.47.45,1.47,1.1-.17a3.79,3.79,0,0,0,.66.78l-.37,1.06,1.35.72.68-.93a4.19,4.19,0,0,0,1,.09l.5,1,1.46-.45-.17-1.15a4.11,4.11,0,0,0,.75-.63l1.1.39.72-1.35Zm-3.82.61a1.51,1.51,0,1,1,1.73-1.26A1.51,1.51,0,0,1,554.44,90"/><path id="Trazado_1614" data-name="Trazado 1614" class="cls-23" d="M555.34,93.75a.47.47,0,0,1-.41-.25l-.37-.79a4.51,4.51,0,0,1-.52,0l-.51.7a.45.45,0,0,1-.56.13l-1.36-.72a.43.43,0,0,1-.21-.54l.28-.79a3.62,3.62,0,0,1-.36-.42l-.82.12a.43.43,0,0,1-.49-.3l-.46-1.47a.45.45,0,0,1,.24-.53l.72-.35a5.61,5.61,0,0,1,0-.58l-.64-.48a.43.43,0,0,1-.13-.56l.72-1.36a.44.44,0,0,1,.53-.21l.74.27a5.71,5.71,0,0,1,.47-.39l-.12-.78a.45.45,0,0,1,.31-.49l1.47-.45a.46.46,0,0,1,.53.23l.34.72a5.9,5.9,0,0,1,.59.06l.47-.64a.43.43,0,0,1,.56-.13l1.36.71A.43.43,0,0,1,558,85l-.27.79c.12.14.24.28.35.43l.82-.13a.44.44,0,0,1,.49.31l.46,1.46a.45.45,0,0,1-.24.53l-.78.38a4.34,4.34,0,0,1,0,.51l.7.52a.44.44,0,0,1,.13.56l-.72,1.36a.45.45,0,0,1-.54.21l-.83-.3-.39.32.13.87a.43.43,0,0,1-.3.49l-1.47.46h-.13m-.5-1.93a.46.46,0,0,1,.4.25l.33.7.74-.23-.12-.77a.43.43,0,0,1,.2-.44,3.16,3.16,0,0,0,.66-.55.45.45,0,0,1,.48-.12l.73.26.36-.68-.61-.45a.46.46,0,0,1-.17-.46,3.18,3.18,0,0,0,.09-.87.44.44,0,0,1,.25-.41l.69-.33-.23-.74-.73.12a.47.47,0,0,1-.45-.21,2.92,2.92,0,0,0-.56-.7.44.44,0,0,1-.12-.47L557,85l-.68-.36-.42.57a.46.46,0,0,1-.46.17,2.92,2.92,0,0,0-.93-.1.44.44,0,0,1-.42-.25l-.3-.63-.73.23.1.67a.47.47,0,0,1-.21.45,3,3,0,0,0-.73.6.45.45,0,0,1-.48.12l-.64-.23-.36.68.56.41a.46.46,0,0,1,.17.46,3.23,3.23,0,0,0-.08.93.43.43,0,0,1-.25.42l-.64.31.23.74.72-.12a.48.48,0,0,1,.44.2,3.22,3.22,0,0,0,.58.69.42.42,0,0,1,.12.48l-.24.7.68.36.45-.62a.46.46,0,0,1,.45-.17,3.17,3.17,0,0,0,.87.08Zm-.16-1.32a2,2,0,1,1,2-2,1.61,1.61,0,0,1,0,.31,2,2,0,0,1-1.93,1.65m-.17-.9a1.07,1.07,0,0,0,1.22-.89,1.07,1.07,0,1,0-2.11-.33h0a1.07,1.07,0,0,0,.89,1.22"/><path id="Trazado_1615" data-name="Trazado 1615" class="cls-24" d="M565.21,85.34a3.74,3.74,0,0,0,.1-1l1-.49-.46-1.47-1.11.17a3.61,3.61,0,0,0-.65-.8l.38-1-1.33-.7-.64.88a3.79,3.79,0,0,0-1.06-.11l-.47-1-1.47.45.17,1.06a3.67,3.67,0,0,0-.83.69l-1-.36L557.11,83l.87.64a3.77,3.77,0,0,0-.09,1.06l-1,.47.46,1.47,1.1-.17a3.5,3.5,0,0,0,.66.78l-.37,1.06,1.36.72.68-.92a3.72,3.72,0,0,0,1,.08l.5,1,1.47-.46-.18-1.15a3.44,3.44,0,0,0,.75-.62l1.1.39.72-1.36Zm-3.89,1a1.89,1.89,0,1,1,2.16-1.57h0a1.87,1.87,0,0,1-2.14,1.57h0"/><path id="Trazado_1616" data-name="Trazado 1616" d="M562.28,89.54a.31.31,0,0,1-.29-.18l-.41-.86a3.53,3.53,0,0,1-.65,0l-.57.76a.31.31,0,0,1-.4.1l-1.36-.73a.31.31,0,0,1-.15-.38l.31-.87a3.24,3.24,0,0,1-.45-.53l-.9.14a.33.33,0,0,1-.35-.22l-.45-1.47a.31.31,0,0,1,.16-.38l.8-.38a3.51,3.51,0,0,1,.07-.72l-.71-.52a.31.31,0,0,1-.1-.4l.72-1.36a.31.31,0,0,1,.39-.15l.82.29a3.29,3.29,0,0,1,.57-.48l-.13-.86a.33.33,0,0,1,.22-.35l1.47-.45a.3.3,0,0,1,.38.17l.37.79a3.54,3.54,0,0,1,.73.07l.53-.71a.3.3,0,0,1,.4-.09l1.36.72a.31.31,0,0,1,.15.38l-.3.86a4.51,4.51,0,0,1,.44.54l.91-.14a.33.33,0,0,1,.35.22l.45,1.47a.3.3,0,0,1-.17.38l-.85.41a4.62,4.62,0,0,1-.07.65l.77.57a.3.3,0,0,1,.09.4l-.71,1.36a.34.34,0,0,1-.39.15l-.91-.33a3.89,3.89,0,0,1-.5.41l.15,1a.33.33,0,0,1-.22.35l-1.47.45h-.1m-.5-1.68a.33.33,0,0,1,.29.18l.38.8.95-.29-.14-.89a.3.3,0,0,1,.15-.31,4.24,4.24,0,0,0,.69-.58.31.31,0,0,1,.33-.08l.85.3.46-.88L565,85.6a.33.33,0,0,1-.12-.33,3.4,3.4,0,0,0,.09-.9.3.3,0,0,1,.18-.3l.79-.38-.29-1-.85.13a.3.3,0,0,1-.31-.15,3.83,3.83,0,0,0-.6-.73.31.31,0,0,1-.08-.33l.28-.79-.88-.47-.48.66a.33.33,0,0,1-.33.12,3.74,3.74,0,0,0-1-.1.34.34,0,0,1-.3-.18l-.35-.73-1,.29.12.79a.34.34,0,0,1-.14.32,3.08,3.08,0,0,0-.76.63.35.35,0,0,1-.35.09L558,82l-.46.88.65.48a.31.31,0,0,1,.12.32,3.72,3.72,0,0,0-.08,1,.34.34,0,0,1-.18.3l-.74.35.29,1,.83-.13a.32.32,0,0,1,.32.15,3.75,3.75,0,0,0,.61.71.31.31,0,0,1,.08.35l-.28.8.88.47.52-.71a.31.31,0,0,1,.32-.12,3.46,3.46,0,0,0,.91.07Zm-.16-1.21h-.34a2.21,2.21,0,1,1,.67-4.37h0a2.21,2.21,0,0,1-.33,4.39m-.24-.65a1.57,1.57,0,0,0,.48-3.11,1.58,1.58,0,0,0-1.17.29,1.56,1.56,0,0,0-.34,2.19h0a1.57,1.57,0,0,0,1,.62"/><path id="Trazado_1617" data-name="Trazado 1617" class="cls-18" d="M573.86,90.22a5.57,5.57,0,0,0,0-1.29l1.25-.81-.83-1.81-1.4.41a4.86,4.86,0,0,0-1-.92l.3-1.41-1.87-.69-.67,1.23a4.56,4.56,0,0,0-1.38,0l-.76-1.17-1.82.83.39,1.33a5.29,5.29,0,0,0-1,1l-1.36-.28-.7,1.86,1.23.68a5.23,5.23,0,0,0,.06,1.37l-1.18.77.83,1.81,1.38-.4a5,5,0,0,0,1,.9l-.3,1.42,1.87.7.71-1.31a4.65,4.65,0,0,0,1.29,0l.82,1.25,1.81-.83-.42-1.45a4.46,4.46,0,0,0,.86-.93l1.48.32.7-1.87ZM569,91.8a2.12,2.12,0,1,1,2.17-2.07h0A2.1,2.1,0,0,1,569,91.8h0"/><path id="Trazado_1618" data-name="Trazado 1618" d="M567.93,96.25a.38.38,0,0,1-.15,0l-1.87-.69a.44.44,0,0,1-.28-.51l.24-1.15a5,5,0,0,1-.64-.58l-1.11.33a.45.45,0,0,1-.53-.24l-.83-1.82a.44.44,0,0,1,.16-.55l1-.61a4.61,4.61,0,0,1,0-.91l-1-.54a.43.43,0,0,1-.2-.54l.69-1.87a.46.46,0,0,1,.51-.28l1.07.23a6.86,6.86,0,0,1,.64-.68l-.31-1.06a.44.44,0,0,1,.24-.52l1.81-.83a.45.45,0,0,1,.56.16l.6.94a4.71,4.71,0,0,1,.92,0l.53-1a.44.44,0,0,1,.55-.2l1.87.69a.45.45,0,0,1,.27.51l-.24,1.13a4.47,4.47,0,0,1,.63.6l1.12-.33a.45.45,0,0,1,.53.24l.83,1.82a.44.44,0,0,1-.16.55l-1,.66a5.47,5.47,0,0,1,0,.81l1.07.59a.44.44,0,0,1,.2.54L575,93a.46.46,0,0,1-.51.28l-1.2-.26a4.29,4.29,0,0,1-.54.59L573,94.8a.44.44,0,0,1-.24.52l-1.81.83a.44.44,0,0,1-.55-.16l-.67-1a5.47,5.47,0,0,1-.81,0l-.64,1a.48.48,0,0,1-.39.23m-1.36-1.42,1.15.43.54-1a.44.44,0,0,1,.43-.22,4.5,4.5,0,0,0,1.16,0,.42.42,0,0,1,.45.19l.61.94,1.12-.51-.32-1.09a.43.43,0,0,1,.15-.46,4.19,4.19,0,0,0,.78-.85.44.44,0,0,1,.45-.17l1.11.23.43-1.15-1-.54a.42.42,0,0,1-.23-.43,4.66,4.66,0,0,0,0-1.18.43.43,0,0,1,.2-.44l.93-.6L574,86.84l-1,.3a.46.46,0,0,1-.48-.15,4,4,0,0,0-.87-.83.46.46,0,0,1-.18-.45l.22-1-1.15-.43-.5.9a.45.45,0,0,1-.44.23,4.36,4.36,0,0,0-1.25,0,.45.45,0,0,1-.45-.19l-.55-.85-1.12.51.28,1a.42.42,0,0,1-.14.47,4.27,4.27,0,0,0-.87.93.42.42,0,0,1-.45.18l-1-.21-.43,1.16.9.48a.46.46,0,0,1,.22.44,4.31,4.31,0,0,0,.06,1.24.46.46,0,0,1-.19.46l-.87.56.51,1.12,1-.3a.45.45,0,0,1,.47.14,4.56,4.56,0,0,0,.89.81.46.46,0,0,1,.19.46Zm2.52-2.59H569a2.55,2.55,0,1,1,.06,0m0-4.23a1.73,1.73,0,1,0,1.75,1.71h0a1.72,1.72,0,0,0-1.74-1.7h0"/><path id="Trazado_1619" data-name="Trazado 1619" class="cls-16" d="M557.68,278.41h-2.32a10.28,10.28,0,1,1,0-20.56h2.32a10.28,10.28,0,1,1,0,20.56"/><path id="Trazado_1620" data-name="Trazado 1620" d="M566,278.92H542.21a1.31,1.31,0,0,1-1.29-1.3v-24a1.29,1.29,0,0,1,1.29-1.29H566a1.29,1.29,0,0,1,1.29,1.29v24a1.31,1.31,0,0,1-1.29,1.3m-23.71-1.41h23.59V253.74H542.33Z"/><path id="Trazado_1621" data-name="Trazado 1621" d="M542.58,283.54h-7.46v-7.37h1.38v6h6.08Z"/><path id="Trazado_1622" data-name="Trazado 1622" d="M573.13,283.54h-7.46v-1.37h6.08v-6h1.38Z"/><path id="Trazado_1623" data-name="Trazado 1623" d="M573.13,255.09h-1.38v-6h-6.08v-1.38h7.46Z"/><path id="Trazado_1624" data-name="Trazado 1624" d="M536.5,255.09h-1.37v-7.37h7.45v1.37H536.5Z"/><rect id="Rectángulo_275" data-name="Rectángulo 275" class="cls-19" x="535.16" y="264.33" width="37.85" height="1.68"/><path id="Trazado_1625" data-name="Trazado 1625" d="M546.21,262.83h-1.72v-6.51h7.63V258h-5.9Z"/><path id="Trazado_1626" data-name="Trazado 1626" d="M564.12,262.73h-6.6v-6.41h6.6ZM559.24,261h3.17v-3h-3.17Z"/><rect id="Rectángulo_276" data-name="Rectángulo 276" x="545.23" y="269.09" width="5.5" height="5.28"/><path id="Trazado_1627" data-name="Trazado 1627" d="M550.21,262.83h-2.05v-3h5.71v2.05h-3.66Z"/><path id="Trazado_1628" data-name="Trazado 1628" d="M563.63,275.23H557.5v-1.72h4.4V268h1.72Z"/><rect id="Rectángulo_277" data-name="Rectángulo 277" x="553.81" y="257.9" width="2.26" height="2.05"/><path id="Trazado_1629" data-name="Trazado 1629" d="M555.05,274.61h-2v-4.4h5.67v2H555Z"/><rect id="Rectángulo_278" data-name="Rectángulo 278" x="555.69" y="268.24" width="5.26" height="2.05"/><path id="Trazado_1630" data-name="Trazado 1630" class="cls-16" d="M631.57,181.56a5,5,0,1,1-5-5,5,5,0,0,1,5,5"/><path id="Trazado_1631" data-name="Trazado 1631" class="cls-16" d="M648.14,167.06a2.76,2.76,0,1,1-2.76-2.76h0a2.75,2.75,0,0,1,2.75,2.75h0"/><path id="Trazado_1632" data-name="Trazado 1632" class="cls-16" d="M628.18,197.83a2.13,2.13,0,1,1-2.13-2.13,2.13,2.13,0,0,1,2.13,2.13h0"/><path id="Trazado_1633" data-name="Trazado 1633" class="cls-16" d="M610.7,173.23a2.36,2.36,0,1,1-2.36-2.36h0a2.35,2.35,0,0,1,2.35,2.35h0"/><path id="Trazado_1634" data-name="Trazado 1634" d="M625.88,188a6.75,6.75,0,1,1,6.75-6.75h0a6.77,6.77,0,0,1-6.75,6.75m0-12.27a5.52,5.52,0,1,0,5.52,5.52h0a5.52,5.52,0,0,0-5.52-5.52h0"/><path id="Trazado_1635" data-name="Trazado 1635" d="M607.42,176.2a3.37,3.37,0,1,1,3.36-3.38h0a3.35,3.35,0,0,1-3.35,3.37h0m0-5.42a2.06,2.06,0,1,0,2.05,2.07v0a2.05,2.05,0,0,0-2.05-2.05"/><path id="Trazado_1636" data-name="Trazado 1636" class="cls-17" d="M624.72,164.3a2.35,2.35,0,1,1-2.36-2.34h0a2.36,2.36,0,0,1,2.35,2.34"/><path id="Trazado_1637" data-name="Trazado 1637" d="M622.37,167.3a3,3,0,1,1,3-3,3,3,0,0,1-3,3m0-4.69a1.69,1.69,0,1,0,1.69,1.69h0a1.69,1.69,0,0,0-1.69-1.69h0"/><path id="Trazado_1638" data-name="Trazado 1638" d="M625.44,201.62a3.67,3.67,0,1,1,3.67-3.67h0a3.67,3.67,0,0,1-3.67,3.67m0-6.25A2.58,2.58,0,1,0,628,198a2.59,2.59,0,0,0-2.56-2.63h0"/><path id="Trazado_1639" data-name="Trazado 1639" d="M645.2,170.9a4.38,4.38,0,1,1,4.38-4.38h0a4.38,4.38,0,0,1-4.38,4.38h0m0-7.45a3.07,3.07,0,1,0,3.07,3.07h0a3.09,3.09,0,0,0-3.07-3.07"/><path id="Trazado_1640" data-name="Trazado 1640" class="cls-18" d="M613.26,192.54a2.68,2.68,0,1,1-2.69-2.67h0a2.68,2.68,0,0,1,2.68,2.67h0"/><path id="Trazado_1641" data-name="Trazado 1641" d="M610.58,195.87a3.33,3.33,0,1,1,3.33-3.33,3.33,3.33,0,0,1-3.33,3.33h0m0-5.35a2,2,0,1,0,2,2,2,2,0,0,0-2-2"/><path id="Trazado_1642" data-name="Trazado 1642" class="cls-17" d="M646.73,195.16a3.52,3.52,0,1,1-3.52-3.52h0a3.51,3.51,0,0,1,3.52,3.5v0h0"/><path id="Trazado_1643" data-name="Trazado 1643" d="M643.21,199.34a4.18,4.18,0,1,1,4.18-4.18h0a4.17,4.17,0,0,1-4.16,4.18h0m0-7.05a2.87,2.87,0,1,0,2.87,2.87h0a2.86,2.86,0,0,0-2.87-2.87"/><path id="Trazado_1644" data-name="Trazado 1644" d="M629.59,181.21a3.72,3.72,0,1,1-3.72-3.72h0a3.71,3.71,0,0,1,3.71,3.71h0"/><rect id="Rectángulo_279" data-name="Rectángulo 279" x="626.28" y="174.15" width="14.46" height="1.79" transform="translate(19.76 410.18) rotate(-36.41)"/><rect id="Rectángulo_280" data-name="Rectángulo 280" x="635.34" y="183.17" width="1.09" height="12.57" transform="translate(98.89 579.16) rotate(-52.56)"/><rect id="Rectángulo_281" data-name="Rectángulo 281" x="614.46" y="170.14" width="1.31" height="11.72" transform="translate(210.94 671.97) rotate(-66.79)"/><rect id="Rectángulo_282" data-name="Rectángulo 282" x="611.88" y="187.85" width="10.84" height="1.18" transform="translate(-9.1 343.97) rotate(-30.92)"/><rect id="Rectángulo_283" data-name="Rectángulo 283" x="621.69" y="190.83" width="7.87" height="0.86" transform="translate(399.85 805.28) rotate(-86.81)"/><rect id="Rectángulo_284" data-name="Rectángulo 284" x="623.72" y="166.33" width="0.94" height="8.94" transform="translate(-22.87 181.04) rotate(-16.21)"/></g></g></g></g></g></svg>