<svg id="Grupo_734" data-name="Grupo 734" xmlns="http://www.w3.org/2000/svg" xmlns:xlink="http://www.w3.org/1999/xlink" width="87.186" height="78.456" viewBox="0 0 87.186 78.456">
  <defs>
    <clipPath id="clip-path">
      <rect id="Rectángulo_588" data-name="Rectángulo 588" width="87.186" height="78.456" transform="translate(0 0)" fill="none"/>
    </clipPath>
  </defs>
  <g id="Grupo_733" data-name="Grupo 733" clip-path="url(#clip-path)">
    <path id="Trazado_2622" data-name="Trazado 2622" d="M50.741,39.228A24.607,24.607,0,1,0,26.135,63.834,24.606,24.606,0,0,0,50.741,39.228" fill="#fff"/>
    <path id="Trazado_2623" data-name="Trazado 2623" d="M26.135,60.955A21.727,21.727,0,1,1,47.862,39.228,21.753,21.753,0,0,1,26.135,60.955m0-40.81A19.083,19.083,0,1,0,45.218,39.228,19.105,19.105,0,0,0,26.135,20.145" fill="#ffe227"/>
    <rect id="Rectángulo_552" data-name="Rectángulo 552" width="2.636" height="1.454" transform="translate(24.816 13.093)" fill="#3e145e"/>
    <rect id="Rectángulo_553" data-name="Rectángulo 553" width="2.636" height="1.454" transform="matrix(0.985, -0.174, 0.174, 0.985, 20.298, 13.719)" fill="#3e145e"/>
    <rect id="Rectángulo_554" data-name="Rectángulo 554" width="2.636" height="1.454" transform="translate(15.958 15.12) rotate(-20.009)" fill="#3e145e"/>
    <rect id="Rectángulo_555" data-name="Rectángulo 555" width="2.636" height="1.454" transform="translate(11.926 17.253) rotate(-29.979)" fill="#3e145e"/>
    <rect id="Rectángulo_556" data-name="Rectángulo 556" width="2.636" height="1.454" transform="matrix(0.766, -0.643, 0.643, 0.766, 8.326, 20.055)" fill="#3e145e"/>
    <rect id="Rectángulo_557" data-name="Rectángulo 557" width="2.636" height="1.453" transform="matrix(0.643, -0.766, 0.766, 0.643, 5.268, 23.439)" fill="#3e145e"/>
    <rect id="Rectángulo_558" data-name="Rectángulo 558" width="2.636" height="1.453" transform="matrix(0.5, -0.866, 0.866, 0.5, 2.843, 27.302)" fill="#3e145e"/>
    <rect id="Rectángulo_559" data-name="Rectángulo 559" width="2.636" height="1.453" transform="translate(1.125 31.528) rotate(-69.991)" fill="#3e145e"/>
    <rect id="Rectángulo_560" data-name="Rectángulo 560" width="2.636" height="1.454" transform="translate(0.168 35.988) rotate(-79.995)" fill="#3e145e"/>
    <rect id="Rectángulo_561" data-name="Rectángulo 561" width="1.454" height="2.636" transform="translate(0 37.909)" fill="#3e145e"/>
    <rect id="Rectángulo_562" data-name="Rectángulo 562" width="1.454" height="2.637" transform="translate(0.168 42.468) rotate(-10.005)" fill="#3e145e"/>
    <rect id="Rectángulo_563" data-name="Rectángulo 563" width="1.454" height="2.636" transform="translate(1.125 46.928) rotate(-20.009)" fill="#3e145e"/>
    <rect id="Rectángulo_564" data-name="Rectángulo 564" width="1.454" height="2.636" transform="translate(2.843 51.153) rotate(-29.979)" fill="#3e145e"/>
    <rect id="Rectángulo_565" data-name="Rectángulo 565" width="1.454" height="2.637" transform="translate(5.267 55.017) rotate(-39.984)" fill="#3e145e"/>
    <rect id="Rectángulo_566" data-name="Rectángulo 566" width="1.453" height="2.636" transform="matrix(0.643, -0.766, 0.766, 0.643, 8.327, 58.401)" fill="#3e145e"/>
    <rect id="Rectángulo_567" data-name="Rectángulo 567" width="1.453" height="2.636" transform="translate(11.926 61.202) rotate(-60.002)" fill="#3e145e"/>
    <rect id="Rectángulo_568" data-name="Rectángulo 568" width="1.453" height="2.636" transform="matrix(0.342, -0.94, 0.94, 0.342, 15.958, 63.335)" fill="#3e145e"/>
    <rect id="Rectángulo_569" data-name="Rectángulo 569" width="1.454" height="2.636" transform="translate(20.299 64.737) rotate(-80.016)" fill="#3e145e"/>
    <rect id="Rectángulo_570" data-name="Rectángulo 570" width="2.636" height="1.454" transform="translate(24.816 63.909)" fill="#3e145e"/>
    <rect id="Rectángulo_571" data-name="Rectángulo 571" width="2.636" height="1.454" transform="translate(29.122 63.762) rotate(-9.984)" fill="#3e145e"/>
    <rect id="Rectángulo_572" data-name="Rectángulo 572" width="2.635" height="1.453" transform="translate(33.338 62.871) rotate(-19.989)" fill="#3e145e"/>
    <rect id="Rectángulo_573" data-name="Rectángulo 573" width="2.636" height="1.454" transform="translate(37.333 61.261) rotate(-29.998)" fill="#3e145e"/>
    <rect id="Rectángulo_574" data-name="Rectángulo 574" width="2.637" height="1.454" transform="matrix(0.766, -0.643, 0.643, 0.766, 40.989, 58.982)" fill="#3e145e"/>
    <rect id="Rectángulo_575" data-name="Rectángulo 575" width="2.636" height="1.453" transform="matrix(0.643, -0.766, 0.766, 0.643, 44.194, 56.102)" fill="#3e145e"/>
    <rect id="Rectángulo_576" data-name="Rectángulo 576" width="2.636" height="1.454" transform="matrix(0.5, -0.866, 0.866, 0.5, 46.85, 52.71)" fill="#3e145e"/>
    <rect id="Rectángulo_577" data-name="Rectángulo 577" width="2.636" height="1.453" transform="translate(48.877 48.908) rotate(-70.011)" fill="#3e145e"/>
    <rect id="Rectángulo_578" data-name="Rectángulo 578" width="2.636" height="1.454" transform="translate(50.211 44.812) rotate(-80.016)" fill="#3e145e"/>
    <rect id="Rectángulo_579" data-name="Rectángulo 579" width="1.454" height="2.636" transform="translate(50.815 37.91)" fill="#3e145e"/>
    <rect id="Rectángulo_580" data-name="Rectángulo 580" width="1.454" height="2.636" transform="matrix(0.985, -0.173, 0.173, 0.985, 50.212, 33.644)" fill="#3e145e"/>
    <rect id="Rectángulo_581" data-name="Rectángulo 581" width="1.454" height="2.636" transform="translate(48.876 29.548) rotate(-19.989)" fill="#3e145e"/>
    <rect id="Rectángulo_582" data-name="Rectángulo 582" width="1.454" height="2.637" transform="matrix(0.866, -0.5, 0.5, 0.866, 46.85, 25.746)" fill="#3e145e"/>
    <rect id="Rectángulo_583" data-name="Rectángulo 583" width="1.454" height="2.636" transform="translate(44.194 22.353) rotate(-39.984)" fill="#3e145e"/>
    <rect id="Rectángulo_584" data-name="Rectángulo 584" width="1.453" height="2.636" transform="translate(40.989 19.475) rotate(-50.016)" fill="#3e145e"/>
    <rect id="Rectángulo_585" data-name="Rectángulo 585" width="1.454" height="2.635" transform="translate(37.334 17.195) rotate(-60.021)" fill="#3e145e"/>
    <rect id="Rectángulo_586" data-name="Rectángulo 586" width="1.453" height="2.636" transform="matrix(0.342, -0.94, 0.94, 0.342, 33.337, 15.584)" fill="#3e145e"/>
    <rect id="Rectángulo_587" data-name="Rectángulo 587" width="1.454" height="2.637" transform="translate(29.122 14.693) rotate(-79.995)" fill="#3e145e"/>
    <path id="Trazado_2624" data-name="Trazado 2624" d="M74.327,71.379a4.711,4.711,0,0,1-2.127-.508L19.271,43.451a4.732,4.732,0,0,1,0-8.448L71.5,7.584a4.731,4.731,0,0,1,4.263,8.448l-43.852,23.2L76.463,62.423a4.732,4.732,0,0,1-2.136,8.956" fill="#fff"/>
    <path id="Trazado_2625" data-name="Trazado 2625" d="M74.328,72.757h0a6.135,6.135,0,0,1-2.747-.657L18.638,44.674a6.109,6.109,0,0,1,.013-10.9l52.2-27.409a6.109,6.109,0,1,1,5.523,10.9L34.87,39.218,77.1,61.2a6.109,6.109,0,0,1-2.771,11.555m-.707-64.3a3.347,3.347,0,0,0-1.506.359l-52.2,27.41a3.355,3.355,0,0,0-.02,6L72.834,69.648A3.3,3.3,0,0,0,74.328,70a3.355,3.355,0,0,0,1.515-6.349L31.27,40.448a1.375,1.375,0,0,1-.007-2.437l43.851-23.2a3.355,3.355,0,0,0-1.493-6.361" fill="#3e145e"/>
    <path id="Trazado_2626" data-name="Trazado 2626" d="M56.849,37.076l4.086,2.343-4.086,2.344Zm7.573,4.687,4.085-2.344-4.085-2.343Z" fill="#3e145e"/>
    <path id="Trazado_2627" data-name="Trazado 2627" d="M72.237,37.076l4.087,2.343-4.087,2.344Zm7.573,4.687L83.9,39.419,79.81,37.076Z" fill="#3e145e"/>
    <path id="Trazado_2628" data-name="Trazado 2628" d="M26.135,50.782A11.555,11.555,0,1,1,37.689,39.228,11.567,11.567,0,0,1,26.135,50.782m0-20.355a8.8,8.8,0,1,0,8.8,8.8,8.81,8.81,0,0,0-8.8-8.8"/>
    <path id="Trazado_2629" data-name="Trazado 2629" d="M75.632,23.108A11.554,11.554,0,1,1,87.187,11.554,11.568,11.568,0,0,1,75.632,23.108m0-20.355a8.8,8.8,0,1,0,8.8,8.8,8.811,8.811,0,0,0-8.8-8.8"/>
    <path id="Trazado_2630" data-name="Trazado 2630" d="M36.312,39.228A10.178,10.178,0,1,0,26.134,49.406,10.178,10.178,0,0,0,36.312,39.228" fill="#ffe227"/>
    <path id="Trazado_2631" data-name="Trazado 2631" d="M26.135,50.782A11.555,11.555,0,1,1,37.689,39.228,11.567,11.567,0,0,1,26.135,50.782m0-20.355a8.8,8.8,0,1,0,8.8,8.8,8.81,8.81,0,0,0-8.8-8.8" fill="#3e145e"/>
    <path id="Trazado_2632" data-name="Trazado 2632" d="M85.81,11.554A10.178,10.178,0,1,0,75.632,21.732,10.179,10.179,0,0,0,85.81,11.554" fill="#ffe227"/>
    <path id="Trazado_2633" data-name="Trazado 2633" d="M75.632,23.108A11.554,11.554,0,1,1,87.187,11.554,11.568,11.568,0,0,1,75.632,23.108m0-20.355a8.8,8.8,0,1,0,8.8,8.8,8.811,8.811,0,0,0-8.8-8.8" fill="#3e145e"/>
    <path id="Trazado_2634" data-name="Trazado 2634" d="M85.81,66.9A10.178,10.178,0,1,0,75.632,77.08,10.179,10.179,0,0,0,85.81,66.9" fill="#ffe227"/>
    <path id="Trazado_2635" data-name="Trazado 2635" d="M75.632,78.455A11.554,11.554,0,1,1,87.187,66.9,11.567,11.567,0,0,1,75.632,78.455m0-20.354a8.8,8.8,0,1,0,8.8,8.8,8.811,8.811,0,0,0-8.8-8.8" fill="#ffe227"/>
    <path id="Trazado_2636" data-name="Trazado 2636" d="M75.632,78.455A11.554,11.554,0,1,1,87.187,66.9,11.567,11.567,0,0,1,75.632,78.455m0-20.354a8.8,8.8,0,1,0,8.8,8.8,8.811,8.811,0,0,0-8.8-8.8" fill="#3e145e"/>
  </g>
</svg>
