<svg id="Grupo_716" data-name="Grupo 716" xmlns="http://www.w3.org/2000/svg" xmlns:xlink="http://www.w3.org/1999/xlink" width="53.15" height="78.594" viewBox="0 0 53.15 78.594">
  <defs>
    <clipPath id="clip-path">
      <rect id="Rectángulo_496" data-name="Rectángulo 496" width="53.15" height="78.594" transform="translate(0 0)" fill="none"/>
    </clipPath>
  </defs>
  <g id="Grupo_715" data-name="Grupo 715" clip-path="url(#clip-path)">
    <path id="Trazado_2463" data-name="Trazado 2463" d="M46.251,77.061H6.685A6.087,6.087,0,0,1,.6,70.974V38.589A6.087,6.087,0,0,1,6.685,32.5H46.251a6.087,6.087,0,0,1,6.087,6.087V70.974a6.087,6.087,0,0,1-6.087,6.087" fill="#ffe227"/>
    <path id="Trazado_2464" data-name="Trazado 2464" d="M49.241,78.594H3.909A3.912,3.912,0,0,1,0,74.686V36.411A3.912,3.912,0,0,1,3.909,32.5H49.241a3.912,3.912,0,0,1,3.909,3.908V74.686a3.913,3.913,0,0,1-3.909,3.908M3.909,35.108a1.3,1.3,0,0,0-1.3,1.3V74.686a1.3,1.3,0,0,0,1.3,1.3H49.241a1.3,1.3,0,0,0,1.3-1.3V36.411a1.3,1.3,0,0,0-1.3-1.3Z" fill="#3e145e"/>
    <path id="Trazado_2465" data-name="Trazado 2465" d="M40.695,35.107H12.453a1.3,1.3,0,0,1-1.3-1.3V23.045a15.424,15.424,0,1,1,30.847,0v10.76a1.3,1.3,0,0,1-1.3,1.3M13.756,32.5H39.393V23.045a12.819,12.819,0,0,0-25.637,0Z" fill="#3e145e"/>
    <path id="Trazado_2466" data-name="Trazado 2466" d="M48.092,35.107H5.057a1.3,1.3,0,0,1-1.3-1.3V22.82a22.82,22.82,0,0,1,45.64,0V33.805a1.3,1.3,0,0,1-1.3,1.3M6.361,32.5H46.79V22.82a20.215,20.215,0,0,0-40.429,0Z" fill="#3e145e"/>
    <path id="Trazado_2467" data-name="Trazado 2467" d="M36.775,71.308h-20.4a1.3,1.3,0,0,1-1.262-1.627l4.141-16.137a9.374,9.374,0,1,1,14.641,0l4.141,16.137a1.3,1.3,0,0,1-1.261,1.627M18.054,68.7H35.1L31.2,53.532a1.305,1.305,0,0,1,.311-1.214,6.767,6.767,0,1,0-9.875,0,1.3,1.3,0,0,1,.311,1.214Z" fill="#3e145e"/>
  </g>
</svg>
