<svg id="Grupo_728" data-name="Grupo 728" xmlns="http://www.w3.org/2000/svg" xmlns:xlink="http://www.w3.org/1999/xlink" width="101.205" height="85.825" viewBox="0 0 101.205 85.825">
  <defs>
    <clipPath id="clip-path">
      <rect id="Rectángulo_540" data-name="Rectángulo 540" width="101.205" height="85.825" transform="translate(0 0)" fill="none"/>
    </clipPath>
  </defs>
  <g id="Grupo_727" data-name="Grupo 727" clip-path="url(#clip-path)">
    <path id="Trazado_2547" data-name="Trazado 2547" d="M99.851,40.557A20.076,20.076,0,0,1,79.779,60.628H17.313a15.958,15.958,0,1,1,0-31.916,15.641,15.641,0,0,1,5.993,1.17,23.359,23.359,0,0,1-.337-4.042A24.48,24.48,0,0,1,71.659,22.2,20.066,20.066,0,0,1,99.851,40.557" fill="#ffe227"/>
    <path id="Trazado_2548" data-name="Trazado 2548" d="M79.208,61.983H17.841C8.177,61.983.176,54.363,0,45a17.328,17.328,0,0,1,21.691-17.08c-.054-.677-.079-1.373-.079-2.077a25.835,25.835,0,0,1,51.078-5.5A21.426,21.426,0,0,1,101.179,41.6c-.543,11.431-10.194,20.384-21.971,20.384m-61.9-31.916a14.607,14.607,0,0,0-14.6,14.88c.146,7.9,6.933,14.328,15.131,14.328H79.208c10.329,0,18.793-7.821,19.267-17.805A18.71,18.71,0,0,0,73.214,23.032a2.3,2.3,0,0,1-3.083-1.713A23.127,23.127,0,0,0,24.323,25.84a23.807,23.807,0,0,0,.122,2.424,2.261,2.261,0,0,1-.809,1.982,2.3,2.3,0,0,1-2.137.429,14.462,14.462,0,0,0-4.186-.608" fill="#3e145e"/>
    <path id="Trazado_2549" data-name="Trazado 2549" d="M48.8,72.784,37.118,84.472,25.432,72.784h5.209V35.523H43.595V72.784Z" fill="#fff"/>
    <path id="Trazado_2550" data-name="Trazado 2550" d="M37.118,85.826a1.349,1.349,0,0,1-.958-.4L24.473,73.743a1.355,1.355,0,0,1,.958-2.312h3.856V35.524a1.354,1.354,0,0,1,1.353-1.355H43.6a1.355,1.355,0,0,1,1.354,1.355V71.431H48.8a1.355,1.355,0,0,1,.958,2.312L38.075,85.429a1.347,1.347,0,0,1-.957.4M28.7,74.139l8.418,8.418,8.418-8.418H43.6a1.352,1.352,0,0,1-1.354-1.354V36.877H32V72.785a1.354,1.354,0,0,1-1.355,1.354Z" fill="#3e145e"/>
    <path id="Trazado_2551" data-name="Trazado 2551" d="M74.346,43.273,62.659,31.586,50.973,43.273h5.21V80.535H69.137V43.273Z" fill="#ffe227"/>
    <path id="Trazado_2552" data-name="Trazado 2552" d="M69.137,81.89H56.183a1.354,1.354,0,0,1-1.355-1.354V44.628H50.973a1.354,1.354,0,0,1-.957-2.311L61.7,30.63a1.355,1.355,0,0,1,1.916,0L75.3,42.317a1.354,1.354,0,0,1-.957,2.311H70.491V80.536a1.354,1.354,0,0,1-1.354,1.354m-11.6-2.708H67.782V43.274a1.355,1.355,0,0,1,1.355-1.354h1.94L62.659,33.5,54.242,41.92h1.941a1.354,1.354,0,0,1,1.354,1.354Z" fill="#3e145e"/>
    <rect id="Rectángulo_531" data-name="Rectángulo 531" width="2.241" height="2.241" transform="translate(45.022 22.287)" fill="#3e145e"/>
    <rect id="Rectángulo_532" data-name="Rectángulo 532" width="2.242" height="2.241" transform="translate(40.086 22.287)" fill="#3e145e"/>
    <rect id="Rectángulo_533" data-name="Rectángulo 533" width="2.241" height="2.241" transform="translate(45.022 17.981)" fill="#3e145e"/>
    <rect id="Rectángulo_534" data-name="Rectángulo 534" width="2.242" height="2.241" transform="translate(40.086 17.981)" fill="#3e145e"/>
    <rect id="Rectángulo_535" data-name="Rectángulo 535" width="2.241" height="2.242" transform="translate(45.022 13.676)" fill="#3e145e"/>
    <rect id="Rectángulo_536" data-name="Rectángulo 536" width="2.242" height="2.242" transform="translate(40.086 13.676)" fill="#3e145e"/>
    <rect id="Rectángulo_537" data-name="Rectángulo 537" width="2.241" height="2.241" transform="translate(49.908 22.287)" fill="#3e145e"/>
    <rect id="Rectángulo_538" data-name="Rectángulo 538" width="2.241" height="2.241" transform="translate(49.908 17.981)" fill="#3e145e"/>
    <rect id="Rectángulo_539" data-name="Rectángulo 539" width="2.241" height="2.242" transform="translate(49.908 13.676)" fill="#3e145e"/>
  </g>
</svg>
