<svg id="Grupo_718" data-name="Grupo 718" xmlns="http://www.w3.org/2000/svg" xmlns:xlink="http://www.w3.org/1999/xlink" width="63.543" height="87.767" viewBox="0 0 63.543 87.767">
  <defs>
    <clipPath id="clip-path">
      <rect id="Rectángulo_497" data-name="Rectángulo 497" width="63.543" height="87.767" transform="translate(0 0)" fill="none"/>
    </clipPath>
  </defs>
  <g id="Grupo_717" data-name="Grupo 717" clip-path="url(#clip-path)">
    <path id="Trazado_2468" data-name="Trazado 2468" d="M32.841,2.994s7.7-3.027,11.784.83c0,0-1.484,9.858-6.925,9.471,0,0-6.213-2.408-4.859-10.3" fill="#ffe227"/>
    <path id="Trazado_2469" data-name="Trazado 2469" d="M29.551,17.331H47.2s7.706.634,3.481,23.992H46.71l-1.5,20.364H29.551V39.759L23.893,41.07s-1.116-23.739,5.658-23.739" fill="#ffe227"/>
    <path id="Trazado_2470" data-name="Trazado 2470" d="M52.269,87.767H8.47a1.5,1.5,0,1,1,0-2.994A5.483,5.483,0,0,0,13.947,79.3V72.324a1.5,1.5,0,0,1,1.5-1.5H60.023a1.5,1.5,0,0,1,1.5,1.5v6.192a9.262,9.262,0,0,1-9.251,9.251M14.927,84.773H52.269a6.264,6.264,0,0,0,6.257-6.257v-4.7H16.94V79.3a8.437,8.437,0,0,1-2.013,5.477" fill="#3e145e"/>
    <path id="Trazado_2471" data-name="Trazado 2471" d="M8.47,87.767A8.48,8.48,0,0,1,0,79.3V18.828a1.5,1.5,0,0,1,1.5-1.5H19.3a1.5,1.5,0,0,1,0,2.994H2.993V79.3a5.477,5.477,0,0,0,10.955,0V72.324a1.5,1.5,0,0,1,1.5-1.5H46.453V63.185a1.5,1.5,0,1,1,2.994,0v9.139a1.5,1.5,0,0,1-1.5,1.5H16.941V79.3A8.48,8.48,0,0,1,8.47,87.767" fill="#3e145e"/>
    <path id="Trazado_2472" data-name="Trazado 2472" d="M45.212,64.682H30.187a1.5,1.5,0,0,1-1.5-1.5V41.324H24.723a1.5,1.5,0,0,1-1.5-1.5V23.368a8.543,8.543,0,0,1,8.532-8.533H43.642a8.542,8.542,0,0,1,8.532,8.533V39.827a1.5,1.5,0,0,1-1.5,1.5H46.709V63.185a1.5,1.5,0,0,1-1.5,1.5M31.684,61.688H43.715V39.827a1.5,1.5,0,0,1,1.5-1.5H49.18V23.368a5.543,5.543,0,0,0-5.538-5.538H31.758a5.544,5.544,0,0,0-5.538,5.538V38.33h3.967a1.5,1.5,0,0,1,1.5,1.5Z" fill="#3e145e"/>
    <path id="Trazado_2473" data-name="Trazado 2473" d="M37.7,64.682a1.5,1.5,0,0,1-1.5-1.5V43.52a1.5,1.5,0,1,1,2.994,0V63.185a1.5,1.5,0,0,1-1.5,1.5" fill="#3e145e"/>
    <path id="Trazado_2474" data-name="Trazado 2474" d="M30.187,41.325a1.5,1.5,0,0,1-1.5-1.5V25.152a1.5,1.5,0,0,1,2.994,0V39.829a1.5,1.5,0,0,1-1.5,1.5" fill="#3e145e"/>
    <path id="Trazado_2475" data-name="Trazado 2475" d="M45.213,41.325a1.5,1.5,0,0,1-1.5-1.5V25.152a1.5,1.5,0,0,1,2.994,0V39.829a1.5,1.5,0,0,1-1.5,1.5" fill="#3e145e"/>
    <path id="Trazado_2476" data-name="Trazado 2476" d="M37.851,14.3c-1.45,0-3.544-.664-5.147-3.7a11.356,11.356,0,0,1-1.256-5.3V3.681a1.488,1.488,0,0,1,.219-.777A8.4,8.4,0,0,1,38.012,0c3.214,0,6.613,1.966,6.613,3.824V5.3a11.37,11.37,0,0,1-1.255,5.3c-1.657,3.133-3.854,3.742-5.375,3.7h-.144M34.442,4.281V5.3a8.352,8.352,0,0,0,.909,3.9c.752,1.424,1.659,2.188,2.644,2.1,1.043.088,1.975-.676,2.728-2.1a8.363,8.363,0,0,0,.908-3.9V4.227a6.035,6.035,0,0,0-3.619-1.232,6.151,6.151,0,0,0-3.57,1.286" fill="#3e145e"/>
    <path id="Trazado_2477" data-name="Trazado 2477" d="M62.046,64.682H9.554a1.5,1.5,0,1,1,0-2.994H62.046a1.5,1.5,0,0,1,0,2.994" fill="#3e145e"/>
    <path id="Trazado_2478" data-name="Trazado 2478" d="M54.767,31.023a1.5,1.5,0,0,1-.929-2.671l5.536-4.374a1.5,1.5,0,1,1,1.857,2.349L55.695,30.7a1.485,1.485,0,0,1-.928.323" fill="#3e145e"/>
    <path id="Trazado_2479" data-name="Trazado 2479" d="M20.634,31.023a1.483,1.483,0,0,1-.928-.323L14.17,26.327a1.5,1.5,0,1,1,1.857-2.349l5.536,4.374a1.5,1.5,0,0,1-.929,2.671" fill="#3e145e"/>
    <path id="Trazado_2480" data-name="Trazado 2480" d="M22.4,56.1H9.553a1.5,1.5,0,1,1,0-2.994H22.4a1.5,1.5,0,1,1,0,2.994" fill="#3e145e"/>
    <path id="Trazado_2481" data-name="Trazado 2481" d="M22.4,47.943H9.553a1.5,1.5,0,1,1,0-2.993H22.4a1.5,1.5,0,1,1,0,2.993" fill="#3e145e"/>
  </g>
</svg>
