<svg id="Grupo_732" data-name="Grupo 732" xmlns="http://www.w3.org/2000/svg" xmlns:xlink="http://www.w3.org/1999/xlink" width="82.457" height="95.218" viewBox="0 0 82.457 95.218">
  <defs>
    <clipPath id="clip-path">
      <rect id="Rectángulo_551" data-name="Rectángulo 551" width="82.457" height="95.218" transform="translate(0 0)" fill="none"/>
    </clipPath>
  </defs>
  <g id="Grupo_731" data-name="Grupo 731" clip-path="url(#clip-path)">
    <path id="Trazado_2587" data-name="Trazado 2587" d="M42.875,2.805V79.87a14.031,14.031,0,0,1-27.756,2.914A16.066,16.066,0,0,1,5.386,64.229a13.488,13.488,0,0,1-.625-18.663A13.5,13.5,0,0,1,12.473,25.4a11.284,11.284,0,0,1,9.89-15.1A15.295,15.295,0,0,1,42.875,2.805" fill="#ffe227"/>
    <path id="Trazado_2588" data-name="Trazado 2588" d="M28.847,95.218a15.419,15.419,0,0,1-14.853-11.48A17.38,17.38,0,0,1,3.956,64.645a14.805,14.805,0,0,1-.8-19.214,14.825,14.825,0,0,1,7.689-20.874A12.6,12.6,0,0,1,21.5,9.054,16.608,16.608,0,0,1,43.443,1.618a1.316,1.316,0,0,1,.746,1.187V79.87A15.363,15.363,0,0,1,28.847,95.218M36.283,2.63a13.978,13.978,0,0,0-12.72,8.2,1.319,1.319,0,0,1-1.117.772A9.966,9.966,0,0,0,13.711,24.95a1.316,1.316,0,0,1-.876,1.711,12.237,12.237,0,0,0-8.829,11.72,12.112,12.112,0,0,0,1.867,6.482,1.317,1.317,0,0,1-.132,1.58A12.177,12.177,0,0,0,6.3,63.287a1.314,1.314,0,0,1,.363,1.239,14.792,14.792,0,0,0-.379,3.338A14.638,14.638,0,0,0,15.6,81.56a1.317,1.317,0,0,1,.8.951A12.714,12.714,0,0,0,41.559,79.87V3.659A13.856,13.856,0,0,0,36.283,2.63" fill="#3e145e"/>
    <path id="Trazado_2589" data-name="Trazado 2589" d="M13.131,53.046a1.33,1.33,0,0,1-.3-.034,14.91,14.91,0,0,1-9.186-6.55,1.315,1.315,0,0,1,2.227-1.4,12.254,12.254,0,0,0,7.553,5.386,1.316,1.316,0,0,1-.3,2.6" fill="#3e145e"/>
    <path id="Trazado_2590" data-name="Trazado 2590" d="M28.269,32.817a1.316,1.316,0,0,1-1.145-.666A12.216,12.216,0,0,0,13.163,26.44a1.315,1.315,0,0,1-.723-2.529,14.85,14.85,0,0,1,16.972,6.941,1.316,1.316,0,0,1-1.143,1.965" fill="#3e145e"/>
    <path id="Trazado_2591" data-name="Trazado 2591" d="M31.657,15.591a1.314,1.314,0,0,1-1.016-.479,9.923,9.923,0,0,0-7.691-3.629c-.2,0-.4,0-.592.021a1.315,1.315,0,1,1-.241-2.619c.273-.025.554-.033.833-.033a12.549,12.549,0,0,1,9.723,4.588,1.316,1.316,0,0,1-1.016,2.151" fill="#3e145e"/>
    <path id="Trazado_2592" data-name="Trazado 2592" d="M28.7,70.583A10.053,10.053,0,0,1,18.658,60.542a1.315,1.315,0,0,1,2.631,0,7.412,7.412,0,0,0,11.3,6.308,1.315,1.315,0,1,1,1.383,2.236,10.021,10.021,0,0,1-5.275,1.5" fill="#3e145e"/>
    <path id="Trazado_2593" data-name="Trazado 2593" d="M18.905,72.039a10.223,10.223,0,0,1-1.639-.133,9.987,9.987,0,0,1-3.431-1.23A1.315,1.315,0,1,1,15.158,68.4a7.408,7.408,0,0,0,8.788-1,1.315,1.315,0,0,1,1.8,1.922,9.97,9.97,0,0,1-6.837,2.713" fill="#3e145e"/>
    <path id="Trazado_2594" data-name="Trazado 2594" d="M42.875,68.382a1.313,1.313,0,0,1-1.315-1.306,7.962,7.962,0,0,0-7.929-7.895,1.316,1.316,0,0,1-1.31-1.321,1.287,1.287,0,0,1,1.322-1.309A10.588,10.588,0,0,1,44.189,67.058a1.315,1.315,0,0,1-1.305,1.324Z" fill="#3e145e"/>
    <path id="Trazado_2595" data-name="Trazado 2595" d="M42.875,36.049a1.314,1.314,0,0,1-1.315-1.307A7.962,7.962,0,0,0,35.6,27.1a1.315,1.315,0,1,1,.659-2.546,10.588,10.588,0,0,1,7.93,10.168,1.316,1.316,0,0,1-1.305,1.324Z" fill="#3e145e"/>
    <path id="Trazado_2596" data-name="Trazado 2596" d="M27.326,46.811a1.3,1.3,0,0,1-.7-.205,1.316,1.316,0,0,1-.407-1.816A10.3,10.3,0,0,1,27.7,42.974a10.561,10.561,0,0,1,6.919-3.017,1.314,1.314,0,1,1,.12,2.626,7.94,7.94,0,0,0-5.2,2.27,7.529,7.529,0,0,0-1.1,1.348,1.315,1.315,0,0,1-1.11.61" fill="#3e145e"/>
    <path id="Trazado_2597" data-name="Trazado 2597" d="M26.691,84.764a1.315,1.315,0,0,1-.921-2.254A10.6,10.6,0,0,1,33.7,79.493a1.315,1.315,0,0,1-.131,2.627,7.963,7.963,0,0,0-5.959,2.268,1.312,1.312,0,0,1-.921.376" fill="#3e145e"/>
    <path id="Trazado_2598" data-name="Trazado 2598" d="M27.868,50.266a1.449,1.449,0,0,1-.161-.01,1.315,1.315,0,0,1-1.147-1.465,5.089,5.089,0,0,0-8.421-4.429A1.315,1.315,0,1,1,16.4,42.394a7.72,7.72,0,0,1,12.776,6.715,1.315,1.315,0,0,1-1.3,1.157" fill="#3e145e"/>
    <path id="Trazado_2599" data-name="Trazado 2599" d="M50.453,31.517h0A1.248,1.248,0,1,0,51.7,32.765a1.248,1.248,0,0,0-1.247-1.248" fill="#3e145e"/>
    <path id="Trazado_2600" data-name="Trazado 2600" d="M50.671,45.379h0a1.247,1.247,0,1,0,1.011,1.446,1.247,1.247,0,0,0-1.011-1.446" fill="#3e145e"/>
    <path id="Trazado_2601" data-name="Trazado 2601" d="M50.671,57.682h0a1.247,1.247,0,1,0,1.011,1.446,1.247,1.247,0,0,0-1.011-1.446" fill="#3e145e"/>
    <path id="Trazado_2602" data-name="Trazado 2602" d="M50.671,67.773h0a1.247,1.247,0,1,0,1.011,1.445,1.246,1.246,0,0,0-1.011-1.445" fill="#3e145e"/>
    <path id="Trazado_2603" data-name="Trazado 2603" d="M56.638,67.773h0a1.247,1.247,0,1,0,1.01,1.445,1.246,1.246,0,0,0-1.01-1.445" fill="#3e145e"/>
    <path id="Trazado_2604" data-name="Trazado 2604" d="M56.42,31.517h0a1.248,1.248,0,1,0,1.247,1.248,1.248,1.248,0,0,0-1.247-1.248" fill="#3e145e"/>
    <path id="Trazado_2605" data-name="Trazado 2605" d="M62.387,31.517h0a1.248,1.248,0,1,0,1.247,1.248,1.248,1.248,0,0,0-1.247-1.248" fill="#3e145e"/>
    <path id="Trazado_2606" data-name="Trazado 2606" d="M43.265,81.645a1.315,1.315,0,0,1-.79-2.368L49.8,73.79a5.065,5.065,0,0,1,3.014-1H60a1.314,1.314,0,1,1,0,2.629h-7.19a2.409,2.409,0,0,0-1.438.48l-7.324,5.486a1.3,1.3,0,0,1-.787.263" fill="#3e145e"/>
    <path id="Trazado_2607" data-name="Trazado 2607" d="M68.65,65.217H44.19a1.316,1.316,0,0,1,0-2.631H68.65a1.316,1.316,0,0,1,0,2.631" fill="#3e145e"/>
    <path id="Trazado_2608" data-name="Trazado 2608" d="M57.085,65.217a1.316,1.316,0,0,1-.966-2.207L66.9,51.345a5.552,5.552,0,0,1,3.349-1.132h5.531a1.316,1.316,0,1,1,0,2.631H70.254a2.9,2.9,0,0,0-1.669.53L58.052,64.793a1.313,1.313,0,0,1-.967.424" fill="#3e145e"/>
    <path id="Trazado_2609" data-name="Trazado 2609" d="M71.8,67.895A3.993,3.993,0,1,1,75.79,63.9,4,4,0,0,1,71.8,67.895m0-5.357A1.364,1.364,0,1,0,73.16,63.9,1.365,1.365,0,0,0,71.8,62.538" fill="#3e145e"/>
    <path id="Trazado_2610" data-name="Trazado 2610" d="M78.464,55.521a3.993,3.993,0,1,1,3.993-3.993,4,4,0,0,1-3.993,3.993m0-5.356a1.363,1.363,0,1,0,1.362,1.363,1.364,1.364,0,0,0-1.362-1.363" fill="#3e145e"/>
    <path id="Trazado_2611" data-name="Trazado 2611" d="M75.426,42.97a3.993,3.993,0,1,1,3.994-3.993,4,4,0,0,1-3.994,3.993m0-5.356a1.364,1.364,0,1,0,1.363,1.363,1.364,1.364,0,0,0-1.363-1.363" fill="#3e145e"/>
    <path id="Trazado_2612" data-name="Trazado 2612" d="M59.764,51.119a3.993,3.993,0,1,1,3.994-3.993,4,4,0,0,1-3.994,3.993m0-5.356a1.364,1.364,0,1,0,1.363,1.363,1.364,1.364,0,0,0-1.363-1.363" fill="#3e145e"/>
    <path id="Trazado_2613" data-name="Trazado 2613" d="M63.735,78.094A3.993,3.993,0,1,1,67.728,74.1a4,4,0,0,1-3.993,3.993m0-5.356A1.363,1.363,0,1,0,65.1,74.1a1.364,1.364,0,0,0-1.363-1.363" fill="#3e145e"/>
    <path id="Trazado_2614" data-name="Trazado 2614" d="M72.747,40.293H43.35a1.316,1.316,0,1,1,0-2.631h29.4a1.316,1.316,0,0,1,0,2.631" fill="#3e145e"/>
    <path id="Trazado_2615" data-name="Trazado 2615" d="M52.462,55.233H42.97a1.316,1.316,0,1,1,0-2.631h9.492a1,1,0,0,0,.722-.312l3.794-4.051a1.315,1.315,0,1,1,1.919,1.8L55.1,54.087a3.636,3.636,0,0,1-2.642,1.146" fill="#3e145e"/>
    <path id="Trazado_2616" data-name="Trazado 2616" d="M68.65,27.866H44.19a1.315,1.315,0,0,1,0-2.63H68.65a1.315,1.315,0,0,1,0,2.63" fill="#3e145e"/>
    <path id="Trazado_2617" data-name="Trazado 2617" d="M71.8,30.544A3.994,3.994,0,1,1,75.79,26.55,4,4,0,0,1,71.8,30.544m0-5.357A1.364,1.364,0,1,0,73.16,26.55,1.365,1.365,0,0,0,71.8,25.187" fill="#3e145e"/>
    <path id="Trazado_2618" data-name="Trazado 2618" d="M66.43,19.126a3.993,3.993,0,1,1,3.993-3.993,4,4,0,0,1-3.993,3.993m0-5.357a1.364,1.364,0,1,0,1.363,1.364,1.365,1.365,0,0,0-1.363-1.364" fill="#3e145e"/>
    <path id="Trazado_2619" data-name="Trazado 2619" d="M57.66,9.56a3.993,3.993,0,1,1,3.993-3.993A4,4,0,0,1,57.66,9.56m0-5.356a1.364,1.364,0,1,0,1.363,1.363A1.364,1.364,0,0,0,57.66,4.2" fill="#3e145e"/>
    <path id="Trazado_2620" data-name="Trazado 2620" d="M50.358,13.674H42.97a1.315,1.315,0,1,1,0-2.63h7.388a1,1,0,0,0,.722-.311l3.794-4.052a1.315,1.315,0,1,1,1.919,1.8L53,12.528a3.625,3.625,0,0,1-2.642,1.146" fill="#3e145e"/>
    <path id="Trazado_2621" data-name="Trazado 2621" d="M49.048,27.866a1.315,1.315,0,0,1-.982-2.188l9.587-10.791a3.343,3.343,0,0,1,2.525-1.145h3.574a1.315,1.315,0,1,1,0,2.63H60.178a.723.723,0,0,0-.547.249l-9.6,10.8a1.313,1.313,0,0,1-.984.441" fill="#3e145e"/>
  </g>
</svg>
