<svg id="Grupo_739" data-name="Grupo 739" xmlns="http://www.w3.org/2000/svg" xmlns:xlink="http://www.w3.org/1999/xlink" width="94.523" height="94.542" viewBox="0 0 94.523 94.542">
  <defs>
    <clipPath id="clip-path">
      <rect id="Rectángulo_604" data-name="Rectángulo 604" width="94.523" height="94.542" transform="translate(0 0)" fill="none"/>
    </clipPath>
  </defs>
  <rect id="Rectángulo_600" data-name="Rectángulo 600" width="24.29" height="20.126" transform="translate(1.408 18.584) rotate(-45)" fill="#fff"/>
  <g id="Grupo_738" data-name="Grupo 738">
    <g id="Grupo_737" data-name="Grupo 737" clip-path="url(#clip-path)">
      <path id="Trazado_2657" data-name="Trazado 2657" d="M15.639,34.224a1.407,1.407,0,0,1-1-.413L.412,19.579a1.407,1.407,0,0,1,0-1.991L17.587.412a1.409,1.409,0,0,1,1.992,0L33.811,14.644a1.409,1.409,0,0,1,0,1.991L16.635,33.811a1.4,1.4,0,0,1-1,.413M3.4,18.584l12.24,12.24L30.824,15.64,18.584,3.4Z" fill="#3e145e"/>
      <rect id="Rectángulo_601" data-name="Rectángulo 601" width="43.723" height="59.338" transform="matrix(0.707, -0.707, 0.707, 0.707, 8.769, 39.687)" fill="#ffe227"/>
      <path id="Trazado_2658" data-name="Trazado 2658" d="M71.272,94.543a23.177,23.177,0,0,1-16.464-6.826l-5.073-5.073a1.407,1.407,0,0,1,0-1.991L80.653,49.735a1.406,1.406,0,0,1,1.991,0l5.073,5.073a23.344,23.344,0,0,1,5.325,24.656,1.408,1.408,0,0,1-2.314.5l-.355-.354a4,4,0,0,0-2.842-1.183h-.006A3.971,3.971,0,0,0,84.694,79.6L79.6,84.694a4.012,4.012,0,0,0,.01,5.68l.354.354a1.41,1.41,0,0,1-.5,2.314,23.531,23.531,0,0,1-8.2,1.5M52.721,81.648,56.8,85.726a20.373,20.373,0,0,0,14.466,6,21.055,21.055,0,0,0,5.306-.706,6.834,6.834,0,0,1,1.04-8.318l5.09-5.091a6.776,6.776,0,0,1,4.823-2h.011a6.8,6.8,0,0,1,3.481.956,20.526,20.526,0,0,0-5.29-19.77l-4.078-4.078Z" fill="#3e145e"/>
      <path id="Trazado_2659" data-name="Trazado 2659" d="M50.728,83.052a1.4,1.4,0,0,1-1-.412L7.774,40.682a1.407,1.407,0,0,1,0-1.991L38.691,7.774a1.407,1.407,0,0,1,1.991,0L82.64,49.732a1.407,1.407,0,0,1,0,1.991L51.724,82.64a1.4,1.4,0,0,1-1,.412M10.761,39.686,50.728,79.654,79.654,50.728,39.686,10.76Z" fill="#3e145e"/>
      <rect id="Rectángulo_602" data-name="Rectángulo 602" width="16.869" height="32.899" transform="translate(27.587 39.516) rotate(-45)" fill="#fff"/>
      <path id="Trazado_2660" data-name="Trazado 2660" d="M21.2,28.665a1.4,1.4,0,0,1-1-.411l-8.016-8.015a1.409,1.409,0,0,1,1.992-1.993l8.016,8.016a1.407,1.407,0,0,1-1,2.4" fill="#3e145e"/>
      <path id="Trazado_2661" data-name="Trazado 2661" d="M27.257,22.606a1.4,1.4,0,0,1-1-.412l-8.016-8.016a1.409,1.409,0,0,1,1.992-1.992L28.253,20.2a1.408,1.408,0,0,1-1,2.4" fill="#3e145e"/>
      <path id="Trazado_2662" data-name="Trazado 2662" d="M50.85,64.187a1.4,1.4,0,0,1-1-.412L26.592,40.512a1.409,1.409,0,0,1,0-1.992L38.519,26.592a1.408,1.408,0,0,1,1.993,0L63.774,49.855a1.407,1.407,0,0,1,0,1.991L51.846,63.775a1.4,1.4,0,0,1-1,.412M29.578,39.516,50.85,60.788l9.938-9.937L39.516,29.578Z" fill="#3e145e"/>
      <rect id="Rectángulo_603" data-name="Rectángulo 603" width="16.87" height="16.87" transform="translate(27.587 39.516) rotate(-45)" fill="#ffe227"/>
      <path id="Trazado_2663" data-name="Trazado 2663" d="M39.516,52.853a1.411,1.411,0,0,1-1-.412L26.592,40.512a1.409,1.409,0,0,1,0-1.992L38.519,26.592a1.408,1.408,0,0,1,1.993,0L52.44,38.52a1.411,1.411,0,0,1,0,1.992L40.512,52.441a1.41,1.41,0,0,1-1,.412M29.578,39.516l9.938,9.938,9.937-9.938-9.937-9.938Z" fill="#3e145e"/>
      <path id="Trazado_2664" data-name="Trazado 2664" d="M35.569,40.9a1.408,1.408,0,0,1-1-2.4L38.5,34.574a1.409,1.409,0,0,1,1.992,1.992l-3.926,3.926a1.409,1.409,0,0,1-1,.412" fill="#fff"/>
      <path id="Trazado_2665" data-name="Trazado 2665" d="M39.536,44.871a1.407,1.407,0,0,1-.995-2.4l3.926-3.926a1.408,1.408,0,0,1,1.991,1.991l-3.926,3.926a1.4,1.4,0,0,1-1,.412" fill="#fff"/>
      <path id="Trazado_2666" data-name="Trazado 2666" d="M78.969,93.132a1.409,1.409,0,0,1-1-.412l-.354-.354A6.832,6.832,0,0,1,77.61,82.7l5.091-5.09a6.774,6.774,0,0,1,4.822-2h.012a6.806,6.806,0,0,1,4.83,2.006l.354.355a1.41,1.41,0,0,1,.322,1.493A23.3,23.3,0,0,1,79.466,93.041a1.409,1.409,0,0,1-.5.091m8.555-14.7A3.973,3.973,0,0,0,84.693,79.6L79.6,84.694a4.012,4.012,0,0,0-.272,5.368A20.493,20.493,0,0,0,90.061,79.329a4,4,0,0,0-2.531-.9Z" fill="#3e145e"/>
      <path id="Trazado_2667" data-name="Trazado 2667" d="M78.1,68.441h0a1.411,1.411,0,1,0,0,1.995,1.411,1.411,0,0,0,0-1.995" fill="#3e145e"/>
      <path id="Trazado_2668" data-name="Trazado 2668" d="M74.268,72.272h0a1.411,1.411,0,1,0,0,1.995,1.412,1.412,0,0,0,0-1.995" fill="#3e145e"/>
      <path id="Trazado_2669" data-name="Trazado 2669" d="M70.436,76.1h0a1.411,1.411,0,1,0,0,2,1.412,1.412,0,0,0,0-2" fill="#3e145e"/>
    </g>
  </g>
</svg>
