<svg id="Grupo_710" data-name="Grupo 710" xmlns="http://www.w3.org/2000/svg" xmlns:xlink="http://www.w3.org/1999/xlink" width="83.312" height="84.196" viewBox="0 0 83.312 84.196">
  <defs>
    <clipPath id="clip-path">
      <rect id="Rectángulo_493" data-name="Rectángulo 493" width="83.312" height="84.196" fill="none"/>
    </clipPath>
  </defs>
  <g id="Grupo_709" data-name="Grupo 709" clip-path="url(#clip-path)">
    <path id="Trazado_2424" data-name="Trazado 2424" d="M72.729,48.9A33.921,33.921,0,1,1,38.807,14.982,33.922,33.922,0,0,1,72.729,48.9" fill="#ffe227"/>
    <path id="Trazado_2425" data-name="Trazado 2425" d="M4.24,46.138,14.363,61.6,26.957,41.672S30.933,24.326,11.523,23.21c0,0-14.9,5.513-7.283,22.928" fill="#fff"/>
    <path id="Trazado_2426" data-name="Trazado 2426" d="M58.506,23.062,68.629,38.528,81.223,18.6S85.2,1.25,65.789.134c0,0-14.9,5.513-7.283,22.928" fill="#fff"/>
    <rect id="Rectángulo_489" data-name="Rectángulo 489" width="2.741" height="69.218" transform="translate(38.12 13.607)" fill="#3e145e"/>
    <rect id="Rectángulo_490" data-name="Rectángulo 490" width="50.428" height="2.741" transform="translate(23.671 46.847)" fill="#3e145e"/>
    <rect id="Rectángulo_491" data-name="Rectángulo 491" width="37.841" height="2.741" transform="translate(25.92 30.14)" fill="#3e145e"/>
    <rect id="Rectángulo_492" data-name="Rectángulo 492" width="61.408" height="2.741" transform="translate(8.787 63.553)" fill="#3e145e"/>
    <path id="Trazado_2427" data-name="Trazado 2427" d="M68.949,38.661a4.418,4.418,0,0,1-3.832-2.181L56.685,22.269a14.928,14.928,0,0,1-.4-14.55A14.047,14.047,0,0,1,67.629.052a16.47,16.47,0,0,1,2.628,0A14.045,14.045,0,0,1,81.612,7.716a14.93,14.93,0,0,1-.4,14.551L72.781,36.48a4.42,4.42,0,0,1-3.832,2.181m0-35.921q-.553,0-1.1.045A11.173,11.173,0,0,0,58.72,8.976a12.206,12.206,0,0,0,.322,11.894l8.431,14.21a1.715,1.715,0,0,0,2.951,0l8.434-14.213a12.2,12.2,0,0,0,.32-11.894,11.179,11.179,0,0,0-9.144-6.188Q69.5,2.74,68.949,2.74" fill="#3e145e"/>
    <path id="Trazado_2428" data-name="Trazado 2428" d="M14.363,61.6a4.419,4.419,0,0,1-3.832-2.182L2.1,45.212A14.935,14.935,0,0,1,1.7,30.66a14.052,14.052,0,0,1,11.344-7.666,16.708,16.708,0,0,1,2.628,0,14.044,14.044,0,0,1,11.355,7.665,14.928,14.928,0,0,1-.4,14.55L18.194,59.422A4.418,4.418,0,0,1,14.363,61.6m0-35.923c-.37,0-.735.017-1.1.046a11.173,11.173,0,0,0-9.132,6.191,12.208,12.208,0,0,0,.321,11.9l8.432,14.21a1.716,1.716,0,0,0,2.951,0L24.272,43.81a12.206,12.206,0,0,0,.32-11.894,11.18,11.18,0,0,0-9.144-6.189c-.357-.029-.72-.046-1.085-.046" fill="#3e145e"/>
    <path id="Trazado_2429" data-name="Trazado 2429" d="M39.491,84.2A36.02,36.02,0,0,1,3.512,48.218c0-.24.008-.478.015-.715l.138-5.022,9.221,15.542a1.759,1.759,0,0,0,2.951,0L24.272,43.81a12.2,12.2,0,0,0,.318-11.894,11.176,11.176,0,0,0-9.142-6.189c-.325-.026-.654-.037-.984-.04l-3.173-.023,2.192-2.294a35.955,35.955,0,0,1,43.593-6.54l.51.287.146.567a12.171,12.171,0,0,0,1.309,3.187L67.473,35.08a1.714,1.714,0,0,0,2.95,0l1.541-2.6,1.025,2.611a35.978,35.978,0,0,1-33.5,49.1M6.557,52.726A33.24,33.24,0,1,0,71.148,38.087a4.468,4.468,0,0,1-6.031-1.606L56.685,22.27a14.734,14.734,0,0,1-1.446-3.322,33.26,33.26,0,0,0-15.748-3.969,32.9,32.9,0,0,0-21.959,8.3,14.1,14.1,0,0,1,9.493,7.385,14.923,14.923,0,0,1-.4,14.55L18.194,59.422a4.456,4.456,0,0,1-7.664,0Z" fill="#3e145e"/>
    <path id="Trazado_2430" data-name="Trazado 2430" d="M39.49,84.2a36.018,36.018,0,0,1-9.69-1.332l-.494-.138-.284-.43C24.237,75,21.27,62.767,21.08,49.583l-.006-.388,3.2-5.385a12.339,12.339,0,0,0-.861-13.718l-.4-.512.147-.634a46.963,46.963,0,0,1,5.862-14.808l.284-.43.494-.138a36.112,36.112,0,0,1,19.381,0l.495.138.282.43c4.985,7.607,7.961,20.347,7.961,34.079S54.943,74.689,49.958,82.3l-.282.43-.495.138A36.019,36.019,0,0,1,39.49,84.2M31.038,80.36a33.329,33.329,0,0,0,16.906,0c4.536-7.229,7.235-19.186,7.235-32.143S52.48,23.3,47.944,16.073a33.329,33.329,0,0,0-16.906,0,44.359,44.359,0,0,0-5.062,12.883,14.9,14.9,0,0,1,.652,16.253l-2.8,4.719C24.055,62.2,26.734,73.5,31.038,80.36" fill="#3e145e"/>
    <path id="Trazado_2431" data-name="Trazado 2431" d="M68.949,13.49a4.735,4.735,0,1,1,4.734-4.736,4.741,4.741,0,0,1-4.734,4.736m0-6.729a1.994,1.994,0,1,0,1.994,1.993,2,2,0,0,0-1.994-1.993" fill="#3e145e"/>
    <path id="Trazado_2432" data-name="Trazado 2432" d="M76.149,23.2a1.37,1.37,0,0,1-1.37-1.37V19.276A2.275,2.275,0,0,0,72.506,17H65.392a2.274,2.274,0,0,0-2.272,2.272v2.551a1.371,1.371,0,0,1-2.742,0V19.276a5.019,5.019,0,0,1,5.014-5.013h7.114a5.018,5.018,0,0,1,5.013,5.013v2.551a1.37,1.37,0,0,1-1.37,1.37" fill="#3e145e"/>
    <path id="Trazado_2433" data-name="Trazado 2433" d="M14.363,36.431A4.734,4.734,0,1,1,19.1,31.7a4.741,4.741,0,0,1-4.735,4.735m0-6.729A1.994,1.994,0,1,0,16.357,31.7,2,2,0,0,0,14.363,29.7" fill="#3e145e"/>
    <path id="Trazado_2434" data-name="Trazado 2434" d="M21.563,46.138a1.37,1.37,0,0,1-1.37-1.37v-2.55a2.275,2.275,0,0,0-2.273-2.271H10.806a2.274,2.274,0,0,0-2.272,2.271v2.55a1.371,1.371,0,0,1-2.742,0v-2.55a5.019,5.019,0,0,1,5.014-5.013H17.92a5.018,5.018,0,0,1,5.014,5.013v2.55a1.37,1.37,0,0,1-1.371,1.37" fill="#3e145e"/>
  </g>
</svg>
