<svg id="Grupo_712" data-name="Grupo 712" xmlns="http://www.w3.org/2000/svg" xmlns:xlink="http://www.w3.org/1999/xlink" width="70.322" height="83.699" viewBox="0 0 70.322 83.699">
  <defs>
    <clipPath id="clip-path">
      <rect id="Rectángulo_494" data-name="Rectángulo 494" width="70.322" height="83.699" transform="translate(0 0)" fill="none"/>
    </clipPath>
  </defs>
  <g id="Grupo_711" data-name="Grupo 711" clip-path="url(#clip-path)">
    <path id="Trazado_2435" data-name="Trazado 2435" d="M45.506,30.672c0,11.729-10.015,21.237-22.368,21.237S.769,42.4.769,30.672,10.783,9.436,23.138,9.436s22.368,9.507,22.368,21.236" fill="#ffe227"/>
    <path id="Trazado_2436" data-name="Trazado 2436" d="M8.188,43.089,12.6,56.557l3.418,1.456-.947,5.5L12.1,60.914v17.9h7.322s5.147,7.514,9.321-.834l3.788,1.153L33.795,62.5l-2.823,1.007-1.457-4.037H32.96L36.529,41.85Z" fill="#ffe227"/>
    <path id="Trazado_2437" data-name="Trazado 2437" d="M43.625,83.7h-10.9a1.458,1.458,0,0,1,0-2.915h9.443V67.795a1.457,1.457,0,0,1,1.457-1.457h9.722a7.6,7.6,0,0,0,7.589-7.589V57.7l-1.174-.893a1.456,1.456,0,0,1-.387-.443A3.455,3.455,0,0,1,60.588,51.7L63.1,50.168V47.231A2.633,2.633,0,0,1,65.727,44.6h1a.684.684,0,0,0,.571-1.059L62.56,36.348a5.536,5.536,0,0,1-.88-3.726,24.635,24.635,0,0,0,.2-3.081,26.72,26.72,0,0,0-8.458-19.464A26.644,26.644,0,0,0,27.7,4a1.457,1.457,0,0,1-.83-2.794A29.569,29.569,0,0,1,55.412,7.946a29.649,29.649,0,0,1,9.383,21.6,27.348,27.348,0,0,1-.224,3.442,2.635,2.635,0,0,0,.422,1.763l4.736,7.191a3.6,3.6,0,0,1-3.006,5.577h-.712v3.471a1.458,1.458,0,0,1-.7,1.244l-3.206,1.959a.546.546,0,0,0-.259.541l1.427,1.087a1.455,1.455,0,0,1,.576,1.159v1.774a10.516,10.516,0,0,1-10.5,10.5H45.083v12.99A1.458,1.458,0,0,1,43.625,83.7" fill="#3e145e"/>
    <path id="Trazado_2438" data-name="Trazado 2438" d="M23.023,47.538A17.994,17.994,0,1,1,41.017,29.544,18.015,18.015,0,0,1,23.023,47.538m0-33.074A15.08,15.08,0,1,0,38.1,29.544a15.1,15.1,0,0,0-15.08-15.08" fill="#3e145e"/>
    <path id="Trazado_2439" data-name="Trazado 2439" d="M32.96,59.472H13.085A1.458,1.458,0,0,1,11.678,58.4L8.759,47.586A23.013,23.013,0,1,1,46.045,29.544a22.836,22.836,0,0,1-8.758,18.042L34.367,58.4a1.459,1.459,0,0,1-1.407,1.077M14.2,56.557H31.845l2.755-10.2a1.455,1.455,0,0,1,.528-.782A20.1,20.1,0,1,0,2.914,29.544a19.954,19.954,0,0,0,8,16.027,1.453,1.453,0,0,1,.527.782Z" fill="#3e145e"/>
    <path id="Trazado_2440" data-name="Trazado 2440" d="M23.023,52.566a23.135,23.135,0,0,1-4.8-.5,1.457,1.457,0,1,1,.606-2.851,20.262,20.262,0,0,0,4.194.438A20.054,20.054,0,0,0,36.6,44.372a1.458,1.458,0,1,1,1.97,2.149,22.964,22.964,0,0,1-15.552,6.045" fill="#3e145e"/>
    <path id="Trazado_2441" data-name="Trazado 2441" d="M30.972,63.509h-15.9a1.458,1.458,0,0,1-1.458-1.457V58.015a1.458,1.458,0,0,1,1.458-1.458h15.9a1.458,1.458,0,0,1,1.458,1.458v4.037a1.457,1.457,0,0,1-1.458,1.457M16.531,60.6H29.515V59.472H16.531Z" fill="#3e145e"/>
    <path id="Trazado_2442" data-name="Trazado 2442" d="M32.534,79.129H13.511a3.3,3.3,0,0,1-3.3-3.3V63.894a3.3,3.3,0,0,1,3.3-3.3H32.534a3.3,3.3,0,0,1,3.3,3.3V75.83a3.3,3.3,0,0,1-3.3,3.3M13.511,63.509a.386.386,0,0,0-.385.385V75.83a.385.385,0,0,0,.385.385H32.534a.385.385,0,0,0,.385-.385V63.894a.386.386,0,0,0-.385-.385Z" fill="#3e145e"/>
    <path id="Trazado_2443" data-name="Trazado 2443" d="M27.663,68.4H11.67a1.457,1.457,0,1,1,0-2.914H27.663a1.457,1.457,0,0,1,0,2.914" fill="#3e145e"/>
    <path id="Trazado_2444" data-name="Trazado 2444" d="M29.9,74.057H11.67a1.458,1.458,0,0,1,0-2.915H29.9a1.458,1.458,0,1,1,0,2.915" fill="#3e145e"/>
    <path id="Trazado_2445" data-name="Trazado 2445" d="M23.023,83.7A5.731,5.731,0,0,1,17.3,77.976v-.3a1.457,1.457,0,0,1,1.457-1.457h8.532a1.457,1.457,0,0,1,1.458,1.457v.3A5.73,5.73,0,0,1,23.023,83.7m-2.561-4.57a2.808,2.808,0,0,0,5.121,0Z" fill="#3e145e"/>
  </g>
</svg>
