<svg id="Grupo_730" data-name="Grupo 730" xmlns="http://www.w3.org/2000/svg" xmlns:xlink="http://www.w3.org/1999/xlink" width="98.957" height="93.395" viewBox="0 0 98.957 93.395">
  <defs>
    <clipPath id="clip-path">
      <rect id="Rectángulo_550" data-name="Rectángulo 550" width="98.957" height="93.395" transform="translate(0 0)" fill="none"/>
    </clipPath>
  </defs>
  <g id="Grupo_729" data-name="Grupo 729" clip-path="url(#clip-path)">
    <path id="Trazado_2553" data-name="Trazado 2553" d="M78.822,52.761A11.816,11.816,0,0,1,67.009,64.573H30.25a9.391,9.391,0,1,1,0-18.782,9.207,9.207,0,0,1,3.526.689,13.706,13.706,0,0,1-.2-2.379,14.406,14.406,0,0,1,28.653-2.139,11.806,11.806,0,0,1,16.591,10.8" fill="#ffe227"/>
    <path id="Trazado_2554" data-name="Trazado 2554" d="M66.675,65.921H30.561A10.953,10.953,0,0,1,19.512,55.384,10.756,10.756,0,0,1,32.237,44.625c-.005-.173-.008-.348-.008-.524a15.756,15.756,0,0,1,31.01-3.947A13.161,13.161,0,0,1,80.155,53.4a13.315,13.315,0,0,1-13.48,12.52M30.25,47.14a8.042,8.042,0,0,0-8.041,8.194,8.244,8.244,0,0,0,8.352,7.89H66.675a10.623,10.623,0,0,0,10.786-9.951,10.46,10.46,0,0,0-14.12-10.309,1.907,1.907,0,0,1-2.55-1.417A13.058,13.058,0,0,0,34.927,44.1,13.425,13.425,0,0,0,35,45.469a1.881,1.881,0,0,1-.674,1.651,1.9,1.9,0,0,1-1.767.354,7.972,7.972,0,0,0-2.305-.334m3.082-2.249h0" fill="#3e145e"/>
    <rect id="Rectángulo_541" data-name="Rectángulo 541" width="1.902" height="1.901" transform="translate(47.009 47.9)" fill="#fff"/>
    <rect id="Rectángulo_542" data-name="Rectángulo 542" width="1.901" height="1.901" transform="translate(42.821 47.901)" fill="#fff"/>
    <rect id="Rectángulo_543" data-name="Rectángulo 543" width="1.902" height="1.902" transform="translate(47.009 44.247)" fill="#fff"/>
    <rect id="Rectángulo_544" data-name="Rectángulo 544" width="1.901" height="1.902" transform="translate(42.821 44.247)" fill="#fff"/>
    <rect id="Rectángulo_545" data-name="Rectángulo 545" width="1.902" height="1.902" transform="translate(47.009 40.595)" fill="#fff"/>
    <rect id="Rectángulo_546" data-name="Rectángulo 546" width="1.901" height="1.902" transform="translate(42.821 40.595)" fill="#fff"/>
    <rect id="Rectángulo_547" data-name="Rectángulo 547" width="1.901" height="1.901" transform="translate(51.154 47.901)" fill="#fff"/>
    <rect id="Rectángulo_548" data-name="Rectángulo 548" width="1.901" height="1.902" transform="translate(51.154 44.247)" fill="#fff"/>
    <rect id="Rectángulo_549" data-name="Rectángulo 549" width="1.901" height="1.902" transform="translate(51.154 40.595)" fill="#fff"/>
    <path id="Trazado_2555" data-name="Trazado 2555" d="M48.872,23.071a1.35,1.35,0,0,1-1.35-1.349V6.44a1.35,1.35,0,0,1,2.7,0V21.722a1.35,1.35,0,0,1-1.349,1.349" fill="#3e145e"/>
    <path id="Trazado_2556" data-name="Trazado 2556" d="M58.045,24.436A1.349,1.349,0,0,1,56.7,23.087V13.551a7.884,7.884,0,0,1,1.845-5.065L65.266.481a1.349,1.349,0,0,1,2.065,1.735l-6.724,8a5.179,5.179,0,0,0-1.213,3.33v9.536a1.349,1.349,0,0,1-1.349,1.349" fill="#3e145e"/>
    <path id="Trazado_2557" data-name="Trazado 2557" d="M39.726,24.436a1.349,1.349,0,0,1-1.349-1.349V13.551a5.185,5.185,0,0,0-1.213-3.331l-6.724-8A1.349,1.349,0,1,1,32.505.481L39.23,8.486a7.888,7.888,0,0,1,1.845,5.065v9.536a1.349,1.349,0,0,1-1.349,1.349" fill="#3e145e"/>
    <path id="Trazado_2558" data-name="Trazado 2558" d="M48.872,88.305a1.35,1.35,0,0,1-1.35-1.349V71.673a1.35,1.35,0,0,1,2.7,0V86.956a1.35,1.35,0,0,1-1.349,1.349" fill="#3e145e"/>
    <path id="Trazado_2559" data-name="Trazado 2559" d="M66.3,93.395a1.345,1.345,0,0,1-1.033-.48l-6.725-8A7.885,7.885,0,0,1,56.7,79.844V70.308a1.349,1.349,0,0,1,2.7,0v9.536a5.177,5.177,0,0,0,1.213,3.33l6.724,8A1.348,1.348,0,0,1,66.3,93.395" fill="#3e145e"/>
    <path id="Trazado_2560" data-name="Trazado 2560" d="M31.472,93.395a1.348,1.348,0,0,1-1.032-2.216l6.724-8a5.179,5.179,0,0,0,1.213-3.33V70.308a1.349,1.349,0,0,1,2.7,0v9.536A7.889,7.889,0,0,1,39.23,84.91l-6.725,8a1.345,1.345,0,0,1-1.033.48" fill="#3e145e"/>
    <path id="Trazado_2561" data-name="Trazado 2561" d="M83.512,37.869h-11.7a1.348,1.348,0,1,1,0-2.7h11.7a5.079,5.079,0,0,0,3.868-1.787l6.328-7.435a1.35,1.35,0,0,1,2.055,1.75l-6.329,7.434a7.769,7.769,0,0,1-5.922,2.735" fill="#3e145e"/>
    <path id="Trazado_2562" data-name="Trazado 2562" d="M97.609,70.548a1.343,1.343,0,0,1-1.014-.459l-6.44-7.338a5.091,5.091,0,0,0-3.894-1.727l-2.953.078a1.349,1.349,0,1,1-.071-2.7l2.968-.079h.12a7.77,7.77,0,0,1,5.858,2.648l6.439,7.337a1.349,1.349,0,0,1-1.013,2.238" fill="#3e145e"/>
    <path id="Trazado_2563" data-name="Trazado 2563" d="M94.645,45.1H85.007a1.348,1.348,0,0,1,0-2.7h9.638a1.348,1.348,0,1,1,0,2.7" fill="#3e145e"/>
    <path id="Trazado_2564" data-name="Trazado 2564" d="M94.645,53.061h-7.68a1.349,1.349,0,1,1,0-2.7h7.68a1.349,1.349,0,1,1,0,2.7" fill="#3e145e"/>
    <path id="Trazado_2565" data-name="Trazado 2565" d="M24.914,37.869h-11.7a7.769,7.769,0,0,1-5.923-2.735L.961,27.7a1.349,1.349,0,0,1,2.055-1.748l6.327,7.434a5.081,5.081,0,0,0,3.869,1.787h11.7a1.348,1.348,0,1,1,0,2.7" fill="#3e145e"/>
    <path id="Trazado_2566" data-name="Trazado 2566" d="M1.348,70.548A1.349,1.349,0,0,1,.335,68.31l6.44-7.337a7.673,7.673,0,0,1,5.963-2.647l2.982.079a1.351,1.351,0,0,1,1.313,1.385A1.366,1.366,0,0,1,15.649,61.1l-2.968-.079A5.048,5.048,0,0,0,8.8,62.751L2.363,70.089a1.346,1.346,0,0,1-1.015.459" fill="#3e145e"/>
    <path id="Trazado_2567" data-name="Trazado 2567" d="M19.289,45.1H5.28a1.348,1.348,0,0,1,0-2.7H19.289a1.348,1.348,0,1,1,0,2.7" fill="#3e145e"/>
    <path id="Trazado_2568" data-name="Trazado 2568" d="M13.949,53.061H5.28a1.349,1.349,0,1,1,0-2.7h8.669a1.349,1.349,0,1,1,0,2.7" fill="#3e145e"/>
    <path id="Trazado_2569" data-name="Trazado 2569" d="M22.33,83.79a6.98,6.98,0,1,1,6.98-6.981,6.988,6.988,0,0,1-6.98,6.981m0-11.264a4.283,4.283,0,1,0,4.283,4.283,4.288,4.288,0,0,0-4.283-4.283" fill="#3e145e"/>
    <path id="Trazado_2570" data-name="Trazado 2570" d="M76.142,83.79a6.98,6.98,0,1,1,6.98-6.981,6.988,6.988,0,0,1-6.98,6.981m0-11.264a4.283,4.283,0,1,0,4.283,4.283,4.287,4.287,0,0,0-4.283-4.283" fill="#3e145e"/>
    <path id="Trazado_2571" data-name="Trazado 2571" d="M75.456,27.761a6.98,6.98,0,1,1,6.98-6.982,6.989,6.989,0,0,1-6.98,6.982m0-11.264a4.283,4.283,0,1,0,4.283,4.282A4.287,4.287,0,0,0,75.456,16.5" fill="#3e145e"/>
    <path id="Trazado_2572" data-name="Trazado 2572" d="M22.33,27.761a6.98,6.98,0,1,1,6.98-6.982,6.988,6.988,0,0,1-6.98,6.982m0-11.264a4.283,4.283,0,1,0,4.283,4.282A4.288,4.288,0,0,0,22.33,16.5" fill="#3e145e"/>
    <path id="Trazado_2573" data-name="Trazado 2573" d="M27.293,36.52A2.379,2.379,0,1,0,24.914,38.9a2.379,2.379,0,0,0,2.379-2.378" fill="#3e145e"/>
    <path id="Trazado_2574" data-name="Trazado 2574" d="M42.1,23.572a2.379,2.379,0,1,0-2.379,2.378A2.379,2.379,0,0,0,42.1,23.572" fill="#3e145e"/>
    <path id="Trazado_2575" data-name="Trazado 2575" d="M42.1,70.231a2.379,2.379,0,1,0-2.379,2.378A2.379,2.379,0,0,0,42.1,70.231" fill="#3e145e"/>
    <path id="Trazado_2576" data-name="Trazado 2576" d="M60.423,70.309a2.379,2.379,0,1,0-2.379,2.378,2.379,2.379,0,0,0,2.379-2.378" fill="#3e145e"/>
    <path id="Trazado_2577" data-name="Trazado 2577" d="M51.25,21.722A2.379,2.379,0,1,0,48.871,24.1a2.379,2.379,0,0,0,2.379-2.379" fill="#3e145e"/>
    <path id="Trazado_2578" data-name="Trazado 2578" d="M51.345,71.673a2.378,2.378,0,1,0-2.378,2.378,2.378,2.378,0,0,0,2.378-2.378" fill="#3e145e"/>
    <path id="Trazado_2579" data-name="Trazado 2579" d="M60.423,23.087a2.379,2.379,0,1,0-2.379,2.378,2.379,2.379,0,0,0,2.379-2.378" fill="#3e145e"/>
    <path id="Trazado_2580" data-name="Trazado 2580" d="M74.187,36.52A2.378,2.378,0,1,0,71.809,38.9a2.378,2.378,0,0,0,2.378-2.378" fill="#3e145e"/>
    <path id="Trazado_2581" data-name="Trazado 2581" d="M86.53,43.751a2.378,2.378,0,1,0-2.379,2.378,2.379,2.379,0,0,0,2.379-2.378" fill="#3e145e"/>
    <path id="Trazado_2582" data-name="Trazado 2582" d="M88.413,51.866a2.378,2.378,0,1,0-2.526,2.221,2.377,2.377,0,0,0,2.526-2.221" fill="#3e145e"/>
    <path id="Trazado_2583" data-name="Trazado 2583" d="M85.646,59.828a2.378,2.378,0,1,0-2.526,2.22,2.378,2.378,0,0,0,2.526-2.22" fill="#3e145e"/>
    <path id="Trazado_2584" data-name="Trazado 2584" d="M22.33,43.751a2.378,2.378,0,1,0-2.378,2.378,2.378,2.378,0,0,0,2.378-2.378" fill="#3e145e"/>
    <path id="Trazado_2585" data-name="Trazado 2585" d="M17.041,51.712a2.379,2.379,0,1,0-2.379,2.379,2.379,2.379,0,0,0,2.379-2.379" fill="#3e145e"/>
    <path id="Trazado_2586" data-name="Trazado 2586" d="M18.063,59.674a2.379,2.379,0,1,0-2.378,2.378,2.379,2.379,0,0,0,2.378-2.378" fill="#3e145e"/>
  </g>
</svg>
