<svg id="Grupo_736" data-name="Grupo 736" xmlns="http://www.w3.org/2000/svg" xmlns:xlink="http://www.w3.org/1999/xlink" width="100.869" height="100.869" viewBox="0 0 100.869 100.869">
  <defs>
    <clipPath id="clip-path">
      <rect id="Rectángulo_599" data-name="Rectángulo 599" width="100.869" height="100.869" fill="none"/>
    </clipPath>
  </defs>
  <g id="Grupo_735" data-name="Grupo 735" clip-path="url(#clip-path)">
    <path id="Trazado_2637" data-name="Trazado 2637" d="M97.529,45.9A19.072,19.072,0,0,1,78.461,64.965H19.114a15.16,15.16,0,1,1,0-30.321,14.854,14.854,0,0,1,5.693,1.111,22.253,22.253,0,0,1-.32-3.84,23.257,23.257,0,0,1,46.258-3.454A19.064,19.064,0,0,1,97.529,45.9" fill="#ffe227"/>
    <path id="Trazado_2638" data-name="Trazado 2638" d="M77.919,66.278h-58.3c-9.2,0-16.811-7.251-16.976-16.164A16.489,16.489,0,0,1,23.247,33.852c-.048-.631-.073-1.281-.073-1.938a24.572,24.572,0,0,1,48.575-5.262,20.383,20.383,0,0,1,27.07,20.236,20.634,20.634,0,0,1-20.9,19.39m-58.8-30.322A13.849,13.849,0,0,0,5.268,50.065c.139,7.492,6.575,13.586,14.349,13.586h58.3A18.01,18.01,0,0,0,96.195,46.763,17.75,17.75,0,0,0,72.232,29.271a2.215,2.215,0,0,1-2.965-1.647,21.948,21.948,0,0,0-43.349,6.591,2.173,2.173,0,0,1-.779,1.9,2.2,2.2,0,0,1-2.054.413,13.721,13.721,0,0,0-3.971-.577" fill="#3e145e"/>
    <path id="Trazado_2639" data-name="Trazado 2639" d="M79.545,22.863a5.25,5.25,0,1,0-5.25,5.25,5.251,5.251,0,0,0,5.25-5.25" fill="#fff"/>
    <path id="Trazado_2640" data-name="Trazado 2640" d="M86.1,22.863c0-.309-.012-.613-.042-.917l4.115-2.81a15.9,15.9,0,0,0-.8-2.484l-4.973.137h-.006a11.134,11.134,0,0,0-1.078-1.477l1.667-4.686a16.184,16.184,0,0,0-2.108-1.543l-3.942,3.031a10.826,10.826,0,0,0-1.745-.56l-1.4-4.763c-.429-.042-.864-.06-1.305-.06s-.875.018-1.3.06l-1.4,4.763a10.826,10.826,0,0,0-1.745.56L66.08,9.083a16.116,16.116,0,0,0-2.108,1.543l1.667,4.686a13.457,13.457,0,0,0-1.078,1.477h-.006l-4.973-.137a15.9,15.9,0,0,0-.8,2.484l4.115,2.816a9.9,9.9,0,0,0,0,1.822l-4.115,2.817a15.889,15.889,0,0,0,.8,2.483l4.979-.137a13.066,13.066,0,0,0,1.078,1.471L63.972,35.1a15.478,15.478,0,0,0,2.1,1.536L70.022,33.6a11.364,11.364,0,0,0,1.745.566l1.4,4.77c.429.041.864.06,1.3.06s.876-.019,1.305-.06l1.4-4.77a11.363,11.363,0,0,0,1.745-.566l3.948,3.037a15.478,15.478,0,0,0,2.1-1.536l-1.667-4.693a11.312,11.312,0,0,0,1.078-1.471l4.979.137a15.889,15.889,0,0,0,.8-2.483L86.059,23.78c.03-.3.042-.607.042-.917M74.476,28.741a5.878,5.878,0,1,1,5.878-5.878,5.879,5.879,0,0,1-5.878,5.878" fill="#fff"/>
    <path id="Trazado_2641" data-name="Trazado 2641" d="M74.477,40.31c-.483,0-.959-.021-1.43-.066a1.315,1.315,0,0,1-1.135-.936l-1.2-4.08c-.156-.049-.308-.1-.458-.149l-3.377,2.6a1.314,1.314,0,0,1-1.523.057,25.638,25.638,0,0,1-2.213-1.617,1.314,1.314,0,0,1-.4-1.457l1.423-4c-.1-.135-.2-.26-.286-.385l-4.252.118a1.336,1.336,0,0,1-1.248-.808,17.412,17.412,0,0,1-.871-2.687,1.315,1.315,0,0,1,.536-1.386l3.505-2.4c0-.081,0-.162,0-.244s0-.165,0-.247l-3.505-2.4a1.315,1.315,0,0,1-.536-1.386,17.366,17.366,0,0,1,.871-2.686,1.386,1.386,0,0,1,1.248-.808l4.251.117c.094-.131.191-.261.288-.388l-1.424-4a1.314,1.314,0,0,1,.378-1.433,17.7,17.7,0,0,1,2.278-1.668,1.315,1.315,0,0,1,1.49.077l3.362,2.585c.157-.054.316-.1.474-.152l1.195-4.056a1.317,1.317,0,0,1,1.135-.936,15.351,15.351,0,0,1,2.86,0,1.314,1.314,0,0,1,1.135.936l1.195,4.056c.159.047.318.1.474.152l3.363-2.585a1.319,1.319,0,0,1,1.49-.077,17.69,17.69,0,0,1,2.277,1.668,1.312,1.312,0,0,1,.378,1.433L84.8,15.06c.1.131.2.264.291.4l4.245-.117a1.405,1.405,0,0,1,1.248.808,17.366,17.366,0,0,1,.871,2.686,1.317,1.317,0,0,1-.537,1.387l-3.5,2.394c0,.083,0,.166,0,.251s0,.166,0,.249l3.5,2.393a1.317,1.317,0,0,1,.537,1.387,17.412,17.412,0,0,1-.871,2.687,1.31,1.31,0,0,1-1.248.808l-4.249-.118c-.093.134-.189.264-.286.392l1.42,4a1.311,1.311,0,0,1-.373,1.429,16.91,16.91,0,0,1-2.28,1.668,1.314,1.314,0,0,1-1.488-.08l-3.366-2.59c-.156.054-.314.106-.473.154l-1.2,4.066a1.313,1.313,0,0,1-1.135.936c-.47.045-.947.066-1.43.066m-.305-2.63c.2,0,.408,0,.61,0l1.145-3.885a1.312,1.312,0,0,1,.957-.906,10.043,10.043,0,0,0,1.544-.5,1.315,1.315,0,0,1,1.306.173l3.208,2.469c.168-.118.333-.238.493-.36l-1.358-3.82a1.313,1.313,0,0,1,.246-1.3,10.207,10.207,0,0,0,.953-1.3,1.376,1.376,0,0,1,1.152-.622l4.049.112c.066-.193.131-.388.188-.585l-3.346-2.286a1.315,1.315,0,0,1-.566-1.212c.025-.261.035-.523.035-.788s-.01-.53-.035-.789a1.314,1.314,0,0,1,.566-1.213l3.346-2.287c-.057-.2-.122-.392-.188-.584l-4.043.111a1.382,1.382,0,0,1-1.164-.631,10.07,10.07,0,0,0-.952-1.3,1.313,1.313,0,0,1-.241-1.3l1.357-3.813c-.163-.124-.33-.246-.5-.364l-3.2,2.462a1.314,1.314,0,0,1-1.3.171,9.7,9.7,0,0,0-1.535-.493,1.312,1.312,0,0,1-.967-.909L74.783,8.047c-.2,0-.409,0-.612,0l-1.144,3.879a1.309,1.309,0,0,1-.966.909,9.631,9.631,0,0,0-1.535.493,1.314,1.314,0,0,1-1.3-.171l-3.2-2.462c-.17.118-.337.24-.5.364l1.356,3.813a1.312,1.312,0,0,1-.217,1.267,12.219,12.219,0,0,0-.977,1.334,1.312,1.312,0,0,1-1.121.63l-4.084-.112c-.067.193-.13.389-.189.586l3.347,2.292a1.315,1.315,0,0,1,.565,1.214c-.025.256-.035.515-.035.782s.01.524.035.779a1.315,1.315,0,0,1-.565,1.214L60.289,27.15c.059.2.122.393.189.586l4.048-.112a1.405,1.405,0,0,1,1.151.62,11.837,11.837,0,0,0,.985,1.34,1.313,1.313,0,0,1,.215,1.265l-1.351,3.8c.164.122.33.243.5.365l3.194-2.456a1.309,1.309,0,0,1,1.273-.185,16.864,16.864,0,0,0,1.619.525,1.312,1.312,0,0,1,.914.895Z" fill="#3e145e"/>
    <path id="Trazado_2642" data-name="Trazado 2642" d="M74.476,30.055a7.192,7.192,0,1,1,7.192-7.191,7.2,7.2,0,0,1-7.192,7.191m0-11.756a4.564,4.564,0,1,0,4.565,4.565A4.57,4.57,0,0,0,74.476,18.3" fill="#3e145e"/>
    <path id="Trazado_2643" data-name="Trazado 2643" d="M14.613,86.547H34.008v7.021H21.643a7.048,7.048,0,0,1-4.973-2.055,6.974,6.974,0,0,1-2.057-4.966" fill="#fff"/>
    <path id="Trazado_2644" data-name="Trazado 2644" d="M92.263,86.547a7.02,7.02,0,0,1-7.021,7.021H72.878V86.547Z" fill="#fff"/>
    <path id="Trazado_2645" data-name="Trazado 2645" d="M85.019,85.337H21.859V46.952a2.362,2.362,0,0,1,2.36-2.359H82.66a2.361,2.361,0,0,1,2.359,2.359ZM24.486,82.71H82.392V47.22H24.486Z" fill="#fff"/>
    <path id="Trazado_2646" data-name="Trazado 2646" d="M86.228,87.859H20.652a1.314,1.314,0,0,1-1.314-1.314V46.953a4.886,4.886,0,0,1,4.881-4.881H82.66a4.885,4.885,0,0,1,4.88,4.881V86.545a1.313,1.313,0,0,1-1.312,1.314M21.965,85.232H84.914V46.953A2.256,2.256,0,0,0,82.66,44.7H24.219a2.256,2.256,0,0,0-2.254,2.254Z" fill="#3e145e"/>
    <rect id="Rectángulo_589" data-name="Rectángulo 589" width="38.87" height="7.021" transform="translate(34.008 86.547)" fill="#ffe227"/>
    <path id="Trazado_2647" data-name="Trazado 2647" d="M72.878,94.882H34.008a1.314,1.314,0,0,1-1.314-1.314v-7.02a1.314,1.314,0,0,1,1.314-1.314h38.87a1.313,1.313,0,0,1,1.312,1.314v7.02a1.313,1.313,0,0,1-1.312,1.314M35.321,92.255H71.564V87.861H35.321Z" fill="#3e145e"/>
    <path id="Trazado_2648" data-name="Trazado 2648" d="M34.008,94.882H21.644A8.336,8.336,0,0,1,13.3,86.548a1.313,1.313,0,0,1,1.313-1.314H34.008a1.313,1.313,0,0,1,1.313,1.314v7.02a1.313,1.313,0,0,1-1.313,1.314M16.076,87.861a5.612,5.612,0,0,0,1.52,2.72,5.713,5.713,0,0,0,4.048,1.674h11.05V87.861Z" fill="#3e145e"/>
    <path id="Trazado_2649" data-name="Trazado 2649" d="M85.241,94.882H72.878a1.314,1.314,0,0,1-1.314-1.314v-7.02a1.314,1.314,0,0,1,1.314-1.314H92.262a1.314,1.314,0,0,1,1.314,1.314,8.344,8.344,0,0,1-8.335,8.334M74.19,92.255H85.241A5.716,5.716,0,0,0,90.8,87.861H74.19Z" fill="#3e145e"/>
    <rect id="Rectángulo_590" data-name="Rectángulo 590" width="2.175" height="2.174" transform="translate(43.472 31.83)" fill="#fff"/>
    <rect id="Rectángulo_591" data-name="Rectángulo 591" width="2.174" height="2.174" transform="translate(38.684 31.83)" fill="#fff"/>
    <rect id="Rectángulo_592" data-name="Rectángulo 592" width="2.175" height="2.174" transform="translate(43.472 27.654)" fill="#fff"/>
    <rect id="Rectángulo_593" data-name="Rectángulo 593" width="2.174" height="2.174" transform="translate(38.684 27.654)" fill="#fff"/>
    <rect id="Rectángulo_594" data-name="Rectángulo 594" width="2.175" height="2.175" transform="translate(43.472 23.477)" fill="#fff"/>
    <rect id="Rectángulo_595" data-name="Rectángulo 595" width="2.174" height="2.175" transform="translate(38.684 23.477)" fill="#fff"/>
    <rect id="Rectángulo_596" data-name="Rectángulo 596" width="2.175" height="2.174" transform="translate(48.211 31.83)" fill="#fff"/>
    <rect id="Rectángulo_597" data-name="Rectángulo 597" width="2.175" height="2.174" transform="translate(48.211 27.654)" fill="#fff"/>
    <rect id="Rectángulo_598" data-name="Rectángulo 598" width="2.175" height="2.175" transform="translate(48.211 23.477)" fill="#fff"/>
    <path id="Trazado_2650" data-name="Trazado 2650" d="M45.162,60.366A6.47,6.47,0,0,1,33.551,64.3L43.67,56.247a6.388,6.388,0,0,1,1.492,4.119" fill="#ffe227"/>
    <path id="Trazado_2651" data-name="Trazado 2651" d="M43.67,56.247,33.551,64.3a6.329,6.329,0,0,1-1.345-3.93A6.471,6.471,0,0,1,43.67,56.247" fill="#fff"/>
    <path id="Trazado_2652" data-name="Trazado 2652" d="M38.684,68.153a7.787,7.787,0,1,1,7.787-7.788,7.8,7.8,0,0,1-7.787,7.788m0-12.948a5.16,5.16,0,1,0,5.16,5.16,5.166,5.166,0,0,0-5.16-5.16" fill="#3e145e"/>
    <path id="Trazado_2653" data-name="Trazado 2653" d="M74.476,58.112H52.611a1.313,1.313,0,1,1,0-2.627H74.476a1.313,1.313,0,0,1,0,2.627" fill="#3e145e"/>
    <path id="Trazado_2654" data-name="Trazado 2654" d="M74.476,65.246H52.611a1.314,1.314,0,1,1,0-2.627H74.476a1.314,1.314,0,0,1,0,2.627" fill="#3e145e"/>
    <path id="Trazado_2655" data-name="Trazado 2655" d="M74.476,72.449H52.611a1.313,1.313,0,1,1,0-2.627H74.476a1.313,1.313,0,0,1,0,2.627" fill="#3e145e"/>
    <path id="Trazado_2656" data-name="Trazado 2656" d="M34.312,72.025l3.3,1.893-3.3,1.9Zm6.119,3.788,3.3-1.9-3.3-1.893Z" fill="#3e145e"/>
  </g>
</svg>
