<svg id="Grupo_705" data-name="Grupo 705" xmlns="http://www.w3.org/2000/svg" xmlns:xlink="http://www.w3.org/1999/xlink" width="338.98" height="325.938" viewBox="0 0 338.98 325.938">
  <defs>
    <clipPath id="clip-path">
      <rect id="Rectángulo_487" data-name="Rectángulo 487" width="338.98" height="325.938" fill="none"/>
    </clipPath>
    <clipPath id="clip-path-3">
      <rect id="Rectángulo_457" data-name="Rectángulo 457" width="338.98" height="63.037" transform="translate(0 178.17)" fill="none"/>
    </clipPath>
    <clipPath id="clip-path-5">
      <rect id="Rectángulo_459" data-name="Rectángulo 459" width="38.563" height="54.011" transform="translate(153.661 267.619)" fill="none"/>
    </clipPath>
    <clipPath id="clip-path-7">
      <rect id="Rectángulo_461" data-name="Rectángulo 461" width="37.015" height="51.579" transform="translate(153.661 270.051)" fill="none"/>
    </clipPath>
    <clipPath id="clip-path-8">
      <rect id="Rectángulo_462" data-name="Rectángulo 462" width="51.913" height="7.976" transform="translate(41.571 306.323)" fill="none"/>
    </clipPath>
    <clipPath id="clip-path-9">
      <rect id="Rectángulo_463" data-name="Rectángulo 463" width="46.563" height="7.154" transform="translate(44.245 298.936)" fill="none"/>
    </clipPath>
    <clipPath id="clip-path-10">
      <rect id="Rectángulo_464" data-name="Rectángulo 464" width="40.499" height="6.46" transform="translate(47.278 295.618)" fill="none"/>
    </clipPath>
    <clipPath id="clip-path-11">
      <rect id="Rectángulo_465" data-name="Rectángulo 465" width="25.406" height="24.553" transform="translate(60.859 275.842)" fill="none"/>
    </clipPath>
    <clipPath id="clip-path-12">
      <rect id="Rectángulo_466" data-name="Rectángulo 466" width="33.853" height="24.513" transform="translate(48.644 273.985)" fill="none"/>
    </clipPath>
    <clipPath id="clip-path-13">
      <rect id="Rectángulo_467" data-name="Rectángulo 467" width="20.085" height="20.086" transform="translate(49.76 275.133)" fill="none"/>
    </clipPath>
    <clipPath id="clip-path-14">
      <rect id="Rectángulo_468" data-name="Rectángulo 468" width="23.872" height="23.871" transform="translate(43.654 263.408)" fill="none"/>
    </clipPath>
    <clipPath id="clip-path-15">
      <rect id="Rectángulo_469" data-name="Rectángulo 469" width="23.872" height="23.871" transform="translate(67.526 263.408)" fill="none"/>
    </clipPath>
    <clipPath id="clip-path-16">
      <rect id="Rectángulo_470" data-name="Rectángulo 470" width="31.175" height="43.961" transform="translate(252.886 268.472)" fill="none"/>
    </clipPath>
    <clipPath id="clip-path-17">
      <rect id="Rectángulo_471" data-name="Rectángulo 471" width="33.441" height="47.36" transform="translate(268.465 273.08)" fill="none"/>
    </clipPath>
    <clipPath id="clip-path-18">
      <rect id="Rectángulo_472" data-name="Rectángulo 472" width="10.398" height="14.148" transform="translate(270.787 286.373)" fill="none"/>
    </clipPath>
    <clipPath id="clip-path-19">
      <rect id="Rectángulo_473" data-name="Rectángulo 473" width="8.969" height="13.061" transform="translate(278.323 289.818)" fill="none"/>
    </clipPath>
    <clipPath id="clip-path-20">
      <rect id="Rectángulo_474" data-name="Rectángulo 474" width="221.565" height="117.065" transform="translate(61.383 91.47)" fill="none"/>
    </clipPath>
    <clipPath id="clip-path-21">
      <rect id="Rectángulo_475" data-name="Rectángulo 475" width="215.75" height="113.068" transform="translate(34.118 95.467)" fill="none"/>
    </clipPath>
    <clipPath id="clip-path-22">
      <rect id="Rectángulo_476" data-name="Rectángulo 476" width="41.062" height="45.67" transform="translate(241.955 8.333)" fill="none"/>
    </clipPath>
    <clipPath id="clip-path-23">
      <rect id="Rectángulo_477" data-name="Rectángulo 477" width="40.417" height="43.3" transform="translate(158.657 28.782)" fill="none"/>
    </clipPath>
    <clipPath id="clip-path-24">
      <rect id="Rectángulo_478" data-name="Rectángulo 478" width="79.392" height="12.197" transform="translate(35.408 202.698)" fill="none"/>
    </clipPath>
    <clipPath id="clip-path-25">
      <rect id="Rectángulo_479" data-name="Rectángulo 479" width="71.209" height="10.94" transform="translate(39.5 191.402)" fill="none"/>
    </clipPath>
    <clipPath id="clip-path-26">
      <rect id="Rectángulo_480" data-name="Rectángulo 480" width="61.938" height="9.88" transform="translate(44.135 186.326)" fill="none"/>
    </clipPath>
    <clipPath id="clip-path-27">
      <rect id="Rectángulo_481" data-name="Rectángulo 481" width="38.853" height="37.549" transform="translate(64.906 156.084)" fill="none"/>
    </clipPath>
    <clipPath id="clip-path-28">
      <rect id="Rectángulo_482" data-name="Rectángulo 482" width="51.77" height="37.486" transform="translate(46.228 153.245)" fill="none"/>
    </clipPath>
    <clipPath id="clip-path-29">
      <rect id="Rectángulo_483" data-name="Rectángulo 483" width="30.716" height="30.715" transform="translate(47.934 155)" fill="none"/>
    </clipPath>
    <clipPath id="clip-path-30">
      <rect id="Rectángulo_484" data-name="Rectángulo 484" width="56.02" height="56.02" transform="translate(19.084 123.293)" fill="none"/>
    </clipPath>
    <clipPath id="clip-path-31">
      <rect id="Rectángulo_485" data-name="Rectángulo 485" width="56.02" height="56.02" transform="translate(75.104 123.293)" fill="none"/>
    </clipPath>
  </defs>
  <g id="Grupo_704" data-name="Grupo 704" clip-path="url(#clip-path)">
    <g id="Grupo_621" data-name="Grupo 621">
      <g id="Grupo_620" data-name="Grupo 620" clip-path="url(#clip-path)">
        <g id="Grupo_619" data-name="Grupo 619" style="mix-blend-mode: multiply;isolation: isolate">
          <g id="Grupo_618" data-name="Grupo 618">
            <g id="Grupo_617" data-name="Grupo 617" clip-path="url(#clip-path-3)">
              <path id="Trazado_2129" data-name="Trazado 2129" d="M338.98,209.689c0,17.407-75.882,31.519-169.489,31.519S0,227.1,0,209.689,75.882,178.17,169.491,178.17,338.98,192.281,338.98,209.689" fill="#b8bdc4"/>
            </g>
          </g>
        </g>
      </g>
    </g>
    <path id="Trazado_2130" data-name="Trazado 2130" d="M153.661,321.63l44.724-9.311V260.74l-44.724,7.921Z" fill="#bbbdbf"/>
    <path id="Trazado_2131" data-name="Trazado 2131" d="M153.661,319.257l40.522-9.315V262.989l-40.522,8.051Z" fill="#fff"/>
    <path id="Trazado_2132" data-name="Trazado 2132" d="M153.661,321.631v0Z" fill="#ffd325"/>
    <g id="Grupo_626" data-name="Grupo 626">
      <g id="Grupo_625" data-name="Grupo 625" clip-path="url(#clip-path)">
        <g id="Grupo_624" data-name="Grupo 624" style="mix-blend-mode: multiply;isolation: isolate">
          <g id="Grupo_623" data-name="Grupo 623">
            <g id="Grupo_622" data-name="Grupo 622" clip-path="url(#clip-path-5)">
              <path id="Trazado_2133" data-name="Trazado 2133" d="M192.224,267.619l-38.563,1.042V321.63l38.563-13.247Z" fill="#bbbdbf"/>
            </g>
          </g>
        </g>
      </g>
    </g>
    <path id="Trazado_2134" data-name="Trazado 2134" d="M153.661,321.63h37.016V270.051l-37.016-1.39Z" fill="#fff"/>
    <path id="Trazado_2135" data-name="Trazado 2135" d="M156.714,289.481l30.906-.023v-1.687l-30.906.372Z" fill="#7899c2"/>
    <path id="Trazado_2136" data-name="Trazado 2136" d="M156.714,282.818l30.906-.023v-1.687l-30.906.372Z" fill="#7899c2"/>
    <path id="Trazado_2137" data-name="Trazado 2137" d="M156.714,276.155l30.906-.023v-1.687l-30.906.372Z" fill="#7899c2"/>
    <path id="Trazado_2138" data-name="Trazado 2138" d="M156.714,293.611l30.906-.022V291.9l-30.906.371Z" fill="#7899c2"/>
    <path id="Trazado_2139" data-name="Trazado 2139" d="M156.714,297.742l30.906-.023v-1.686l-30.906.371Z" fill="#7899c2"/>
    <g id="Grupo_703" data-name="Grupo 703">
      <g id="Grupo_702" data-name="Grupo 702" clip-path="url(#clip-path)">
        <g id="Grupo_629" data-name="Grupo 629" style="mix-blend-mode: soft-light;isolation: isolate">
          <g id="Grupo_628" data-name="Grupo 628">
            <g id="Grupo_627" data-name="Grupo 627" clip-path="url(#clip-path-7)">
              <path id="Trazado_2140" data-name="Trazado 2140" d="M153.661,321.63h37.016V270.051Z" fill="#fff"/>
            </g>
          </g>
        </g>
        <path id="Trazado_2141" data-name="Trazado 2141" d="M93.484,306.323H41.571v7.336h.057a.785.785,0,0,0-.057.283c0,2.344,11.621,4.245,25.956,4.245s25.957-1.9,25.957-4.245a.748.748,0,0,0-.059-.283h.059Z" fill="#d0d2d3"/>
        <g id="Grupo_632" data-name="Grupo 632" style="mix-blend-mode: soft-light;isolation: isolate">
          <g id="Grupo_631" data-name="Grupo 631">
            <g id="Grupo_630" data-name="Grupo 630" clip-path="url(#clip-path-8)">
              <path id="Trazado_2142" data-name="Trazado 2142" d="M93.484,306.323H41.571v7.336h.057a.785.785,0,0,0-.057.283c0,2.344,51.913-7.619,51.913-7.619" fill="#fff"/>
            </g>
          </g>
        </g>
        <path id="Trazado_2143" data-name="Trazado 2143" d="M93.484,306.323c0,2.344-11.622,4.246-25.957,4.246s-25.956-1.9-25.956-4.246,11.621-4.246,25.956-4.246,25.957,1.9,25.957,4.246" fill="#bbbdbf"/>
        <path id="Trazado_2144" data-name="Trazado 2144" d="M90.808,298.936H44.245v6.58H44.3a.7.7,0,0,0-.052.253c0,2.1,10.422,3.809,23.282,3.809s23.281-1.705,23.281-3.809a.741.741,0,0,0-.051-.253h.051Z" fill="#d0d2d3"/>
        <g id="Grupo_635" data-name="Grupo 635" style="mix-blend-mode: soft-light;isolation: isolate">
          <g id="Grupo_634" data-name="Grupo 634">
            <g id="Grupo_633" data-name="Grupo 633" clip-path="url(#clip-path-9)">
              <path id="Trazado_2145" data-name="Trazado 2145" d="M90.808,298.936H44.245v6.58H44.3a.7.7,0,0,0-.052.253c0,2.1,46.563-6.833,46.563-6.833" fill="#fff"/>
            </g>
          </g>
        </g>
        <path id="Trazado_2146" data-name="Trazado 2146" d="M90.808,298.936c0,2.1-10.423,3.808-23.281,3.808s-23.282-1.7-23.282-3.808,10.422-3.808,23.282-3.808,23.281,1.705,23.281,3.808" fill="#bbbdbf"/>
        <g id="Grupo_638" data-name="Grupo 638" style="mix-blend-mode: multiply;isolation: isolate">
          <g id="Grupo_637" data-name="Grupo 637">
            <g id="Grupo_636" data-name="Grupo 636" clip-path="url(#clip-path-10)">
              <path id="Trazado_2147" data-name="Trazado 2147" d="M87.777,298.847c0,1.785-9.066,3.23-20.25,3.23s-20.249-1.445-20.249-3.23,9.064-3.23,20.249-3.23,20.25,1.446,20.25,3.23" fill="#6d6e70"/>
            </g>
          </g>
        </g>
        <path id="Trazado_2148" data-name="Trazado 2148" d="M87.04,292.9A19.512,19.512,0,1,0,48.6,297.659c0,1.925,8.475,3.485,18.927,3.485s18.922-1.56,18.922-3.485a19.448,19.448,0,0,0,.589-4.759" fill="#ec4039"/>
        <g id="Grupo_641" data-name="Grupo 641" style="mix-blend-mode: multiply;isolation: isolate">
          <g id="Grupo_640" data-name="Grupo 640">
            <g id="Grupo_639" data-name="Grupo 639" clip-path="url(#clip-path-11)">
              <path id="Trazado_2149" data-name="Trazado 2149" d="M75.391,275.843a18.387,18.387,0,0,1,8.048,20.051c0,1.815-7.985,3.285-17.836,3.285-6.569,0-6.77,1.217,2.271,1.217,9.849,0,17.836-1.471,17.836-3.285a18.39,18.39,0,0,0-10.319-21.268" fill="#ec4039"/>
            </g>
          </g>
        </g>
        <g id="Grupo_644" data-name="Grupo 644" opacity="0.66" style="mix-blend-mode: soft-light;isolation: isolate">
          <g id="Grupo_643" data-name="Grupo 643">
            <g id="Grupo_642" data-name="Grupo 642" clip-path="url(#clip-path-12)">
              <path id="Trazado_2150" data-name="Trazado 2150" d="M81.446,296.669c4.819-11.493-8.157-22.683-14.181-22.683a18.723,18.723,0,0,0-18.616,18.827c0,1.664-.076,3.623.36,4.169,2.2,1.864,25.347,2.283,32.437-.313" fill="#fff"/>
            </g>
          </g>
        </g>
        <g id="Grupo_647" data-name="Grupo 647" style="mix-blend-mode: soft-light;isolation: isolate">
          <g id="Grupo_646" data-name="Grupo 646">
            <g id="Grupo_645" data-name="Grupo 645" clip-path="url(#clip-path-13)">
              <path id="Trazado_2151" data-name="Trazado 2151" d="M49.76,293.086a17.952,17.952,0,0,1,17.952-17.953c9.914,0-17.952,27.868-17.952,17.953" fill="#fff"/>
            </g>
          </g>
        </g>
        <g id="Grupo_650" data-name="Grupo 650" style="mix-blend-mode: soft-light;isolation: isolate">
          <g id="Grupo_649" data-name="Grupo 649">
            <g id="Grupo_648" data-name="Grupo 648" clip-path="url(#clip-path-14)">
              <path id="Trazado_2152" data-name="Trazado 2152" d="M67.527,287.279,43.655,275.706l12.3-12.3Z" fill="#fff"/>
            </g>
          </g>
        </g>
        <g id="Grupo_653" data-name="Grupo 653" style="mix-blend-mode: soft-light;isolation: isolate">
          <g id="Grupo_652" data-name="Grupo 652">
            <g id="Grupo_651" data-name="Grupo 651" clip-path="url(#clip-path-15)">
              <path id="Trazado_2153" data-name="Trazado 2153" d="M67.527,287.279,91.4,275.706l-12.3-12.3Z" fill="#fff"/>
            </g>
          </g>
        </g>
        <path id="Trazado_2154" data-name="Trazado 2154" d="M13.372,227.016V311.34H31.9" fill="none" stroke="#6a2267" stroke-miterlimit="10" stroke-width="3" stroke-dasharray="3 3"/>
        <path id="Trazado_2155" data-name="Trazado 2155" d="M328.06,227.016V311.34H309.53" fill="none" stroke="#6a2267" stroke-miterlimit="10" stroke-width="3" stroke-dasharray="3 3"/>
        <line id="Línea_104" data-name="Línea 104" x2="29.547" transform="translate(111.418 311.341)" fill="none" stroke="#6a2267" stroke-miterlimit="10" stroke-width="3" stroke-dasharray="3 3"/>
        <line id="Línea_105" data-name="Línea 105" x2="29.548" transform="translate(211.224 311.341)" fill="none" stroke="#6a2267" stroke-miterlimit="10" stroke-width="3" stroke-dasharray="3 3"/>
        <path id="Trazado_2156" data-name="Trazado 2156" d="M308.161,294.625a26.154,26.154,0,1,1-26.153-26.154,26.153,26.153,0,0,1,26.153,26.154" fill="#9a261f"/>
        <path id="Trazado_2157" data-name="Trazado 2157" d="M305.194,294.625a26.154,26.154,0,1,1-26.154-26.154,26.153,26.153,0,0,1,26.154,26.154" fill="#ec4039"/>
        <g id="Grupo_656" data-name="Grupo 656" style="mix-blend-mode: soft-light;isolation: isolate">
          <g id="Grupo_655" data-name="Grupo 655">
            <g id="Grupo_654" data-name="Grupo 654" clip-path="url(#clip-path-16)">
              <path id="Trazado_2158" data-name="Trazado 2158" d="M265.833,301.516c3.952-7.416,7.815-14.884,11.933-22.211,1.986-3.534,4.106-6.963,6.3-10.348a26.151,26.151,0,0,0-24.171,43.476c1.961-3.649,3.994-7.261,5.943-10.917" fill="#fff"/>
            </g>
          </g>
        </g>
        <g id="Grupo_659" data-name="Grupo 659" style="mix-blend-mode: soft-light;isolation: isolate">
          <g id="Grupo_658" data-name="Grupo 658">
            <g id="Grupo_657" data-name="Grupo 657" clip-path="url(#clip-path-17)">
              <path id="Trazado_2159" data-name="Trazado 2159" d="M293.862,273.079c-2.348,3.558-4.634,7.153-6.722,10.868-4.236,7.538-8.216,15.215-12.287,22.842-1.965,3.679-4.021,7.311-5.983,10.991q-.2.381-.4.762a25.9,25.9,0,0,0,6.376,1.9q3.219-4.791,6.463-9.559c4.549-6.686,9.143-13.345,13.871-19.908q3.3-4.572,6.73-9.039a26.292,26.292,0,0,0-8.044-8.854" fill="#fff"/>
            </g>
          </g>
        </g>
        <path id="Trazado_2160" data-name="Trazado 2160" d="M294.711,294.625a15.672,15.672,0,1,1-15.672-15.672,15.673,15.673,0,0,1,15.672,15.672" fill="#fff"/>
        <path id="Trazado_2161" data-name="Trazado 2161" d="M289.163,294.625a8.253,8.253,0,1,1-8.252-8.252,8.253,8.253,0,0,1,8.252,8.252" fill="#9a261f"/>
        <path id="Trazado_2162" data-name="Trazado 2162" d="M287.293,294.625a8.253,8.253,0,1,1-8.254-8.252,8.254,8.254,0,0,1,8.254,8.252" fill="#ec4039"/>
        <g id="Grupo_662" data-name="Grupo 662" style="mix-blend-mode: soft-light;isolation: isolate">
          <g id="Grupo_661" data-name="Grupo 661">
            <g id="Grupo_660" data-name="Grupo 660" clip-path="url(#clip-path-18)">
              <path id="Trazado_2163" data-name="Trazado 2163" d="M273.267,300.521c.15-.243.3-.488.443-.736,1.481-2.567,2.849-5.2,4.315-7.772,1.023-1.8,2.093-3.58,3.16-5.357a8.252,8.252,0,0,0-7.918,13.865" fill="#fff"/>
            </g>
          </g>
        </g>
        <g id="Grupo_665" data-name="Grupo 665" style="mix-blend-mode: soft-light;isolation: isolate">
          <g id="Grupo_664" data-name="Grupo 664">
            <g id="Grupo_663" data-name="Grupo 663" clip-path="url(#clip-path-19)">
              <path id="Trazado_2164" data-name="Trazado 2164" d="M283.157,294.221c-1.466,2.576-2.828,5.207-4.311,7.774q-.248.428-.523.851c.236.02.477.034.717.034a8.253,8.253,0,0,0,6.707-13.062c-.878,1.461-1.748,2.924-2.59,4.4" fill="#fff"/>
            </g>
          </g>
        </g>
        <line id="Línea_106" data-name="Línea 106" y2="6.479" transform="translate(279.04 263.313)" fill="none" stroke="#fff" stroke-miterlimit="10" stroke-width="3"/>
        <line id="Línea_107" data-name="Línea 107" y2="24.834" transform="translate(279.04 286.347)" fill="none" stroke="#fff" stroke-miterlimit="10" stroke-width="3" stroke-dasharray="15.332 15.332"/>
        <line id="Línea_108" data-name="Línea 108" y2="6.479" transform="translate(279.04 319.459)" fill="none" stroke="#fff" stroke-miterlimit="10" stroke-width="3"/>
        <line id="Línea_109" data-name="Línea 109" x1="6.479" transform="translate(303.873 294.625)" fill="none" stroke="#fff" stroke-miterlimit="10" stroke-width="3"/>
        <line id="Línea_110" data-name="Línea 110" x1="24.834" transform="translate(262.484 294.625)" fill="none" stroke="#fff" stroke-miterlimit="10" stroke-width="3" stroke-dasharray="15.332 15.332"/>
        <line id="Línea_111" data-name="Línea 111" x1="6.479" transform="translate(247.728 294.625)" fill="none" stroke="#fff" stroke-miterlimit="10" stroke-width="3"/>
        <path id="Trazado_2165" data-name="Trazado 2165" d="M257.33,74.828l4.5-20.464-9.248-4.954-143.3,4.954-47.9,154.172,9.248,8.193H292.2l27.7-141.9-9.248-4.954Z" fill="#f38d2d"/>
        <path id="Trazado_2166" data-name="Trazado 2166" d="M248.082,69.874l4.5-20.464H100.031L61.384,208.536H282.948l27.7-138.662Z" fill="#ffd325"/>
        <path id="Trazado_2167" data-name="Trazado 2167" d="M73.124,199.353l34.091-140.76H241.158l-4.5,20.464h62.809L275.4,199.353Z" fill="#ffe89a"/>
        <line id="Línea_112" data-name="Línea 112" x2="221.564" transform="translate(61.383 208.535)" fill="#ffd325"/>
        <g id="Grupo_668" data-name="Grupo 668" style="mix-blend-mode: multiply;isolation: isolate">
          <g id="Grupo_667" data-name="Grupo 667">
            <g id="Grupo_666" data-name="Grupo 666" clip-path="url(#clip-path-20)">
              <path id="Trazado_2168" data-name="Trazado 2168" d="M90.032,91.47,61.384,208.535H282.948L258.985,91.47Z" fill="#bbbdbf"/>
            </g>
          </g>
        </g>
        <path id="Trazado_2169" data-name="Trazado 2169" d="M61.383,208.535,34.117,95.466h215.75l33.08,113.069Z" fill="#ffd325"/>
        <g id="Grupo_671" data-name="Grupo 671" style="mix-blend-mode: soft-light;isolation: isolate">
          <g id="Grupo_670" data-name="Grupo 670">
            <g id="Grupo_669" data-name="Grupo 669" clip-path="url(#clip-path-21)">
              <path id="Trazado_2170" data-name="Trazado 2170" d="M61.383,208.535,34.117,95.466h215.75Z" fill="#fff"/>
            </g>
          </g>
        </g>
        <path id="Trazado_2171" data-name="Trazado 2171" d="M106.746,43.781a2.931,2.931,0,0,0,2.93,2.932h27.459a2.93,2.93,0,0,0,2.929-2.932c0-1.618-2.159-6.7-3.779-6.7l-26.609,3.766a2.93,2.93,0,0,0-2.93,2.93" fill="#253549"/>
        <path id="Trazado_2172" data-name="Trazado 2172" d="M111.548,41.71a2.93,2.93,0,0,0-4.146,0L87.986,61.126A2.93,2.93,0,1,0,92.13,65.27l19.415-19.418a2.928,2.928,0,0,0,0-4.142" fill="#253549"/>
        <path id="Trazado_2173" data-name="Trazado 2173" d="M89.623,94.665a2.934,2.934,0,0,0,2.932-2.932V64.274a2.931,2.931,0,0,0-5.862,0V91.735a2.932,2.932,0,0,0,2.93,2.93" fill="#253549"/>
        <path id="Trazado_2174" data-name="Trazado 2174" d="M187.335,43.781a2.931,2.931,0,0,0,2.93,2.932h27.459a2.93,2.93,0,0,0,2.929-2.932c0-1.618-2.16-6.7-3.779-6.7l-26.609,3.766a2.93,2.93,0,0,0-2.93,2.93" fill="#253549"/>
        <path id="Trazado_2175" data-name="Trazado 2175" d="M192.137,41.71a2.93,2.93,0,0,0-4.146,0L168.575,61.126a2.931,2.931,0,0,0,4.145,4.144l19.415-19.418a2.927,2.927,0,0,0,0-4.142" fill="#253549"/>
        <path id="Trazado_2176" data-name="Trazado 2176" d="M170.212,94.665a2.934,2.934,0,0,0,2.932-2.932V64.274a2.931,2.931,0,0,0-5.862,0V91.735a2.932,2.932,0,0,0,2.93,2.93" fill="#253549"/>
        <path id="Trazado_2177" data-name="Trazado 2177" d="M243.458,34.659C308.38,4.06,181.206,5.135,157.552,8.806,129.8,13.113,116.877,49.961,133.78,61.26h81.778v-17.2Z" fill="#ffd325"/>
        <path id="Trazado_2178" data-name="Trazado 2178" d="M128.308,39.367c9.837-21.16,33.635-27.721,54.877-29.442a266.8,266.8,0,0,1,28.744-.3c8.819.237,17.867-.343,26.637.688a129.794,129.794,0,0,1,14.626,2.55c.122.006.244.006.364.012-21.779-7.735-80.661-6.447-96-4.068-18.892,2.934-30.906,20.94-31.321,35.708a54.643,54.643,0,0,1,2.077-5.146" fill="#f7aa2c"/>
        <path id="Trazado_2179" data-name="Trazado 2179" d="M283.017,42.716c-1-23.691-21.068-37.581-44.724-33.911-27.756,4.308-39.64,41.155-22.735,52.455Z" fill="#f38d2d"/>
        <g id="Grupo_674" data-name="Grupo 674" style="mix-blend-mode: multiply;isolation: isolate">
          <g id="Grupo_673" data-name="Grupo 673">
            <g id="Grupo_672" data-name="Grupo 672" clip-path="url(#clip-path-22)">
              <path id="Trazado_2180" data-name="Trazado 2180" d="M254.2,14.837a27.653,27.653,0,0,1,2.771,21.183c-2.029,7.379-6.594,12.119-12.632,16.427q-1.163.83-2.386,1.557l41.062-11.288c-.849-20.046-15.351-33.073-34.126-34.383a27.551,27.551,0,0,1,5.311,6.5" fill="#f38d2d"/>
            </g>
          </g>
        </g>
        <path id="Trazado_2181" data-name="Trazado 2181" d="M266.712,42.111l-2.145.8a.709.709,0,0,0-.459.432c-.046.2.185.224.322.171q1.074-.4,2.145-.8a.705.705,0,0,0,.46-.432c.048-.2-.183-.222-.323-.171" fill="#f38d2d"/>
        <path id="Trazado_2182" data-name="Trazado 2182" d="M269.708,41.065c-.15-.4-.928.065-.8.39a.849.849,0,0,0,.388.5c.312.175.989-.43.635-.633a.439.439,0,0,1-.219-.255" fill="#f38d2d"/>
        <path id="Trazado_2183" data-name="Trazado 2183" d="M269.161,37.011a.848.848,0,0,0-.529.375c-.088.161-.23.283-.323.445s-.014.27.167.232a.842.842,0,0,0,.525-.375c.091-.16.232-.282.325-.445s.015-.27-.165-.232" fill="#f38d2d"/>
        <path id="Trazado_2184" data-name="Trazado 2184" d="M271.544,37.193c.063,0,.044-.013-.055-.025-.074-.028-.143-.058-.213-.091-.325-.148-.991.47-.634.63a1.185,1.185,0,0,0,.8.137c.389-.078.69-.769.1-.651" fill="#f38d2d"/>
        <path id="Trazado_2185" data-name="Trazado 2185" d="M275.446,39.513c-.084.013-.2-.19-.229-.251-.146-.3-.908.2-.748.529a.668.668,0,0,0,.663.394.71.71,0,0,0,.527-.373c.078-.168-.019-.329-.213-.3" fill="#f38d2d"/>
        <path id="Trazado_2186" data-name="Trazado 2186" d="M275.711,36.566c.07.19.142.379.211.571.047.125.833-.3.747-.531-.069-.19-.142-.38-.213-.572-.045-.124-.831.3-.745.532" fill="#f38d2d"/>
        <path id="Trazado_2187" data-name="Trazado 2187" d="M274.824,32.179a2.643,2.643,0,0,0-.784-.359c-.336-.136-1,.483-.633.631a2.679,2.679,0,0,1,.784.358c.269.228.96-.356.633-.63" fill="#f38d2d"/>
        <path id="Trazado_2188" data-name="Trazado 2188" d="M272.711,29.878c-.037-.1-.069-.192-.106-.287-.169-.451-.968-.025-.821.367.036.1.07.192.107.287.169.451.966.026.82-.367" fill="#f38d2d"/>
        <path id="Trazado_2189" data-name="Trazado 2189" d="M267.092,29.735a1.054,1.054,0,0,0,.482-.4c.182-.392.36-.785.54-1.177.081-.177-.162-.084-.236-.048a1.058,1.058,0,0,0-.482.4c-.18.395-.359.787-.54,1.179-.08.175.162.085.236.047" fill="#f38d2d"/>
        <path id="Trazado_2190" data-name="Trazado 2190" d="M266.329,33.293c-.08-.221-.856.23-.746.532a.444.444,0,0,1,.017.1.3.3,0,0,0-.073.188c.013.19.325.068.407.019.353-.213.541-.434.4-.835" fill="#f38d2d"/>
        <path id="Trazado_2191" data-name="Trazado 2191" d="M265.743,38.763c.053-.009.022.009,0-.046-.107-.238-.878.239-.747.529.069.156.249.162.393.136a.837.837,0,0,0,.527-.375c.091-.159,0-.278-.173-.244" fill="#f38d2d"/>
        <path id="Trazado_2192" data-name="Trazado 2192" d="M270.583,34.537c.047-.2-.186-.222-.322-.171l-1,.371a.71.71,0,0,0-.46.435c-.047.2.185.221.322.172l1-.375a.7.7,0,0,0,.46-.432" fill="#f38d2d"/>
        <path id="Trazado_2193" data-name="Trazado 2193" d="M264.656,36.773a.445.445,0,0,1-.217-.255c-.151-.4-.928.063-.8.39a.864.864,0,0,0,.387.5c.312.177.988-.431.634-.631" fill="#f38d2d"/>
        <path id="Trazado_2194" data-name="Trazado 2194" d="M266.747,22.862a.844.844,0,0,0-.527.375c-.089.161-.233.283-.324.445s-.016.268.165.232a.851.851,0,0,0,.528-.375c.091-.16.231-.282.322-.445s.017-.27-.164-.232" fill="#f38d2d"/>
        <path id="Trazado_2195" data-name="Trazado 2195" d="M271.488,25.131c-.072-.027-.144-.057-.214-.091-.324-.147-.991.468-.635.631a1.22,1.22,0,0,0,.8.137c.388-.08.692-.772.1-.654.061,0,.042-.01-.057-.023" fill="#f38d2d"/>
        <path id="Trazado_2196" data-name="Trazado 2196" d="M269.908,32.055c-.084.013-.2-.19-.229-.251-.146-.3-.908.2-.746.529a.665.665,0,0,0,.661.4.709.709,0,0,0,.527-.374.2.2,0,0,0-.213-.3" fill="#f38d2d"/>
        <path id="Trazado_2197" data-name="Trazado 2197" d="M269.564,29.659c.071.19.144.382.213.572.047.126.833-.3.747-.53-.07-.192-.142-.381-.213-.571-.047-.125-.831.3-.747.529" fill="#f38d2d"/>
        <path id="Trazado_2198" data-name="Trazado 2198" d="M262.636,46.025c-.331.125-.667.247-1,.371a.71.71,0,0,0-.46.432c-.046.205.186.224.323.171q.5-.183,1-.371a.7.7,0,0,0,.462-.432c.047-.2-.185-.222-.324-.171" fill="#f38d2d"/>
        <path id="Trazado_2199" data-name="Trazado 2199" d="M256.817,48.174c-.151-.4-.93.065-.8.392a.843.843,0,0,0,.387.5c.312.177.988-.43.632-.633a.433.433,0,0,1-.215-.255" fill="#f38d2d"/>
        <path id="Trazado_2200" data-name="Trazado 2200" d="M262.286,43.714c-.084.013-.2-.19-.229-.251-.146-.3-.908.2-.746.529a.668.668,0,0,0,.661.4.71.71,0,0,0,.527-.374c.078-.169-.019-.329-.213-.3" fill="#f38d2d"/>
        <path id="Trazado_2201" data-name="Trazado 2201" d="M261.942,41.318c.072.19.144.382.213.572.047.124.831-.3.747-.53-.072-.192-.142-.381-.213-.571-.047-.125-.831.3-.747.529" fill="#f38d2d"/>
        <path id="Trazado_2202" data-name="Trazado 2202" d="M270.766,22.138c-.335-.137-.995.483-.633.63a2.708,2.708,0,0,1,.782.362c.271.225.962-.357.635-.634a2.744,2.744,0,0,0-.784-.358" fill="#f38d2d"/>
        <path id="Trazado_2203" data-name="Trazado 2203" d="M269.435,18.388c.036.095.07.19.105.288.169.45.969.025.821-.37-.033-.094-.07-.189-.106-.284-.168-.452-.966-.026-.82.366" fill="#f38d2d"/>
        <path id="Trazado_2204" data-name="Trazado 2204" d="M264.9,19.245a1.048,1.048,0,0,0,.483-.4c.179-.392.359-.785.539-1.175.082-.177-.162-.084-.235-.048a1.045,1.045,0,0,0-.483.4c-.182.393-.359.785-.54,1.177-.08.177.162.085.236.049" fill="#f38d2d"/>
        <path id="Trazado_2205" data-name="Trazado 2205" d="M268.1,20.474c.354-.212.54-.436.395-.835-.081-.221-.855.231-.746.529a.708.708,0,0,1,.018.1.279.279,0,0,0-.072.188c.012.189.325.065.4.018" fill="#f38d2d"/>
        <path id="Trazado_2206" data-name="Trazado 2206" d="M266.1,27.077a.822.822,0,0,0,.527-.375c.091-.155.006-.274-.173-.241.053-.009.026.008,0-.046-.1-.239-.875.236-.747.529.07.156.249.161.393.133" fill="#f38d2d"/>
        <path id="Trazado_2207" data-name="Trazado 2207" d="M177.762,58.021c21.312-42.147-35.634-34.521-48.376-32.542C114.433,27.8,95.857,68.444,104.963,74.532h44.058V65.268Z" fill="#ffd325"/>
        <path id="Trazado_2208" data-name="Trazado 2208" d="M127.99,32.554c12.452-5.937,26.416-8.7,40-4.756a55.973,55.973,0,0,1,11.6,4.845c-9.713-12.83-41.144-8.571-50.211-7.165-11.879,1.844-26.032,27.863-26.787,41.54C107.32,52.96,113.632,39.4,127.99,32.554" fill="#f7aa2c"/>
        <path id="Trazado_2209" data-name="Trazado 2209" d="M143.9,57.625H106.963c-1.756,6.1-1.847,11.256.781,13.012h36.934c-2.628-1.756-2.537-6.907-.78-13.012" fill="#253549"/>
        <path id="Trazado_2210" data-name="Trazado 2210" d="M199.075,62.362c-.54-12.764-13.445-38.861-26.19-36.883-14.954,2.32-33.53,42.966-24.42,49.054Z" fill="#f38d2d"/>
        <g id="Grupo_677" data-name="Grupo 677" style="mix-blend-mode: multiply;isolation: isolate">
          <g id="Grupo_676" data-name="Grupo 676">
            <g id="Grupo_675" data-name="Grupo 675" clip-path="url(#clip-path-23)">
              <path id="Trazado_2211" data-name="Trazado 2211" d="M182.465,42.5c-3.283,13.679-12.377,23.368-23.809,29.583l40.418-9.72c-.4-9.5-7.656-26.38-16.593-33.58a29.374,29.374,0,0,1-.016,13.717" fill="#f38d2d"/>
            </g>
          </g>
        </g>
        <path id="Trazado_2212" data-name="Trazado 2212" d="M252.017,46.567a2.931,2.931,0,0,1-2.93,2.931H221.628a2.931,2.931,0,0,1-2.931-2.931c0-1.618,2.161-6.7,3.779-6.7l26.611,3.766a2.93,2.93,0,0,1,2.93,2.93" fill="#253549"/>
        <path id="Trazado_2213" data-name="Trazado 2213" d="M247.214,44.5a2.93,2.93,0,0,1,4.145,0l19.417,19.416a2.93,2.93,0,0,1-4.144,4.144L247.214,48.638a2.93,2.93,0,0,1,0-4.142" fill="#253549"/>
        <path id="Trazado_2214" data-name="Trazado 2214" d="M269.138,97.449a2.93,2.93,0,0,1-2.93-2.929V67.06a2.931,2.931,0,0,1,5.862,0l0,27.458a2.927,2.927,0,0,1-2.929,2.929" fill="#253549"/>
        <path id="Trazado_2215" data-name="Trazado 2215" d="M120.009,3.794a1.66,1.66,0,0,1-1.66,1.66H102.8a1.66,1.66,0,0,1-1.659-1.66c0-.917,1.223-3.794,2.141-3.794l15.07,2.134a1.659,1.659,0,0,1,1.66,1.66" fill="#253549"/>
        <path id="Trazado_2216" data-name="Trazado 2216" d="M117.291,2.619a1.665,1.665,0,0,1,2.348,0l11,11a1.659,1.659,0,0,1-2.347,2.346l-11-11a1.658,1.658,0,0,1,0-2.347" fill="#253549"/>
        <path id="Trazado_2217" data-name="Trazado 2217" d="M129.707,32.614a1.663,1.663,0,0,1-1.66-1.66V15.4a1.66,1.66,0,1,1,3.32,0V30.954a1.66,1.66,0,0,1-1.66,1.66" fill="#253549"/>
        <path id="Trazado_2218" data-name="Trazado 2218" d="M158.124,4.079a1.66,1.66,0,0,0,1.66,1.66h15.554A1.661,1.661,0,0,0,177,4.079c0-.916-1.226-3.792-2.142-3.792L159.784,2.419a1.661,1.661,0,0,0-1.66,1.66" fill="#253549"/>
        <path id="Trazado_2219" data-name="Trazado 2219" d="M160.844,2.906a1.663,1.663,0,0,0-2.348,0l-11,11a1.66,1.66,0,0,0,2.348,2.347l11-11a1.66,1.66,0,0,0,0-2.347" fill="#253549"/>
        <path id="Trazado_2220" data-name="Trazado 2220" d="M148.426,32.9a1.66,1.66,0,0,0,1.66-1.66V15.687a1.659,1.659,0,1,0-3.318,0V31.241a1.658,1.658,0,0,0,1.658,1.658" fill="#253549"/>
        <path id="Trazado_2221" data-name="Trazado 2221" d="M285.337,34.181a2.93,2.93,0,0,1-2.932,2.931H254.948a2.929,2.929,0,0,1-2.931-2.931c0-1.618,2.161-6.7,3.779-6.7L282.4,31.251a2.931,2.931,0,0,1,2.932,2.93" fill="#253549"/>
        <path id="Trazado_2222" data-name="Trazado 2222" d="M280.535,32.11a2.93,2.93,0,0,1,4.145,0L304.1,51.526a2.93,2.93,0,1,1-4.143,4.144L280.535,36.252a2.928,2.928,0,0,1,0-4.142" fill="#253549"/>
        <path id="Trazado_2223" data-name="Trazado 2223" d="M302.458,85.065a2.932,2.932,0,0,1-2.93-2.931V54.674a2.929,2.929,0,1,1,5.859,0v27.46a2.93,2.93,0,0,1-2.929,2.929" fill="#253549"/>
        <path id="Trazado_2224" data-name="Trazado 2224" d="M153.653,42.874H140.064l17.425-6.007Z" fill="#253549"/>
        <path id="Trazado_2225" data-name="Trazado 2225" d="M111.778,42.874h12.5l-8.81-5.33Z" fill="#253549"/>
        <path id="Trazado_2226" data-name="Trazado 2226" d="M110.663,64.131l-3.7-6.506h7.4Z" fill="#fff"/>
        <path id="Trazado_2227" data-name="Trazado 2227" d="M118.061,64.131l-3.7-6.506h7.4Z" fill="#fff"/>
        <path id="Trazado_2228" data-name="Trazado 2228" d="M125.46,64.131l-3.7-6.506h7.4Z" fill="#fff"/>
        <path id="Trazado_2229" data-name="Trazado 2229" d="M132.858,64.131l-3.7-6.506h7.4Z" fill="#fff"/>
        <path id="Trazado_2230" data-name="Trazado 2230" d="M140.256,64.131l-3.7-6.506h7.4Z" fill="#fff"/>
        <path id="Trazado_2231" data-name="Trazado 2231" d="M111.287,65.875l-3.543,4.762h7.086Z" fill="#fff"/>
        <path id="Trazado_2232" data-name="Trazado 2232" d="M118.373,65.875l-3.543,4.762h7.086Z" fill="#fff"/>
        <path id="Trazado_2233" data-name="Trazado 2233" d="M125.46,65.875l-3.544,4.762H129Z" fill="#fff"/>
        <path id="Trazado_2234" data-name="Trazado 2234" d="M132.546,65.875,129,70.637h7.084Z" fill="#fff"/>
        <path id="Trazado_2235" data-name="Trazado 2235" d="M139.631,65.875l-3.545,4.762h7.086Z" fill="#fff"/>
        <path id="Trazado_2236" data-name="Trazado 2236" d="M182.93,62.442q-1.12.223-2.244.447a.708.708,0,0,0-.522.354c-.078.195.148.249.291.222l2.243-.449a.7.7,0,0,0,.525-.353c.078-.194-.147-.248-.293-.221" fill="#f38d2d"/>
        <path id="Trazado_2237" data-name="Trazado 2237" d="M186.053,61.885c-.084-.418-.926-.083-.854.257a.84.84,0,0,0,.3.553c.281.221,1.044-.268.726-.523a.452.452,0,0,1-.175-.287" fill="#f38d2d"/>
        <path id="Trazado_2238" data-name="Trazado 2238" d="M186.157,57.795a.858.858,0,0,0-.582.287c-.114.144-.272.243-.389.388s-.058.264.127.255a.841.841,0,0,0,.578-.286c.116-.144.274-.241.39-.389s.06-.263-.124-.255" fill="#f38d2d"/>
        <path id="Trazado_2239" data-name="Trazado 2239" d="M188.481,58.352c.062.006.046-.006-.051-.034-.067-.038-.131-.078-.2-.122-.3-.2-1.053.305-.726.521a1.21,1.21,0,0,0,.77.263c.394-.014.8-.651.2-.628" fill="#f38d2d"/>
        <path id="Trazado_2240" data-name="Trazado 2240" d="M191.967,61.263c-.087,0-.169-.221-.188-.285-.1-.322-.928.049-.821.406a.665.665,0,0,0,.589.493.712.712,0,0,0,.58-.287.2.2,0,0,0-.16-.327" fill="#f38d2d"/>
        <path id="Trazado_2241" data-name="Trazado 2241" d="M192.7,58.394c.04.2.08.4.118.6.028.131.868-.164.822-.405-.04-.2-.08-.4-.12-.6-.025-.129-.869.164-.82.407" fill="#f38d2d"/>
        <path id="Trazado_2242" data-name="Trazado 2242" d="M192.513,53.921a2.741,2.741,0,0,0-.717-.479c-.31-.188-1.061.321-.725.523a2.663,2.663,0,0,1,.716.481c.23.266,1.006-.2.726-.525" fill="#f38d2d"/>
        <path id="Trazado_2243" data-name="Trazado 2243" d="M190.792,51.314c-.02-.1-.04-.2-.06-.3-.094-.471-.951-.178-.869.234.022.1.04.2.062.3.093.471.949.178.867-.234" fill="#f38d2d"/>
        <path id="Trazado_2244" data-name="Trazado 2244" d="M185.266,50.285a1.057,1.057,0,0,0,.542-.318l.718-1.078c.107-.16-.146-.109-.224-.084a1.029,1.029,0,0,0-.54.319q-.36.537-.72,1.078c-.107.157.147.107.224.083" fill="#f38d2d"/>
        <path id="Trazado_2245" data-name="Trazado 2245" d="M183.949,53.677c-.043-.232-.88.091-.82.405a.555.555,0,0,1,0,.1.3.3,0,0,0-.1.173c-.017.19.311.118.4.084.381-.154.6-.344.521-.761" fill="#f38d2d"/>
        <path id="Trazado_2246" data-name="Trazado 2246" d="M182.5,58.985c.053,0,.023.01.007-.047-.068-.253-.9.1-.82.4.043.165.218.2.364.194a.824.824,0,0,0,.58-.286c.116-.144.051-.273-.131-.266" fill="#f38d2d"/>
        <path id="Trazado_2247" data-name="Trazado 2247" d="M187.952,55.579c.078-.194-.147-.249-.291-.222l-1.049.209a.71.71,0,0,0-.522.355c-.078.194.149.248.293.221l1.046-.209a.706.706,0,0,0,.523-.354" fill="#f38d2d"/>
        <path id="Trazado_2248" data-name="Trazado 2248" d="M181.747,56.845a.436.436,0,0,1-.175-.285c-.087-.418-.926-.084-.854.257a.848.848,0,0,0,.3.551c.281.226,1.044-.268.726-.523" fill="#f38d2d"/>
        <path id="Trazado_2249" data-name="Trazado 2249" d="M186.015,43.444a.845.845,0,0,0-.58.285c-.113.145-.274.242-.388.39s-.059.262.124.253a.843.843,0,0,0,.58-.285c.117-.145.275-.243.391-.39s.059-.264-.127-.253" fill="#f38d2d"/>
        <path id="Trazado_2250" data-name="Trazado 2250" d="M190.337,46.434c-.066-.038-.132-.081-.194-.123-.3-.2-1.054.3-.729.521a1.194,1.194,0,0,0,.772.262c.393-.015.8-.652.2-.629.062.007.045,0-.052-.031" fill="#f38d2d"/>
        <path id="Trazado_2251" data-name="Trazado 2251" d="M187.679,53.021c-.084,0-.167-.22-.186-.285-.1-.32-.927.051-.82.4a.671.671,0,0,0,.591.5.707.707,0,0,0,.577-.287.2.2,0,0,0-.162-.329" fill="#f38d2d"/>
        <path id="Trazado_2252" data-name="Trazado 2252" d="M187.721,50.6c.04.2.078.4.118.6.026.13.869-.164.82-.406-.038-.2-.078-.4-.118-.6-.025-.132-.868.162-.82.4" fill="#f38d2d"/>
        <path id="Trazado_2253" data-name="Trazado 2253" d="M178.286,65.662c-.348.07-.7.137-1.046.207a.706.706,0,0,0-.523.354c-.078.194.147.249.291.22.348-.07.7-.137,1.047-.207a.7.7,0,0,0,.522-.355c.08-.194-.145-.248-.291-.219" fill="#f38d2d"/>
        <path id="Trazado_2254" data-name="Trazado 2254" d="M172.2,66.86c-.088-.416-.928-.083-.855.259a.835.835,0,0,0,.3.551c.281.226,1.044-.268.725-.523a.433.433,0,0,1-.173-.287" fill="#f38d2d"/>
        <path id="Trazado_2255" data-name="Trazado 2255" d="M178.3,63.323c-.084,0-.166-.219-.186-.285-.1-.32-.927.051-.82.408a.671.671,0,0,0,.591.493.714.714,0,0,0,.58-.287.2.2,0,0,0-.165-.329" fill="#f38d2d"/>
        <path id="Trazado_2256" data-name="Trazado 2256" d="M178.347,60.9l.12.6c.026.131.866-.165.82-.4l-.12-.6c-.025-.131-.869.162-.82.4" fill="#f38d2d"/>
        <path id="Trazado_2257" data-name="Trazado 2257" d="M190.1,43.366c-.308-.19-1.059.318-.724.523a2.641,2.641,0,0,1,.716.479c.23.266,1.006-.2.725-.523a2.616,2.616,0,0,0-.717-.479" fill="#f38d2d"/>
        <path id="Trazado_2258" data-name="Trazado 2258" d="M189.379,39.451c.019.1.04.2.059.3.094.473.951.18.869-.232-.02-.1-.04-.2-.06-.3-.1-.473-.95-.18-.868.232" fill="#f38d2d"/>
        <path id="Trazado_2259" data-name="Trazado 2259" d="M184.767,39.578a1.02,1.02,0,0,0,.539-.319c.241-.358.48-.717.72-1.075.107-.163-.146-.108-.226-.085a1.079,1.079,0,0,0-.54.317c-.24.36-.478.719-.719,1.078-.108.162.148.109.226.084" fill="#f38d2d"/>
        <path id="Trazado_2260" data-name="Trazado 2260" d="M187.728,41.3c.382-.154.6-.344.521-.761-.044-.232-.879.091-.821.405a.472.472,0,0,1,0,.1.272.272,0,0,0-.1.175c-.018.187.309.116.4.082" fill="#f38d2d"/>
        <path id="Trazado_2261" data-name="Trazado 2261" d="M184.71,47.5a.823.823,0,0,0,.579-.287c.114-.141.051-.272-.131-.268.054,0,.024.013.007-.044-.067-.253-.9.1-.82.4.042.167.218.2.365.2" fill="#f38d2d"/>
        <path id="Trazado_2262" data-name="Trazado 2262" d="M114.8,202.7H35.408v11.219h.09a1.18,1.18,0,0,0-.09.431c0,3.588,17.773,6.494,39.7,6.494s39.7-2.906,39.7-6.494a1.123,1.123,0,0,0-.091-.431h.091Z" fill="#fff"/>
        <g id="Grupo_680" data-name="Grupo 680" style="mix-blend-mode: soft-light;isolation: isolate">
          <g id="Grupo_679" data-name="Grupo 679">
            <g id="Grupo_678" data-name="Grupo 678" clip-path="url(#clip-path-24)">
              <path id="Trazado_2263" data-name="Trazado 2263" d="M114.8,202.7H35.408v11.219h.09a1.18,1.18,0,0,0-.09.431c0,3.588,79.392-11.65,79.392-11.65" fill="#fff"/>
            </g>
          </g>
        </g>
        <path id="Trazado_2264" data-name="Trazado 2264" d="M114.8,202.7c0,3.585-17.772,6.493-39.7,6.493s-39.7-2.908-39.7-6.493,17.773-6.493,39.7-6.493,39.7,2.908,39.7,6.493" fill="#d0d2d3"/>
        <path id="Trazado_2265" data-name="Trazado 2265" d="M110.709,191.4H39.5v10.063h.082a1.008,1.008,0,0,0-.082.387c0,3.216,15.94,5.823,35.6,5.823s35.605-2.607,35.605-5.823a1.063,1.063,0,0,0-.08-.387h.08Z" fill="#fff"/>
        <g id="Grupo_683" data-name="Grupo 683" style="mix-blend-mode: soft-light;isolation: isolate">
          <g id="Grupo_682" data-name="Grupo 682">
            <g id="Grupo_681" data-name="Grupo 681" clip-path="url(#clip-path-25)">
              <path id="Trazado_2266" data-name="Trazado 2266" d="M110.709,191.4H39.5v10.063h.082a1.008,1.008,0,0,0-.082.387c0,3.216,71.209-10.45,71.209-10.45" fill="#fff"/>
            </g>
          </g>
        </g>
        <path id="Trazado_2267" data-name="Trazado 2267" d="M110.709,191.4c0,3.216-15.939,5.823-35.605,5.823s-35.6-2.607-35.6-5.823,15.94-5.823,35.6-5.823,35.605,2.607,35.605,5.823" fill="#d0d2d3"/>
        <g id="Grupo_686" data-name="Grupo 686" style="mix-blend-mode: multiply;isolation: isolate">
          <g id="Grupo_685" data-name="Grupo 685">
            <g id="Grupo_684" data-name="Grupo 684" clip-path="url(#clip-path-26)">
              <path id="Trazado_2268" data-name="Trazado 2268" d="M106.073,191.265c0,2.729-13.864,4.94-30.969,4.94s-30.969-2.211-30.969-4.94S58,186.326,75.1,186.326s30.969,2.21,30.969,4.939" fill="#6d6e70"/>
            </g>
          </g>
        </g>
        <path id="Trazado_2269" data-name="Trazado 2269" d="M104.945,182.171a29.84,29.84,0,1,0-58.78,7.277c0,2.944,12.957,5.33,28.939,5.33s28.941-2.386,28.943-5.33a29.882,29.882,0,0,0,.9-7.277" fill="#ec4039"/>
        <g id="Grupo_689" data-name="Grupo 689" style="mix-blend-mode: multiply;isolation: isolate">
          <g id="Grupo_688" data-name="Grupo 688">
            <g id="Grupo_687" data-name="Grupo 687" clip-path="url(#clip-path-27)">
              <path id="Trazado_2270" data-name="Trazado 2270" d="M87.129,156.084a28.131,28.131,0,0,1,12.309,30.665c0,2.773-12.211,5.023-27.277,5.023-10.049,0-10.352,1.861,3.474,1.861,15.062,0,27.276-2.25,27.276-5.024a28.128,28.128,0,0,0-15.782-32.525" fill="#ec4039"/>
            </g>
          </g>
        </g>
        <g id="Grupo_692" data-name="Grupo 692" opacity="0.66" style="mix-blend-mode: soft-light;isolation: isolate">
          <g id="Grupo_691" data-name="Grupo 691">
            <g id="Grupo_690" data-name="Grupo 690" clip-path="url(#clip-path-28)">
              <path id="Trazado_2271" data-name="Trazado 2271" d="M96.39,187.934c7.369-17.577-12.473-34.689-21.688-34.689a28.63,28.63,0,0,0-28.466,28.791c0,2.544-.118,5.542.55,6.377,3.36,2.849,38.762,3.49,49.6-.479" fill="#fff"/>
            </g>
          </g>
        </g>
        <g id="Grupo_695" data-name="Grupo 695" style="mix-blend-mode: soft-light;isolation: isolate">
          <g id="Grupo_694" data-name="Grupo 694">
            <g id="Grupo_693" data-name="Grupo 693" clip-path="url(#clip-path-29)">
              <path id="Trazado_2272" data-name="Trazado 2272" d="M47.934,182.453A27.453,27.453,0,0,1,75.386,155c15.164,0-27.452,42.616-27.452,27.453" fill="#fff"/>
            </g>
          </g>
        </g>
        <g id="Grupo_698" data-name="Grupo 698" style="mix-blend-mode: soft-light;isolation: isolate">
          <g id="Grupo_697" data-name="Grupo 697">
            <g id="Grupo_696" data-name="Grupo 696" clip-path="url(#clip-path-30)">
              <path id="Trazado_2273" data-name="Trazado 2273" d="M75.1,179.313l-56.02-27.16,28.86-28.86Z" fill="#fff"/>
            </g>
          </g>
        </g>
        <g id="Grupo_701" data-name="Grupo 701" style="mix-blend-mode: soft-light;isolation: isolate">
          <g id="Grupo_700" data-name="Grupo 700">
            <g id="Grupo_699" data-name="Grupo 699" clip-path="url(#clip-path-31)">
              <path id="Trazado_2274" data-name="Trazado 2274" d="M75.1,179.313l56.02-27.16-28.86-28.86Z" fill="#fff"/>
            </g>
          </g>
        </g>
      </g>
    </g>
  </g>
</svg>
